<?xml version="1.0" encoding="UTF-8" standalone="no"?>
<!DOCTYPE svg PUBLIC "-//W3C//DTD SVG 1.1//EN"
 "http://www.w3.org/Graphics/SVG/1.1/DTD/svg11.dtd">
<!-- Generated by graphviz version 2.43.0 (0)
 -->
<!-- Title: src/logic/board/board.cpp Pages: 1 -->
<svg width="352pt" height="252pt"
 viewBox="0.00 0.00 351.50 252.00" xmlns="http://www.w3.org/2000/svg" xmlns:xlink="http://www.w3.org/1999/xlink">
<g id="graph0" class="graph" transform="scale(1 1) rotate(0) translate(4 248)">
<title>src/logic/board/board.cpp</title>
<!-- Node1 -->
<g id="node1" class="node">
<title>Node1</title>
<g id="a_node1"><a xlink:title=" ">
<polygon fill="#bfbfbf" stroke="black" points="85.5,-224.5 85.5,-243.5 224.5,-243.5 224.5,-224.5 85.5,-224.5"/>
<text text-anchor="middle" x="155" y="-231.5" font-family="Helvetica,sans-Serif" font-size="10.00">src/logic/board/board.cpp</text>
</a>
</g>
</g>
<!-- Node2 -->
<g id="node2" class="node">
<title>Node2</title>
<g id="a_node2"><a xlink:href="board_8h.html" target="_top" xlink:title=" ">
<polygon fill="none" stroke="black" points="88.5,-168.5 88.5,-187.5 141.5,-187.5 141.5,-168.5 88.5,-168.5"/>
<text text-anchor="middle" x="115" y="-175.5" font-family="Helvetica,sans-Serif" font-size="10.00">board.h</text>
</a>
</g>
</g>
<!-- Node1&#45;&gt;Node2 -->
<g id="edge1" class="edge">
<title>Node1&#45;&gt;Node2</title>
<path fill="none" stroke="midnightblue" d="M148.39,-224.08C142.74,-216.46 134.46,-205.26 127.55,-195.94"/>
<polygon fill="midnightblue" stroke="midnightblue" points="130.25,-193.7 121.48,-187.75 124.62,-197.87 130.25,-193.7"/>
</g>
<!-- Node9 -->
<g id="node9" class="node">
<title>Node9</title>
<g id="a_node9"><a xlink:title=" ">
<polygon fill="none" stroke="#bfbfbf" points="292.5,-56.5 292.5,-75.5 343.5,-75.5 343.5,-56.5 292.5,-56.5"/>
<text text-anchor="middle" x="318" y="-63.5" font-family="Helvetica,sans-Serif" font-size="10.00">math.h</text>
</a>
</g>
</g>
<!-- Node1&#45;&gt;Node9 -->
<g id="edge13" class="edge">
<title>Node1&#45;&gt;Node9</title>
<path fill="none" stroke="midnightblue" d="M163.76,-224.08C190.09,-197.27 268.72,-117.19 302.4,-82.89"/>
<polygon fill="midnightblue" stroke="midnightblue" points="305.08,-85.16 309.59,-75.57 300.08,-80.25 305.08,-85.16"/>
</g>
<!-- Node3 -->
<g id="node3" class="node">
<title>Node3</title>
<g id="a_node3"><a xlink:href="figures_8h.html" target="_top" xlink:title=" ">
<polygon fill="none" stroke="black" points="110,-112.5 110,-131.5 214,-131.5 214,-112.5 110,-112.5"/>
<text text-anchor="middle" x="162" y="-119.5" font-family="Helvetica,sans-Serif" font-size="10.00">../figures/figures.h</text>
</a>
</g>
</g>
<!-- Node2&#45;&gt;Node3 -->
<g id="edge2" class="edge">
<title>Node2&#45;&gt;Node3</title>
<path fill="none" stroke="midnightblue" d="M122.76,-168.08C129.54,-160.3 139.54,-148.8 147.76,-139.37"/>
<polygon fill="midnightblue" stroke="midnightblue" points="150.46,-141.59 154.38,-131.75 145.18,-137 150.46,-141.59"/>
</g>
<!-- Node10 -->
<g id="node10" class="node">
<title>Node10</title>
<g id="a_node10"><a xlink:title=" ">
<polygon fill="none" stroke="#bfbfbf" points="0,-56.5 0,-75.5 32,-75.5 32,-56.5 0,-56.5"/>
<text text-anchor="middle" x="16" y="-63.5" font-family="Helvetica,sans-Serif" font-size="10.00">list</text>
</a>
</g>
</g>
<!-- Node2&#45;&gt;Node10 -->
<g id="edge11" class="edge">
<title>Node2&#45;&gt;Node10</title>
<path fill="none" stroke="midnightblue" d="M89.16,-168.41C71.5,-161.29 48.88,-149.47 35,-132 24.38,-118.64 19.7,-99.52 17.63,-85.48"/>
<polygon fill="midnightblue" stroke="midnightblue" points="21.1,-85.04 16.47,-75.51 14.15,-85.85 21.1,-85.04"/>
</g>
<!-- Node12 -->
<g id="node12" class="node">
<title>Node12</title>
<g id="a_node12"><a xlink:title=" ">
<polygon fill="none" stroke="#bfbfbf" points="44.5,-112.5 44.5,-131.5 91.5,-131.5 91.5,-112.5 44.5,-112.5"/>
<text text-anchor="middle" x="68" y="-119.5" font-family="Helvetica,sans-Serif" font-size="10.00">vector</text>
</a>
</g>
</g>
<!-- Node2&#45;&gt;Node12 -->
<g id="edge12" class="edge">
<title>Node2&#45;&gt;Node12</title>
<path fill="none" stroke="midnightblue" d="M107.24,-168.08C100.46,-160.3 90.46,-148.8 82.24,-139.37"/>
<polygon fill="midnightblue" stroke="midnightblue" points="84.82,-137 75.62,-131.75 79.54,-141.59 84.82,-137"/>
</g>
<!-- Node4 -->
<g id="node4" class="node">
<title>Node4</title>
<g id="a_node4"><a xlink:href="constants_8h.html" target="_top" xlink:title=" ">
<polygon fill="none" stroke="black" points="100.5,-56.5 100.5,-75.5 191.5,-75.5 191.5,-56.5 100.5,-56.5"/>
<text text-anchor="middle" x="146" y="-63.5" font-family="Helvetica,sans-Serif" font-size="10.00">../../constants.h</text>
</a>
</g>
</g>
<!-- Node3&#45;&gt;Node4 -->
<g id="edge3" class="edge">
<title>Node3&#45;&gt;Node4</title>
<path fill="none" stroke="midnightblue" d="M159.36,-112.08C157.21,-104.85 154.12,-94.41 151.45,-85.4"/>
<polygon fill="midnightblue" stroke="midnightblue" points="154.79,-84.34 148.59,-75.75 148.08,-86.33 154.79,-84.34"/>
</g>
<!-- Node6 -->
<g id="node6" class="node">
<title>Node6</title>
<g id="a_node6"><a xlink:href="utils_8h.html" target="_top" xlink:title=" ">
<polygon fill="none" stroke="black" points="209.5,-56.5 209.5,-75.5 274.5,-75.5 274.5,-56.5 209.5,-56.5"/>
<text text-anchor="middle" x="242" y="-63.5" font-family="Helvetica,sans-Serif" font-size="10.00">../../utils.h</text>
</a>
</g>
</g>
<!-- Node3&#45;&gt;Node6 -->
<g id="edge5" class="edge">
<title>Node3&#45;&gt;Node6</title>
<path fill="none" stroke="midnightblue" d="M174.85,-112.32C187.22,-103.98 206.13,-91.21 220.74,-81.35"/>
<polygon fill="midnightblue" stroke="midnightblue" points="222.85,-84.15 229.18,-75.65 218.93,-78.35 222.85,-84.15"/>
</g>
<!-- Node3&#45;&gt;Node9 -->
<g id="edge8" class="edge">
<title>Node3&#45;&gt;Node9</title>
<path fill="none" stroke="midnightblue" d="M186.72,-112.44C212.85,-103.4 254.26,-89.06 283.58,-78.92"/>
<polygon fill="midnightblue" stroke="midnightblue" points="285.09,-82.1 293.4,-75.52 282.8,-75.48 285.09,-82.1"/>
</g>
<!-- Node3&#45;&gt;Node10 -->
<g id="edge9" class="edge">
<title>Node3&#45;&gt;Node10</title>
<path fill="none" stroke="midnightblue" d="M138.87,-112.44C112.49,-102.69 69.46,-86.77 41.96,-76.6"/>
<polygon fill="midnightblue" stroke="midnightblue" points="42.84,-73.19 32.24,-73.01 40.41,-79.76 42.84,-73.19"/>
</g>
<!-- Node11 -->
<g id="node11" class="node">
<title>Node11</title>
<g id="a_node11"><a xlink:title=" ">
<polygon fill="none" stroke="#bfbfbf" points="50,-56.5 50,-75.5 82,-75.5 82,-56.5 50,-56.5"/>
<text text-anchor="middle" x="66" y="-63.5" font-family="Helvetica,sans-Serif" font-size="10.00">set</text>
</a>
</g>
</g>
<!-- Node3&#45;&gt;Node11 -->
<g id="edge10" class="edge">
<title>Node3&#45;&gt;Node11</title>
<path fill="none" stroke="midnightblue" d="M146.58,-112.32C131.46,-103.82 108.18,-90.73 90.53,-80.8"/>
<polygon fill="midnightblue" stroke="midnightblue" points="91.82,-77.51 81.39,-75.65 88.39,-83.61 91.82,-77.51"/>
</g>
<!-- Node5 -->
<g id="node5" class="node">
<title>Node5</title>
<g id="a_node5"><a xlink:title=" ">
<polygon fill="none" stroke="#bfbfbf" points="118.5,-0.5 118.5,-19.5 173.5,-19.5 173.5,-0.5 118.5,-0.5"/>
<text text-anchor="middle" x="146" y="-7.5" font-family="Helvetica,sans-Serif" font-size="10.00">QVector</text>
</a>
</g>
</g>
<!-- Node4&#45;&gt;Node5 -->
<g id="edge4" class="edge">
<title>Node4&#45;&gt;Node5</title>
<path fill="none" stroke="midnightblue" d="M146,-56.08C146,-49.01 146,-38.86 146,-29.99"/>
<polygon fill="midnightblue" stroke="midnightblue" points="149.5,-29.75 146,-19.75 142.5,-29.75 149.5,-29.75"/>
</g>
<!-- Node7 -->
<g id="node7" class="node">
<title>Node7</title>
<g id="a_node7"><a xlink:title=" ">
<polygon fill="none" stroke="#bfbfbf" points="268.5,-0.5 268.5,-19.5 321.5,-19.5 321.5,-0.5 268.5,-0.5"/>
<text text-anchor="middle" x="295" y="-7.5" font-family="Helvetica,sans-Serif" font-size="10.00">QString</text>
</a>
</g>
</g>
<!-- Node6&#45;&gt;Node7 -->
<g id="edge6" class="edge">
<title>Node6&#45;&gt;Node7</title>
<path fill="none" stroke="midnightblue" d="M250.75,-56.08C258.47,-48.22 269.9,-36.57 279.22,-27.08"/>
<polygon fill="midnightblue" stroke="midnightblue" points="281.9,-29.34 286.41,-19.75 276.91,-24.44 281.9,-29.34"/>
</g>
<!-- Node8 -->
<g id="node8" class="node">
<title>Node8</title>
<g id="a_node8"><a xlink:title=" ">
<polygon fill="none" stroke="#bfbfbf" points="205.5,-0.5 205.5,-19.5 250.5,-19.5 250.5,-0.5 205.5,-0.5"/>
<text text-anchor="middle" x="228" y="-7.5" font-family="Helvetica,sans-Serif" font-size="10.00">utility</text>
</a>
</g>
</g>
<!-- Node6&#45;&gt;Node8 -->
<g id="edge7" class="edge">
<title>Node6&#45;&gt;Node8</title>
<path fill="none" stroke="midnightblue" d="M239.69,-56.08C237.83,-48.93 235.16,-38.64 232.85,-29.69"/>
<polygon fill="midnightblue" stroke="midnightblue" points="236.17,-28.55 230.27,-19.75 229.39,-30.31 236.17,-28.55"/>
</g>
</g>
</svg>
