<?xml version="1.0" encoding="UTF-8" standalone="no"?>
<!DOCTYPE svg PUBLIC "-//W3C//DTD SVG 1.1//EN"
 "http://www.w3.org/Graphics/SVG/1.1/DTD/svg11.dtd">
<!-- Generated by graphviz version 2.50.0 (0)
 -->
<!-- Title: src/logic/board/board.h Pages: 1 -->
<svg width="384pt" height="196pt"
 viewBox="0.00 0.00 384.00 196.00" xmlns="http://www.w3.org/2000/svg" xmlns:xlink="http://www.w3.org/1999/xlink">
<g id="graph0" class="graph" transform="scale(1 1) rotate(0) translate(4 192)">
<title>src/logic/board/board.h</title>
<!-- Node1 -->
<g id="node1" class="node">
<title>Node1</title>
<g id="a_node1"><a xlink:title=" ">
<polygon fill="#bfbfbf" stroke="black" points="246,-168.5 246,-187.5 362,-187.5 362,-168.5 246,-168.5"/>
<text text-anchor="middle" x="304" y="-175.5" font-family="Helvetica,sans-Serif" font-size="10.00">src/logic/board/board.h</text>
</a>
</g>
</g>
<!-- Node2 -->
<g id="node2" class="node">
<title>Node2</title>
<g id="a_node2"><a xlink:href="figures_8h.html" target="_top" xlink:title=" ">
<polygon fill="none" stroke="black" points="173.5,-112.5 173.5,-131.5 268.5,-131.5 268.5,-112.5 173.5,-112.5"/>
<text text-anchor="middle" x="221" y="-119.5" font-family="Helvetica,sans-Serif" font-size="10.00">../figures/figures.h</text>
</a>
</g>
</g>
<!-- Node1&#45;&gt;Node2 -->
<g id="edge1" class="edge">
<title>Node1&#45;&gt;Node2</title>
<path fill="none" stroke="midnightblue" d="M290.66,-168.32C277.84,-159.98 258.22,-147.21 243.06,-137.35"/>
<polygon fill="midnightblue" stroke="midnightblue" points="244.59,-134.17 234.3,-131.65 240.78,-140.04 244.59,-134.17"/>
</g>
<!-- Node7 -->
<g id="node7" class="node">
<title>Node7</title>
<g id="a_node7"><a xlink:title=" ">
<polygon fill="none" stroke="#bfbfbf" points="297.5,-56.5 297.5,-75.5 326.5,-75.5 326.5,-56.5 297.5,-56.5"/>
<text text-anchor="middle" x="312" y="-63.5" font-family="Helvetica,sans-Serif" font-size="10.00">list</text>
</a>
</g>
</g>
<!-- Node1&#45;&gt;Node7 -->
<g id="edge8" class="edge">
<title>Node1&#45;&gt;Node7</title>
<path fill="none" stroke="midnightblue" d="M304.63,-168.37C305.92,-150.62 308.9,-109.67 310.65,-85.6"/>
<polygon fill="midnightblue" stroke="midnightblue" points="314.14,-85.82 311.38,-75.59 307.16,-85.31 314.14,-85.82"/>
</g>
<!-- Node9 -->
<g id="node9" class="node">
<title>Node9</title>
<g id="a_node9"><a xlink:title=" ">
<polygon fill="none" stroke="#bfbfbf" points="332,-112.5 332,-131.5 376,-131.5 376,-112.5 332,-112.5"/>
<text text-anchor="middle" x="354" y="-119.5" font-family="Helvetica,sans-Serif" font-size="10.00">vector</text>
</a>
</g>
</g>
<!-- Node1&#45;&gt;Node9 -->
<g id="edge9" class="edge">
<title>Node1&#45;&gt;Node9</title>
<path fill="none" stroke="midnightblue" d="M312.26,-168.08C319.46,-160.3 330.11,-148.8 338.85,-139.37"/>
<polygon fill="midnightblue" stroke="midnightblue" points="341.67,-141.47 345.9,-131.75 336.53,-136.71 341.67,-141.47"/>
</g>
<!-- Node3 -->
<g id="node3" class="node">
<title>Node3</title>
<g id="a_node3"><a xlink:href="constants_8h.html" target="_top" xlink:title=" ">
<polygon fill="none" stroke="black" points="0,-56.5 0,-75.5 86,-75.5 86,-56.5 0,-56.5"/>
<text text-anchor="middle" x="43" y="-63.5" font-family="Helvetica,sans-Serif" font-size="10.00">../../constants.h</text>
</a>
</g>
</g>
<!-- Node2&#45;&gt;Node3 -->
<g id="edge2" class="edge">
<title>Node2&#45;&gt;Node3</title>
<path fill="none" stroke="midnightblue" d="M192.8,-112.44C162.59,-103.28 114.49,-88.69 80.97,-78.52"/>
<polygon fill="midnightblue" stroke="midnightblue" points="81.66,-75.07 71.07,-75.52 79.63,-81.77 81.66,-75.07"/>
</g>
<!-- Node4 -->
<g id="node4" class="node">
<title>Node4</title>
<g id="a_node4"><a xlink:href="utils_8h.html" target="_top" xlink:title=" ">
<polygon fill="none" stroke="black" points="104.5,-56.5 104.5,-75.5 165.5,-75.5 165.5,-56.5 104.5,-56.5"/>
<text text-anchor="middle" x="135" y="-63.5" font-family="Helvetica,sans-Serif" font-size="10.00">../../utils.h</text>
</a>
</g>
</g>
<!-- Node2&#45;&gt;Node4 -->
<g id="edge3" class="edge">
<title>Node2&#45;&gt;Node4</title>
<path fill="none" stroke="midnightblue" d="M207.18,-112.32C193.77,-103.9 173.18,-90.97 157.41,-81.07"/>
<polygon fill="midnightblue" stroke="midnightblue" points="159.11,-78.01 148.78,-75.65 155.39,-83.94 159.11,-78.01"/>
</g>
<!-- Node6 -->
<g id="node6" class="node">
<title>Node6</title>
<g id="a_node6"><a xlink:title=" ">
<polygon fill="none" stroke="#bfbfbf" points="183.5,-56.5 183.5,-75.5 230.5,-75.5 230.5,-56.5 183.5,-56.5"/>
<text text-anchor="middle" x="207" y="-63.5" font-family="Helvetica,sans-Serif" font-size="10.00">math.h</text>
</a>
</g>
</g>
<!-- Node2&#45;&gt;Node6 -->
<g id="edge5" class="edge">
<title>Node2&#45;&gt;Node6</title>
<path fill="none" stroke="midnightblue" d="M218.69,-112.08C216.83,-104.93 214.16,-94.64 211.85,-85.69"/>
<polygon fill="midnightblue" stroke="midnightblue" points="215.17,-84.55 209.27,-75.75 208.39,-86.31 215.17,-84.55"/>
</g>
<!-- Node2&#45;&gt;Node7 -->
<g id="edge6" class="edge">
<title>Node2&#45;&gt;Node7</title>
<path fill="none" stroke="midnightblue" d="M235.62,-112.32C249.95,-103.82 272.01,-90.73 288.75,-80.8"/>
<polygon fill="midnightblue" stroke="midnightblue" points="290.6,-83.77 297.42,-75.65 287.03,-77.75 290.6,-83.77"/>
</g>
<!-- Node8 -->
<g id="node8" class="node">
<title>Node8</title>
<g id="a_node8"><a xlink:title=" ">
<polygon fill="none" stroke="#bfbfbf" points="249,-56.5 249,-75.5 279,-75.5 279,-56.5 249,-56.5"/>
<text text-anchor="middle" x="264" y="-63.5" font-family="Helvetica,sans-Serif" font-size="10.00">set</text>
</a>
</g>
</g>
<!-- Node2&#45;&gt;Node8 -->
<g id="edge7" class="edge">
<title>Node2&#45;&gt;Node8</title>
<path fill="none" stroke="midnightblue" d="M228.1,-112.08C234.24,-104.38 243.27,-93.03 250.74,-83.65"/>
<polygon fill="midnightblue" stroke="midnightblue" points="253.54,-85.75 257.03,-75.75 248.06,-81.39 253.54,-85.75"/>
</g>
<!-- Node5 -->
<g id="node5" class="node">
<title>Node5</title>
<g id="a_node5"><a xlink:title=" ">
<polygon fill="none" stroke="#bfbfbf" points="115,-0.5 115,-19.5 155,-19.5 155,-0.5 115,-0.5"/>
<text text-anchor="middle" x="135" y="-7.5" font-family="Helvetica,sans-Serif" font-size="10.00">utility</text>
</a>
</g>
</g>
<!-- Node4&#45;&gt;Node5 -->
<g id="edge4" class="edge">
<title>Node4&#45;&gt;Node5</title>
<path fill="none" stroke="midnightblue" d="M135,-56.08C135,-49.01 135,-38.86 135,-29.99"/>
<polygon fill="midnightblue" stroke="midnightblue" points="138.5,-29.75 135,-19.75 131.5,-29.75 138.5,-29.75"/>
</g>
</g>
</svg>
