<?xml version="1.0" encoding="UTF-8" standalone="no"?>
<!DOCTYPE svg PUBLIC "-//W3C//DTD SVG 1.1//EN"
 "http://www.w3.org/Graphics/SVG/1.1/DTD/svg11.dtd">
<!-- Generated by graphviz version 2.43.0 (0)
 -->
<!-- Title: MainWindow::guiMousePressFigure Pages: 1 -->
<svg width="530pt" height="78pt"
 viewBox="0.00 0.00 530.00 77.50" xmlns="http://www.w3.org/2000/svg" xmlns:xlink="http://www.w3.org/1999/xlink">
<g id="graph0" class="graph" transform="scale(1 1) rotate(0) translate(4 73.5)">
<title>MainWindow::guiMousePressFigure</title>
<!-- Node1 -->
<g id="node1" class="node">
<title>Node1</title>
<g id="a_node1"><a xlink:title=" ">
<polygon fill="#bfbfbf" stroke="black" points="0,-17 0,-47 158,-47 158,-17 0,-17"/>
<text text-anchor="start" x="8" y="-35" font-family="Helvetica,sans-Serif" font-size="10.00">MainWindow::guiMousePress</text>
<text text-anchor="middle" x="79" y="-24" font-family="Helvetica,sans-Serif" font-size="10.00">Figure</text>
</a>
</g>
</g>
<!-- Node2 -->
<g id="node2" class="node">
<title>Node2</title>
<g id="a_node2"><a xlink:href="classEngine.html#afffac825472b73103b32f2d3e4555267" target="_top" xlink:title=" ">
<polygon fill="none" stroke="black" points="194,-17 194,-47 337,-47 337,-17 194,-17"/>
<text text-anchor="start" x="202" y="-35" font-family="Helvetica,sans-Serif" font-size="10.00">Engine::getPosibleAttacks</text>
<text text-anchor="middle" x="265.5" y="-24" font-family="Helvetica,sans-Serif" font-size="10.00">FigureFrom</text>
</a>
</g>
</g>
<!-- Node1&#45;&gt;Node2 -->
<g id="edge1" class="edge">
<title>Node1&#45;&gt;Node2</title>
<path fill="none" stroke="midnightblue" d="M158.24,-32C166.62,-32 175.16,-32 183.57,-32"/>
<polygon fill="midnightblue" stroke="midnightblue" points="183.74,-35.5 193.74,-32 183.74,-28.5 183.74,-35.5"/>
</g>
<!-- Node3 -->
<g id="node3" class="node">
<title>Node3</title>
<g id="a_node3"><a xlink:href="classBoard.html#ac3f85f5b615feede6ea32745632203dd" target="_top" xlink:title=" ">
<polygon fill="none" stroke="black" points="373,-39 373,-69 522,-69 522,-39 373,-39"/>
<text text-anchor="start" x="381" y="-57" font-family="Helvetica,sans-Serif" font-size="10.00">Board::calculateFigureAfter</text>
<text text-anchor="middle" x="447.5" y="-46" font-family="Helvetica,sans-Serif" font-size="10.00">Taking</text>
</a>
</g>
</g>
<!-- Node2&#45;&gt;Node3 -->
<g id="edge2" class="edge">
<title>Node2&#45;&gt;Node3</title>
<path fill="none" stroke="midnightblue" d="M337.12,-40.63C345.55,-41.66 354.21,-42.72 362.8,-43.77"/>
<polygon fill="midnightblue" stroke="midnightblue" points="362.47,-47.26 372.82,-44.99 363.32,-40.31 362.47,-47.26"/>
</g>
<!-- Node4 -->
<g id="node4" class="node">
<title>Node4</title>
<g id="a_node4"><a xlink:href="classBoard.html#ab906dade3854d38f6354861a715fccac" target="_top" xlink:title="getBoo Возвращает доску.">
<polygon fill="none" stroke="black" points="388,-0.5 388,-19.5 507,-19.5 507,-0.5 388,-0.5"/>
<text text-anchor="middle" x="447.5" y="-7.5" font-family="Helvetica,sans-Serif" font-size="10.00">Board::getBoardData</text>
</a>
</g>
</g>
<!-- Node2&#45;&gt;Node4 -->
<g id="edge3" class="edge">
<title>Node2&#45;&gt;Node4</title>
<path fill="none" stroke="midnightblue" d="M337.12,-23.37C350.55,-21.73 364.57,-20.01 377.93,-18.38"/>
<polygon fill="midnightblue" stroke="midnightblue" points="378.49,-21.84 387.99,-17.15 377.64,-14.89 378.49,-21.84"/>
</g>
</g>
</svg>
