<?xml version="1.0" encoding="UTF-8" standalone="no"?>
<!DOCTYPE svg PUBLIC "-//W3C//DTD SVG 1.1//EN"
 "http://www.w3.org/Graphics/SVG/1.1/DTD/svg11.dtd">
<!-- Generated by graphviz version 2.50.0 (0)
 -->
<!-- Title: Figure Pages: 1 -->
<!--zoomable 248 -->
<svg id="main" version="1.1" xmlns="http://www.w3.org/2000/svg" xmlns:xlink="http://www.w3.org/1999/xlink" xml:space="preserve" onload="init(evt)">
<style type="text/css"><![CDATA[
.edge:hover path { stroke: red; }
.edge:hover polygon { stroke: red; fill: red; }
]]></style>
<script type="text/javascript"><![CDATA[
var edges = document.getElementsByTagName('g');
if (edges && edges.length) {
  for (var i=0;i<edges.length;i++) {
    if (edges[i].id.substr(0,4)=='edge') {
      edges[i].setAttribute('class','edge');
    }
  }
}
]]></script>
        <defs>
                <circle id="rim" cx="0" cy="0" r="7"/>
                <circle id="rim2" cx="0" cy="0" r="3.5"/>
                <g id="zoomPlus">
                        <use xlink:href="#rim" target="_top" fill="#404040">
                                <set attributeName="fill" to="#808080" begin="zoomplus.mouseover" end="zoomplus.mouseout"/>
                        </use>
                        <path d="M-4,0h8M0,-4v8" fill="none" stroke="white" stroke-width="1.5" pointer-events="none"/>
                </g>
                <g id="zoomMin">
                        <use xlink:href="#rim" target="_top" fill="#404040">
                                <set attributeName="fill" to="#808080" begin="zoomminus.mouseover" end="zoomminus.mouseout"/>
                        </use>
                        <path d="M-4,0h8" fill="none" stroke="white" stroke-width="1.5" pointer-events="none"/>
                </g>
                <g id="dirArrow">
                        <path fill="none" stroke="white" stroke-width="1.5" d="M0,-3.0v7 M-2.5,-0.5L0,-3.0L2.5,-0.5"/>
                </g>
               <g id="resetDef">
                       <use xlink:href="#rim2" target="_top" fill="#404040">
                               <set attributeName="fill" to="#808080" begin="reset.mouseover" end="reset.mouseout"/>
                       </use>
               </g>
        </defs>

<script type="text/javascript">
var viewWidth = 541;
var viewHeight = 248;
var sectionId = 'dynsection-0';
</script>
<script xlink:href="svgpan.js" target="_top"/>
<svg id="graph" class="graph">
<g id="viewport">
<title>Figure</title>
<!-- Node1 -->
<g id="node1" class="node">
<title>Node1</title>
<g id="a_node1"><a xlink:title="Абстрактный класс фигуры.">
<polygon fill="#bfbfbf" stroke="black" points="202,-116.5 202,-239.5 318,-239.5 318,-116.5 202,-116.5"/>
<text text-anchor="middle" x="260" y="-227.5" font-family="Helvetica,sans-Serif" font-size="10.00">Figure</text>
<polyline fill="none" stroke="black" points="202,-220.5 318,-220.5 "/>
<text text-anchor="start" x="210" y="-208.5" font-family="Helvetica,sans-Serif" font-size="10.00"># b_price</text>
<text text-anchor="start" x="210" y="-197.5" font-family="Helvetica,sans-Serif" font-size="10.00"># possible_moves</text>
<text text-anchor="start" x="210" y="-186.5" font-family="Helvetica,sans-Serif" font-size="10.00"># b_color</text>
<polyline fill="none" stroke="black" points="202,-179.5 318,-179.5 "/>
<text text-anchor="start" x="210" y="-167.5" font-family="Helvetica,sans-Serif" font-size="10.00">+ Figure()</text>
<text text-anchor="start" x="210" y="-156.5" font-family="Helvetica,sans-Serif" font-size="10.00">+ getPrice()</text>
<text text-anchor="start" x="210" y="-145.5" font-family="Helvetica,sans-Serif" font-size="10.00">+ getUnarySteps()</text>
<text text-anchor="start" x="210" y="-134.5" font-family="Helvetica,sans-Serif" font-size="10.00">+ getPossibleMoves()</text>
<text text-anchor="start" x="210" y="-123.5" font-family="Helvetica,sans-Serif" font-size="10.00">+ getPossibleAttacks()</text>
</a>
</g>
</g>
<!-- Node2 -->
<g id="node2" class="node">
<title>Node2</title>
<g id="a_node2"><a xlink:href="classBishop.html" target="_top" xlink:title="Слон.">
<polygon fill="none" stroke="black" points="0,-11.5 0,-68.5 62,-68.5 62,-11.5 0,-11.5"/>
<text text-anchor="middle" x="31" y="-56.5" font-family="Helvetica,sans-Serif" font-size="10.00">Bishop</text>
<polyline fill="none" stroke="black" points="0,-49.5 62,-49.5 "/>
<text text-anchor="middle" x="31" y="-37.5" font-family="Helvetica,sans-Serif" font-size="10.00"> </text>
<polyline fill="none" stroke="black" points="0,-30.5 62,-30.5 "/>
<text text-anchor="start" x="8" y="-18.5" font-family="Helvetica,sans-Serif" font-size="10.00">+ Bishop()</text>
</a>
</g>
</g>
<!-- Node1&#45;&gt;Node2 -->
<g id="edge1" class="edge">
<title>Node1&#45;&gt;Node2</title>
<path fill="none" stroke="midnightblue" d="M192.33,-148.29C154.98,-130.99 108.68,-107.1 71,-80 66.28,-76.6 61.57,-72.66 57.13,-68.6"/>
<polygon fill="none" stroke="midnightblue" points="191.07,-151.56 201.62,-152.54 193.98,-145.19 191.07,-151.56"/>
</g>
<!-- Node3 -->
<g id="node3" class="node">
<title>Node3</title>
<g id="a_node3"><a xlink:href="classKing.html" target="_top" xlink:title="Король.">
<polygon fill="none" stroke="black" points="80.5,-11.5 80.5,-68.5 131.5,-68.5 131.5,-11.5 80.5,-11.5"/>
<text text-anchor="middle" x="106" y="-56.5" font-family="Helvetica,sans-Serif" font-size="10.00">King</text>
<polyline fill="none" stroke="black" points="80.5,-49.5 131.5,-49.5 "/>
<text text-anchor="middle" x="106" y="-37.5" font-family="Helvetica,sans-Serif" font-size="10.00"> </text>
<polyline fill="none" stroke="black" points="80.5,-30.5 131.5,-30.5 "/>
<text text-anchor="start" x="88.5" y="-18.5" font-family="Helvetica,sans-Serif" font-size="10.00">+ King()</text>
</a>
</g>
</g>
<!-- Node1&#45;&gt;Node3 -->
<g id="edge2" class="edge">
<title>Node1&#45;&gt;Node3</title>
<path fill="none" stroke="midnightblue" d="M193.65,-126.78C175.7,-112.28 156.65,-96.04 140,-80 136.38,-76.51 132.71,-72.68 129.2,-68.83"/>
<polygon fill="none" stroke="midnightblue" points="191.82,-129.79 201.81,-133.3 196.19,-124.32 191.82,-129.79"/>
</g>
<!-- Node4 -->
<g id="node4" class="node">
<title>Node4</title>
<g id="a_node4"><a xlink:href="classKinght.html" target="_top" xlink:title="Конь.">
<polygon fill="none" stroke="black" points="149.5,-6 149.5,-74 246.5,-74 246.5,-6 149.5,-6"/>
<text text-anchor="middle" x="198" y="-62" font-family="Helvetica,sans-Serif" font-size="10.00">Kinght</text>
<polyline fill="none" stroke="black" points="149.5,-55 246.5,-55 "/>
<text text-anchor="middle" x="198" y="-43" font-family="Helvetica,sans-Serif" font-size="10.00"> </text>
<polyline fill="none" stroke="black" points="149.5,-36 246.5,-36 "/>
<text text-anchor="start" x="157.5" y="-24" font-family="Helvetica,sans-Serif" font-size="10.00">+ Kinght()</text>
<text text-anchor="start" x="157.5" y="-13" font-family="Helvetica,sans-Serif" font-size="10.00">+ getUnarySteps()</text>
</a>
</g>
</g>
<!-- Node1&#45;&gt;Node4 -->
<g id="edge3" class="edge">
<title>Node1&#45;&gt;Node4</title>
<path fill="none" stroke="midnightblue" d="M228.09,-107C222.87,-95.56 217.69,-84.2 213.14,-74.21"/>
<polygon fill="none" stroke="midnightblue" points="224.93,-108.51 232.26,-116.16 231.3,-105.61 224.93,-108.51"/>
</g>
<!-- Node5 -->
<g id="node5" class="node">
<title>Node5</title>
<g id="a_node5"><a xlink:href="classPawn.html" target="_top" xlink:title="Пешка.">
<polygon fill="none" stroke="black" points="265,-0.5 265,-79.5 381,-79.5 381,-0.5 265,-0.5"/>
<text text-anchor="middle" x="323" y="-67.5" font-family="Helvetica,sans-Serif" font-size="10.00">Pawn</text>
<polyline fill="none" stroke="black" points="265,-60.5 381,-60.5 "/>
<text text-anchor="middle" x="323" y="-48.5" font-family="Helvetica,sans-Serif" font-size="10.00"> </text>
<polyline fill="none" stroke="black" points="265,-41.5 381,-41.5 "/>
<text text-anchor="start" x="273" y="-29.5" font-family="Helvetica,sans-Serif" font-size="10.00">+ Pawn()</text>
<text text-anchor="start" x="273" y="-18.5" font-family="Helvetica,sans-Serif" font-size="10.00">+ Pawn()</text>
<text text-anchor="start" x="273" y="-7.5" font-family="Helvetica,sans-Serif" font-size="10.00">+ getPossibleAttacks()</text>
</a>
</g>
</g>
<!-- Node1&#45;&gt;Node5 -->
<g id="edge4" class="edge">
<title>Node1&#45;&gt;Node5</title>
<path fill="none" stroke="midnightblue" d="M292.39,-107.08C296.78,-97.61 301.14,-88.18 305.15,-79.54"/>
<polygon fill="none" stroke="midnightblue" points="289.21,-105.62 288.18,-116.16 295.56,-108.56 289.21,-105.62"/>
</g>
<!-- Node6 -->
<g id="node6" class="node">
<title>Node6</title>
<g id="a_node6"><a xlink:href="classQueen.html" target="_top" xlink:title="Ферзь.">
<polygon fill="none" stroke="black" points="399,-11.5 399,-68.5 459,-68.5 459,-11.5 399,-11.5"/>
<text text-anchor="middle" x="429" y="-56.5" font-family="Helvetica,sans-Serif" font-size="10.00">Queen</text>
<polyline fill="none" stroke="black" points="399,-49.5 459,-49.5 "/>
<text text-anchor="middle" x="429" y="-37.5" font-family="Helvetica,sans-Serif" font-size="10.00"> </text>
<polyline fill="none" stroke="black" points="399,-30.5 459,-30.5 "/>
<text text-anchor="start" x="407" y="-18.5" font-family="Helvetica,sans-Serif" font-size="10.00">+ Queen()</text>
</a>
</g>
</g>
<!-- Node1&#45;&gt;Node6 -->
<g id="edge5" class="edge">
<title>Node1&#45;&gt;Node6</title>
<path fill="none" stroke="midnightblue" d="M326.23,-130.45C347.13,-115 369.98,-97.32 390,-80 394.06,-76.49 398.2,-72.65 402.21,-68.79"/>
<polygon fill="none" stroke="midnightblue" points="324.01,-127.73 318.02,-136.47 328.15,-133.38 324.01,-127.73"/>
</g>
<!-- Node7 -->
<g id="node7" class="node">
<title>Node7</title>
<g id="a_node7"><a xlink:href="classRook.html" target="_top" xlink:title="Ладья.">
<polygon fill="none" stroke="black" points="477.5,-11.5 477.5,-68.5 532.5,-68.5 532.5,-11.5 477.5,-11.5"/>
<text text-anchor="middle" x="505" y="-56.5" font-family="Helvetica,sans-Serif" font-size="10.00">Rook</text>
<polyline fill="none" stroke="black" points="477.5,-49.5 532.5,-49.5 "/>
<text text-anchor="middle" x="505" y="-37.5" font-family="Helvetica,sans-Serif" font-size="10.00"> </text>
<polyline fill="none" stroke="black" points="477.5,-30.5 532.5,-30.5 "/>
<text text-anchor="start" x="485.5" y="-18.5" font-family="Helvetica,sans-Serif" font-size="10.00">+ Rook()</text>
</a>
</g>
</g>
<!-- Node1&#45;&gt;Node7 -->
<g id="edge6" class="edge">
<title>Node1&#45;&gt;Node7</title>
<path fill="none" stroke="midnightblue" d="M327.73,-152.94C370.2,-136.09 424.86,-111.06 468,-80 472.54,-76.73 476.99,-72.85 481.14,-68.82"/>
<polygon fill="none" stroke="midnightblue" points="326.36,-149.72 318.32,-156.62 328.91,-156.24 326.36,-149.72"/>
</g>
</g>
</svg>
        <g id="navigator" transform="translate(0 0)" fill="#404254">
                <rect fill="#f2f5e9" fill-opacity="0.5" stroke="#606060" stroke-width=".5" x="0" y="0" width="60" height="60"/>
                <use id="zoomplus" xlink:href="#zoomPlus" target="_top" x="17" y="9" onmousedown="handleZoom(evt,'in')"/>
                <use id="zoomminus" xlink:href="#zoomMin" target="_top" x="42" y="9" onmousedown="handleZoom(evt,'out')"/>
                <use id="reset" xlink:href="#resetDef" target="_top" x="30" y="36" onmousedown="handleReset()"/>
                <g id="arrowUp" xlink:href="#dirArrow" target="_top" transform="translate(30 24)" onmousedown="handlePan(0,-1)">
                  <use xlink:href="#rim" target="_top" fill="#404040">
                        <set attributeName="fill" to="#808080" begin="arrowUp.mouseover" end="arrowUp.mouseout"/>
                  </use>
                  <path fill="none" stroke="white" stroke-width="1.5" d="M0,-3.0v7 M-2.5,-0.5L0,-3.0L2.5,-0.5"/>
                </g>
                <g id="arrowRight" xlink:href="#dirArrow" target="_top" transform="rotate(90) translate(36 -43)" onmousedown="handlePan(1,0)">
                  <use xlink:href="#rim" target="_top" fill="#404040">
                        <set attributeName="fill" to="#808080" begin="arrowRight.mouseover" end="arrowRight.mouseout"/>
                  </use>
                  <path fill="none" stroke="white" stroke-width="1.5" d="M0,-3.0v7 M-2.5,-0.5L0,-3.0L2.5,-0.5"/>
                </g>
                <g id="arrowDown" xlink:href="#dirArrow" target="_top" transform="rotate(180) translate(-30 -48)" onmousedown="handlePan(0,1)">
                  <use xlink:href="#rim" target="_top" fill="#404040">
                        <set attributeName="fill" to="#808080" begin="arrowDown.mouseover" end="arrowDown.mouseout"/>
                  </use>
                  <path fill="none" stroke="white" stroke-width="1.5" d="M0,-3.0v7 M-2.5,-0.5L0,-3.0L2.5,-0.5"/>
                </g>
                <g id="arrowLeft" xlink:href="#dirArrow" target="_top" transform="rotate(270) translate(-36 17)" onmousedown="handlePan(-1,0)">
                  <use xlink:href="#rim" target="_top" fill="#404040">
                        <set attributeName="fill" to="#808080" begin="arrowLeft.mouseover" end="arrowLeft.mouseout"/>
                  </use>
                  <path fill="none" stroke="white" stroke-width="1.5" d="M0,-3.0v7 M-2.5,-0.5L0,-3.0L2.5,-0.5"/>
                </g>
        </g>
        <svg viewBox="0 0 15 15" width="100%" height="30px" preserveAspectRatio="xMaxYMin meet">
         <g id="arrow_out" transform="scale(0.3 0.3)">
          <a xlink:href="classFigure__inherit__graph_org.svg" target="_base">
           <rect id="button" ry="5" rx="5" y="6" x="6" height="38" width="38"
                fill="#f2f5e9" fill-opacity="0.5" stroke="#606060" stroke-width="1.0"/>
           <path id="arrow"
             d="M 11.500037,31.436501 C 11.940474,20.09759 22.043105,11.32322 32.158766,21.979434 L 37.068811,17.246167 C 37.068811,17.246167 37.088388,32 37.088388,32 L 22.160133,31.978069 C 22.160133,31.978069 26.997745,27.140456 26.997745,27.140456 C 18.528582,18.264221 13.291696,25.230495 11.500037,31.436501 z"
             style="fill:#404040;"/>
          </a>
         </g>
        </svg>
</svg>
