<?xml version="1.0" encoding="UTF-8" standalone="no"?>
<!DOCTYPE svg PUBLIC "-//W3C//DTD SVG 1.1//EN"
 "http://www.w3.org/Graphics/SVG/1.1/DTD/svg11.dtd">
<!-- Generated by graphviz version 2.43.0 (0)
 -->
<!-- Title: Settings::changeMusicVolume Pages: 1 -->
<svg width="543pt" height="56pt"
 viewBox="0.00 0.00 543.00 55.50" xmlns="http://www.w3.org/2000/svg" xmlns:xlink="http://www.w3.org/1999/xlink">
<g id="graph0" class="graph" transform="scale(1 1) rotate(0) translate(4 51.5)">
<title>Settings::changeMusicVolume</title>
<!-- Node1 -->
<g id="node1" class="node">
<title>Node1</title>
<g id="a_node1"><a xlink:title="Сохранение изменений громкости музыки">
<polygon fill="#bfbfbf" stroke="black" points="372,-0.5 372,-19.5 535,-19.5 535,-0.5 372,-0.5"/>
<text text-anchor="middle" x="453.5" y="-7.5" font-family="Helvetica,sans-Serif" font-size="10.00">Settings::changeMusicVolume</text>
</a>
</g>
</g>
<!-- Node2 -->
<g id="node2" class="node">
<title>Node2</title>
<g id="a_node2"><a xlink:href="classMainWindow.html#a096e1792cdc01314c34af35c7c7e1794" target="_top" xlink:title="Сохраняет громкость музыки при её изменении.">
<polygon fill="none" stroke="black" points="184,-17 184,-47 336,-47 336,-17 184,-17"/>
<text text-anchor="start" x="192" y="-35" font-family="Helvetica,sans-Serif" font-size="10.00">MainWindow::connectMusic</text>
<text text-anchor="middle" x="260" y="-24" font-family="Helvetica,sans-Serif" font-size="10.00">VolumeToStorage</text>
</a>
</g>
</g>
<!-- Node1&#45;&gt;Node2 -->
<g id="edge1" class="edge">
<title>Node1&#45;&gt;Node2</title>
<path fill="none" stroke="midnightblue" d="M361.78,-20.42C353.17,-21.41 344.51,-22.41 336.07,-23.38"/>
<polygon fill="midnightblue" stroke="midnightblue" points="362.31,-23.88 371.84,-19.27 361.51,-16.93 362.31,-23.88"/>
</g>
<!-- Node3 -->
<g id="node3" class="node">
<title>Node3</title>
<g id="a_node3"><a xlink:href="classMainWindow.html#a996c5a2b6f77944776856f08ec30858d" target="_top" xlink:title=" ">
<polygon fill="none" stroke="black" points="0,-0.5 0,-19.5 148,-19.5 148,-0.5 0,-0.5"/>
<text text-anchor="middle" x="74" y="-7.5" font-family="Helvetica,sans-Serif" font-size="10.00">MainWindow::MainWindow</text>
</a>
</g>
</g>
<!-- Node1&#45;&gt;Node3 -->
<g id="edge3" class="edge">
<title>Node1&#45;&gt;Node3</title>
<path fill="none" stroke="midnightblue" d="M361.76,-8.29C353.06,-8.17 344.36,-8.07 336,-8 268.45,-7.42 251.55,-7.38 184,-8 172.46,-8.11 160.22,-8.27 148.29,-8.47"/>
<polygon fill="midnightblue" stroke="midnightblue" points="361.92,-11.79 371.97,-8.44 362.02,-4.79 361.92,-11.79"/>
</g>
<!-- Node2&#45;&gt;Node3 -->
<g id="edge2" class="edge">
<title>Node2&#45;&gt;Node3</title>
<path fill="none" stroke="midnightblue" d="M173.84,-21.82C165.24,-20.79 156.55,-19.75 148.08,-18.74"/>
<polygon fill="midnightblue" stroke="midnightblue" points="173.55,-25.31 183.89,-23.02 174.38,-18.36 173.55,-25.31"/>
</g>
</g>
</svg>
