<?xml version="1.0" encoding="UTF-8" standalone="no"?>
<!DOCTYPE svg PUBLIC "-//W3C//DTD SVG 1.1//EN"
 "http://www.w3.org/Graphics/SVG/1.1/DTD/svg11.dtd">
<!-- Generated by graphviz version 2.43.0 (0)
 -->
<!-- Title: MainWindow::MainWindow Pages: 1 -->
<!--zoomable 874 -->
<svg id="main" version="1.1" xmlns="http://www.w3.org/2000/svg" xmlns:xlink="http://www.w3.org/1999/xlink" xml:space="preserve" onload="init(evt)">
<style type="text/css"><![CDATA[
.edge:hover path { stroke: red; }
.edge:hover polygon { stroke: red; fill: red; }
]]></style>
<script type="text/javascript"><![CDATA[
var edges = document.getElementsByTagName('g');
if (edges && edges.length) {
  for (var i=0;i<edges.length;i++) {
    if (edges[i].id.substr(0,4)=='edge') {
      edges[i].setAttribute('class','edge');
    }
  }
}
]]></script>
        <defs>
                <circle id="rim" cx="0" cy="0" r="7"/>
                <circle id="rim2" cx="0" cy="0" r="3.5"/>
                <g id="zoomPlus">
                        <use xlink:href="#rim" fill="#404040">
                                <set attributeName="fill" to="#808080" begin="zoomplus.mouseover" end="zoomplus.mouseout"/>
                        </use>
                        <path d="M-4,0h8M0,-4v8" fill="none" stroke="white" stroke-width="1.5" pointer-events="none"/>
                </g>
                <g id="zoomMin">
                        <use xlink:href="#rim" fill="#404040">
                                <set attributeName="fill" to="#808080" begin="zoomminus.mouseover" end="zoomminus.mouseout"/>
                        </use>
                        <path d="M-4,0h8" fill="none" stroke="white" stroke-width="1.5" pointer-events="none"/>
                </g>
                <g id="dirArrow">
                        <path fill="none" stroke="white" stroke-width="1.5" d="M0,-3.0v7 M-2.5,-0.5L0,-3.0L2.5,-0.5"/>
                </g>
               <g id="resetDef">
                       <use xlink:href="#rim2" fill="#404040">
                               <set attributeName="fill" to="#808080" begin="reset.mouseover" end="reset.mouseout"/>
                       </use>
               </g>
        </defs>

<script type="text/javascript">
var viewWidth = 1320;
var viewHeight = 874;
var sectionId = 'dynsection-2';
</script>
<script xlink:href="svgpan.js"/>
<svg id="graph" class="graph">
<g id="viewport">
<title>MainWindow::MainWindow</title>
<!-- Node1 -->
<g id="node1" class="node">
<title>Node1</title>
<g id="a_node1"><a xlink:title=" ">
<polygon fill="#bfbfbf" stroke="black" points="0,-310.5 0,-329.5 148,-329.5 148,-310.5 0,-310.5"/>
<text text-anchor="middle" x="74" y="-317.5" font-family="Helvetica,sans-Serif" font-size="10.00">MainWindow::MainWindow</text>
</a>
</g>
</g>
<!-- Node2 -->
<g id="node2" class="node">
<title>Node2</title>
<g id="a_node2"><a xlink:href="classScreenLiderboard.html#a82fe5bb9612760278f98be788877b461" target="_top" xlink:title="Добавляет новую запись в таблицу.">
<polygon fill="none" stroke="black" points="195.5,-677 195.5,-707 342.5,-707 342.5,-677 195.5,-677"/>
<text text-anchor="start" x="203.5" y="-695" font-family="Helvetica,sans-Serif" font-size="10.00">ScreenLiderboard::addNew</text>
<text text-anchor="middle" x="269" y="-684" font-family="Helvetica,sans-Serif" font-size="10.00">Record</text>
</a>
</g>
</g>
<!-- Node1&#45;&gt;Node2 -->
<g id="edge1" class="edge">
<title>Node1&#45;&gt;Node2</title>
<path fill="none" stroke="midnightblue" d="M75.13,-329.69C76.25,-374.22 86.79,-561.38 184,-662 187.61,-665.73 191.71,-669 196.11,-671.87"/>
<polygon fill="midnightblue" stroke="midnightblue" points="194.49,-674.97 204.91,-676.89 197.96,-668.89 194.49,-674.97"/>
</g>
<!-- Node3 -->
<g id="node3" class="node">
<title>Node3</title>
<g id="a_node3"><a xlink:href="classSettings.html#a082228079c89f928f58737f53f3a05b1" target="_top" xlink:title="Сохранение изменений громкости музыки">
<polygon fill="none" stroke="black" points="405.5,-650.5 405.5,-669.5 568.5,-669.5 568.5,-650.5 405.5,-650.5"/>
<text text-anchor="middle" x="487" y="-657.5" font-family="Helvetica,sans-Serif" font-size="10.00">Settings::changeMusicVolume</text>
</a>
</g>
</g>
<!-- Node1&#45;&gt;Node3 -->
<g id="edge2" class="edge">
<title>Node1&#45;&gt;Node3</title>
<path fill="none" stroke="midnightblue" d="M74.99,-329.58C75.52,-372.72 83.88,-550.17 184,-629 215.8,-654.04 318.17,-660.19 394.97,-661.11"/>
<polygon fill="midnightblue" stroke="midnightblue" points="395.12,-664.61 405.15,-661.2 395.18,-657.61 395.12,-664.61"/>
</g>
<!-- Node4 -->
<g id="node4" class="node">
<title>Node4</title>
<g id="a_node4"><a xlink:href="classMainWindow.html#a85e58f13e52e2a2d01b0bbf87c1442e9" target="_top" xlink:title="Перемещение и окончание игры.">
<polygon fill="none" stroke="black" points="185.5,-540 185.5,-570 352.5,-570 352.5,-540 185.5,-540"/>
<text text-anchor="start" x="193.5" y="-558" font-family="Helvetica,sans-Serif" font-size="10.00">MainWindow::connectGuiMove</text>
<text text-anchor="middle" x="269" y="-547" font-family="Helvetica,sans-Serif" font-size="10.00">WithEngine</text>
</a>
</g>
</g>
<!-- Node1&#45;&gt;Node4 -->
<g id="edge3" class="edge">
<title>Node1&#45;&gt;Node4</title>
<path fill="none" stroke="midnightblue" d="M77.14,-329.64C85.03,-362.83 115.61,-473.48 184,-530 186.05,-531.7 188.22,-533.28 190.47,-534.75"/>
<polygon fill="midnightblue" stroke="midnightblue" points="189.11,-538.01 199.53,-539.92 192.58,-531.93 189.11,-538.01"/>
</g>
<!-- Node20 -->
<g id="node20" class="node">
<title>Node20</title>
<g id="a_node20"><a xlink:href="classMainWindow.html#a6e4021087f5f5c353d8e5c89e3a737cf" target="_top" xlink:title="Сохраняет флаг активности музыки при его изменении.">
<polygon fill="none" stroke="black" points="193,-403 193,-433 345,-433 345,-403 193,-403"/>
<text text-anchor="start" x="201" y="-421" font-family="Helvetica,sans-Serif" font-size="10.00">MainWindow::connectMusic</text>
<text text-anchor="middle" x="269" y="-410" font-family="Helvetica,sans-Serif" font-size="10.00">FlagToStorage</text>
</a>
</g>
</g>
<!-- Node1&#45;&gt;Node20 -->
<g id="edge20" class="edge">
<title>Node1&#45;&gt;Node20</title>
<path fill="none" stroke="midnightblue" d="M86.35,-329.53C105.38,-345.08 145.46,-375.98 184,-394 188.13,-395.93 192.45,-397.74 196.85,-399.43"/>
<polygon fill="midnightblue" stroke="midnightblue" points="196.01,-402.84 206.6,-402.93 198.37,-396.25 196.01,-402.84"/>
</g>
<!-- Node22 -->
<g id="node22" class="node">
<title>Node22</title>
<g id="a_node22"><a xlink:href="classMainWindow.html#a096e1792cdc01314c34af35c7c7e1794" target="_top" xlink:title="Сохраняет громкость музыки при её изменении.">
<polygon fill="none" stroke="black" points="193,-589 193,-619 345,-619 345,-589 193,-589"/>
<text text-anchor="start" x="201" y="-607" font-family="Helvetica,sans-Serif" font-size="10.00">MainWindow::connectMusic</text>
<text text-anchor="middle" x="269" y="-596" font-family="Helvetica,sans-Serif" font-size="10.00">VolumeToStorage</text>
</a>
</g>
</g>
<!-- Node1&#45;&gt;Node22 -->
<g id="edge22" class="edge">
<title>Node1&#45;&gt;Node22</title>
<path fill="none" stroke="midnightblue" d="M76.08,-329.74C80.85,-367.88 103.48,-508.51 184,-580 185.33,-581.18 186.71,-582.3 188.13,-583.36"/>
<polygon fill="midnightblue" stroke="midnightblue" points="186.44,-586.44 196.75,-588.88 190.22,-580.54 186.44,-586.44"/>
</g>
<!-- Node23 -->
<g id="node23" class="node">
<title>Node23</title>
<g id="a_node23"><a xlink:href="classMainWindow.html#acaf597ce57fa054538f0c156b8c4a799" target="_top" xlink:title="Сохраняет флаг активности музыки при его изменении.">
<polygon fill="none" stroke="black" points="190,-354 190,-384 348,-384 348,-354 190,-354"/>
<text text-anchor="start" x="198" y="-372" font-family="Helvetica,sans-Serif" font-size="10.00">MainWindow::connectSounds</text>
<text text-anchor="middle" x="269" y="-361" font-family="Helvetica,sans-Serif" font-size="10.00">FlagToStorage</text>
</a>
</g>
</g>
<!-- Node1&#45;&gt;Node23 -->
<g id="edge24" class="edge">
<title>Node1&#45;&gt;Node23</title>
<path fill="none" stroke="midnightblue" d="M112.67,-329.56C137.21,-335.79 169.96,-344.11 199.06,-351.5"/>
<polygon fill="midnightblue" stroke="midnightblue" points="198.22,-354.89 208.77,-353.96 199.94,-348.11 198.22,-354.89"/>
</g>
<!-- Node25 -->
<g id="node25" class="node">
<title>Node25</title>
<g id="a_node25"><a xlink:href="classMainWindow.html#a606f7772cff0368694aabeff689067aa" target="_top" xlink:title="Сохраняет громкость музыки при её изменении.">
<polygon fill="none" stroke="black" points="190,-305 190,-335 348,-335 348,-305 190,-305"/>
<text text-anchor="start" x="198" y="-323" font-family="Helvetica,sans-Serif" font-size="10.00">MainWindow::connectSounds</text>
<text text-anchor="middle" x="269" y="-312" font-family="Helvetica,sans-Serif" font-size="10.00">VolumeToStorage</text>
</a>
</g>
</g>
<!-- Node1&#45;&gt;Node25 -->
<g id="edge26" class="edge">
<title>Node1&#45;&gt;Node25</title>
<path fill="none" stroke="midnightblue" d="M148.24,-320C158.58,-320 169.31,-320 179.89,-320"/>
<polygon fill="midnightblue" stroke="midnightblue" points="179.99,-323.5 189.99,-320 179.99,-316.5 179.99,-323.5"/>
</g>
<!-- Node27 -->
<g id="node27" class="node">
<title>Node27</title>
<g id="a_node27"><a xlink:href="classLiderboard.html#a3314a003631ca5b033d12f450ea915bb" target="_top" xlink:title="Получить таблицу лидеров">
<polygon fill="none" stroke="black" points="212.5,-266.5 212.5,-285.5 325.5,-285.5 325.5,-266.5 212.5,-266.5"/>
<text text-anchor="middle" x="269" y="-273.5" font-family="Helvetica,sans-Serif" font-size="10.00">Liderboard::getData</text>
</a>
</g>
</g>
<!-- Node1&#45;&gt;Node27 -->
<g id="edge28" class="edge">
<title>Node1&#45;&gt;Node27</title>
<path fill="none" stroke="midnightblue" d="M116.88,-310.45C146.09,-303.79 185.26,-294.86 216.4,-287.76"/>
<polygon fill="midnightblue" stroke="midnightblue" points="217.23,-291.16 226.2,-285.53 215.68,-284.34 217.23,-291.16"/>
</g>
<!-- Node28 -->
<g id="node28" class="node">
<title>Node28</title>
<g id="a_node28"><a xlink:href="classSettings.html#aafac1118b06ef59fd2559e79ddaaf64a" target="_top" xlink:title="Возвращает флаг музыки [On, Off].">
<polygon fill="none" stroke="black" points="205,-228.5 205,-247.5 333,-247.5 333,-228.5 205,-228.5"/>
<text text-anchor="middle" x="269" y="-235.5" font-family="Helvetica,sans-Serif" font-size="10.00">Settings::getMusicFlag</text>
</a>
</g>
</g>
<!-- Node1&#45;&gt;Node28 -->
<g id="edge29" class="edge">
<title>Node1&#45;&gt;Node28</title>
<path fill="none" stroke="midnightblue" d="M88.43,-310.43C108.36,-296.66 147.37,-271.35 184,-257 190.45,-254.47 197.33,-252.24 204.25,-250.27"/>
<polygon fill="midnightblue" stroke="midnightblue" points="205.63,-253.53 214.39,-247.58 203.83,-246.76 205.63,-253.53"/>
</g>
<!-- Node29 -->
<g id="node29" class="node">
<title>Node29</title>
<g id="a_node29"><a xlink:href="classSettings.html#a8db67fed89c78f12e8cd036c02c274ac" target="_top" xlink:title="Возвращает значение громкости музыки">
<polygon fill="none" stroke="black" points="197.5,-190.5 197.5,-209.5 340.5,-209.5 340.5,-190.5 197.5,-190.5"/>
<text text-anchor="middle" x="269" y="-197.5" font-family="Helvetica,sans-Serif" font-size="10.00">Settings::getMusicVolume</text>
</a>
</g>
</g>
<!-- Node1&#45;&gt;Node29 -->
<g id="edge30" class="edge">
<title>Node1&#45;&gt;Node29</title>
<path fill="none" stroke="midnightblue" d="M82.29,-310.46C98.32,-290.21 138.81,-242.81 184,-219 188.51,-216.62 193.32,-214.54 198.25,-212.72"/>
<polygon fill="midnightblue" stroke="midnightblue" points="199.48,-216 207.86,-209.52 197.27,-209.36 199.48,-216"/>
</g>
<!-- Node30 -->
<g id="node30" class="node">
<title>Node30</title>
<g id="a_node30"><a xlink:href="classSettings.html#a0c1e9abe929b1597f5e4f8730334c616" target="_top" xlink:title="Возвращает флаг звуков [On, Off].">
<polygon fill="none" stroke="black" points="204.5,-152.5 204.5,-171.5 333.5,-171.5 333.5,-152.5 204.5,-152.5"/>
<text text-anchor="middle" x="269" y="-159.5" font-family="Helvetica,sans-Serif" font-size="10.00">Settings::getSoundFlag</text>
</a>
</g>
</g>
<!-- Node1&#45;&gt;Node30 -->
<g id="edge31" class="edge">
<title>Node1&#45;&gt;Node30</title>
<path fill="none" stroke="midnightblue" d="M79.56,-310.4C92.2,-284.87 130.36,-214.94 184,-181 187.39,-178.86 190.98,-176.96 194.71,-175.27"/>
<polygon fill="midnightblue" stroke="midnightblue" points="196.2,-178.44 204.2,-171.49 193.61,-171.94 196.2,-178.44"/>
</g>
<!-- Node31 -->
<g id="node31" class="node">
<title>Node31</title>
<g id="a_node31"><a xlink:href="classSettings.html#a5b139a8de1c25906e1cc618e2834956f" target="_top" xlink:title="Возвращает значение громкости звуков">
<polygon fill="none" stroke="black" points="196.5,-114.5 196.5,-133.5 341.5,-133.5 341.5,-114.5 196.5,-114.5"/>
<text text-anchor="middle" x="269" y="-121.5" font-family="Helvetica,sans-Serif" font-size="10.00">Settings::getSoundVolume</text>
</a>
</g>
</g>
<!-- Node1&#45;&gt;Node31 -->
<g id="edge32" class="edge">
<title>Node1&#45;&gt;Node31</title>
<path fill="none" stroke="midnightblue" d="M77.9,-310.48C87.53,-280.55 121.47,-187.7 184,-143 186.68,-141.09 189.51,-139.36 192.46,-137.81"/>
<polygon fill="midnightblue" stroke="midnightblue" points="193.96,-140.97 201.6,-133.64 191.05,-134.6 193.96,-140.97"/>
</g>
<!-- Node32 -->
<g id="node32" class="node">
<title>Node32</title>
<g id="a_node32"><a xlink:href="classMainWindow.html#ac8e148d721ba666a05fe1422d14ebcd8" target="_top" xlink:title="Обработка нажатия на фигуру.">
<polygon fill="none" stroke="black" points="190,-452 190,-482 348,-482 348,-452 190,-452"/>
<text text-anchor="start" x="198" y="-470" font-family="Helvetica,sans-Serif" font-size="10.00">MainWindow::guiMousePress</text>
<text text-anchor="middle" x="269" y="-459" font-family="Helvetica,sans-Serif" font-size="10.00">Figure</text>
</a>
</g>
</g>
<!-- Node1&#45;&gt;Node32 -->
<g id="edge33" class="edge">
<title>Node1&#45;&gt;Node32</title>
<path fill="none" stroke="midnightblue" d="M80.78,-329.66C95.17,-352.88 134.99,-412.14 184,-443 186.61,-444.64 189.34,-446.18 192.14,-447.61"/>
<polygon fill="midnightblue" stroke="midnightblue" points="190.79,-450.84 201.34,-451.84 193.72,-444.48 190.79,-450.84"/>
</g>
<!-- Node35 -->
<g id="node35" class="node">
<title>Node35</title>
<g id="a_node35"><a xlink:href="classMainWindow.html#adf52446f5b40a6b0045d04ccca523242" target="_top" xlink:title="Обработка нажатия на фигуру.">
<polygon fill="none" stroke="black" points="191,-501.5 191,-520.5 347,-520.5 347,-501.5 191,-501.5"/>
<text text-anchor="middle" x="269" y="-508.5" font-family="Helvetica,sans-Serif" font-size="10.00">MainWindow::guiPressFigure</text>
</a>
</g>
</g>
<!-- Node1&#45;&gt;Node35 -->
<g id="edge37" class="edge">
<title>Node1&#45;&gt;Node35</title>
<path fill="none" stroke="midnightblue" d="M78.12,-329.67C88.19,-359.2 122.75,-448.81 184,-492 186.75,-493.94 189.66,-495.68 192.69,-497.25"/>
<polygon fill="midnightblue" stroke="midnightblue" points="191.52,-500.56 202.08,-501.46 194.38,-494.18 191.52,-500.56"/>
</g>
<!-- Node37 -->
<g id="node37" class="node">
<title>Node37</title>
<g id="a_node37"><a xlink:href="classScreenSettings.html#af175ef004e7bffb7796cb66a21338218" target="_top" xlink:title="Устанавливает значения параметров настроек.">
<polygon fill="none" stroke="black" points="184,-76.5 184,-95.5 354,-95.5 354,-76.5 184,-76.5"/>
<text text-anchor="middle" x="269" y="-83.5" font-family="Helvetica,sans-Serif" font-size="10.00">ScreenSettings::setPlayersData</text>
</a>
</g>
</g>
<!-- Node1&#45;&gt;Node37 -->
<g id="edge42" class="edge">
<title>Node1&#45;&gt;Node37</title>
<path fill="none" stroke="midnightblue" d="M76.83,-310.44C83.86,-276.49 112.37,-160.82 184,-105 186.32,-103.19 188.78,-101.55 191.35,-100.05"/>
<polygon fill="midnightblue" stroke="midnightblue" points="193.03,-103.13 200.42,-95.54 189.91,-96.86 193.03,-103.13"/>
</g>
<!-- Node38 -->
<g id="node38" class="node">
<title>Node38</title>
<g id="a_node38"><a xlink:href="classMainWindow.html#a4195422fe1346c1aa9c640715dfe73cb" target="_top" xlink:title="Новая игра.">
<polygon fill="none" stroke="black" points="190,-38.5 190,-57.5 348,-57.5 348,-38.5 190,-38.5"/>
<text text-anchor="middle" x="269" y="-45.5" font-family="Helvetica,sans-Serif" font-size="10.00">MainWindow::startNewGame</text>
</a>
</g>
</g>
<!-- Node1&#45;&gt;Node38 -->
<g id="edge43" class="edge">
<title>Node1&#45;&gt;Node38</title>
<path fill="none" stroke="midnightblue" d="M76.06,-310.39C80.74,-272.76 103.07,-134.24 184,-67 186.01,-65.33 188.14,-63.8 190.36,-62.39"/>
<polygon fill="midnightblue" stroke="midnightblue" points="192.17,-65.4 199.34,-57.59 188.87,-59.22 192.17,-65.4"/>
</g>
<!-- Node42 -->
<g id="node42" class="node">
<title>Node42</title>
<g id="a_node42"><a xlink:href="classMainWindow.html#aaf47fc01862209102bc55bc5cca41ecb" target="_top" xlink:title="Менеджер окон, переключает QStacedWidget на тот виджет, номер которого ему передали.">
<polygon fill="none" stroke="black" points="184,-0.5 184,-19.5 354,-19.5 354,-0.5 184,-0.5"/>
<text text-anchor="middle" x="269" y="-7.5" font-family="Helvetica,sans-Serif" font-size="10.00">MainWindow::windowsManager</text>
</a>
</g>
</g>
<!-- Node1&#45;&gt;Node42 -->
<g id="edge47" class="edge">
<title>Node1&#45;&gt;Node42</title>
<path fill="none" stroke="midnightblue" d="M75.46,-310.41C77.99,-269.48 93.55,-107.92 184,-29 185.78,-27.44 187.67,-26.01 189.64,-24.68"/>
<polygon fill="midnightblue" stroke="midnightblue" points="191.74,-27.51 198.73,-19.55 188.3,-21.42 191.74,-27.51"/>
</g>
<!-- Node5 -->
<g id="node5" class="node">
<title>Node5</title>
<g id="a_node5"><a xlink:href="classEngine.html#acb6729165e26058f5dc442428f11b6be" target="_top" xlink:title="Проверка на конец игры.">
<polygon fill="none" stroke="black" points="446,-574.5 446,-593.5 528,-593.5 528,-574.5 446,-574.5"/>
<text text-anchor="middle" x="487" y="-581.5" font-family="Helvetica,sans-Serif" font-size="10.00">Engine::isEnd</text>
</a>
</g>
</g>
<!-- Node4&#45;&gt;Node5 -->
<g id="edge4" class="edge">
<title>Node4&#45;&gt;Node5</title>
<path fill="none" stroke="midnightblue" d="M352.58,-566.09C380.51,-569.84 410.85,-573.91 435.52,-577.22"/>
<polygon fill="midnightblue" stroke="midnightblue" points="435.35,-580.73 445.73,-578.59 436.28,-573.79 435.35,-580.73"/>
</g>
<!-- Node6 -->
<g id="node6" class="node">
<title>Node6</title>
<g id="a_node6"><a xlink:href="classEngine.html#a66f2b590d92c6e0fa99741f02a8a9a3f" target="_top" xlink:title="Проверяет возможность хода и перемещает фигуру.">
<polygon fill="none" stroke="black" points="653,-644.5 653,-663.5 736,-663.5 736,-644.5 653,-644.5"/>
<text text-anchor="middle" x="694.5" y="-651.5" font-family="Helvetica,sans-Serif" font-size="10.00">Engine::move</text>
</a>
</g>
</g>
<!-- Node4&#45;&gt;Node6 -->
<g id="edge5" class="edge">
<title>Node4&#45;&gt;Node6</title>
<path fill="none" stroke="midnightblue" d="M352.78,-543.53C417.76,-537.82 509.39,-537.16 584,-565 623.71,-579.82 659.77,-615.27 678.96,-636.68"/>
<polygon fill="midnightblue" stroke="midnightblue" points="676.48,-639.16 685.69,-644.39 681.75,-634.55 676.48,-639.16"/>
</g>
<!-- Node19 -->
<g id="node19" class="node">
<title>Node19</title>
<g id="a_node19"><a xlink:href="classScreenSettings.html#a94e16e8406ea736a376a0b50da01b869" target="_top" xlink:title="Проигрывает звук шага.">
<polygon fill="none" stroke="black" points="403,-612.5 403,-631.5 571,-631.5 571,-612.5 403,-612.5"/>
<text text-anchor="middle" x="487" y="-619.5" font-family="Helvetica,sans-Serif" font-size="10.00">ScreenSettings::playSoundStep</text>
</a>
</g>
</g>
<!-- Node4&#45;&gt;Node19 -->
<g id="edge19" class="edge">
<title>Node4&#45;&gt;Node19</title>
<path fill="none" stroke="midnightblue" d="M328.62,-570.15C337.27,-573.04 345.97,-576.33 354,-580 371.27,-587.9 372.38,-595.92 390,-603 396.61,-605.66 403.63,-607.95 410.75,-609.93"/>
<polygon fill="midnightblue" stroke="midnightblue" points="409.94,-613.34 420.49,-612.45 411.69,-606.56 409.94,-613.34"/>
</g>
<!-- Node7 -->
<g id="node7" class="node">
<title>Node7</title>
<g id="a_node7"><a xlink:href="classEngine.html#a2b384a18565b9cdd85b52fed6d25ff0c" target="_top" xlink:title="Расчет преимущества игрока.">
<polygon fill="none" stroke="black" points="805,-721 805,-751 957,-751 957,-721 805,-721"/>
<text text-anchor="start" x="813" y="-739" font-family="Helvetica,sans-Serif" font-size="10.00">Engine::calculateAdvantage</text>
<text text-anchor="middle" x="881" y="-728" font-family="Helvetica,sans-Serif" font-size="10.00">White</text>
</a>
</g>
</g>
<!-- Node6&#45;&gt;Node7 -->
<g id="edge6" class="edge">
<title>Node6&#45;&gt;Node7</title>
<path fill="none" stroke="midnightblue" d="M711.8,-663.53C732.86,-675.59 770.86,-696.53 805,-711 810.34,-713.26 815.97,-715.46 821.63,-717.56"/>
<polygon fill="midnightblue" stroke="midnightblue" points="820.57,-720.89 831.17,-720.97 822.93,-714.3 820.57,-720.89"/>
</g>
<!-- Node10 -->
<g id="node10" class="node">
<title>Node10</title>
<g id="a_node10"><a xlink:href="classBoard.html#ab906dade3854d38f6354861a715fccac" target="_top" xlink:title="getBoo Возвращает доску.">
<polygon fill="none" stroke="black" points="1193,-590.5 1193,-609.5 1312,-609.5 1312,-590.5 1193,-590.5"/>
<text text-anchor="middle" x="1252.5" y="-597.5" font-family="Helvetica,sans-Serif" font-size="10.00">Board::getBoardData</text>
</a>
</g>
</g>
<!-- Node6&#45;&gt;Node10 -->
<g id="edge12" class="edge">
<title>Node6&#45;&gt;Node10</title>
<path fill="none" stroke="midnightblue" d="M701.42,-663.57C715.85,-685.83 755.28,-740.74 805,-761 830.9,-771.55 1141.62,-766.88 1157,-758 1209.71,-727.58 1236.29,-655.02 1246.45,-619.82"/>
<polygon fill="midnightblue" stroke="midnightblue" points="1249.92,-620.37 1249.18,-609.81 1243.17,-618.53 1249.92,-620.37"/>
</g>
<!-- Node12 -->
<g id="node12" class="node">
<title>Node12</title>
<g id="a_node12"><a xlink:href="engine_8cpp.html#ad73d39e7626a81fa0e95b7e2f04b28ce" target="_top" xlink:title=" ">
<polygon fill="none" stroke="black" points="820.5,-682.5 820.5,-701.5 941.5,-701.5 941.5,-682.5 820.5,-682.5"/>
<text text-anchor="middle" x="881" y="-689.5" font-family="Helvetica,sans-Serif" font-size="10.00">checkStepOnPossible</text>
</a>
</g>
</g>
<!-- Node6&#45;&gt;Node12 -->
<g id="edge11" class="edge">
<title>Node6&#45;&gt;Node12</title>
<path fill="none" stroke="midnightblue" d="M736.45,-662.43C762.07,-667.71 795.44,-674.58 823.55,-680.37"/>
<polygon fill="midnightblue" stroke="midnightblue" points="823.15,-683.86 833.65,-682.45 824.56,-677.01 823.15,-683.86"/>
</g>
<!-- Node13 -->
<g id="node13" class="node">
<title>Node13</title>
<g id="a_node13"><a xlink:href="classFigure.html#af27c0f2d5fe69cb9eb17380d3ba91d6a" target="_top" xlink:title="Получение цвета фигуры.">
<polygon fill="none" stroke="black" points="834,-644.5 834,-663.5 928,-663.5 928,-644.5 834,-644.5"/>
<text text-anchor="middle" x="881" y="-651.5" font-family="Helvetica,sans-Serif" font-size="10.00">Figure::getColor</text>
</a>
</g>
</g>
<!-- Node6&#45;&gt;Node13 -->
<g id="edge13" class="edge">
<title>Node6&#45;&gt;Node13</title>
<path fill="none" stroke="midnightblue" d="M736.45,-654C762.16,-654 795.68,-654 823.86,-654"/>
<polygon fill="midnightblue" stroke="midnightblue" points="823.98,-657.5 833.98,-654 823.98,-650.5 823.98,-657.5"/>
</g>
<!-- Node14 -->
<g id="node14" class="node">
<title>Node14</title>
<g id="a_node14"><a xlink:href="classBoard.html#a0bac43a8a2fc2aabc7e687eeedbe9f9e" target="_top" xlink:title="Возвращает фигуру, которая находится в ячейке поля с координатами coords.">
<polygon fill="none" stroke="black" points="832.5,-606.5 832.5,-625.5 929.5,-625.5 929.5,-606.5 832.5,-606.5"/>
<text text-anchor="middle" x="881" y="-613.5" font-family="Helvetica,sans-Serif" font-size="10.00">Board::getFigure</text>
</a>
</g>
</g>
<!-- Node6&#45;&gt;Node14 -->
<g id="edge14" class="edge">
<title>Node6&#45;&gt;Node14</title>
<path fill="none" stroke="midnightblue" d="M736.45,-645.57C762.07,-640.29 795.44,-633.42 823.55,-627.63"/>
<polygon fill="midnightblue" stroke="midnightblue" points="824.56,-630.99 833.65,-625.55 823.15,-624.14 824.56,-630.99"/>
</g>
<!-- Node15 -->
<g id="node15" class="node">
<title>Node15</title>
<g id="a_node15"><a xlink:href="classFigure.html#a12d36f015da3026f980f87a93210885a" target="_top" xlink:title="Получение возможных ходов атаки.">
<polygon fill="none" stroke="black" points="808,-568.5 808,-587.5 954,-587.5 954,-568.5 808,-568.5"/>
<text text-anchor="middle" x="881" y="-575.5" font-family="Helvetica,sans-Serif" font-size="10.00">Figure::getPossibleAttacks</text>
</a>
</g>
</g>
<!-- Node6&#45;&gt;Node15 -->
<g id="edge15" class="edge">
<title>Node6&#45;&gt;Node15</title>
<path fill="none" stroke="midnightblue" d="M711.28,-644.29C732.09,-631.84 770.15,-610.28 805,-597 811.41,-594.56 818.25,-592.33 825.08,-590.34"/>
<polygon fill="midnightblue" stroke="midnightblue" points="826.35,-593.62 835.05,-587.58 824.48,-586.87 826.35,-593.62"/>
</g>
<!-- Node16 -->
<g id="node16" class="node">
<title>Node16</title>
<g id="a_node16"><a xlink:href="classFigure.html#ac527b099db89b98b705eb74bed96c147" target="_top" xlink:title="Получение возможных ходов перемещения.">
<polygon fill="none" stroke="black" points="810.5,-530.5 810.5,-549.5 951.5,-549.5 951.5,-530.5 810.5,-530.5"/>
<text text-anchor="middle" x="881" y="-537.5" font-family="Helvetica,sans-Serif" font-size="10.00">Figure::getPossibleMoves</text>
</a>
</g>
</g>
<!-- Node6&#45;&gt;Node16 -->
<g id="edge16" class="edge">
<title>Node6&#45;&gt;Node16</title>
<path fill="none" stroke="midnightblue" d="M703.78,-644.26C720.74,-624.95 761.5,-581.72 805,-559 809.5,-556.65 814.3,-554.58 819.22,-552.76"/>
<polygon fill="midnightblue" stroke="midnightblue" points="820.42,-556.05 828.78,-549.55 818.19,-549.41 820.42,-556.05"/>
</g>
<!-- Node17 -->
<g id="node17" class="node">
<title>Node17</title>
<g id="a_node17"><a xlink:href="classFigure.html#aad86c6d796ac96d30f2a310c107fdbac" target="_top" xlink:title="Получение элементарных ходов.">
<polygon fill="none" stroke="black" points="818.5,-846.5 818.5,-865.5 943.5,-865.5 943.5,-846.5 818.5,-846.5"/>
<text text-anchor="middle" x="881" y="-853.5" font-family="Helvetica,sans-Serif" font-size="10.00">Figure::getUnarySteps</text>
</a>
</g>
</g>
<!-- Node6&#45;&gt;Node17 -->
<g id="edge17" class="edge">
<title>Node6&#45;&gt;Node17</title>
<path fill="none" stroke="midnightblue" d="M698.38,-663.77C707.94,-694.5 741.74,-789.91 805,-837 807.51,-838.86 810.17,-840.55 812.96,-842.07"/>
<polygon fill="midnightblue" stroke="midnightblue" points="811.62,-845.31 822.16,-846.38 814.59,-838.97 811.62,-845.31"/>
</g>
<!-- Node18 -->
<g id="node18" class="node">
<title>Node18</title>
<g id="a_node18"><a xlink:href="classBoard.html#a4ed8cf3fae283d3c88eb6b0dea9e9f0a" target="_top" xlink:title="Перемещает фигуру в board.">
<polygon fill="none" stroke="black" points="841.5,-808.5 841.5,-827.5 920.5,-827.5 920.5,-808.5 841.5,-808.5"/>
<text text-anchor="middle" x="881" y="-815.5" font-family="Helvetica,sans-Serif" font-size="10.00">Board::move</text>
</a>
</g>
</g>
<!-- Node6&#45;&gt;Node18 -->
<g id="edge18" class="edge">
<title>Node6&#45;&gt;Node18</title>
<path fill="none" stroke="midnightblue" d="M700.43,-663.78C713.72,-689.16 752.84,-757.67 805,-794 812.99,-799.57 822.35,-803.89 831.68,-807.24"/>
<polygon fill="midnightblue" stroke="midnightblue" points="830.76,-810.62 841.35,-810.38 832.92,-803.96 830.76,-810.62"/>
</g>
<!-- Node8 -->
<g id="node8" class="node">
<title>Node8</title>
<g id="a_node8"><a xlink:href="classEngine.html#ab74c7d4f0e0778c122dc43fd052081b3" target="_top" xlink:title="Количество противников, которые находятся под атакой.">
<polygon fill="none" stroke="black" points="1000,-729.5 1000,-748.5 1150,-748.5 1150,-729.5 1000,-729.5"/>
<text text-anchor="middle" x="1075" y="-736.5" font-family="Helvetica,sans-Serif" font-size="10.00">Engine::enemyUnderAttack</text>
</a>
</g>
</g>
<!-- Node7&#45;&gt;Node8 -->
<g id="edge7" class="edge">
<title>Node7&#45;&gt;Node8</title>
<path fill="none" stroke="midnightblue" d="M957.06,-737.17C967.74,-737.34 978.78,-737.51 989.62,-737.68"/>
<polygon fill="midnightblue" stroke="midnightblue" points="989.89,-741.19 999.94,-737.84 990,-734.19 989.89,-741.19"/>
</g>
<!-- Node9 -->
<g id="node9" class="node">
<title>Node9</title>
<g id="a_node9"><a xlink:href="classEngine.html#af2c8028ccaf85425744ad55844765fac" target="_top" xlink:title="getData возвращает поле.">
<polygon fill="none" stroke="black" points="1027.5,-691.5 1027.5,-710.5 1122.5,-710.5 1122.5,-691.5 1027.5,-691.5"/>
<text text-anchor="middle" x="1075" y="-698.5" font-family="Helvetica,sans-Serif" font-size="10.00">Engine::getData</text>
</a>
</g>
</g>
<!-- Node7&#45;&gt;Node9 -->
<g id="edge8" class="edge">
<title>Node7&#45;&gt;Node9</title>
<path fill="none" stroke="midnightblue" d="M957.06,-722.32C977.12,-718.66 998.46,-714.77 1017.34,-711.33"/>
<polygon fill="midnightblue" stroke="midnightblue" points="1018.06,-714.76 1027.27,-709.52 1016.8,-707.87 1018.06,-714.76"/>
</g>
<!-- Node11 -->
<g id="node11" class="node">
<title>Node11</title>
<g id="a_node11"><a xlink:href="classEngine.html#a1633adb681319e5d8840e7f432d88a7a" target="_top" xlink:title="Количество возможных ходов.">
<polygon fill="none" stroke="black" points="993,-653.5 993,-672.5 1157,-672.5 1157,-653.5 993,-653.5"/>
<text text-anchor="middle" x="1075" y="-660.5" font-family="Helvetica,sans-Serif" font-size="10.00">Engine::quantityPossibleMove</text>
</a>
</g>
</g>
<!-- Node7&#45;&gt;Node11 -->
<g id="edge10" class="edge">
<title>Node7&#45;&gt;Node11</title>
<path fill="none" stroke="midnightblue" d="M935.05,-720.96C942.61,-718.07 950.13,-714.75 957,-711 975.03,-701.15 974.54,-691.02 993,-682 997.95,-679.58 1003.22,-677.47 1008.61,-675.61"/>
<polygon fill="midnightblue" stroke="midnightblue" points="1009.89,-678.88 1018.39,-672.55 1007.8,-672.2 1009.89,-678.88"/>
</g>
<!-- Node9&#45;&gt;Node10 -->
<g id="edge9" class="edge">
<title>Node9&#45;&gt;Node10</title>
<path fill="none" stroke="midnightblue" d="M1122.78,-694.07C1134.35,-691.28 1146.45,-687.39 1157,-682 1189.18,-665.55 1219.45,-635.85 1236.7,-617.06"/>
<polygon fill="midnightblue" stroke="midnightblue" points="1239.39,-619.3 1243.46,-609.52 1234.18,-614.63 1239.39,-619.3"/>
</g>
<!-- Node21 -->
<g id="node21" class="node">
<title>Node21</title>
<g id="a_node21"><a xlink:href="classSettings.html#a8bf04e06f91e3c448650673d23229d25" target="_top" xlink:title="Сохранение изменений флага музыки">
<polygon fill="none" stroke="black" points="413.5,-408.5 413.5,-427.5 560.5,-427.5 560.5,-408.5 413.5,-408.5"/>
<text text-anchor="middle" x="487" y="-415.5" font-family="Helvetica,sans-Serif" font-size="10.00">Settings::changeMusicFlag</text>
</a>
</g>
</g>
<!-- Node20&#45;&gt;Node21 -->
<g id="edge21" class="edge">
<title>Node20&#45;&gt;Node21</title>
<path fill="none" stroke="midnightblue" d="M345.24,-418C363.92,-418 384.05,-418 403.07,-418"/>
<polygon fill="midnightblue" stroke="midnightblue" points="403.21,-421.5 413.21,-418 403.21,-414.5 403.21,-421.5"/>
</g>
<!-- Node22&#45;&gt;Node3 -->
<g id="edge23" class="edge">
<title>Node22&#45;&gt;Node3</title>
<path fill="none" stroke="midnightblue" d="M314.99,-619.08C337.38,-626.28 364.95,-634.68 390,-641 400.53,-643.66 411.79,-646.17 422.76,-648.45"/>
<polygon fill="midnightblue" stroke="midnightblue" points="422.22,-651.91 432.71,-650.47 423.61,-645.05 422.22,-651.91"/>
</g>
<!-- Node24 -->
<g id="node24" class="node">
<title>Node24</title>
<g id="a_node24"><a xlink:href="classSettings.html#a2ae32bbeaa364765caccb3aa3c5380db" target="_top" xlink:title="Сохранение изменений громкости звуков">
<polygon fill="none" stroke="black" points="412.5,-359.5 412.5,-378.5 561.5,-378.5 561.5,-359.5 412.5,-359.5"/>
<text text-anchor="middle" x="487" y="-366.5" font-family="Helvetica,sans-Serif" font-size="10.00">Settings::changeSoundFlag</text>
</a>
</g>
</g>
<!-- Node23&#45;&gt;Node24 -->
<g id="edge25" class="edge">
<title>Node23&#45;&gt;Node24</title>
<path fill="none" stroke="midnightblue" d="M348.29,-369C365.75,-369 384.33,-369 402.01,-369"/>
<polygon fill="midnightblue" stroke="midnightblue" points="402.3,-372.5 412.3,-369 402.3,-365.5 402.3,-372.5"/>
</g>
<!-- Node26 -->
<g id="node26" class="node">
<title>Node26</title>
<g id="a_node26"><a xlink:href="classSettings.html#a316bd14c7b2b7c8001002965035a400c" target="_top" xlink:title="Сохранение изменений флага звуков">
<polygon fill="none" stroke="black" points="405,-310.5 405,-329.5 569,-329.5 569,-310.5 405,-310.5"/>
<text text-anchor="middle" x="487" y="-317.5" font-family="Helvetica,sans-Serif" font-size="10.00">Settings::changeSoundVolume</text>
</a>
</g>
</g>
<!-- Node25&#45;&gt;Node26 -->
<g id="edge27" class="edge">
<title>Node25&#45;&gt;Node26</title>
<path fill="none" stroke="midnightblue" d="M348.29,-320C363.34,-320 379.23,-320 394.65,-320"/>
<polygon fill="midnightblue" stroke="midnightblue" points="394.71,-323.5 404.71,-320 394.71,-316.5 394.71,-323.5"/>
</g>
<!-- Node33 -->
<g id="node33" class="node">
<title>Node33</title>
<g id="a_node33"><a xlink:href="classEngine.html#afffac825472b73103b32f2d3e4555267" target="_top" xlink:title="Возможные атаки для фигуры.">
<polygon fill="none" stroke="black" points="415.5,-449 415.5,-479 558.5,-479 558.5,-449 415.5,-449"/>
<text text-anchor="start" x="423.5" y="-467" font-family="Helvetica,sans-Serif" font-size="10.00">Engine::getPosibleAttacks</text>
<text text-anchor="middle" x="487" y="-456" font-family="Helvetica,sans-Serif" font-size="10.00">FigureFrom</text>
</a>
</g>
</g>
<!-- Node32&#45;&gt;Node33 -->
<g id="edge34" class="edge">
<title>Node32&#45;&gt;Node33</title>
<path fill="none" stroke="midnightblue" d="M348.29,-465.91C366.72,-465.66 386.42,-465.38 404.97,-465.13"/>
<polygon fill="midnightblue" stroke="midnightblue" points="405.2,-468.62 415.15,-464.98 405.1,-461.62 405.2,-468.62"/>
</g>
<!-- Node33&#45;&gt;Node10 -->
<g id="edge36" class="edge">
<title>Node33&#45;&gt;Node10</title>
<path fill="none" stroke="midnightblue" d="M558.68,-456.7C684.44,-446.59 952.99,-438.15 1157,-523 1189.2,-536.39 1219.09,-564.44 1236.32,-582.73"/>
<polygon fill="midnightblue" stroke="midnightblue" points="1233.96,-585.35 1243.3,-590.36 1239.13,-580.62 1233.96,-585.35"/>
</g>
<!-- Node34 -->
<g id="node34" class="node">
<title>Node34</title>
<g id="a_node34"><a xlink:href="classBoard.html#ac3f85f5b615feede6ea32745632203dd" target="_top" xlink:title="Определение фигуры после перемещения.">
<polygon fill="none" stroke="black" points="620,-405 620,-435 769,-435 769,-405 620,-405"/>
<text text-anchor="start" x="628" y="-423" font-family="Helvetica,sans-Serif" font-size="10.00">Board::calculateFigureAfter</text>
<text text-anchor="middle" x="694.5" y="-412" font-family="Helvetica,sans-Serif" font-size="10.00">Taking</text>
</a>
</g>
</g>
<!-- Node33&#45;&gt;Node34 -->
<g id="edge35" class="edge">
<title>Node33&#45;&gt;Node34</title>
<path fill="none" stroke="midnightblue" d="M558.15,-448.98C575.9,-445.18 595.11,-441.07 613.32,-437.17"/>
<polygon fill="midnightblue" stroke="midnightblue" points="614.28,-440.54 623.32,-435.03 612.81,-433.7 614.28,-440.54"/>
</g>
<!-- Node35&#45;&gt;Node33 -->
<g id="edge38" class="edge">
<title>Node35&#45;&gt;Node33</title>
<path fill="none" stroke="midnightblue" d="M313.71,-501.49C340.41,-495.68 375.34,-488.08 406.77,-481.24"/>
<polygon fill="midnightblue" stroke="midnightblue" points="407.81,-484.6 416.84,-479.05 406.32,-477.76 407.81,-484.6"/>
</g>
<!-- Node36 -->
<g id="node36" class="node">
<title>Node36</title>
<g id="a_node36"><a xlink:href="classEngine.html#ab4b084189c3f29e30a3a44ac0d5ed6b3" target="_top" xlink:title="Возможные ходы для фигуры.">
<polygon fill="none" stroke="black" points="390,-498.5 390,-517.5 584,-517.5 584,-498.5 390,-498.5"/>
<text text-anchor="middle" x="487" y="-505.5" font-family="Helvetica,sans-Serif" font-size="10.00">Engine::getPosibleMovesFigureFrom</text>
</a>
</g>
</g>
<!-- Node35&#45;&gt;Node36 -->
<g id="edge39" class="edge">
<title>Node35&#45;&gt;Node36</title>
<path fill="none" stroke="midnightblue" d="M347.07,-509.93C357.64,-509.78 368.65,-509.63 379.63,-509.48"/>
<polygon fill="midnightblue" stroke="midnightblue" points="379.75,-512.98 389.7,-509.34 379.65,-505.98 379.75,-512.98"/>
</g>
<!-- Node36&#45;&gt;Node6 -->
<g id="edge41" class="edge">
<title>Node36&#45;&gt;Node6</title>
<path fill="none" stroke="midnightblue" d="M549.32,-517.55C561.34,-520.99 573.48,-525.66 584,-532 628.27,-558.67 664.83,-608.89 682.35,-635.83"/>
<polygon fill="midnightblue" stroke="midnightblue" points="679.41,-637.74 687.73,-644.31 685.32,-633.99 679.41,-637.74"/>
</g>
<!-- Node36&#45;&gt;Node10 -->
<g id="edge40" class="edge">
<title>Node36&#45;&gt;Node10</title>
<path fill="none" stroke="midnightblue" d="M584.23,-504.12C679.43,-501.82 829.05,-502.33 957,-521 1051.68,-534.82 1159.47,-568.5 1214.66,-587.12"/>
<polygon fill="midnightblue" stroke="midnightblue" points="1213.75,-590.5 1224.34,-590.41 1216,-583.87 1213.75,-590.5"/>
</g>
<!-- Node39 -->
<g id="node39" class="node">
<title>Node39</title>
<g id="a_node39"><a xlink:href="classEngine.html#a9027b51e4922e147b8ae3b50348c69af" target="_top" xlink:title="Базовая расстановка фигур на поле.">
<polygon fill="none" stroke="black" points="400.5,-38.5 400.5,-57.5 573.5,-57.5 573.5,-38.5 400.5,-38.5"/>
<text text-anchor="middle" x="487" y="-45.5" font-family="Helvetica,sans-Serif" font-size="10.00">Engine::setStartingArrangement</text>
</a>
</g>
</g>
<!-- Node38&#45;&gt;Node39 -->
<g id="edge44" class="edge">
<title>Node38&#45;&gt;Node39</title>
<path fill="none" stroke="midnightblue" d="M348.29,-48C361.89,-48 376.17,-48 390.18,-48"/>
<polygon fill="midnightblue" stroke="midnightblue" points="390.31,-51.5 400.31,-48 390.31,-44.5 390.31,-51.5"/>
</g>
<!-- Node40 -->
<g id="node40" class="node">
<title>Node40</title>
<g id="a_node40"><a xlink:href="classBoard.html#af74f0d4b43e5aa3faea16d7c6407b05e" target="_top" xlink:title="clear Очищает доску.">
<polygon fill="none" stroke="black" points="657,-57.5 657,-76.5 732,-76.5 732,-57.5 657,-57.5"/>
<text text-anchor="middle" x="694.5" y="-64.5" font-family="Helvetica,sans-Serif" font-size="10.00">Board::clear</text>
</a>
</g>
</g>
<!-- Node39&#45;&gt;Node40 -->
<g id="edge45" class="edge">
<title>Node39&#45;&gt;Node40</title>
<path fill="none" stroke="midnightblue" d="M573.66,-55.92C598.65,-58.23 625.02,-60.67 646.65,-62.67"/>
<polygon fill="midnightblue" stroke="midnightblue" points="646.57,-66.18 656.85,-63.61 647.22,-59.21 646.57,-66.18"/>
</g>
<!-- Node41 -->
<g id="node41" class="node">
<title>Node41</title>
<g id="a_node41"><a xlink:href="classBoard.html#a183ac960c959ed0df9b49314d0479703" target="_top" xlink:title="Устанавливает фигуру на доску.">
<polygon fill="none" stroke="black" points="639.5,-19.5 639.5,-38.5 749.5,-38.5 749.5,-19.5 639.5,-19.5"/>
<text text-anchor="middle" x="694.5" y="-26.5" font-family="Helvetica,sans-Serif" font-size="10.00">Board::setFigureOn</text>
</a>
</g>
</g>
<!-- Node39&#45;&gt;Node41 -->
<g id="edge46" class="edge">
<title>Node39&#45;&gt;Node41</title>
<path fill="none" stroke="midnightblue" d="M573.66,-40.08C592.26,-38.36 611.62,-36.57 629.23,-34.94"/>
<polygon fill="midnightblue" stroke="midnightblue" points="629.73,-38.41 639.37,-34 629.09,-31.44 629.73,-38.41"/>
</g>
</g>
</svg>
        <g id="navigator" transform="translate(0 0)" fill="#404254">
                <rect fill="#f2f5e9" fill-opacity="0.5" stroke="#606060" stroke-width=".5" x="0" y="0" width="60" height="60"/>
                <use id="zoomplus" xlink:href="#zoomPlus" x="17" y="9" onmousedown="handleZoom(evt,'in')"/>
                <use id="zoomminus" xlink:href="#zoomMin" x="42" y="9" onmousedown="handleZoom(evt,'out')"/>
                <use id="reset" xlink:href="#resetDef" x="30" y="36" onmousedown="handleReset()"/>
                <g id="arrowUp" xlink:href="#dirArrow" transform="translate(30 24)" onmousedown="handlePan(0,-1)">
                  <use xlink:href="#rim" fill="#404040">
                        <set attributeName="fill" to="#808080" begin="arrowUp.mouseover" end="arrowUp.mouseout"/>
                  </use>
                  <path fill="none" stroke="white" stroke-width="1.5" d="M0,-3.0v7 M-2.5,-0.5L0,-3.0L2.5,-0.5"/>
                </g>
                <g id="arrowRight" xlink:href="#dirArrow" transform="rotate(90) translate(36 -43)" onmousedown="handlePan(1,0)">
                  <use xlink:href="#rim" fill="#404040">
                        <set attributeName="fill" to="#808080" begin="arrowRight.mouseover" end="arrowRight.mouseout"/>
                  </use>
                  <path fill="none" stroke="white" stroke-width="1.5" d="M0,-3.0v7 M-2.5,-0.5L0,-3.0L2.5,-0.5"/>
                </g>
                <g id="arrowDown" xlink:href="#dirArrow" transform="rotate(180) translate(-30 -48)" onmousedown="handlePan(0,1)">
                  <use xlink:href="#rim" fill="#404040">
                        <set attributeName="fill" to="#808080" begin="arrowDown.mouseover" end="arrowDown.mouseout"/>
                  </use>
                  <path fill="none" stroke="white" stroke-width="1.5" d="M0,-3.0v7 M-2.5,-0.5L0,-3.0L2.5,-0.5"/>
                </g>
                <g id="arrowLeft" xlink:href="#dirArrow" transform="rotate(270) translate(-36 17)" onmousedown="handlePan(-1,0)">
                  <use xlink:href="#rim" fill="#404040">
                        <set attributeName="fill" to="#808080" begin="arrowLeft.mouseover" end="arrowLeft.mouseout"/>
                  </use>
                  <path fill="none" stroke="white" stroke-width="1.5" d="M0,-3.0v7 M-2.5,-0.5L0,-3.0L2.5,-0.5"/>
                </g>
        </g>
        <svg viewBox="0 0 15 15" width="100%" height="30px" preserveAspectRatio="xMaxYMin meet">
         <g id="arrow_out" transform="scale(0.3 0.3)">
          <a xlink:href="classMainWindow_a996c5a2b6f77944776856f08ec30858d_cgraph_org.svg" target="_base">
           <rect id="button" ry="5" rx="5" y="6" x="6" height="38" width="38"
                fill="#f2f5e9" fill-opacity="0.5" stroke="#606060" stroke-width="1.0"/>
           <path id="arrow"
             d="M 11.500037,31.436501 C 11.940474,20.09759 22.043105,11.32322 32.158766,21.979434 L 37.068811,17.246167 C 37.068811,17.246167 37.088388,32 37.088388,32 L 22.160133,31.978069 C 22.160133,31.978069 26.997745,27.140456 26.997745,27.140456 C 18.528582,18.264221 13.291696,25.230495 11.500037,31.436501 z"
             style="fill:#404040;"/>
          </a>
         </g>
        </svg>
</svg>
