<?xml version="1.0" encoding="UTF-8" standalone="no"?>
<!DOCTYPE svg PUBLIC "-//W3C//DTD SVG 1.1//EN"
 "http://www.w3.org/Graphics/SVG/1.1/DTD/svg11.dtd">
<!-- Generated by graphviz version 2.43.0 (0)
 -->
<!-- Title: Board::setFigureOn Pages: 1 -->
<svg width="705pt" height="85pt"
 viewBox="0.00 0.00 705.00 85.00" xmlns="http://www.w3.org/2000/svg" xmlns:xlink="http://www.w3.org/1999/xlink">
<g id="graph0" class="graph" transform="scale(1 1) rotate(0) translate(4 81)">
<title>Board::setFigureOn</title>
<!-- Node1 -->
<g id="node1" class="node">
<title>Node1</title>
<g id="a_node1"><a xlink:title="Устанавливает фигуру на доску.">
<polygon fill="#bfbfbf" stroke="black" points="587,-38.5 587,-57.5 697,-57.5 697,-38.5 587,-38.5"/>
<text text-anchor="middle" x="642" y="-45.5" font-family="Helvetica,sans-Serif" font-size="10.00">Board::setFigureOn</text>
</a>
</g>
</g>
<!-- Node2 -->
<g id="node2" class="node">
<title>Node2</title>
<g id="a_node2"><a xlink:href="classEngine.html#aecc43b5398baffd0cddd1af03dca4793" target="_top" xlink:title="Установка фигуры на доску.">
<polygon fill="none" stroke="black" points="393,-57.5 393,-76.5 536,-76.5 536,-57.5 393,-57.5"/>
<text text-anchor="middle" x="464.5" y="-64.5" font-family="Helvetica,sans-Serif" font-size="10.00">Engine::setFigureOnBoard</text>
</a>
</g>
</g>
<!-- Node1&#45;&gt;Node2 -->
<g id="edge1" class="edge">
<title>Node1&#45;&gt;Node2</title>
<path fill="none" stroke="midnightblue" d="M576.96,-54.93C563.71,-56.37 549.69,-57.89 536.22,-59.34"/>
<polygon fill="midnightblue" stroke="midnightblue" points="577.35,-58.41 586.91,-53.86 576.59,-51.45 577.35,-58.41"/>
</g>
<!-- Node3 -->
<g id="node3" class="node">
<title>Node3</title>
<g id="a_node3"><a xlink:href="classEngine.html#a9027b51e4922e147b8ae3b50348c69af" target="_top" xlink:title="Базовая расстановка фигур на поле.">
<polygon fill="none" stroke="black" points="378,-19.5 378,-38.5 551,-38.5 551,-19.5 378,-19.5"/>
<text text-anchor="middle" x="464.5" y="-26.5" font-family="Helvetica,sans-Serif" font-size="10.00">Engine::setStartingArrangement</text>
</a>
</g>
</g>
<!-- Node1&#45;&gt;Node3 -->
<g id="edge2" class="edge">
<title>Node1&#45;&gt;Node3</title>
<path fill="none" stroke="midnightblue" d="M576.84,-41.05C568.44,-40.14 559.73,-39.2 551.05,-38.26"/>
<polygon fill="midnightblue" stroke="midnightblue" points="576.59,-44.55 586.91,-42.14 577.35,-37.59 576.59,-44.55"/>
</g>
<!-- Node4 -->
<g id="node4" class="node">
<title>Node4</title>
<g id="a_node4"><a xlink:href="classEngine.html#a8c98683b0a3aa28d8ab72a8bcd0d52f2" target="_top" xlink:title=" ">
<polygon fill="none" stroke="black" points="218.5,-38.5 218.5,-57.5 307.5,-57.5 307.5,-38.5 218.5,-38.5"/>
<text text-anchor="middle" x="263" y="-45.5" font-family="Helvetica,sans-Serif" font-size="10.00">Engine::Engine</text>
</a>
</g>
</g>
<!-- Node3&#45;&gt;Node4 -->
<g id="edge3" class="edge">
<title>Node3&#45;&gt;Node4</title>
<path fill="none" stroke="midnightblue" d="M367.77,-38.12C346.72,-40.12 325.43,-42.15 307.67,-43.84"/>
<polygon fill="midnightblue" stroke="midnightblue" points="368.11,-41.6 377.74,-37.17 367.45,-34.63 368.11,-41.6"/>
</g>
<!-- Node5 -->
<g id="node5" class="node">
<title>Node5</title>
<g id="a_node5"><a xlink:href="classMainWindow.html#a4195422fe1346c1aa9c640715dfe73cb" target="_top" xlink:title=" ">
<polygon fill="none" stroke="black" points="184,-0.5 184,-19.5 342,-19.5 342,-0.5 184,-0.5"/>
<text text-anchor="middle" x="263" y="-7.5" font-family="Helvetica,sans-Serif" font-size="10.00">MainWindow::startNewGame</text>
</a>
</g>
</g>
<!-- Node3&#45;&gt;Node5 -->
<g id="edge4" class="edge">
<title>Node3&#45;&gt;Node5</title>
<path fill="none" stroke="midnightblue" d="M367.71,-19.88C359.14,-19.06 350.53,-18.24 342.13,-17.44"/>
<polygon fill="midnightblue" stroke="midnightblue" points="367.45,-23.37 377.74,-20.83 368.11,-16.4 367.45,-23.37"/>
</g>
<!-- Node6 -->
<g id="node6" class="node">
<title>Node6</title>
<g id="a_node6"><a xlink:href="classMainWindow.html#a996c5a2b6f77944776856f08ec30858d" target="_top" xlink:title=" ">
<polygon fill="none" stroke="black" points="0,-0.5 0,-19.5 148,-19.5 148,-0.5 0,-0.5"/>
<text text-anchor="middle" x="74" y="-7.5" font-family="Helvetica,sans-Serif" font-size="10.00">MainWindow::MainWindow</text>
</a>
</g>
</g>
<!-- Node5&#45;&gt;Node6 -->
<g id="edge5" class="edge">
<title>Node5&#45;&gt;Node6</title>
<path fill="none" stroke="midnightblue" d="M173.75,-10C165.17,-10 156.53,-10 148.13,-10"/>
<polygon fill="midnightblue" stroke="midnightblue" points="173.78,-13.5 183.78,-10 173.78,-6.5 173.78,-13.5"/>
</g>
</g>
</svg>
