<?xml version="1.0" encoding="UTF-8" standalone="no"?>
<!DOCTYPE svg PUBLIC "-//W3C//DTD SVG 1.1//EN"
 "http://www.w3.org/Graphics/SVG/1.1/DTD/svg11.dtd">
<!-- Generated by graphviz version 2.43.0 (0)
 -->
<!-- Title: MainWindow::highlightGuiAttacksForMousePress Pages: 1 -->
<svg width="530pt" height="61pt"
 viewBox="0.00 0.00 530.00 61.00" xmlns="http://www.w3.org/2000/svg" xmlns:xlink="http://www.w3.org/1999/xlink">
<g id="graph0" class="graph" transform="scale(1 1) rotate(0) translate(4 57)">
<title>MainWindow::highlightGuiAttacksForMousePress</title>
<!-- Node1 -->
<g id="node1" class="node">
<title>Node1</title>
<g id="a_node1"><a xlink:title=" ">
<polygon fill="#bfbfbf" stroke="black" points="378,-0.5 378,-30.5 522,-30.5 522,-0.5 378,-0.5"/>
<text text-anchor="start" x="386" y="-18.5" font-family="Helvetica,sans-Serif" font-size="10.00">MainWindow::highlightGui</text>
<text text-anchor="middle" x="450" y="-7.5" font-family="Helvetica,sans-Serif" font-size="10.00">AttacksForMousePress</text>
</a>
</g>
</g>
<!-- Node2 -->
<g id="node2" class="node">
<title>Node2</title>
<g id="a_node2"><a xlink:href="classMainWindow.html#ac8e148d721ba666a05fe1422d14ebcd8" target="_top" xlink:title=" ">
<polygon fill="none" stroke="black" points="184,-22.5 184,-52.5 342,-52.5 342,-22.5 184,-22.5"/>
<text text-anchor="start" x="192" y="-40.5" font-family="Helvetica,sans-Serif" font-size="10.00">MainWindow::guiMousePress</text>
<text text-anchor="middle" x="263" y="-29.5" font-family="Helvetica,sans-Serif" font-size="10.00">Figure</text>
</a>
</g>
</g>
<!-- Node1&#45;&gt;Node2 -->
<g id="edge1" class="edge">
<title>Node1&#45;&gt;Node2</title>
<path fill="none" stroke="midnightblue" d="M367.58,-25.18C359.18,-26.18 350.66,-27.19 342.3,-28.19"/>
<polygon fill="midnightblue" stroke="midnightblue" points="368.22,-28.63 377.74,-23.97 367.4,-21.68 368.22,-28.63"/>
</g>
<!-- Node3 -->
<g id="node3" class="node">
<title>Node3</title>
<g id="a_node3"><a xlink:href="classMainWindow.html#a996c5a2b6f77944776856f08ec30858d" target="_top" xlink:title=" ">
<polygon fill="none" stroke="black" points="0,-6 0,-25 148,-25 148,-6 0,-6"/>
<text text-anchor="middle" x="74" y="-13" font-family="Helvetica,sans-Serif" font-size="10.00">MainWindow::MainWindow</text>
</a>
</g>
</g>
<!-- Node1&#45;&gt;Node3 -->
<g id="edge3" class="edge">
<title>Node1&#45;&gt;Node3</title>
<path fill="none" stroke="midnightblue" d="M367.75,-13.82C359.06,-13.69 350.35,-13.58 342,-13.5 271.78,-12.84 254.22,-12.86 184,-13.5 172.46,-13.61 160.22,-13.77 148.29,-13.97"/>
<polygon fill="midnightblue" stroke="midnightblue" points="367.87,-17.32 377.92,-13.99 367.98,-10.33 367.87,-17.32"/>
</g>
<!-- Node2&#45;&gt;Node3 -->
<g id="edge2" class="edge">
<title>Node2&#45;&gt;Node3</title>
<path fill="none" stroke="midnightblue" d="M173.75,-27.12C165.17,-26.11 156.53,-25.09 148.13,-24.1"/>
<polygon fill="midnightblue" stroke="midnightblue" points="173.44,-30.61 183.78,-28.3 174.26,-23.65 173.44,-30.61"/>
</g>
</g>
</svg>
