<?xml version="1.0" encoding="UTF-8" standalone="no"?>
<!DOCTYPE svg PUBLIC "-//W3C//DTD SVG 1.1//EN"
 "http://www.w3.org/Graphics/SVG/1.1/DTD/svg11.dtd">
<!-- Generated by graphviz version 2.43.0 (0)
 -->
<!-- Title: Board::clear Pages: 1 -->
<svg width="670pt" height="66pt"
 viewBox="0.00 0.00 670.00 66.00" xmlns="http://www.w3.org/2000/svg" xmlns:xlink="http://www.w3.org/1999/xlink">
<g id="graph0" class="graph" transform="scale(1 1) rotate(0) translate(4 62)">
<title>Board::clear</title>
<!-- Node1 -->
<g id="node1" class="node">
<title>Node1</title>
<g id="a_node1"><a xlink:title="clear Очищает доску.">
<polygon fill="#bfbfbf" stroke="black" points="587,-19.5 587,-38.5 662,-38.5 662,-19.5 587,-19.5"/>
<text text-anchor="middle" x="624.5" y="-26.5" font-family="Helvetica,sans-Serif" font-size="10.00">Board::clear</text>
</a>
</g>
</g>
<!-- Node2 -->
<g id="node2" class="node">
<title>Node2</title>
<g id="a_node2"><a xlink:href="classEngine.html#a7e19f1f9eb9e6ec51f646bb0a94dd1d6" target="_top" xlink:title="clearBoard очищает поле.">
<polygon fill="none" stroke="black" points="410.5,-38.5 410.5,-57.5 518.5,-57.5 518.5,-38.5 410.5,-38.5"/>
<text text-anchor="middle" x="464.5" y="-45.5" font-family="Helvetica,sans-Serif" font-size="10.00">Engine::clearBoard</text>
</a>
</g>
</g>
<!-- Node1&#45;&gt;Node2 -->
<g id="edge1" class="edge">
<title>Node1&#45;&gt;Node2</title>
<path fill="none" stroke="midnightblue" d="M576.76,-34.62C558.53,-36.81 537.53,-39.34 518.72,-41.6"/>
<polygon fill="midnightblue" stroke="midnightblue" points="577.34,-38.08 586.85,-33.41 576.51,-31.13 577.34,-38.08"/>
</g>
<!-- Node5 -->
<g id="node5" class="node">
<title>Node5</title>
<g id="a_node5"><a xlink:href="classEngine.html#a9027b51e4922e147b8ae3b50348c69af" target="_top" xlink:title="Базовая расстановка фигур на поле.">
<polygon fill="none" stroke="black" points="378,-0.5 378,-19.5 551,-19.5 551,-0.5 378,-0.5"/>
<text text-anchor="middle" x="464.5" y="-7.5" font-family="Helvetica,sans-Serif" font-size="10.00">Engine::setStartingArrangement</text>
</a>
</g>
</g>
<!-- Node1&#45;&gt;Node5 -->
<g id="edge4" class="edge">
<title>Node1&#45;&gt;Node5</title>
<path fill="none" stroke="midnightblue" d="M576.68,-23.37C566.58,-22.16 555.65,-20.84 544.7,-19.52"/>
<polygon fill="midnightblue" stroke="midnightblue" points="576.51,-26.87 586.85,-24.59 577.34,-19.92 576.51,-26.87"/>
</g>
<!-- Node3 -->
<g id="node3" class="node">
<title>Node3</title>
<g id="a_node3"><a xlink:href="classMainWindow.html#a4195422fe1346c1aa9c640715dfe73cb" target="_top" xlink:title="Новая игра.">
<polygon fill="none" stroke="black" points="184,-38.5 184,-57.5 342,-57.5 342,-38.5 184,-38.5"/>
<text text-anchor="middle" x="263" y="-45.5" font-family="Helvetica,sans-Serif" font-size="10.00">MainWindow::startNewGame</text>
</a>
</g>
</g>
<!-- Node2&#45;&gt;Node3 -->
<g id="edge2" class="edge">
<title>Node2&#45;&gt;Node3</title>
<path fill="none" stroke="midnightblue" d="M400.27,-48C381.82,-48 361.44,-48 342.18,-48"/>
<polygon fill="midnightblue" stroke="midnightblue" points="400.3,-51.5 410.3,-48 400.3,-44.5 400.3,-51.5"/>
</g>
<!-- Node4 -->
<g id="node4" class="node">
<title>Node4</title>
<g id="a_node4"><a xlink:href="classMainWindow.html#a996c5a2b6f77944776856f08ec30858d" target="_top" xlink:title=" ">
<polygon fill="none" stroke="black" points="0,-38.5 0,-57.5 148,-57.5 148,-38.5 0,-38.5"/>
<text text-anchor="middle" x="74" y="-45.5" font-family="Helvetica,sans-Serif" font-size="10.00">MainWindow::MainWindow</text>
</a>
</g>
</g>
<!-- Node3&#45;&gt;Node4 -->
<g id="edge3" class="edge">
<title>Node3&#45;&gt;Node4</title>
<path fill="none" stroke="midnightblue" d="M173.75,-48C165.17,-48 156.53,-48 148.13,-48"/>
<polygon fill="midnightblue" stroke="midnightblue" points="173.78,-51.5 183.78,-48 173.78,-44.5 173.78,-51.5"/>
</g>
<!-- Node5&#45;&gt;Node3 -->
<g id="edge6" class="edge">
<title>Node5&#45;&gt;Node3</title>
<path fill="none" stroke="midnightblue" d="M403.55,-21.42C375.01,-26.86 341.26,-33.28 314.11,-38.46"/>
<polygon fill="midnightblue" stroke="midnightblue" points="404.25,-24.85 413.42,-19.54 402.94,-17.97 404.25,-24.85"/>
</g>
<!-- Node6 -->
<g id="node6" class="node">
<title>Node6</title>
<g id="a_node6"><a xlink:href="classEngine.html#a8c98683b0a3aa28d8ab72a8bcd0d52f2" target="_top" xlink:title=" ">
<polygon fill="none" stroke="black" points="218.5,-0.5 218.5,-19.5 307.5,-19.5 307.5,-0.5 218.5,-0.5"/>
<text text-anchor="middle" x="263" y="-7.5" font-family="Helvetica,sans-Serif" font-size="10.00">Engine::Engine</text>
</a>
</g>
</g>
<!-- Node5&#45;&gt;Node6 -->
<g id="edge5" class="edge">
<title>Node5&#45;&gt;Node6</title>
<path fill="none" stroke="midnightblue" d="M367.48,-10C346.53,-10 325.35,-10 307.67,-10"/>
<polygon fill="midnightblue" stroke="midnightblue" points="367.74,-13.5 377.74,-10 367.74,-6.5 367.74,-13.5"/>
</g>
</g>
</svg>
