<?xml version="1.0" encoding="UTF-8" standalone="no"?>
<!DOCTYPE svg PUBLIC "-//W3C//DTD SVG 1.1//EN"
 "http://www.w3.org/Graphics/SVG/1.1/DTD/svg11.dtd">
<!-- Generated by graphviz version 2.43.0 (0)
 -->
<!-- Title: Figure::getUnarySteps Pages: 1 -->
<svg width="869pt" height="78pt"
 viewBox="0.00 0.00 869.00 77.50" xmlns="http://www.w3.org/2000/svg" xmlns:xlink="http://www.w3.org/1999/xlink">
<g id="graph0" class="graph" transform="scale(1 1) rotate(0) translate(4 73.5)">
<title>Figure::getUnarySteps</title>
<!-- Node1 -->
<g id="node1" class="node">
<title>Node1</title>
<g id="a_node1"><a xlink:title="Получение элементарных ходов.">
<polygon fill="#bfbfbf" stroke="black" points="736,-22.5 736,-41.5 861,-41.5 861,-22.5 736,-22.5"/>
<text text-anchor="middle" x="798.5" y="-29.5" font-family="Helvetica,sans-Serif" font-size="10.00">Figure::getUnarySteps</text>
</a>
</g>
</g>
<!-- Node2 -->
<g id="node2" class="node">
<title>Node2</title>
<g id="a_node2"><a xlink:href="classEngine.html#a66f2b590d92c6e0fa99741f02a8a9a3f" target="_top" xlink:title="Проверяет возможность хода и перемещает фигуру.">
<polygon fill="none" stroke="black" points="617,-22.5 617,-41.5 700,-41.5 700,-22.5 617,-22.5"/>
<text text-anchor="middle" x="658.5" y="-29.5" font-family="Helvetica,sans-Serif" font-size="10.00">Engine::move</text>
</a>
</g>
</g>
<!-- Node1&#45;&gt;Node2 -->
<g id="edge1" class="edge">
<title>Node1&#45;&gt;Node2</title>
<path fill="none" stroke="midnightblue" d="M725.56,-32C716.85,-32 708.21,-32 700.19,-32"/>
<polygon fill="midnightblue" stroke="midnightblue" points="725.77,-35.5 735.77,-32 725.77,-28.5 725.77,-35.5"/>
</g>
<!-- Node3 -->
<g id="node3" class="node">
<title>Node3</title>
<g id="a_node3"><a xlink:href="classMainWindow.html#a85e58f13e52e2a2d01b0bbf87c1442e9" target="_top" xlink:title="Перемещение и окончание игры.">
<polygon fill="none" stroke="black" points="184,-39 184,-69 351,-69 351,-39 184,-39"/>
<text text-anchor="start" x="192" y="-57" font-family="Helvetica,sans-Serif" font-size="10.00">MainWindow::connectGuiMove</text>
<text text-anchor="middle" x="267.5" y="-46" font-family="Helvetica,sans-Serif" font-size="10.00">WithEngine</text>
</a>
</g>
</g>
<!-- Node2&#45;&gt;Node3 -->
<g id="edge2" class="edge">
<title>Node2&#45;&gt;Node3</title>
<path fill="none" stroke="midnightblue" d="M606.6,-34.88C541.72,-38.55 428.71,-44.94 351.34,-49.31"/>
<polygon fill="midnightblue" stroke="midnightblue" points="607.18,-38.35 616.97,-34.29 606.79,-31.36 607.18,-38.35"/>
</g>
<!-- Node5 -->
<g id="node5" class="node">
<title>Node5</title>
<g id="a_node5"><a xlink:href="classEngine.html#ab4b084189c3f29e30a3a44ac0d5ed6b3" target="_top" xlink:title="Возможные ходы для фигуры.">
<polygon fill="none" stroke="black" points="387,-3.5 387,-22.5 581,-22.5 581,-3.5 387,-3.5"/>
<text text-anchor="middle" x="484" y="-10.5" font-family="Helvetica,sans-Serif" font-size="10.00">Engine::getPosibleMovesFigureFrom</text>
</a>
</g>
</g>
<!-- Node2&#45;&gt;Node5 -->
<g id="edge4" class="edge">
<title>Node2&#45;&gt;Node5</title>
<path fill="none" stroke="midnightblue" d="M606.36,-26.37C595.33,-25.15 583.38,-23.84 571.43,-22.52"/>
<polygon fill="midnightblue" stroke="midnightblue" points="606.3,-29.88 616.62,-27.5 607.06,-22.92 606.3,-29.88"/>
</g>
<!-- Node4 -->
<g id="node4" class="node">
<title>Node4</title>
<g id="a_node4"><a xlink:href="classMainWindow.html#a996c5a2b6f77944776856f08ec30858d" target="_top" xlink:title=" ">
<polygon fill="none" stroke="black" points="0,-22.5 0,-41.5 148,-41.5 148,-22.5 0,-22.5"/>
<text text-anchor="middle" x="74" y="-29.5" font-family="Helvetica,sans-Serif" font-size="10.00">MainWindow::MainWindow</text>
</a>
</g>
</g>
<!-- Node3&#45;&gt;Node4 -->
<g id="edge3" class="edge">
<title>Node3&#45;&gt;Node4</title>
<path fill="none" stroke="midnightblue" d="M173.86,-43.36C165.27,-42.37 156.66,-41.38 148.29,-40.42"/>
<polygon fill="midnightblue" stroke="midnightblue" points="173.56,-46.85 183.9,-44.51 174.36,-39.89 173.56,-46.85"/>
</g>
<!-- Node6 -->
<g id="node6" class="node">
<title>Node6</title>
<g id="a_node6"><a xlink:href="classMainWindow.html#adf52446f5b40a6b0045d04ccca523242" target="_top" xlink:title="Обработка нажатия на фигуру.">
<polygon fill="none" stroke="black" points="189.5,-0.5 189.5,-19.5 345.5,-19.5 345.5,-0.5 189.5,-0.5"/>
<text text-anchor="middle" x="267.5" y="-7.5" font-family="Helvetica,sans-Serif" font-size="10.00">MainWindow::guiPressFigure</text>
</a>
</g>
</g>
<!-- Node5&#45;&gt;Node6 -->
<g id="edge5" class="edge">
<title>Node5&#45;&gt;Node6</title>
<path fill="none" stroke="midnightblue" d="M376.42,-11.51C366.1,-11.37 355.77,-11.22 345.82,-11.08"/>
<polygon fill="midnightblue" stroke="midnightblue" points="376.68,-15.01 386.73,-11.65 376.78,-8.01 376.68,-15.01"/>
</g>
<!-- Node6&#45;&gt;Node4 -->
<g id="edge6" class="edge">
<title>Node6&#45;&gt;Node4</title>
<path fill="none" stroke="midnightblue" d="M179.47,-20C169.01,-21.2 158.41,-22.42 148.18,-23.59"/>
<polygon fill="midnightblue" stroke="midnightblue" points="179.9,-23.47 189.44,-18.85 179.1,-16.52 179.9,-23.47"/>
</g>
</g>
</svg>
