<?xml version="1.0" encoding="UTF-8" standalone="no"?>
<!DOCTYPE svg PUBLIC "-//W3C//DTD SVG 1.1//EN"
 "http://www.w3.org/Graphics/SVG/1.1/DTD/svg11.dtd">
<!-- Generated by graphviz version 2.50.0 (0)
 -->
<!-- Title: Engine::move Pages: 1 -->
<svg width="255pt" height="180pt"
 viewBox="0.00 0.00 255.00 180.00" xmlns="http://www.w3.org/2000/svg" xmlns:xlink="http://www.w3.org/1999/xlink">
<g id="graph0" class="graph" transform="scale(1 1) rotate(0) translate(4 176)">
<title>Engine::move</title>
<!-- Node1 -->
<g id="node1" class="node">
<title>Node1</title>
<g id="a_node1"><a xlink:title="Проверяет возможность хода и перемещает фигуру.">
<polygon fill="#bfbfbf" stroke="black" points="0,-76.5 0,-95.5 77,-95.5 77,-76.5 0,-76.5"/>
<text text-anchor="middle" x="38.5" y="-83.5" font-family="Helvetica,sans-Serif" font-size="10.00">Engine::move</text>
</a>
</g>
</g>
<!-- Node2 -->
<g id="node2" class="node">
<title>Node2</title>
<g id="a_node2"><a xlink:href="classBoard.html#a0bac43a8a2fc2aabc7e687eeedbe9f9e" target="_top" xlink:title="Возвращает фигуру, которая находится в ячейке поля с координатами coords.">
<polygon fill="none" stroke="black" points="135.5,-152.5 135.5,-171.5 224.5,-171.5 224.5,-152.5 135.5,-152.5"/>
<text text-anchor="middle" x="180" y="-159.5" font-family="Helvetica,sans-Serif" font-size="10.00">Board::getFigure</text>
</a>
</g>
</g>
<!-- Node1&#45;&gt;Node2 -->
<g id="edge1" class="edge">
<title>Node1&#45;&gt;Node2</title>
<path fill="none" stroke="midnightblue" d="M49.58,-95.88C63,-108.52 87.95,-130.28 113,-143 117.53,-145.3 122.39,-147.37 127.34,-149.21"/>
<polygon fill="midnightblue" stroke="midnightblue" points="126.3,-152.55 136.89,-152.47 128.56,-145.93 126.3,-152.55"/>
</g>
<!-- Node3 -->
<g id="node3" class="node">
<title>Node3</title>
<g id="a_node3"><a xlink:href="classFigure.html#a7e8010799eaba0919bc3b68eff755db0" target="_top" xlink:title="Получение возможных ходов атаки.">
<polygon fill="none" stroke="black" points="113,-114.5 113,-133.5 247,-133.5 247,-114.5 113,-114.5"/>
<text text-anchor="middle" x="180" y="-121.5" font-family="Helvetica,sans-Serif" font-size="10.00">Figure::getPossibleAttacks</text>
</a>
</g>
</g>
<!-- Node1&#45;&gt;Node3 -->
<g id="edge2" class="edge">
<title>Node1&#45;&gt;Node3</title>
<path fill="none" stroke="midnightblue" d="M74.7,-95.59C92.71,-100.49 114.83,-106.52 134.06,-111.76"/>
<polygon fill="midnightblue" stroke="midnightblue" points="133.24,-115.16 143.81,-114.41 135.08,-108.41 133.24,-115.16"/>
</g>
<!-- Node4 -->
<g id="node4" class="node">
<title>Node4</title>
<g id="a_node4"><a xlink:href="classFigure.html#ab648751cbee093526d0d531c4f599d58" target="_top" xlink:title="Получение возможных ходов перемещения.">
<polygon fill="none" stroke="black" points="115,-76.5 115,-95.5 245,-95.5 245,-76.5 115,-76.5"/>
<text text-anchor="middle" x="180" y="-83.5" font-family="Helvetica,sans-Serif" font-size="10.00">Figure::getPossibleMoves</text>
</a>
</g>
</g>
<!-- Node1&#45;&gt;Node4 -->
<g id="edge3" class="edge">
<title>Node1&#45;&gt;Node4</title>
<path fill="none" stroke="midnightblue" d="M77.25,-86C85.78,-86 95.13,-86 104.6,-86"/>
<polygon fill="midnightblue" stroke="midnightblue" points="104.88,-89.5 114.88,-86 104.88,-82.5 104.88,-89.5"/>
</g>
<!-- Node5 -->
<g id="node5" class="node">
<title>Node5</title>
<g id="a_node5"><a xlink:href="classFigure.html#aad86c6d796ac96d30f2a310c107fdbac" target="_top" xlink:title="Получение элементарных ходов.">
<polygon fill="none" stroke="black" points="122.5,-38.5 122.5,-57.5 237.5,-57.5 237.5,-38.5 122.5,-38.5"/>
<text text-anchor="middle" x="180" y="-45.5" font-family="Helvetica,sans-Serif" font-size="10.00">Figure::getUnarySteps</text>
</a>
</g>
</g>
<!-- Node1&#45;&gt;Node5 -->
<g id="edge4" class="edge">
<title>Node1&#45;&gt;Node5</title>
<path fill="none" stroke="midnightblue" d="M74.7,-76.41C92.71,-71.51 114.83,-65.48 134.06,-60.24"/>
<polygon fill="midnightblue" stroke="midnightblue" points="135.08,-63.59 143.81,-57.59 133.24,-56.84 135.08,-63.59"/>
</g>
<!-- Node6 -->
<g id="node6" class="node">
<title>Node6</title>
<g id="a_node6"><a xlink:href="classBoard.html#a4ed8cf3fae283d3c88eb6b0dea9e9f0a" target="_top" xlink:title="Перемещает фигуру в board.">
<polygon fill="none" stroke="black" points="144,-0.5 144,-19.5 216,-19.5 216,-0.5 144,-0.5"/>
<text text-anchor="middle" x="180" y="-7.5" font-family="Helvetica,sans-Serif" font-size="10.00">Board::move</text>
</a>
</g>
</g>
<!-- Node1&#45;&gt;Node6 -->
<g id="edge5" class="edge">
<title>Node1&#45;&gt;Node6</title>
<path fill="none" stroke="midnightblue" d="M49.58,-76.12C63,-63.48 87.95,-41.72 113,-29 119.58,-25.66 126.83,-22.82 134.05,-20.44"/>
<polygon fill="midnightblue" stroke="midnightblue" points="135.26,-23.73 143.81,-17.48 133.22,-17.04 135.26,-23.73"/>
</g>
</g>
</svg>
