<?xml version="1.0" encoding="UTF-8" standalone="no"?>
<!DOCTYPE svg PUBLIC "-//W3C//DTD SVG 1.1//EN"
 "http://www.w3.org/Graphics/SVG/1.1/DTD/svg11.dtd">
<!-- Generated by graphviz version 2.43.0 (0)
 -->
<!-- Title: MainWindow::connectGuiMoveWithEngine Pages: 1 -->
<svg width="476pt" height="218pt"
 viewBox="0.00 0.00 476.00 218.00" xmlns="http://www.w3.org/2000/svg" xmlns:xlink="http://www.w3.org/1999/xlink">
<g id="graph0" class="graph" transform="scale(1 1) rotate(0) translate(4 214)">
<title>MainWindow::connectGuiMoveWithEngine</title>
<!-- Node1 -->
<g id="node1" class="node">
<title>Node1</title>
<g id="a_node1"><a xlink:title=" ">
<polygon fill="#bfbfbf" stroke="black" points="0,-90 0,-120 167,-120 167,-90 0,-90"/>
<text text-anchor="start" x="8" y="-108" font-family="Helvetica,sans-Serif" font-size="10.00">MainWindow::connectGuiMove</text>
<text text-anchor="middle" x="83.5" y="-97" font-family="Helvetica,sans-Serif" font-size="10.00">WithEngine</text>
</a>
</g>
</g>
<!-- Node2 -->
<g id="node2" class="node">
<title>Node2</title>
<g id="a_node2"><a xlink:href="classEngine.html#a66f2b590d92c6e0fa99741f02a8a9a3f" target="_top" xlink:title="Проверяет возможность хода и перемещает фигуру.">
<polygon fill="none" stroke="black" points="203,-95.5 203,-114.5 286,-114.5 286,-95.5 203,-95.5"/>
<text text-anchor="middle" x="244.5" y="-102.5" font-family="Helvetica,sans-Serif" font-size="10.00">Engine::move</text>
</a>
</g>
</g>
<!-- Node1&#45;&gt;Node2 -->
<g id="edge1" class="edge">
<title>Node1&#45;&gt;Node2</title>
<path fill="none" stroke="midnightblue" d="M167.26,-105C175.96,-105 184.61,-105 192.79,-105"/>
<polygon fill="midnightblue" stroke="midnightblue" points="192.87,-108.5 202.87,-105 192.87,-101.5 192.87,-108.5"/>
</g>
<!-- Node3 -->
<g id="node3" class="node">
<title>Node3</title>
<g id="a_node3"><a xlink:href="classFigure.html#af27c0f2d5fe69cb9eb17380d3ba91d6a" target="_top" xlink:title="Получение цвета фигуры.">
<polygon fill="none" stroke="black" points="348,-190.5 348,-209.5 442,-209.5 442,-190.5 348,-190.5"/>
<text text-anchor="middle" x="395" y="-197.5" font-family="Helvetica,sans-Serif" font-size="10.00">Figure::getColor</text>
</a>
</g>
</g>
<!-- Node2&#45;&gt;Node3 -->
<g id="edge2" class="edge">
<title>Node2&#45;&gt;Node3</title>
<path fill="none" stroke="midnightblue" d="M252.36,-114.54C264.52,-130.72 291.46,-163.51 322,-181 327.03,-183.88 332.51,-186.34 338.12,-188.42"/>
<polygon fill="midnightblue" stroke="midnightblue" points="337.05,-191.76 347.64,-191.61 339.27,-185.12 337.05,-191.76"/>
</g>
<!-- Node4 -->
<g id="node4" class="node">
<title>Node4</title>
<g id="a_node4"><a xlink:href="classBoard.html#a0bac43a8a2fc2aabc7e687eeedbe9f9e" target="_top" xlink:title="Возвращает фигуру, которая находится в ячейке поля с координатами coords.">
<polygon fill="none" stroke="black" points="346.5,-152.5 346.5,-171.5 443.5,-171.5 443.5,-152.5 346.5,-152.5"/>
<text text-anchor="middle" x="395" y="-159.5" font-family="Helvetica,sans-Serif" font-size="10.00">Board::getFigure</text>
</a>
</g>
</g>
<!-- Node2&#45;&gt;Node4 -->
<g id="edge3" class="edge">
<title>Node2&#45;&gt;Node4</title>
<path fill="none" stroke="midnightblue" d="M262.37,-114.63C277.58,-123 300.76,-135.02 322,-143 328.42,-145.41 335.28,-147.64 342.11,-149.66"/>
<polygon fill="midnightblue" stroke="midnightblue" points="341.47,-153.12 352.05,-152.46 343.37,-146.38 341.47,-153.12"/>
</g>
<!-- Node5 -->
<g id="node5" class="node">
<title>Node5</title>
<g id="a_node5"><a xlink:href="classFigure.html#a7e8010799eaba0919bc3b68eff755db0" target="_top" xlink:title="Получение возможных ходов атаки.">
<polygon fill="none" stroke="black" points="322,-114.5 322,-133.5 468,-133.5 468,-114.5 322,-114.5"/>
<text text-anchor="middle" x="395" y="-121.5" font-family="Helvetica,sans-Serif" font-size="10.00">Figure::getPossibleAttacks</text>
</a>
</g>
</g>
<!-- Node2&#45;&gt;Node5 -->
<g id="edge4" class="edge">
<title>Node2&#45;&gt;Node5</title>
<path fill="none" stroke="midnightblue" d="M286.08,-110.19C294.13,-111.22 302.85,-112.34 311.72,-113.47"/>
<polygon fill="midnightblue" stroke="midnightblue" points="311.41,-116.96 321.78,-114.76 312.3,-110.02 311.41,-116.96"/>
</g>
<!-- Node6 -->
<g id="node6" class="node">
<title>Node6</title>
<g id="a_node6"><a xlink:href="classFigure.html#ab648751cbee093526d0d531c4f599d58" target="_top" xlink:title="Получение возможных ходов перемещения.">
<polygon fill="none" stroke="black" points="324.5,-76.5 324.5,-95.5 465.5,-95.5 465.5,-76.5 324.5,-76.5"/>
<text text-anchor="middle" x="395" y="-83.5" font-family="Helvetica,sans-Serif" font-size="10.00">Figure::getPossibleMoves</text>
</a>
</g>
</g>
<!-- Node2&#45;&gt;Node6 -->
<g id="edge5" class="edge">
<title>Node2&#45;&gt;Node6</title>
<path fill="none" stroke="midnightblue" d="M286.08,-99.81C294.87,-98.68 304.47,-97.46 314.19,-96.21"/>
<polygon fill="midnightblue" stroke="midnightblue" points="314.87,-99.65 324.34,-94.91 313.98,-92.71 314.87,-99.65"/>
</g>
<!-- Node7 -->
<g id="node7" class="node">
<title>Node7</title>
<g id="a_node7"><a xlink:href="classFigure.html#aad86c6d796ac96d30f2a310c107fdbac" target="_top" xlink:title="Получение элементарных ходов.">
<polygon fill="none" stroke="black" points="332.5,-38.5 332.5,-57.5 457.5,-57.5 457.5,-38.5 332.5,-38.5"/>
<text text-anchor="middle" x="395" y="-45.5" font-family="Helvetica,sans-Serif" font-size="10.00">Figure::getUnarySteps</text>
</a>
</g>
</g>
<!-- Node2&#45;&gt;Node7 -->
<g id="edge6" class="edge">
<title>Node2&#45;&gt;Node7</title>
<path fill="none" stroke="midnightblue" d="M262.37,-95.37C277.58,-87 300.76,-74.98 322,-67 328.42,-64.59 335.28,-62.36 342.11,-60.34"/>
<polygon fill="midnightblue" stroke="midnightblue" points="343.37,-63.62 352.05,-57.54 341.47,-56.88 343.37,-63.62"/>
</g>
<!-- Node8 -->
<g id="node8" class="node">
<title>Node8</title>
<g id="a_node8"><a xlink:href="classBoard.html#a4ed8cf3fae283d3c88eb6b0dea9e9f0a" target="_top" xlink:title="Перемещает фигуру в board.">
<polygon fill="none" stroke="black" points="355.5,-0.5 355.5,-19.5 434.5,-19.5 434.5,-0.5 355.5,-0.5"/>
<text text-anchor="middle" x="395" y="-7.5" font-family="Helvetica,sans-Serif" font-size="10.00">Board::move</text>
</a>
</g>
</g>
<!-- Node2&#45;&gt;Node8 -->
<g id="edge7" class="edge">
<title>Node2&#45;&gt;Node8</title>
<path fill="none" stroke="midnightblue" d="M252.36,-95.46C264.52,-79.28 291.46,-46.49 322,-29 329.18,-24.89 337.27,-21.65 345.36,-19.09"/>
<polygon fill="midnightblue" stroke="midnightblue" points="346.51,-22.41 355.18,-16.31 344.6,-15.67 346.51,-22.41"/>
</g>
</g>
</svg>
