<?xml version="1.0" encoding="UTF-8" standalone="no"?>
<!DOCTYPE svg PUBLIC "-//W3C//DTD SVG 1.1//EN"
 "http://www.w3.org/Graphics/SVG/1.1/DTD/svg11.dtd">
<!-- Generated by graphviz version 2.43.0 (0)
 -->
<!-- Title: Engine::getPosibleMovesFigureFrom Pages: 1 -->
<svg width="864pt" height="340pt"
 viewBox="0.00 0.00 864.00 339.91" xmlns="http://www.w3.org/2000/svg" xmlns:xlink="http://www.w3.org/1999/xlink">
<g id="graph0" class="graph" transform="scale(1 1) rotate(0) translate(4 335.91)">
<title>Engine::getPosibleMovesFigureFrom</title>
<!-- Node1 -->
<g id="node1" class="node">
<title>Node1</title>
<g id="a_node1"><a xlink:title=" ">
<polygon fill="#bfbfbf" stroke="black" points="0,-234.5 0,-253.5 194,-253.5 194,-234.5 0,-234.5"/>
<text text-anchor="middle" x="97" y="-241.5" font-family="Helvetica,sans-Serif" font-size="10.00">Engine::getPosibleMovesFigureFrom</text>
</a>
</g>
</g>
<!-- Node2 -->
<g id="node2" class="node">
<title>Node2</title>
<g id="a_node2"><a xlink:href="classBoard.html#ab906dade3854d38f6354861a715fccac" target="_top" xlink:title="getBoo Возвращает доску.">
<polygon fill="none" stroke="black" points="737,-294.5 737,-313.5 856,-313.5 856,-294.5 737,-294.5"/>
<text text-anchor="middle" x="796.5" y="-301.5" font-family="Helvetica,sans-Serif" font-size="10.00">Board::getBoardData</text>
</a>
</g>
</g>
<!-- Node1&#45;&gt;Node2 -->
<g id="edge1" class="edge">
<title>Node1&#45;&gt;Node2</title>
<path fill="none" stroke="midnightblue" d="M129.35,-253.61C176.53,-267.66 268.79,-293.61 349,-307 503.47,-332.79 545.16,-338.51 701,-323 716.15,-321.49 732.47,-318.65 747.22,-315.62"/>
<polygon fill="midnightblue" stroke="midnightblue" points="748.09,-319.02 757.14,-313.51 746.63,-312.17 748.09,-319.02"/>
</g>
<!-- Node3 -->
<g id="node3" class="node">
<title>Node3</title>
<g id="a_node3"><a xlink:href="classEngine.html#a66f2b590d92c6e0fa99741f02a8a9a3f" target="_top" xlink:title="Проверяет возможность хода и перемещает фигуру.">
<polygon fill="none" stroke="black" points="230,-152.5 230,-171.5 313,-171.5 313,-152.5 230,-152.5"/>
<text text-anchor="middle" x="271.5" y="-159.5" font-family="Helvetica,sans-Serif" font-size="10.00">Engine::move</text>
</a>
</g>
</g>
<!-- Node1&#45;&gt;Node3 -->
<g id="edge2" class="edge">
<title>Node1&#45;&gt;Node3</title>
<path fill="none" stroke="midnightblue" d="M118.13,-234.43C148.51,-219.99 206.25,-192.54 241.27,-175.9"/>
<polygon fill="midnightblue" stroke="midnightblue" points="242.97,-178.96 250.5,-171.51 239.97,-172.64 242.97,-178.96"/>
</g>
<!-- Node4 -->
<g id="node4" class="node">
<title>Node4</title>
<g id="a_node4"><a xlink:href="classEngine.html#a2b384a18565b9cdd85b52fed6d25ff0c" target="_top" xlink:title="Расчет преимущества игрока.">
<polygon fill="none" stroke="black" points="349,-267 349,-297 501,-297 501,-267 349,-267"/>
<text text-anchor="start" x="357" y="-285" font-family="Helvetica,sans-Serif" font-size="10.00">Engine::calculateAdvantage</text>
<text text-anchor="middle" x="425" y="-274" font-family="Helvetica,sans-Serif" font-size="10.00">White</text>
</a>
</g>
</g>
<!-- Node3&#45;&gt;Node4 -->
<g id="edge3" class="edge">
<title>Node3&#45;&gt;Node4</title>
<path fill="none" stroke="midnightblue" d="M277.68,-171.6C288.45,-190.65 315.09,-233.44 349,-257 351.85,-258.98 354.86,-260.81 357.99,-262.51"/>
<polygon fill="midnightblue" stroke="midnightblue" points="356.5,-265.68 367.02,-266.92 359.58,-259.39 356.5,-265.68"/>
</g>
<!-- Node8 -->
<g id="node8" class="node">
<title>Node8</title>
<g id="a_node8"><a xlink:href="engine_8cpp.html#a0aedf9d17abf2bab41a04d5beb4f4988" target="_top" xlink:title=" ">
<polygon fill="none" stroke="black" points="364.5,-228.5 364.5,-247.5 485.5,-247.5 485.5,-228.5 364.5,-228.5"/>
<text text-anchor="middle" x="425" y="-235.5" font-family="Helvetica,sans-Serif" font-size="10.00">checkStepOnPossible</text>
</a>
</g>
</g>
<!-- Node3&#45;&gt;Node8 -->
<g id="edge8" class="edge">
<title>Node3&#45;&gt;Node8</title>
<path fill="none" stroke="midnightblue" d="M282.53,-171.55C296.39,-184.23 322.68,-206.47 349,-219 354,-221.38 359.34,-223.49 364.78,-225.35"/>
<polygon fill="midnightblue" stroke="midnightblue" points="364.02,-228.78 374.61,-228.43 366.12,-222.1 364.02,-228.78"/>
</g>
<!-- Node9 -->
<g id="node9" class="node">
<title>Node9</title>
<g id="a_node9"><a xlink:href="classFigure.html#af27c0f2d5fe69cb9eb17380d3ba91d6a" target="_top" xlink:title="Получение цвета фигуры.">
<polygon fill="none" stroke="black" points="378,-190.5 378,-209.5 472,-209.5 472,-190.5 378,-190.5"/>
<text text-anchor="middle" x="425" y="-197.5" font-family="Helvetica,sans-Serif" font-size="10.00">Figure::getColor</text>
</a>
</g>
</g>
<!-- Node3&#45;&gt;Node9 -->
<g id="edge9" class="edge">
<title>Node3&#45;&gt;Node9</title>
<path fill="none" stroke="midnightblue" d="M310.73,-171.59C330.63,-176.58 355.16,-182.73 376.29,-188.03"/>
<polygon fill="midnightblue" stroke="midnightblue" points="375.49,-191.44 386.05,-190.48 377.2,-184.65 375.49,-191.44"/>
</g>
<!-- Node10 -->
<g id="node10" class="node">
<title>Node10</title>
<g id="a_node10"><a xlink:href="classBoard.html#a0bac43a8a2fc2aabc7e687eeedbe9f9e" target="_top" xlink:title="Возвращает фигуру, которая находится в ячейке поля с координатами coords.">
<polygon fill="none" stroke="black" points="376.5,-152.5 376.5,-171.5 473.5,-171.5 473.5,-152.5 376.5,-152.5"/>
<text text-anchor="middle" x="425" y="-159.5" font-family="Helvetica,sans-Serif" font-size="10.00">Board::getFigure</text>
</a>
</g>
</g>
<!-- Node3&#45;&gt;Node10 -->
<g id="edge10" class="edge">
<title>Node3&#45;&gt;Node10</title>
<path fill="none" stroke="midnightblue" d="M313.1,-162C329.36,-162 348.41,-162 366.08,-162"/>
<polygon fill="midnightblue" stroke="midnightblue" points="366.3,-165.5 376.3,-162 366.3,-158.5 366.3,-165.5"/>
</g>
<!-- Node11 -->
<g id="node11" class="node">
<title>Node11</title>
<g id="a_node11"><a xlink:href="classFigure.html#a12d36f015da3026f980f87a93210885a" target="_top" xlink:title="Получение возможных ходов атаки.">
<polygon fill="none" stroke="black" points="352,-114.5 352,-133.5 498,-133.5 498,-114.5 352,-114.5"/>
<text text-anchor="middle" x="425" y="-121.5" font-family="Helvetica,sans-Serif" font-size="10.00">Figure::getPossibleAttacks</text>
</a>
</g>
</g>
<!-- Node3&#45;&gt;Node11 -->
<g id="edge11" class="edge">
<title>Node3&#45;&gt;Node11</title>
<path fill="none" stroke="midnightblue" d="M310.73,-152.41C330.63,-147.42 355.16,-141.27 376.29,-135.97"/>
<polygon fill="midnightblue" stroke="midnightblue" points="377.2,-139.35 386.05,-133.52 375.49,-132.56 377.2,-139.35"/>
</g>
<!-- Node12 -->
<g id="node12" class="node">
<title>Node12</title>
<g id="a_node12"><a xlink:href="classFigure.html#ac527b099db89b98b705eb74bed96c147" target="_top" xlink:title="Получение возможных ходов перемещения.">
<polygon fill="none" stroke="black" points="354.5,-76.5 354.5,-95.5 495.5,-95.5 495.5,-76.5 354.5,-76.5"/>
<text text-anchor="middle" x="425" y="-83.5" font-family="Helvetica,sans-Serif" font-size="10.00">Figure::getPossibleMoves</text>
</a>
</g>
</g>
<!-- Node3&#45;&gt;Node12 -->
<g id="edge12" class="edge">
<title>Node3&#45;&gt;Node12</title>
<path fill="none" stroke="midnightblue" d="M282.53,-152.45C296.39,-139.77 322.68,-117.53 349,-105 354,-102.62 359.34,-100.51 364.78,-98.65"/>
<polygon fill="midnightblue" stroke="midnightblue" points="366.12,-101.9 374.61,-95.57 364.02,-95.22 366.12,-101.9"/>
</g>
<!-- Node13 -->
<g id="node13" class="node">
<title>Node13</title>
<g id="a_node13"><a xlink:href="classFigure.html#aad86c6d796ac96d30f2a310c107fdbac" target="_top" xlink:title="Получение элементарных ходов.">
<polygon fill="none" stroke="black" points="362.5,-38.5 362.5,-57.5 487.5,-57.5 487.5,-38.5 362.5,-38.5"/>
<text text-anchor="middle" x="425" y="-45.5" font-family="Helvetica,sans-Serif" font-size="10.00">Figure::getUnarySteps</text>
</a>
</g>
</g>
<!-- Node3&#45;&gt;Node13 -->
<g id="edge13" class="edge">
<title>Node3&#45;&gt;Node13</title>
<path fill="none" stroke="midnightblue" d="M277.38,-152.48C287.78,-133.19 314.07,-89.41 349,-67 352.34,-64.86 355.9,-62.96 359.6,-61.27"/>
<polygon fill="midnightblue" stroke="midnightblue" points="361.02,-64.47 369.01,-57.5 358.42,-57.97 361.02,-64.47"/>
</g>
<!-- Node14 -->
<g id="node14" class="node">
<title>Node14</title>
<g id="a_node14"><a xlink:href="classBoard.html#a4ed8cf3fae283d3c88eb6b0dea9e9f0a" target="_top" xlink:title="Перемещает фигуру в board.">
<polygon fill="none" stroke="black" points="385.5,-0.5 385.5,-19.5 464.5,-19.5 464.5,-0.5 385.5,-0.5"/>
<text text-anchor="middle" x="425" y="-7.5" font-family="Helvetica,sans-Serif" font-size="10.00">Board::move</text>
</a>
</g>
</g>
<!-- Node3&#45;&gt;Node14 -->
<g id="edge14" class="edge">
<title>Node3&#45;&gt;Node14</title>
<path fill="none" stroke="midnightblue" d="M275.22,-152.19C282.6,-127.43 305.48,-61.98 349,-29 356.71,-23.16 366.01,-19.1 375.4,-16.29"/>
<polygon fill="midnightblue" stroke="midnightblue" points="376.35,-19.66 385.16,-13.78 374.6,-12.88 376.35,-19.66"/>
</g>
<!-- Node5 -->
<g id="node5" class="node">
<title>Node5</title>
<g id="a_node5"><a xlink:href="classEngine.html#a93442cf58f7239df6e2b5303b7b90cda" target="_top" xlink:title=" ">
<polygon fill="none" stroke="black" points="544,-294.5 544,-313.5 694,-313.5 694,-294.5 544,-294.5"/>
<text text-anchor="middle" x="619" y="-301.5" font-family="Helvetica,sans-Serif" font-size="10.00">Engine::enemyUnderAttack</text>
</a>
</g>
</g>
<!-- Node4&#45;&gt;Node5 -->
<g id="edge4" class="edge">
<title>Node4&#45;&gt;Node5</title>
<path fill="none" stroke="midnightblue" d="M501.06,-290.6C511.85,-291.84 523.01,-293.12 533.96,-294.37"/>
<polygon fill="midnightblue" stroke="midnightblue" points="533.61,-297.85 543.94,-295.51 534.4,-290.9 533.61,-297.85"/>
</g>
<!-- Node6 -->
<g id="node6" class="node">
<title>Node6</title>
<g id="a_node6"><a xlink:href="classEngine.html#af2c8028ccaf85425744ad55844765fac" target="_top" xlink:title="getData возвращает поле.">
<polygon fill="none" stroke="black" points="571.5,-256.5 571.5,-275.5 666.5,-275.5 666.5,-256.5 571.5,-256.5"/>
<text text-anchor="middle" x="619" y="-263.5" font-family="Helvetica,sans-Serif" font-size="10.00">Engine::getData</text>
</a>
</g>
</g>
<!-- Node4&#45;&gt;Node6 -->
<g id="edge5" class="edge">
<title>Node4&#45;&gt;Node6</title>
<path fill="none" stroke="midnightblue" d="M501.06,-275.75C521.02,-274.08 542.26,-272.31 561.08,-270.74"/>
<polygon fill="midnightblue" stroke="midnightblue" points="561.59,-274.21 571.27,-269.89 561.01,-267.24 561.59,-274.21"/>
</g>
<!-- Node7 -->
<g id="node7" class="node">
<title>Node7</title>
<g id="a_node7"><a xlink:href="classEngine.html#a9154a3995005939adcc56d46d8bd78b0" target="_top" xlink:title=" ">
<polygon fill="none" stroke="black" points="537,-218.5 537,-237.5 701,-237.5 701,-218.5 537,-218.5"/>
<text text-anchor="middle" x="619" y="-225.5" font-family="Helvetica,sans-Serif" font-size="10.00">Engine::quantityPossibleMove</text>
</a>
</g>
</g>
<!-- Node4&#45;&gt;Node7 -->
<g id="edge7" class="edge">
<title>Node4&#45;&gt;Node7</title>
<path fill="none" stroke="midnightblue" d="M471.14,-266.92C491.2,-260.44 515.18,-252.99 537,-247 545.9,-244.56 555.4,-242.15 564.65,-239.91"/>
<polygon fill="midnightblue" stroke="midnightblue" points="565.63,-243.28 574.55,-237.56 564.01,-236.47 565.63,-243.28"/>
</g>
<!-- Node6&#45;&gt;Node2 -->
<g id="edge6" class="edge">
<title>Node6&#45;&gt;Node2</title>
<path fill="none" stroke="midnightblue" d="M664.29,-275.59C687.76,-280.67 716.78,-286.96 741.56,-292.32"/>
<polygon fill="midnightblue" stroke="midnightblue" points="741.02,-295.78 751.53,-294.48 742.5,-288.94 741.02,-295.78"/>
</g>
</g>
</svg>
