<?xml version="1.0" encoding="UTF-8" standalone="no"?>
<!DOCTYPE svg PUBLIC "-//W3C//DTD SVG 1.1//EN"
 "http://www.w3.org/Graphics/SVG/1.1/DTD/svg11.dtd">
<!-- Generated by graphviz version 2.43.0 (0)
 -->
<!-- Title: Position Pages: 1 -->
<svg width="118pt" height="204pt"
 viewBox="0.00 0.00 118.00 204.00" xmlns="http://www.w3.org/2000/svg" xmlns:xlink="http://www.w3.org/1999/xlink">
<g id="graph0" class="graph" transform="scale(1 1) rotate(0) translate(4 200)">
<title>Position</title>
<!-- Node1 -->
<g id="node1" class="node">
<title>Node1</title>
<g id="a_node1"><a xlink:title="Позиция на поле (координаты).">
<polygon fill="#bfbfbf" stroke="black" points="12.5,-0.5 12.5,-101.5 97.5,-101.5 97.5,-0.5 12.5,-0.5"/>
<text text-anchor="middle" x="55" y="-89.5" font-family="Helvetica,sans-Serif" font-size="10.00">Position</text>
<polyline fill="none" stroke="black" points="12.5,-82.5 97.5,-82.5 "/>
<text text-anchor="start" x="20.5" y="-70.5" font-family="Helvetica,sans-Serif" font-size="10.00">+ x</text>
<text text-anchor="start" x="20.5" y="-59.5" font-family="Helvetica,sans-Serif" font-size="10.00">+ y</text>
<polyline fill="none" stroke="black" points="12.5,-52.5 97.5,-52.5 "/>
<text text-anchor="start" x="20.5" y="-40.5" font-family="Helvetica,sans-Serif" font-size="10.00">+ Position()</text>
<text text-anchor="start" x="20.5" y="-29.5" font-family="Helvetica,sans-Serif" font-size="10.00">+ Position()</text>
<text text-anchor="start" x="20.5" y="-18.5" font-family="Helvetica,sans-Serif" font-size="10.00">+ Position()</text>
<text text-anchor="start" x="20.5" y="-7.5" font-family="Helvetica,sans-Serif" font-size="10.00">+ operator=()</text>
</a>
</g>
</g>
<!-- Node2 -->
<g id="node2" class="node">
<title>Node2</title>
<g id="a_node2"><a xlink:title=" ">
<polygon fill="none" stroke="black" points="0,-138.5 0,-195.5 110,-195.5 110,-138.5 0,-138.5"/>
<text text-anchor="middle" x="55" y="-183.5" font-family="Helvetica,sans-Serif" font-size="10.00">std::pair&lt; int, int &gt;</text>
<polyline fill="none" stroke="black" points="0,-176.5 110,-176.5 "/>
<text text-anchor="middle" x="55" y="-164.5" font-family="Helvetica,sans-Serif" font-size="10.00"> </text>
<polyline fill="none" stroke="black" points="0,-157.5 110,-157.5 "/>
<text text-anchor="middle" x="55" y="-145.5" font-family="Helvetica,sans-Serif" font-size="10.00"> </text>
</a>
</g>
</g>
<!-- Node2&#45;&gt;Node1 -->
<g id="edge1" class="edge">
<title>Node2&#45;&gt;Node1</title>
<path fill="none" stroke="midnightblue" d="M55,-128.35C55,-119.8 55,-110.58 55,-101.61"/>
<polygon fill="none" stroke="midnightblue" points="51.5,-128.4 55,-138.4 58.5,-128.4 51.5,-128.4"/>
</g>
</g>
</svg>
