<?xml version="1.0" encoding="UTF-8" standalone="no"?>
<!DOCTYPE svg PUBLIC "-//W3C//DTD SVG 1.1//EN"
 "http://www.w3.org/Graphics/SVG/1.1/DTD/svg11.dtd">
<!-- Generated by graphviz version 2.43.0 (0)
 -->
<!-- Title: MainWindow::MainWindow Pages: 1 -->
<svg width="1320pt" height="730pt"
 viewBox="0.00 0.00 1320.00 730.00" xmlns="http://www.w3.org/2000/svg" xmlns:xlink="http://www.w3.org/1999/xlink">
<g id="graph0" class="graph" transform="scale(1 1) rotate(0) translate(4 726)">
<title>MainWindow::MainWindow</title>
<!-- Node1 -->
<g id="node1" class="node">
<title>Node1</title>
<g id="a_node1"><a xlink:title=" ">
<polygon fill="#bfbfbf" stroke="black" points="0,-209.5 0,-228.5 148,-228.5 148,-209.5 0,-209.5"/>
<text text-anchor="middle" x="74" y="-216.5" font-family="Helvetica,sans-Serif" font-size="10.00">MainWindow::MainWindow</text>
</a>
</g>
</g>
<!-- Node2 -->
<g id="node2" class="node">
<title>Node2</title>
<g id="a_node2"><a xlink:href="classScreenLiderboard.html#a82fe5bb9612760278f98be788877b461" target="_top" xlink:title="Добавляет новую запись в таблицу.">
<polygon fill="none" stroke="black" points="195.5,-442 195.5,-472 342.5,-472 342.5,-442 195.5,-442"/>
<text text-anchor="start" x="203.5" y="-460" font-family="Helvetica,sans-Serif" font-size="10.00">ScreenLiderboard::addNew</text>
<text text-anchor="middle" x="269" y="-449" font-family="Helvetica,sans-Serif" font-size="10.00">Record</text>
</a>
</g>
</g>
<!-- Node1&#45;&gt;Node2 -->
<g id="edge1" class="edge">
<title>Node1&#45;&gt;Node2</title>
<path fill="none" stroke="midnightblue" d="M77.06,-228.85C84.68,-262.76 114.48,-375.74 184,-433 185.58,-434.3 187.23,-435.53 188.93,-436.7"/>
<polygon fill="midnightblue" stroke="midnightblue" points="187.47,-439.9 197.85,-441.98 191.03,-433.87 187.47,-439.9"/>
</g>
<!-- Node3 -->
<g id="node3" class="node">
<title>Node3</title>
<g id="a_node3"><a xlink:href="classMainWindow.html#a85e58f13e52e2a2d01b0bbf87c1442e9" target="_top" xlink:title="Перемещение и окончание игры.">
<polygon fill="none" stroke="black" points="185.5,-393 185.5,-423 352.5,-423 352.5,-393 185.5,-393"/>
<text text-anchor="start" x="193.5" y="-411" font-family="Helvetica,sans-Serif" font-size="10.00">MainWindow::connectGuiMove</text>
<text text-anchor="middle" x="269" y="-400" font-family="Helvetica,sans-Serif" font-size="10.00">WithEngine</text>
</a>
</g>
</g>
<!-- Node1&#45;&gt;Node3 -->
<g id="edge2" class="edge">
<title>Node1&#45;&gt;Node3</title>
<path fill="none" stroke="midnightblue" d="M78.7,-228.85C89.91,-257.3 126.28,-340.31 184,-383 186.63,-384.95 189.41,-386.74 192.3,-388.4"/>
<polygon fill="midnightblue" stroke="midnightblue" points="190.74,-391.53 201.24,-392.96 193.92,-385.29 190.74,-391.53"/>
</g>
<!-- Node19 -->
<g id="node19" class="node">
<title>Node19</title>
<g id="a_node19"><a xlink:href="classLiderboard.html#a3314a003631ca5b033d12f450ea915bb" target="_top" xlink:title="Получить таблицу лидеров">
<polygon fill="none" stroke="black" points="212.5,-266.5 212.5,-285.5 325.5,-285.5 325.5,-266.5 212.5,-266.5"/>
<text text-anchor="middle" x="269" y="-273.5" font-family="Helvetica,sans-Serif" font-size="10.00">Liderboard::getData</text>
</a>
</g>
</g>
<!-- Node1&#45;&gt;Node19 -->
<g id="edge19" class="edge">
<title>Node1&#45;&gt;Node19</title>
<path fill="none" stroke="midnightblue" d="M99.85,-228.57C121.78,-236.79 154.72,-248.61 184,-257 192.87,-259.54 202.34,-261.96 211.61,-264.17"/>
<polygon fill="midnightblue" stroke="midnightblue" points="211.02,-267.62 221.55,-266.48 212.6,-260.8 211.02,-267.62"/>
</g>
<!-- Node20 -->
<g id="node20" class="node">
<title>Node20</title>
<g id="a_node20"><a xlink:href="classSettings.html#aafac1118b06ef59fd2559e79ddaaf64a" target="_top" xlink:title="Возвращает флаг музыки [On, Off].">
<polygon fill="none" stroke="black" points="205,-228.5 205,-247.5 333,-247.5 333,-228.5 205,-228.5"/>
<text text-anchor="middle" x="269" y="-235.5" font-family="Helvetica,sans-Serif" font-size="10.00">Settings::getMusicFlag</text>
</a>
</g>
</g>
<!-- Node1&#45;&gt;Node20 -->
<g id="edge20" class="edge">
<title>Node1&#45;&gt;Node20</title>
<path fill="none" stroke="midnightblue" d="M148.24,-226.21C163.4,-227.7 179.38,-229.28 194.55,-230.77"/>
<polygon fill="midnightblue" stroke="midnightblue" points="194.61,-234.29 204.9,-231.79 195.29,-227.33 194.61,-234.29"/>
</g>
<!-- Node21 -->
<g id="node21" class="node">
<title>Node21</title>
<g id="a_node21"><a xlink:href="classSettings.html#a8db67fed89c78f12e8cd036c02c274ac" target="_top" xlink:title="Возвращает значение громкости музыки">
<polygon fill="none" stroke="black" points="197.5,-190.5 197.5,-209.5 340.5,-209.5 340.5,-190.5 197.5,-190.5"/>
<text text-anchor="middle" x="269" y="-197.5" font-family="Helvetica,sans-Serif" font-size="10.00">Settings::getMusicVolume</text>
</a>
</g>
</g>
<!-- Node1&#45;&gt;Node21 -->
<g id="edge21" class="edge">
<title>Node1&#45;&gt;Node21</title>
<path fill="none" stroke="midnightblue" d="M148.24,-211.79C160.95,-210.54 174.22,-209.23 187.12,-207.96"/>
<polygon fill="midnightblue" stroke="midnightblue" points="187.75,-211.42 197.36,-206.95 187.07,-204.45 187.75,-211.42"/>
</g>
<!-- Node22 -->
<g id="node22" class="node">
<title>Node22</title>
<g id="a_node22"><a xlink:href="classSettings.html#a0c1e9abe929b1597f5e4f8730334c616" target="_top" xlink:title="Возвращает флаг звуков [On, Off].">
<polygon fill="none" stroke="black" points="204.5,-152.5 204.5,-171.5 333.5,-171.5 333.5,-152.5 204.5,-152.5"/>
<text text-anchor="middle" x="269" y="-159.5" font-family="Helvetica,sans-Serif" font-size="10.00">Settings::getSoundFlag</text>
</a>
</g>
</g>
<!-- Node1&#45;&gt;Node22 -->
<g id="edge22" class="edge">
<title>Node1&#45;&gt;Node22</title>
<path fill="none" stroke="midnightblue" d="M99.85,-209.43C121.78,-201.21 154.72,-189.39 184,-181 192.87,-178.46 202.34,-176.04 211.61,-173.83"/>
<polygon fill="midnightblue" stroke="midnightblue" points="212.6,-177.2 221.55,-171.52 211.02,-170.38 212.6,-177.2"/>
</g>
<!-- Node23 -->
<g id="node23" class="node">
<title>Node23</title>
<g id="a_node23"><a xlink:href="classSettings.html#a5b139a8de1c25906e1cc618e2834956f" target="_top" xlink:title="Возвращает значение громкости звуков">
<polygon fill="none" stroke="black" points="196.5,-114.5 196.5,-133.5 341.5,-133.5 341.5,-114.5 196.5,-114.5"/>
<text text-anchor="middle" x="269" y="-121.5" font-family="Helvetica,sans-Serif" font-size="10.00">Settings::getSoundVolume</text>
</a>
</g>
</g>
<!-- Node1&#45;&gt;Node23 -->
<g id="edge23" class="edge">
<title>Node1&#45;&gt;Node23</title>
<path fill="none" stroke="midnightblue" d="M85.59,-209.47C104.14,-193.29 144.32,-160.51 184,-143 189.75,-140.46 195.87,-138.25 202.08,-136.32"/>
<polygon fill="midnightblue" stroke="midnightblue" points="203.25,-139.63 211.9,-133.51 201.32,-132.9 203.25,-139.63"/>
</g>
<!-- Node24 -->
<g id="node24" class="node">
<title>Node24</title>
<g id="a_node24"><a xlink:href="classMainWindow.html#ac8e148d721ba666a05fe1422d14ebcd8" target="_top" xlink:title="Обработка нажатия на фигуру.">
<polygon fill="none" stroke="black" points="190,-305 190,-335 348,-335 348,-305 190,-305"/>
<text text-anchor="start" x="198" y="-323" font-family="Helvetica,sans-Serif" font-size="10.00">MainWindow::guiMousePress</text>
<text text-anchor="middle" x="269" y="-312" font-family="Helvetica,sans-Serif" font-size="10.00">Figure</text>
</a>
</g>
</g>
<!-- Node1&#45;&gt;Node24 -->
<g id="edge24" class="edge">
<title>Node1&#45;&gt;Node24</title>
<path fill="none" stroke="midnightblue" d="M86.02,-228.51C104.89,-244.35 145.14,-276.27 184,-295 188.88,-297.35 194.03,-299.54 199.28,-301.55"/>
<polygon fill="midnightblue" stroke="midnightblue" points="198.21,-304.88 208.8,-304.99 200.59,-298.3 198.21,-304.88"/>
</g>
<!-- Node27 -->
<g id="node27" class="node">
<title>Node27</title>
<g id="a_node27"><a xlink:href="classMainWindow.html#adf52446f5b40a6b0045d04ccca523242" target="_top" xlink:title="Обработка нажатия на фигуру.">
<polygon fill="none" stroke="black" points="191,-354.5 191,-373.5 347,-373.5 347,-354.5 191,-354.5"/>
<text text-anchor="middle" x="269" y="-361.5" font-family="Helvetica,sans-Serif" font-size="10.00">MainWindow::guiPressFigure</text>
</a>
</g>
</g>
<!-- Node1&#45;&gt;Node27 -->
<g id="edge28" class="edge">
<title>Node1&#45;&gt;Node27</title>
<path fill="none" stroke="midnightblue" d="M80.4,-228.73C94.22,-252.66 133.39,-314.66 184,-345 187.61,-347.16 191.43,-349.08 195.39,-350.78"/>
<polygon fill="midnightblue" stroke="midnightblue" points="194.23,-354.08 204.82,-354.36 196.71,-347.53 194.23,-354.08"/>
</g>
<!-- Node29 -->
<g id="node29" class="node">
<title>Node29</title>
<g id="a_node29"><a xlink:href="classScreenSettings.html#af175ef004e7bffb7796cb66a21338218" target="_top" xlink:title=" ">
<polygon fill="none" stroke="black" points="184,-76.5 184,-95.5 354,-95.5 354,-76.5 184,-76.5"/>
<text text-anchor="middle" x="269" y="-83.5" font-family="Helvetica,sans-Serif" font-size="10.00">ScreenSettings::setPlayersData</text>
</a>
</g>
</g>
<!-- Node1&#45;&gt;Node29 -->
<g id="edge33" class="edge">
<title>Node1&#45;&gt;Node29</title>
<path fill="none" stroke="midnightblue" d="M81.3,-209.23C96.22,-186.93 136.1,-132.12 184,-105 187.99,-102.74 192.22,-100.75 196.59,-99"/>
<polygon fill="midnightblue" stroke="midnightblue" points="198.08,-102.19 206.32,-95.53 195.72,-95.59 198.08,-102.19"/>
</g>
<!-- Node30 -->
<g id="node30" class="node">
<title>Node30</title>
<g id="a_node30"><a xlink:href="classMainWindow.html#a4195422fe1346c1aa9c640715dfe73cb" target="_top" xlink:title="Новая игра.">
<polygon fill="none" stroke="black" points="190,-38.5 190,-57.5 348,-57.5 348,-38.5 190,-38.5"/>
<text text-anchor="middle" x="269" y="-45.5" font-family="Helvetica,sans-Serif" font-size="10.00">MainWindow::startNewGame</text>
</a>
</g>
</g>
<!-- Node1&#45;&gt;Node30 -->
<g id="edge34" class="edge">
<title>Node1&#45;&gt;Node30</title>
<path fill="none" stroke="midnightblue" d="M78.95,-209.3C90.58,-182.08 127.44,-104.51 184,-67 187.11,-64.94 190.41,-63.1 193.84,-61.45"/>
<polygon fill="midnightblue" stroke="midnightblue" points="195.29,-64.64 203.16,-57.55 192.59,-58.18 195.29,-64.64"/>
</g>
<!-- Node34 -->
<g id="node34" class="node">
<title>Node34</title>
<g id="a_node34"><a xlink:href="classMainWindow.html#aaf47fc01862209102bc55bc5cca41ecb" target="_top" xlink:title="Менеджер окон, переключает QStacedWidget на тот виджет, номер которого ему передали.">
<polygon fill="none" stroke="black" points="184,-0.5 184,-19.5 354,-19.5 354,-0.5 184,-0.5"/>
<text text-anchor="middle" x="269" y="-7.5" font-family="Helvetica,sans-Serif" font-size="10.00">MainWindow::windowsManager</text>
</a>
</g>
</g>
<!-- Node1&#45;&gt;Node34 -->
<g id="edge38" class="edge">
<title>Node1&#45;&gt;Node34</title>
<path fill="none" stroke="midnightblue" d="M77.55,-209.24C86.35,-177.64 118.54,-77.35 184,-29 186.5,-27.15 189.16,-25.47 191.92,-23.96"/>
<polygon fill="midnightblue" stroke="midnightblue" points="193.51,-27.08 201.05,-19.64 190.52,-20.75 193.51,-27.08"/>
</g>
<!-- Node4 -->
<g id="node4" class="node">
<title>Node4</title>
<g id="a_node4"><a xlink:href="classEngine.html#acb6729165e26058f5dc442428f11b6be" target="_top" xlink:title="Проверка на конец игры.">
<polygon fill="none" stroke="black" points="446,-471.5 446,-490.5 528,-490.5 528,-471.5 446,-471.5"/>
<text text-anchor="middle" x="487" y="-478.5" font-family="Helvetica,sans-Serif" font-size="10.00">Engine::isEnd</text>
</a>
</g>
</g>
<!-- Node3&#45;&gt;Node4 -->
<g id="edge3" class="edge">
<title>Node3&#45;&gt;Node4</title>
<path fill="none" stroke="midnightblue" d="M328.68,-423.01C337.33,-425.92 346.01,-429.25 354,-433 371.41,-441.17 372.41,-449.22 390,-457 404.3,-463.32 420.56,-468.19 435.58,-471.82"/>
<polygon fill="midnightblue" stroke="midnightblue" points="435.22,-475.33 445.75,-474.15 436.78,-468.51 435.22,-475.33"/>
</g>
<!-- Node5 -->
<g id="node5" class="node">
<title>Node5</title>
<g id="a_node5"><a xlink:href="classEngine.html#a66f2b590d92c6e0fa99741f02a8a9a3f" target="_top" xlink:title="Проверяет возможность хода и перемещает фигуру.">
<polygon fill="none" stroke="black" points="653,-500.5 653,-519.5 736,-519.5 736,-500.5 653,-500.5"/>
<text text-anchor="middle" x="694.5" y="-507.5" font-family="Helvetica,sans-Serif" font-size="10.00">Engine::move</text>
</a>
</g>
</g>
<!-- Node3&#45;&gt;Node5 -->
<g id="edge4" class="edge">
<title>Node3&#45;&gt;Node5</title>
<path fill="none" stroke="midnightblue" d="M352.57,-419.88C430.61,-431.53 541.82,-449.33 584,-462 613.09,-470.74 644.71,-485.17 666.45,-495.93"/>
<polygon fill="midnightblue" stroke="midnightblue" points="664.91,-499.08 675.42,-500.44 668.06,-492.82 664.91,-499.08"/>
</g>
<!-- Node18 -->
<g id="node18" class="node">
<title>Node18</title>
<g id="a_node18"><a xlink:href="classScreenSettings.html#a94e16e8406ea736a376a0b50da01b869" target="_top" xlink:title="Проигрывает звук шага.">
<polygon fill="none" stroke="black" points="403,-395.5 403,-414.5 571,-414.5 571,-395.5 403,-395.5"/>
<text text-anchor="middle" x="487" y="-402.5" font-family="Helvetica,sans-Serif" font-size="10.00">ScreenSettings::playSoundStep</text>
</a>
</g>
</g>
<!-- Node3&#45;&gt;Node18 -->
<g id="edge18" class="edge">
<title>Node3&#45;&gt;Node18</title>
<path fill="none" stroke="midnightblue" d="M352.58,-406.85C365.68,-406.67 379.31,-406.48 392.63,-406.3"/>
<polygon fill="midnightblue" stroke="midnightblue" points="392.8,-409.79 402.75,-406.16 392.7,-402.8 392.8,-409.79"/>
</g>
<!-- Node6 -->
<g id="node6" class="node">
<title>Node6</title>
<g id="a_node6"><a xlink:href="classEngine.html#a2b384a18565b9cdd85b52fed6d25ff0c" target="_top" xlink:title="Расчет преимущества игрока.">
<polygon fill="none" stroke="black" points="805,-577 805,-607 957,-607 957,-577 805,-577"/>
<text text-anchor="start" x="813" y="-595" font-family="Helvetica,sans-Serif" font-size="10.00">Engine::calculateAdvantage</text>
<text text-anchor="middle" x="881" y="-584" font-family="Helvetica,sans-Serif" font-size="10.00">White</text>
</a>
</g>
</g>
<!-- Node5&#45;&gt;Node6 -->
<g id="edge5" class="edge">
<title>Node5&#45;&gt;Node6</title>
<path fill="none" stroke="midnightblue" d="M711.8,-519.53C732.86,-531.59 770.86,-552.53 805,-567 810.34,-569.26 815.97,-571.46 821.63,-573.56"/>
<polygon fill="midnightblue" stroke="midnightblue" points="820.57,-576.89 831.17,-576.97 822.93,-570.3 820.57,-576.89"/>
</g>
<!-- Node9 -->
<g id="node9" class="node">
<title>Node9</title>
<g id="a_node9"><a xlink:href="classBoard.html#ab906dade3854d38f6354861a715fccac" target="_top" xlink:title="getBoo Возвращает доску.">
<polygon fill="none" stroke="black" points="1193,-446.5 1193,-465.5 1312,-465.5 1312,-446.5 1193,-446.5"/>
<text text-anchor="middle" x="1252.5" y="-453.5" font-family="Helvetica,sans-Serif" font-size="10.00">Board::getBoardData</text>
</a>
</g>
</g>
<!-- Node5&#45;&gt;Node9 -->
<g id="edge11" class="edge">
<title>Node5&#45;&gt;Node9</title>
<path fill="none" stroke="midnightblue" d="M701.42,-519.57C715.85,-541.83 755.28,-596.74 805,-617 830.9,-627.55 1141.62,-622.88 1157,-614 1209.71,-583.58 1236.29,-511.02 1246.45,-475.82"/>
<polygon fill="midnightblue" stroke="midnightblue" points="1249.92,-476.37 1249.18,-465.81 1243.17,-474.53 1249.92,-476.37"/>
</g>
<!-- Node11 -->
<g id="node11" class="node">
<title>Node11</title>
<g id="a_node11"><a xlink:href="engine_8cpp.html#a0aedf9d17abf2bab41a04d5beb4f4988" target="_top" xlink:title=" ">
<polygon fill="none" stroke="black" points="820.5,-538.5 820.5,-557.5 941.5,-557.5 941.5,-538.5 820.5,-538.5"/>
<text text-anchor="middle" x="881" y="-545.5" font-family="Helvetica,sans-Serif" font-size="10.00">checkStepOnPossible</text>
</a>
</g>
</g>
<!-- Node5&#45;&gt;Node11 -->
<g id="edge10" class="edge">
<title>Node5&#45;&gt;Node11</title>
<path fill="none" stroke="midnightblue" d="M736.45,-518.43C762.07,-523.71 795.44,-530.58 823.55,-536.37"/>
<polygon fill="midnightblue" stroke="midnightblue" points="823.15,-539.86 833.65,-538.45 824.56,-533.01 823.15,-539.86"/>
</g>
<!-- Node12 -->
<g id="node12" class="node">
<title>Node12</title>
<g id="a_node12"><a xlink:href="classFigure.html#af27c0f2d5fe69cb9eb17380d3ba91d6a" target="_top" xlink:title="Получение цвета фигуры.">
<polygon fill="none" stroke="black" points="834,-500.5 834,-519.5 928,-519.5 928,-500.5 834,-500.5"/>
<text text-anchor="middle" x="881" y="-507.5" font-family="Helvetica,sans-Serif" font-size="10.00">Figure::getColor</text>
</a>
</g>
</g>
<!-- Node5&#45;&gt;Node12 -->
<g id="edge12" class="edge">
<title>Node5&#45;&gt;Node12</title>
<path fill="none" stroke="midnightblue" d="M736.45,-510C762.16,-510 795.68,-510 823.86,-510"/>
<polygon fill="midnightblue" stroke="midnightblue" points="823.98,-513.5 833.98,-510 823.98,-506.5 823.98,-513.5"/>
</g>
<!-- Node13 -->
<g id="node13" class="node">
<title>Node13</title>
<g id="a_node13"><a xlink:href="classBoard.html#a0bac43a8a2fc2aabc7e687eeedbe9f9e" target="_top" xlink:title="Возвращает фигуру, которая находится в ячейке поля с координатами coords.">
<polygon fill="none" stroke="black" points="832.5,-462.5 832.5,-481.5 929.5,-481.5 929.5,-462.5 832.5,-462.5"/>
<text text-anchor="middle" x="881" y="-469.5" font-family="Helvetica,sans-Serif" font-size="10.00">Board::getFigure</text>
</a>
</g>
</g>
<!-- Node5&#45;&gt;Node13 -->
<g id="edge13" class="edge">
<title>Node5&#45;&gt;Node13</title>
<path fill="none" stroke="midnightblue" d="M736.45,-501.57C762.07,-496.29 795.44,-489.42 823.55,-483.63"/>
<polygon fill="midnightblue" stroke="midnightblue" points="824.56,-486.99 833.65,-481.55 823.15,-480.14 824.56,-486.99"/>
</g>
<!-- Node14 -->
<g id="node14" class="node">
<title>Node14</title>
<g id="a_node14"><a xlink:href="classFigure.html#a12d36f015da3026f980f87a93210885a" target="_top" xlink:title="Получение возможных ходов атаки.">
<polygon fill="none" stroke="black" points="808,-424.5 808,-443.5 954,-443.5 954,-424.5 808,-424.5"/>
<text text-anchor="middle" x="881" y="-431.5" font-family="Helvetica,sans-Serif" font-size="10.00">Figure::getPossibleAttacks</text>
</a>
</g>
</g>
<!-- Node5&#45;&gt;Node14 -->
<g id="edge14" class="edge">
<title>Node5&#45;&gt;Node14</title>
<path fill="none" stroke="midnightblue" d="M711.28,-500.29C732.09,-487.84 770.15,-466.28 805,-453 811.41,-450.56 818.25,-448.33 825.08,-446.34"/>
<polygon fill="midnightblue" stroke="midnightblue" points="826.35,-449.62 835.05,-443.58 824.48,-442.87 826.35,-449.62"/>
</g>
<!-- Node15 -->
<g id="node15" class="node">
<title>Node15</title>
<g id="a_node15"><a xlink:href="classFigure.html#ac527b099db89b98b705eb74bed96c147" target="_top" xlink:title="Получение возможных ходов перемещения.">
<polygon fill="none" stroke="black" points="810.5,-386.5 810.5,-405.5 951.5,-405.5 951.5,-386.5 810.5,-386.5"/>
<text text-anchor="middle" x="881" y="-393.5" font-family="Helvetica,sans-Serif" font-size="10.00">Figure::getPossibleMoves</text>
</a>
</g>
</g>
<!-- Node5&#45;&gt;Node15 -->
<g id="edge15" class="edge">
<title>Node5&#45;&gt;Node15</title>
<path fill="none" stroke="midnightblue" d="M703.78,-500.26C720.74,-480.95 761.5,-437.72 805,-415 809.5,-412.65 814.3,-410.58 819.22,-408.76"/>
<polygon fill="midnightblue" stroke="midnightblue" points="820.42,-412.05 828.78,-405.55 818.19,-405.41 820.42,-412.05"/>
</g>
<!-- Node16 -->
<g id="node16" class="node">
<title>Node16</title>
<g id="a_node16"><a xlink:href="classFigure.html#aad86c6d796ac96d30f2a310c107fdbac" target="_top" xlink:title="Получение элементарных ходов.">
<polygon fill="none" stroke="black" points="818.5,-702.5 818.5,-721.5 943.5,-721.5 943.5,-702.5 818.5,-702.5"/>
<text text-anchor="middle" x="881" y="-709.5" font-family="Helvetica,sans-Serif" font-size="10.00">Figure::getUnarySteps</text>
</a>
</g>
</g>
<!-- Node5&#45;&gt;Node16 -->
<g id="edge16" class="edge">
<title>Node5&#45;&gt;Node16</title>
<path fill="none" stroke="midnightblue" d="M698.38,-519.77C707.94,-550.5 741.74,-645.91 805,-693 807.51,-694.86 810.17,-696.55 812.96,-698.07"/>
<polygon fill="midnightblue" stroke="midnightblue" points="811.62,-701.31 822.16,-702.38 814.59,-694.97 811.62,-701.31"/>
</g>
<!-- Node17 -->
<g id="node17" class="node">
<title>Node17</title>
<g id="a_node17"><a xlink:href="classBoard.html#a4ed8cf3fae283d3c88eb6b0dea9e9f0a" target="_top" xlink:title="Перемещает фигуру в board.">
<polygon fill="none" stroke="black" points="841.5,-664.5 841.5,-683.5 920.5,-683.5 920.5,-664.5 841.5,-664.5"/>
<text text-anchor="middle" x="881" y="-671.5" font-family="Helvetica,sans-Serif" font-size="10.00">Board::move</text>
</a>
</g>
</g>
<!-- Node5&#45;&gt;Node17 -->
<g id="edge17" class="edge">
<title>Node5&#45;&gt;Node17</title>
<path fill="none" stroke="midnightblue" d="M700.43,-519.78C713.72,-545.16 752.84,-613.67 805,-650 812.99,-655.57 822.35,-659.89 831.68,-663.24"/>
<polygon fill="midnightblue" stroke="midnightblue" points="830.76,-666.62 841.35,-666.38 832.92,-659.96 830.76,-666.62"/>
</g>
<!-- Node7 -->
<g id="node7" class="node">
<title>Node7</title>
<g id="a_node7"><a xlink:href="classEngine.html#a93442cf58f7239df6e2b5303b7b90cda" target="_top" xlink:title="Количество противников, которые находятся под атакой.">
<polygon fill="none" stroke="black" points="1000,-585.5 1000,-604.5 1150,-604.5 1150,-585.5 1000,-585.5"/>
<text text-anchor="middle" x="1075" y="-592.5" font-family="Helvetica,sans-Serif" font-size="10.00">Engine::enemyUnderAttack</text>
</a>
</g>
</g>
<!-- Node6&#45;&gt;Node7 -->
<g id="edge6" class="edge">
<title>Node6&#45;&gt;Node7</title>
<path fill="none" stroke="midnightblue" d="M957.06,-593.17C967.74,-593.34 978.78,-593.51 989.62,-593.68"/>
<polygon fill="midnightblue" stroke="midnightblue" points="989.89,-597.19 999.94,-593.84 990,-590.19 989.89,-597.19"/>
</g>
<!-- Node8 -->
<g id="node8" class="node">
<title>Node8</title>
<g id="a_node8"><a xlink:href="classEngine.html#af2c8028ccaf85425744ad55844765fac" target="_top" xlink:title="getData возвращает поле.">
<polygon fill="none" stroke="black" points="1027.5,-547.5 1027.5,-566.5 1122.5,-566.5 1122.5,-547.5 1027.5,-547.5"/>
<text text-anchor="middle" x="1075" y="-554.5" font-family="Helvetica,sans-Serif" font-size="10.00">Engine::getData</text>
</a>
</g>
</g>
<!-- Node6&#45;&gt;Node8 -->
<g id="edge7" class="edge">
<title>Node6&#45;&gt;Node8</title>
<path fill="none" stroke="midnightblue" d="M957.06,-578.32C977.12,-574.66 998.46,-570.77 1017.34,-567.33"/>
<polygon fill="midnightblue" stroke="midnightblue" points="1018.06,-570.76 1027.27,-565.52 1016.8,-563.87 1018.06,-570.76"/>
</g>
<!-- Node10 -->
<g id="node10" class="node">
<title>Node10</title>
<g id="a_node10"><a xlink:href="classEngine.html#a9154a3995005939adcc56d46d8bd78b0" target="_top" xlink:title="Количество возможных ходов.">
<polygon fill="none" stroke="black" points="993,-509.5 993,-528.5 1157,-528.5 1157,-509.5 993,-509.5"/>
<text text-anchor="middle" x="1075" y="-516.5" font-family="Helvetica,sans-Serif" font-size="10.00">Engine::quantityPossibleMove</text>
</a>
</g>
</g>
<!-- Node6&#45;&gt;Node10 -->
<g id="edge9" class="edge">
<title>Node6&#45;&gt;Node10</title>
<path fill="none" stroke="midnightblue" d="M935.05,-576.96C942.61,-574.07 950.13,-570.75 957,-567 975.03,-557.15 974.54,-547.02 993,-538 997.95,-535.58 1003.22,-533.47 1008.61,-531.61"/>
<polygon fill="midnightblue" stroke="midnightblue" points="1009.89,-534.88 1018.39,-528.55 1007.8,-528.2 1009.89,-534.88"/>
</g>
<!-- Node8&#45;&gt;Node9 -->
<g id="edge8" class="edge">
<title>Node8&#45;&gt;Node9</title>
<path fill="none" stroke="midnightblue" d="M1122.78,-550.07C1134.35,-547.28 1146.45,-543.39 1157,-538 1189.18,-521.55 1219.45,-491.85 1236.7,-473.06"/>
<polygon fill="midnightblue" stroke="midnightblue" points="1239.39,-475.3 1243.46,-465.52 1234.18,-470.63 1239.39,-475.3"/>
</g>
<!-- Node25 -->
<g id="node25" class="node">
<title>Node25</title>
<g id="a_node25"><a xlink:href="classEngine.html#afffac825472b73103b32f2d3e4555267" target="_top" xlink:title="Возможные атаки для фигуры.">
<polygon fill="none" stroke="black" points="415.5,-305 415.5,-335 558.5,-335 558.5,-305 415.5,-305"/>
<text text-anchor="start" x="423.5" y="-323" font-family="Helvetica,sans-Serif" font-size="10.00">Engine::getPosibleAttacks</text>
<text text-anchor="middle" x="487" y="-312" font-family="Helvetica,sans-Serif" font-size="10.00">FigureFrom</text>
</a>
</g>
</g>
<!-- Node24&#45;&gt;Node25 -->
<g id="edge25" class="edge">
<title>Node24&#45;&gt;Node25</title>
<path fill="none" stroke="midnightblue" d="M348.29,-320C366.72,-320 386.42,-320 404.97,-320"/>
<polygon fill="midnightblue" stroke="midnightblue" points="405.15,-323.5 415.15,-320 405.15,-316.5 405.15,-323.5"/>
</g>
<!-- Node25&#45;&gt;Node9 -->
<g id="edge27" class="edge">
<title>Node25&#45;&gt;Node9</title>
<path fill="none" stroke="midnightblue" d="M558.68,-312.7C684.44,-302.59 952.99,-294.15 1157,-379 1189.2,-392.39 1219.09,-420.44 1236.32,-438.73"/>
<polygon fill="midnightblue" stroke="midnightblue" points="1233.96,-441.35 1243.3,-446.36 1239.13,-436.62 1233.96,-441.35"/>
</g>
<!-- Node26 -->
<g id="node26" class="node">
<title>Node26</title>
<g id="a_node26"><a xlink:href="classBoard.html#ac3f85f5b615feede6ea32745632203dd" target="_top" xlink:title="Определение фигуры после перемещения.">
<polygon fill="none" stroke="black" points="620,-261 620,-291 769,-291 769,-261 620,-261"/>
<text text-anchor="start" x="628" y="-279" font-family="Helvetica,sans-Serif" font-size="10.00">Board::calculateFigureAfter</text>
<text text-anchor="middle" x="694.5" y="-268" font-family="Helvetica,sans-Serif" font-size="10.00">Taking</text>
</a>
</g>
</g>
<!-- Node25&#45;&gt;Node26 -->
<g id="edge26" class="edge">
<title>Node25&#45;&gt;Node26</title>
<path fill="none" stroke="midnightblue" d="M558.15,-304.98C575.9,-301.18 595.11,-297.07 613.32,-293.17"/>
<polygon fill="midnightblue" stroke="midnightblue" points="614.28,-296.54 623.32,-291.03 612.81,-289.7 614.28,-296.54"/>
</g>
<!-- Node27&#45;&gt;Node25 -->
<g id="edge29" class="edge">
<title>Node27&#45;&gt;Node25</title>
<path fill="none" stroke="midnightblue" d="M316.87,-354.45C342.73,-349.18 375.57,-342.5 405.41,-336.42"/>
<polygon fill="midnightblue" stroke="midnightblue" points="406.3,-339.81 415.4,-334.38 404.91,-332.95 406.3,-339.81"/>
</g>
<!-- Node28 -->
<g id="node28" class="node">
<title>Node28</title>
<g id="a_node28"><a xlink:href="classEngine.html#ab4b084189c3f29e30a3a44ac0d5ed6b3" target="_top" xlink:title="Возможные ходы для фигуры.">
<polygon fill="none" stroke="black" points="390,-354.5 390,-373.5 584,-373.5 584,-354.5 390,-354.5"/>
<text text-anchor="middle" x="487" y="-361.5" font-family="Helvetica,sans-Serif" font-size="10.00">Engine::getPosibleMovesFigureFrom</text>
</a>
</g>
</g>
<!-- Node27&#45;&gt;Node28 -->
<g id="edge30" class="edge">
<title>Node27&#45;&gt;Node28</title>
<path fill="none" stroke="midnightblue" d="M347.07,-364C357.64,-364 368.65,-364 379.63,-364"/>
<polygon fill="midnightblue" stroke="midnightblue" points="379.7,-367.5 389.7,-364 379.7,-360.5 379.7,-367.5"/>
</g>
<!-- Node28&#45;&gt;Node5 -->
<g id="edge32" class="edge">
<title>Node28&#45;&gt;Node5</title>
<path fill="none" stroke="midnightblue" d="M554.64,-373.57C564.89,-376.63 575.03,-380.67 584,-386 629.05,-412.78 665.51,-464.39 682.74,-491.82"/>
<polygon fill="midnightblue" stroke="midnightblue" points="679.81,-493.73 688.02,-500.44 685.78,-490.08 679.81,-493.73"/>
</g>
<!-- Node28&#45;&gt;Node9 -->
<g id="edge31" class="edge">
<title>Node28&#45;&gt;Node9</title>
<path fill="none" stroke="midnightblue" d="M584.23,-360.12C679.43,-357.82 829.05,-358.33 957,-377 1051.68,-390.82 1159.47,-424.5 1214.66,-443.12"/>
<polygon fill="midnightblue" stroke="midnightblue" points="1213.75,-446.5 1224.34,-446.41 1216,-439.87 1213.75,-446.5"/>
</g>
<!-- Node31 -->
<g id="node31" class="node">
<title>Node31</title>
<g id="a_node31"><a xlink:href="classEngine.html#a9027b51e4922e147b8ae3b50348c69af" target="_top" xlink:title="Базовая расстановка фигур на поле.">
<polygon fill="none" stroke="black" points="400.5,-38.5 400.5,-57.5 573.5,-57.5 573.5,-38.5 400.5,-38.5"/>
<text text-anchor="middle" x="487" y="-45.5" font-family="Helvetica,sans-Serif" font-size="10.00">Engine::setStartingArrangement</text>
</a>
</g>
</g>
<!-- Node30&#45;&gt;Node31 -->
<g id="edge35" class="edge">
<title>Node30&#45;&gt;Node31</title>
<path fill="none" stroke="midnightblue" d="M348.29,-48C361.89,-48 376.17,-48 390.18,-48"/>
<polygon fill="midnightblue" stroke="midnightblue" points="390.31,-51.5 400.31,-48 390.31,-44.5 390.31,-51.5"/>
</g>
<!-- Node32 -->
<g id="node32" class="node">
<title>Node32</title>
<g id="a_node32"><a xlink:href="classBoard.html#af74f0d4b43e5aa3faea16d7c6407b05e" target="_top" xlink:title="clear Очищает доску.">
<polygon fill="none" stroke="black" points="657,-57.5 657,-76.5 732,-76.5 732,-57.5 657,-57.5"/>
<text text-anchor="middle" x="694.5" y="-64.5" font-family="Helvetica,sans-Serif" font-size="10.00">Board::clear</text>
</a>
</g>
</g>
<!-- Node31&#45;&gt;Node32 -->
<g id="edge36" class="edge">
<title>Node31&#45;&gt;Node32</title>
<path fill="none" stroke="midnightblue" d="M573.66,-55.92C598.65,-58.23 625.02,-60.67 646.65,-62.67"/>
<polygon fill="midnightblue" stroke="midnightblue" points="646.57,-66.18 656.85,-63.61 647.22,-59.21 646.57,-66.18"/>
</g>
<!-- Node33 -->
<g id="node33" class="node">
<title>Node33</title>
<g id="a_node33"><a xlink:href="classBoard.html#a183ac960c959ed0df9b49314d0479703" target="_top" xlink:title="Устанавливает фигуру на доску.">
<polygon fill="none" stroke="black" points="639.5,-19.5 639.5,-38.5 749.5,-38.5 749.5,-19.5 639.5,-19.5"/>
<text text-anchor="middle" x="694.5" y="-26.5" font-family="Helvetica,sans-Serif" font-size="10.00">Board::setFigureOn</text>
</a>
</g>
</g>
<!-- Node31&#45;&gt;Node33 -->
<g id="edge37" class="edge">
<title>Node31&#45;&gt;Node33</title>
<path fill="none" stroke="midnightblue" d="M573.66,-40.08C592.26,-38.36 611.62,-36.57 629.23,-34.94"/>
<polygon fill="midnightblue" stroke="midnightblue" points="629.73,-38.41 639.37,-34 629.09,-31.44 629.73,-38.41"/>
</g>
</g>
</svg>
