<?xml version="1.0" encoding="UTF-8" standalone="no"?>
<!DOCTYPE svg PUBLIC "-//W3C//DTD SVG 1.1//EN"
 "http://www.w3.org/Graphics/SVG/1.1/DTD/svg11.dtd">
<!-- Generated by graphviz version 2.43.0 (0)
 -->
<!-- Title: MainWindow::connectGuiMoveWithEngine Pages: 1 -->
<!--zoomable 408 -->
<svg id="main" version="1.1" xmlns="http://www.w3.org/2000/svg" xmlns:xlink="http://www.w3.org/1999/xlink" xml:space="preserve" onload="init(evt)">
<style type="text/css"><![CDATA[
.edge:hover path { stroke: red; }
.edge:hover polygon { stroke: red; fill: red; }
]]></style>
<script type="text/javascript"><![CDATA[
var edges = document.getElementsByTagName('g');
if (edges && edges.length) {
  for (var i=0;i<edges.length;i++) {
    if (edges[i].id.substr(0,4)=='edge') {
      edges[i].setAttribute('class','edge');
    }
  }
}
]]></script>
        <defs>
                <circle id="rim" cx="0" cy="0" r="7"/>
                <circle id="rim2" cx="0" cy="0" r="3.5"/>
                <g id="zoomPlus">
                        <use xlink:href="#rim" fill="#404040">
                                <set attributeName="fill" to="#808080" begin="zoomplus.mouseover" end="zoomplus.mouseout"/>
                        </use>
                        <path d="M-4,0h8M0,-4v8" fill="none" stroke="white" stroke-width="1.5" pointer-events="none"/>
                </g>
                <g id="zoomMin">
                        <use xlink:href="#rim" fill="#404040">
                                <set attributeName="fill" to="#808080" begin="zoomminus.mouseover" end="zoomminus.mouseout"/>
                        </use>
                        <path d="M-4,0h8" fill="none" stroke="white" stroke-width="1.5" pointer-events="none"/>
                </g>
                <g id="dirArrow">
                        <path fill="none" stroke="white" stroke-width="1.5" d="M0,-3.0v7 M-2.5,-0.5L0,-3.0L2.5,-0.5"/>
                </g>
               <g id="resetDef">
                       <use xlink:href="#rim2" fill="#404040">
                               <set attributeName="fill" to="#808080" begin="reset.mouseover" end="reset.mouseout"/>
                       </use>
               </g>
        </defs>

<script type="text/javascript">
var viewWidth = 837;
var viewHeight = 408;
var sectionId = 'dynsection-3';
</script>
<script xlink:href="svgpan.js"/>
<svg id="graph" class="graph">
<g id="viewport">
<title>MainWindow::connectGuiMoveWithEngine</title>
<!-- Node1 -->
<g id="node1" class="node">
<title>Node1</title>
<g id="a_node1"><a xlink:title="Перемещение и окончание игры.">
<polygon fill="#bfbfbf" stroke="black" points="0,-166 0,-196 167,-196 167,-166 0,-166"/>
<text text-anchor="start" x="8" y="-184" font-family="Helvetica,sans-Serif" font-size="10.00">MainWindow::connectGuiMove</text>
<text text-anchor="middle" x="83.5" y="-173" font-family="Helvetica,sans-Serif" font-size="10.00">WithEngine</text>
</a>
</g>
</g>
<!-- Node2 -->
<g id="node2" class="node">
<title>Node2</title>
<g id="a_node2"><a xlink:href="classEngine.html#acb6729165e26058f5dc442428f11b6be" target="_top" xlink:title="Проверка на конец игры.">
<polygon fill="none" stroke="black" points="203.5,-190.5 203.5,-209.5 285.5,-209.5 285.5,-190.5 203.5,-190.5"/>
<text text-anchor="middle" x="244.5" y="-197.5" font-family="Helvetica,sans-Serif" font-size="10.00">Engine::isEnd</text>
</a>
</g>
</g>
<!-- Node1&#45;&gt;Node2 -->
<g id="edge1" class="edge">
<title>Node1&#45;&gt;Node2</title>
<path fill="none" stroke="midnightblue" d="M167.26,-190.89C176.07,-191.94 184.82,-192.99 193.09,-193.98"/>
<polygon fill="midnightblue" stroke="midnightblue" points="192.92,-197.48 203.27,-195.19 193.75,-190.53 192.92,-197.48"/>
</g>
<!-- Node3 -->
<g id="node3" class="node">
<title>Node3</title>
<g id="a_node3"><a xlink:href="classEngine.html#a66f2b590d92c6e0fa99741f02a8a9a3f" target="_top" xlink:title="Проверяет возможность хода и перемещает фигуру.">
<polygon fill="none" stroke="black" points="203,-152.5 203,-171.5 286,-171.5 286,-152.5 203,-152.5"/>
<text text-anchor="middle" x="244.5" y="-159.5" font-family="Helvetica,sans-Serif" font-size="10.00">Engine::move</text>
</a>
</g>
</g>
<!-- Node1&#45;&gt;Node3 -->
<g id="edge2" class="edge">
<title>Node1&#45;&gt;Node3</title>
<path fill="none" stroke="midnightblue" d="M167.26,-171.11C175.96,-170.07 184.61,-169.04 192.79,-168.06"/>
<polygon fill="midnightblue" stroke="midnightblue" points="193.35,-171.52 202.87,-166.86 192.52,-164.57 193.35,-171.52"/>
</g>
<!-- Node4 -->
<g id="node4" class="node">
<title>Node4</title>
<g id="a_node4"><a xlink:href="classEngine.html#a2b384a18565b9cdd85b52fed6d25ff0c" target="_top" xlink:title="Расчет преимущества игрока.">
<polygon fill="none" stroke="black" points="322,-321 322,-351 474,-351 474,-321 322,-321"/>
<text text-anchor="start" x="330" y="-339" font-family="Helvetica,sans-Serif" font-size="10.00">Engine::calculateAdvantage</text>
<text text-anchor="middle" x="398" y="-328" font-family="Helvetica,sans-Serif" font-size="10.00">White</text>
</a>
</g>
</g>
<!-- Node3&#45;&gt;Node4 -->
<g id="edge3" class="edge">
<title>Node3&#45;&gt;Node4</title>
<path fill="none" stroke="midnightblue" d="M273.69,-171.53C278.26,-174.04 282.6,-177.17 286,-181 319.85,-219.17 290.33,-250 322,-290 330.16,-300.3 341.3,-308.87 352.5,-315.71"/>
<polygon fill="midnightblue" stroke="midnightblue" points="351.02,-318.9 361.44,-320.83 354.5,-312.82 351.02,-318.9"/>
</g>
<!-- Node7 -->
<g id="node7" class="node">
<title>Node7</title>
<g id="a_node7"><a xlink:href="classBoard.html#ab906dade3854d38f6354861a715fccac" target="_top" xlink:title="getBoo Возвращает доску.">
<polygon fill="none" stroke="black" points="710,-304.5 710,-323.5 829,-323.5 829,-304.5 710,-304.5"/>
<text text-anchor="middle" x="769.5" y="-311.5" font-family="Helvetica,sans-Serif" font-size="10.00">Board::getBoardData</text>
</a>
</g>
</g>
<!-- Node3&#45;&gt;Node7 -->
<g id="edge9" class="edge">
<title>Node3&#45;&gt;Node7</title>
<path fill="none" stroke="midnightblue" d="M272.89,-171.66C277.65,-174.18 282.26,-177.27 286,-181 312.48,-207.38 291.54,-235.34 322,-257 386.13,-302.58 596.24,-283.01 674,-295 687.44,-297.07 701.88,-299.74 715.32,-302.43"/>
<polygon fill="midnightblue" stroke="midnightblue" points="714.87,-305.91 725.37,-304.47 716.26,-299.05 714.87,-305.91"/>
</g>
<!-- Node9 -->
<g id="node9" class="node">
<title>Node9</title>
<g id="a_node9"><a xlink:href="engine_8cpp.html#a0aedf9d17abf2bab41a04d5beb4f4988" target="_top" xlink:title=" ">
<polygon fill="none" stroke="black" points="337.5,-228.5 337.5,-247.5 458.5,-247.5 458.5,-228.5 337.5,-228.5"/>
<text text-anchor="middle" x="398" y="-235.5" font-family="Helvetica,sans-Serif" font-size="10.00">checkStepOnPossible</text>
</a>
</g>
</g>
<!-- Node3&#45;&gt;Node9 -->
<g id="edge8" class="edge">
<title>Node3&#45;&gt;Node9</title>
<path fill="none" stroke="midnightblue" d="M269.89,-171.64C275.41,-174.3 281.09,-177.45 286,-181 304.86,-194.62 301.93,-207.23 322,-219 325.72,-221.18 329.68,-223.11 333.76,-224.82"/>
<polygon fill="midnightblue" stroke="midnightblue" points="332.88,-228.22 343.47,-228.43 335.32,-221.66 332.88,-228.22"/>
</g>
<!-- Node10 -->
<g id="node10" class="node">
<title>Node10</title>
<g id="a_node10"><a xlink:href="classFigure.html#af27c0f2d5fe69cb9eb17380d3ba91d6a" target="_top" xlink:title="Получение цвета фигуры.">
<polygon fill="none" stroke="black" points="351,-190.5 351,-209.5 445,-209.5 445,-190.5 351,-190.5"/>
<text text-anchor="middle" x="398" y="-197.5" font-family="Helvetica,sans-Serif" font-size="10.00">Figure::getColor</text>
</a>
</g>
</g>
<!-- Node3&#45;&gt;Node10 -->
<g id="edge10" class="edge">
<title>Node3&#45;&gt;Node10</title>
<path fill="none" stroke="midnightblue" d="M283.73,-171.59C303.63,-176.58 328.16,-182.73 349.29,-188.03"/>
<polygon fill="midnightblue" stroke="midnightblue" points="348.49,-191.44 359.05,-190.48 350.2,-184.65 348.49,-191.44"/>
</g>
<!-- Node11 -->
<g id="node11" class="node">
<title>Node11</title>
<g id="a_node11"><a xlink:href="classBoard.html#a0bac43a8a2fc2aabc7e687eeedbe9f9e" target="_top" xlink:title="Возвращает фигуру, которая находится в ячейке поля с координатами coords.">
<polygon fill="none" stroke="black" points="349.5,-152.5 349.5,-171.5 446.5,-171.5 446.5,-152.5 349.5,-152.5"/>
<text text-anchor="middle" x="398" y="-159.5" font-family="Helvetica,sans-Serif" font-size="10.00">Board::getFigure</text>
</a>
</g>
</g>
<!-- Node3&#45;&gt;Node11 -->
<g id="edge11" class="edge">
<title>Node3&#45;&gt;Node11</title>
<path fill="none" stroke="midnightblue" d="M286.1,-162C302.36,-162 321.41,-162 339.08,-162"/>
<polygon fill="midnightblue" stroke="midnightblue" points="339.3,-165.5 349.3,-162 339.3,-158.5 339.3,-165.5"/>
</g>
<!-- Node12 -->
<g id="node12" class="node">
<title>Node12</title>
<g id="a_node12"><a xlink:href="classFigure.html#a12d36f015da3026f980f87a93210885a" target="_top" xlink:title="Получение возможных ходов атаки.">
<polygon fill="none" stroke="black" points="325,-114.5 325,-133.5 471,-133.5 471,-114.5 325,-114.5"/>
<text text-anchor="middle" x="398" y="-121.5" font-family="Helvetica,sans-Serif" font-size="10.00">Figure::getPossibleAttacks</text>
</a>
</g>
</g>
<!-- Node3&#45;&gt;Node12 -->
<g id="edge12" class="edge">
<title>Node3&#45;&gt;Node12</title>
<path fill="none" stroke="midnightblue" d="M283.73,-152.41C303.63,-147.42 328.16,-141.27 349.29,-135.97"/>
<polygon fill="midnightblue" stroke="midnightblue" points="350.2,-139.35 359.05,-133.52 348.49,-132.56 350.2,-139.35"/>
</g>
<!-- Node13 -->
<g id="node13" class="node">
<title>Node13</title>
<g id="a_node13"><a xlink:href="classFigure.html#ac527b099db89b98b705eb74bed96c147" target="_top" xlink:title="Получение возможных ходов перемещения.">
<polygon fill="none" stroke="black" points="327.5,-76.5 327.5,-95.5 468.5,-95.5 468.5,-76.5 327.5,-76.5"/>
<text text-anchor="middle" x="398" y="-83.5" font-family="Helvetica,sans-Serif" font-size="10.00">Figure::getPossibleMoves</text>
</a>
</g>
</g>
<!-- Node3&#45;&gt;Node13 -->
<g id="edge13" class="edge">
<title>Node3&#45;&gt;Node13</title>
<path fill="none" stroke="midnightblue" d="M255.53,-152.45C269.39,-139.77 295.68,-117.53 322,-105 327,-102.62 332.34,-100.51 337.78,-98.65"/>
<polygon fill="midnightblue" stroke="midnightblue" points="339.12,-101.9 347.61,-95.57 337.02,-95.22 339.12,-101.9"/>
</g>
<!-- Node14 -->
<g id="node14" class="node">
<title>Node14</title>
<g id="a_node14"><a xlink:href="classFigure.html#aad86c6d796ac96d30f2a310c107fdbac" target="_top" xlink:title="Получение элементарных ходов.">
<polygon fill="none" stroke="black" points="335.5,-38.5 335.5,-57.5 460.5,-57.5 460.5,-38.5 335.5,-38.5"/>
<text text-anchor="middle" x="398" y="-45.5" font-family="Helvetica,sans-Serif" font-size="10.00">Figure::getUnarySteps</text>
</a>
</g>
</g>
<!-- Node3&#45;&gt;Node14 -->
<g id="edge14" class="edge">
<title>Node3&#45;&gt;Node14</title>
<path fill="none" stroke="midnightblue" d="M250.38,-152.48C260.78,-133.19 287.07,-89.41 322,-67 325.34,-64.86 328.9,-62.96 332.6,-61.27"/>
<polygon fill="midnightblue" stroke="midnightblue" points="334.02,-64.47 342.01,-57.5 331.42,-57.97 334.02,-64.47"/>
</g>
<!-- Node15 -->
<g id="node15" class="node">
<title>Node15</title>
<g id="a_node15"><a xlink:href="classBoard.html#a4ed8cf3fae283d3c88eb6b0dea9e9f0a" target="_top" xlink:title="Перемещает фигуру в board.">
<polygon fill="none" stroke="black" points="358.5,-0.5 358.5,-19.5 437.5,-19.5 437.5,-0.5 358.5,-0.5"/>
<text text-anchor="middle" x="398" y="-7.5" font-family="Helvetica,sans-Serif" font-size="10.00">Board::move</text>
</a>
</g>
</g>
<!-- Node3&#45;&gt;Node15 -->
<g id="edge15" class="edge">
<title>Node3&#45;&gt;Node15</title>
<path fill="none" stroke="midnightblue" d="M248.22,-152.19C255.6,-127.43 278.48,-61.98 322,-29 329.71,-23.16 339.01,-19.1 348.4,-16.29"/>
<polygon fill="midnightblue" stroke="midnightblue" points="349.35,-19.66 358.16,-13.78 347.6,-12.88 349.35,-19.66"/>
</g>
<!-- Node5 -->
<g id="node5" class="node">
<title>Node5</title>
<g id="a_node5"><a xlink:href="classEngine.html#a93442cf58f7239df6e2b5303b7b90cda" target="_top" xlink:title="Количество противников, которые находятся под атакой.">
<polygon fill="none" stroke="black" points="517,-380.5 517,-399.5 667,-399.5 667,-380.5 517,-380.5"/>
<text text-anchor="middle" x="592" y="-387.5" font-family="Helvetica,sans-Serif" font-size="10.00">Engine::enemyUnderAttack</text>
</a>
</g>
</g>
<!-- Node4&#45;&gt;Node5 -->
<g id="edge4" class="edge">
<title>Node4&#45;&gt;Node5</title>
<path fill="none" stroke="midnightblue" d="M444.14,-351.08C464.2,-357.56 488.18,-365.01 510,-371 518.9,-373.44 528.4,-375.85 537.65,-378.09"/>
<polygon fill="midnightblue" stroke="midnightblue" points="537.01,-381.53 547.55,-380.44 538.63,-374.72 537.01,-381.53"/>
</g>
<!-- Node6 -->
<g id="node6" class="node">
<title>Node6</title>
<g id="a_node6"><a xlink:href="classEngine.html#af2c8028ccaf85425744ad55844765fac" target="_top" xlink:title="getData возвращает поле.">
<polygon fill="none" stroke="black" points="544.5,-342.5 544.5,-361.5 639.5,-361.5 639.5,-342.5 544.5,-342.5"/>
<text text-anchor="middle" x="592" y="-349.5" font-family="Helvetica,sans-Serif" font-size="10.00">Engine::getData</text>
</a>
</g>
</g>
<!-- Node4&#45;&gt;Node6 -->
<g id="edge5" class="edge">
<title>Node4&#45;&gt;Node6</title>
<path fill="none" stroke="midnightblue" d="M474.06,-342.25C494.02,-343.92 515.26,-345.69 534.08,-347.26"/>
<polygon fill="midnightblue" stroke="midnightblue" points="534.01,-350.76 544.27,-348.11 534.59,-343.79 534.01,-350.76"/>
</g>
<!-- Node8 -->
<g id="node8" class="node">
<title>Node8</title>
<g id="a_node8"><a xlink:href="classEngine.html#a9154a3995005939adcc56d46d8bd78b0" target="_top" xlink:title="Количество возможных ходов.">
<polygon fill="none" stroke="black" points="510,-304.5 510,-323.5 674,-323.5 674,-304.5 510,-304.5"/>
<text text-anchor="middle" x="592" y="-311.5" font-family="Helvetica,sans-Serif" font-size="10.00">Engine::quantityPossibleMove</text>
</a>
</g>
</g>
<!-- Node4&#45;&gt;Node8 -->
<g id="edge7" class="edge">
<title>Node4&#45;&gt;Node8</title>
<path fill="none" stroke="midnightblue" d="M474.06,-327.4C482.52,-326.43 491.22,-325.43 499.86,-324.44"/>
<polygon fill="midnightblue" stroke="midnightblue" points="500.43,-327.9 509.97,-323.29 499.63,-320.95 500.43,-327.9"/>
</g>
<!-- Node6&#45;&gt;Node7 -->
<g id="edge6" class="edge">
<title>Node6&#45;&gt;Node7</title>
<path fill="none" stroke="midnightblue" d="M637.29,-342.41C660.76,-337.33 689.78,-331.04 714.56,-325.68"/>
<polygon fill="midnightblue" stroke="midnightblue" points="715.5,-329.06 724.53,-323.52 714.02,-322.22 715.5,-329.06"/>
</g>
</g>
</svg>
        <g id="navigator" transform="translate(0 0)" fill="#404254">
                <rect fill="#f2f5e9" fill-opacity="0.5" stroke="#606060" stroke-width=".5" x="0" y="0" width="60" height="60"/>
                <use id="zoomplus" xlink:href="#zoomPlus" x="17" y="9" onmousedown="handleZoom(evt,'in')"/>
                <use id="zoomminus" xlink:href="#zoomMin" x="42" y="9" onmousedown="handleZoom(evt,'out')"/>
                <use id="reset" xlink:href="#resetDef" x="30" y="36" onmousedown="handleReset()"/>
                <g id="arrowUp" xlink:href="#dirArrow" transform="translate(30 24)" onmousedown="handlePan(0,-1)">
                  <use xlink:href="#rim" fill="#404040">
                        <set attributeName="fill" to="#808080" begin="arrowUp.mouseover" end="arrowUp.mouseout"/>
                  </use>
                  <path fill="none" stroke="white" stroke-width="1.5" d="M0,-3.0v7 M-2.5,-0.5L0,-3.0L2.5,-0.5"/>
                </g>
                <g id="arrowRight" xlink:href="#dirArrow" transform="rotate(90) translate(36 -43)" onmousedown="handlePan(1,0)">
                  <use xlink:href="#rim" fill="#404040">
                        <set attributeName="fill" to="#808080" begin="arrowRight.mouseover" end="arrowRight.mouseout"/>
                  </use>
                  <path fill="none" stroke="white" stroke-width="1.5" d="M0,-3.0v7 M-2.5,-0.5L0,-3.0L2.5,-0.5"/>
                </g>
                <g id="arrowDown" xlink:href="#dirArrow" transform="rotate(180) translate(-30 -48)" onmousedown="handlePan(0,1)">
                  <use xlink:href="#rim" fill="#404040">
                        <set attributeName="fill" to="#808080" begin="arrowDown.mouseover" end="arrowDown.mouseout"/>
                  </use>
                  <path fill="none" stroke="white" stroke-width="1.5" d="M0,-3.0v7 M-2.5,-0.5L0,-3.0L2.5,-0.5"/>
                </g>
                <g id="arrowLeft" xlink:href="#dirArrow" transform="rotate(270) translate(-36 17)" onmousedown="handlePan(-1,0)">
                  <use xlink:href="#rim" fill="#404040">
                        <set attributeName="fill" to="#808080" begin="arrowLeft.mouseover" end="arrowLeft.mouseout"/>
                  </use>
                  <path fill="none" stroke="white" stroke-width="1.5" d="M0,-3.0v7 M-2.5,-0.5L0,-3.0L2.5,-0.5"/>
                </g>
        </g>
        <svg viewBox="0 0 15 15" width="100%" height="30px" preserveAspectRatio="xMaxYMin meet">
         <g id="arrow_out" transform="scale(0.3 0.3)">
          <a xlink:href="classMainWindow_a85e58f13e52e2a2d01b0bbf87c1442e9_cgraph_org.svg" target="_base">
           <rect id="button" ry="5" rx="5" y="6" x="6" height="38" width="38"
                fill="#f2f5e9" fill-opacity="0.5" stroke="#606060" stroke-width="1.0"/>
           <path id="arrow"
             d="M 11.500037,31.436501 C 11.940474,20.09759 22.043105,11.32322 32.158766,21.979434 L 37.068811,17.246167 C 37.068811,17.246167 37.088388,32 37.088388,32 L 22.160133,31.978069 C 22.160133,31.978069 26.997745,27.140456 26.997745,27.140456 C 18.528582,18.264221 13.291696,25.230495 11.500037,31.436501 z"
             style="fill:#404040;"/>
          </a>
         </g>
        </svg>
</svg>
