<?xml version="1.0" encoding="UTF-8" standalone="no"?>
<!DOCTYPE svg PUBLIC "-//W3C//DTD SVG 1.1//EN"
 "http://www.w3.org/Graphics/SVG/1.1/DTD/svg11.dtd">
<!-- Generated by graphviz version 2.43.0 (0)
 -->
<!-- Title: Engine::move Pages: 1 -->
<svg width="273pt" height="218pt"
 viewBox="0.00 0.00 273.00 218.00" xmlns="http://www.w3.org/2000/svg" xmlns:xlink="http://www.w3.org/1999/xlink">
<g id="graph0" class="graph" transform="scale(1 1) rotate(0) translate(4 214)">
<title>Engine::move</title>
<!-- Node1 -->
<g id="node1" class="node">
<title>Node1</title>
<g id="a_node1"><a xlink:title="Проверяет возможность хода и перемещает фигуру.">
<polygon fill="#bfbfbf" stroke="black" points="0,-95.5 0,-114.5 83,-114.5 83,-95.5 0,-95.5"/>
<text text-anchor="middle" x="41.5" y="-102.5" font-family="Helvetica,sans-Serif" font-size="10.00">Engine::move</text>
</a>
</g>
</g>
<!-- Node2 -->
<g id="node2" class="node">
<title>Node2</title>
<g id="a_node2"><a xlink:href="classFigure.html#af27c0f2d5fe69cb9eb17380d3ba91d6a" target="_top" xlink:title="Получение цвета фигуры.">
<polygon fill="none" stroke="black" points="145,-190.5 145,-209.5 239,-209.5 239,-190.5 145,-190.5"/>
<text text-anchor="middle" x="192" y="-197.5" font-family="Helvetica,sans-Serif" font-size="10.00">Figure::getColor</text>
</a>
</g>
</g>
<!-- Node1&#45;&gt;Node2 -->
<g id="edge1" class="edge">
<title>Node1&#45;&gt;Node2</title>
<path fill="none" stroke="midnightblue" d="M49.36,-114.54C61.52,-130.72 88.46,-163.51 119,-181 124.03,-183.88 129.51,-186.34 135.12,-188.42"/>
<polygon fill="midnightblue" stroke="midnightblue" points="134.05,-191.76 144.64,-191.61 136.27,-185.12 134.05,-191.76"/>
</g>
<!-- Node3 -->
<g id="node3" class="node">
<title>Node3</title>
<g id="a_node3"><a xlink:href="classBoard.html#a0bac43a8a2fc2aabc7e687eeedbe9f9e" target="_top" xlink:title="Возвращает фигуру, которая находится в ячейке поля с координатами coords.">
<polygon fill="none" stroke="black" points="143.5,-152.5 143.5,-171.5 240.5,-171.5 240.5,-152.5 143.5,-152.5"/>
<text text-anchor="middle" x="192" y="-159.5" font-family="Helvetica,sans-Serif" font-size="10.00">Board::getFigure</text>
</a>
</g>
</g>
<!-- Node1&#45;&gt;Node3 -->
<g id="edge2" class="edge">
<title>Node1&#45;&gt;Node3</title>
<path fill="none" stroke="midnightblue" d="M59.37,-114.63C74.58,-123 97.76,-135.02 119,-143 125.42,-145.41 132.28,-147.64 139.11,-149.66"/>
<polygon fill="midnightblue" stroke="midnightblue" points="138.47,-153.12 149.05,-152.46 140.37,-146.38 138.47,-153.12"/>
</g>
<!-- Node4 -->
<g id="node4" class="node">
<title>Node4</title>
<g id="a_node4"><a xlink:href="classFigure.html#a7e8010799eaba0919bc3b68eff755db0" target="_top" xlink:title="Получение возможных ходов атаки.">
<polygon fill="none" stroke="black" points="119,-114.5 119,-133.5 265,-133.5 265,-114.5 119,-114.5"/>
<text text-anchor="middle" x="192" y="-121.5" font-family="Helvetica,sans-Serif" font-size="10.00">Figure::getPossibleAttacks</text>
</a>
</g>
</g>
<!-- Node1&#45;&gt;Node4 -->
<g id="edge3" class="edge">
<title>Node1&#45;&gt;Node4</title>
<path fill="none" stroke="midnightblue" d="M83.08,-110.19C91.13,-111.22 99.85,-112.34 108.72,-113.47"/>
<polygon fill="midnightblue" stroke="midnightblue" points="108.41,-116.96 118.78,-114.76 109.3,-110.02 108.41,-116.96"/>
</g>
<!-- Node5 -->
<g id="node5" class="node">
<title>Node5</title>
<g id="a_node5"><a xlink:href="classFigure.html#ab648751cbee093526d0d531c4f599d58" target="_top" xlink:title="Получение возможных ходов перемещения.">
<polygon fill="none" stroke="black" points="121.5,-76.5 121.5,-95.5 262.5,-95.5 262.5,-76.5 121.5,-76.5"/>
<text text-anchor="middle" x="192" y="-83.5" font-family="Helvetica,sans-Serif" font-size="10.00">Figure::getPossibleMoves</text>
</a>
</g>
</g>
<!-- Node1&#45;&gt;Node5 -->
<g id="edge4" class="edge">
<title>Node1&#45;&gt;Node5</title>
<path fill="none" stroke="midnightblue" d="M83.08,-99.81C91.87,-98.68 101.47,-97.46 111.19,-96.21"/>
<polygon fill="midnightblue" stroke="midnightblue" points="111.87,-99.65 121.34,-94.91 110.98,-92.71 111.87,-99.65"/>
</g>
<!-- Node6 -->
<g id="node6" class="node">
<title>Node6</title>
<g id="a_node6"><a xlink:href="classFigure.html#aad86c6d796ac96d30f2a310c107fdbac" target="_top" xlink:title="Получение элементарных ходов.">
<polygon fill="none" stroke="black" points="129.5,-38.5 129.5,-57.5 254.5,-57.5 254.5,-38.5 129.5,-38.5"/>
<text text-anchor="middle" x="192" y="-45.5" font-family="Helvetica,sans-Serif" font-size="10.00">Figure::getUnarySteps</text>
</a>
</g>
</g>
<!-- Node1&#45;&gt;Node6 -->
<g id="edge5" class="edge">
<title>Node1&#45;&gt;Node6</title>
<path fill="none" stroke="midnightblue" d="M59.37,-95.37C74.58,-87 97.76,-74.98 119,-67 125.42,-64.59 132.28,-62.36 139.11,-60.34"/>
<polygon fill="midnightblue" stroke="midnightblue" points="140.37,-63.62 149.05,-57.54 138.47,-56.88 140.37,-63.62"/>
</g>
<!-- Node7 -->
<g id="node7" class="node">
<title>Node7</title>
<g id="a_node7"><a xlink:href="classBoard.html#a4ed8cf3fae283d3c88eb6b0dea9e9f0a" target="_top" xlink:title="Перемещает фигуру в board.">
<polygon fill="none" stroke="black" points="152.5,-0.5 152.5,-19.5 231.5,-19.5 231.5,-0.5 152.5,-0.5"/>
<text text-anchor="middle" x="192" y="-7.5" font-family="Helvetica,sans-Serif" font-size="10.00">Board::move</text>
</a>
</g>
</g>
<!-- Node1&#45;&gt;Node7 -->
<g id="edge6" class="edge">
<title>Node1&#45;&gt;Node7</title>
<path fill="none" stroke="midnightblue" d="M49.36,-95.46C61.52,-79.28 88.46,-46.49 119,-29 126.18,-24.89 134.27,-21.65 142.36,-19.09"/>
<polygon fill="midnightblue" stroke="midnightblue" points="143.51,-22.41 152.18,-16.31 141.6,-15.67 143.51,-22.41"/>
</g>
</g>
</svg>
