<?xml version="1.0" encoding="UTF-8" standalone="no"?>
<!DOCTYPE svg PUBLIC "-//W3C//DTD SVG 1.1//EN"
 "http://www.w3.org/Graphics/SVG/1.1/DTD/svg11.dtd">
<!-- Generated by graphviz version 2.43.0 (0)
 -->
<!-- Title: MainWindow::guiPressFigure Pages: 1 -->
<svg width="1116pt" height="410pt"
 viewBox="0.00 0.00 1116.00 409.50" xmlns="http://www.w3.org/2000/svg" xmlns:xlink="http://www.w3.org/1999/xlink">
<g id="graph0" class="graph" transform="scale(1 1) rotate(0) translate(4 405.5)">
<title>MainWindow::guiPressFigure</title>
<!-- Node1 -->
<g id="node1" class="node">
<title>Node1</title>
<g id="a_node1"><a xlink:title=" ">
<polygon fill="#bfbfbf" stroke="black" points="0,-351.5 0,-370.5 156,-370.5 156,-351.5 0,-351.5"/>
<text text-anchor="middle" x="78" y="-358.5" font-family="Helvetica,sans-Serif" font-size="10.00">MainWindow::guiPressFigure</text>
</a>
</g>
</g>
<!-- Node2 -->
<g id="node2" class="node">
<title>Node2</title>
<g id="a_node2"><a xlink:href="classEngine.html#a1e903acaa795f37698ee562ea0ec22ce" target="_top" xlink:title=" ">
<polygon fill="none" stroke="black" points="422,-371 422,-401 565,-401 565,-371 422,-371"/>
<text text-anchor="start" x="430" y="-389" font-family="Helvetica,sans-Serif" font-size="10.00">Engine::getPosibleAttacks</text>
<text text-anchor="middle" x="493.5" y="-378" font-family="Helvetica,sans-Serif" font-size="10.00">FigureFrom</text>
</a>
</g>
</g>
<!-- Node1&#45;&gt;Node2 -->
<g id="edge1" class="edge">
<title>Node1&#45;&gt;Node2</title>
<path fill="none" stroke="midnightblue" d="M156.29,-365.67C229.07,-370.07 337.67,-376.64 411.6,-381.11"/>
<polygon fill="midnightblue" stroke="midnightblue" points="411.6,-384.62 421.8,-381.73 412.03,-377.63 411.6,-384.62"/>
</g>
<!-- Node4 -->
<g id="node4" class="node">
<title>Node4</title>
<g id="a_node4"><a xlink:href="classEngine.html#ab4b084189c3f29e30a3a44ac0d5ed6b3" target="_top" xlink:title=" ">
<polygon fill="none" stroke="black" points="192,-332.5 192,-351.5 386,-351.5 386,-332.5 192,-332.5"/>
<text text-anchor="middle" x="289" y="-339.5" font-family="Helvetica,sans-Serif" font-size="10.00">Engine::getPosibleMovesFigureFrom</text>
</a>
</g>
</g>
<!-- Node1&#45;&gt;Node4 -->
<g id="edge3" class="edge">
<title>Node1&#45;&gt;Node4</title>
<path fill="none" stroke="midnightblue" d="M156.23,-353.98C164.59,-353.22 173.2,-352.44 181.82,-351.65"/>
<polygon fill="midnightblue" stroke="midnightblue" points="182.29,-355.12 191.93,-350.73 181.66,-348.15 182.29,-355.12"/>
</g>
<!-- Node3 -->
<g id="node3" class="node">
<title>Node3</title>
<g id="a_node3"><a xlink:href="classBoard.html#ab906dade3854d38f6354861a715fccac" target="_top" xlink:title="getBoo Возвращает доску.">
<polygon fill="none" stroke="black" points="989,-332.5 989,-351.5 1108,-351.5 1108,-332.5 989,-332.5"/>
<text text-anchor="middle" x="1048.5" y="-339.5" font-family="Helvetica,sans-Serif" font-size="10.00">Board::getBoardData</text>
</a>
</g>
</g>
<!-- Node2&#45;&gt;Node3 -->
<g id="edge2" class="edge">
<title>Node2&#45;&gt;Node3</title>
<path fill="none" stroke="midnightblue" d="M565.35,-383.16C655.56,-379.14 816.17,-370.59 953,-356 961.36,-355.11 970.11,-354.02 978.77,-352.85"/>
<polygon fill="midnightblue" stroke="midnightblue" points="979.45,-356.29 988.87,-351.45 978.48,-349.36 979.45,-356.29"/>
</g>
<!-- Node4&#45;&gt;Node3 -->
<g id="edge4" class="edge">
<title>Node4&#45;&gt;Node3</title>
<path fill="none" stroke="midnightblue" d="M386.32,-342C541.47,-342 843.01,-342 978.57,-342"/>
<polygon fill="midnightblue" stroke="midnightblue" points="978.82,-345.5 988.82,-342 978.82,-338.5 978.82,-345.5"/>
</g>
<!-- Node5 -->
<g id="node5" class="node">
<title>Node5</title>
<g id="a_node5"><a xlink:href="classEngine.html#a66f2b590d92c6e0fa99741f02a8a9a3f" target="_top" xlink:title="Проверяет возможность хода и перемещает фигуру.">
<polygon fill="none" stroke="black" points="452,-152.5 452,-171.5 535,-171.5 535,-152.5 452,-152.5"/>
<text text-anchor="middle" x="493.5" y="-159.5" font-family="Helvetica,sans-Serif" font-size="10.00">Engine::move</text>
</a>
</g>
</g>
<!-- Node4&#45;&gt;Node5 -->
<g id="edge5" class="edge">
<title>Node4&#45;&gt;Node5</title>
<path fill="none" stroke="midnightblue" d="M300.89,-332.32C333.78,-303.08 432.42,-215.41 473.85,-178.58"/>
<polygon fill="midnightblue" stroke="midnightblue" points="476.41,-180.99 481.56,-171.73 471.76,-175.75 476.41,-180.99"/>
</g>
<!-- Node6 -->
<g id="node6" class="node">
<title>Node6</title>
<g id="a_node6"><a xlink:href="classEngine.html#a2b384a18565b9cdd85b52fed6d25ff0c" target="_top" xlink:title="Расчет преимущества игрока.">
<polygon fill="none" stroke="black" points="601,-267 601,-297 753,-297 753,-267 601,-267"/>
<text text-anchor="start" x="609" y="-285" font-family="Helvetica,sans-Serif" font-size="10.00">Engine::calculateAdvantage</text>
<text text-anchor="middle" x="677" y="-274" font-family="Helvetica,sans-Serif" font-size="10.00">White</text>
</a>
</g>
</g>
<!-- Node5&#45;&gt;Node6 -->
<g id="edge6" class="edge">
<title>Node5&#45;&gt;Node6</title>
<path fill="none" stroke="midnightblue" d="M502.9,-171.78C519.69,-190.77 559.41,-232.91 601,-257 604.67,-259.13 608.56,-261.11 612.54,-262.94"/>
<polygon fill="midnightblue" stroke="midnightblue" points="611.41,-266.26 621.98,-266.96 614.15,-259.82 611.41,-266.26"/>
</g>
<!-- Node10 -->
<g id="node10" class="node">
<title>Node10</title>
<g id="a_node10"><a xlink:href="engine_8cpp.html#a0aedf9d17abf2bab41a04d5beb4f4988" target="_top" xlink:title=" ">
<polygon fill="none" stroke="black" points="616.5,-228.5 616.5,-247.5 737.5,-247.5 737.5,-228.5 616.5,-228.5"/>
<text text-anchor="middle" x="677" y="-235.5" font-family="Helvetica,sans-Serif" font-size="10.00">checkStepOnPossible</text>
</a>
</g>
</g>
<!-- Node5&#45;&gt;Node10 -->
<g id="edge11" class="edge">
<title>Node5&#45;&gt;Node10</title>
<path fill="none" stroke="midnightblue" d="M509.46,-171.52C529.58,-183.97 566.78,-205.74 601,-219 607.31,-221.45 614.04,-223.67 620.79,-225.65"/>
<polygon fill="midnightblue" stroke="midnightblue" points="620.05,-229.08 630.63,-228.4 621.93,-222.34 620.05,-229.08"/>
</g>
<!-- Node11 -->
<g id="node11" class="node">
<title>Node11</title>
<g id="a_node11"><a xlink:href="classFigure.html#af27c0f2d5fe69cb9eb17380d3ba91d6a" target="_top" xlink:title="Получение цвета фигуры.">
<polygon fill="none" stroke="black" points="630,-190.5 630,-209.5 724,-209.5 724,-190.5 630,-190.5"/>
<text text-anchor="middle" x="677" y="-197.5" font-family="Helvetica,sans-Serif" font-size="10.00">Figure::getColor</text>
</a>
</g>
</g>
<!-- Node5&#45;&gt;Node11 -->
<g id="edge12" class="edge">
<title>Node5&#45;&gt;Node11</title>
<path fill="none" stroke="midnightblue" d="M535.23,-170.53C560.46,-175.81 593.18,-182.66 620.73,-188.43"/>
<polygon fill="midnightblue" stroke="midnightblue" points="620.12,-191.88 630.62,-190.5 621.55,-185.02 620.12,-191.88"/>
</g>
<!-- Node12 -->
<g id="node12" class="node">
<title>Node12</title>
<g id="a_node12"><a xlink:href="classBoard.html#a0bac43a8a2fc2aabc7e687eeedbe9f9e" target="_top" xlink:title="Возвращает фигуру, которая находится в ячейке поля с координатами coords.">
<polygon fill="none" stroke="black" points="628.5,-152.5 628.5,-171.5 725.5,-171.5 725.5,-152.5 628.5,-152.5"/>
<text text-anchor="middle" x="677" y="-159.5" font-family="Helvetica,sans-Serif" font-size="10.00">Board::getFigure</text>
</a>
</g>
</g>
<!-- Node5&#45;&gt;Node12 -->
<g id="edge13" class="edge">
<title>Node5&#45;&gt;Node12</title>
<path fill="none" stroke="midnightblue" d="M535.23,-162C559.7,-162 591.22,-162 618.23,-162"/>
<polygon fill="midnightblue" stroke="midnightblue" points="618.34,-165.5 628.34,-162 618.34,-158.5 618.34,-165.5"/>
</g>
<!-- Node13 -->
<g id="node13" class="node">
<title>Node13</title>
<g id="a_node13"><a xlink:href="classFigure.html#a12d36f015da3026f980f87a93210885a" target="_top" xlink:title="Получение возможных ходов атаки.">
<polygon fill="none" stroke="black" points="604,-114.5 604,-133.5 750,-133.5 750,-114.5 604,-114.5"/>
<text text-anchor="middle" x="677" y="-121.5" font-family="Helvetica,sans-Serif" font-size="10.00">Figure::getPossibleAttacks</text>
</a>
</g>
</g>
<!-- Node5&#45;&gt;Node13 -->
<g id="edge14" class="edge">
<title>Node5&#45;&gt;Node13</title>
<path fill="none" stroke="midnightblue" d="M535.23,-153.47C560.46,-148.19 593.18,-141.34 620.73,-135.57"/>
<polygon fill="midnightblue" stroke="midnightblue" points="621.55,-138.98 630.62,-133.5 620.12,-132.12 621.55,-138.98"/>
</g>
<!-- Node14 -->
<g id="node14" class="node">
<title>Node14</title>
<g id="a_node14"><a xlink:href="classFigure.html#ac527b099db89b98b705eb74bed96c147" target="_top" xlink:title="Получение возможных ходов перемещения.">
<polygon fill="none" stroke="black" points="606.5,-76.5 606.5,-95.5 747.5,-95.5 747.5,-76.5 606.5,-76.5"/>
<text text-anchor="middle" x="677" y="-83.5" font-family="Helvetica,sans-Serif" font-size="10.00">Figure::getPossibleMoves</text>
</a>
</g>
</g>
<!-- Node5&#45;&gt;Node14 -->
<g id="edge15" class="edge">
<title>Node5&#45;&gt;Node14</title>
<path fill="none" stroke="midnightblue" d="M509.46,-152.48C529.58,-140.03 566.78,-118.26 601,-105 607.31,-102.55 614.04,-100.33 620.79,-98.35"/>
<polygon fill="midnightblue" stroke="midnightblue" points="621.93,-101.66 630.63,-95.6 620.05,-94.92 621.93,-101.66"/>
</g>
<!-- Node15 -->
<g id="node15" class="node">
<title>Node15</title>
<g id="a_node15"><a xlink:href="classFigure.html#aad86c6d796ac96d30f2a310c107fdbac" target="_top" xlink:title="Получение элементарных ходов.">
<polygon fill="none" stroke="black" points="614.5,-38.5 614.5,-57.5 739.5,-57.5 739.5,-38.5 614.5,-38.5"/>
<text text-anchor="middle" x="677" y="-45.5" font-family="Helvetica,sans-Serif" font-size="10.00">Figure::getUnarySteps</text>
</a>
</g>
</g>
<!-- Node5&#45;&gt;Node15 -->
<g id="edge16" class="edge">
<title>Node5&#45;&gt;Node15</title>
<path fill="none" stroke="midnightblue" d="M502.49,-152.25C518.87,-132.92 558.33,-89.66 601,-67 605.3,-64.72 609.88,-62.7 614.58,-60.92"/>
<polygon fill="midnightblue" stroke="midnightblue" points="616.01,-64.13 624.34,-57.59 613.75,-57.51 616.01,-64.13"/>
</g>
<!-- Node16 -->
<g id="node16" class="node">
<title>Node16</title>
<g id="a_node16"><a xlink:href="classBoard.html#a4ed8cf3fae283d3c88eb6b0dea9e9f0a" target="_top" xlink:title="Перемещает фигуру в board.">
<polygon fill="none" stroke="black" points="637.5,-0.5 637.5,-19.5 716.5,-19.5 716.5,-0.5 637.5,-0.5"/>
<text text-anchor="middle" x="677" y="-7.5" font-family="Helvetica,sans-Serif" font-size="10.00">Board::move</text>
</a>
</g>
</g>
<!-- Node5&#45;&gt;Node16 -->
<g id="edge17" class="edge">
<title>Node5&#45;&gt;Node16</title>
<path fill="none" stroke="midnightblue" d="M499.42,-152.18C512.39,-127.36 550.01,-61.82 601,-29 608.96,-23.88 618.23,-20.13 627.47,-17.4"/>
<polygon fill="midnightblue" stroke="midnightblue" points="628.64,-20.71 637.44,-14.81 626.88,-13.94 628.64,-20.71"/>
</g>
<!-- Node7 -->
<g id="node7" class="node">
<title>Node7</title>
<g id="a_node7"><a xlink:href="classEngine.html#a93442cf58f7239df6e2b5303b7b90cda" target="_top" xlink:title=" ">
<polygon fill="none" stroke="black" points="796,-294.5 796,-313.5 946,-313.5 946,-294.5 796,-294.5"/>
<text text-anchor="middle" x="871" y="-301.5" font-family="Helvetica,sans-Serif" font-size="10.00">Engine::enemyUnderAttack</text>
</a>
</g>
</g>
<!-- Node6&#45;&gt;Node7 -->
<g id="edge7" class="edge">
<title>Node6&#45;&gt;Node7</title>
<path fill="none" stroke="midnightblue" d="M753.06,-290.6C763.85,-291.84 775.01,-293.12 785.96,-294.37"/>
<polygon fill="midnightblue" stroke="midnightblue" points="785.61,-297.85 795.94,-295.51 786.4,-290.9 785.61,-297.85"/>
</g>
<!-- Node8 -->
<g id="node8" class="node">
<title>Node8</title>
<g id="a_node8"><a xlink:href="classEngine.html#af2c8028ccaf85425744ad55844765fac" target="_top" xlink:title="getData возвращает поле.">
<polygon fill="none" stroke="black" points="823.5,-256.5 823.5,-275.5 918.5,-275.5 918.5,-256.5 823.5,-256.5"/>
<text text-anchor="middle" x="871" y="-263.5" font-family="Helvetica,sans-Serif" font-size="10.00">Engine::getData</text>
</a>
</g>
</g>
<!-- Node6&#45;&gt;Node8 -->
<g id="edge8" class="edge">
<title>Node6&#45;&gt;Node8</title>
<path fill="none" stroke="midnightblue" d="M753.06,-275.75C773.02,-274.08 794.26,-272.31 813.08,-270.74"/>
<polygon fill="midnightblue" stroke="midnightblue" points="813.59,-274.21 823.27,-269.89 813.01,-267.24 813.59,-274.21"/>
</g>
<!-- Node9 -->
<g id="node9" class="node">
<title>Node9</title>
<g id="a_node9"><a xlink:href="classEngine.html#a9154a3995005939adcc56d46d8bd78b0" target="_top" xlink:title=" ">
<polygon fill="none" stroke="black" points="789,-218.5 789,-237.5 953,-237.5 953,-218.5 789,-218.5"/>
<text text-anchor="middle" x="871" y="-225.5" font-family="Helvetica,sans-Serif" font-size="10.00">Engine::quantityPossibleMove</text>
</a>
</g>
</g>
<!-- Node6&#45;&gt;Node9 -->
<g id="edge10" class="edge">
<title>Node6&#45;&gt;Node9</title>
<path fill="none" stroke="midnightblue" d="M723.14,-266.92C743.2,-260.44 767.18,-252.99 789,-247 797.9,-244.56 807.4,-242.15 816.65,-239.91"/>
<polygon fill="midnightblue" stroke="midnightblue" points="817.63,-243.28 826.55,-237.56 816.01,-236.47 817.63,-243.28"/>
</g>
<!-- Node8&#45;&gt;Node3 -->
<g id="edge9" class="edge">
<title>Node8&#45;&gt;Node3</title>
<path fill="none" stroke="midnightblue" d="M918.61,-274.31C930.08,-277.07 942.16,-280.59 953,-285 979.69,-295.86 1007.63,-313.63 1026.15,-326.45"/>
<polygon fill="midnightblue" stroke="midnightblue" points="1024.24,-329.39 1034.43,-332.29 1028.28,-323.67 1024.24,-329.39"/>
</g>
</g>
</svg>
