<?xml version="1.0" encoding="UTF-8" standalone="no"?>
<!DOCTYPE svg PUBLIC "-//W3C//DTD SVG 1.1//EN"
 "http://www.w3.org/Graphics/SVG/1.1/DTD/svg11.dtd">
<!-- Generated by graphviz version 2.43.0 (0)
 -->
<!-- Title: Figure Pages: 1 -->
<svg width="587pt" height="303pt"
 viewBox="0.00 0.00 587.00 303.00" xmlns="http://www.w3.org/2000/svg" xmlns:xlink="http://www.w3.org/1999/xlink">
<g id="graph0" class="graph" transform="scale(1 1) rotate(0) translate(4 299)">
<title>Figure</title>
<!-- Node1 -->
<g id="node1" class="node">
<title>Node1</title>
<g id="a_node1"><a xlink:title="Абстрактный класс фигуры.">
<polygon fill="#bfbfbf" stroke="black" points="219,-116.5 219,-294.5 347,-294.5 347,-116.5 219,-116.5"/>
<text text-anchor="middle" x="283" y="-282.5" font-family="Helvetica,sans-Serif" font-size="10.00">Figure</text>
<polyline fill="none" stroke="black" points="219,-275.5 347,-275.5 "/>
<text text-anchor="start" x="227" y="-263.5" font-family="Helvetica,sans-Serif" font-size="10.00"># b_price</text>
<text text-anchor="start" x="227" y="-252.5" font-family="Helvetica,sans-Serif" font-size="10.00"># b_advantage_price</text>
<text text-anchor="start" x="227" y="-241.5" font-family="Helvetica,sans-Serif" font-size="10.00"># possible_moves</text>
<text text-anchor="start" x="227" y="-230.5" font-family="Helvetica,sans-Serif" font-size="10.00"># b_color</text>
<text text-anchor="start" x="227" y="-219.5" font-family="Helvetica,sans-Serif" font-size="10.00"># type_figure</text>
<polyline fill="none" stroke="black" points="219,-212.5 347,-212.5 "/>
<text text-anchor="start" x="227" y="-200.5" font-family="Helvetica,sans-Serif" font-size="10.00">+ Figure()</text>
<text text-anchor="start" x="227" y="-189.5" font-family="Helvetica,sans-Serif" font-size="10.00">+ getPrice()</text>
<text text-anchor="start" x="227" y="-178.5" font-family="Helvetica,sans-Serif" font-size="10.00">+ getPriceAdvantage()</text>
<text text-anchor="start" x="227" y="-167.5" font-family="Helvetica,sans-Serif" font-size="10.00">+ getUnarySteps()</text>
<text text-anchor="start" x="227" y="-156.5" font-family="Helvetica,sans-Serif" font-size="10.00">+ getPossibleMoves()</text>
<text text-anchor="start" x="227" y="-145.5" font-family="Helvetica,sans-Serif" font-size="10.00">+ getPossibleAttacks()</text>
<text text-anchor="start" x="227" y="-134.5" font-family="Helvetica,sans-Serif" font-size="10.00">+ getColor()</text>
<text text-anchor="start" x="227" y="-123.5" font-family="Helvetica,sans-Serif" font-size="10.00">+ getTypeFigure()</text>
</a>
</g>
</g>
<!-- Node2 -->
<g id="node2" class="node">
<title>Node2</title>
<g id="a_node2"><a xlink:href="classBishop.html" target="_top" xlink:title="Слон.">
<polygon fill="none" stroke="black" points="0,-11.5 0,-68.5 68,-68.5 68,-11.5 0,-11.5"/>
<text text-anchor="middle" x="34" y="-56.5" font-family="Helvetica,sans-Serif" font-size="10.00">Bishop</text>
<polyline fill="none" stroke="black" points="0,-49.5 68,-49.5 "/>
<text text-anchor="middle" x="34" y="-37.5" font-family="Helvetica,sans-Serif" font-size="10.00"> </text>
<polyline fill="none" stroke="black" points="0,-30.5 68,-30.5 "/>
<text text-anchor="start" x="8" y="-18.5" font-family="Helvetica,sans-Serif" font-size="10.00">+ Bishop()</text>
</a>
</g>
</g>
<!-- Node1&#45;&gt;Node2 -->
<g id="edge1" class="edge">
<title>Node1&#45;&gt;Node2</title>
<path fill="none" stroke="midnightblue" d="M210.03,-165C169.61,-141.99 119.15,-111.39 77,-80 72.31,-76.51 67.54,-72.6 62.97,-68.64"/>
<polygon fill="none" stroke="midnightblue" points="208.34,-168.06 218.76,-169.94 211.78,-161.96 208.34,-168.06"/>
</g>
<!-- Node3 -->
<g id="node3" class="node">
<title>Node3</title>
<g id="a_node3"><a xlink:href="classKing.html" target="_top" xlink:title="Король.">
<polygon fill="none" stroke="black" points="86.5,-11.5 86.5,-68.5 143.5,-68.5 143.5,-11.5 86.5,-11.5"/>
<text text-anchor="middle" x="115" y="-56.5" font-family="Helvetica,sans-Serif" font-size="10.00">King</text>
<polyline fill="none" stroke="black" points="86.5,-49.5 143.5,-49.5 "/>
<text text-anchor="middle" x="115" y="-37.5" font-family="Helvetica,sans-Serif" font-size="10.00"> </text>
<polyline fill="none" stroke="black" points="86.5,-30.5 143.5,-30.5 "/>
<text text-anchor="start" x="94.5" y="-18.5" font-family="Helvetica,sans-Serif" font-size="10.00">+ King()</text>
</a>
</g>
</g>
<!-- Node1&#45;&gt;Node3 -->
<g id="edge2" class="edge">
<title>Node1&#45;&gt;Node3</title>
<path fill="none" stroke="midnightblue" d="M211.35,-137.68C191.9,-119.2 170.98,-98.99 152,-80 148.44,-76.43 144.73,-72.64 141.1,-68.87"/>
<polygon fill="none" stroke="midnightblue" points="209.07,-140.34 218.73,-144.68 213.88,-135.26 209.07,-140.34"/>
</g>
<!-- Node4 -->
<g id="node4" class="node">
<title>Node4</title>
<g id="a_node4"><a xlink:href="classKnight.html" target="_top" xlink:title="Конь.">
<polygon fill="none" stroke="black" points="161.5,-6 161.5,-74 268.5,-74 268.5,-6 161.5,-6"/>
<text text-anchor="middle" x="215" y="-62" font-family="Helvetica,sans-Serif" font-size="10.00">Knight</text>
<polyline fill="none" stroke="black" points="161.5,-55 268.5,-55 "/>
<text text-anchor="middle" x="215" y="-43" font-family="Helvetica,sans-Serif" font-size="10.00"> </text>
<polyline fill="none" stroke="black" points="161.5,-36 268.5,-36 "/>
<text text-anchor="start" x="169.5" y="-24" font-family="Helvetica,sans-Serif" font-size="10.00">+ Knight()</text>
<text text-anchor="start" x="169.5" y="-13" font-family="Helvetica,sans-Serif" font-size="10.00">+ getUnarySteps()</text>
</a>
</g>
</g>
<!-- Node1&#45;&gt;Node4 -->
<g id="edge3" class="edge">
<title>Node1&#45;&gt;Node4</title>
<path fill="none" stroke="midnightblue" d="M242.32,-106.68C237.5,-95.1 232.87,-83.96 228.83,-74.25"/>
<polygon fill="none" stroke="midnightblue" points="239.14,-108.16 246.21,-116.05 245.61,-105.47 239.14,-108.16"/>
</g>
<!-- Node5 -->
<g id="node5" class="node">
<title>Node5</title>
<g id="a_node5"><a xlink:href="classPawn.html" target="_top" xlink:title="Пешка.">
<polygon fill="none" stroke="black" points="287,-0.5 287,-79.5 415,-79.5 415,-0.5 287,-0.5"/>
<text text-anchor="middle" x="351" y="-67.5" font-family="Helvetica,sans-Serif" font-size="10.00">Pawn</text>
<polyline fill="none" stroke="black" points="287,-60.5 415,-60.5 "/>
<text text-anchor="middle" x="351" y="-48.5" font-family="Helvetica,sans-Serif" font-size="10.00"> </text>
<polyline fill="none" stroke="black" points="287,-41.5 415,-41.5 "/>
<text text-anchor="start" x="295" y="-29.5" font-family="Helvetica,sans-Serif" font-size="10.00">+ Pawn()</text>
<text text-anchor="start" x="295" y="-18.5" font-family="Helvetica,sans-Serif" font-size="10.00">+ Pawn()</text>
<text text-anchor="start" x="295" y="-7.5" font-family="Helvetica,sans-Serif" font-size="10.00">+ getPossibleAttacks()</text>
</a>
</g>
</g>
<!-- Node1&#45;&gt;Node5 -->
<g id="edge4" class="edge">
<title>Node1&#45;&gt;Node5</title>
<path fill="none" stroke="midnightblue" d="M323.63,-106.81C327.6,-97.26 331.45,-88 334.95,-79.6"/>
<polygon fill="none" stroke="midnightblue" points="320.39,-105.47 319.79,-116.05 326.86,-108.16 320.39,-105.47"/>
</g>
<!-- Node6 -->
<g id="node6" class="node">
<title>Node6</title>
<g id="a_node6"><a xlink:href="classQueen.html" target="_top" xlink:title="Ферзь.">
<polygon fill="none" stroke="black" points="433.5,-11.5 433.5,-68.5 500.5,-68.5 500.5,-11.5 433.5,-11.5"/>
<text text-anchor="middle" x="467" y="-56.5" font-family="Helvetica,sans-Serif" font-size="10.00">Queen</text>
<polyline fill="none" stroke="black" points="433.5,-49.5 500.5,-49.5 "/>
<text text-anchor="middle" x="467" y="-37.5" font-family="Helvetica,sans-Serif" font-size="10.00"> </text>
<polyline fill="none" stroke="black" points="433.5,-30.5 500.5,-30.5 "/>
<text text-anchor="start" x="441.5" y="-18.5" font-family="Helvetica,sans-Serif" font-size="10.00">+ Queen()</text>
</a>
</g>
</g>
<!-- Node1&#45;&gt;Node6 -->
<g id="edge5" class="edge">
<title>Node1&#45;&gt;Node6</title>
<path fill="none" stroke="midnightblue" d="M354.8,-141.44C377.03,-121.81 401.58,-100.06 424,-80 428.06,-76.37 432.31,-72.54 436.51,-68.75"/>
<polygon fill="none" stroke="midnightblue" points="352.22,-139.04 347.03,-148.28 356.85,-144.29 352.22,-139.04"/>
</g>
<!-- Node7 -->
<g id="node7" class="node">
<title>Node7</title>
<g id="a_node7"><a xlink:href="classRook.html" target="_top" xlink:title="Ладья.">
<polygon fill="none" stroke="black" points="519,-11.5 519,-68.5 579,-68.5 579,-11.5 519,-11.5"/>
<text text-anchor="middle" x="549" y="-56.5" font-family="Helvetica,sans-Serif" font-size="10.00">Rook</text>
<polyline fill="none" stroke="black" points="519,-49.5 579,-49.5 "/>
<text text-anchor="middle" x="549" y="-37.5" font-family="Helvetica,sans-Serif" font-size="10.00"> </text>
<polyline fill="none" stroke="black" points="519,-30.5 579,-30.5 "/>
<text text-anchor="start" x="527" y="-18.5" font-family="Helvetica,sans-Serif" font-size="10.00">+ Rook()</text>
</a>
</g>
</g>
<!-- Node1&#45;&gt;Node7 -->
<g id="edge6" class="edge">
<title>Node1&#45;&gt;Node7</title>
<path fill="none" stroke="midnightblue" d="M356.12,-171.04C402.24,-148.36 461.96,-116.03 510,-80 514.6,-76.55 519.18,-72.58 523.51,-68.52"/>
<polygon fill="none" stroke="midnightblue" points="354.54,-167.92 347.08,-175.45 357.6,-174.21 354.54,-167.92"/>
</g>
</g>
</svg>
