<?xml version="1.0" encoding="UTF-8" standalone="no"?>
<!DOCTYPE svg PUBLIC "-//W3C//DTD SVG 1.1//EN"
 "http://www.w3.org/Graphics/SVG/1.1/DTD/svg11.dtd">
<!-- Generated by graphviz version 2.43.0 (0)
 -->
<!-- Title: MainWindow::MainWindow Pages: 1 -->
<svg width="1314pt" height="470pt"
 viewBox="0.00 0.00 1314.00 470.00" xmlns="http://www.w3.org/2000/svg" xmlns:xlink="http://www.w3.org/1999/xlink">
<g id="graph0" class="graph" transform="scale(1 1) rotate(0) translate(4 466)">
<title>MainWindow::MainWindow</title>
<!-- Node1 -->
<g id="node1" class="node">
<title>Node1</title>
<g id="a_node1"><a xlink:title=" ">
<polygon fill="#bfbfbf" stroke="black" points="0,-63.5 0,-82.5 148,-82.5 148,-63.5 0,-63.5"/>
<text text-anchor="middle" x="74" y="-70.5" font-family="Helvetica,sans-Serif" font-size="10.00">MainWindow::MainWindow</text>
</a>
</g>
</g>
<!-- Node2 -->
<g id="node2" class="node">
<title>Node2</title>
<g id="a_node2"><a xlink:href="classMainWindow.html#a85e58f13e52e2a2d01b0bbf87c1442e9" target="_top" xlink:title=" ">
<polygon fill="none" stroke="black" points="185.5,-159 185.5,-189 352.5,-189 352.5,-159 185.5,-159"/>
<text text-anchor="start" x="193.5" y="-177" font-family="Helvetica,sans-Serif" font-size="10.00">MainWindow::connectGuiMove</text>
<text text-anchor="middle" x="269" y="-166" font-family="Helvetica,sans-Serif" font-size="10.00">WithEngine</text>
</a>
</g>
</g>
<!-- Node1&#45;&gt;Node2 -->
<g id="edge1" class="edge">
<title>Node1&#45;&gt;Node2</title>
<path fill="none" stroke="midnightblue" d="M93.16,-82.5C124.39,-98.85 188.9,-132.61 230.23,-154.23"/>
<polygon fill="midnightblue" stroke="midnightblue" points="228.7,-157.38 239.18,-158.92 231.94,-151.18 228.7,-157.38"/>
</g>
<!-- Node16 -->
<g id="node16" class="node">
<title>Node16</title>
<g id="a_node16"><a xlink:href="classMainWindow.html#adf52446f5b40a6b0045d04ccca523242" target="_top" xlink:title=" ">
<polygon fill="none" stroke="black" points="191,-82.5 191,-101.5 347,-101.5 347,-82.5 191,-82.5"/>
<text text-anchor="middle" x="269" y="-89.5" font-family="Helvetica,sans-Serif" font-size="10.00">MainWindow::guiPressFigure</text>
</a>
</g>
</g>
<!-- Node1&#45;&gt;Node16 -->
<g id="edge15" class="edge">
<title>Node1&#45;&gt;Node16</title>
<path fill="none" stroke="midnightblue" d="M148.24,-80.21C158.94,-81.26 170.04,-82.36 180.97,-83.43"/>
<polygon fill="midnightblue" stroke="midnightblue" points="180.66,-86.92 190.95,-84.42 181.35,-79.95 180.66,-86.92"/>
</g>
<!-- Node19 -->
<g id="node19" class="node">
<title>Node19</title>
<g id="a_node19"><a xlink:href="classMainWindow.html#a4195422fe1346c1aa9c640715dfe73cb" target="_top" xlink:title=" ">
<polygon fill="none" stroke="black" points="190,-41.5 190,-60.5 348,-60.5 348,-41.5 190,-41.5"/>
<text text-anchor="middle" x="269" y="-48.5" font-family="Helvetica,sans-Serif" font-size="10.00">MainWindow::startNewGame</text>
</a>
</g>
</g>
<!-- Node1&#45;&gt;Node19 -->
<g id="edge21" class="edge">
<title>Node1&#45;&gt;Node19</title>
<path fill="none" stroke="midnightblue" d="M148.24,-64.65C158.58,-63.47 169.31,-62.25 179.89,-61.04"/>
<polygon fill="midnightblue" stroke="midnightblue" points="180.45,-64.5 189.99,-59.89 179.65,-57.55 180.45,-64.5"/>
</g>
<!-- Node24 -->
<g id="node24" class="node">
<title>Node24</title>
<g id="a_node24"><a xlink:href="classMainWindow.html#aaf47fc01862209102bc55bc5cca41ecb" target="_top" xlink:title="Менеджер окон, переключает QStacedWidget на тот виджет, номер которого ему передали.">
<polygon fill="none" stroke="black" points="184,-3.5 184,-22.5 354,-22.5 354,-3.5 184,-3.5"/>
<text text-anchor="middle" x="269" y="-10.5" font-family="Helvetica,sans-Serif" font-size="10.00">MainWindow::windowsManager</text>
</a>
</g>
</g>
<!-- Node1&#45;&gt;Node24 -->
<g id="edge27" class="edge">
<title>Node1&#45;&gt;Node24</title>
<path fill="none" stroke="midnightblue" d="M97.65,-63.44C119.49,-54.47 153.59,-41.11 184,-32 192.53,-29.44 201.64,-27.05 210.6,-24.88"/>
<polygon fill="midnightblue" stroke="midnightblue" points="211.68,-28.22 220.61,-22.52 210.08,-21.4 211.68,-28.22"/>
</g>
<!-- Node3 -->
<g id="node3" class="node">
<title>Node3</title>
<g id="a_node3"><a xlink:href="classEngine.html#a66f2b590d92c6e0fa99741f02a8a9a3f" target="_top" xlink:title="Проверяет возможность хода и перемещает фигуру.">
<polygon fill="none" stroke="black" points="650,-259.5 650,-278.5 733,-278.5 733,-259.5 650,-259.5"/>
<text text-anchor="middle" x="691.5" y="-266.5" font-family="Helvetica,sans-Serif" font-size="10.00">Engine::move</text>
</a>
</g>
</g>
<!-- Node2&#45;&gt;Node3 -->
<g id="edge2" class="edge">
<title>Node2&#45;&gt;Node3</title>
<path fill="none" stroke="midnightblue" d="M336.63,-189.05C420.96,-208.11 564.34,-240.5 640.11,-257.62"/>
<polygon fill="midnightblue" stroke="midnightblue" points="639.37,-261.04 649.9,-259.83 640.92,-254.21 639.37,-261.04"/>
</g>
<!-- Node4 -->
<g id="node4" class="node">
<title>Node4</title>
<g id="a_node4"><a xlink:href="classEngine.html#a2b384a18565b9cdd85b52fed6d25ff0c" target="_top" xlink:title="Расчет преимущества игрока.">
<polygon fill="none" stroke="black" points="799,-355 799,-385 951,-385 951,-355 799,-355"/>
<text text-anchor="start" x="807" y="-373" font-family="Helvetica,sans-Serif" font-size="10.00">Engine::calculateAdvantage</text>
<text text-anchor="middle" x="875" y="-362" font-family="Helvetica,sans-Serif" font-size="10.00">White</text>
</a>
</g>
</g>
<!-- Node3&#45;&gt;Node4 -->
<g id="edge3" class="edge">
<title>Node3&#45;&gt;Node4</title>
<path fill="none" stroke="midnightblue" d="M703.59,-278.64C722.19,-294.4 761.35,-325.84 799,-345 803.29,-347.18 807.8,-349.23 812.41,-351.15"/>
<polygon fill="midnightblue" stroke="midnightblue" points="811.35,-354.5 821.94,-354.9 813.91,-347.98 811.35,-354.5"/>
</g>
<!-- Node9 -->
<g id="node9" class="node">
<title>Node9</title>
<g id="a_node9"><a xlink:href="engine_8cpp.html#a0aedf9d17abf2bab41a04d5beb4f4988" target="_top" xlink:title=" ">
<polygon fill="none" stroke="black" points="814.5,-316.5 814.5,-335.5 935.5,-335.5 935.5,-316.5 814.5,-316.5"/>
<text text-anchor="middle" x="875" y="-323.5" font-family="Helvetica,sans-Serif" font-size="10.00">checkStepOnPossible</text>
</a>
</g>
</g>
<!-- Node3&#45;&gt;Node9 -->
<g id="edge8" class="edge">
<title>Node3&#45;&gt;Node9</title>
<path fill="none" stroke="midnightblue" d="M717.24,-278.58C738.68,-286.7 770.64,-298.37 799,-307 806.86,-309.39 815.24,-311.72 823.45,-313.89"/>
<polygon fill="midnightblue" stroke="midnightblue" points="822.77,-317.33 833.33,-316.44 824.52,-310.55 822.77,-317.33"/>
</g>
<!-- Node10 -->
<g id="node10" class="node">
<title>Node10</title>
<g id="a_node10"><a xlink:href="classFigure.html#af27c0f2d5fe69cb9eb17380d3ba91d6a" target="_top" xlink:title="Получение цвета фигуры.">
<polygon fill="none" stroke="black" points="828,-278.5 828,-297.5 922,-297.5 922,-278.5 828,-278.5"/>
<text text-anchor="middle" x="875" y="-285.5" font-family="Helvetica,sans-Serif" font-size="10.00">Figure::getColor</text>
</a>
</g>
</g>
<!-- Node3&#45;&gt;Node10 -->
<g id="edge9" class="edge">
<title>Node3&#45;&gt;Node10</title>
<path fill="none" stroke="midnightblue" d="M733.23,-273.26C758.16,-275.87 790.42,-279.25 817.76,-282.11"/>
<polygon fill="midnightblue" stroke="midnightblue" points="817.66,-285.62 827.97,-283.18 818.39,-278.66 817.66,-285.62"/>
</g>
<!-- Node11 -->
<g id="node11" class="node">
<title>Node11</title>
<g id="a_node11"><a xlink:href="classBoard.html#a0bac43a8a2fc2aabc7e687eeedbe9f9e" target="_top" xlink:title="Возвращает фигуру, которая находится в ячейке поля с координатами coords.">
<polygon fill="none" stroke="black" points="826.5,-240.5 826.5,-259.5 923.5,-259.5 923.5,-240.5 826.5,-240.5"/>
<text text-anchor="middle" x="875" y="-247.5" font-family="Helvetica,sans-Serif" font-size="10.00">Board::getFigure</text>
</a>
</g>
</g>
<!-- Node3&#45;&gt;Node11 -->
<g id="edge10" class="edge">
<title>Node3&#45;&gt;Node11</title>
<path fill="none" stroke="midnightblue" d="M733.23,-264.74C757.7,-262.17 789.22,-258.88 816.23,-256.05"/>
<polygon fill="midnightblue" stroke="midnightblue" points="816.75,-259.51 826.34,-254.99 816.03,-252.55 816.75,-259.51"/>
</g>
<!-- Node12 -->
<g id="node12" class="node">
<title>Node12</title>
<g id="a_node12"><a xlink:href="classFigure.html#a12d36f015da3026f980f87a93210885a" target="_top" xlink:title="Получение возможных ходов атаки.">
<polygon fill="none" stroke="black" points="802,-202.5 802,-221.5 948,-221.5 948,-202.5 802,-202.5"/>
<text text-anchor="middle" x="875" y="-209.5" font-family="Helvetica,sans-Serif" font-size="10.00">Figure::getPossibleAttacks</text>
</a>
</g>
</g>
<!-- Node3&#45;&gt;Node12 -->
<g id="edge11" class="edge">
<title>Node3&#45;&gt;Node12</title>
<path fill="none" stroke="midnightblue" d="M717.24,-259.42C738.68,-251.3 770.64,-239.63 799,-231 806.86,-228.61 815.24,-226.28 823.45,-224.11"/>
<polygon fill="midnightblue" stroke="midnightblue" points="824.52,-227.45 833.33,-221.56 822.77,-220.67 824.52,-227.45"/>
</g>
<!-- Node13 -->
<g id="node13" class="node">
<title>Node13</title>
<g id="a_node13"><a xlink:href="classFigure.html#ac527b099db89b98b705eb74bed96c147" target="_top" xlink:title="Получение возможных ходов перемещения.">
<polygon fill="none" stroke="black" points="804.5,-164.5 804.5,-183.5 945.5,-183.5 945.5,-164.5 804.5,-164.5"/>
<text text-anchor="middle" x="875" y="-171.5" font-family="Helvetica,sans-Serif" font-size="10.00">Figure::getPossibleMoves</text>
</a>
</g>
</g>
<!-- Node3&#45;&gt;Node13 -->
<g id="edge12" class="edge">
<title>Node3&#45;&gt;Node13</title>
<path fill="none" stroke="midnightblue" d="M703.14,-259.31C721.4,-243.18 760.46,-210.86 799,-193 804.23,-190.58 809.82,-188.43 815.49,-186.54"/>
<polygon fill="midnightblue" stroke="midnightblue" points="816.55,-189.88 825.07,-183.59 814.49,-183.19 816.55,-189.88"/>
</g>
<!-- Node14 -->
<g id="node14" class="node">
<title>Node14</title>
<g id="a_node14"><a xlink:href="classFigure.html#aad86c6d796ac96d30f2a310c107fdbac" target="_top" xlink:title="Получение элементарных ходов.">
<polygon fill="none" stroke="black" points="812.5,-442.5 812.5,-461.5 937.5,-461.5 937.5,-442.5 812.5,-442.5"/>
<text text-anchor="middle" x="875" y="-449.5" font-family="Helvetica,sans-Serif" font-size="10.00">Figure::getUnarySteps</text>
</a>
</g>
</g>
<!-- Node3&#45;&gt;Node14 -->
<g id="edge13" class="edge">
<title>Node3&#45;&gt;Node14</title>
<path fill="none" stroke="midnightblue" d="M695.82,-278.55C706.18,-306.93 740.76,-391.29 799,-433 801.73,-434.96 804.64,-436.71 807.67,-438.28"/>
<polygon fill="midnightblue" stroke="midnightblue" points="806.51,-441.6 817.07,-442.49 809.37,-435.21 806.51,-441.6"/>
</g>
<!-- Node15 -->
<g id="node15" class="node">
<title>Node15</title>
<g id="a_node15"><a xlink:href="classBoard.html#a4ed8cf3fae283d3c88eb6b0dea9e9f0a" target="_top" xlink:title="Перемещает фигуру в board.">
<polygon fill="none" stroke="black" points="835.5,-404.5 835.5,-423.5 914.5,-423.5 914.5,-404.5 835.5,-404.5"/>
<text text-anchor="middle" x="875" y="-411.5" font-family="Helvetica,sans-Serif" font-size="10.00">Board::move</text>
</a>
</g>
</g>
<!-- Node3&#45;&gt;Node15 -->
<g id="edge14" class="edge">
<title>Node3&#45;&gt;Node15</title>
<path fill="none" stroke="midnightblue" d="M697.76,-278.65C711.24,-302.41 749.45,-364.03 799,-395 806.95,-399.97 816.13,-403.64 825.29,-406.35"/>
<polygon fill="midnightblue" stroke="midnightblue" points="824.6,-409.79 835.16,-408.93 826.37,-403.01 824.6,-409.79"/>
</g>
<!-- Node5 -->
<g id="node5" class="node">
<title>Node5</title>
<g id="a_node5"><a xlink:href="classEngine.html#a93442cf58f7239df6e2b5303b7b90cda" target="_top" xlink:title=" ">
<polygon fill="none" stroke="black" points="994,-303.5 994,-322.5 1144,-322.5 1144,-303.5 994,-303.5"/>
<text text-anchor="middle" x="1069" y="-310.5" font-family="Helvetica,sans-Serif" font-size="10.00">Engine::enemyUnderAttack</text>
</a>
</g>
</g>
<!-- Node4&#45;&gt;Node5 -->
<g id="edge4" class="edge">
<title>Node4&#45;&gt;Node5</title>
<path fill="none" stroke="midnightblue" d="M921.67,-354.98C931.37,-351.73 941.53,-348.29 951,-345 967.07,-339.42 970.69,-336.84 987,-332 995.45,-329.49 1004.48,-327.1 1013.32,-324.91"/>
<polygon fill="midnightblue" stroke="midnightblue" points="1014.29,-328.28 1023.19,-322.53 1012.65,-321.47 1014.29,-328.28"/>
</g>
<!-- Node6 -->
<g id="node6" class="node">
<title>Node6</title>
<g id="a_node6"><a xlink:href="classEngine.html#af2c8028ccaf85425744ad55844765fac" target="_top" xlink:title="getData возвращает поле.">
<polygon fill="none" stroke="black" points="1021.5,-379.5 1021.5,-398.5 1116.5,-398.5 1116.5,-379.5 1021.5,-379.5"/>
<text text-anchor="middle" x="1069" y="-386.5" font-family="Helvetica,sans-Serif" font-size="10.00">Engine::getData</text>
</a>
</g>
</g>
<!-- Node4&#45;&gt;Node6 -->
<g id="edge5" class="edge">
<title>Node4&#45;&gt;Node6</title>
<path fill="none" stroke="midnightblue" d="M951.06,-377.43C971.02,-379.4 992.26,-381.51 1011.08,-383.37"/>
<polygon fill="midnightblue" stroke="midnightblue" points="1010.97,-386.87 1021.27,-384.38 1011.66,-379.91 1010.97,-386.87"/>
</g>
<!-- Node8 -->
<g id="node8" class="node">
<title>Node8</title>
<g id="a_node8"><a xlink:href="classEngine.html#a9154a3995005939adcc56d46d8bd78b0" target="_top" xlink:title=" ">
<polygon fill="none" stroke="black" points="987,-341.5 987,-360.5 1151,-360.5 1151,-341.5 987,-341.5"/>
<text text-anchor="middle" x="1069" y="-348.5" font-family="Helvetica,sans-Serif" font-size="10.00">Engine::quantityPossibleMove</text>
</a>
</g>
</g>
<!-- Node4&#45;&gt;Node8 -->
<g id="edge7" class="edge">
<title>Node4&#45;&gt;Node8</title>
<path fill="none" stroke="midnightblue" d="M951.06,-362.57C959.52,-361.73 968.22,-360.87 976.86,-360.02"/>
<polygon fill="midnightblue" stroke="midnightblue" points="977.36,-363.49 986.97,-359.02 976.67,-356.52 977.36,-363.49"/>
</g>
<!-- Node7 -->
<g id="node7" class="node">
<title>Node7</title>
<g id="a_node7"><a xlink:href="classBoard.html#ab906dade3854d38f6354861a715fccac" target="_top" xlink:title="getBoo Возвращает доску.">
<polygon fill="none" stroke="black" points="1187,-126.5 1187,-145.5 1306,-145.5 1306,-126.5 1187,-126.5"/>
<text text-anchor="middle" x="1246.5" y="-133.5" font-family="Helvetica,sans-Serif" font-size="10.00">Board::getBoardData</text>
</a>
</g>
</g>
<!-- Node6&#45;&gt;Node7 -->
<g id="edge6" class="edge">
<title>Node6&#45;&gt;Node7</title>
<path fill="none" stroke="midnightblue" d="M1116.82,-385.78C1129.05,-382.99 1141.46,-378.18 1151,-370 1217.85,-312.69 1237.98,-201.15 1243.54,-155.85"/>
<polygon fill="midnightblue" stroke="midnightblue" points="1247.03,-156.16 1244.66,-145.83 1240.07,-155.38 1247.03,-156.16"/>
</g>
<!-- Node17 -->
<g id="node17" class="node">
<title>Node17</title>
<g id="a_node17"><a xlink:href="classEngine.html#a1e903acaa795f37698ee562ea0ec22ce" target="_top" xlink:title=" ">
<polygon fill="none" stroke="black" points="620,-77 620,-107 763,-107 763,-77 620,-77"/>
<text text-anchor="start" x="628" y="-95" font-family="Helvetica,sans-Serif" font-size="10.00">Engine::getPosibleAttacks</text>
<text text-anchor="middle" x="691.5" y="-84" font-family="Helvetica,sans-Serif" font-size="10.00">FigureFrom</text>
</a>
</g>
</g>
<!-- Node16&#45;&gt;Node17 -->
<g id="edge16" class="edge">
<title>Node16&#45;&gt;Node17</title>
<path fill="none" stroke="midnightblue" d="M347.13,-92C421.51,-92 533.67,-92 609.38,-92"/>
<polygon fill="midnightblue" stroke="midnightblue" points="609.81,-95.5 619.81,-92 609.81,-88.5 609.81,-95.5"/>
</g>
<!-- Node18 -->
<g id="node18" class="node">
<title>Node18</title>
<g id="a_node18"><a xlink:href="classEngine.html#ab4b084189c3f29e30a3a44ac0d5ed6b3" target="_top" xlink:title=" ">
<polygon fill="none" stroke="black" points="390,-126.5 390,-145.5 584,-145.5 584,-126.5 390,-126.5"/>
<text text-anchor="middle" x="487" y="-133.5" font-family="Helvetica,sans-Serif" font-size="10.00">Engine::getPosibleMovesFigureFrom</text>
</a>
</g>
</g>
<!-- Node16&#45;&gt;Node18 -->
<g id="edge18" class="edge">
<title>Node16&#45;&gt;Node18</title>
<path fill="none" stroke="midnightblue" d="M316.87,-101.55C349.84,-108.26 394.16,-117.29 429.15,-124.42"/>
<polygon fill="midnightblue" stroke="midnightblue" points="428.73,-127.9 439.22,-126.47 430.12,-121.05 428.73,-127.9"/>
</g>
<!-- Node17&#45;&gt;Node7 -->
<g id="edge17" class="edge">
<title>Node17&#45;&gt;Node7</title>
<path fill="none" stroke="midnightblue" d="M763.35,-94.84C853.56,-98.86 1014.17,-107.41 1151,-122 1159.36,-122.89 1168.11,-123.98 1176.77,-125.15"/>
<polygon fill="midnightblue" stroke="midnightblue" points="1176.48,-128.64 1186.87,-126.55 1177.45,-121.71 1176.48,-128.64"/>
</g>
<!-- Node18&#45;&gt;Node3 -->
<g id="edge20" class="edge">
<title>Node18&#45;&gt;Node3</title>
<path fill="none" stroke="midnightblue" d="M503.01,-145.6C521.94,-157.73 555.47,-179.28 584,-198 612.94,-216.99 646.08,-239.15 667.61,-253.6"/>
<polygon fill="midnightblue" stroke="midnightblue" points="665.82,-256.62 676.07,-259.29 669.73,-250.81 665.82,-256.62"/>
</g>
<!-- Node18&#45;&gt;Node7 -->
<g id="edge19" class="edge">
<title>Node18&#45;&gt;Node7</title>
<path fill="none" stroke="midnightblue" d="M584.32,-136C739.47,-136 1041.01,-136 1176.57,-136"/>
<polygon fill="midnightblue" stroke="midnightblue" points="1176.82,-139.5 1186.82,-136 1176.82,-132.5 1176.82,-139.5"/>
</g>
<!-- Node20 -->
<g id="node20" class="node">
<title>Node20</title>
<g id="a_node20"><a xlink:href="classEngine.html#a7e19f1f9eb9e6ec51f646bb0a94dd1d6" target="_top" xlink:title="clearBoard очищает поле.">
<polygon fill="none" stroke="black" points="433,-0.5 433,-19.5 541,-19.5 541,-0.5 433,-0.5"/>
<text text-anchor="middle" x="487" y="-7.5" font-family="Helvetica,sans-Serif" font-size="10.00">Engine::clearBoard</text>
</a>
</g>
</g>
<!-- Node19&#45;&gt;Node20 -->
<g id="edge22" class="edge">
<title>Node19&#45;&gt;Node20</title>
<path fill="none" stroke="midnightblue" d="M320.1,-41.49C351.61,-35.51 392.46,-27.76 425.73,-21.44"/>
<polygon fill="midnightblue" stroke="midnightblue" points="426.63,-24.83 435.8,-19.53 425.32,-17.95 426.63,-24.83"/>
</g>
<!-- Node22 -->
<g id="node22" class="node">
<title>Node22</title>
<g id="a_node22"><a xlink:href="classEngine.html#a9027b51e4922e147b8ae3b50348c69af" target="_top" xlink:title="Базовая расстановка фигур на поле.">
<polygon fill="none" stroke="black" points="400.5,-38.5 400.5,-57.5 573.5,-57.5 573.5,-38.5 400.5,-38.5"/>
<text text-anchor="middle" x="487" y="-45.5" font-family="Helvetica,sans-Serif" font-size="10.00">Engine::setStartingArrangement</text>
</a>
</g>
</g>
<!-- Node19&#45;&gt;Node22 -->
<g id="edge24" class="edge">
<title>Node19&#45;&gt;Node22</title>
<path fill="none" stroke="midnightblue" d="M348.29,-49.91C361.89,-49.72 376.17,-49.53 390.18,-49.33"/>
<polygon fill="midnightblue" stroke="midnightblue" points="390.36,-52.83 400.31,-49.19 390.27,-45.83 390.36,-52.83"/>
</g>
<!-- Node21 -->
<g id="node21" class="node">
<title>Node21</title>
<g id="a_node21"><a xlink:href="classBoard.html#af74f0d4b43e5aa3faea16d7c6407b05e" target="_top" xlink:title="clear Очищает доску.">
<polygon fill="none" stroke="black" points="654,-0.5 654,-19.5 729,-19.5 729,-0.5 654,-0.5"/>
<text text-anchor="middle" x="691.5" y="-7.5" font-family="Helvetica,sans-Serif" font-size="10.00">Board::clear</text>
</a>
</g>
</g>
<!-- Node20&#45;&gt;Node21 -->
<g id="edge23" class="edge">
<title>Node20&#45;&gt;Node21</title>
<path fill="none" stroke="midnightblue" d="M541.2,-10C572.97,-10 612.94,-10 643.53,-10"/>
<polygon fill="midnightblue" stroke="midnightblue" points="643.93,-13.5 653.93,-10 643.93,-6.5 643.93,-13.5"/>
</g>
<!-- Node22&#45;&gt;Node21 -->
<g id="edge25" class="edge">
<title>Node22&#45;&gt;Node21</title>
<path fill="none" stroke="midnightblue" d="M538.84,-38.46C570.94,-32.44 612.12,-24.71 643.47,-18.83"/>
<polygon fill="midnightblue" stroke="midnightblue" points="644.51,-22.19 653.7,-16.91 643.22,-15.31 644.51,-22.19"/>
</g>
<!-- Node23 -->
<g id="node23" class="node">
<title>Node23</title>
<g id="a_node23"><a xlink:href="classBoard.html#a183ac960c959ed0df9b49314d0479703" target="_top" xlink:title="Устанавливает фигуру на доску.">
<polygon fill="none" stroke="black" points="636.5,-38.5 636.5,-57.5 746.5,-57.5 746.5,-38.5 636.5,-38.5"/>
<text text-anchor="middle" x="691.5" y="-45.5" font-family="Helvetica,sans-Serif" font-size="10.00">Board::setFigureOn</text>
</a>
</g>
</g>
<!-- Node22&#45;&gt;Node23 -->
<g id="edge26" class="edge">
<title>Node22&#45;&gt;Node23</title>
<path fill="none" stroke="midnightblue" d="M573.58,-48C591.19,-48 609.45,-48 626.16,-48"/>
<polygon fill="midnightblue" stroke="midnightblue" points="626.34,-51.5 636.34,-48 626.34,-44.5 626.34,-51.5"/>
</g>
</g>
</svg>
