<?xml version="1.0" encoding="UTF-8" standalone="no"?>
<!DOCTYPE svg PUBLIC "-//W3C//DTD SVG 1.1//EN"
 "http://www.w3.org/Graphics/SVG/1.1/DTD/svg11.dtd">
<!-- Generated by graphviz version 2.43.0 (0)
 -->
<!-- Title: MainWindow::highlightGuiMoves Pages: 1 -->
<svg width="528pt" height="53pt"
 viewBox="0.00 0.00 528.00 52.50" xmlns="http://www.w3.org/2000/svg" xmlns:xlink="http://www.w3.org/1999/xlink">
<g id="graph0" class="graph" transform="scale(1 1) rotate(0) translate(4 48.5)">
<title>MainWindow::highlightGuiMoves</title>
<!-- Node1 -->
<g id="node1" class="node">
<title>Node1</title>
<g id="a_node1"><a xlink:title=" ">
<polygon fill="#bfbfbf" stroke="black" points="376,-0.5 376,-30.5 520,-30.5 520,-0.5 376,-0.5"/>
<text text-anchor="start" x="384" y="-18.5" font-family="Helvetica,sans-Serif" font-size="10.00">MainWindow::highlightGui</text>
<text text-anchor="middle" x="448" y="-7.5" font-family="Helvetica,sans-Serif" font-size="10.00">Moves</text>
</a>
</g>
</g>
<!-- Node2 -->
<g id="node2" class="node">
<title>Node2</title>
<g id="a_node2"><a xlink:href="classMainWindow.html#adf52446f5b40a6b0045d04ccca523242" target="_top" xlink:title="Обработка нажатия на фигуру.">
<polygon fill="none" stroke="black" points="184,-25 184,-44 340,-44 340,-25 184,-25"/>
<text text-anchor="middle" x="262" y="-32" font-family="Helvetica,sans-Serif" font-size="10.00">MainWindow::guiPressFigure</text>
</a>
</g>
</g>
<!-- Node1&#45;&gt;Node2 -->
<g id="edge1" class="edge">
<title>Node1&#45;&gt;Node2</title>
<path fill="none" stroke="midnightblue" d="M365.87,-23.88C357.29,-24.76 348.58,-25.66 340.05,-26.54"/>
<polygon fill="midnightblue" stroke="midnightblue" points="366.27,-27.35 375.86,-22.85 365.55,-20.39 366.27,-27.35"/>
</g>
<!-- Node3 -->
<g id="node3" class="node">
<title>Node3</title>
<g id="a_node3"><a xlink:href="classMainWindow.html#a996c5a2b6f77944776856f08ec30858d" target="_top" xlink:title=" ">
<polygon fill="none" stroke="black" points="0,-6 0,-25 148,-25 148,-6 0,-6"/>
<text text-anchor="middle" x="74" y="-13" font-family="Helvetica,sans-Serif" font-size="10.00">MainWindow::MainWindow</text>
</a>
</g>
</g>
<!-- Node1&#45;&gt;Node3 -->
<g id="edge3" class="edge">
<title>Node1&#45;&gt;Node3</title>
<path fill="none" stroke="midnightblue" d="M365.54,-15.5C300.72,-15.5 210.83,-15.5 148.27,-15.5"/>
<polygon fill="midnightblue" stroke="midnightblue" points="365.71,-19 375.71,-15.5 365.71,-12 365.71,-19"/>
</g>
<!-- Node2&#45;&gt;Node3 -->
<g id="edge2" class="edge">
<title>Node2&#45;&gt;Node3</title>
<path fill="none" stroke="midnightblue" d="M173.73,-25.59C165.17,-24.71 156.55,-23.83 148.15,-22.97"/>
<polygon fill="midnightblue" stroke="midnightblue" points="173.43,-29.07 183.74,-26.61 174.14,-22.11 173.43,-29.07"/>
</g>
</g>
</svg>
