<?xml version="1.0" encoding="UTF-8" standalone="no"?>
<!DOCTYPE svg PUBLIC "-//W3C//DTD SVG 1.1//EN"
 "http://www.w3.org/Graphics/SVG/1.1/DTD/svg11.dtd">
<!-- Generated by graphviz version 2.43.0 (0)
 -->
<!-- Title: MainWindow::MainWindow Pages: 1 -->
<!--zoomable 546 -->
<svg id="main" version="1.1" xmlns="http://www.w3.org/2000/svg" xmlns:xlink="http://www.w3.org/1999/xlink" xml:space="preserve" onload="init(evt)">
<style type="text/css"><![CDATA[
.edge:hover path { stroke: red; }
.edge:hover polygon { stroke: red; fill: red; }
]]></style>
<script type="text/javascript"><![CDATA[
var edges = document.getElementsByTagName('g');
if (edges && edges.length) {
  for (var i=0;i<edges.length;i++) {
    if (edges[i].id.substr(0,4)=='edge') {
      edges[i].setAttribute('class','edge');
    }
  }
}
]]></script>
        <defs>
                <circle id="rim" cx="0" cy="0" r="7"/>
                <circle id="rim2" cx="0" cy="0" r="3.5"/>
                <g id="zoomPlus">
                        <use xlink:href="#rim" fill="#404040">
                                <set attributeName="fill" to="#808080" begin="zoomplus.mouseover" end="zoomplus.mouseout"/>
                        </use>
                        <path d="M-4,0h8M0,-4v8" fill="none" stroke="white" stroke-width="1.5" pointer-events="none"/>
                </g>
                <g id="zoomMin">
                        <use xlink:href="#rim" fill="#404040">
                                <set attributeName="fill" to="#808080" begin="zoomminus.mouseover" end="zoomminus.mouseout"/>
                        </use>
                        <path d="M-4,0h8" fill="none" stroke="white" stroke-width="1.5" pointer-events="none"/>
                </g>
                <g id="dirArrow">
                        <path fill="none" stroke="white" stroke-width="1.5" d="M0,-3.0v7 M-2.5,-0.5L0,-3.0L2.5,-0.5"/>
                </g>
               <g id="resetDef">
                       <use xlink:href="#rim2" fill="#404040">
                               <set attributeName="fill" to="#808080" begin="reset.mouseover" end="reset.mouseout"/>
                       </use>
               </g>
        </defs>

<script type="text/javascript">
var viewWidth = 1320;
var viewHeight = 546;
var sectionId = 'dynsection-2';
</script>
<script xlink:href="svgpan.js"/>
<svg id="graph" class="graph">
<g id="viewport">
<title>MainWindow::MainWindow</title>
<!-- Node1 -->
<g id="node1" class="node">
<title>Node1</title>
<g id="a_node1"><a xlink:title=" ">
<polygon fill="#bfbfbf" stroke="black" points="0,-123.5 0,-142.5 148,-142.5 148,-123.5 0,-123.5"/>
<text text-anchor="middle" x="74" y="-130.5" font-family="Helvetica,sans-Serif" font-size="10.00">MainWindow::MainWindow</text>
</a>
</g>
</g>
<!-- Node2 -->
<g id="node2" class="node">
<title>Node2</title>
<g id="a_node2"><a xlink:href="classScreenLiderboard.html#a82fe5bb9612760278f98be788877b461" target="_top" xlink:title="Добавляет новую запись в таблицу.">
<polygon fill="none" stroke="black" points="195.5,-255 195.5,-285 342.5,-285 342.5,-255 195.5,-255"/>
<text text-anchor="start" x="203.5" y="-273" font-family="Helvetica,sans-Serif" font-size="10.00">ScreenLiderboard::addNew</text>
<text text-anchor="middle" x="269" y="-262" font-family="Helvetica,sans-Serif" font-size="10.00">Record</text>
</a>
</g>
</g>
<!-- Node1&#45;&gt;Node2 -->
<g id="edge1" class="edge">
<title>Node1&#45;&gt;Node2</title>
<path fill="none" stroke="midnightblue" d="M81.43,-142.5C96.62,-164.22 137.03,-217.79 184,-246 186.86,-247.72 189.85,-249.32 192.92,-250.81"/>
<polygon fill="midnightblue" stroke="midnightblue" points="191.8,-254.14 202.36,-254.95 194.61,-247.73 191.8,-254.14"/>
</g>
<!-- Node3 -->
<g id="node3" class="node">
<title>Node3</title>
<g id="a_node3"><a xlink:href="classMainWindow.html#a85e58f13e52e2a2d01b0bbf87c1442e9" target="_top" xlink:title="Перемещение и окончание игры.">
<polygon fill="none" stroke="black" points="185.5,-206 185.5,-236 352.5,-236 352.5,-206 185.5,-206"/>
<text text-anchor="start" x="193.5" y="-224" font-family="Helvetica,sans-Serif" font-size="10.00">MainWindow::connectGuiMove</text>
<text text-anchor="middle" x="269" y="-213" font-family="Helvetica,sans-Serif" font-size="10.00">WithEngine</text>
</a>
</g>
</g>
<!-- Node1&#45;&gt;Node3 -->
<g id="edge2" class="edge">
<title>Node1&#45;&gt;Node3</title>
<path fill="none" stroke="midnightblue" d="M89.24,-142.7C109.53,-156.16 148.27,-180.61 184,-196 189.46,-198.35 195.21,-200.57 201.04,-202.64"/>
<polygon fill="midnightblue" stroke="midnightblue" points="200.28,-206.07 210.87,-205.97 202.53,-199.45 200.28,-206.07"/>
</g>
<!-- Node18 -->
<g id="node18" class="node">
<title>Node18</title>
<g id="a_node18"><a xlink:href="classLiderboard.html#a3314a003631ca5b033d12f450ea915bb" target="_top" xlink:title="Получить таблицу лидеров">
<polygon fill="none" stroke="black" points="212.5,-79.5 212.5,-98.5 325.5,-98.5 325.5,-79.5 212.5,-79.5"/>
<text text-anchor="middle" x="269" y="-86.5" font-family="Helvetica,sans-Serif" font-size="10.00">Liderboard::getData</text>
</a>
</g>
</g>
<!-- Node1&#45;&gt;Node18 -->
<g id="edge18" class="edge">
<title>Node1&#45;&gt;Node18</title>
<path fill="none" stroke="midnightblue" d="M116.88,-123.45C146.09,-116.79 185.26,-107.86 216.4,-100.76"/>
<polygon fill="midnightblue" stroke="midnightblue" points="217.23,-104.16 226.2,-98.53 215.68,-97.34 217.23,-104.16"/>
</g>
<!-- Node19 -->
<g id="node19" class="node">
<title>Node19</title>
<g id="a_node19"><a xlink:href="classMainWindow.html#ac8e148d721ba666a05fe1422d14ebcd8" target="_top" xlink:title="Обработка нажатия на фигуру.">
<polygon fill="none" stroke="black" points="190,-118 190,-148 348,-148 348,-118 190,-118"/>
<text text-anchor="start" x="198" y="-136" font-family="Helvetica,sans-Serif" font-size="10.00">MainWindow::guiMousePress</text>
<text text-anchor="middle" x="269" y="-125" font-family="Helvetica,sans-Serif" font-size="10.00">Figure</text>
</a>
</g>
</g>
<!-- Node1&#45;&gt;Node19 -->
<g id="edge19" class="edge">
<title>Node1&#45;&gt;Node19</title>
<path fill="none" stroke="midnightblue" d="M148.24,-133C158.58,-133 169.31,-133 179.89,-133"/>
<polygon fill="midnightblue" stroke="midnightblue" points="179.99,-136.5 189.99,-133 179.99,-129.5 179.99,-136.5"/>
</g>
<!-- Node22 -->
<g id="node22" class="node">
<title>Node22</title>
<g id="a_node22"><a xlink:href="classMainWindow.html#adf52446f5b40a6b0045d04ccca523242" target="_top" xlink:title="Обработка нажатия на фигуру.">
<polygon fill="none" stroke="black" points="191,-167.5 191,-186.5 347,-186.5 347,-167.5 191,-167.5"/>
<text text-anchor="middle" x="269" y="-174.5" font-family="Helvetica,sans-Serif" font-size="10.00">MainWindow::guiPressFigure</text>
</a>
</g>
</g>
<!-- Node1&#45;&gt;Node22 -->
<g id="edge23" class="edge">
<title>Node1&#45;&gt;Node22</title>
<path fill="none" stroke="midnightblue" d="M116.4,-142.53C136.76,-147.2 161.66,-152.91 184,-158 194.27,-160.34 205.26,-162.83 215.78,-165.21"/>
<polygon fill="midnightblue" stroke="midnightblue" points="215.17,-168.66 225.69,-167.46 216.71,-161.84 215.17,-168.66"/>
</g>
<!-- Node24 -->
<g id="node24" class="node">
<title>Node24</title>
<g id="a_node24"><a xlink:href="classMainWindow.html#a4195422fe1346c1aa9c640715dfe73cb" target="_top" xlink:title="Новая игра.">
<polygon fill="none" stroke="black" points="190,-41.5 190,-60.5 348,-60.5 348,-41.5 190,-41.5"/>
<text text-anchor="middle" x="269" y="-48.5" font-family="Helvetica,sans-Serif" font-size="10.00">MainWindow::startNewGame</text>
</a>
</g>
</g>
<!-- Node1&#45;&gt;Node24 -->
<g id="edge28" class="edge">
<title>Node1&#45;&gt;Node24</title>
<path fill="none" stroke="midnightblue" d="M88.43,-123.43C108.36,-109.66 147.37,-84.35 184,-70 190.45,-67.47 197.33,-65.24 204.25,-63.27"/>
<polygon fill="midnightblue" stroke="midnightblue" points="205.63,-66.53 214.39,-60.58 203.83,-59.76 205.63,-66.53"/>
</g>
<!-- Node28 -->
<g id="node28" class="node">
<title>Node28</title>
<g id="a_node28"><a xlink:href="classMainWindow.html#aaf47fc01862209102bc55bc5cca41ecb" target="_top" xlink:title="Менеджер окон, переключает QStacedWidget на тот виджет, номер которого ему передали.">
<polygon fill="none" stroke="black" points="184,-3.5 184,-22.5 354,-22.5 354,-3.5 184,-3.5"/>
<text text-anchor="middle" x="269" y="-10.5" font-family="Helvetica,sans-Serif" font-size="10.00">MainWindow::windowsManager</text>
</a>
</g>
</g>
<!-- Node1&#45;&gt;Node28 -->
<g id="edge32" class="edge">
<title>Node1&#45;&gt;Node28</title>
<path fill="none" stroke="midnightblue" d="M82.29,-123.46C98.32,-103.21 138.81,-55.81 184,-32 188.51,-29.62 193.32,-27.54 198.25,-25.72"/>
<polygon fill="midnightblue" stroke="midnightblue" points="199.48,-29 207.86,-22.52 197.27,-22.36 199.48,-29"/>
</g>
<!-- Node4 -->
<g id="node4" class="node">
<title>Node4</title>
<g id="a_node4"><a xlink:href="classEngine.html#acb6729165e26058f5dc442428f11b6be" target="_top" xlink:title="Проверка на конец игры.">
<polygon fill="none" stroke="black" points="446,-211.5 446,-230.5 528,-230.5 528,-211.5 446,-211.5"/>
<text text-anchor="middle" x="487" y="-218.5" font-family="Helvetica,sans-Serif" font-size="10.00">Engine::isEnd</text>
</a>
</g>
</g>
<!-- Node3&#45;&gt;Node4 -->
<g id="edge3" class="edge">
<title>Node3&#45;&gt;Node4</title>
<path fill="none" stroke="midnightblue" d="M352.58,-221C380.51,-221 410.85,-221 435.52,-221"/>
<polygon fill="midnightblue" stroke="midnightblue" points="435.73,-224.5 445.73,-221 435.73,-217.5 435.73,-224.5"/>
</g>
<!-- Node5 -->
<g id="node5" class="node">
<title>Node5</title>
<g id="a_node5"><a xlink:href="classEngine.html#a66f2b590d92c6e0fa99741f02a8a9a3f" target="_top" xlink:title="Проверяет возможность хода и перемещает фигуру.">
<polygon fill="none" stroke="black" points="653,-316.5 653,-335.5 736,-335.5 736,-316.5 653,-316.5"/>
<text text-anchor="middle" x="694.5" y="-323.5" font-family="Helvetica,sans-Serif" font-size="10.00">Engine::move</text>
</a>
</g>
</g>
<!-- Node3&#45;&gt;Node5 -->
<g id="edge4" class="edge">
<title>Node3&#45;&gt;Node5</title>
<path fill="none" stroke="midnightblue" d="M330.68,-236.04C415.39,-257.05 567.4,-294.74 645.02,-313.98"/>
<polygon fill="midnightblue" stroke="midnightblue" points="644.46,-317.45 655.01,-316.46 646.15,-310.65 644.46,-317.45"/>
</g>
<!-- Node6 -->
<g id="node6" class="node">
<title>Node6</title>
<g id="a_node6"><a xlink:href="classEngine.html#a2b384a18565b9cdd85b52fed6d25ff0c" target="_top" xlink:title="Расчет преимущества игрока.">
<polygon fill="none" stroke="black" points="805,-393 805,-423 957,-423 957,-393 805,-393"/>
<text text-anchor="start" x="813" y="-411" font-family="Helvetica,sans-Serif" font-size="10.00">Engine::calculateAdvantage</text>
<text text-anchor="middle" x="881" y="-400" font-family="Helvetica,sans-Serif" font-size="10.00">White</text>
</a>
</g>
</g>
<!-- Node5&#45;&gt;Node6 -->
<g id="edge5" class="edge">
<title>Node5&#45;&gt;Node6</title>
<path fill="none" stroke="midnightblue" d="M711.8,-335.53C732.86,-347.59 770.86,-368.53 805,-383 810.34,-385.26 815.97,-387.46 821.63,-389.56"/>
<polygon fill="midnightblue" stroke="midnightblue" points="820.57,-392.89 831.17,-392.97 822.93,-386.3 820.57,-392.89"/>
</g>
<!-- Node9 -->
<g id="node9" class="node">
<title>Node9</title>
<g id="a_node9"><a xlink:href="classBoard.html#ab906dade3854d38f6354861a715fccac" target="_top" xlink:title="getBoo Возвращает доску.">
<polygon fill="none" stroke="black" points="1193,-262.5 1193,-281.5 1312,-281.5 1312,-262.5 1193,-262.5"/>
<text text-anchor="middle" x="1252.5" y="-269.5" font-family="Helvetica,sans-Serif" font-size="10.00">Board::getBoardData</text>
</a>
</g>
</g>
<!-- Node5&#45;&gt;Node9 -->
<g id="edge11" class="edge">
<title>Node5&#45;&gt;Node9</title>
<path fill="none" stroke="midnightblue" d="M701.42,-335.57C715.85,-357.83 755.28,-412.74 805,-433 830.9,-443.55 1141.62,-438.88 1157,-430 1209.71,-399.58 1236.29,-327.02 1246.45,-291.82"/>
<polygon fill="midnightblue" stroke="midnightblue" points="1249.92,-292.37 1249.18,-281.81 1243.17,-290.53 1249.92,-292.37"/>
</g>
<!-- Node11 -->
<g id="node11" class="node">
<title>Node11</title>
<g id="a_node11"><a xlink:href="engine_8cpp.html#a0aedf9d17abf2bab41a04d5beb4f4988" target="_top" xlink:title=" ">
<polygon fill="none" stroke="black" points="820.5,-354.5 820.5,-373.5 941.5,-373.5 941.5,-354.5 820.5,-354.5"/>
<text text-anchor="middle" x="881" y="-361.5" font-family="Helvetica,sans-Serif" font-size="10.00">checkStepOnPossible</text>
</a>
</g>
</g>
<!-- Node5&#45;&gt;Node11 -->
<g id="edge10" class="edge">
<title>Node5&#45;&gt;Node11</title>
<path fill="none" stroke="midnightblue" d="M736.45,-334.43C762.07,-339.71 795.44,-346.58 823.55,-352.37"/>
<polygon fill="midnightblue" stroke="midnightblue" points="823.15,-355.86 833.65,-354.45 824.56,-349.01 823.15,-355.86"/>
</g>
<!-- Node12 -->
<g id="node12" class="node">
<title>Node12</title>
<g id="a_node12"><a xlink:href="classFigure.html#af27c0f2d5fe69cb9eb17380d3ba91d6a" target="_top" xlink:title="Получение цвета фигуры.">
<polygon fill="none" stroke="black" points="834,-316.5 834,-335.5 928,-335.5 928,-316.5 834,-316.5"/>
<text text-anchor="middle" x="881" y="-323.5" font-family="Helvetica,sans-Serif" font-size="10.00">Figure::getColor</text>
</a>
</g>
</g>
<!-- Node5&#45;&gt;Node12 -->
<g id="edge12" class="edge">
<title>Node5&#45;&gt;Node12</title>
<path fill="none" stroke="midnightblue" d="M736.45,-326C762.16,-326 795.68,-326 823.86,-326"/>
<polygon fill="midnightblue" stroke="midnightblue" points="823.98,-329.5 833.98,-326 823.98,-322.5 823.98,-329.5"/>
</g>
<!-- Node13 -->
<g id="node13" class="node">
<title>Node13</title>
<g id="a_node13"><a xlink:href="classBoard.html#a0bac43a8a2fc2aabc7e687eeedbe9f9e" target="_top" xlink:title="Возвращает фигуру, которая находится в ячейке поля с координатами coords.">
<polygon fill="none" stroke="black" points="832.5,-278.5 832.5,-297.5 929.5,-297.5 929.5,-278.5 832.5,-278.5"/>
<text text-anchor="middle" x="881" y="-285.5" font-family="Helvetica,sans-Serif" font-size="10.00">Board::getFigure</text>
</a>
</g>
</g>
<!-- Node5&#45;&gt;Node13 -->
<g id="edge13" class="edge">
<title>Node5&#45;&gt;Node13</title>
<path fill="none" stroke="midnightblue" d="M736.45,-317.57C762.07,-312.29 795.44,-305.42 823.55,-299.63"/>
<polygon fill="midnightblue" stroke="midnightblue" points="824.56,-302.99 833.65,-297.55 823.15,-296.14 824.56,-302.99"/>
</g>
<!-- Node14 -->
<g id="node14" class="node">
<title>Node14</title>
<g id="a_node14"><a xlink:href="classFigure.html#a12d36f015da3026f980f87a93210885a" target="_top" xlink:title="Получение возможных ходов атаки.">
<polygon fill="none" stroke="black" points="808,-240.5 808,-259.5 954,-259.5 954,-240.5 808,-240.5"/>
<text text-anchor="middle" x="881" y="-247.5" font-family="Helvetica,sans-Serif" font-size="10.00">Figure::getPossibleAttacks</text>
</a>
</g>
</g>
<!-- Node5&#45;&gt;Node14 -->
<g id="edge14" class="edge">
<title>Node5&#45;&gt;Node14</title>
<path fill="none" stroke="midnightblue" d="M711.28,-316.29C732.09,-303.84 770.15,-282.28 805,-269 811.41,-266.56 818.25,-264.33 825.08,-262.34"/>
<polygon fill="midnightblue" stroke="midnightblue" points="826.35,-265.62 835.05,-259.58 824.48,-258.87 826.35,-265.62"/>
</g>
<!-- Node15 -->
<g id="node15" class="node">
<title>Node15</title>
<g id="a_node15"><a xlink:href="classFigure.html#ac527b099db89b98b705eb74bed96c147" target="_top" xlink:title="Получение возможных ходов перемещения.">
<polygon fill="none" stroke="black" points="810.5,-202.5 810.5,-221.5 951.5,-221.5 951.5,-202.5 810.5,-202.5"/>
<text text-anchor="middle" x="881" y="-209.5" font-family="Helvetica,sans-Serif" font-size="10.00">Figure::getPossibleMoves</text>
</a>
</g>
</g>
<!-- Node5&#45;&gt;Node15 -->
<g id="edge15" class="edge">
<title>Node5&#45;&gt;Node15</title>
<path fill="none" stroke="midnightblue" d="M703.78,-316.26C720.74,-296.95 761.5,-253.72 805,-231 809.5,-228.65 814.3,-226.58 819.22,-224.76"/>
<polygon fill="midnightblue" stroke="midnightblue" points="820.42,-228.05 828.78,-221.55 818.19,-221.41 820.42,-228.05"/>
</g>
<!-- Node16 -->
<g id="node16" class="node">
<title>Node16</title>
<g id="a_node16"><a xlink:href="classFigure.html#aad86c6d796ac96d30f2a310c107fdbac" target="_top" xlink:title="Получение элементарных ходов.">
<polygon fill="none" stroke="black" points="818.5,-518.5 818.5,-537.5 943.5,-537.5 943.5,-518.5 818.5,-518.5"/>
<text text-anchor="middle" x="881" y="-525.5" font-family="Helvetica,sans-Serif" font-size="10.00">Figure::getUnarySteps</text>
</a>
</g>
</g>
<!-- Node5&#45;&gt;Node16 -->
<g id="edge16" class="edge">
<title>Node5&#45;&gt;Node16</title>
<path fill="none" stroke="midnightblue" d="M698.38,-335.77C707.94,-366.5 741.74,-461.91 805,-509 807.51,-510.86 810.17,-512.55 812.96,-514.07"/>
<polygon fill="midnightblue" stroke="midnightblue" points="811.62,-517.31 822.16,-518.38 814.59,-510.97 811.62,-517.31"/>
</g>
<!-- Node17 -->
<g id="node17" class="node">
<title>Node17</title>
<g id="a_node17"><a xlink:href="classBoard.html#a4ed8cf3fae283d3c88eb6b0dea9e9f0a" target="_top" xlink:title="Перемещает фигуру в board.">
<polygon fill="none" stroke="black" points="841.5,-480.5 841.5,-499.5 920.5,-499.5 920.5,-480.5 841.5,-480.5"/>
<text text-anchor="middle" x="881" y="-487.5" font-family="Helvetica,sans-Serif" font-size="10.00">Board::move</text>
</a>
</g>
</g>
<!-- Node5&#45;&gt;Node17 -->
<g id="edge17" class="edge">
<title>Node5&#45;&gt;Node17</title>
<path fill="none" stroke="midnightblue" d="M700.43,-335.78C713.72,-361.16 752.84,-429.67 805,-466 812.99,-471.57 822.35,-475.89 831.68,-479.24"/>
<polygon fill="midnightblue" stroke="midnightblue" points="830.76,-482.62 841.35,-482.38 832.92,-475.96 830.76,-482.62"/>
</g>
<!-- Node7 -->
<g id="node7" class="node">
<title>Node7</title>
<g id="a_node7"><a xlink:href="classEngine.html#a93442cf58f7239df6e2b5303b7b90cda" target="_top" xlink:title="Количество противников, которые находятся под атакой.">
<polygon fill="none" stroke="black" points="1000,-401.5 1000,-420.5 1150,-420.5 1150,-401.5 1000,-401.5"/>
<text text-anchor="middle" x="1075" y="-408.5" font-family="Helvetica,sans-Serif" font-size="10.00">Engine::enemyUnderAttack</text>
</a>
</g>
</g>
<!-- Node6&#45;&gt;Node7 -->
<g id="edge6" class="edge">
<title>Node6&#45;&gt;Node7</title>
<path fill="none" stroke="midnightblue" d="M957.06,-409.17C967.74,-409.34 978.78,-409.51 989.62,-409.68"/>
<polygon fill="midnightblue" stroke="midnightblue" points="989.89,-413.19 999.94,-409.84 990,-406.19 989.89,-413.19"/>
</g>
<!-- Node8 -->
<g id="node8" class="node">
<title>Node8</title>
<g id="a_node8"><a xlink:href="classEngine.html#af2c8028ccaf85425744ad55844765fac" target="_top" xlink:title="getData возвращает поле.">
<polygon fill="none" stroke="black" points="1027.5,-363.5 1027.5,-382.5 1122.5,-382.5 1122.5,-363.5 1027.5,-363.5"/>
<text text-anchor="middle" x="1075" y="-370.5" font-family="Helvetica,sans-Serif" font-size="10.00">Engine::getData</text>
</a>
</g>
</g>
<!-- Node6&#45;&gt;Node8 -->
<g id="edge7" class="edge">
<title>Node6&#45;&gt;Node8</title>
<path fill="none" stroke="midnightblue" d="M957.06,-394.32C977.12,-390.66 998.46,-386.77 1017.34,-383.33"/>
<polygon fill="midnightblue" stroke="midnightblue" points="1018.06,-386.76 1027.27,-381.52 1016.8,-379.87 1018.06,-386.76"/>
</g>
<!-- Node10 -->
<g id="node10" class="node">
<title>Node10</title>
<g id="a_node10"><a xlink:href="classEngine.html#a9154a3995005939adcc56d46d8bd78b0" target="_top" xlink:title="Количество возможных ходов.">
<polygon fill="none" stroke="black" points="993,-325.5 993,-344.5 1157,-344.5 1157,-325.5 993,-325.5"/>
<text text-anchor="middle" x="1075" y="-332.5" font-family="Helvetica,sans-Serif" font-size="10.00">Engine::quantityPossibleMove</text>
</a>
</g>
</g>
<!-- Node6&#45;&gt;Node10 -->
<g id="edge9" class="edge">
<title>Node6&#45;&gt;Node10</title>
<path fill="none" stroke="midnightblue" d="M935.05,-392.96C942.61,-390.07 950.13,-386.75 957,-383 975.03,-373.15 974.54,-363.02 993,-354 997.95,-351.58 1003.22,-349.47 1008.61,-347.61"/>
<polygon fill="midnightblue" stroke="midnightblue" points="1009.89,-350.88 1018.39,-344.55 1007.8,-344.2 1009.89,-350.88"/>
</g>
<!-- Node8&#45;&gt;Node9 -->
<g id="edge8" class="edge">
<title>Node8&#45;&gt;Node9</title>
<path fill="none" stroke="midnightblue" d="M1122.78,-366.07C1134.35,-363.28 1146.45,-359.39 1157,-354 1189.18,-337.55 1219.45,-307.85 1236.7,-289.06"/>
<polygon fill="midnightblue" stroke="midnightblue" points="1239.39,-291.3 1243.46,-281.52 1234.18,-286.63 1239.39,-291.3"/>
</g>
<!-- Node20 -->
<g id="node20" class="node">
<title>Node20</title>
<g id="a_node20"><a xlink:href="classEngine.html#afffac825472b73103b32f2d3e4555267" target="_top" xlink:title="Возможные атаки для фигуры.">
<polygon fill="none" stroke="black" points="415.5,-118 415.5,-148 558.5,-148 558.5,-118 415.5,-118"/>
<text text-anchor="start" x="423.5" y="-136" font-family="Helvetica,sans-Serif" font-size="10.00">Engine::getPosibleAttacks</text>
<text text-anchor="middle" x="487" y="-125" font-family="Helvetica,sans-Serif" font-size="10.00">FigureFrom</text>
</a>
</g>
</g>
<!-- Node19&#45;&gt;Node20 -->
<g id="edge20" class="edge">
<title>Node19&#45;&gt;Node20</title>
<path fill="none" stroke="midnightblue" d="M348.29,-133C366.72,-133 386.42,-133 404.97,-133"/>
<polygon fill="midnightblue" stroke="midnightblue" points="405.15,-136.5 415.15,-133 405.15,-129.5 405.15,-136.5"/>
</g>
<!-- Node20&#45;&gt;Node9 -->
<g id="edge22" class="edge">
<title>Node20&#45;&gt;Node9</title>
<path fill="none" stroke="midnightblue" d="M558.66,-126.19C684.39,-116.93 952.91,-110.11 1157,-195 1189.2,-208.39 1219.09,-236.44 1236.32,-254.73"/>
<polygon fill="midnightblue" stroke="midnightblue" points="1233.96,-257.35 1243.3,-262.36 1239.13,-252.62 1233.96,-257.35"/>
</g>
<!-- Node21 -->
<g id="node21" class="node">
<title>Node21</title>
<g id="a_node21"><a xlink:href="classBoard.html#ac3f85f5b615feede6ea32745632203dd" target="_top" xlink:title="Определение фигуры после перемещения.">
<polygon fill="none" stroke="black" points="620,-77 620,-107 769,-107 769,-77 620,-77"/>
<text text-anchor="start" x="628" y="-95" font-family="Helvetica,sans-Serif" font-size="10.00">Board::calculateFigureAfter</text>
<text text-anchor="middle" x="694.5" y="-84" font-family="Helvetica,sans-Serif" font-size="10.00">Taking</text>
</a>
</g>
</g>
<!-- Node20&#45;&gt;Node21 -->
<g id="edge21" class="edge">
<title>Node20&#45;&gt;Node21</title>
<path fill="none" stroke="midnightblue" d="M558.72,-118.89C575.22,-115.6 592.94,-112.06 609.94,-108.67"/>
<polygon fill="midnightblue" stroke="midnightblue" points="610.73,-112.08 619.85,-106.69 609.36,-105.22 610.73,-112.08"/>
</g>
<!-- Node22&#45;&gt;Node20 -->
<g id="edge24" class="edge">
<title>Node22&#45;&gt;Node20</title>
<path fill="none" stroke="midnightblue" d="M316.87,-167.45C342.73,-162.18 375.57,-155.5 405.41,-149.42"/>
<polygon fill="midnightblue" stroke="midnightblue" points="406.3,-152.81 415.4,-147.38 404.91,-145.95 406.3,-152.81"/>
</g>
<!-- Node23 -->
<g id="node23" class="node">
<title>Node23</title>
<g id="a_node23"><a xlink:href="classEngine.html#ab4b084189c3f29e30a3a44ac0d5ed6b3" target="_top" xlink:title="Возможные ходы для фигуры.">
<polygon fill="none" stroke="black" points="390,-167.5 390,-186.5 584,-186.5 584,-167.5 390,-167.5"/>
<text text-anchor="middle" x="487" y="-174.5" font-family="Helvetica,sans-Serif" font-size="10.00">Engine::getPosibleMovesFigureFrom</text>
</a>
</g>
</g>
<!-- Node22&#45;&gt;Node23 -->
<g id="edge25" class="edge">
<title>Node22&#45;&gt;Node23</title>
<path fill="none" stroke="midnightblue" d="M347.07,-177C357.64,-177 368.65,-177 379.63,-177"/>
<polygon fill="midnightblue" stroke="midnightblue" points="379.7,-180.5 389.7,-177 379.7,-173.5 379.7,-180.5"/>
</g>
<!-- Node23&#45;&gt;Node5 -->
<g id="edge27" class="edge">
<title>Node23&#45;&gt;Node5</title>
<path fill="none" stroke="midnightblue" d="M547.1,-186.53C559.86,-190.16 572.85,-195.15 584,-202 628.43,-229.31 664.93,-280.27 682.39,-307.58"/>
<polygon fill="midnightblue" stroke="midnightblue" points="679.49,-309.55 687.75,-316.18 685.43,-305.84 679.49,-309.55"/>
</g>
<!-- Node23&#45;&gt;Node9 -->
<g id="edge26" class="edge">
<title>Node23&#45;&gt;Node9</title>
<path fill="none" stroke="midnightblue" d="M584.24,-173.91C679.46,-172.35 829.08,-173.92 957,-193 1051.63,-207.12 1159.45,-240.68 1214.65,-259.19"/>
<polygon fill="midnightblue" stroke="midnightblue" points="1213.74,-262.58 1224.33,-262.47 1215.98,-255.95 1213.74,-262.58"/>
</g>
<!-- Node25 -->
<g id="node25" class="node">
<title>Node25</title>
<g id="a_node25"><a xlink:href="classEngine.html#a9027b51e4922e147b8ae3b50348c69af" target="_top" xlink:title="Базовая расстановка фигур на поле.">
<polygon fill="none" stroke="black" points="400.5,-38.5 400.5,-57.5 573.5,-57.5 573.5,-38.5 400.5,-38.5"/>
<text text-anchor="middle" x="487" y="-45.5" font-family="Helvetica,sans-Serif" font-size="10.00">Engine::setStartingArrangement</text>
</a>
</g>
</g>
<!-- Node24&#45;&gt;Node25 -->
<g id="edge29" class="edge">
<title>Node24&#45;&gt;Node25</title>
<path fill="none" stroke="midnightblue" d="M348.29,-49.91C361.89,-49.72 376.17,-49.53 390.18,-49.33"/>
<polygon fill="midnightblue" stroke="midnightblue" points="390.36,-52.83 400.31,-49.19 390.27,-45.83 390.36,-52.83"/>
</g>
<!-- Node26 -->
<g id="node26" class="node">
<title>Node26</title>
<g id="a_node26"><a xlink:href="classBoard.html#af74f0d4b43e5aa3faea16d7c6407b05e" target="_top" xlink:title="clear Очищает доску.">
<polygon fill="none" stroke="black" points="657,-38.5 657,-57.5 732,-57.5 732,-38.5 657,-38.5"/>
<text text-anchor="middle" x="694.5" y="-45.5" font-family="Helvetica,sans-Serif" font-size="10.00">Board::clear</text>
</a>
</g>
</g>
<!-- Node25&#45;&gt;Node26 -->
<g id="edge30" class="edge">
<title>Node25&#45;&gt;Node26</title>
<path fill="none" stroke="midnightblue" d="M573.66,-48C598.65,-48 625.02,-48 646.65,-48"/>
<polygon fill="midnightblue" stroke="midnightblue" points="646.85,-51.5 656.85,-48 646.85,-44.5 646.85,-51.5"/>
</g>
<!-- Node27 -->
<g id="node27" class="node">
<title>Node27</title>
<g id="a_node27"><a xlink:href="classBoard.html#a183ac960c959ed0df9b49314d0479703" target="_top" xlink:title="Устанавливает фигуру на доску.">
<polygon fill="none" stroke="black" points="639.5,-0.5 639.5,-19.5 749.5,-19.5 749.5,-0.5 639.5,-0.5"/>
<text text-anchor="middle" x="694.5" y="-7.5" font-family="Helvetica,sans-Serif" font-size="10.00">Board::setFigureOn</text>
</a>
</g>
</g>
<!-- Node25&#45;&gt;Node27 -->
<g id="edge31" class="edge">
<title>Node25&#45;&gt;Node27</title>
<path fill="none" stroke="midnightblue" d="M539.59,-38.46C567.56,-33.29 602.32,-26.86 631.73,-21.42"/>
<polygon fill="midnightblue" stroke="midnightblue" points="632.69,-24.8 641.89,-19.54 631.42,-17.92 632.69,-24.8"/>
</g>
</g>
</svg>
        <g id="navigator" transform="translate(0 0)" fill="#404254">
                <rect fill="#f2f5e9" fill-opacity="0.5" stroke="#606060" stroke-width=".5" x="0" y="0" width="60" height="60"/>
                <use id="zoomplus" xlink:href="#zoomPlus" x="17" y="9" onmousedown="handleZoom(evt,'in')"/>
                <use id="zoomminus" xlink:href="#zoomMin" x="42" y="9" onmousedown="handleZoom(evt,'out')"/>
                <use id="reset" xlink:href="#resetDef" x="30" y="36" onmousedown="handleReset()"/>
                <g id="arrowUp" xlink:href="#dirArrow" transform="translate(30 24)" onmousedown="handlePan(0,-1)">
                  <use xlink:href="#rim" fill="#404040">
                        <set attributeName="fill" to="#808080" begin="arrowUp.mouseover" end="arrowUp.mouseout"/>
                  </use>
                  <path fill="none" stroke="white" stroke-width="1.5" d="M0,-3.0v7 M-2.5,-0.5L0,-3.0L2.5,-0.5"/>
                </g>
                <g id="arrowRight" xlink:href="#dirArrow" transform="rotate(90) translate(36 -43)" onmousedown="handlePan(1,0)">
                  <use xlink:href="#rim" fill="#404040">
                        <set attributeName="fill" to="#808080" begin="arrowRight.mouseover" end="arrowRight.mouseout"/>
                  </use>
                  <path fill="none" stroke="white" stroke-width="1.5" d="M0,-3.0v7 M-2.5,-0.5L0,-3.0L2.5,-0.5"/>
                </g>
                <g id="arrowDown" xlink:href="#dirArrow" transform="rotate(180) translate(-30 -48)" onmousedown="handlePan(0,1)">
                  <use xlink:href="#rim" fill="#404040">
                        <set attributeName="fill" to="#808080" begin="arrowDown.mouseover" end="arrowDown.mouseout"/>
                  </use>
                  <path fill="none" stroke="white" stroke-width="1.5" d="M0,-3.0v7 M-2.5,-0.5L0,-3.0L2.5,-0.5"/>
                </g>
                <g id="arrowLeft" xlink:href="#dirArrow" transform="rotate(270) translate(-36 17)" onmousedown="handlePan(-1,0)">
                  <use xlink:href="#rim" fill="#404040">
                        <set attributeName="fill" to="#808080" begin="arrowLeft.mouseover" end="arrowLeft.mouseout"/>
                  </use>
                  <path fill="none" stroke="white" stroke-width="1.5" d="M0,-3.0v7 M-2.5,-0.5L0,-3.0L2.5,-0.5"/>
                </g>
        </g>
        <svg viewBox="0 0 15 15" width="100%" height="30px" preserveAspectRatio="xMaxYMin meet">
         <g id="arrow_out" transform="scale(0.3 0.3)">
          <a xlink:href="classMainWindow_a996c5a2b6f77944776856f08ec30858d_cgraph_org.svg" target="_base">
           <rect id="button" ry="5" rx="5" y="6" x="6" height="38" width="38"
                fill="#f2f5e9" fill-opacity="0.5" stroke="#606060" stroke-width="1.0"/>
           <path id="arrow"
             d="M 11.500037,31.436501 C 11.940474,20.09759 22.043105,11.32322 32.158766,21.979434 L 37.068811,17.246167 C 37.068811,17.246167 37.088388,32 37.088388,32 L 22.160133,31.978069 C 22.160133,31.978069 26.997745,27.140456 26.997745,27.140456 C 18.528582,18.264221 13.291696,25.230495 11.500037,31.436501 z"
             style="fill:#404040;"/>
          </a>
         </g>
        </svg>
</svg>
