<?xml version="1.0" encoding="UTF-8" standalone="no"?>
<!DOCTYPE svg PUBLIC "-//W3C//DTD SVG 1.1//EN"
 "http://www.w3.org/Graphics/SVG/1.1/DTD/svg11.dtd">
<!-- Generated by graphviz version 2.43.0 (0)
 -->
<!-- Title: MainWindow::startNewGame Pages: 1 -->
<svg width="521pt" height="66pt"
 viewBox="0.00 0.00 521.00 66.00" xmlns="http://www.w3.org/2000/svg" xmlns:xlink="http://www.w3.org/1999/xlink">
<g id="graph0" class="graph" transform="scale(1 1) rotate(0) translate(4 62)">
<title>MainWindow::startNewGame</title>
<!-- Node1 -->
<g id="node1" class="node">
<title>Node1</title>
<g id="a_node1"><a xlink:title="Новая игра.">
<polygon fill="#bfbfbf" stroke="black" points="0,-19.5 0,-38.5 158,-38.5 158,-19.5 0,-19.5"/>
<text text-anchor="middle" x="79" y="-26.5" font-family="Helvetica,sans-Serif" font-size="10.00">MainWindow::startNewGame</text>
</a>
</g>
</g>
<!-- Node2 -->
<g id="node2" class="node">
<title>Node2</title>
<g id="a_node2"><a xlink:href="classEngine.html#a9027b51e4922e147b8ae3b50348c69af" target="_top" xlink:title="Базовая расстановка фигур на поле.">
<polygon fill="none" stroke="black" points="194,-19.5 194,-38.5 367,-38.5 367,-19.5 194,-19.5"/>
<text text-anchor="middle" x="280.5" y="-26.5" font-family="Helvetica,sans-Serif" font-size="10.00">Engine::setStartingArrangement</text>
</a>
</g>
</g>
<!-- Node1&#45;&gt;Node2 -->
<g id="edge1" class="edge">
<title>Node1&#45;&gt;Node2</title>
<path fill="none" stroke="midnightblue" d="M158.28,-29C166.67,-29 175.28,-29 183.85,-29"/>
<polygon fill="midnightblue" stroke="midnightblue" points="183.87,-32.5 193.87,-29 183.87,-25.5 183.87,-32.5"/>
</g>
<!-- Node3 -->
<g id="node3" class="node">
<title>Node3</title>
<g id="a_node3"><a xlink:href="classBoard.html#af74f0d4b43e5aa3faea16d7c6407b05e" target="_top" xlink:title="clear Очищает доску.">
<polygon fill="none" stroke="black" points="420.5,-38.5 420.5,-57.5 495.5,-57.5 495.5,-38.5 420.5,-38.5"/>
<text text-anchor="middle" x="458" y="-45.5" font-family="Helvetica,sans-Serif" font-size="10.00">Board::clear</text>
</a>
</g>
</g>
<!-- Node2&#45;&gt;Node3 -->
<g id="edge2" class="edge">
<title>Node2&#45;&gt;Node3</title>
<path fill="none" stroke="midnightblue" d="M367.19,-38.28C381.89,-39.87 396.66,-41.47 409.85,-42.9"/>
<polygon fill="midnightblue" stroke="midnightblue" points="409.75,-46.41 420.07,-44 410.5,-39.45 409.75,-46.41"/>
</g>
<!-- Node4 -->
<g id="node4" class="node">
<title>Node4</title>
<g id="a_node4"><a xlink:href="classBoard.html#a183ac960c959ed0df9b49314d0479703" target="_top" xlink:title="Устанавливает фигуру на доску.">
<polygon fill="none" stroke="black" points="403,-0.5 403,-19.5 513,-19.5 513,-0.5 403,-0.5"/>
<text text-anchor="middle" x="458" y="-7.5" font-family="Helvetica,sans-Serif" font-size="10.00">Board::setFigureOn</text>
</a>
</g>
</g>
<!-- Node2&#45;&gt;Node4 -->
<g id="edge3" class="edge">
<title>Node2&#45;&gt;Node4</title>
<path fill="none" stroke="midnightblue" d="M367.19,-19.72C375.85,-18.79 384.54,-17.84 392.92,-16.94"/>
<polygon fill="midnightblue" stroke="midnightblue" points="393.39,-20.41 402.96,-15.85 392.64,-13.45 393.39,-20.41"/>
</g>
</g>
</svg>
