<?xml version="1.0" encoding="UTF-8" standalone="no"?>
<!DOCTYPE svg PUBLIC "-//W3C//DTD SVG 1.1//EN"
 "http://www.w3.org/Graphics/SVG/1.1/DTD/svg11.dtd">
<!-- Generated by graphviz version 2.50.0 (0)
 -->
<!-- Title: Kinght Pages: 1 -->
<svg width="124pt" height="237pt"
 viewBox="0.00 0.00 124.00 237.00" xmlns="http://www.w3.org/2000/svg" xmlns:xlink="http://www.w3.org/1999/xlink">
<g id="graph0" class="graph" transform="scale(1 1) rotate(0) translate(4 233)">
<title>Kinght</title>
<!-- Node1 -->
<g id="node1" class="node">
<title>Node1</title>
<g id="a_node1"><a xlink:title="Конь.">
<polygon fill="#bfbfbf" stroke="black" points="9.5,-0.5 9.5,-68.5 106.5,-68.5 106.5,-0.5 9.5,-0.5"/>
<text text-anchor="middle" x="58" y="-56.5" font-family="Helvetica,sans-Serif" font-size="10.00">Kinght</text>
<polyline fill="none" stroke="black" points="9.5,-49.5 106.5,-49.5 "/>
<text text-anchor="middle" x="58" y="-37.5" font-family="Helvetica,sans-Serif" font-size="10.00"> </text>
<polyline fill="none" stroke="black" points="9.5,-30.5 106.5,-30.5 "/>
<text text-anchor="start" x="17.5" y="-18.5" font-family="Helvetica,sans-Serif" font-size="10.00">+ Kinght()</text>
<text text-anchor="start" x="17.5" y="-7.5" font-family="Helvetica,sans-Serif" font-size="10.00">+ getUnarySteps()</text>
</a>
</g>
</g>
<!-- Node2 -->
<g id="node2" class="node">
<title>Node2</title>
<g id="a_node2"><a xlink:href="classFigure.html" target="_top" xlink:title="Абстрактный класс фигуры.">
<polygon fill="none" stroke="black" points="0,-105.5 0,-228.5 116,-228.5 116,-105.5 0,-105.5"/>
<text text-anchor="middle" x="58" y="-216.5" font-family="Helvetica,sans-Serif" font-size="10.00">Figure</text>
<polyline fill="none" stroke="black" points="0,-209.5 116,-209.5 "/>
<text text-anchor="start" x="8" y="-197.5" font-family="Helvetica,sans-Serif" font-size="10.00"># b_price</text>
<text text-anchor="start" x="8" y="-186.5" font-family="Helvetica,sans-Serif" font-size="10.00"># possible_moves</text>
<text text-anchor="start" x="8" y="-175.5" font-family="Helvetica,sans-Serif" font-size="10.00"># b_color</text>
<polyline fill="none" stroke="black" points="0,-168.5 116,-168.5 "/>
<text text-anchor="start" x="8" y="-156.5" font-family="Helvetica,sans-Serif" font-size="10.00">+ Figure()</text>
<text text-anchor="start" x="8" y="-145.5" font-family="Helvetica,sans-Serif" font-size="10.00">+ getPrice()</text>
<text text-anchor="start" x="8" y="-134.5" font-family="Helvetica,sans-Serif" font-size="10.00">+ getUnarySteps()</text>
<text text-anchor="start" x="8" y="-123.5" font-family="Helvetica,sans-Serif" font-size="10.00">+ getPossibleMoves()</text>
<text text-anchor="start" x="8" y="-112.5" font-family="Helvetica,sans-Serif" font-size="10.00">+ getPossibleAttacks()</text>
</a>
</g>
</g>
<!-- Node2&#45;&gt;Node1 -->
<g id="edge1" class="edge">
<title>Node2&#45;&gt;Node1</title>
<path fill="none" stroke="midnightblue" d="M58,-95.24C58,-85.97 58,-76.84 58,-68.62"/>
<polygon fill="none" stroke="midnightblue" points="54.5,-95.33 58,-105.33 61.5,-95.33 54.5,-95.33"/>
</g>
</g>
</svg>
