<?xml version="1.0" encoding="UTF-8" standalone="no"?>
<!DOCTYPE svg PUBLIC "-//W3C//DTD SVG 1.1//EN"
 "http://www.w3.org/Graphics/SVG/1.1/DTD/svg11.dtd">
<!-- Generated by graphviz version 2.43.0 (0)
 -->
<!-- Title: Settings::changeMusicFlag Pages: 1 -->
<svg width="527pt" height="39pt"
 viewBox="0.00 0.00 527.00 39.00" xmlns="http://www.w3.org/2000/svg" xmlns:xlink="http://www.w3.org/1999/xlink">
<g id="graph0" class="graph" transform="scale(1 1) rotate(0) translate(4 35)">
<title>Settings::changeMusicFlag</title>
<!-- Node1 -->
<g id="node1" class="node">
<title>Node1</title>
<g id="a_node1"><a xlink:title="Сохранение изменений флага музыки">
<polygon fill="#bfbfbf" stroke="black" points="372,-6 372,-25 519,-25 519,-6 372,-6"/>
<text text-anchor="middle" x="445.5" y="-13" font-family="Helvetica,sans-Serif" font-size="10.00">Settings::changeMusicFlag</text>
</a>
</g>
</g>
<!-- Node2 -->
<g id="node2" class="node">
<title>Node2</title>
<g id="a_node2"><a xlink:href="classMainWindow.html#a6e4021087f5f5c353d8e5c89e3a737cf" target="_top" xlink:title=" ">
<polygon fill="none" stroke="black" points="184,-0.5 184,-30.5 336,-30.5 336,-0.5 184,-0.5"/>
<text text-anchor="start" x="192" y="-18.5" font-family="Helvetica,sans-Serif" font-size="10.00">MainWindow::connectMusic</text>
<text text-anchor="middle" x="260" y="-7.5" font-family="Helvetica,sans-Serif" font-size="10.00">FlagToStorage</text>
</a>
</g>
</g>
<!-- Node1&#45;&gt;Node2 -->
<g id="edge1" class="edge">
<title>Node1&#45;&gt;Node2</title>
<path fill="none" stroke="midnightblue" d="M361.91,-15.5C353.29,-15.5 344.55,-15.5 336.01,-15.5"/>
<polygon fill="midnightblue" stroke="midnightblue" points="361.98,-19 371.98,-15.5 361.98,-12 361.98,-19"/>
</g>
<!-- Node3 -->
<g id="node3" class="node">
<title>Node3</title>
<g id="a_node3"><a xlink:href="classMainWindow.html#a996c5a2b6f77944776856f08ec30858d" target="_top" xlink:title=" ">
<polygon fill="none" stroke="black" points="0,-6 0,-25 148,-25 148,-6 0,-6"/>
<text text-anchor="middle" x="74" y="-13" font-family="Helvetica,sans-Serif" font-size="10.00">MainWindow::MainWindow</text>
</a>
</g>
</g>
<!-- Node2&#45;&gt;Node3 -->
<g id="edge2" class="edge">
<title>Node2&#45;&gt;Node3</title>
<path fill="none" stroke="midnightblue" d="M173.84,-15.5C165.24,-15.5 156.55,-15.5 148.08,-15.5"/>
<polygon fill="midnightblue" stroke="midnightblue" points="173.89,-19 183.89,-15.5 173.89,-12 173.89,-19"/>
</g>
</g>
</svg>
