<?xml version="1.0" encoding="UTF-8" standalone="no"?>
<!DOCTYPE svg PUBLIC "-//W3C//DTD SVG 1.1//EN"
 "http://www.w3.org/Graphics/SVG/1.1/DTD/svg11.dtd">
<!-- Generated by graphviz version 2.43.0 (0)
 -->
<!-- Title: MainWindow::guiPressFigure Pages: 1 -->
<svg width="1122pt" height="470pt"
 viewBox="0.00 0.00 1122.00 469.50" xmlns="http://www.w3.org/2000/svg" xmlns:xlink="http://www.w3.org/1999/xlink">
<g id="graph0" class="graph" transform="scale(1 1) rotate(0) translate(4 465.5)">
<title>MainWindow::guiPressFigure</title>
<!-- Node1 -->
<g id="node1" class="node">
<title>Node1</title>
<g id="a_node1"><a xlink:title=" ">
<polygon fill="#bfbfbf" stroke="black" points="0,-373.5 0,-392.5 156,-392.5 156,-373.5 0,-373.5"/>
<text text-anchor="middle" x="78" y="-380.5" font-family="Helvetica,sans-Serif" font-size="10.00">MainWindow::guiPressFigure</text>
</a>
</g>
</g>
<!-- Node2 -->
<g id="node2" class="node">
<title>Node2</title>
<g id="a_node2"><a xlink:href="classEngine.html#afffac825472b73103b32f2d3e4555267" target="_top" xlink:title=" ">
<polygon fill="none" stroke="black" points="217.5,-390 217.5,-420 360.5,-420 360.5,-390 217.5,-390"/>
<text text-anchor="start" x="225.5" y="-408" font-family="Helvetica,sans-Serif" font-size="10.00">Engine::getPosibleAttacks</text>
<text text-anchor="middle" x="289" y="-397" font-family="Helvetica,sans-Serif" font-size="10.00">FigureFrom</text>
</a>
</g>
</g>
<!-- Node1&#45;&gt;Node2 -->
<g id="edge1" class="edge">
<title>Node1&#45;&gt;Node2</title>
<path fill="none" stroke="midnightblue" d="M156.23,-391.13C172.79,-392.87 190.34,-394.72 207.04,-396.48"/>
<polygon fill="midnightblue" stroke="midnightblue" points="207,-399.99 217.31,-397.56 207.73,-393.03 207,-399.99"/>
</g>
<!-- Node5 -->
<g id="node5" class="node">
<title>Node5</title>
<g id="a_node5"><a xlink:href="classEngine.html#ab4b084189c3f29e30a3a44ac0d5ed6b3" target="_top" xlink:title=" ">
<polygon fill="none" stroke="black" points="192,-351.5 192,-370.5 386,-370.5 386,-351.5 192,-351.5"/>
<text text-anchor="middle" x="289" y="-358.5" font-family="Helvetica,sans-Serif" font-size="10.00">Engine::getPosibleMovesFigureFrom</text>
</a>
</g>
</g>
<!-- Node1&#45;&gt;Node5 -->
<g id="edge4" class="edge">
<title>Node1&#45;&gt;Node5</title>
<path fill="none" stroke="midnightblue" d="M156.23,-374.87C166.45,-373.79 177.05,-372.68 187.59,-371.57"/>
<polygon fill="midnightblue" stroke="midnightblue" points="188.09,-375.04 197.66,-370.51 187.35,-368.08 188.09,-375.04"/>
</g>
<!-- Node3 -->
<g id="node3" class="node">
<title>Node3</title>
<g id="a_node3"><a xlink:href="classBoard.html#ac3f85f5b615feede6ea32745632203dd" target="_top" xlink:title=" ">
<polygon fill="none" stroke="black" points="422,-431 422,-461 571,-461 571,-431 422,-431"/>
<text text-anchor="start" x="430" y="-449" font-family="Helvetica,sans-Serif" font-size="10.00">Board::calculateFigureAfter</text>
<text text-anchor="middle" x="496.5" y="-438" font-family="Helvetica,sans-Serif" font-size="10.00">Taking</text>
</a>
</g>
</g>
<!-- Node2&#45;&gt;Node3 -->
<g id="edge2" class="edge">
<title>Node2&#45;&gt;Node3</title>
<path fill="none" stroke="midnightblue" d="M360.72,-419.11C377.22,-422.4 394.94,-425.94 411.94,-429.33"/>
<polygon fill="midnightblue" stroke="midnightblue" points="411.36,-432.78 421.85,-431.31 412.73,-425.92 411.36,-432.78"/>
</g>
<!-- Node4 -->
<g id="node4" class="node">
<title>Node4</title>
<g id="a_node4"><a xlink:href="classBoard.html#ab906dade3854d38f6354861a715fccac" target="_top" xlink:title="getBoo Возвращает доску.">
<polygon fill="none" stroke="black" points="995,-335.5 995,-354.5 1114,-354.5 1114,-335.5 995,-335.5"/>
<text text-anchor="middle" x="1054.5" y="-342.5" font-family="Helvetica,sans-Serif" font-size="10.00">Board::getBoardData</text>
</a>
</g>
</g>
<!-- Node2&#45;&gt;Node4 -->
<g id="edge3" class="edge">
<title>Node2&#45;&gt;Node4</title>
<path fill="none" stroke="midnightblue" d="M360.68,-404.6C483.12,-403.07 742.37,-396.19 959,-366 974.69,-363.81 991.63,-360.39 1006.78,-356.94"/>
<polygon fill="midnightblue" stroke="midnightblue" points="1008.01,-360.25 1016.95,-354.56 1006.41,-353.43 1008.01,-360.25"/>
</g>
<!-- Node5&#45;&gt;Node4 -->
<g id="edge5" class="edge">
<title>Node5&#45;&gt;Node4</title>
<path fill="none" stroke="midnightblue" d="M386.13,-360.52C516.11,-359.62 755.11,-357.07 959,-350 967.32,-349.71 976.05,-349.34 984.7,-348.93"/>
<polygon fill="midnightblue" stroke="midnightblue" points="984.97,-352.42 994.79,-348.44 984.63,-345.43 984.97,-352.42"/>
</g>
<!-- Node6 -->
<g id="node6" class="node">
<title>Node6</title>
<g id="a_node6"><a xlink:href="classEngine.html#a66f2b590d92c6e0fa99741f02a8a9a3f" target="_top" xlink:title="Проверяет возможность хода и перемещает фигуру.">
<polygon fill="none" stroke="black" points="455,-171.5 455,-190.5 538,-190.5 538,-171.5 455,-171.5"/>
<text text-anchor="middle" x="496.5" y="-178.5" font-family="Helvetica,sans-Serif" font-size="10.00">Engine::move</text>
</a>
</g>
</g>
<!-- Node5&#45;&gt;Node6 -->
<g id="edge6" class="edge">
<title>Node5&#45;&gt;Node6</title>
<path fill="none" stroke="midnightblue" d="M301.05,-351.32C334.5,-322.02 434.95,-234.04 476.84,-197.35"/>
<polygon fill="midnightblue" stroke="midnightblue" points="479.18,-199.95 484.4,-190.73 474.57,-194.68 479.18,-199.95"/>
</g>
<!-- Node6&#45;&gt;Node4 -->
<g id="edge13" class="edge">
<title>Node6&#45;&gt;Node4</title>
<path fill="none" stroke="midnightblue" d="M502.5,-190.81C515.68,-215.48 554.03,-280.09 607,-307 671.25,-339.65 876.37,-344.94 984.8,-345.38"/>
<polygon fill="midnightblue" stroke="midnightblue" points="984.98,-348.88 994.99,-345.4 985,-341.88 984.98,-348.88"/>
</g>
<!-- Node7 -->
<g id="node7" class="node">
<title>Node7</title>
<g id="a_node7"><a xlink:href="classEngine.html#a2b384a18565b9cdd85b52fed6d25ff0c" target="_top" xlink:title="Расчет преимущества игрока.">
<polygon fill="none" stroke="black" points="607,-267 607,-297 759,-297 759,-267 607,-267"/>
<text text-anchor="start" x="615" y="-285" font-family="Helvetica,sans-Serif" font-size="10.00">Engine::calculateAdvantage</text>
<text text-anchor="middle" x="683" y="-274" font-family="Helvetica,sans-Serif" font-size="10.00">White</text>
</a>
</g>
</g>
<!-- Node6&#45;&gt;Node7 -->
<g id="edge7" class="edge">
<title>Node6&#45;&gt;Node7</title>
<path fill="none" stroke="midnightblue" d="M508.95,-190.62C528.15,-206.34 568.51,-237.73 607,-257 611.49,-259.25 616.22,-261.36 621.04,-263.34"/>
<polygon fill="midnightblue" stroke="midnightblue" points="619.79,-266.6 630.38,-266.96 622.32,-260.08 619.79,-266.6"/>
</g>
<!-- Node11 -->
<g id="node11" class="node">
<title>Node11</title>
<g id="a_node11"><a xlink:href="engine_8cpp.html#a0aedf9d17abf2bab41a04d5beb4f4988" target="_top" xlink:title=" ">
<polygon fill="none" stroke="black" points="622.5,-228.5 622.5,-247.5 743.5,-247.5 743.5,-228.5 622.5,-228.5"/>
<text text-anchor="middle" x="683" y="-235.5" font-family="Helvetica,sans-Serif" font-size="10.00">checkStepOnPossible</text>
</a>
</g>
</g>
<!-- Node6&#45;&gt;Node11 -->
<g id="edge12" class="edge">
<title>Node6&#45;&gt;Node11</title>
<path fill="none" stroke="midnightblue" d="M522.96,-190.53C545.03,-198.63 577.89,-210.28 607,-219 615.05,-221.41 623.64,-223.78 632.02,-225.98"/>
<polygon fill="midnightblue" stroke="midnightblue" points="631.18,-229.37 641.73,-228.48 632.92,-222.59 631.18,-229.37"/>
</g>
<!-- Node12 -->
<g id="node12" class="node">
<title>Node12</title>
<g id="a_node12"><a xlink:href="classFigure.html#af27c0f2d5fe69cb9eb17380d3ba91d6a" target="_top" xlink:title="Получение цвета фигуры.">
<polygon fill="none" stroke="black" points="636,-190.5 636,-209.5 730,-209.5 730,-190.5 636,-190.5"/>
<text text-anchor="middle" x="683" y="-197.5" font-family="Helvetica,sans-Serif" font-size="10.00">Figure::getColor</text>
</a>
</g>
</g>
<!-- Node6&#45;&gt;Node12 -->
<g id="edge14" class="edge">
<title>Node6&#45;&gt;Node12</title>
<path fill="none" stroke="midnightblue" d="M538.45,-185.22C564.16,-187.87 597.68,-191.32 625.86,-194.22"/>
<polygon fill="midnightblue" stroke="midnightblue" points="625.67,-197.72 635.98,-195.26 626.39,-190.75 625.67,-197.72"/>
</g>
<!-- Node13 -->
<g id="node13" class="node">
<title>Node13</title>
<g id="a_node13"><a xlink:href="classBoard.html#a0bac43a8a2fc2aabc7e687eeedbe9f9e" target="_top" xlink:title="Возвращает фигуру, которая находится в ячейке поля с координатами coords.">
<polygon fill="none" stroke="black" points="634.5,-152.5 634.5,-171.5 731.5,-171.5 731.5,-152.5 634.5,-152.5"/>
<text text-anchor="middle" x="683" y="-159.5" font-family="Helvetica,sans-Serif" font-size="10.00">Board::getFigure</text>
</a>
</g>
</g>
<!-- Node6&#45;&gt;Node13 -->
<g id="edge15" class="edge">
<title>Node6&#45;&gt;Node13</title>
<path fill="none" stroke="midnightblue" d="M538.45,-176.78C563.69,-174.18 596.45,-170.81 624.3,-167.94"/>
<polygon fill="midnightblue" stroke="midnightblue" points="624.73,-171.42 634.32,-166.91 624.01,-164.45 624.73,-171.42"/>
</g>
<!-- Node14 -->
<g id="node14" class="node">
<title>Node14</title>
<g id="a_node14"><a xlink:href="classFigure.html#a12d36f015da3026f980f87a93210885a" target="_top" xlink:title="Получение возможных ходов атаки.">
<polygon fill="none" stroke="black" points="610,-114.5 610,-133.5 756,-133.5 756,-114.5 610,-114.5"/>
<text text-anchor="middle" x="683" y="-121.5" font-family="Helvetica,sans-Serif" font-size="10.00">Figure::getPossibleAttacks</text>
</a>
</g>
</g>
<!-- Node6&#45;&gt;Node14 -->
<g id="edge16" class="edge">
<title>Node6&#45;&gt;Node14</title>
<path fill="none" stroke="midnightblue" d="M522.96,-171.47C545.03,-163.37 577.89,-151.72 607,-143 615.05,-140.59 623.64,-138.22 632.02,-136.02"/>
<polygon fill="midnightblue" stroke="midnightblue" points="632.92,-139.41 641.73,-133.52 631.18,-132.63 632.92,-139.41"/>
</g>
<!-- Node15 -->
<g id="node15" class="node">
<title>Node15</title>
<g id="a_node15"><a xlink:href="classFigure.html#ac527b099db89b98b705eb74bed96c147" target="_top" xlink:title="Получение возможных ходов перемещения.">
<polygon fill="none" stroke="black" points="612.5,-76.5 612.5,-95.5 753.5,-95.5 753.5,-76.5 612.5,-76.5"/>
<text text-anchor="middle" x="683" y="-83.5" font-family="Helvetica,sans-Serif" font-size="10.00">Figure::getPossibleMoves</text>
</a>
</g>
</g>
<!-- Node6&#45;&gt;Node15 -->
<g id="edge17" class="edge">
<title>Node6&#45;&gt;Node15</title>
<path fill="none" stroke="midnightblue" d="M508.49,-171.32C527.34,-155.22 567.62,-122.94 607,-105 612.32,-102.57 618.01,-100.42 623.78,-98.53"/>
<polygon fill="midnightblue" stroke="midnightblue" points="624.96,-101.82 633.51,-95.56 622.93,-95.13 624.96,-101.82"/>
</g>
<!-- Node16 -->
<g id="node16" class="node">
<title>Node16</title>
<g id="a_node16"><a xlink:href="classFigure.html#aad86c6d796ac96d30f2a310c107fdbac" target="_top" xlink:title="Получение элементарных ходов.">
<polygon fill="none" stroke="black" points="620.5,-38.5 620.5,-57.5 745.5,-57.5 745.5,-38.5 620.5,-38.5"/>
<text text-anchor="middle" x="683" y="-45.5" font-family="Helvetica,sans-Serif" font-size="10.00">Figure::getUnarySteps</text>
</a>
</g>
</g>
<!-- Node6&#45;&gt;Node16 -->
<g id="edge18" class="edge">
<title>Node6&#45;&gt;Node16</title>
<path fill="none" stroke="midnightblue" d="M503.89,-171.32C519.01,-149.19 559.32,-94.73 607,-67 610.72,-64.83 614.69,-62.91 618.78,-61.21"/>
<polygon fill="midnightblue" stroke="midnightblue" points="620.33,-64.37 628.5,-57.62 617.9,-57.8 620.33,-64.37"/>
</g>
<!-- Node17 -->
<g id="node17" class="node">
<title>Node17</title>
<g id="a_node17"><a xlink:href="classBoard.html#a4ed8cf3fae283d3c88eb6b0dea9e9f0a" target="_top" xlink:title="Перемещает фигуру в board.">
<polygon fill="none" stroke="black" points="643.5,-0.5 643.5,-19.5 722.5,-19.5 722.5,-0.5 643.5,-0.5"/>
<text text-anchor="middle" x="683" y="-7.5" font-family="Helvetica,sans-Serif" font-size="10.00">Board::move</text>
</a>
</g>
</g>
<!-- Node6&#45;&gt;Node17 -->
<g id="edge19" class="edge">
<title>Node6&#45;&gt;Node17</title>
<path fill="none" stroke="midnightblue" d="M501.53,-171.38C513.38,-144.35 550.8,-67.23 607,-29 614.83,-23.67 624.04,-19.84 633.26,-17.08"/>
<polygon fill="midnightblue" stroke="midnightblue" points="634.43,-20.4 643.23,-14.49 632.67,-13.62 634.43,-20.4"/>
</g>
<!-- Node8 -->
<g id="node8" class="node">
<title>Node8</title>
<g id="a_node8"><a xlink:href="classEngine.html#a93442cf58f7239df6e2b5303b7b90cda" target="_top" xlink:title=" ">
<polygon fill="none" stroke="black" points="802,-278.5 802,-297.5 952,-297.5 952,-278.5 802,-278.5"/>
<text text-anchor="middle" x="877" y="-285.5" font-family="Helvetica,sans-Serif" font-size="10.00">Engine::enemyUnderAttack</text>
</a>
</g>
</g>
<!-- Node7&#45;&gt;Node8 -->
<g id="edge8" class="edge">
<title>Node7&#45;&gt;Node8</title>
<path fill="none" stroke="midnightblue" d="M759.06,-284.35C769.74,-284.68 780.78,-285.02 791.62,-285.36"/>
<polygon fill="midnightblue" stroke="midnightblue" points="791.84,-288.87 801.94,-285.69 792.05,-281.87 791.84,-288.87"/>
</g>
<!-- Node9 -->
<g id="node9" class="node">
<title>Node9</title>
<g id="a_node9"><a xlink:href="classEngine.html#af2c8028ccaf85425744ad55844765fac" target="_top" xlink:title="getData возвращает поле.">
<polygon fill="none" stroke="black" points="829.5,-240.5 829.5,-259.5 924.5,-259.5 924.5,-240.5 829.5,-240.5"/>
<text text-anchor="middle" x="877" y="-247.5" font-family="Helvetica,sans-Serif" font-size="10.00">Engine::getData</text>
</a>
</g>
</g>
<!-- Node7&#45;&gt;Node9 -->
<g id="edge9" class="edge">
<title>Node7&#45;&gt;Node9</title>
<path fill="none" stroke="midnightblue" d="M759.06,-269.49C779.12,-266.15 800.46,-262.59 819.34,-259.44"/>
<polygon fill="midnightblue" stroke="midnightblue" points="819.98,-262.89 829.27,-257.79 818.83,-255.98 819.98,-262.89"/>
</g>
<!-- Node10 -->
<g id="node10" class="node">
<title>Node10</title>
<g id="a_node10"><a xlink:href="classEngine.html#a9154a3995005939adcc56d46d8bd78b0" target="_top" xlink:title=" ">
<polygon fill="none" stroke="black" points="795,-202.5 795,-221.5 959,-221.5 959,-202.5 795,-202.5"/>
<text text-anchor="middle" x="877" y="-209.5" font-family="Helvetica,sans-Serif" font-size="10.00">Engine::quantityPossibleMove</text>
</a>
</g>
</g>
<!-- Node7&#45;&gt;Node10 -->
<g id="edge11" class="edge">
<title>Node7&#45;&gt;Node10</title>
<path fill="none" stroke="midnightblue" d="M736.08,-266.93C743.93,-264.01 751.79,-260.69 759,-257 776.56,-248 777.04,-239.19 795,-231 800.39,-228.54 806.13,-226.38 811.97,-224.49"/>
<polygon fill="midnightblue" stroke="midnightblue" points="813.26,-227.76 821.85,-221.56 811.27,-221.05 813.26,-227.76"/>
</g>
<!-- Node9&#45;&gt;Node4 -->
<g id="edge10" class="edge">
<title>Node9&#45;&gt;Node4</title>
<path fill="none" stroke="midnightblue" d="M924.64,-257.2C936.22,-259.99 948.35,-263.81 959,-269 989.85,-284.05 1019.73,-310.75 1037.37,-328.16"/>
<polygon fill="midnightblue" stroke="midnightblue" points="1035.05,-330.79 1044.57,-335.44 1040.02,-325.87 1035.05,-330.79"/>
</g>
</g>
</svg>
