<?xml version="1.0" encoding="UTF-8" standalone="no"?>
<!DOCTYPE svg PUBLIC "-//W3C//DTD SVG 1.1//EN"
 "http://www.w3.org/Graphics/SVG/1.1/DTD/svg11.dtd">
<!-- Generated by graphviz version 2.43.0 (0)
 -->
<!-- Title: MainWindow::MainWindow Pages: 1 -->
<svg width="1320pt" height="546pt"
 viewBox="0.00 0.00 1320.00 546.00" xmlns="http://www.w3.org/2000/svg" xmlns:xlink="http://www.w3.org/1999/xlink">
<g id="graph0" class="graph" transform="scale(1 1) rotate(0) translate(4 542)">
<title>MainWindow::MainWindow</title>
<!-- Node1 -->
<g id="node1" class="node">
<title>Node1</title>
<g id="a_node1"><a xlink:title=" ">
<polygon fill="#bfbfbf" stroke="black" points="0,-120.5 0,-139.5 148,-139.5 148,-120.5 0,-120.5"/>
<text text-anchor="middle" x="74" y="-127.5" font-family="Helvetica,sans-Serif" font-size="10.00">MainWindow::MainWindow</text>
</a>
</g>
</g>
<!-- Node2 -->
<g id="node2" class="node">
<title>Node2</title>
<g id="a_node2"><a xlink:href="classMainWindow.html#a85e58f13e52e2a2d01b0bbf87c1442e9" target="_top" xlink:title=" ">
<polygon fill="none" stroke="black" points="185.5,-257 185.5,-287 352.5,-287 352.5,-257 185.5,-257"/>
<text text-anchor="start" x="193.5" y="-275" font-family="Helvetica,sans-Serif" font-size="10.00">MainWindow::connectGuiMove</text>
<text text-anchor="middle" x="269" y="-264" font-family="Helvetica,sans-Serif" font-size="10.00">WithEngine</text>
</a>
</g>
</g>
<!-- Node1&#45;&gt;Node2 -->
<g id="edge1" class="edge">
<title>Node1&#45;&gt;Node2</title>
<path fill="none" stroke="midnightblue" d="M87.96,-139.54C118.72,-162.17 196.71,-219.55 239.25,-250.85"/>
<polygon fill="midnightblue" stroke="midnightblue" points="237.38,-253.82 247.51,-256.93 241.53,-248.18 237.38,-253.82"/>
</g>
<!-- Node17 -->
<g id="node17" class="node">
<title>Node17</title>
<g id="a_node17"><a xlink:href="classMainWindow.html#ac8e148d721ba666a05fe1422d14ebcd8" target="_top" xlink:title=" ">
<polygon fill="none" stroke="black" points="190,-115 190,-145 348,-145 348,-115 190,-115"/>
<text text-anchor="start" x="198" y="-133" font-family="Helvetica,sans-Serif" font-size="10.00">MainWindow::guiMousePress</text>
<text text-anchor="middle" x="269" y="-122" font-family="Helvetica,sans-Serif" font-size="10.00">Figure</text>
</a>
</g>
</g>
<!-- Node1&#45;&gt;Node17 -->
<g id="edge17" class="edge">
<title>Node1&#45;&gt;Node17</title>
<path fill="none" stroke="midnightblue" d="M148.24,-130C158.58,-130 169.31,-130 179.89,-130"/>
<polygon fill="midnightblue" stroke="midnightblue" points="179.99,-133.5 189.99,-130 179.99,-126.5 179.99,-133.5"/>
</g>
<!-- Node20 -->
<g id="node20" class="node">
<title>Node20</title>
<g id="a_node20"><a xlink:href="classMainWindow.html#adf52446f5b40a6b0045d04ccca523242" target="_top" xlink:title=" ">
<polygon fill="none" stroke="black" points="191,-164.5 191,-183.5 347,-183.5 347,-164.5 191,-164.5"/>
<text text-anchor="middle" x="269" y="-171.5" font-family="Helvetica,sans-Serif" font-size="10.00">MainWindow::guiPressFigure</text>
</a>
</g>
</g>
<!-- Node1&#45;&gt;Node20 -->
<g id="edge21" class="edge">
<title>Node1&#45;&gt;Node20</title>
<path fill="none" stroke="midnightblue" d="M116.4,-139.53C136.76,-144.2 161.66,-149.91 184,-155 194.27,-157.34 205.26,-159.83 215.78,-162.21"/>
<polygon fill="midnightblue" stroke="midnightblue" points="215.17,-165.66 225.69,-164.46 216.71,-158.84 215.17,-165.66"/>
</g>
<!-- Node22 -->
<g id="node22" class="node">
<title>Node22</title>
<g id="a_node22"><a xlink:href="classMainWindow.html#a4195422fe1346c1aa9c640715dfe73cb" target="_top" xlink:title=" ">
<polygon fill="none" stroke="black" points="190,-76.5 190,-95.5 348,-95.5 348,-76.5 190,-76.5"/>
<text text-anchor="middle" x="269" y="-83.5" font-family="Helvetica,sans-Serif" font-size="10.00">MainWindow::startNewGame</text>
</a>
</g>
</g>
<!-- Node1&#45;&gt;Node22 -->
<g id="edge26" class="edge">
<title>Node1&#45;&gt;Node22</title>
<path fill="none" stroke="midnightblue" d="M116.88,-120.45C146.09,-113.79 185.26,-104.86 216.4,-97.76"/>
<polygon fill="midnightblue" stroke="midnightblue" points="217.23,-101.16 226.2,-95.53 215.68,-94.34 217.23,-101.16"/>
</g>
<!-- Node27 -->
<g id="node27" class="node">
<title>Node27</title>
<g id="a_node27"><a xlink:href="classMainWindow.html#aaf47fc01862209102bc55bc5cca41ecb" target="_top" xlink:title="Менеджер окон, переключает QStacedWidget на тот виджет, номер которого ему передали.">
<polygon fill="none" stroke="black" points="184,-38.5 184,-57.5 354,-57.5 354,-38.5 184,-38.5"/>
<text text-anchor="middle" x="269" y="-45.5" font-family="Helvetica,sans-Serif" font-size="10.00">MainWindow::windowsManager</text>
</a>
</g>
</g>
<!-- Node1&#45;&gt;Node27 -->
<g id="edge32" class="edge">
<title>Node1&#45;&gt;Node27</title>
<path fill="none" stroke="midnightblue" d="M88.43,-120.43C108.36,-106.66 147.37,-81.35 184,-67 190.45,-64.47 197.33,-62.24 204.25,-60.27"/>
<polygon fill="midnightblue" stroke="midnightblue" points="205.63,-63.53 214.39,-57.58 203.83,-56.76 205.63,-63.53"/>
</g>
<!-- Node3 -->
<g id="node3" class="node">
<title>Node3</title>
<g id="a_node3"><a xlink:href="classEngine.html#acb6729165e26058f5dc442428f11b6be" target="_top" xlink:title=" ">
<polygon fill="none" stroke="black" points="446,-300.5 446,-319.5 528,-319.5 528,-300.5 446,-300.5"/>
<text text-anchor="middle" x="487" y="-307.5" font-family="Helvetica,sans-Serif" font-size="10.00">Engine::isEnd</text>
</a>
</g>
</g>
<!-- Node2&#45;&gt;Node3 -->
<g id="edge2" class="edge">
<title>Node2&#45;&gt;Node3</title>
<path fill="none" stroke="midnightblue" d="M352.58,-286.53C380.64,-291.46 411.12,-296.83 435.85,-301.18"/>
<polygon fill="midnightblue" stroke="midnightblue" points="435.27,-304.63 445.73,-302.91 436.48,-297.74 435.27,-304.63"/>
</g>
<!-- Node4 -->
<g id="node4" class="node">
<title>Node4</title>
<g id="a_node4"><a xlink:href="classEngine.html#a66f2b590d92c6e0fa99741f02a8a9a3f" target="_top" xlink:title="Проверяет возможность хода и перемещает фигуру.">
<polygon fill="none" stroke="black" points="653,-316.5 653,-335.5 736,-335.5 736,-316.5 653,-316.5"/>
<text text-anchor="middle" x="694.5" y="-323.5" font-family="Helvetica,sans-Serif" font-size="10.00">Engine::move</text>
</a>
</g>
</g>
<!-- Node2&#45;&gt;Node4 -->
<g id="edge3" class="edge">
<title>Node2&#45;&gt;Node4</title>
<path fill="none" stroke="midnightblue" d="M352.66,-271.42C416.39,-272.31 506.43,-276.49 584,-291 610.08,-295.88 638.6,-305.13 660,-312.9"/>
<polygon fill="midnightblue" stroke="midnightblue" points="659,-316.26 669.59,-316.45 661.43,-309.69 659,-316.26"/>
</g>
<!-- Node5 -->
<g id="node5" class="node">
<title>Node5</title>
<g id="a_node5"><a xlink:href="classEngine.html#a2b384a18565b9cdd85b52fed6d25ff0c" target="_top" xlink:title="Расчет преимущества игрока.">
<polygon fill="none" stroke="black" points="805,-393 805,-423 957,-423 957,-393 805,-393"/>
<text text-anchor="start" x="813" y="-411" font-family="Helvetica,sans-Serif" font-size="10.00">Engine::calculateAdvantage</text>
<text text-anchor="middle" x="881" y="-400" font-family="Helvetica,sans-Serif" font-size="10.00">White</text>
</a>
</g>
</g>
<!-- Node4&#45;&gt;Node5 -->
<g id="edge4" class="edge">
<title>Node4&#45;&gt;Node5</title>
<path fill="none" stroke="midnightblue" d="M711.8,-335.53C732.86,-347.59 770.86,-368.53 805,-383 810.34,-385.26 815.97,-387.46 821.63,-389.56"/>
<polygon fill="midnightblue" stroke="midnightblue" points="820.57,-392.89 831.17,-392.97 822.93,-386.3 820.57,-392.89"/>
</g>
<!-- Node8 -->
<g id="node8" class="node">
<title>Node8</title>
<g id="a_node8"><a xlink:href="classBoard.html#ab906dade3854d38f6354861a715fccac" target="_top" xlink:title="getBoo Возвращает доску.">
<polygon fill="none" stroke="black" points="1193,-262.5 1193,-281.5 1312,-281.5 1312,-262.5 1193,-262.5"/>
<text text-anchor="middle" x="1252.5" y="-269.5" font-family="Helvetica,sans-Serif" font-size="10.00">Board::getBoardData</text>
</a>
</g>
</g>
<!-- Node4&#45;&gt;Node8 -->
<g id="edge10" class="edge">
<title>Node4&#45;&gt;Node8</title>
<path fill="none" stroke="midnightblue" d="M701.42,-335.57C715.85,-357.83 755.28,-412.74 805,-433 830.9,-443.55 1141.62,-438.88 1157,-430 1209.71,-399.58 1236.29,-327.02 1246.45,-291.82"/>
<polygon fill="midnightblue" stroke="midnightblue" points="1249.92,-292.37 1249.18,-281.81 1243.17,-290.53 1249.92,-292.37"/>
</g>
<!-- Node10 -->
<g id="node10" class="node">
<title>Node10</title>
<g id="a_node10"><a xlink:href="engine_8cpp.html#a0aedf9d17abf2bab41a04d5beb4f4988" target="_top" xlink:title=" ">
<polygon fill="none" stroke="black" points="820.5,-354.5 820.5,-373.5 941.5,-373.5 941.5,-354.5 820.5,-354.5"/>
<text text-anchor="middle" x="881" y="-361.5" font-family="Helvetica,sans-Serif" font-size="10.00">checkStepOnPossible</text>
</a>
</g>
</g>
<!-- Node4&#45;&gt;Node10 -->
<g id="edge9" class="edge">
<title>Node4&#45;&gt;Node10</title>
<path fill="none" stroke="midnightblue" d="M736.45,-334.43C762.07,-339.71 795.44,-346.58 823.55,-352.37"/>
<polygon fill="midnightblue" stroke="midnightblue" points="823.15,-355.86 833.65,-354.45 824.56,-349.01 823.15,-355.86"/>
</g>
<!-- Node11 -->
<g id="node11" class="node">
<title>Node11</title>
<g id="a_node11"><a xlink:href="classFigure.html#af27c0f2d5fe69cb9eb17380d3ba91d6a" target="_top" xlink:title="Получение цвета фигуры.">
<polygon fill="none" stroke="black" points="834,-316.5 834,-335.5 928,-335.5 928,-316.5 834,-316.5"/>
<text text-anchor="middle" x="881" y="-323.5" font-family="Helvetica,sans-Serif" font-size="10.00">Figure::getColor</text>
</a>
</g>
</g>
<!-- Node4&#45;&gt;Node11 -->
<g id="edge11" class="edge">
<title>Node4&#45;&gt;Node11</title>
<path fill="none" stroke="midnightblue" d="M736.45,-326C762.16,-326 795.68,-326 823.86,-326"/>
<polygon fill="midnightblue" stroke="midnightblue" points="823.98,-329.5 833.98,-326 823.98,-322.5 823.98,-329.5"/>
</g>
<!-- Node12 -->
<g id="node12" class="node">
<title>Node12</title>
<g id="a_node12"><a xlink:href="classBoard.html#a0bac43a8a2fc2aabc7e687eeedbe9f9e" target="_top" xlink:title="Возвращает фигуру, которая находится в ячейке поля с координатами coords.">
<polygon fill="none" stroke="black" points="832.5,-278.5 832.5,-297.5 929.5,-297.5 929.5,-278.5 832.5,-278.5"/>
<text text-anchor="middle" x="881" y="-285.5" font-family="Helvetica,sans-Serif" font-size="10.00">Board::getFigure</text>
</a>
</g>
</g>
<!-- Node4&#45;&gt;Node12 -->
<g id="edge12" class="edge">
<title>Node4&#45;&gt;Node12</title>
<path fill="none" stroke="midnightblue" d="M736.45,-317.57C762.07,-312.29 795.44,-305.42 823.55,-299.63"/>
<polygon fill="midnightblue" stroke="midnightblue" points="824.56,-302.99 833.65,-297.55 823.15,-296.14 824.56,-302.99"/>
</g>
<!-- Node13 -->
<g id="node13" class="node">
<title>Node13</title>
<g id="a_node13"><a xlink:href="classFigure.html#a12d36f015da3026f980f87a93210885a" target="_top" xlink:title="Получение возможных ходов атаки.">
<polygon fill="none" stroke="black" points="808,-240.5 808,-259.5 954,-259.5 954,-240.5 808,-240.5"/>
<text text-anchor="middle" x="881" y="-247.5" font-family="Helvetica,sans-Serif" font-size="10.00">Figure::getPossibleAttacks</text>
</a>
</g>
</g>
<!-- Node4&#45;&gt;Node13 -->
<g id="edge13" class="edge">
<title>Node4&#45;&gt;Node13</title>
<path fill="none" stroke="midnightblue" d="M711.28,-316.29C732.09,-303.84 770.15,-282.28 805,-269 811.41,-266.56 818.25,-264.33 825.08,-262.34"/>
<polygon fill="midnightblue" stroke="midnightblue" points="826.35,-265.62 835.05,-259.58 824.48,-258.87 826.35,-265.62"/>
</g>
<!-- Node14 -->
<g id="node14" class="node">
<title>Node14</title>
<g id="a_node14"><a xlink:href="classFigure.html#ac527b099db89b98b705eb74bed96c147" target="_top" xlink:title="Получение возможных ходов перемещения.">
<polygon fill="none" stroke="black" points="810.5,-202.5 810.5,-221.5 951.5,-221.5 951.5,-202.5 810.5,-202.5"/>
<text text-anchor="middle" x="881" y="-209.5" font-family="Helvetica,sans-Serif" font-size="10.00">Figure::getPossibleMoves</text>
</a>
</g>
</g>
<!-- Node4&#45;&gt;Node14 -->
<g id="edge14" class="edge">
<title>Node4&#45;&gt;Node14</title>
<path fill="none" stroke="midnightblue" d="M703.78,-316.26C720.74,-296.95 761.5,-253.72 805,-231 809.5,-228.65 814.3,-226.58 819.22,-224.76"/>
<polygon fill="midnightblue" stroke="midnightblue" points="820.42,-228.05 828.78,-221.55 818.19,-221.41 820.42,-228.05"/>
</g>
<!-- Node15 -->
<g id="node15" class="node">
<title>Node15</title>
<g id="a_node15"><a xlink:href="classFigure.html#aad86c6d796ac96d30f2a310c107fdbac" target="_top" xlink:title="Получение элементарных ходов.">
<polygon fill="none" stroke="black" points="818.5,-518.5 818.5,-537.5 943.5,-537.5 943.5,-518.5 818.5,-518.5"/>
<text text-anchor="middle" x="881" y="-525.5" font-family="Helvetica,sans-Serif" font-size="10.00">Figure::getUnarySteps</text>
</a>
</g>
</g>
<!-- Node4&#45;&gt;Node15 -->
<g id="edge15" class="edge">
<title>Node4&#45;&gt;Node15</title>
<path fill="none" stroke="midnightblue" d="M698.38,-335.77C707.94,-366.5 741.74,-461.91 805,-509 807.51,-510.86 810.17,-512.55 812.96,-514.07"/>
<polygon fill="midnightblue" stroke="midnightblue" points="811.62,-517.31 822.16,-518.38 814.59,-510.97 811.62,-517.31"/>
</g>
<!-- Node16 -->
<g id="node16" class="node">
<title>Node16</title>
<g id="a_node16"><a xlink:href="classBoard.html#a4ed8cf3fae283d3c88eb6b0dea9e9f0a" target="_top" xlink:title="Перемещает фигуру в board.">
<polygon fill="none" stroke="black" points="841.5,-480.5 841.5,-499.5 920.5,-499.5 920.5,-480.5 841.5,-480.5"/>
<text text-anchor="middle" x="881" y="-487.5" font-family="Helvetica,sans-Serif" font-size="10.00">Board::move</text>
</a>
</g>
</g>
<!-- Node4&#45;&gt;Node16 -->
<g id="edge16" class="edge">
<title>Node4&#45;&gt;Node16</title>
<path fill="none" stroke="midnightblue" d="M700.43,-335.78C713.72,-361.16 752.84,-429.67 805,-466 812.99,-471.57 822.35,-475.89 831.68,-479.24"/>
<polygon fill="midnightblue" stroke="midnightblue" points="830.76,-482.62 841.35,-482.38 832.92,-475.96 830.76,-482.62"/>
</g>
<!-- Node6 -->
<g id="node6" class="node">
<title>Node6</title>
<g id="a_node6"><a xlink:href="classEngine.html#a93442cf58f7239df6e2b5303b7b90cda" target="_top" xlink:title=" ">
<polygon fill="none" stroke="black" points="1000,-401.5 1000,-420.5 1150,-420.5 1150,-401.5 1000,-401.5"/>
<text text-anchor="middle" x="1075" y="-408.5" font-family="Helvetica,sans-Serif" font-size="10.00">Engine::enemyUnderAttack</text>
</a>
</g>
</g>
<!-- Node5&#45;&gt;Node6 -->
<g id="edge5" class="edge">
<title>Node5&#45;&gt;Node6</title>
<path fill="none" stroke="midnightblue" d="M957.06,-409.17C967.74,-409.34 978.78,-409.51 989.62,-409.68"/>
<polygon fill="midnightblue" stroke="midnightblue" points="989.89,-413.19 999.94,-409.84 990,-406.19 989.89,-413.19"/>
</g>
<!-- Node7 -->
<g id="node7" class="node">
<title>Node7</title>
<g id="a_node7"><a xlink:href="classEngine.html#af2c8028ccaf85425744ad55844765fac" target="_top" xlink:title="getData возвращает поле.">
<polygon fill="none" stroke="black" points="1027.5,-363.5 1027.5,-382.5 1122.5,-382.5 1122.5,-363.5 1027.5,-363.5"/>
<text text-anchor="middle" x="1075" y="-370.5" font-family="Helvetica,sans-Serif" font-size="10.00">Engine::getData</text>
</a>
</g>
</g>
<!-- Node5&#45;&gt;Node7 -->
<g id="edge6" class="edge">
<title>Node5&#45;&gt;Node7</title>
<path fill="none" stroke="midnightblue" d="M957.06,-394.32C977.12,-390.66 998.46,-386.77 1017.34,-383.33"/>
<polygon fill="midnightblue" stroke="midnightblue" points="1018.06,-386.76 1027.27,-381.52 1016.8,-379.87 1018.06,-386.76"/>
</g>
<!-- Node9 -->
<g id="node9" class="node">
<title>Node9</title>
<g id="a_node9"><a xlink:href="classEngine.html#a9154a3995005939adcc56d46d8bd78b0" target="_top" xlink:title=" ">
<polygon fill="none" stroke="black" points="993,-325.5 993,-344.5 1157,-344.5 1157,-325.5 993,-325.5"/>
<text text-anchor="middle" x="1075" y="-332.5" font-family="Helvetica,sans-Serif" font-size="10.00">Engine::quantityPossibleMove</text>
</a>
</g>
</g>
<!-- Node5&#45;&gt;Node9 -->
<g id="edge8" class="edge">
<title>Node5&#45;&gt;Node9</title>
<path fill="none" stroke="midnightblue" d="M935.05,-392.96C942.61,-390.07 950.13,-386.75 957,-383 975.03,-373.15 974.54,-363.02 993,-354 997.95,-351.58 1003.22,-349.47 1008.61,-347.61"/>
<polygon fill="midnightblue" stroke="midnightblue" points="1009.89,-350.88 1018.39,-344.55 1007.8,-344.2 1009.89,-350.88"/>
</g>
<!-- Node7&#45;&gt;Node8 -->
<g id="edge7" class="edge">
<title>Node7&#45;&gt;Node8</title>
<path fill="none" stroke="midnightblue" d="M1122.78,-366.07C1134.35,-363.28 1146.45,-359.39 1157,-354 1189.18,-337.55 1219.45,-307.85 1236.7,-289.06"/>
<polygon fill="midnightblue" stroke="midnightblue" points="1239.39,-291.3 1243.46,-281.52 1234.18,-286.63 1239.39,-291.3"/>
</g>
<!-- Node18 -->
<g id="node18" class="node">
<title>Node18</title>
<g id="a_node18"><a xlink:href="classEngine.html#afffac825472b73103b32f2d3e4555267" target="_top" xlink:title=" ">
<polygon fill="none" stroke="black" points="415.5,-115 415.5,-145 558.5,-145 558.5,-115 415.5,-115"/>
<text text-anchor="start" x="423.5" y="-133" font-family="Helvetica,sans-Serif" font-size="10.00">Engine::getPosibleAttacks</text>
<text text-anchor="middle" x="487" y="-122" font-family="Helvetica,sans-Serif" font-size="10.00">FigureFrom</text>
</a>
</g>
</g>
<!-- Node17&#45;&gt;Node18 -->
<g id="edge18" class="edge">
<title>Node17&#45;&gt;Node18</title>
<path fill="none" stroke="midnightblue" d="M348.29,-130C366.72,-130 386.42,-130 404.97,-130"/>
<polygon fill="midnightblue" stroke="midnightblue" points="405.15,-133.5 415.15,-130 405.15,-126.5 405.15,-133.5"/>
</g>
<!-- Node18&#45;&gt;Node8 -->
<g id="edge20" class="edge">
<title>Node18&#45;&gt;Node8</title>
<path fill="none" stroke="midnightblue" d="M558.69,-123.59C684.46,-115 953.03,-109.57 1157,-195 1189.16,-208.47 1219.07,-236.5 1236.3,-254.76"/>
<polygon fill="midnightblue" stroke="midnightblue" points="1233.95,-257.38 1243.29,-262.38 1239.11,-252.65 1233.95,-257.38"/>
</g>
<!-- Node19 -->
<g id="node19" class="node">
<title>Node19</title>
<g id="a_node19"><a xlink:href="classBoard.html#ac3f85f5b615feede6ea32745632203dd" target="_top" xlink:title=" ">
<polygon fill="none" stroke="black" points="620,-77 620,-107 769,-107 769,-77 620,-77"/>
<text text-anchor="start" x="628" y="-95" font-family="Helvetica,sans-Serif" font-size="10.00">Board::calculateFigureAfter</text>
<text text-anchor="middle" x="694.5" y="-84" font-family="Helvetica,sans-Serif" font-size="10.00">Taking</text>
</a>
</g>
</g>
<!-- Node18&#45;&gt;Node19 -->
<g id="edge19" class="edge">
<title>Node18&#45;&gt;Node19</title>
<path fill="none" stroke="midnightblue" d="M558.72,-116.92C575.22,-113.87 592.94,-110.59 609.94,-107.45"/>
<polygon fill="midnightblue" stroke="midnightblue" points="610.65,-110.88 619.85,-105.62 609.38,-104 610.65,-110.88"/>
</g>
<!-- Node20&#45;&gt;Node18 -->
<g id="edge22" class="edge">
<title>Node20&#45;&gt;Node18</title>
<path fill="none" stroke="midnightblue" d="M316.87,-164.45C342.73,-159.18 375.57,-152.5 405.41,-146.42"/>
<polygon fill="midnightblue" stroke="midnightblue" points="406.3,-149.81 415.4,-144.38 404.91,-142.95 406.3,-149.81"/>
</g>
<!-- Node21 -->
<g id="node21" class="node">
<title>Node21</title>
<g id="a_node21"><a xlink:href="classEngine.html#ab4b084189c3f29e30a3a44ac0d5ed6b3" target="_top" xlink:title=" ">
<polygon fill="none" stroke="black" points="390,-164.5 390,-183.5 584,-183.5 584,-164.5 390,-164.5"/>
<text text-anchor="middle" x="487" y="-171.5" font-family="Helvetica,sans-Serif" font-size="10.00">Engine::getPosibleMovesFigureFrom</text>
</a>
</g>
</g>
<!-- Node20&#45;&gt;Node21 -->
<g id="edge23" class="edge">
<title>Node20&#45;&gt;Node21</title>
<path fill="none" stroke="midnightblue" d="M347.07,-174C357.64,-174 368.65,-174 379.63,-174"/>
<polygon fill="midnightblue" stroke="midnightblue" points="379.7,-177.5 389.7,-174 379.7,-170.5 379.7,-177.5"/>
</g>
<!-- Node21&#45;&gt;Node4 -->
<g id="edge25" class="edge">
<title>Node21&#45;&gt;Node4</title>
<path fill="none" stroke="midnightblue" d="M500.85,-183.51C535.31,-208.99 629.98,-279.02 672.43,-310.41"/>
<polygon fill="midnightblue" stroke="midnightblue" points="670.53,-313.36 680.65,-316.5 674.69,-307.73 670.53,-313.36"/>
</g>
<!-- Node21&#45;&gt;Node8 -->
<g id="edge24" class="edge">
<title>Node21&#45;&gt;Node8</title>
<path fill="none" stroke="midnightblue" d="M584.26,-171.7C679.48,-170.88 829.11,-173.5 957,-193 1051.34,-207.38 1158.86,-240.69 1214.21,-259.13"/>
<polygon fill="midnightblue" stroke="midnightblue" points="1213.33,-262.53 1223.92,-262.39 1215.56,-255.89 1213.33,-262.53"/>
</g>
<!-- Node23 -->
<g id="node23" class="node">
<title>Node23</title>
<g id="a_node23"><a xlink:href="classEngine.html#a7e19f1f9eb9e6ec51f646bb0a94dd1d6" target="_top" xlink:title="clearBoard очищает поле.">
<polygon fill="none" stroke="black" points="433,-76.5 433,-95.5 541,-95.5 541,-76.5 433,-76.5"/>
<text text-anchor="middle" x="487" y="-83.5" font-family="Helvetica,sans-Serif" font-size="10.00">Engine::clearBoard</text>
</a>
</g>
</g>
<!-- Node22&#45;&gt;Node23 -->
<g id="edge27" class="edge">
<title>Node22&#45;&gt;Node23</title>
<path fill="none" stroke="midnightblue" d="M348.29,-86C372.79,-86 399.51,-86 422.83,-86"/>
<polygon fill="midnightblue" stroke="midnightblue" points="422.95,-89.5 432.95,-86 422.95,-82.5 422.95,-89.5"/>
</g>
<!-- Node25 -->
<g id="node25" class="node">
<title>Node25</title>
<g id="a_node25"><a xlink:href="classEngine.html#a9027b51e4922e147b8ae3b50348c69af" target="_top" xlink:title="Базовая расстановка фигур на поле.">
<polygon fill="none" stroke="black" points="400.5,-38.5 400.5,-57.5 573.5,-57.5 573.5,-38.5 400.5,-38.5"/>
<text text-anchor="middle" x="487" y="-45.5" font-family="Helvetica,sans-Serif" font-size="10.00">Engine::setStartingArrangement</text>
</a>
</g>
</g>
<!-- Node22&#45;&gt;Node25 -->
<g id="edge29" class="edge">
<title>Node22&#45;&gt;Node25</title>
<path fill="none" stroke="midnightblue" d="M324.23,-76.46C353.88,-71.24 390.8,-64.75 421.88,-59.28"/>
<polygon fill="midnightblue" stroke="midnightblue" points="422.51,-62.72 431.75,-57.54 421.3,-55.83 422.51,-62.72"/>
</g>
<!-- Node24 -->
<g id="node24" class="node">
<title>Node24</title>
<g id="a_node24"><a xlink:href="classBoard.html#af74f0d4b43e5aa3faea16d7c6407b05e" target="_top" xlink:title="clear Очищает доску.">
<polygon fill="none" stroke="black" points="657,-38.5 657,-57.5 732,-57.5 732,-38.5 657,-38.5"/>
<text text-anchor="middle" x="694.5" y="-45.5" font-family="Helvetica,sans-Serif" font-size="10.00">Board::clear</text>
</a>
</g>
</g>
<!-- Node23&#45;&gt;Node24 -->
<g id="edge28" class="edge">
<title>Node23&#45;&gt;Node24</title>
<path fill="none" stroke="midnightblue" d="M539.59,-76.46C572.53,-70.37 614.88,-62.54 646.81,-56.63"/>
<polygon fill="midnightblue" stroke="midnightblue" points="647.59,-60.05 656.79,-54.79 646.32,-53.16 647.59,-60.05"/>
</g>
<!-- Node25&#45;&gt;Node24 -->
<g id="edge30" class="edge">
<title>Node25&#45;&gt;Node24</title>
<path fill="none" stroke="midnightblue" d="M573.66,-48C598.65,-48 625.02,-48 646.65,-48"/>
<polygon fill="midnightblue" stroke="midnightblue" points="646.85,-51.5 656.85,-48 646.85,-44.5 646.85,-51.5"/>
</g>
<!-- Node26 -->
<g id="node26" class="node">
<title>Node26</title>
<g id="a_node26"><a xlink:href="classBoard.html#a183ac960c959ed0df9b49314d0479703" target="_top" xlink:title="Устанавливает фигуру на доску.">
<polygon fill="none" stroke="black" points="639.5,-0.5 639.5,-19.5 749.5,-19.5 749.5,-0.5 639.5,-0.5"/>
<text text-anchor="middle" x="694.5" y="-7.5" font-family="Helvetica,sans-Serif" font-size="10.00">Board::setFigureOn</text>
</a>
</g>
</g>
<!-- Node25&#45;&gt;Node26 -->
<g id="edge31" class="edge">
<title>Node25&#45;&gt;Node26</title>
<path fill="none" stroke="midnightblue" d="M539.59,-38.46C567.56,-33.29 602.32,-26.86 631.73,-21.42"/>
<polygon fill="midnightblue" stroke="midnightblue" points="632.69,-24.8 641.89,-19.54 631.42,-17.92 632.69,-24.8"/>
</g>
</g>
</svg>
