<?xml version="1.0" encoding="UTF-8" standalone="no"?>
<!DOCTYPE svg PUBLIC "-//W3C//DTD SVG 1.1//EN"
 "http://www.w3.org/Graphics/SVG/1.1/DTD/svg11.dtd">
<!-- Generated by graphviz version 2.43.0 (0)
 -->
<!-- Title: Engine::calculateAdvantageWhite Pages: 1 -->
<svg width="476pt" height="104pt"
 viewBox="0.00 0.00 476.00 104.00" xmlns="http://www.w3.org/2000/svg" xmlns:xlink="http://www.w3.org/1999/xlink">
<g id="graph0" class="graph" transform="scale(1 1) rotate(0) translate(4 100)">
<title>Engine::calculateAdvantageWhite</title>
<!-- Node1 -->
<g id="node1" class="node">
<title>Node1</title>
<g id="a_node1"><a xlink:title="Расчет преимущества игрока.">
<polygon fill="#bfbfbf" stroke="black" points="0,-33 0,-63 152,-63 152,-33 0,-33"/>
<text text-anchor="start" x="8" y="-51" font-family="Helvetica,sans-Serif" font-size="10.00">Engine::calculateAdvantage</text>
<text text-anchor="middle" x="76" y="-40" font-family="Helvetica,sans-Serif" font-size="10.00">White</text>
</a>
</g>
</g>
<!-- Node2 -->
<g id="node2" class="node">
<title>Node2</title>
<g id="a_node2"><a xlink:href="engine_8cpp.html#a8bc4d4b36aae439f5e6e3ce34903c487" target="_top" xlink:title=" ">
<polygon fill="none" stroke="black" points="195,-76.5 195,-95.5 306,-95.5 306,-76.5 195,-76.5"/>
<text text-anchor="middle" x="250.5" y="-83.5" font-family="Helvetica,sans-Serif" font-size="10.00">enemyUnderAttack</text>
</a>
</g>
</g>
<!-- Node1&#45;&gt;Node2 -->
<g id="edge1" class="edge">
<title>Node1&#45;&gt;Node2</title>
<path fill="none" stroke="midnightblue" d="M145.18,-63.02C162.26,-66.78 180.32,-70.76 196.54,-74.33"/>
<polygon fill="midnightblue" stroke="midnightblue" points="195.85,-77.77 206.37,-76.5 197.36,-70.93 195.85,-77.77"/>
</g>
<!-- Node3 -->
<g id="node3" class="node">
<title>Node3</title>
<g id="a_node3"><a xlink:href="classEngine.html#af2c8028ccaf85425744ad55844765fac" target="_top" xlink:title=" ">
<polygon fill="none" stroke="black" points="203,-38.5 203,-57.5 298,-57.5 298,-38.5 203,-38.5"/>
<text text-anchor="middle" x="250.5" y="-45.5" font-family="Helvetica,sans-Serif" font-size="10.00">Engine::getData</text>
</a>
</g>
</g>
<!-- Node1&#45;&gt;Node3 -->
<g id="edge2" class="edge">
<title>Node1&#45;&gt;Node3</title>
<path fill="none" stroke="midnightblue" d="M152.16,-48C165.77,-48 179.76,-48 192.73,-48"/>
<polygon fill="midnightblue" stroke="midnightblue" points="192.89,-51.5 202.89,-48 192.89,-44.5 192.89,-51.5"/>
</g>
<!-- Node5 -->
<g id="node5" class="node">
<title>Node5</title>
<g id="a_node5"><a xlink:href="engine_8cpp.html#a695770becb73d90aa349fd87533b435e" target="_top" xlink:title=" ">
<polygon fill="none" stroke="black" points="188,-0.5 188,-19.5 313,-19.5 313,-0.5 188,-0.5"/>
<text text-anchor="middle" x="250.5" y="-7.5" font-family="Helvetica,sans-Serif" font-size="10.00">quantityPossibleMove</text>
</a>
</g>
</g>
<!-- Node1&#45;&gt;Node5 -->
<g id="edge4" class="edge">
<title>Node1&#45;&gt;Node5</title>
<path fill="none" stroke="midnightblue" d="M145.18,-32.98C162.26,-29.22 180.32,-25.24 196.54,-21.67"/>
<polygon fill="midnightblue" stroke="midnightblue" points="197.36,-25.07 206.37,-19.5 195.85,-18.23 197.36,-25.07"/>
</g>
<!-- Node4 -->
<g id="node4" class="node">
<title>Node4</title>
<g id="a_node4"><a xlink:href="classBoard.html#ab906dade3854d38f6354861a715fccac" target="_top" xlink:title=" ">
<polygon fill="none" stroke="black" points="349,-38.5 349,-57.5 468,-57.5 468,-38.5 349,-38.5"/>
<text text-anchor="middle" x="408.5" y="-45.5" font-family="Helvetica,sans-Serif" font-size="10.00">Board::getBoardData</text>
</a>
</g>
</g>
<!-- Node3&#45;&gt;Node4 -->
<g id="edge3" class="edge">
<title>Node3&#45;&gt;Node4</title>
<path fill="none" stroke="midnightblue" d="M298.31,-48C310.96,-48 324.93,-48 338.53,-48"/>
<polygon fill="midnightblue" stroke="midnightblue" points="338.83,-51.5 348.83,-48 338.83,-44.5 338.83,-51.5"/>
</g>
</g>
</svg>
