<?xml version="1.0" encoding="UTF-8" standalone="no"?>
<!DOCTYPE svg PUBLIC "-//W3C//DTD SVG 1.1//EN"
 "http://www.w3.org/Graphics/SVG/1.1/DTD/svg11.dtd">
<!-- Generated by graphviz version 2.43.0 (0)
 -->
<!-- Title: Pawn Pages: 1 -->
<svg width="136pt" height="303pt"
 viewBox="0.00 0.00 136.00 303.00" xmlns="http://www.w3.org/2000/svg" xmlns:xlink="http://www.w3.org/1999/xlink">
<g id="graph0" class="graph" transform="scale(1 1) rotate(0) translate(4 299)">
<title>Pawn</title>
<!-- Node1 -->
<g id="node1" class="node">
<title>Node1</title>
<g id="a_node1"><a xlink:title="Пешка.">
<polygon fill="#bfbfbf" stroke="black" points="0,-0.5 0,-79.5 128,-79.5 128,-0.5 0,-0.5"/>
<text text-anchor="middle" x="64" y="-67.5" font-family="Helvetica,sans-Serif" font-size="10.00">Pawn</text>
<polyline fill="none" stroke="black" points="0,-60.5 128,-60.5 "/>
<text text-anchor="middle" x="64" y="-48.5" font-family="Helvetica,sans-Serif" font-size="10.00"> </text>
<polyline fill="none" stroke="black" points="0,-41.5 128,-41.5 "/>
<text text-anchor="start" x="8" y="-29.5" font-family="Helvetica,sans-Serif" font-size="10.00">+ Pawn()</text>
<text text-anchor="start" x="8" y="-18.5" font-family="Helvetica,sans-Serif" font-size="10.00">+ Pawn()</text>
<text text-anchor="start" x="8" y="-7.5" font-family="Helvetica,sans-Serif" font-size="10.00">+ getPossibleAttacks()</text>
</a>
</g>
</g>
<!-- Node2 -->
<g id="node2" class="node">
<title>Node2</title>
<g id="a_node2"><a xlink:href="classFigure.html" target="_top" xlink:title="Абстрактный класс фигуры.">
<polygon fill="none" stroke="black" points="0,-116.5 0,-294.5 128,-294.5 128,-116.5 0,-116.5"/>
<text text-anchor="middle" x="64" y="-282.5" font-family="Helvetica,sans-Serif" font-size="10.00">Figure</text>
<polyline fill="none" stroke="black" points="0,-275.5 128,-275.5 "/>
<text text-anchor="start" x="8" y="-263.5" font-family="Helvetica,sans-Serif" font-size="10.00"># b_price</text>
<text text-anchor="start" x="8" y="-252.5" font-family="Helvetica,sans-Serif" font-size="10.00"># b_advantage_price</text>
<text text-anchor="start" x="8" y="-241.5" font-family="Helvetica,sans-Serif" font-size="10.00"># possible_moves</text>
<text text-anchor="start" x="8" y="-230.5" font-family="Helvetica,sans-Serif" font-size="10.00"># b_color</text>
<text text-anchor="start" x="8" y="-219.5" font-family="Helvetica,sans-Serif" font-size="10.00"># type_figure</text>
<polyline fill="none" stroke="black" points="0,-212.5 128,-212.5 "/>
<text text-anchor="start" x="8" y="-200.5" font-family="Helvetica,sans-Serif" font-size="10.00">+ Figure()</text>
<text text-anchor="start" x="8" y="-189.5" font-family="Helvetica,sans-Serif" font-size="10.00">+ getPrice()</text>
<text text-anchor="start" x="8" y="-178.5" font-family="Helvetica,sans-Serif" font-size="10.00">+ getPriceAdvantage()</text>
<text text-anchor="start" x="8" y="-167.5" font-family="Helvetica,sans-Serif" font-size="10.00">+ getUnarySteps()</text>
<text text-anchor="start" x="8" y="-156.5" font-family="Helvetica,sans-Serif" font-size="10.00">+ getPossibleMoves()</text>
<text text-anchor="start" x="8" y="-145.5" font-family="Helvetica,sans-Serif" font-size="10.00">+ getPossibleAttacks()</text>
<text text-anchor="start" x="8" y="-134.5" font-family="Helvetica,sans-Serif" font-size="10.00">+ getColor()</text>
<text text-anchor="start" x="8" y="-123.5" font-family="Helvetica,sans-Serif" font-size="10.00">+ getTypeFigure()</text>
</a>
</g>
</g>
<!-- Node2&#45;&gt;Node1 -->
<g id="edge1" class="edge">
<title>Node2&#45;&gt;Node1</title>
<path fill="none" stroke="midnightblue" d="M64,-105.93C64,-96.69 64,-87.74 64,-79.6"/>
<polygon fill="none" stroke="midnightblue" points="60.5,-106.05 64,-116.05 67.5,-106.05 60.5,-106.05"/>
</g>
</g>
</svg>
