<?xml version="1.0" encoding="UTF-8" standalone="no"?>
<!DOCTYPE svg PUBLIC "-//W3C//DTD SVG 1.1//EN"
 "http://www.w3.org/Graphics/SVG/1.1/DTD/svg11.dtd">
<!-- Generated by graphviz version 2.43.0 (0)
 -->
<!-- Title: MainWindow::connectGuiMoveWithEngine Pages: 1 -->
<svg width="922pt" height="408pt"
 viewBox="0.00 0.00 922.00 408.00" xmlns="http://www.w3.org/2000/svg" xmlns:xlink="http://www.w3.org/1999/xlink">
<g id="graph0" class="graph" transform="scale(1 1) rotate(0) translate(4 404)">
<title>MainWindow::connectGuiMoveWithEngine</title>
<!-- Node1 -->
<g id="node1" class="node">
<title>Node1</title>
<g id="a_node1"><a xlink:title="Перемещение и окончание игры.">
<polygon fill="#bfbfbf" stroke="black" points="0,-147 0,-177 167,-177 167,-147 0,-147"/>
<text text-anchor="start" x="8" y="-165" font-family="Helvetica,sans-Serif" font-size="10.00">MainWindow::connectGuiMove</text>
<text text-anchor="middle" x="83.5" y="-154" font-family="Helvetica,sans-Serif" font-size="10.00">WithEngine</text>
</a>
</g>
</g>
<!-- Node2 -->
<g id="node2" class="node">
<title>Node2</title>
<g id="a_node2"><a xlink:href="classEngine.html#acb6729165e26058f5dc442428f11b6be" target="_top" xlink:title="Проверка на конец игры.">
<polygon fill="none" stroke="black" points="246,-190.5 246,-209.5 328,-209.5 328,-190.5 246,-190.5"/>
<text text-anchor="middle" x="287" y="-197.5" font-family="Helvetica,sans-Serif" font-size="10.00">Engine::isEnd</text>
</a>
</g>
</g>
<!-- Node1&#45;&gt;Node2 -->
<g id="edge1" class="edge">
<title>Node1&#45;&gt;Node2</title>
<path fill="none" stroke="midnightblue" d="M164.14,-177.02C188.35,-181.59 214.27,-186.47 235.96,-190.56"/>
<polygon fill="midnightblue" stroke="midnightblue" points="235.44,-194.03 245.92,-192.44 236.74,-187.15 235.44,-194.03"/>
</g>
<!-- Node3 -->
<g id="node3" class="node">
<title>Node3</title>
<g id="a_node3"><a xlink:href="classEngine.html#a66f2b590d92c6e0fa99741f02a8a9a3f" target="_top" xlink:title="Проверяет возможность хода и перемещает фигуру.">
<polygon fill="none" stroke="black" points="245.5,-152.5 245.5,-171.5 328.5,-171.5 328.5,-152.5 245.5,-152.5"/>
<text text-anchor="middle" x="287" y="-159.5" font-family="Helvetica,sans-Serif" font-size="10.00">Engine::move</text>
</a>
</g>
</g>
<!-- Node1&#45;&gt;Node3 -->
<g id="edge2" class="edge">
<title>Node1&#45;&gt;Node3</title>
<path fill="none" stroke="midnightblue" d="M167.04,-162C190.1,-162 214.47,-162 235.11,-162"/>
<polygon fill="midnightblue" stroke="midnightblue" points="235.23,-165.5 245.23,-162 235.23,-158.5 235.23,-165.5"/>
</g>
<!-- Node16 -->
<g id="node16" class="node">
<title>Node16</title>
<g id="a_node16"><a xlink:href="classScreenSettings.html#a94e16e8406ea736a376a0b50da01b869" target="_top" xlink:title="Проигрывает звук шага.">
<polygon fill="none" stroke="black" points="203,-114.5 203,-133.5 371,-133.5 371,-114.5 203,-114.5"/>
<text text-anchor="middle" x="287" y="-121.5" font-family="Helvetica,sans-Serif" font-size="10.00">ScreenSettings::playSoundStep</text>
</a>
</g>
</g>
<!-- Node1&#45;&gt;Node16 -->
<g id="edge16" class="edge">
<title>Node1&#45;&gt;Node16</title>
<path fill="none" stroke="midnightblue" d="M164.14,-146.98C184.65,-143.11 206.39,-139.01 225.74,-135.36"/>
<polygon fill="midnightblue" stroke="midnightblue" points="226.44,-138.79 235.62,-133.5 225.14,-131.91 226.44,-138.79"/>
</g>
<!-- Node4 -->
<g id="node4" class="node">
<title>Node4</title>
<g id="a_node4"><a xlink:href="classEngine.html#a2b384a18565b9cdd85b52fed6d25ff0c" target="_top" xlink:title="Расчет преимущества игрока.">
<polygon fill="none" stroke="black" points="407,-321 407,-351 559,-351 559,-321 407,-321"/>
<text text-anchor="start" x="415" y="-339" font-family="Helvetica,sans-Serif" font-size="10.00">Engine::calculateAdvantage</text>
<text text-anchor="middle" x="483" y="-328" font-family="Helvetica,sans-Serif" font-size="10.00">White</text>
</a>
</g>
</g>
<!-- Node3&#45;&gt;Node4 -->
<g id="edge3" class="edge">
<title>Node3&#45;&gt;Node4</title>
<path fill="none" stroke="midnightblue" d="M328.58,-163.13C343.5,-165.48 359.52,-170.55 371,-181 408.73,-215.34 375.33,-250 407,-290 415.16,-300.3 426.3,-308.87 437.5,-315.71"/>
<polygon fill="midnightblue" stroke="midnightblue" points="436.02,-318.9 446.44,-320.83 439.5,-312.82 436.02,-318.9"/>
</g>
<!-- Node7 -->
<g id="node7" class="node">
<title>Node7</title>
<g id="a_node7"><a xlink:href="classBoard.html#ab906dade3854d38f6354861a715fccac" target="_top" xlink:title="getBoo Возвращает доску.">
<polygon fill="none" stroke="black" points="795,-304.5 795,-323.5 914,-323.5 914,-304.5 795,-304.5"/>
<text text-anchor="middle" x="854.5" y="-311.5" font-family="Helvetica,sans-Serif" font-size="10.00">Board::getBoardData</text>
</a>
</g>
</g>
<!-- Node3&#45;&gt;Node7 -->
<g id="edge9" class="edge">
<title>Node3&#45;&gt;Node7</title>
<path fill="none" stroke="midnightblue" d="M328.78,-164.03C343.37,-166.53 359.13,-171.46 371,-181 400.14,-204.41 376.54,-235.34 407,-257 471.13,-302.58 681.24,-283.01 759,-295 772.44,-297.07 786.88,-299.74 800.32,-302.43"/>
<polygon fill="midnightblue" stroke="midnightblue" points="799.87,-305.91 810.37,-304.47 801.26,-299.05 799.87,-305.91"/>
</g>
<!-- Node9 -->
<g id="node9" class="node">
<title>Node9</title>
<g id="a_node9"><a xlink:href="engine_8cpp.html#a0aedf9d17abf2bab41a04d5beb4f4988" target="_top" xlink:title=" ">
<polygon fill="none" stroke="black" points="422.5,-228.5 422.5,-247.5 543.5,-247.5 543.5,-228.5 422.5,-228.5"/>
<text text-anchor="middle" x="483" y="-235.5" font-family="Helvetica,sans-Serif" font-size="10.00">checkStepOnPossible</text>
</a>
</g>
</g>
<!-- Node3&#45;&gt;Node9 -->
<g id="edge8" class="edge">
<title>Node3&#45;&gt;Node9</title>
<path fill="none" stroke="midnightblue" d="M328.6,-166.4C342.69,-169.17 358.16,-173.67 371,-181 391.2,-192.53 386.93,-207.23 407,-219 410.72,-221.18 414.68,-223.11 418.76,-224.82"/>
<polygon fill="midnightblue" stroke="midnightblue" points="417.88,-228.22 428.47,-228.43 420.32,-221.66 417.88,-228.22"/>
</g>
<!-- Node10 -->
<g id="node10" class="node">
<title>Node10</title>
<g id="a_node10"><a xlink:href="classFigure.html#af27c0f2d5fe69cb9eb17380d3ba91d6a" target="_top" xlink:title="Получение цвета фигуры.">
<polygon fill="none" stroke="black" points="436,-190.5 436,-209.5 530,-209.5 530,-190.5 436,-190.5"/>
<text text-anchor="middle" x="483" y="-197.5" font-family="Helvetica,sans-Serif" font-size="10.00">Figure::getColor</text>
</a>
</g>
</g>
<!-- Node3&#45;&gt;Node10 -->
<g id="edge10" class="edge">
<title>Node3&#45;&gt;Node10</title>
<path fill="none" stroke="midnightblue" d="M328.67,-169.97C356.94,-175.5 394.98,-182.96 426.1,-189.05"/>
<polygon fill="midnightblue" stroke="midnightblue" points="425.46,-192.49 435.94,-190.98 426.8,-185.62 425.46,-192.49"/>
</g>
<!-- Node11 -->
<g id="node11" class="node">
<title>Node11</title>
<g id="a_node11"><a xlink:href="classBoard.html#a0bac43a8a2fc2aabc7e687eeedbe9f9e" target="_top" xlink:title="Возвращает фигуру, которая находится в ячейке поля с координатами coords.">
<polygon fill="none" stroke="black" points="434.5,-152.5 434.5,-171.5 531.5,-171.5 531.5,-152.5 434.5,-152.5"/>
<text text-anchor="middle" x="483" y="-159.5" font-family="Helvetica,sans-Serif" font-size="10.00">Board::getFigure</text>
</a>
</g>
</g>
<!-- Node3&#45;&gt;Node11 -->
<g id="edge11" class="edge">
<title>Node3&#45;&gt;Node11</title>
<path fill="none" stroke="midnightblue" d="M328.67,-162C356.32,-162 393.32,-162 424.04,-162"/>
<polygon fill="midnightblue" stroke="midnightblue" points="424.2,-165.5 434.2,-162 424.2,-158.5 424.2,-165.5"/>
</g>
<!-- Node12 -->
<g id="node12" class="node">
<title>Node12</title>
<g id="a_node12"><a xlink:href="classFigure.html#a12d36f015da3026f980f87a93210885a" target="_top" xlink:title="Получение возможных ходов атаки.">
<polygon fill="none" stroke="black" points="410,-114.5 410,-133.5 556,-133.5 556,-114.5 410,-114.5"/>
<text text-anchor="middle" x="483" y="-121.5" font-family="Helvetica,sans-Serif" font-size="10.00">Figure::getPossibleAttacks</text>
</a>
</g>
</g>
<!-- Node3&#45;&gt;Node12 -->
<g id="edge12" class="edge">
<title>Node3&#45;&gt;Node12</title>
<path fill="none" stroke="midnightblue" d="M328.67,-154.03C356.12,-148.66 392.78,-141.48 423.37,-135.48"/>
<polygon fill="midnightblue" stroke="midnightblue" points="424.35,-138.86 433.49,-133.5 423.01,-131.99 424.35,-138.86"/>
</g>
<!-- Node13 -->
<g id="node13" class="node">
<title>Node13</title>
<g id="a_node13"><a xlink:href="classFigure.html#ac527b099db89b98b705eb74bed96c147" target="_top" xlink:title="Получение возможных ходов перемещения.">
<polygon fill="none" stroke="black" points="412.5,-76.5 412.5,-95.5 553.5,-95.5 553.5,-76.5 412.5,-76.5"/>
<text text-anchor="middle" x="483" y="-83.5" font-family="Helvetica,sans-Serif" font-size="10.00">Figure::getPossibleMoves</text>
</a>
</g>
</g>
<!-- Node3&#45;&gt;Node13 -->
<g id="edge13" class="edge">
<title>Node3&#45;&gt;Node13</title>
<path fill="none" stroke="midnightblue" d="M328.6,-157.6C342.69,-154.83 358.16,-150.33 371,-143 391.2,-131.47 386.93,-116.77 407,-105 410.72,-102.82 414.68,-100.89 418.76,-99.18"/>
<polygon fill="midnightblue" stroke="midnightblue" points="420.32,-102.34 428.47,-95.57 417.88,-95.78 420.32,-102.34"/>
</g>
<!-- Node14 -->
<g id="node14" class="node">
<title>Node14</title>
<g id="a_node14"><a xlink:href="classFigure.html#aad86c6d796ac96d30f2a310c107fdbac" target="_top" xlink:title="Получение элементарных ходов.">
<polygon fill="none" stroke="black" points="420.5,-38.5 420.5,-57.5 545.5,-57.5 545.5,-38.5 420.5,-38.5"/>
<text text-anchor="middle" x="483" y="-45.5" font-family="Helvetica,sans-Serif" font-size="10.00">Figure::getUnarySteps</text>
</a>
</g>
</g>
<!-- Node3&#45;&gt;Node14 -->
<g id="edge14" class="edge">
<title>Node3&#45;&gt;Node14</title>
<path fill="none" stroke="midnightblue" d="M328.78,-159.97C343.37,-157.47 359.13,-152.54 371,-143 400.14,-119.59 378.13,-90.74 407,-67 409.04,-65.32 411.21,-63.79 413.48,-62.39"/>
<polygon fill="midnightblue" stroke="midnightblue" points="415.39,-65.34 422.65,-57.62 412.16,-59.13 415.39,-65.34"/>
</g>
<!-- Node15 -->
<g id="node15" class="node">
<title>Node15</title>
<g id="a_node15"><a xlink:href="classBoard.html#a4ed8cf3fae283d3c88eb6b0dea9e9f0a" target="_top" xlink:title="Перемещает фигуру в board.">
<polygon fill="none" stroke="black" points="443.5,-0.5 443.5,-19.5 522.5,-19.5 522.5,-0.5 443.5,-0.5"/>
<text text-anchor="middle" x="483" y="-7.5" font-family="Helvetica,sans-Serif" font-size="10.00">Board::move</text>
</a>
</g>
</g>
<!-- Node3&#45;&gt;Node15 -->
<g id="edge15" class="edge">
<title>Node3&#45;&gt;Node15</title>
<path fill="none" stroke="midnightblue" d="M328.66,-160.95C343.58,-158.61 359.59,-153.52 371,-143 410.06,-106.98 368.36,-65.47 407,-29 414.33,-22.09 423.8,-17.59 433.53,-14.69"/>
<polygon fill="midnightblue" stroke="midnightblue" points="434.4,-18.08 443.27,-12.3 432.73,-11.29 434.4,-18.08"/>
</g>
<!-- Node5 -->
<g id="node5" class="node">
<title>Node5</title>
<g id="a_node5"><a xlink:href="classEngine.html#a93442cf58f7239df6e2b5303b7b90cda" target="_top" xlink:title="Количество противников, которые находятся под атакой.">
<polygon fill="none" stroke="black" points="602,-380.5 602,-399.5 752,-399.5 752,-380.5 602,-380.5"/>
<text text-anchor="middle" x="677" y="-387.5" font-family="Helvetica,sans-Serif" font-size="10.00">Engine::enemyUnderAttack</text>
</a>
</g>
</g>
<!-- Node4&#45;&gt;Node5 -->
<g id="edge4" class="edge">
<title>Node4&#45;&gt;Node5</title>
<path fill="none" stroke="midnightblue" d="M529.14,-351.08C549.2,-357.56 573.18,-365.01 595,-371 603.9,-373.44 613.4,-375.85 622.65,-378.09"/>
<polygon fill="midnightblue" stroke="midnightblue" points="622.01,-381.53 632.55,-380.44 623.63,-374.72 622.01,-381.53"/>
</g>
<!-- Node6 -->
<g id="node6" class="node">
<title>Node6</title>
<g id="a_node6"><a xlink:href="classEngine.html#af2c8028ccaf85425744ad55844765fac" target="_top" xlink:title="getData возвращает поле.">
<polygon fill="none" stroke="black" points="629.5,-342.5 629.5,-361.5 724.5,-361.5 724.5,-342.5 629.5,-342.5"/>
<text text-anchor="middle" x="677" y="-349.5" font-family="Helvetica,sans-Serif" font-size="10.00">Engine::getData</text>
</a>
</g>
</g>
<!-- Node4&#45;&gt;Node6 -->
<g id="edge5" class="edge">
<title>Node4&#45;&gt;Node6</title>
<path fill="none" stroke="midnightblue" d="M559.06,-342.25C579.02,-343.92 600.26,-345.69 619.08,-347.26"/>
<polygon fill="midnightblue" stroke="midnightblue" points="619.01,-350.76 629.27,-348.11 619.59,-343.79 619.01,-350.76"/>
</g>
<!-- Node8 -->
<g id="node8" class="node">
<title>Node8</title>
<g id="a_node8"><a xlink:href="classEngine.html#a9154a3995005939adcc56d46d8bd78b0" target="_top" xlink:title="Количество возможных ходов.">
<polygon fill="none" stroke="black" points="595,-304.5 595,-323.5 759,-323.5 759,-304.5 595,-304.5"/>
<text text-anchor="middle" x="677" y="-311.5" font-family="Helvetica,sans-Serif" font-size="10.00">Engine::quantityPossibleMove</text>
</a>
</g>
</g>
<!-- Node4&#45;&gt;Node8 -->
<g id="edge7" class="edge">
<title>Node4&#45;&gt;Node8</title>
<path fill="none" stroke="midnightblue" d="M559.06,-327.4C567.52,-326.43 576.22,-325.43 584.86,-324.44"/>
<polygon fill="midnightblue" stroke="midnightblue" points="585.43,-327.9 594.97,-323.29 584.63,-320.95 585.43,-327.9"/>
</g>
<!-- Node6&#45;&gt;Node7 -->
<g id="edge6" class="edge">
<title>Node6&#45;&gt;Node7</title>
<path fill="none" stroke="midnightblue" d="M722.29,-342.41C745.76,-337.33 774.78,-331.04 799.56,-325.68"/>
<polygon fill="midnightblue" stroke="midnightblue" points="800.5,-329.06 809.53,-323.52 799.02,-322.22 800.5,-329.06"/>
</g>
</g>
</svg>
