<?xml version="1.0" encoding="UTF-8" standalone="no"?>
<!DOCTYPE svg PUBLIC "-//W3C//DTD SVG 1.1//EN"
 "http://www.w3.org/Graphics/SVG/1.1/DTD/svg11.dtd">
<!-- Generated by graphviz version 2.43.0 (0)
 -->
<!-- Title: Engine::move Pages: 1 -->
<svg width="634pt" height="408pt"
 viewBox="0.00 0.00 634.00 408.00" xmlns="http://www.w3.org/2000/svg" xmlns:xlink="http://www.w3.org/1999/xlink">
<g id="graph0" class="graph" transform="scale(1 1) rotate(0) translate(4 404)">
<title>Engine::move</title>
<!-- Node1 -->
<g id="node1" class="node">
<title>Node1</title>
<g id="a_node1"><a xlink:title="Проверяет возможность хода и перемещает фигуру.">
<polygon fill="#bfbfbf" stroke="black" points="0,-152.5 0,-171.5 83,-171.5 83,-152.5 0,-152.5"/>
<text text-anchor="middle" x="41.5" y="-159.5" font-family="Helvetica,sans-Serif" font-size="10.00">Engine::move</text>
</a>
</g>
</g>
<!-- Node2 -->
<g id="node2" class="node">
<title>Node2</title>
<g id="a_node2"><a xlink:href="classEngine.html#a2b384a18565b9cdd85b52fed6d25ff0c" target="_top" xlink:title="Расчет преимущества игрока.">
<polygon fill="none" stroke="black" points="119,-321 119,-351 271,-351 271,-321 119,-321"/>
<text text-anchor="start" x="127" y="-339" font-family="Helvetica,sans-Serif" font-size="10.00">Engine::calculateAdvantage</text>
<text text-anchor="middle" x="195" y="-328" font-family="Helvetica,sans-Serif" font-size="10.00">White</text>
</a>
</g>
</g>
<!-- Node1&#45;&gt;Node2 -->
<g id="edge1" class="edge">
<title>Node1&#45;&gt;Node2</title>
<path fill="none" stroke="midnightblue" d="M46.37,-171.72C55.86,-194.62 82.23,-252.81 119,-290 128.84,-299.95 141.25,-308.68 153.12,-315.77"/>
<polygon fill="midnightblue" stroke="midnightblue" points="151.63,-318.95 162.05,-320.88 155.1,-312.87 151.63,-318.95"/>
</g>
<!-- Node5 -->
<g id="node5" class="node">
<title>Node5</title>
<g id="a_node5"><a xlink:href="classBoard.html#ab906dade3854d38f6354861a715fccac" target="_top" xlink:title="getBoo Возвращает доску.">
<polygon fill="none" stroke="black" points="507,-304.5 507,-323.5 626,-323.5 626,-304.5 507,-304.5"/>
<text text-anchor="middle" x="566.5" y="-311.5" font-family="Helvetica,sans-Serif" font-size="10.00">Board::getBoardData</text>
</a>
</g>
</g>
<!-- Node1&#45;&gt;Node5 -->
<g id="edge7" class="edge">
<title>Node1&#45;&gt;Node5</title>
<path fill="none" stroke="midnightblue" d="M46.98,-171.62C56.83,-191.52 82.39,-236.99 119,-257 257.08,-332.47 315.48,-271.02 471,-295 484.44,-297.07 498.88,-299.74 512.32,-302.43"/>
<polygon fill="midnightblue" stroke="midnightblue" points="511.87,-305.91 522.37,-304.47 513.26,-299.05 511.87,-305.91"/>
</g>
<!-- Node7 -->
<g id="node7" class="node">
<title>Node7</title>
<g id="a_node7"><a xlink:href="engine_8cpp.html#ad73d39e7626a81fa0e95b7e2f04b28ce" target="_top" xlink:title=" ">
<polygon fill="none" stroke="black" points="134.5,-228.5 134.5,-247.5 255.5,-247.5 255.5,-228.5 134.5,-228.5"/>
<text text-anchor="middle" x="195" y="-235.5" font-family="Helvetica,sans-Serif" font-size="10.00">checkStepOnPossible</text>
</a>
</g>
</g>
<!-- Node1&#45;&gt;Node7 -->
<g id="edge6" class="edge">
<title>Node1&#45;&gt;Node7</title>
<path fill="none" stroke="midnightblue" d="M52.53,-171.55C66.39,-184.23 92.68,-206.47 119,-219 124,-221.38 129.34,-223.49 134.78,-225.35"/>
<polygon fill="midnightblue" stroke="midnightblue" points="134.02,-228.78 144.61,-228.43 136.12,-222.1 134.02,-228.78"/>
</g>
<!-- Node8 -->
<g id="node8" class="node">
<title>Node8</title>
<g id="a_node8"><a xlink:href="classFigure.html#af27c0f2d5fe69cb9eb17380d3ba91d6a" target="_top" xlink:title="Получение цвета фигуры.">
<polygon fill="none" stroke="black" points="148,-190.5 148,-209.5 242,-209.5 242,-190.5 148,-190.5"/>
<text text-anchor="middle" x="195" y="-197.5" font-family="Helvetica,sans-Serif" font-size="10.00">Figure::getColor</text>
</a>
</g>
</g>
<!-- Node1&#45;&gt;Node8 -->
<g id="edge8" class="edge">
<title>Node1&#45;&gt;Node8</title>
<path fill="none" stroke="midnightblue" d="M80.73,-171.59C100.63,-176.58 125.16,-182.73 146.29,-188.03"/>
<polygon fill="midnightblue" stroke="midnightblue" points="145.49,-191.44 156.05,-190.48 147.2,-184.65 145.49,-191.44"/>
</g>
<!-- Node9 -->
<g id="node9" class="node">
<title>Node9</title>
<g id="a_node9"><a xlink:href="classBoard.html#a0bac43a8a2fc2aabc7e687eeedbe9f9e" target="_top" xlink:title="Возвращает фигуру, которая находится в ячейке поля с координатами coords.">
<polygon fill="none" stroke="black" points="146.5,-152.5 146.5,-171.5 243.5,-171.5 243.5,-152.5 146.5,-152.5"/>
<text text-anchor="middle" x="195" y="-159.5" font-family="Helvetica,sans-Serif" font-size="10.00">Board::getFigure</text>
</a>
</g>
</g>
<!-- Node1&#45;&gt;Node9 -->
<g id="edge9" class="edge">
<title>Node1&#45;&gt;Node9</title>
<path fill="none" stroke="midnightblue" d="M83.1,-162C99.36,-162 118.41,-162 136.08,-162"/>
<polygon fill="midnightblue" stroke="midnightblue" points="136.3,-165.5 146.3,-162 136.3,-158.5 136.3,-165.5"/>
</g>
<!-- Node10 -->
<g id="node10" class="node">
<title>Node10</title>
<g id="a_node10"><a xlink:href="classFigure.html#a12d36f015da3026f980f87a93210885a" target="_top" xlink:title="Получение возможных ходов атаки.">
<polygon fill="none" stroke="black" points="122,-114.5 122,-133.5 268,-133.5 268,-114.5 122,-114.5"/>
<text text-anchor="middle" x="195" y="-121.5" font-family="Helvetica,sans-Serif" font-size="10.00">Figure::getPossibleAttacks</text>
</a>
</g>
</g>
<!-- Node1&#45;&gt;Node10 -->
<g id="edge10" class="edge">
<title>Node1&#45;&gt;Node10</title>
<path fill="none" stroke="midnightblue" d="M80.73,-152.41C100.63,-147.42 125.16,-141.27 146.29,-135.97"/>
<polygon fill="midnightblue" stroke="midnightblue" points="147.2,-139.35 156.05,-133.52 145.49,-132.56 147.2,-139.35"/>
</g>
<!-- Node11 -->
<g id="node11" class="node">
<title>Node11</title>
<g id="a_node11"><a xlink:href="classFigure.html#ac527b099db89b98b705eb74bed96c147" target="_top" xlink:title="Получение возможных ходов перемещения.">
<polygon fill="none" stroke="black" points="124.5,-76.5 124.5,-95.5 265.5,-95.5 265.5,-76.5 124.5,-76.5"/>
<text text-anchor="middle" x="195" y="-83.5" font-family="Helvetica,sans-Serif" font-size="10.00">Figure::getPossibleMoves</text>
</a>
</g>
</g>
<!-- Node1&#45;&gt;Node11 -->
<g id="edge11" class="edge">
<title>Node1&#45;&gt;Node11</title>
<path fill="none" stroke="midnightblue" d="M52.53,-152.45C66.39,-139.77 92.68,-117.53 119,-105 124,-102.62 129.34,-100.51 134.78,-98.65"/>
<polygon fill="midnightblue" stroke="midnightblue" points="136.12,-101.9 144.61,-95.57 134.02,-95.22 136.12,-101.9"/>
</g>
<!-- Node12 -->
<g id="node12" class="node">
<title>Node12</title>
<g id="a_node12"><a xlink:href="classFigure.html#aad86c6d796ac96d30f2a310c107fdbac" target="_top" xlink:title="Получение элементарных ходов.">
<polygon fill="none" stroke="black" points="132.5,-38.5 132.5,-57.5 257.5,-57.5 257.5,-38.5 132.5,-38.5"/>
<text text-anchor="middle" x="195" y="-45.5" font-family="Helvetica,sans-Serif" font-size="10.00">Figure::getUnarySteps</text>
</a>
</g>
</g>
<!-- Node1&#45;&gt;Node12 -->
<g id="edge12" class="edge">
<title>Node1&#45;&gt;Node12</title>
<path fill="none" stroke="midnightblue" d="M47.38,-152.48C57.78,-133.19 84.07,-89.41 119,-67 122.34,-64.86 125.9,-62.96 129.6,-61.27"/>
<polygon fill="midnightblue" stroke="midnightblue" points="131.02,-64.47 139.01,-57.5 128.42,-57.97 131.02,-64.47"/>
</g>
<!-- Node13 -->
<g id="node13" class="node">
<title>Node13</title>
<g id="a_node13"><a xlink:href="classBoard.html#a4ed8cf3fae283d3c88eb6b0dea9e9f0a" target="_top" xlink:title="Перемещает фигуру в board.">
<polygon fill="none" stroke="black" points="155.5,-0.5 155.5,-19.5 234.5,-19.5 234.5,-0.5 155.5,-0.5"/>
<text text-anchor="middle" x="195" y="-7.5" font-family="Helvetica,sans-Serif" font-size="10.00">Board::move</text>
</a>
</g>
</g>
<!-- Node1&#45;&gt;Node13 -->
<g id="edge13" class="edge">
<title>Node1&#45;&gt;Node13</title>
<path fill="none" stroke="midnightblue" d="M45.22,-152.19C52.6,-127.43 75.48,-61.98 119,-29 126.71,-23.16 136.01,-19.1 145.4,-16.29"/>
<polygon fill="midnightblue" stroke="midnightblue" points="146.35,-19.66 155.16,-13.78 144.6,-12.88 146.35,-19.66"/>
</g>
<!-- Node3 -->
<g id="node3" class="node">
<title>Node3</title>
<g id="a_node3"><a xlink:href="classEngine.html#ab74c7d4f0e0778c122dc43fd052081b3" target="_top" xlink:title="Количество противников, которые находятся под атакой.">
<polygon fill="none" stroke="black" points="314,-380.5 314,-399.5 464,-399.5 464,-380.5 314,-380.5"/>
<text text-anchor="middle" x="389" y="-387.5" font-family="Helvetica,sans-Serif" font-size="10.00">Engine::enemyUnderAttack</text>
</a>
</g>
</g>
<!-- Node2&#45;&gt;Node3 -->
<g id="edge2" class="edge">
<title>Node2&#45;&gt;Node3</title>
<path fill="none" stroke="midnightblue" d="M241.14,-351.08C261.2,-357.56 285.18,-365.01 307,-371 315.9,-373.44 325.4,-375.85 334.65,-378.09"/>
<polygon fill="midnightblue" stroke="midnightblue" points="334.01,-381.53 344.55,-380.44 335.63,-374.72 334.01,-381.53"/>
</g>
<!-- Node4 -->
<g id="node4" class="node">
<title>Node4</title>
<g id="a_node4"><a xlink:href="classEngine.html#af2c8028ccaf85425744ad55844765fac" target="_top" xlink:title="getData возвращает поле.">
<polygon fill="none" stroke="black" points="341.5,-342.5 341.5,-361.5 436.5,-361.5 436.5,-342.5 341.5,-342.5"/>
<text text-anchor="middle" x="389" y="-349.5" font-family="Helvetica,sans-Serif" font-size="10.00">Engine::getData</text>
</a>
</g>
</g>
<!-- Node2&#45;&gt;Node4 -->
<g id="edge3" class="edge">
<title>Node2&#45;&gt;Node4</title>
<path fill="none" stroke="midnightblue" d="M271.06,-342.25C291.02,-343.92 312.26,-345.69 331.08,-347.26"/>
<polygon fill="midnightblue" stroke="midnightblue" points="331.01,-350.76 341.27,-348.11 331.59,-343.79 331.01,-350.76"/>
</g>
<!-- Node6 -->
<g id="node6" class="node">
<title>Node6</title>
<g id="a_node6"><a xlink:href="classEngine.html#a1633adb681319e5d8840e7f432d88a7a" target="_top" xlink:title="Количество возможных ходов.">
<polygon fill="none" stroke="black" points="307,-304.5 307,-323.5 471,-323.5 471,-304.5 307,-304.5"/>
<text text-anchor="middle" x="389" y="-311.5" font-family="Helvetica,sans-Serif" font-size="10.00">Engine::quantityPossibleMove</text>
</a>
</g>
</g>
<!-- Node2&#45;&gt;Node6 -->
<g id="edge5" class="edge">
<title>Node2&#45;&gt;Node6</title>
<path fill="none" stroke="midnightblue" d="M271.06,-327.4C279.52,-326.43 288.22,-325.43 296.86,-324.44"/>
<polygon fill="midnightblue" stroke="midnightblue" points="297.43,-327.9 306.97,-323.29 296.63,-320.95 297.43,-327.9"/>
</g>
<!-- Node4&#45;&gt;Node5 -->
<g id="edge4" class="edge">
<title>Node4&#45;&gt;Node5</title>
<path fill="none" stroke="midnightblue" d="M434.29,-342.41C457.76,-337.33 486.78,-331.04 511.56,-325.68"/>
<polygon fill="midnightblue" stroke="midnightblue" points="512.5,-329.06 521.53,-323.52 511.02,-322.22 512.5,-329.06"/>
</g>
</g>
</svg>
