<?xml version="1.0" encoding="UTF-8" standalone="no"?>
<!DOCTYPE svg PUBLIC "-//W3C//DTD SVG 1.1//EN"
 "http://www.w3.org/Graphics/SVG/1.1/DTD/svg11.dtd">
<!-- Generated by graphviz version 2.43.0 (0)
 -->
<!-- Title: Figure Pages: 1 -->
<!--zoomable 281 -->
<svg id="main" version="1.1" xmlns="http://www.w3.org/2000/svg" xmlns:xlink="http://www.w3.org/1999/xlink" xml:space="preserve" onload="init(evt)">
<style type="text/css"><![CDATA[
.edge:hover path { stroke: red; }
.edge:hover polygon { stroke: red; fill: red; }
]]></style>
<script type="text/javascript"><![CDATA[
var edges = document.getElementsByTagName('g');
if (edges && edges.length) {
  for (var i=0;i<edges.length;i++) {
    if (edges[i].id.substr(0,4)=='edge') {
      edges[i].setAttribute('class','edge');
    }
  }
}
]]></script>
        <defs>
                <circle id="rim" cx="0" cy="0" r="7"/>
                <circle id="rim2" cx="0" cy="0" r="3.5"/>
                <g id="zoomPlus">
                        <use xlink:href="#rim" fill="#404040">
                                <set attributeName="fill" to="#808080" begin="zoomplus.mouseover" end="zoomplus.mouseout"/>
                        </use>
                        <path d="M-4,0h8M0,-4v8" fill="none" stroke="white" stroke-width="1.5" pointer-events="none"/>
                </g>
                <g id="zoomMin">
                        <use xlink:href="#rim" fill="#404040">
                                <set attributeName="fill" to="#808080" begin="zoomminus.mouseover" end="zoomminus.mouseout"/>
                        </use>
                        <path d="M-4,0h8" fill="none" stroke="white" stroke-width="1.5" pointer-events="none"/>
                </g>
                <g id="dirArrow">
                        <path fill="none" stroke="white" stroke-width="1.5" d="M0,-3.0v7 M-2.5,-0.5L0,-3.0L2.5,-0.5"/>
                </g>
               <g id="resetDef">
                       <use xlink:href="#rim2" fill="#404040">
                               <set attributeName="fill" to="#808080" begin="reset.mouseover" end="reset.mouseout"/>
                       </use>
               </g>
        </defs>

<script type="text/javascript">
var viewWidth = 587;
var viewHeight = 281;
var sectionId = 'dynsection-0';
</script>
<script xlink:href="svgpan.js"/>
<svg id="graph" class="graph">
<g id="viewport">
<title>Figure</title>
<!-- Node1 -->
<g id="node1" class="node">
<title>Node1</title>
<g id="a_node1"><a xlink:title="Абстрактный класс фигуры.">
<polygon fill="#bfbfbf" stroke="black" points="219,-116.5 219,-272.5 347,-272.5 347,-116.5 219,-116.5"/>
<text text-anchor="middle" x="283" y="-260.5" font-family="Helvetica,sans-Serif" font-size="10.00">Figure</text>
<polyline fill="none" stroke="black" points="219,-253.5 347,-253.5 "/>
<text text-anchor="start" x="227" y="-241.5" font-family="Helvetica,sans-Serif" font-size="10.00"># b_price</text>
<text text-anchor="start" x="227" y="-230.5" font-family="Helvetica,sans-Serif" font-size="10.00"># possible_moves</text>
<text text-anchor="start" x="227" y="-219.5" font-family="Helvetica,sans-Serif" font-size="10.00"># b_color</text>
<text text-anchor="start" x="227" y="-208.5" font-family="Helvetica,sans-Serif" font-size="10.00"># type_figure</text>
<polyline fill="none" stroke="black" points="219,-201.5 347,-201.5 "/>
<text text-anchor="start" x="227" y="-189.5" font-family="Helvetica,sans-Serif" font-size="10.00">+ Figure()</text>
<text text-anchor="start" x="227" y="-178.5" font-family="Helvetica,sans-Serif" font-size="10.00">+ getPrice()</text>
<text text-anchor="start" x="227" y="-167.5" font-family="Helvetica,sans-Serif" font-size="10.00">+ getUnarySteps()</text>
<text text-anchor="start" x="227" y="-156.5" font-family="Helvetica,sans-Serif" font-size="10.00">+ getPossibleMoves()</text>
<text text-anchor="start" x="227" y="-145.5" font-family="Helvetica,sans-Serif" font-size="10.00">+ getPossibleAttacks()</text>
<text text-anchor="start" x="227" y="-134.5" font-family="Helvetica,sans-Serif" font-size="10.00">+ getColor()</text>
<text text-anchor="start" x="227" y="-123.5" font-family="Helvetica,sans-Serif" font-size="10.00">+ getTypeFigure()</text>
</a>
</g>
</g>
<!-- Node2 -->
<g id="node2" class="node">
<title>Node2</title>
<g id="a_node2"><a xlink:href="classBishop.html" target="_top" xlink:title="Слон.">
<polygon fill="none" stroke="black" points="0,-11.5 0,-68.5 68,-68.5 68,-11.5 0,-11.5"/>
<text text-anchor="middle" x="34" y="-56.5" font-family="Helvetica,sans-Serif" font-size="10.00">Bishop</text>
<polyline fill="none" stroke="black" points="0,-49.5 68,-49.5 "/>
<text text-anchor="middle" x="34" y="-37.5" font-family="Helvetica,sans-Serif" font-size="10.00"> </text>
<polyline fill="none" stroke="black" points="0,-30.5 68,-30.5 "/>
<text text-anchor="start" x="8" y="-18.5" font-family="Helvetica,sans-Serif" font-size="10.00">+ Bishop()</text>
</a>
</g>
</g>
<!-- Node1&#45;&gt;Node2 -->
<g id="edge1" class="edge">
<title>Node1&#45;&gt;Node2</title>
<path fill="none" stroke="midnightblue" d="M209.95,-158.54C169.41,-137.85 118.86,-109.89 77,-80 72.24,-76.6 67.43,-72.74 62.84,-68.81"/>
<polygon fill="none" stroke="midnightblue" points="208.47,-161.71 218.97,-163.1 211.63,-155.46 208.47,-161.71"/>
</g>
<!-- Node3 -->
<g id="node3" class="node">
<title>Node3</title>
<g id="a_node3"><a xlink:href="classKing.html" target="_top" xlink:title="Король.">
<polygon fill="none" stroke="black" points="86.5,-11.5 86.5,-68.5 143.5,-68.5 143.5,-11.5 86.5,-11.5"/>
<text text-anchor="middle" x="115" y="-56.5" font-family="Helvetica,sans-Serif" font-size="10.00">King</text>
<polyline fill="none" stroke="black" points="86.5,-49.5 143.5,-49.5 "/>
<text text-anchor="middle" x="115" y="-37.5" font-family="Helvetica,sans-Serif" font-size="10.00"> </text>
<polyline fill="none" stroke="black" points="86.5,-30.5 143.5,-30.5 "/>
<text text-anchor="start" x="94.5" y="-18.5" font-family="Helvetica,sans-Serif" font-size="10.00">+ King()</text>
</a>
</g>
</g>
<!-- Node1&#45;&gt;Node3 -->
<g id="edge2" class="edge">
<title>Node1&#45;&gt;Node3</title>
<path fill="none" stroke="midnightblue" d="M211.22,-133.52C191.67,-116.59 170.72,-97.9 152,-80 148.22,-76.39 144.33,-72.49 140.54,-68.61"/>
<polygon fill="none" stroke="midnightblue" points="209.06,-136.28 218.92,-140.16 213.63,-130.98 209.06,-136.28"/>
</g>
<!-- Node4 -->
<g id="node4" class="node">
<title>Node4</title>
<g id="a_node4"><a xlink:href="classKnight.html" target="_top" xlink:title="Конь.">
<polygon fill="none" stroke="black" points="161.5,-6 161.5,-74 268.5,-74 268.5,-6 161.5,-6"/>
<text text-anchor="middle" x="215" y="-62" font-family="Helvetica,sans-Serif" font-size="10.00">Knight</text>
<polyline fill="none" stroke="black" points="161.5,-55 268.5,-55 "/>
<text text-anchor="middle" x="215" y="-43" font-family="Helvetica,sans-Serif" font-size="10.00"> </text>
<polyline fill="none" stroke="black" points="161.5,-36 268.5,-36 "/>
<text text-anchor="start" x="169.5" y="-24" font-family="Helvetica,sans-Serif" font-size="10.00">+ Knight()</text>
<text text-anchor="start" x="169.5" y="-13" font-family="Helvetica,sans-Serif" font-size="10.00">+ getUnarySteps()</text>
</a>
</g>
</g>
<!-- Node1&#45;&gt;Node4 -->
<g id="edge3" class="edge">
<title>Node1&#45;&gt;Node4</title>
<path fill="none" stroke="midnightblue" d="M244.4,-106.94C239.19,-95.26 234.13,-83.91 229.72,-74.01"/>
<polygon fill="none" stroke="midnightblue" points="241.33,-108.65 248.6,-116.36 247.73,-105.8 241.33,-108.65"/>
</g>
<!-- Node5 -->
<g id="node5" class="node">
<title>Node5</title>
<g id="a_node5"><a xlink:href="classPawn.html" target="_top" xlink:title="Пешка.">
<polygon fill="none" stroke="black" points="287,-0.5 287,-79.5 415,-79.5 415,-0.5 287,-0.5"/>
<text text-anchor="middle" x="351" y="-67.5" font-family="Helvetica,sans-Serif" font-size="10.00">Pawn</text>
<polyline fill="none" stroke="black" points="287,-60.5 415,-60.5 "/>
<text text-anchor="middle" x="351" y="-48.5" font-family="Helvetica,sans-Serif" font-size="10.00"> </text>
<polyline fill="none" stroke="black" points="287,-41.5 415,-41.5 "/>
<text text-anchor="start" x="295" y="-29.5" font-family="Helvetica,sans-Serif" font-size="10.00">+ Pawn()</text>
<text text-anchor="start" x="295" y="-18.5" font-family="Helvetica,sans-Serif" font-size="10.00">+ Pawn()</text>
<text text-anchor="start" x="295" y="-7.5" font-family="Helvetica,sans-Serif" font-size="10.00">+ getPossibleAttacks()</text>
</a>
</g>
</g>
<!-- Node1&#45;&gt;Node5 -->
<g id="edge4" class="edge">
<title>Node1&#45;&gt;Node5</title>
<path fill="none" stroke="midnightblue" d="M321.5,-107.15C325.76,-97.6 329.93,-88.26 333.72,-79.75"/>
<polygon fill="none" stroke="midnightblue" points="318.27,-105.8 317.4,-116.36 324.67,-108.65 318.27,-105.8"/>
</g>
<!-- Node6 -->
<g id="node6" class="node">
<title>Node6</title>
<g id="a_node6"><a xlink:href="classQueen.html" target="_top" xlink:title="Ферзь.">
<polygon fill="none" stroke="black" points="433.5,-11.5 433.5,-68.5 500.5,-68.5 500.5,-11.5 433.5,-11.5"/>
<text text-anchor="middle" x="467" y="-56.5" font-family="Helvetica,sans-Serif" font-size="10.00">Queen</text>
<polyline fill="none" stroke="black" points="433.5,-49.5 500.5,-49.5 "/>
<text text-anchor="middle" x="467" y="-37.5" font-family="Helvetica,sans-Serif" font-size="10.00"> </text>
<polyline fill="none" stroke="black" points="433.5,-30.5 500.5,-30.5 "/>
<text text-anchor="start" x="441.5" y="-18.5" font-family="Helvetica,sans-Serif" font-size="10.00">+ Queen()</text>
</a>
</g>
</g>
<!-- Node1&#45;&gt;Node6 -->
<g id="edge5" class="edge">
<title>Node1&#45;&gt;Node6</title>
<path fill="none" stroke="midnightblue" d="M355.27,-136.67C377.54,-118.8 401.98,-98.82 424,-80 428.29,-76.33 432.76,-72.4 437.13,-68.5"/>
<polygon fill="none" stroke="midnightblue" points="352.79,-134.17 347.17,-143.15 357.17,-139.64 352.79,-134.17"/>
</g>
<!-- Node7 -->
<g id="node7" class="node">
<title>Node7</title>
<g id="a_node7"><a xlink:href="classRook.html" target="_top" xlink:title="Ладья.">
<polygon fill="none" stroke="black" points="519,-11.5 519,-68.5 579,-68.5 579,-11.5 519,-11.5"/>
<text text-anchor="middle" x="549" y="-56.5" font-family="Helvetica,sans-Serif" font-size="10.00">Rook</text>
<polyline fill="none" stroke="black" points="519,-49.5 579,-49.5 "/>
<text text-anchor="middle" x="549" y="-37.5" font-family="Helvetica,sans-Serif" font-size="10.00"> </text>
<polyline fill="none" stroke="black" points="519,-30.5 579,-30.5 "/>
<text text-anchor="start" x="527" y="-18.5" font-family="Helvetica,sans-Serif" font-size="10.00">+ Rook()</text>
</a>
</g>
</g>
<!-- Node1&#45;&gt;Node7 -->
<g id="edge6" class="edge">
<title>Node1&#45;&gt;Node7</title>
<path fill="none" stroke="midnightblue" d="M356.6,-163.95C402.76,-143.7 462.35,-114.35 510,-80 514.66,-76.64 519.28,-72.71 523.62,-68.67"/>
<polygon fill="none" stroke="midnightblue" points="355.04,-160.81 347.26,-168 357.83,-167.23 355.04,-160.81"/>
</g>
</g>
</svg>
        <g id="navigator" transform="translate(0 0)" fill="#404254">
                <rect fill="#f2f5e9" fill-opacity="0.5" stroke="#606060" stroke-width=".5" x="0" y="0" width="60" height="60"/>
                <use id="zoomplus" xlink:href="#zoomPlus" x="17" y="9" onmousedown="handleZoom(evt,'in')"/>
                <use id="zoomminus" xlink:href="#zoomMin" x="42" y="9" onmousedown="handleZoom(evt,'out')"/>
                <use id="reset" xlink:href="#resetDef" x="30" y="36" onmousedown="handleReset()"/>
                <g id="arrowUp" xlink:href="#dirArrow" transform="translate(30 24)" onmousedown="handlePan(0,-1)">
                  <use xlink:href="#rim" fill="#404040">
                        <set attributeName="fill" to="#808080" begin="arrowUp.mouseover" end="arrowUp.mouseout"/>
                  </use>
                  <path fill="none" stroke="white" stroke-width="1.5" d="M0,-3.0v7 M-2.5,-0.5L0,-3.0L2.5,-0.5"/>
                </g>
                <g id="arrowRight" xlink:href="#dirArrow" transform="rotate(90) translate(36 -43)" onmousedown="handlePan(1,0)">
                  <use xlink:href="#rim" fill="#404040">
                        <set attributeName="fill" to="#808080" begin="arrowRight.mouseover" end="arrowRight.mouseout"/>
                  </use>
                  <path fill="none" stroke="white" stroke-width="1.5" d="M0,-3.0v7 M-2.5,-0.5L0,-3.0L2.5,-0.5"/>
                </g>
                <g id="arrowDown" xlink:href="#dirArrow" transform="rotate(180) translate(-30 -48)" onmousedown="handlePan(0,1)">
                  <use xlink:href="#rim" fill="#404040">
                        <set attributeName="fill" to="#808080" begin="arrowDown.mouseover" end="arrowDown.mouseout"/>
                  </use>
                  <path fill="none" stroke="white" stroke-width="1.5" d="M0,-3.0v7 M-2.5,-0.5L0,-3.0L2.5,-0.5"/>
                </g>
                <g id="arrowLeft" xlink:href="#dirArrow" transform="rotate(270) translate(-36 17)" onmousedown="handlePan(-1,0)">
                  <use xlink:href="#rim" fill="#404040">
                        <set attributeName="fill" to="#808080" begin="arrowLeft.mouseover" end="arrowLeft.mouseout"/>
                  </use>
                  <path fill="none" stroke="white" stroke-width="1.5" d="M0,-3.0v7 M-2.5,-0.5L0,-3.0L2.5,-0.5"/>
                </g>
        </g>
        <svg viewBox="0 0 15 15" width="100%" height="30px" preserveAspectRatio="xMaxYMin meet">
         <g id="arrow_out" transform="scale(0.3 0.3)">
          <a xlink:href="classFigure__inherit__graph_org.svg" target="_base">
           <rect id="button" ry="5" rx="5" y="6" x="6" height="38" width="38"
                fill="#f2f5e9" fill-opacity="0.5" stroke="#606060" stroke-width="1.0"/>
           <path id="arrow"
             d="M 11.500037,31.436501 C 11.940474,20.09759 22.043105,11.32322 32.158766,21.979434 L 37.068811,17.246167 C 37.068811,17.246167 37.088388,32 37.088388,32 L 22.160133,31.978069 C 22.160133,31.978069 26.997745,27.140456 26.997745,27.140456 C 18.528582,18.264221 13.291696,25.230495 11.500037,31.436501 z"
             style="fill:#404040;"/>
          </a>
         </g>
        </svg>
</svg>
