<?xml version="1.0" encoding="UTF-8" standalone="no"?>
<!DOCTYPE svg PUBLIC "-//W3C//DTD SVG 1.1//EN"
 "http://www.w3.org/Graphics/SVG/1.1/DTD/svg11.dtd">
<!-- Generated by graphviz version 2.43.0 (0)
 -->
<!-- Title: Liderboard Pages: 1 -->
<svg width="103pt" height="193pt"
 viewBox="0.00 0.00 103.00 193.00" xmlns="http://www.w3.org/2000/svg" xmlns:xlink="http://www.w3.org/1999/xlink">
<g id="graph0" class="graph" transform="scale(1 1) rotate(0) translate(4 189)">
<title>Liderboard</title>
<!-- Node1 -->
<g id="node1" class="node">
<title>Node1</title>
<g id="a_node1"><a xlink:title="Хранение в базе таблицы лидеров.">
<polygon fill="#bfbfbf" stroke="black" points="0,-0.5 0,-90.5 95,-90.5 95,-0.5 0,-0.5"/>
<text text-anchor="middle" x="47.5" y="-78.5" font-family="Helvetica,sans-Serif" font-size="10.00">Liderboard</text>
<polyline fill="none" stroke="black" points="0,-71.5 95,-71.5 "/>
<text text-anchor="middle" x="47.5" y="-59.5" font-family="Helvetica,sans-Serif" font-size="10.00"> </text>
<polyline fill="none" stroke="black" points="0,-52.5 95,-52.5 "/>
<text text-anchor="start" x="8" y="-40.5" font-family="Helvetica,sans-Serif" font-size="10.00">+ Liderboard()</text>
<text text-anchor="start" x="8" y="-29.5" font-family="Helvetica,sans-Serif" font-size="10.00">+ ~Liderboard()</text>
<text text-anchor="start" x="8" y="-18.5" font-family="Helvetica,sans-Serif" font-size="10.00">+ getData()</text>
<text text-anchor="start" x="8" y="-7.5" font-family="Helvetica,sans-Serif" font-size="10.00">+ addRecord()</text>
</a>
</g>
</g>
<!-- Node2 -->
<g id="node2" class="node">
<title>Node2</title>
<g id="a_node2"><a xlink:title=" ">
<polygon fill="none" stroke="#bfbfbf" points="19.5,-127.5 19.5,-184.5 75.5,-184.5 75.5,-127.5 19.5,-127.5"/>
<text text-anchor="middle" x="47.5" y="-172.5" font-family="Helvetica,sans-Serif" font-size="10.00">QObject</text>
<polyline fill="none" stroke="#bfbfbf" points="19.5,-165.5 75.5,-165.5 "/>
<text text-anchor="middle" x="47.5" y="-153.5" font-family="Helvetica,sans-Serif" font-size="10.00"> </text>
<polyline fill="none" stroke="#bfbfbf" points="19.5,-146.5 75.5,-146.5 "/>
<text text-anchor="middle" x="47.5" y="-134.5" font-family="Helvetica,sans-Serif" font-size="10.00"> </text>
</a>
</g>
</g>
<!-- Node2&#45;&gt;Node1 -->
<g id="edge1" class="edge">
<title>Node2&#45;&gt;Node1</title>
<path fill="none" stroke="midnightblue" d="M47.5,-117.21C47.5,-108.61 47.5,-99.39 47.5,-90.55"/>
<polygon fill="none" stroke="midnightblue" points="44,-117.34 47.5,-127.34 51,-117.34 44,-117.34"/>
</g>
</g>
</svg>
