<?xml version="1.0" encoding="UTF-8" standalone="no"?>
<!DOCTYPE svg PUBLIC "-//W3C//DTD SVG 1.1//EN"
 "http://www.w3.org/Graphics/SVG/1.1/DTD/svg11.dtd">
<!-- Generated by graphviz version 2.43.0 (0)
 -->
<!-- Title: Engine::move Pages: 1 -->
<svg width="634pt" height="338pt"
 viewBox="0.00 0.00 634.00 338.00" xmlns="http://www.w3.org/2000/svg" xmlns:xlink="http://www.w3.org/1999/xlink">
<g id="graph0" class="graph" transform="scale(1 1) rotate(0) translate(4 334)">
<title>Engine::move</title>
<!-- Node1 -->
<g id="node1" class="node">
<title>Node1</title>
<g id="a_node1"><a xlink:title="Проверяет возможность хода и перемещает фигуру.">
<polygon fill="#bfbfbf" stroke="black" points="0,-133.5 0,-152.5 83,-152.5 83,-133.5 0,-133.5"/>
<text text-anchor="middle" x="41.5" y="-140.5" font-family="Helvetica,sans-Serif" font-size="10.00">Engine::move</text>
</a>
</g>
</g>
<!-- Node2 -->
<g id="node2" class="node">
<title>Node2</title>
<g id="a_node2"><a xlink:href="classEngine.html#a2b384a18565b9cdd85b52fed6d25ff0c" target="_top" xlink:title="Расчет преимущества игрока.">
<polygon fill="none" stroke="black" points="119,-267 119,-297 271,-297 271,-267 119,-267"/>
<text text-anchor="start" x="127" y="-285" font-family="Helvetica,sans-Serif" font-size="10.00">Engine::calculateAdvantage</text>
<text text-anchor="middle" x="195" y="-274" font-family="Helvetica,sans-Serif" font-size="10.00">White</text>
</a>
</g>
</g>
<!-- Node1&#45;&gt;Node2 -->
<g id="edge1" class="edge">
<title>Node1&#45;&gt;Node2</title>
<path fill="none" stroke="midnightblue" d="M46.3,-152.51C55.46,-174.25 80.88,-227.98 119,-257 121.43,-258.85 124.01,-260.57 126.69,-262.17"/>
<polygon fill="midnightblue" stroke="midnightblue" points="125.06,-265.26 135.54,-266.85 128.34,-259.08 125.06,-265.26"/>
</g>
<!-- Node7 -->
<g id="node7" class="node">
<title>Node7</title>
<g id="a_node7"><a xlink:href="engine_8cpp.html#ad73d39e7626a81fa0e95b7e2f04b28ce" target="_top" xlink:title=" ">
<polygon fill="none" stroke="black" points="134.5,-228.5 134.5,-247.5 255.5,-247.5 255.5,-228.5 134.5,-228.5"/>
<text text-anchor="middle" x="195" y="-235.5" font-family="Helvetica,sans-Serif" font-size="10.00">checkStepOnPossible</text>
</a>
</g>
</g>
<!-- Node1&#45;&gt;Node7 -->
<g id="edge6" class="edge">
<title>Node1&#45;&gt;Node7</title>
<path fill="none" stroke="midnightblue" d="M49.34,-152.57C61.47,-168.8 88.37,-201.66 119,-219 122.99,-221.26 127.24,-223.25 131.63,-225.01"/>
<polygon fill="midnightblue" stroke="midnightblue" points="130.77,-228.42 141.37,-228.5 133.13,-221.83 130.77,-228.42"/>
</g>
<!-- Node8 -->
<g id="node8" class="node">
<title>Node8</title>
<g id="a_node8"><a xlink:href="classFigure.html#af27c0f2d5fe69cb9eb17380d3ba91d6a" target="_top" xlink:title="Получение цвета фигуры.">
<polygon fill="none" stroke="black" points="148,-190.5 148,-209.5 242,-209.5 242,-190.5 148,-190.5"/>
<text text-anchor="middle" x="195" y="-197.5" font-family="Helvetica,sans-Serif" font-size="10.00">Figure::getColor</text>
</a>
</g>
</g>
<!-- Node1&#45;&gt;Node8 -->
<g id="edge7" class="edge">
<title>Node1&#45;&gt;Node8</title>
<path fill="none" stroke="midnightblue" d="M59.06,-152.51C74.25,-160.93 97.58,-173.07 119,-181 125.75,-183.5 132.97,-185.79 140.16,-187.84"/>
<polygon fill="midnightblue" stroke="midnightblue" points="139.33,-191.24 149.9,-190.49 141.17,-184.49 139.33,-191.24"/>
</g>
<!-- Node9 -->
<g id="node9" class="node">
<title>Node9</title>
<g id="a_node9"><a xlink:href="classBoard.html#a0bac43a8a2fc2aabc7e687eeedbe9f9e" target="_top" xlink:title="Возвращает фигуру, которая находится в ячейке поля с координатами coords.">
<polygon fill="none" stroke="black" points="146.5,-152.5 146.5,-171.5 243.5,-171.5 243.5,-152.5 146.5,-152.5"/>
<text text-anchor="middle" x="195" y="-159.5" font-family="Helvetica,sans-Serif" font-size="10.00">Board::getFigure</text>
</a>
</g>
</g>
<!-- Node1&#45;&gt;Node9 -->
<g id="edge8" class="edge">
<title>Node1&#45;&gt;Node9</title>
<path fill="none" stroke="midnightblue" d="M83.1,-148.09C99.36,-150.13 118.41,-152.52 136.08,-154.74"/>
<polygon fill="midnightblue" stroke="midnightblue" points="135.94,-158.25 146.3,-156.02 136.81,-151.3 135.94,-158.25"/>
</g>
<!-- Node10 -->
<g id="node10" class="node">
<title>Node10</title>
<g id="a_node10"><a xlink:href="classFigure.html#a12d36f015da3026f980f87a93210885a" target="_top" xlink:title="Получение возможных ходов атаки.">
<polygon fill="none" stroke="black" points="122,-114.5 122,-133.5 268,-133.5 268,-114.5 122,-114.5"/>
<text text-anchor="middle" x="195" y="-121.5" font-family="Helvetica,sans-Serif" font-size="10.00">Figure::getPossibleAttacks</text>
</a>
</g>
</g>
<!-- Node1&#45;&gt;Node10 -->
<g id="edge9" class="edge">
<title>Node1&#45;&gt;Node10</title>
<path fill="none" stroke="midnightblue" d="M83.1,-137.91C92.11,-136.78 101.96,-135.54 111.97,-134.29"/>
<polygon fill="midnightblue" stroke="midnightblue" points="112.51,-137.75 122,-133.03 111.64,-130.8 112.51,-137.75"/>
</g>
<!-- Node11 -->
<g id="node11" class="node">
<title>Node11</title>
<g id="a_node11"><a xlink:href="classFigure.html#ac527b099db89b98b705eb74bed96c147" target="_top" xlink:title="Получение возможных ходов перемещения.">
<polygon fill="none" stroke="black" points="124.5,-76.5 124.5,-95.5 265.5,-95.5 265.5,-76.5 124.5,-76.5"/>
<text text-anchor="middle" x="195" y="-83.5" font-family="Helvetica,sans-Serif" font-size="10.00">Figure::getPossibleMoves</text>
</a>
</g>
</g>
<!-- Node1&#45;&gt;Node11 -->
<g id="edge10" class="edge">
<title>Node1&#45;&gt;Node11</title>
<path fill="none" stroke="midnightblue" d="M59.06,-133.49C74.25,-125.07 97.58,-112.93 119,-105 125.75,-102.5 132.97,-100.21 140.16,-98.16"/>
<polygon fill="midnightblue" stroke="midnightblue" points="141.17,-101.51 149.9,-95.51 139.33,-94.76 141.17,-101.51"/>
</g>
<!-- Node12 -->
<g id="node12" class="node">
<title>Node12</title>
<g id="a_node12"><a xlink:href="classFigure.html#aad86c6d796ac96d30f2a310c107fdbac" target="_top" xlink:title="Получение элементарных ходов.">
<polygon fill="none" stroke="black" points="132.5,-38.5 132.5,-57.5 257.5,-57.5 257.5,-38.5 132.5,-38.5"/>
<text text-anchor="middle" x="195" y="-45.5" font-family="Helvetica,sans-Serif" font-size="10.00">Figure::getUnarySteps</text>
</a>
</g>
</g>
<!-- Node1&#45;&gt;Node12 -->
<g id="edge11" class="edge">
<title>Node1&#45;&gt;Node12</title>
<path fill="none" stroke="midnightblue" d="M49.34,-133.43C61.47,-117.2 88.37,-84.34 119,-67 122.99,-64.74 127.24,-62.75 131.63,-60.99"/>
<polygon fill="midnightblue" stroke="midnightblue" points="133.13,-64.17 141.37,-57.5 130.77,-57.58 133.13,-64.17"/>
</g>
<!-- Node13 -->
<g id="node13" class="node">
<title>Node13</title>
<g id="a_node13"><a xlink:href="classBoard.html#a4ed8cf3fae283d3c88eb6b0dea9e9f0a" target="_top" xlink:title="Перемещает фигуру в board.">
<polygon fill="none" stroke="black" points="155.5,-0.5 155.5,-19.5 234.5,-19.5 234.5,-0.5 155.5,-0.5"/>
<text text-anchor="middle" x="195" y="-7.5" font-family="Helvetica,sans-Serif" font-size="10.00">Board::move</text>
</a>
</g>
</g>
<!-- Node1&#45;&gt;Node13 -->
<g id="edge12" class="edge">
<title>Node1&#45;&gt;Node13</title>
<path fill="none" stroke="midnightblue" d="M46.15,-133.3C55.01,-111.14 79.84,-56.6 119,-29 126.9,-23.43 136.29,-19.49 145.71,-16.7"/>
<polygon fill="midnightblue" stroke="midnightblue" points="146.65,-20.07 155.47,-14.2 144.91,-13.29 146.65,-20.07"/>
</g>
<!-- Node3 -->
<g id="node3" class="node">
<title>Node3</title>
<g id="a_node3"><a xlink:href="classEngine.html#ab74c7d4f0e0778c122dc43fd052081b3" target="_top" xlink:title=" ">
<polygon fill="none" stroke="black" points="314,-310.5 314,-329.5 464,-329.5 464,-310.5 314,-310.5"/>
<text text-anchor="middle" x="389" y="-317.5" font-family="Helvetica,sans-Serif" font-size="10.00">Engine::enemyUnderAttack</text>
</a>
</g>
</g>
<!-- Node2&#45;&gt;Node3 -->
<g id="edge2" class="edge">
<title>Node2&#45;&gt;Node3</title>
<path fill="none" stroke="midnightblue" d="M271.06,-296.86C290.58,-300.72 311.32,-304.82 329.82,-308.49"/>
<polygon fill="midnightblue" stroke="midnightblue" points="329.36,-311.96 339.85,-310.47 330.72,-305.1 329.36,-311.96"/>
</g>
<!-- Node4 -->
<g id="node4" class="node">
<title>Node4</title>
<g id="a_node4"><a xlink:href="classEngine.html#af2c8028ccaf85425744ad55844765fac" target="_top" xlink:title="getData возвращает поле.">
<polygon fill="none" stroke="black" points="341.5,-272.5 341.5,-291.5 436.5,-291.5 436.5,-272.5 341.5,-272.5"/>
<text text-anchor="middle" x="389" y="-279.5" font-family="Helvetica,sans-Serif" font-size="10.00">Engine::getData</text>
</a>
</g>
</g>
<!-- Node2&#45;&gt;Node4 -->
<g id="edge3" class="edge">
<title>Node2&#45;&gt;Node4</title>
<path fill="none" stroke="midnightblue" d="M271.06,-282C291.02,-282 312.26,-282 331.08,-282"/>
<polygon fill="midnightblue" stroke="midnightblue" points="331.27,-285.5 341.27,-282 331.27,-278.5 331.27,-285.5"/>
</g>
<!-- Node6 -->
<g id="node6" class="node">
<title>Node6</title>
<g id="a_node6"><a xlink:href="classEngine.html#a1633adb681319e5d8840e7f432d88a7a" target="_top" xlink:title=" ">
<polygon fill="none" stroke="black" points="307,-234.5 307,-253.5 471,-253.5 471,-234.5 307,-234.5"/>
<text text-anchor="middle" x="389" y="-241.5" font-family="Helvetica,sans-Serif" font-size="10.00">Engine::quantityPossibleMove</text>
</a>
</g>
</g>
<!-- Node2&#45;&gt;Node6 -->
<g id="edge5" class="edge">
<title>Node2&#45;&gt;Node6</title>
<path fill="none" stroke="midnightblue" d="M271.06,-267.14C290.58,-263.28 311.32,-259.18 329.82,-255.51"/>
<polygon fill="midnightblue" stroke="midnightblue" points="330.72,-258.9 339.85,-253.53 329.36,-252.04 330.72,-258.9"/>
</g>
<!-- Node5 -->
<g id="node5" class="node">
<title>Node5</title>
<g id="a_node5"><a xlink:href="classBoard.html#ab906dade3854d38f6354861a715fccac" target="_top" xlink:title="getBoo Возвращает доску.">
<polygon fill="none" stroke="black" points="507,-272.5 507,-291.5 626,-291.5 626,-272.5 507,-272.5"/>
<text text-anchor="middle" x="566.5" y="-279.5" font-family="Helvetica,sans-Serif" font-size="10.00">Board::getBoardData</text>
</a>
</g>
</g>
<!-- Node4&#45;&gt;Node5 -->
<g id="edge4" class="edge">
<title>Node4&#45;&gt;Node5</title>
<path fill="none" stroke="midnightblue" d="M436.57,-282C454.99,-282 476.53,-282 496.68,-282"/>
<polygon fill="midnightblue" stroke="midnightblue" points="496.75,-285.5 506.75,-282 496.75,-278.5 496.75,-285.5"/>
</g>
</g>
</svg>
