<?xml version="1.0" encoding="UTF-8" standalone="no"?>
<!DOCTYPE svg PUBLIC "-//W3C//DTD SVG 1.1//EN"
 "http://www.w3.org/Graphics/SVG/1.1/DTD/svg11.dtd">
<!-- Generated by graphviz version 2.43.0 (0)
 -->
<!-- Title: Knight Pages: 1 -->
<svg width="136pt" height="292pt"
 viewBox="0.00 0.00 136.00 292.00" xmlns="http://www.w3.org/2000/svg" xmlns:xlink="http://www.w3.org/1999/xlink">
<g id="graph0" class="graph" transform="scale(1 1) rotate(0) translate(4 288)">
<title>Knight</title>
<!-- Node1 -->
<g id="node1" class="node">
<title>Node1</title>
<g id="a_node1"><a xlink:title="Конь.">
<polygon fill="#bfbfbf" stroke="black" points="10.5,-0.5 10.5,-68.5 117.5,-68.5 117.5,-0.5 10.5,-0.5"/>
<text text-anchor="middle" x="64" y="-56.5" font-family="Helvetica,sans-Serif" font-size="10.00">Knight</text>
<polyline fill="none" stroke="black" points="10.5,-49.5 117.5,-49.5 "/>
<text text-anchor="middle" x="64" y="-37.5" font-family="Helvetica,sans-Serif" font-size="10.00"> </text>
<polyline fill="none" stroke="black" points="10.5,-30.5 117.5,-30.5 "/>
<text text-anchor="start" x="18.5" y="-18.5" font-family="Helvetica,sans-Serif" font-size="10.00">+ Knight()</text>
<text text-anchor="start" x="18.5" y="-7.5" font-family="Helvetica,sans-Serif" font-size="10.00">+ getUnarySteps()</text>
</a>
</g>
</g>
<!-- Node2 -->
<g id="node2" class="node">
<title>Node2</title>
<g id="a_node2"><a xlink:href="classFigure.html" target="_top" xlink:title="Абстрактный класс фигуры.">
<polygon fill="none" stroke="black" points="0,-105.5 0,-283.5 128,-283.5 128,-105.5 0,-105.5"/>
<text text-anchor="middle" x="64" y="-271.5" font-family="Helvetica,sans-Serif" font-size="10.00">Figure</text>
<polyline fill="none" stroke="black" points="0,-264.5 128,-264.5 "/>
<text text-anchor="start" x="8" y="-252.5" font-family="Helvetica,sans-Serif" font-size="10.00"># b_price</text>
<text text-anchor="start" x="8" y="-241.5" font-family="Helvetica,sans-Serif" font-size="10.00"># b_advantage_price</text>
<text text-anchor="start" x="8" y="-230.5" font-family="Helvetica,sans-Serif" font-size="10.00"># possible_moves</text>
<text text-anchor="start" x="8" y="-219.5" font-family="Helvetica,sans-Serif" font-size="10.00"># b_color</text>
<text text-anchor="start" x="8" y="-208.5" font-family="Helvetica,sans-Serif" font-size="10.00"># type_figure</text>
<polyline fill="none" stroke="black" points="0,-201.5 128,-201.5 "/>
<text text-anchor="start" x="8" y="-189.5" font-family="Helvetica,sans-Serif" font-size="10.00">+ Figure()</text>
<text text-anchor="start" x="8" y="-178.5" font-family="Helvetica,sans-Serif" font-size="10.00">+ getPrice()</text>
<text text-anchor="start" x="8" y="-167.5" font-family="Helvetica,sans-Serif" font-size="10.00">+ getPriceAdvantage()</text>
<text text-anchor="start" x="8" y="-156.5" font-family="Helvetica,sans-Serif" font-size="10.00">+ getUnarySteps()</text>
<text text-anchor="start" x="8" y="-145.5" font-family="Helvetica,sans-Serif" font-size="10.00">+ getPossibleMoves()</text>
<text text-anchor="start" x="8" y="-134.5" font-family="Helvetica,sans-Serif" font-size="10.00">+ getPossibleAttacks()</text>
<text text-anchor="start" x="8" y="-123.5" font-family="Helvetica,sans-Serif" font-size="10.00">+ getColor()</text>
<text text-anchor="start" x="8" y="-112.5" font-family="Helvetica,sans-Serif" font-size="10.00">+ getTypeFigure()</text>
</a>
</g>
</g>
<!-- Node2&#45;&gt;Node1 -->
<g id="edge1" class="edge">
<title>Node2&#45;&gt;Node1</title>
<path fill="none" stroke="midnightblue" d="M64,-95C64,-85.65 64,-76.69 64,-68.69"/>
<polygon fill="none" stroke="midnightblue" points="60.5,-95.26 64,-105.26 67.5,-95.26 60.5,-95.26"/>
</g>
</g>
</svg>
