<?xml version="1.0" encoding="UTF-8" standalone="no"?>
<!DOCTYPE svg PUBLIC "-//W3C//DTD SVG 1.1//EN"
 "http://www.w3.org/Graphics/SVG/1.1/DTD/svg11.dtd">
<!-- Generated by graphviz version 2.43.0 (0)
 -->
<!-- Title: Engine::quantityPossibleMove Pages: 1 -->
<!--zoomable 78 -->
<svg id="main" version="1.1" xmlns="http://www.w3.org/2000/svg" xmlns:xlink="http://www.w3.org/1999/xlink" xml:space="preserve" onload="init(evt)">
<style type="text/css"><![CDATA[
.edge:hover path { stroke: red; }
.edge:hover polygon { stroke: red; fill: red; }
]]></style>
<script type="text/javascript"><![CDATA[
var edges = document.getElementsByTagName('g');
if (edges && edges.length) {
  for (var i=0;i<edges.length;i++) {
    if (edges[i].id.substr(0,4)=='edge') {
      edges[i].setAttribute('class','edge');
    }
  }
}
]]></script>
        <defs>
                <circle id="rim" cx="0" cy="0" r="7"/>
                <circle id="rim2" cx="0" cy="0" r="3.5"/>
                <g id="zoomPlus">
                        <use xlink:href="#rim" fill="#404040">
                                <set attributeName="fill" to="#808080" begin="zoomplus.mouseover" end="zoomplus.mouseout"/>
                        </use>
                        <path d="M-4,0h8M0,-4v8" fill="none" stroke="white" stroke-width="1.5" pointer-events="none"/>
                </g>
                <g id="zoomMin">
                        <use xlink:href="#rim" fill="#404040">
                                <set attributeName="fill" to="#808080" begin="zoomminus.mouseover" end="zoomminus.mouseout"/>
                        </use>
                        <path d="M-4,0h8" fill="none" stroke="white" stroke-width="1.5" pointer-events="none"/>
                </g>
                <g id="dirArrow">
                        <path fill="none" stroke="white" stroke-width="1.5" d="M0,-3.0v7 M-2.5,-0.5L0,-3.0L2.5,-0.5"/>
                </g>
               <g id="resetDef">
                       <use xlink:href="#rim2" fill="#404040">
                               <set attributeName="fill" to="#808080" begin="reset.mouseover" end="reset.mouseout"/>
                       </use>
               </g>
        </defs>

<script type="text/javascript">
var viewWidth = 1096;
var viewHeight = 78;
var sectionId = 'dynsection-15';
</script>
<script xlink:href="svgpan.js"/>
<svg id="graph" class="graph">
<g id="viewport">
<title>Engine::quantityPossibleMove</title>
<!-- Node1 -->
<g id="node1" class="node">
<title>Node1</title>
<g id="a_node1"><a xlink:title=" ">
<polygon fill="#bfbfbf" stroke="black" points="924,-22.5 924,-41.5 1088,-41.5 1088,-22.5 924,-22.5"/>
<text text-anchor="middle" x="1006" y="-29.5" font-family="Helvetica,sans-Serif" font-size="10.00">Engine::quantityPossibleMove</text>
</a>
</g>
</g>
<!-- Node2 -->
<g id="node2" class="node">
<title>Node2</title>
<g id="a_node2"><a xlink:href="classEngine.html#a2b384a18565b9cdd85b52fed6d25ff0c" target="_top" xlink:title="Расчет преимущества игрока.">
<polygon fill="none" stroke="black" points="736,-17 736,-47 888,-47 888,-17 736,-17"/>
<text text-anchor="start" x="744" y="-35" font-family="Helvetica,sans-Serif" font-size="10.00">Engine::calculateAdvantage</text>
<text text-anchor="middle" x="812" y="-24" font-family="Helvetica,sans-Serif" font-size="10.00">White</text>
</a>
</g>
</g>
<!-- Node1&#45;&gt;Node2 -->
<g id="edge1" class="edge">
<title>Node1&#45;&gt;Node2</title>
<path fill="none" stroke="midnightblue" d="M913.78,-32C905.16,-32 896.5,-32 888.05,-32"/>
<polygon fill="midnightblue" stroke="midnightblue" points="913.85,-35.5 923.85,-32 913.85,-28.5 913.85,-35.5"/>
</g>
<!-- Node3 -->
<g id="node3" class="node">
<title>Node3</title>
<g id="a_node3"><a xlink:href="classEngine.html#a66f2b590d92c6e0fa99741f02a8a9a3f" target="_top" xlink:title="Проверяет возможность хода и перемещает фигуру.">
<polygon fill="none" stroke="black" points="617,-22.5 617,-41.5 700,-41.5 700,-22.5 617,-22.5"/>
<text text-anchor="middle" x="658.5" y="-29.5" font-family="Helvetica,sans-Serif" font-size="10.00">Engine::move</text>
</a>
</g>
</g>
<!-- Node2&#45;&gt;Node3 -->
<g id="edge2" class="edge">
<title>Node2&#45;&gt;Node3</title>
<path fill="none" stroke="midnightblue" d="M725.44,-32C716.75,-32 708.24,-32 700.37,-32"/>
<polygon fill="midnightblue" stroke="midnightblue" points="725.69,-35.5 735.69,-32 725.69,-28.5 725.69,-35.5"/>
</g>
<!-- Node4 -->
<g id="node4" class="node">
<title>Node4</title>
<g id="a_node4"><a xlink:href="classMainWindow.html#a85e58f13e52e2a2d01b0bbf87c1442e9" target="_top" xlink:title=" ">
<polygon fill="none" stroke="black" points="184,-39 184,-69 351,-69 351,-39 184,-39"/>
<text text-anchor="start" x="192" y="-57" font-family="Helvetica,sans-Serif" font-size="10.00">MainWindow::connectGuiMove</text>
<text text-anchor="middle" x="267.5" y="-46" font-family="Helvetica,sans-Serif" font-size="10.00">WithEngine</text>
</a>
</g>
</g>
<!-- Node3&#45;&gt;Node4 -->
<g id="edge3" class="edge">
<title>Node3&#45;&gt;Node4</title>
<path fill="none" stroke="midnightblue" d="M606.6,-34.88C541.72,-38.55 428.71,-44.94 351.34,-49.31"/>
<polygon fill="midnightblue" stroke="midnightblue" points="607.18,-38.35 616.97,-34.29 606.79,-31.36 607.18,-38.35"/>
</g>
<!-- Node6 -->
<g id="node6" class="node">
<title>Node6</title>
<g id="a_node6"><a xlink:href="classEngine.html#ab4b084189c3f29e30a3a44ac0d5ed6b3" target="_top" xlink:title=" ">
<polygon fill="none" stroke="black" points="387,-3.5 387,-22.5 581,-22.5 581,-3.5 387,-3.5"/>
<text text-anchor="middle" x="484" y="-10.5" font-family="Helvetica,sans-Serif" font-size="10.00">Engine::getPosibleMovesFigureFrom</text>
</a>
</g>
</g>
<!-- Node3&#45;&gt;Node6 -->
<g id="edge5" class="edge">
<title>Node3&#45;&gt;Node6</title>
<path fill="none" stroke="midnightblue" d="M606.36,-26.37C595.33,-25.15 583.38,-23.84 571.43,-22.52"/>
<polygon fill="midnightblue" stroke="midnightblue" points="606.3,-29.88 616.62,-27.5 607.06,-22.92 606.3,-29.88"/>
</g>
<!-- Node5 -->
<g id="node5" class="node">
<title>Node5</title>
<g id="a_node5"><a xlink:href="classMainWindow.html#a996c5a2b6f77944776856f08ec30858d" target="_top" xlink:title=" ">
<polygon fill="none" stroke="black" points="0,-22.5 0,-41.5 148,-41.5 148,-22.5 0,-22.5"/>
<text text-anchor="middle" x="74" y="-29.5" font-family="Helvetica,sans-Serif" font-size="10.00">MainWindow::MainWindow</text>
</a>
</g>
</g>
<!-- Node4&#45;&gt;Node5 -->
<g id="edge4" class="edge">
<title>Node4&#45;&gt;Node5</title>
<path fill="none" stroke="midnightblue" d="M173.86,-43.36C165.27,-42.37 156.66,-41.38 148.29,-40.42"/>
<polygon fill="midnightblue" stroke="midnightblue" points="173.56,-46.85 183.9,-44.51 174.36,-39.89 173.56,-46.85"/>
</g>
<!-- Node7 -->
<g id="node7" class="node">
<title>Node7</title>
<g id="a_node7"><a xlink:href="classMainWindow.html#adf52446f5b40a6b0045d04ccca523242" target="_top" xlink:title=" ">
<polygon fill="none" stroke="black" points="189.5,-0.5 189.5,-19.5 345.5,-19.5 345.5,-0.5 189.5,-0.5"/>
<text text-anchor="middle" x="267.5" y="-7.5" font-family="Helvetica,sans-Serif" font-size="10.00">MainWindow::guiPressFigure</text>
</a>
</g>
</g>
<!-- Node6&#45;&gt;Node7 -->
<g id="edge6" class="edge">
<title>Node6&#45;&gt;Node7</title>
<path fill="none" stroke="midnightblue" d="M376.42,-11.51C366.1,-11.37 355.77,-11.22 345.82,-11.08"/>
<polygon fill="midnightblue" stroke="midnightblue" points="376.68,-15.01 386.73,-11.65 376.78,-8.01 376.68,-15.01"/>
</g>
<!-- Node7&#45;&gt;Node5 -->
<g id="edge7" class="edge">
<title>Node7&#45;&gt;Node5</title>
<path fill="none" stroke="midnightblue" d="M179.47,-20C169.01,-21.2 158.41,-22.42 148.18,-23.59"/>
<polygon fill="midnightblue" stroke="midnightblue" points="179.9,-23.47 189.44,-18.85 179.1,-16.52 179.9,-23.47"/>
</g>
</g>
</svg>
        <g id="navigator" transform="translate(0 0)" fill="#404254">
                <rect fill="#f2f5e9" fill-opacity="0.5" stroke="#606060" stroke-width=".5" x="0" y="0" width="60" height="60"/>
                <use id="zoomplus" xlink:href="#zoomPlus" x="17" y="9" onmousedown="handleZoom(evt,'in')"/>
                <use id="zoomminus" xlink:href="#zoomMin" x="42" y="9" onmousedown="handleZoom(evt,'out')"/>
                <use id="reset" xlink:href="#resetDef" x="30" y="36" onmousedown="handleReset()"/>
                <g id="arrowUp" xlink:href="#dirArrow" transform="translate(30 24)" onmousedown="handlePan(0,-1)">
                  <use xlink:href="#rim" fill="#404040">
                        <set attributeName="fill" to="#808080" begin="arrowUp.mouseover" end="arrowUp.mouseout"/>
                  </use>
                  <path fill="none" stroke="white" stroke-width="1.5" d="M0,-3.0v7 M-2.5,-0.5L0,-3.0L2.5,-0.5"/>
                </g>
                <g id="arrowRight" xlink:href="#dirArrow" transform="rotate(90) translate(36 -43)" onmousedown="handlePan(1,0)">
                  <use xlink:href="#rim" fill="#404040">
                        <set attributeName="fill" to="#808080" begin="arrowRight.mouseover" end="arrowRight.mouseout"/>
                  </use>
                  <path fill="none" stroke="white" stroke-width="1.5" d="M0,-3.0v7 M-2.5,-0.5L0,-3.0L2.5,-0.5"/>
                </g>
                <g id="arrowDown" xlink:href="#dirArrow" transform="rotate(180) translate(-30 -48)" onmousedown="handlePan(0,1)">
                  <use xlink:href="#rim" fill="#404040">
                        <set attributeName="fill" to="#808080" begin="arrowDown.mouseover" end="arrowDown.mouseout"/>
                  </use>
                  <path fill="none" stroke="white" stroke-width="1.5" d="M0,-3.0v7 M-2.5,-0.5L0,-3.0L2.5,-0.5"/>
                </g>
                <g id="arrowLeft" xlink:href="#dirArrow" transform="rotate(270) translate(-36 17)" onmousedown="handlePan(-1,0)">
                  <use xlink:href="#rim" fill="#404040">
                        <set attributeName="fill" to="#808080" begin="arrowLeft.mouseover" end="arrowLeft.mouseout"/>
                  </use>
                  <path fill="none" stroke="white" stroke-width="1.5" d="M0,-3.0v7 M-2.5,-0.5L0,-3.0L2.5,-0.5"/>
                </g>
        </g>
        <svg viewBox="0 0 15 15" width="100%" height="30px" preserveAspectRatio="xMaxYMin meet">
         <g id="arrow_out" transform="scale(0.3 0.3)">
          <a xlink:href="classEngine_a9154a3995005939adcc56d46d8bd78b0_icgraph_org.svg" target="_base">
           <rect id="button" ry="5" rx="5" y="6" x="6" height="38" width="38"
                fill="#f2f5e9" fill-opacity="0.5" stroke="#606060" stroke-width="1.0"/>
           <path id="arrow"
             d="M 11.500037,31.436501 C 11.940474,20.09759 22.043105,11.32322 32.158766,21.979434 L 37.068811,17.246167 C 37.068811,17.246167 37.088388,32 37.088388,32 L 22.160133,31.978069 C 22.160133,31.978069 26.997745,27.140456 26.997745,27.140456 C 18.528582,18.264221 13.291696,25.230495 11.500037,31.436501 z"
             style="fill:#404040;"/>
          </a>
         </g>
        </svg>
</svg>
