<?xml version="1.0" encoding="UTF-8" standalone="no"?>
<!DOCTYPE svg PUBLIC "-//W3C//DTD SVG 1.1//EN"
 "http://www.w3.org/Graphics/SVG/1.1/DTD/svg11.dtd">
<!-- Generated by graphviz version 2.43.0 (0)
 -->
<!-- Title: MainWindow::connectGuiMoveWithEngine Pages: 1 -->
<svg width="784pt" height="319pt"
 viewBox="0.00 0.00 784.00 319.00" xmlns="http://www.w3.org/2000/svg" xmlns:xlink="http://www.w3.org/1999/xlink">
<g id="graph0" class="graph" transform="scale(1 1) rotate(0) translate(4 315)">
<title>MainWindow::connectGuiMoveWithEngine</title>
<!-- Node1 -->
<g id="node1" class="node">
<title>Node1</title>
<g id="a_node1"><a xlink:title=" ">
<polygon fill="#bfbfbf" stroke="black" points="0,-128 0,-158 167,-158 167,-128 0,-128"/>
<text text-anchor="start" x="8" y="-146" font-family="Helvetica,sans-Serif" font-size="10.00">MainWindow::connectGuiMove</text>
<text text-anchor="middle" x="83.5" y="-135" font-family="Helvetica,sans-Serif" font-size="10.00">WithEngine</text>
</a>
</g>
</g>
<!-- Node2 -->
<g id="node2" class="node">
<title>Node2</title>
<g id="a_node2"><a xlink:href="classEngine.html#a66f2b590d92c6e0fa99741f02a8a9a3f" target="_top" xlink:title="Проверяет возможность хода и перемещает фигуру.">
<polygon fill="none" stroke="black" points="203,-133.5 203,-152.5 286,-152.5 286,-133.5 203,-133.5"/>
<text text-anchor="middle" x="244.5" y="-140.5" font-family="Helvetica,sans-Serif" font-size="10.00">Engine::move</text>
</a>
</g>
</g>
<!-- Node1&#45;&gt;Node2 -->
<g id="edge1" class="edge">
<title>Node1&#45;&gt;Node2</title>
<path fill="none" stroke="midnightblue" d="M167.26,-143C175.96,-143 184.61,-143 192.79,-143"/>
<polygon fill="midnightblue" stroke="midnightblue" points="192.87,-146.5 202.87,-143 192.87,-139.5 192.87,-146.5"/>
</g>
<!-- Node3 -->
<g id="node3" class="node">
<title>Node3</title>
<g id="a_node3"><a xlink:href="classEngine.html#a2b384a18565b9cdd85b52fed6d25ff0c" target="_top" xlink:title="Расчет преимущества игрока.">
<polygon fill="none" stroke="black" points="322,-267 322,-297 474,-297 474,-267 322,-267"/>
<text text-anchor="start" x="330" y="-285" font-family="Helvetica,sans-Serif" font-size="10.00">Engine::calculateAdvantage</text>
<text text-anchor="middle" x="398" y="-274" font-family="Helvetica,sans-Serif" font-size="10.00">White</text>
</a>
</g>
</g>
<!-- Node2&#45;&gt;Node3 -->
<g id="edge2" class="edge">
<title>Node2&#45;&gt;Node3</title>
<path fill="none" stroke="midnightblue" d="M249.3,-152.51C258.46,-174.25 283.88,-227.98 322,-257 324.43,-258.85 327.01,-260.57 329.69,-262.17"/>
<polygon fill="midnightblue" stroke="midnightblue" points="328.06,-265.26 338.54,-266.85 331.34,-259.08 328.06,-265.26"/>
</g>
<!-- Node7 -->
<g id="node7" class="node">
<title>Node7</title>
<g id="a_node7"><a xlink:href="engine_8cpp.html#a0aedf9d17abf2bab41a04d5beb4f4988" target="_top" xlink:title=" ">
<polygon fill="none" stroke="black" points="337.5,-228.5 337.5,-247.5 458.5,-247.5 458.5,-228.5 337.5,-228.5"/>
<text text-anchor="middle" x="398" y="-235.5" font-family="Helvetica,sans-Serif" font-size="10.00">checkStepOnPossible</text>
</a>
</g>
</g>
<!-- Node2&#45;&gt;Node7 -->
<g id="edge6" class="edge">
<title>Node2&#45;&gt;Node7</title>
<path fill="none" stroke="midnightblue" d="M252.34,-152.57C264.47,-168.8 291.37,-201.66 322,-219 325.99,-221.26 330.24,-223.25 334.63,-225.01"/>
<polygon fill="midnightblue" stroke="midnightblue" points="333.77,-228.42 344.37,-228.5 336.13,-221.83 333.77,-228.42"/>
</g>
<!-- Node8 -->
<g id="node8" class="node">
<title>Node8</title>
<g id="a_node8"><a xlink:href="classFigure.html#af27c0f2d5fe69cb9eb17380d3ba91d6a" target="_top" xlink:title="Получение цвета фигуры.">
<polygon fill="none" stroke="black" points="351,-190.5 351,-209.5 445,-209.5 445,-190.5 351,-190.5"/>
<text text-anchor="middle" x="398" y="-197.5" font-family="Helvetica,sans-Serif" font-size="10.00">Figure::getColor</text>
</a>
</g>
</g>
<!-- Node2&#45;&gt;Node8 -->
<g id="edge7" class="edge">
<title>Node2&#45;&gt;Node8</title>
<path fill="none" stroke="midnightblue" d="M262.06,-152.51C277.25,-160.93 300.58,-173.07 322,-181 328.75,-183.5 335.97,-185.79 343.16,-187.84"/>
<polygon fill="midnightblue" stroke="midnightblue" points="342.33,-191.24 352.9,-190.49 344.17,-184.49 342.33,-191.24"/>
</g>
<!-- Node9 -->
<g id="node9" class="node">
<title>Node9</title>
<g id="a_node9"><a xlink:href="classBoard.html#a0bac43a8a2fc2aabc7e687eeedbe9f9e" target="_top" xlink:title="Возвращает фигуру, которая находится в ячейке поля с координатами coords.">
<polygon fill="none" stroke="black" points="349.5,-152.5 349.5,-171.5 446.5,-171.5 446.5,-152.5 349.5,-152.5"/>
<text text-anchor="middle" x="398" y="-159.5" font-family="Helvetica,sans-Serif" font-size="10.00">Board::getFigure</text>
</a>
</g>
</g>
<!-- Node2&#45;&gt;Node9 -->
<g id="edge8" class="edge">
<title>Node2&#45;&gt;Node9</title>
<path fill="none" stroke="midnightblue" d="M286.1,-148.09C302.36,-150.13 321.41,-152.52 339.08,-154.74"/>
<polygon fill="midnightblue" stroke="midnightblue" points="338.94,-158.25 349.3,-156.02 339.81,-151.3 338.94,-158.25"/>
</g>
<!-- Node10 -->
<g id="node10" class="node">
<title>Node10</title>
<g id="a_node10"><a xlink:href="classFigure.html#a12d36f015da3026f980f87a93210885a" target="_top" xlink:title="Получение возможных ходов атаки.">
<polygon fill="none" stroke="black" points="325,-114.5 325,-133.5 471,-133.5 471,-114.5 325,-114.5"/>
<text text-anchor="middle" x="398" y="-121.5" font-family="Helvetica,sans-Serif" font-size="10.00">Figure::getPossibleAttacks</text>
</a>
</g>
</g>
<!-- Node2&#45;&gt;Node10 -->
<g id="edge9" class="edge">
<title>Node2&#45;&gt;Node10</title>
<path fill="none" stroke="midnightblue" d="M286.1,-137.91C295.11,-136.78 304.96,-135.54 314.97,-134.29"/>
<polygon fill="midnightblue" stroke="midnightblue" points="315.51,-137.75 325,-133.03 314.64,-130.8 315.51,-137.75"/>
</g>
<!-- Node11 -->
<g id="node11" class="node">
<title>Node11</title>
<g id="a_node11"><a xlink:href="classFigure.html#ac527b099db89b98b705eb74bed96c147" target="_top" xlink:title="Получение возможных ходов перемещения.">
<polygon fill="none" stroke="black" points="327.5,-76.5 327.5,-95.5 468.5,-95.5 468.5,-76.5 327.5,-76.5"/>
<text text-anchor="middle" x="398" y="-83.5" font-family="Helvetica,sans-Serif" font-size="10.00">Figure::getPossibleMoves</text>
</a>
</g>
</g>
<!-- Node2&#45;&gt;Node11 -->
<g id="edge10" class="edge">
<title>Node2&#45;&gt;Node11</title>
<path fill="none" stroke="midnightblue" d="M262.06,-133.49C277.25,-125.07 300.58,-112.93 322,-105 328.75,-102.5 335.97,-100.21 343.16,-98.16"/>
<polygon fill="midnightblue" stroke="midnightblue" points="344.17,-101.51 352.9,-95.51 342.33,-94.76 344.17,-101.51"/>
</g>
<!-- Node12 -->
<g id="node12" class="node">
<title>Node12</title>
<g id="a_node12"><a xlink:href="classFigure.html#aad86c6d796ac96d30f2a310c107fdbac" target="_top" xlink:title="Получение элементарных ходов.">
<polygon fill="none" stroke="black" points="335.5,-38.5 335.5,-57.5 460.5,-57.5 460.5,-38.5 335.5,-38.5"/>
<text text-anchor="middle" x="398" y="-45.5" font-family="Helvetica,sans-Serif" font-size="10.00">Figure::getUnarySteps</text>
</a>
</g>
</g>
<!-- Node2&#45;&gt;Node12 -->
<g id="edge11" class="edge">
<title>Node2&#45;&gt;Node12</title>
<path fill="none" stroke="midnightblue" d="M252.34,-133.43C264.47,-117.2 291.37,-84.34 322,-67 325.99,-64.74 330.24,-62.75 334.63,-60.99"/>
<polygon fill="midnightblue" stroke="midnightblue" points="336.13,-64.17 344.37,-57.5 333.77,-57.58 336.13,-64.17"/>
</g>
<!-- Node13 -->
<g id="node13" class="node">
<title>Node13</title>
<g id="a_node13"><a xlink:href="classBoard.html#a4ed8cf3fae283d3c88eb6b0dea9e9f0a" target="_top" xlink:title="Перемещает фигуру в board.">
<polygon fill="none" stroke="black" points="358.5,-0.5 358.5,-19.5 437.5,-19.5 437.5,-0.5 358.5,-0.5"/>
<text text-anchor="middle" x="398" y="-7.5" font-family="Helvetica,sans-Serif" font-size="10.00">Board::move</text>
</a>
</g>
</g>
<!-- Node2&#45;&gt;Node13 -->
<g id="edge12" class="edge">
<title>Node2&#45;&gt;Node13</title>
<path fill="none" stroke="midnightblue" d="M249.15,-133.3C258.01,-111.14 282.84,-56.6 322,-29 329.9,-23.43 339.29,-19.49 348.71,-16.7"/>
<polygon fill="midnightblue" stroke="midnightblue" points="349.65,-20.07 358.47,-14.2 347.91,-13.29 349.65,-20.07"/>
</g>
<!-- Node4 -->
<g id="node4" class="node">
<title>Node4</title>
<g id="a_node4"><a xlink:href="engine_8cpp.html#a8bc4d4b36aae439f5e6e3ce34903c487" target="_top" xlink:title=" ">
<polygon fill="none" stroke="black" points="510,-291.5 510,-310.5 621,-310.5 621,-291.5 510,-291.5"/>
<text text-anchor="middle" x="565.5" y="-298.5" font-family="Helvetica,sans-Serif" font-size="10.00">enemyUnderAttack</text>
</a>
</g>
</g>
<!-- Node3&#45;&gt;Node4 -->
<g id="edge3" class="edge">
<title>Node3&#45;&gt;Node4</title>
<path fill="none" stroke="midnightblue" d="M474,-290.61C482.51,-291.59 491.14,-292.58 499.51,-293.54"/>
<polygon fill="midnightblue" stroke="midnightblue" points="499.23,-297.03 509.56,-294.69 500.03,-290.08 499.23,-297.03"/>
</g>
<!-- Node5 -->
<g id="node5" class="node">
<title>Node5</title>
<g id="a_node5"><a xlink:href="classEngine.html#af2c8028ccaf85425744ad55844765fac" target="_top" xlink:title=" ">
<polygon fill="none" stroke="black" points="518,-253.5 518,-272.5 613,-272.5 613,-253.5 518,-253.5"/>
<text text-anchor="middle" x="565.5" y="-260.5" font-family="Helvetica,sans-Serif" font-size="10.00">Engine::getData</text>
</a>
</g>
</g>
<!-- Node3&#45;&gt;Node5 -->
<g id="edge4" class="edge">
<title>Node3&#45;&gt;Node5</title>
<path fill="none" stroke="midnightblue" d="M474,-273.39C485.28,-272.09 496.75,-270.78 507.57,-269.54"/>
<polygon fill="midnightblue" stroke="midnightblue" points="508.17,-272.99 517.71,-268.37 507.38,-266.04 508.17,-272.99"/>
</g>
<!-- Node6 -->
<g id="node6" class="node">
<title>Node6</title>
<g id="a_node6"><a xlink:href="classBoard.html#ab906dade3854d38f6354861a715fccac" target="_top" xlink:title=" ">
<polygon fill="none" stroke="black" points="657,-253.5 657,-272.5 776,-272.5 776,-253.5 657,-253.5"/>
<text text-anchor="middle" x="716.5" y="-260.5" font-family="Helvetica,sans-Serif" font-size="10.00">Board::getBoardData</text>
</a>
</g>
</g>
<!-- Node5&#45;&gt;Node6 -->
<g id="edge5" class="edge">
<title>Node5&#45;&gt;Node6</title>
<path fill="none" stroke="midnightblue" d="M613.24,-263C623.82,-263 635.28,-263 646.57,-263"/>
<polygon fill="midnightblue" stroke="midnightblue" points="646.85,-266.5 656.85,-263 646.85,-259.5 646.85,-266.5"/>
</g>
</g>
</svg>
