<?xml version="1.0" encoding="UTF-8" standalone="no"?>
<!DOCTYPE svg PUBLIC "-//W3C//DTD SVG 1.1//EN"
 "http://www.w3.org/Graphics/SVG/1.1/DTD/svg11.dtd">
<!-- Generated by graphviz version 2.43.0 (0)
 -->
<!-- Title: MainWindow::MainWindow Pages: 1 -->
<!--zoomable 414 -->
<svg id="main" version="1.1" xmlns="http://www.w3.org/2000/svg" xmlns:xlink="http://www.w3.org/1999/xlink" xml:space="preserve" onload="init(evt)">
<style type="text/css"><![CDATA[
.edge:hover path { stroke: red; }
.edge:hover polygon { stroke: red; fill: red; }
]]></style>
<script type="text/javascript"><![CDATA[
var edges = document.getElementsByTagName('g');
if (edges && edges.length) {
  for (var i=0;i<edges.length;i++) {
    if (edges[i].id.substr(0,4)=='edge') {
      edges[i].setAttribute('class','edge');
    }
  }
}
]]></script>
        <defs>
                <circle id="rim" cx="0" cy="0" r="7"/>
                <circle id="rim2" cx="0" cy="0" r="3.5"/>
                <g id="zoomPlus">
                        <use xlink:href="#rim" fill="#404040">
                                <set attributeName="fill" to="#808080" begin="zoomplus.mouseover" end="zoomplus.mouseout"/>
                        </use>
                        <path d="M-4,0h8M0,-4v8" fill="none" stroke="white" stroke-width="1.5" pointer-events="none"/>
                </g>
                <g id="zoomMin">
                        <use xlink:href="#rim" fill="#404040">
                                <set attributeName="fill" to="#808080" begin="zoomminus.mouseover" end="zoomminus.mouseout"/>
                        </use>
                        <path d="M-4,0h8" fill="none" stroke="white" stroke-width="1.5" pointer-events="none"/>
                </g>
                <g id="dirArrow">
                        <path fill="none" stroke="white" stroke-width="1.5" d="M0,-3.0v7 M-2.5,-0.5L0,-3.0L2.5,-0.5"/>
                </g>
               <g id="resetDef">
                       <use xlink:href="#rim2" fill="#404040">
                               <set attributeName="fill" to="#808080" begin="reset.mouseover" end="reset.mouseout"/>
                       </use>
               </g>
        </defs>

<script type="text/javascript">
var viewWidth = 1075;
var viewHeight = 414;
var sectionId = 'dynsection-2';
</script>
<script xlink:href="svgpan.js"/>
<svg id="graph" class="graph">
<g id="viewport">
<title>MainWindow::MainWindow</title>
<!-- Node1 -->
<g id="node1" class="node">
<title>Node1</title>
<g id="a_node1"><a xlink:title=" ">
<polygon fill="#bfbfbf" stroke="black" points="0,-57.5 0,-76.5 148,-76.5 148,-57.5 0,-57.5"/>
<text text-anchor="middle" x="74" y="-64.5" font-family="Helvetica,sans-Serif" font-size="10.00">MainWindow::MainWindow</text>
</a>
</g>
</g>
<!-- Node2 -->
<g id="node2" class="node">
<title>Node2</title>
<g id="a_node2"><a xlink:href="classMainWindow.html#a85e58f13e52e2a2d01b0bbf87c1442e9" target="_top" xlink:title=" ">
<polygon fill="none" stroke="black" points="185.5,-150 185.5,-180 352.5,-180 352.5,-150 185.5,-150"/>
<text text-anchor="start" x="193.5" y="-168" font-family="Helvetica,sans-Serif" font-size="10.00">MainWindow::connectGuiMove</text>
<text text-anchor="middle" x="269" y="-157" font-family="Helvetica,sans-Serif" font-size="10.00">WithEngine</text>
</a>
</g>
</g>
<!-- Node1&#45;&gt;Node2 -->
<g id="edge1" class="edge">
<title>Node1&#45;&gt;Node2</title>
<path fill="none" stroke="midnightblue" d="M93.86,-76.58C125.1,-92.44 188.2,-124.48 229.25,-145.32"/>
<polygon fill="midnightblue" stroke="midnightblue" points="227.92,-148.57 238.42,-149.98 231.09,-142.33 227.92,-148.57"/>
</g>
<!-- Node16 -->
<g id="node16" class="node">
<title>Node16</title>
<g id="a_node16"><a xlink:href="classMainWindow.html#a4195422fe1346c1aa9c640715dfe73cb" target="_top" xlink:title=" ">
<polygon fill="none" stroke="black" points="190,-57.5 190,-76.5 348,-76.5 348,-57.5 190,-57.5"/>
<text text-anchor="middle" x="269" y="-64.5" font-family="Helvetica,sans-Serif" font-size="10.00">MainWindow::startNewGame</text>
</a>
</g>
</g>
<!-- Node1&#45;&gt;Node16 -->
<g id="edge15" class="edge">
<title>Node1&#45;&gt;Node16</title>
<path fill="none" stroke="midnightblue" d="M148.24,-67C158.58,-67 169.31,-67 179.89,-67"/>
<polygon fill="midnightblue" stroke="midnightblue" points="179.99,-70.5 189.99,-67 179.99,-63.5 179.99,-70.5"/>
</g>
<!-- Node21 -->
<g id="node21" class="node">
<title>Node21</title>
<g id="a_node21"><a xlink:href="classMainWindow.html#aaf47fc01862209102bc55bc5cca41ecb" target="_top" xlink:title="Менеджер окон, переключает QStacedWidget на тот виджет, номер которого ему передали.">
<polygon fill="none" stroke="black" points="184,-19.5 184,-38.5 354,-38.5 354,-19.5 184,-19.5"/>
<text text-anchor="middle" x="269" y="-26.5" font-family="Helvetica,sans-Serif" font-size="10.00">MainWindow::windowsManager</text>
</a>
</g>
</g>
<!-- Node1&#45;&gt;Node21 -->
<g id="edge21" class="edge">
<title>Node1&#45;&gt;Node21</title>
<path fill="none" stroke="midnightblue" d="M123.7,-57.41C149.86,-52.26 182.28,-45.88 209.77,-40.47"/>
<polygon fill="midnightblue" stroke="midnightblue" points="210.51,-43.89 219.65,-38.52 209.16,-37.02 210.51,-43.89"/>
</g>
<!-- Node3 -->
<g id="node3" class="node">
<title>Node3</title>
<g id="a_node3"><a xlink:href="classEngine.html#a66f2b590d92c6e0fa99741f02a8a9a3f" target="_top" xlink:title="Проверяет возможность хода и перемещает фигуру.">
<polygon fill="none" stroke="black" points="435,-190.5 435,-209.5 518,-209.5 518,-190.5 435,-190.5"/>
<text text-anchor="middle" x="476.5" y="-197.5" font-family="Helvetica,sans-Serif" font-size="10.00">Engine::move</text>
</a>
</g>
</g>
<!-- Node2&#45;&gt;Node3 -->
<g id="edge2" class="edge">
<title>Node2&#45;&gt;Node3</title>
<path fill="none" stroke="midnightblue" d="M352.7,-179.08C377.15,-183.25 403.18,-187.68 424.96,-191.39"/>
<polygon fill="midnightblue" stroke="midnightblue" points="424.51,-194.87 434.96,-193.1 425.69,-187.97 424.51,-194.87"/>
</g>
<!-- Node4 -->
<g id="node4" class="node">
<title>Node4</title>
<g id="a_node4"><a xlink:href="classEngine.html#a2b384a18565b9cdd85b52fed6d25ff0c" target="_top" xlink:title="Расчет преимущества игрока.">
<polygon fill="none" stroke="black" points="599,-343 599,-373 751,-373 751,-343 599,-343"/>
<text text-anchor="start" x="607" y="-361" font-family="Helvetica,sans-Serif" font-size="10.00">Engine::calculateAdvantage</text>
<text text-anchor="middle" x="675" y="-350" font-family="Helvetica,sans-Serif" font-size="10.00">White</text>
</a>
</g>
</g>
<!-- Node3&#45;&gt;Node4 -->
<g id="edge3" class="edge">
<title>Node3&#45;&gt;Node4</title>
<path fill="none" stroke="midnightblue" d="M483.64,-209.57C499.67,-233.8 545.24,-298.07 599,-333 602.12,-335.03 605.42,-336.9 608.82,-338.64"/>
<polygon fill="midnightblue" stroke="midnightblue" points="607.49,-341.88 618.04,-342.92 610.44,-335.53 607.49,-341.88"/>
</g>
<!-- Node9 -->
<g id="node9" class="node">
<title>Node9</title>
<g id="a_node9"><a xlink:href="engine_8cpp.html#a0aedf9d17abf2bab41a04d5beb4f4988" target="_top" xlink:title=" ">
<polygon fill="none" stroke="black" points="614.5,-304.5 614.5,-323.5 735.5,-323.5 735.5,-304.5 614.5,-304.5"/>
<text text-anchor="middle" x="675" y="-311.5" font-family="Helvetica,sans-Serif" font-size="10.00">checkStepOnPossible</text>
</a>
</g>
</g>
<!-- Node3&#45;&gt;Node9 -->
<g id="edge8" class="edge">
<title>Node3&#45;&gt;Node9</title>
<path fill="none" stroke="midnightblue" d="M486.92,-209.7C506.16,-228.93 552.12,-272.01 599,-295 603.9,-297.4 609.13,-299.52 614.47,-301.38"/>
<polygon fill="midnightblue" stroke="midnightblue" points="613.55,-304.76 624.14,-304.47 615.68,-298.1 613.55,-304.76"/>
</g>
<!-- Node10 -->
<g id="node10" class="node">
<title>Node10</title>
<g id="a_node10"><a xlink:href="classFigure.html#af27c0f2d5fe69cb9eb17380d3ba91d6a" target="_top" xlink:title="Получение цвета фигуры.">
<polygon fill="none" stroke="black" points="628,-266.5 628,-285.5 722,-285.5 722,-266.5 628,-266.5"/>
<text text-anchor="middle" x="675" y="-273.5" font-family="Helvetica,sans-Serif" font-size="10.00">Figure::getColor</text>
</a>
</g>
</g>
<!-- Node3&#45;&gt;Node10 -->
<g id="edge9" class="edge">
<title>Node3&#45;&gt;Node10</title>
<path fill="none" stroke="midnightblue" d="M495.16,-209.6C518.41,-221.92 560.83,-243.35 599,-257 605.87,-259.46 613.2,-261.73 620.49,-263.78"/>
<polygon fill="midnightblue" stroke="midnightblue" points="619.78,-267.21 630.35,-266.43 621.6,-260.45 619.78,-267.21"/>
</g>
<!-- Node11 -->
<g id="node11" class="node">
<title>Node11</title>
<g id="a_node11"><a xlink:href="classBoard.html#a0bac43a8a2fc2aabc7e687eeedbe9f9e" target="_top" xlink:title="Возвращает фигуру, которая находится в ячейке поля с координатами coords.">
<polygon fill="none" stroke="black" points="626.5,-228.5 626.5,-247.5 723.5,-247.5 723.5,-228.5 626.5,-228.5"/>
<text text-anchor="middle" x="675" y="-235.5" font-family="Helvetica,sans-Serif" font-size="10.00">Board::getFigure</text>
</a>
</g>
</g>
<!-- Node3&#45;&gt;Node11 -->
<g id="edge10" class="edge">
<title>Node3&#45;&gt;Node11</title>
<path fill="none" stroke="midnightblue" d="M518.21,-207.87C546.62,-213.37 584.92,-220.77 616.44,-226.87"/>
<polygon fill="midnightblue" stroke="midnightblue" points="615.93,-230.34 626.42,-228.8 617.26,-223.46 615.93,-230.34"/>
</g>
<!-- Node12 -->
<g id="node12" class="node">
<title>Node12</title>
<g id="a_node12"><a xlink:href="classFigure.html#a12d36f015da3026f980f87a93210885a" target="_top" xlink:title="Получение возможных ходов атаки.">
<polygon fill="none" stroke="black" points="602,-190.5 602,-209.5 748,-209.5 748,-190.5 602,-190.5"/>
<text text-anchor="middle" x="675" y="-197.5" font-family="Helvetica,sans-Serif" font-size="10.00">Figure::getPossibleAttacks</text>
</a>
</g>
</g>
<!-- Node3&#45;&gt;Node12 -->
<g id="edge11" class="edge">
<title>Node3&#45;&gt;Node12</title>
<path fill="none" stroke="midnightblue" d="M518.21,-200C539.55,-200 566.48,-200 591.92,-200"/>
<polygon fill="midnightblue" stroke="midnightblue" points="591.95,-203.5 601.95,-200 591.95,-196.5 591.95,-203.5"/>
</g>
<!-- Node13 -->
<g id="node13" class="node">
<title>Node13</title>
<g id="a_node13"><a xlink:href="classFigure.html#ac527b099db89b98b705eb74bed96c147" target="_top" xlink:title="Получение возможных ходов перемещения.">
<polygon fill="none" stroke="black" points="604.5,-152.5 604.5,-171.5 745.5,-171.5 745.5,-152.5 604.5,-152.5"/>
<text text-anchor="middle" x="675" y="-159.5" font-family="Helvetica,sans-Serif" font-size="10.00">Figure::getPossibleMoves</text>
</a>
</g>
</g>
<!-- Node3&#45;&gt;Node13 -->
<g id="edge12" class="edge">
<title>Node3&#45;&gt;Node13</title>
<path fill="none" stroke="midnightblue" d="M518.21,-192.13C546.11,-186.73 583.56,-179.49 614.75,-173.46"/>
<polygon fill="midnightblue" stroke="midnightblue" points="615.48,-176.88 624.63,-171.55 614.15,-170.01 615.48,-176.88"/>
</g>
<!-- Node14 -->
<g id="node14" class="node">
<title>Node14</title>
<g id="a_node14"><a xlink:href="classFigure.html#aad86c6d796ac96d30f2a310c107fdbac" target="_top" xlink:title="Получение элементарных ходов.">
<polygon fill="none" stroke="black" points="612.5,-114.5 612.5,-133.5 737.5,-133.5 737.5,-114.5 612.5,-114.5"/>
<text text-anchor="middle" x="675" y="-121.5" font-family="Helvetica,sans-Serif" font-size="10.00">Figure::getUnarySteps</text>
</a>
</g>
</g>
<!-- Node3&#45;&gt;Node14 -->
<g id="edge13" class="edge">
<title>Node3&#45;&gt;Node14</title>
<path fill="none" stroke="midnightblue" d="M495.16,-190.4C518.41,-178.08 560.83,-156.65 599,-143 605.87,-140.54 613.2,-138.27 620.49,-136.22"/>
<polygon fill="midnightblue" stroke="midnightblue" points="621.6,-139.55 630.35,-133.57 619.78,-132.79 621.6,-139.55"/>
</g>
<!-- Node15 -->
<g id="node15" class="node">
<title>Node15</title>
<g id="a_node15"><a xlink:href="classBoard.html#a4ed8cf3fae283d3c88eb6b0dea9e9f0a" target="_top" xlink:title="Перемещает фигуру в board.">
<polygon fill="none" stroke="black" points="635.5,-76.5 635.5,-95.5 714.5,-95.5 714.5,-76.5 635.5,-76.5"/>
<text text-anchor="middle" x="675" y="-83.5" font-family="Helvetica,sans-Serif" font-size="10.00">Board::move</text>
</a>
</g>
</g>
<!-- Node3&#45;&gt;Node15 -->
<g id="edge14" class="edge">
<title>Node3&#45;&gt;Node15</title>
<path fill="none" stroke="midnightblue" d="M486.92,-190.3C506.16,-171.07 552.12,-127.99 599,-105 607.24,-100.96 616.42,-97.73 625.45,-95.15"/>
<polygon fill="midnightblue" stroke="midnightblue" points="626.36,-98.53 635.14,-92.61 624.58,-91.76 626.36,-98.53"/>
</g>
<!-- Node5 -->
<g id="node5" class="node">
<title>Node5</title>
<g id="a_node5"><a xlink:href="engine_8cpp.html#a8bc4d4b36aae439f5e6e3ce34903c487" target="_top" xlink:title=" ">
<polygon fill="none" stroke="black" points="794,-386.5 794,-405.5 905,-405.5 905,-386.5 794,-386.5"/>
<text text-anchor="middle" x="849.5" y="-393.5" font-family="Helvetica,sans-Serif" font-size="10.00">enemyUnderAttack</text>
</a>
</g>
</g>
<!-- Node4&#45;&gt;Node5 -->
<g id="edge4" class="edge">
<title>Node4&#45;&gt;Node5</title>
<path fill="none" stroke="midnightblue" d="M744.18,-373.02C761.26,-376.78 779.32,-380.76 795.54,-384.33"/>
<polygon fill="midnightblue" stroke="midnightblue" points="794.85,-387.77 805.37,-386.5 796.36,-380.93 794.85,-387.77"/>
</g>
<!-- Node6 -->
<g id="node6" class="node">
<title>Node6</title>
<g id="a_node6"><a xlink:href="classEngine.html#af2c8028ccaf85425744ad55844765fac" target="_top" xlink:title=" ">
<polygon fill="none" stroke="black" points="802,-348.5 802,-367.5 897,-367.5 897,-348.5 802,-348.5"/>
<text text-anchor="middle" x="849.5" y="-355.5" font-family="Helvetica,sans-Serif" font-size="10.00">Engine::getData</text>
</a>
</g>
</g>
<!-- Node4&#45;&gt;Node6 -->
<g id="edge5" class="edge">
<title>Node4&#45;&gt;Node6</title>
<path fill="none" stroke="midnightblue" d="M751.16,-358C764.77,-358 778.76,-358 791.73,-358"/>
<polygon fill="midnightblue" stroke="midnightblue" points="791.89,-361.5 801.89,-358 791.89,-354.5 791.89,-361.5"/>
</g>
<!-- Node8 -->
<g id="node8" class="node">
<title>Node8</title>
<g id="a_node8"><a xlink:href="engine_8cpp.html#a695770becb73d90aa349fd87533b435e" target="_top" xlink:title=" ">
<polygon fill="none" stroke="black" points="787,-310.5 787,-329.5 912,-329.5 912,-310.5 787,-310.5"/>
<text text-anchor="middle" x="849.5" y="-317.5" font-family="Helvetica,sans-Serif" font-size="10.00">quantityPossibleMove</text>
</a>
</g>
</g>
<!-- Node4&#45;&gt;Node8 -->
<g id="edge7" class="edge">
<title>Node4&#45;&gt;Node8</title>
<path fill="none" stroke="midnightblue" d="M744.18,-342.98C761.26,-339.22 779.32,-335.24 795.54,-331.67"/>
<polygon fill="midnightblue" stroke="midnightblue" points="796.36,-335.07 805.37,-329.5 794.85,-328.23 796.36,-335.07"/>
</g>
<!-- Node7 -->
<g id="node7" class="node">
<title>Node7</title>
<g id="a_node7"><a xlink:href="classBoard.html#ab906dade3854d38f6354861a715fccac" target="_top" xlink:title=" ">
<polygon fill="none" stroke="black" points="948,-348.5 948,-367.5 1067,-367.5 1067,-348.5 948,-348.5"/>
<text text-anchor="middle" x="1007.5" y="-355.5" font-family="Helvetica,sans-Serif" font-size="10.00">Board::getBoardData</text>
</a>
</g>
</g>
<!-- Node6&#45;&gt;Node7 -->
<g id="edge6" class="edge">
<title>Node6&#45;&gt;Node7</title>
<path fill="none" stroke="midnightblue" d="M897.31,-358C909.96,-358 923.93,-358 937.53,-358"/>
<polygon fill="midnightblue" stroke="midnightblue" points="937.83,-361.5 947.83,-358 937.83,-354.5 937.83,-361.5"/>
</g>
<!-- Node17 -->
<g id="node17" class="node">
<title>Node17</title>
<g id="a_node17"><a xlink:href="classEngine.html#a7e19f1f9eb9e6ec51f646bb0a94dd1d6" target="_top" xlink:title="clearBoard">
<polygon fill="none" stroke="black" points="422.5,-57.5 422.5,-76.5 530.5,-76.5 530.5,-57.5 422.5,-57.5"/>
<text text-anchor="middle" x="476.5" y="-64.5" font-family="Helvetica,sans-Serif" font-size="10.00">Engine::clearBoard</text>
</a>
</g>
</g>
<!-- Node16&#45;&gt;Node17 -->
<g id="edge16" class="edge">
<title>Node16&#45;&gt;Node17</title>
<path fill="none" stroke="midnightblue" d="M348.28,-67C369.43,-67 392.05,-67 412.27,-67"/>
<polygon fill="midnightblue" stroke="midnightblue" points="412.29,-70.5 422.29,-67 412.29,-63.5 412.29,-70.5"/>
</g>
<!-- Node19 -->
<g id="node19" class="node">
<title>Node19</title>
<g id="a_node19"><a xlink:href="classEngine.html#a9027b51e4922e147b8ae3b50348c69af" target="_top" xlink:title="Базовая расстановка фигур на поле.">
<polygon fill="none" stroke="black" points="390,-19.5 390,-38.5 563,-38.5 563,-19.5 390,-19.5"/>
<text text-anchor="middle" x="476.5" y="-26.5" font-family="Helvetica,sans-Serif" font-size="10.00">Engine::setStartingArrangement</text>
</a>
</g>
</g>
<!-- Node16&#45;&gt;Node19 -->
<g id="edge18" class="edge">
<title>Node16&#45;&gt;Node19</title>
<path fill="none" stroke="midnightblue" d="M321.59,-57.46C349.56,-52.29 384.32,-45.86 413.73,-40.42"/>
<polygon fill="midnightblue" stroke="midnightblue" points="414.69,-43.8 423.89,-38.54 413.42,-36.92 414.69,-43.8"/>
</g>
<!-- Node18 -->
<g id="node18" class="node">
<title>Node18</title>
<g id="a_node18"><a xlink:href="classBoard.html#af74f0d4b43e5aa3faea16d7c6407b05e" target="_top" xlink:title="clear Очищает доску.">
<polygon fill="none" stroke="black" points="637.5,-38.5 637.5,-57.5 712.5,-57.5 712.5,-38.5 637.5,-38.5"/>
<text text-anchor="middle" x="675" y="-45.5" font-family="Helvetica,sans-Serif" font-size="10.00">Board::clear</text>
</a>
</g>
</g>
<!-- Node17&#45;&gt;Node18 -->
<g id="edge17" class="edge">
<title>Node17&#45;&gt;Node18</title>
<path fill="none" stroke="midnightblue" d="M530.68,-61.86C560.74,-58.95 598,-55.35 626.99,-52.55"/>
<polygon fill="midnightblue" stroke="midnightblue" points="627.65,-56 637.26,-51.55 626.97,-49.03 627.65,-56"/>
</g>
<!-- Node19&#45;&gt;Node18 -->
<g id="edge19" class="edge">
<title>Node19&#45;&gt;Node18</title>
<path fill="none" stroke="midnightblue" d="M563.12,-37.28C585.21,-39.41 608.17,-41.63 627.42,-43.5"/>
<polygon fill="midnightblue" stroke="midnightblue" points="627.13,-46.98 637.42,-44.46 627.8,-40.02 627.13,-46.98"/>
</g>
<!-- Node20 -->
<g id="node20" class="node">
<title>Node20</title>
<g id="a_node20"><a xlink:href="classBoard.html#a183ac960c959ed0df9b49314d0479703" target="_top" xlink:title="Устанавливает фигуру на доску.">
<polygon fill="none" stroke="black" points="620,-0.5 620,-19.5 730,-19.5 730,-0.5 620,-0.5"/>
<text text-anchor="middle" x="675" y="-7.5" font-family="Helvetica,sans-Serif" font-size="10.00">Board::setFigureOn</text>
</a>
</g>
</g>
<!-- Node19&#45;&gt;Node20 -->
<g id="edge20" class="edge">
<title>Node19&#45;&gt;Node20</title>
<path fill="none" stroke="midnightblue" d="M563.12,-20.72C578.75,-19.21 594.81,-17.66 609.69,-16.22"/>
<polygon fill="midnightblue" stroke="midnightblue" points="610.16,-19.69 619.78,-15.24 609.49,-12.72 610.16,-19.69"/>
</g>
</g>
</svg>
        <g id="navigator" transform="translate(0 0)" fill="#404254">
                <rect fill="#f2f5e9" fill-opacity="0.5" stroke="#606060" stroke-width=".5" x="0" y="0" width="60" height="60"/>
                <use id="zoomplus" xlink:href="#zoomPlus" x="17" y="9" onmousedown="handleZoom(evt,'in')"/>
                <use id="zoomminus" xlink:href="#zoomMin" x="42" y="9" onmousedown="handleZoom(evt,'out')"/>
                <use id="reset" xlink:href="#resetDef" x="30" y="36" onmousedown="handleReset()"/>
                <g id="arrowUp" xlink:href="#dirArrow" transform="translate(30 24)" onmousedown="handlePan(0,-1)">
                  <use xlink:href="#rim" fill="#404040">
                        <set attributeName="fill" to="#808080" begin="arrowUp.mouseover" end="arrowUp.mouseout"/>
                  </use>
                  <path fill="none" stroke="white" stroke-width="1.5" d="M0,-3.0v7 M-2.5,-0.5L0,-3.0L2.5,-0.5"/>
                </g>
                <g id="arrowRight" xlink:href="#dirArrow" transform="rotate(90) translate(36 -43)" onmousedown="handlePan(1,0)">
                  <use xlink:href="#rim" fill="#404040">
                        <set attributeName="fill" to="#808080" begin="arrowRight.mouseover" end="arrowRight.mouseout"/>
                  </use>
                  <path fill="none" stroke="white" stroke-width="1.5" d="M0,-3.0v7 M-2.5,-0.5L0,-3.0L2.5,-0.5"/>
                </g>
                <g id="arrowDown" xlink:href="#dirArrow" transform="rotate(180) translate(-30 -48)" onmousedown="handlePan(0,1)">
                  <use xlink:href="#rim" fill="#404040">
                        <set attributeName="fill" to="#808080" begin="arrowDown.mouseover" end="arrowDown.mouseout"/>
                  </use>
                  <path fill="none" stroke="white" stroke-width="1.5" d="M0,-3.0v7 M-2.5,-0.5L0,-3.0L2.5,-0.5"/>
                </g>
                <g id="arrowLeft" xlink:href="#dirArrow" transform="rotate(270) translate(-36 17)" onmousedown="handlePan(-1,0)">
                  <use xlink:href="#rim" fill="#404040">
                        <set attributeName="fill" to="#808080" begin="arrowLeft.mouseover" end="arrowLeft.mouseout"/>
                  </use>
                  <path fill="none" stroke="white" stroke-width="1.5" d="M0,-3.0v7 M-2.5,-0.5L0,-3.0L2.5,-0.5"/>
                </g>
        </g>
        <svg viewBox="0 0 15 15" width="100%" height="30px" preserveAspectRatio="xMaxYMin meet">
         <g id="arrow_out" transform="scale(0.3 0.3)">
          <a xlink:href="classMainWindow_a996c5a2b6f77944776856f08ec30858d_cgraph_org.svg" target="_base">
           <rect id="button" ry="5" rx="5" y="6" x="6" height="38" width="38"
                fill="#f2f5e9" fill-opacity="0.5" stroke="#606060" stroke-width="1.0"/>
           <path id="arrow"
             d="M 11.500037,31.436501 C 11.940474,20.09759 22.043105,11.32322 32.158766,21.979434 L 37.068811,17.246167 C 37.068811,17.246167 37.088388,32 37.088388,32 L 22.160133,31.978069 C 22.160133,31.978069 26.997745,27.140456 26.997745,27.140456 C 18.528582,18.264221 13.291696,25.230495 11.500037,31.436501 z"
             style="fill:#404040;"/>
          </a>
         </g>
        </svg>
</svg>
