<?xml version="1.0" encoding="UTF-8" standalone="no"?>
<!DOCTYPE svg PUBLIC "-//W3C//DTD SVG 1.1//EN"
 "http://www.w3.org/Graphics/SVG/1.1/DTD/svg11.dtd">
<!-- Generated by graphviz version 2.43.0 (0)
 -->
<!-- Title: MainWindow::MainWindow Pages: 1 -->
<svg width="1320pt" height="508pt"
 viewBox="0.00 0.00 1320.00 508.00" xmlns="http://www.w3.org/2000/svg" xmlns:xlink="http://www.w3.org/1999/xlink">
<g id="graph0" class="graph" transform="scale(1 1) rotate(0) translate(4 504)">
<title>MainWindow::MainWindow</title>
<!-- Node1 -->
<g id="node1" class="node">
<title>Node1</title>
<g id="a_node1"><a xlink:title=" ">
<polygon fill="#bfbfbf" stroke="black" points="0,-81.5 0,-100.5 148,-100.5 148,-81.5 0,-81.5"/>
<text text-anchor="middle" x="74" y="-88.5" font-family="Helvetica,sans-Serif" font-size="10.00">MainWindow::MainWindow</text>
</a>
</g>
</g>
<!-- Node2 -->
<g id="node2" class="node">
<title>Node2</title>
<g id="a_node2"><a xlink:href="classMainWindow.html#a85e58f13e52e2a2d01b0bbf87c1442e9" target="_top" xlink:title=" ">
<polygon fill="none" stroke="black" points="185.5,-197 185.5,-227 352.5,-227 352.5,-197 185.5,-197"/>
<text text-anchor="start" x="193.5" y="-215" font-family="Helvetica,sans-Serif" font-size="10.00">MainWindow::connectGuiMove</text>
<text text-anchor="middle" x="269" y="-204" font-family="Helvetica,sans-Serif" font-size="10.00">WithEngine</text>
</a>
</g>
</g>
<!-- Node1&#45;&gt;Node2 -->
<g id="edge1" class="edge">
<title>Node1&#45;&gt;Node2</title>
<path fill="none" stroke="midnightblue" d="M90.47,-100.7C121.78,-120.33 193.28,-165.15 235.37,-191.54"/>
<polygon fill="midnightblue" stroke="midnightblue" points="233.54,-194.53 243.87,-196.87 237.26,-188.6 233.54,-194.53"/>
</g>
<!-- Node16 -->
<g id="node16" class="node">
<title>Node16</title>
<g id="a_node16"><a xlink:href="classMainWindow.html#adf52446f5b40a6b0045d04ccca523242" target="_top" xlink:title=" ">
<polygon fill="none" stroke="black" points="191,-101.5 191,-120.5 347,-120.5 347,-101.5 191,-101.5"/>
<text text-anchor="middle" x="269" y="-108.5" font-family="Helvetica,sans-Serif" font-size="10.00">MainWindow::guiPressFigure</text>
</a>
</g>
</g>
<!-- Node1&#45;&gt;Node16 -->
<g id="edge15" class="edge">
<title>Node1&#45;&gt;Node16</title>
<path fill="none" stroke="midnightblue" d="M148.24,-98.59C158.94,-99.7 170.04,-100.85 180.97,-101.98"/>
<polygon fill="midnightblue" stroke="midnightblue" points="180.65,-105.47 190.95,-103.02 181.37,-98.5 180.65,-105.47"/>
</g>
<!-- Node20 -->
<g id="node20" class="node">
<title>Node20</title>
<g id="a_node20"><a xlink:href="classMainWindow.html#a4195422fe1346c1aa9c640715dfe73cb" target="_top" xlink:title=" ">
<polygon fill="none" stroke="black" points="190,-50.5 190,-69.5 348,-69.5 348,-50.5 190,-50.5"/>
<text text-anchor="middle" x="269" y="-57.5" font-family="Helvetica,sans-Serif" font-size="10.00">MainWindow::startNewGame</text>
</a>
</g>
</g>
<!-- Node1&#45;&gt;Node20 -->
<g id="edge22" class="edge">
<title>Node1&#45;&gt;Node20</title>
<path fill="none" stroke="midnightblue" d="M134.22,-81.49C154.5,-78.23 177.38,-74.56 198.41,-71.18"/>
<polygon fill="midnightblue" stroke="midnightblue" points="199.24,-74.59 208.56,-69.55 198.13,-67.68 199.24,-74.59"/>
</g>
<!-- Node25 -->
<g id="node25" class="node">
<title>Node25</title>
<g id="a_node25"><a xlink:href="classMainWindow.html#aaf47fc01862209102bc55bc5cca41ecb" target="_top" xlink:title="Менеджер окон, переключает QStacedWidget на тот виджет, номер которого ему передали.">
<polygon fill="none" stroke="black" points="184,-12.5 184,-31.5 354,-31.5 354,-12.5 184,-12.5"/>
<text text-anchor="middle" x="269" y="-19.5" font-family="Helvetica,sans-Serif" font-size="10.00">MainWindow::windowsManager</text>
</a>
</g>
</g>
<!-- Node1&#45;&gt;Node25 -->
<g id="edge28" class="edge">
<title>Node1&#45;&gt;Node25</title>
<path fill="none" stroke="midnightblue" d="M93.04,-81.31C114.28,-70.24 150.87,-52.21 184,-41 191.65,-38.41 199.82,-36.07 207.94,-33.98"/>
<polygon fill="midnightblue" stroke="midnightblue" points="208.9,-37.35 217.78,-31.57 207.23,-30.55 208.9,-37.35"/>
</g>
<!-- Node3 -->
<g id="node3" class="node">
<title>Node3</title>
<g id="a_node3"><a xlink:href="classEngine.html#a66f2b590d92c6e0fa99741f02a8a9a3f" target="_top" xlink:title="Проверяет возможность хода и перемещает фигуру.">
<polygon fill="none" stroke="black" points="653,-297.5 653,-316.5 736,-316.5 736,-297.5 653,-297.5"/>
<text text-anchor="middle" x="694.5" y="-304.5" font-family="Helvetica,sans-Serif" font-size="10.00">Engine::move</text>
</a>
</g>
</g>
<!-- Node2&#45;&gt;Node3 -->
<g id="edge2" class="edge">
<title>Node2&#45;&gt;Node3</title>
<path fill="none" stroke="midnightblue" d="M337.1,-227.05C422.15,-246.13 566.82,-278.58 643.05,-295.68"/>
<polygon fill="midnightblue" stroke="midnightblue" points="642.37,-299.12 652.9,-297.89 643.91,-292.29 642.37,-299.12"/>
</g>
<!-- Node4 -->
<g id="node4" class="node">
<title>Node4</title>
<g id="a_node4"><a xlink:href="classEngine.html#a2b384a18565b9cdd85b52fed6d25ff0c" target="_top" xlink:title="Расчет преимущества игрока.">
<polygon fill="none" stroke="black" points="805,-393 805,-423 957,-423 957,-393 805,-393"/>
<text text-anchor="start" x="813" y="-411" font-family="Helvetica,sans-Serif" font-size="10.00">Engine::calculateAdvantage</text>
<text text-anchor="middle" x="881" y="-400" font-family="Helvetica,sans-Serif" font-size="10.00">White</text>
</a>
</g>
</g>
<!-- Node3&#45;&gt;Node4 -->
<g id="edge3" class="edge">
<title>Node3&#45;&gt;Node4</title>
<path fill="none" stroke="midnightblue" d="M706.95,-316.62C726.15,-332.34 766.51,-363.73 805,-383 809.49,-385.25 814.22,-387.36 819.04,-389.34"/>
<polygon fill="midnightblue" stroke="midnightblue" points="817.79,-392.6 828.38,-392.96 820.32,-386.08 817.79,-392.6"/>
</g>
<!-- Node9 -->
<g id="node9" class="node">
<title>Node9</title>
<g id="a_node9"><a xlink:href="engine_8cpp.html#ad73d39e7626a81fa0e95b7e2f04b28ce" target="_top" xlink:title=" ">
<polygon fill="none" stroke="black" points="820.5,-354.5 820.5,-373.5 941.5,-373.5 941.5,-354.5 820.5,-354.5"/>
<text text-anchor="middle" x="881" y="-361.5" font-family="Helvetica,sans-Serif" font-size="10.00">checkStepOnPossible</text>
</a>
</g>
</g>
<!-- Node3&#45;&gt;Node9 -->
<g id="edge8" class="edge">
<title>Node3&#45;&gt;Node9</title>
<path fill="none" stroke="midnightblue" d="M720.96,-316.53C743.03,-324.63 775.89,-336.28 805,-345 813.05,-347.41 821.64,-349.78 830.02,-351.98"/>
<polygon fill="midnightblue" stroke="midnightblue" points="829.18,-355.37 839.73,-354.48 830.92,-348.59 829.18,-355.37"/>
</g>
<!-- Node10 -->
<g id="node10" class="node">
<title>Node10</title>
<g id="a_node10"><a xlink:href="classFigure.html#af27c0f2d5fe69cb9eb17380d3ba91d6a" target="_top" xlink:title="Получение цвета фигуры.">
<polygon fill="none" stroke="black" points="834,-316.5 834,-335.5 928,-335.5 928,-316.5 834,-316.5"/>
<text text-anchor="middle" x="881" y="-323.5" font-family="Helvetica,sans-Serif" font-size="10.00">Figure::getColor</text>
</a>
</g>
</g>
<!-- Node3&#45;&gt;Node10 -->
<g id="edge9" class="edge">
<title>Node3&#45;&gt;Node10</title>
<path fill="none" stroke="midnightblue" d="M736.45,-311.22C762.16,-313.87 795.68,-317.32 823.86,-320.22"/>
<polygon fill="midnightblue" stroke="midnightblue" points="823.67,-323.72 833.98,-321.26 824.39,-316.75 823.67,-323.72"/>
</g>
<!-- Node11 -->
<g id="node11" class="node">
<title>Node11</title>
<g id="a_node11"><a xlink:href="classBoard.html#a0bac43a8a2fc2aabc7e687eeedbe9f9e" target="_top" xlink:title="Возвращает фигуру, которая находится в ячейке поля с координатами coords.">
<polygon fill="none" stroke="black" points="832.5,-278.5 832.5,-297.5 929.5,-297.5 929.5,-278.5 832.5,-278.5"/>
<text text-anchor="middle" x="881" y="-285.5" font-family="Helvetica,sans-Serif" font-size="10.00">Board::getFigure</text>
</a>
</g>
</g>
<!-- Node3&#45;&gt;Node11 -->
<g id="edge10" class="edge">
<title>Node3&#45;&gt;Node11</title>
<path fill="none" stroke="midnightblue" d="M736.45,-302.78C761.69,-300.18 794.45,-296.81 822.3,-293.94"/>
<polygon fill="midnightblue" stroke="midnightblue" points="822.73,-297.42 832.32,-292.91 822.01,-290.45 822.73,-297.42"/>
</g>
<!-- Node12 -->
<g id="node12" class="node">
<title>Node12</title>
<g id="a_node12"><a xlink:href="classFigure.html#a12d36f015da3026f980f87a93210885a" target="_top" xlink:title="Получение возможных ходов атаки.">
<polygon fill="none" stroke="black" points="808,-240.5 808,-259.5 954,-259.5 954,-240.5 808,-240.5"/>
<text text-anchor="middle" x="881" y="-247.5" font-family="Helvetica,sans-Serif" font-size="10.00">Figure::getPossibleAttacks</text>
</a>
</g>
</g>
<!-- Node3&#45;&gt;Node12 -->
<g id="edge11" class="edge">
<title>Node3&#45;&gt;Node12</title>
<path fill="none" stroke="midnightblue" d="M720.96,-297.47C743.03,-289.37 775.89,-277.72 805,-269 813.05,-266.59 821.64,-264.22 830.02,-262.02"/>
<polygon fill="midnightblue" stroke="midnightblue" points="830.92,-265.41 839.73,-259.52 829.18,-258.63 830.92,-265.41"/>
</g>
<!-- Node13 -->
<g id="node13" class="node">
<title>Node13</title>
<g id="a_node13"><a xlink:href="classFigure.html#ac527b099db89b98b705eb74bed96c147" target="_top" xlink:title="Получение возможных ходов перемещения.">
<polygon fill="none" stroke="black" points="810.5,-202.5 810.5,-221.5 951.5,-221.5 951.5,-202.5 810.5,-202.5"/>
<text text-anchor="middle" x="881" y="-209.5" font-family="Helvetica,sans-Serif" font-size="10.00">Figure::getPossibleMoves</text>
</a>
</g>
</g>
<!-- Node3&#45;&gt;Node13 -->
<g id="edge12" class="edge">
<title>Node3&#45;&gt;Node13</title>
<path fill="none" stroke="midnightblue" d="M706.49,-297.32C725.34,-281.22 765.62,-248.94 805,-231 810.32,-228.57 816.01,-226.42 821.78,-224.53"/>
<polygon fill="midnightblue" stroke="midnightblue" points="822.96,-227.82 831.51,-221.56 820.93,-221.13 822.96,-227.82"/>
</g>
<!-- Node14 -->
<g id="node14" class="node">
<title>Node14</title>
<g id="a_node14"><a xlink:href="classFigure.html#aad86c6d796ac96d30f2a310c107fdbac" target="_top" xlink:title="Получение элементарных ходов.">
<polygon fill="none" stroke="black" points="818.5,-480.5 818.5,-499.5 943.5,-499.5 943.5,-480.5 818.5,-480.5"/>
<text text-anchor="middle" x="881" y="-487.5" font-family="Helvetica,sans-Serif" font-size="10.00">Figure::getUnarySteps</text>
</a>
</g>
</g>
<!-- Node3&#45;&gt;Node14 -->
<g id="edge13" class="edge">
<title>Node3&#45;&gt;Node14</title>
<path fill="none" stroke="midnightblue" d="M698.99,-316.56C709.87,-344.93 746,-429.32 805,-471 807.74,-472.94 810.66,-474.68 813.71,-476.24"/>
<polygon fill="midnightblue" stroke="midnightblue" points="812.56,-479.56 823.12,-480.42 815.4,-473.16 812.56,-479.56"/>
</g>
<!-- Node15 -->
<g id="node15" class="node">
<title>Node15</title>
<g id="a_node15"><a xlink:href="classBoard.html#a4ed8cf3fae283d3c88eb6b0dea9e9f0a" target="_top" xlink:title="Перемещает фигуру в board.">
<polygon fill="none" stroke="black" points="841.5,-442.5 841.5,-461.5 920.5,-461.5 920.5,-442.5 841.5,-442.5"/>
<text text-anchor="middle" x="881" y="-449.5" font-family="Helvetica,sans-Serif" font-size="10.00">Board::move</text>
</a>
</g>
</g>
<!-- Node3&#45;&gt;Node15 -->
<g id="edge14" class="edge">
<title>Node3&#45;&gt;Node15</title>
<path fill="none" stroke="midnightblue" d="M700.99,-316.65C715.01,-340.4 754.65,-402.01 805,-433 812.98,-437.91 822.18,-441.56 831.34,-444.26"/>
<polygon fill="midnightblue" stroke="midnightblue" points="830.65,-447.7 841.21,-446.84 832.43,-440.93 830.65,-447.7"/>
</g>
<!-- Node5 -->
<g id="node5" class="node">
<title>Node5</title>
<g id="a_node5"><a xlink:href="classEngine.html#ab74c7d4f0e0778c122dc43fd052081b3" target="_top" xlink:title=" ">
<polygon fill="none" stroke="black" points="1000,-341.5 1000,-360.5 1150,-360.5 1150,-341.5 1000,-341.5"/>
<text text-anchor="middle" x="1075" y="-348.5" font-family="Helvetica,sans-Serif" font-size="10.00">Engine::enemyUnderAttack</text>
</a>
</g>
</g>
<!-- Node4&#45;&gt;Node5 -->
<g id="edge4" class="edge">
<title>Node4&#45;&gt;Node5</title>
<path fill="none" stroke="midnightblue" d="M927.67,-392.98C937.37,-389.73 947.53,-386.29 957,-383 973.07,-377.42 976.69,-374.84 993,-370 1001.45,-367.49 1010.48,-365.1 1019.32,-362.91"/>
<polygon fill="midnightblue" stroke="midnightblue" points="1020.29,-366.28 1029.19,-360.53 1018.65,-359.47 1020.29,-366.28"/>
</g>
<!-- Node6 -->
<g id="node6" class="node">
<title>Node6</title>
<g id="a_node6"><a xlink:href="classEngine.html#af2c8028ccaf85425744ad55844765fac" target="_top" xlink:title="getData возвращает поле.">
<polygon fill="none" stroke="black" points="1027.5,-417.5 1027.5,-436.5 1122.5,-436.5 1122.5,-417.5 1027.5,-417.5"/>
<text text-anchor="middle" x="1075" y="-424.5" font-family="Helvetica,sans-Serif" font-size="10.00">Engine::getData</text>
</a>
</g>
</g>
<!-- Node4&#45;&gt;Node6 -->
<g id="edge5" class="edge">
<title>Node4&#45;&gt;Node6</title>
<path fill="none" stroke="midnightblue" d="M957.06,-415.43C977.02,-417.4 998.26,-419.51 1017.08,-421.37"/>
<polygon fill="midnightblue" stroke="midnightblue" points="1016.97,-424.87 1027.27,-422.38 1017.66,-417.91 1016.97,-424.87"/>
</g>
<!-- Node8 -->
<g id="node8" class="node">
<title>Node8</title>
<g id="a_node8"><a xlink:href="classEngine.html#a1633adb681319e5d8840e7f432d88a7a" target="_top" xlink:title=" ">
<polygon fill="none" stroke="black" points="993,-379.5 993,-398.5 1157,-398.5 1157,-379.5 993,-379.5"/>
<text text-anchor="middle" x="1075" y="-386.5" font-family="Helvetica,sans-Serif" font-size="10.00">Engine::quantityPossibleMove</text>
</a>
</g>
</g>
<!-- Node4&#45;&gt;Node8 -->
<g id="edge7" class="edge">
<title>Node4&#45;&gt;Node8</title>
<path fill="none" stroke="midnightblue" d="M957.06,-400.57C965.52,-399.73 974.22,-398.87 982.86,-398.02"/>
<polygon fill="midnightblue" stroke="midnightblue" points="983.36,-401.49 992.97,-397.02 982.67,-394.52 983.36,-401.49"/>
</g>
<!-- Node7 -->
<g id="node7" class="node">
<title>Node7</title>
<g id="a_node7"><a xlink:href="classBoard.html#ab906dade3854d38f6354861a715fccac" target="_top" xlink:title="getBoo Возвращает доску.">
<polygon fill="none" stroke="black" points="1193,-164.5 1193,-183.5 1312,-183.5 1312,-164.5 1193,-164.5"/>
<text text-anchor="middle" x="1252.5" y="-171.5" font-family="Helvetica,sans-Serif" font-size="10.00">Board::getBoardData</text>
</a>
</g>
</g>
<!-- Node6&#45;&gt;Node7 -->
<g id="edge6" class="edge">
<title>Node6&#45;&gt;Node7</title>
<path fill="none" stroke="midnightblue" d="M1122.82,-423.78C1135.05,-420.99 1147.46,-416.18 1157,-408 1223.85,-350.69 1243.98,-239.15 1249.54,-193.85"/>
<polygon fill="midnightblue" stroke="midnightblue" points="1253.03,-194.16 1250.66,-183.83 1246.07,-193.38 1253.03,-194.16"/>
</g>
<!-- Node17 -->
<g id="node17" class="node">
<title>Node17</title>
<g id="a_node17"><a xlink:href="classEngine.html#afffac825472b73103b32f2d3e4555267" target="_top" xlink:title=" ">
<polygon fill="none" stroke="black" points="415.5,-96 415.5,-126 558.5,-126 558.5,-96 415.5,-96"/>
<text text-anchor="start" x="423.5" y="-114" font-family="Helvetica,sans-Serif" font-size="10.00">Engine::getPosibleAttacks</text>
<text text-anchor="middle" x="487" y="-103" font-family="Helvetica,sans-Serif" font-size="10.00">FigureFrom</text>
</a>
</g>
</g>
<!-- Node16&#45;&gt;Node17 -->
<g id="edge16" class="edge">
<title>Node16&#45;&gt;Node17</title>
<path fill="none" stroke="midnightblue" d="M347.07,-111C365.96,-111 386.24,-111 405.3,-111"/>
<polygon fill="midnightblue" stroke="midnightblue" points="405.45,-114.5 415.45,-111 405.45,-107.5 405.45,-114.5"/>
</g>
<!-- Node19 -->
<g id="node19" class="node">
<title>Node19</title>
<g id="a_node19"><a xlink:href="classEngine.html#ab4b084189c3f29e30a3a44ac0d5ed6b3" target="_top" xlink:title=" ">
<polygon fill="none" stroke="black" points="390,-164.5 390,-183.5 584,-183.5 584,-164.5 390,-164.5"/>
<text text-anchor="middle" x="487" y="-171.5" font-family="Helvetica,sans-Serif" font-size="10.00">Engine::getPosibleMovesFigureFrom</text>
</a>
</g>
</g>
<!-- Node16&#45;&gt;Node19 -->
<g id="edge19" class="edge">
<title>Node16&#45;&gt;Node19</title>
<path fill="none" stroke="midnightblue" d="M302.81,-120.57C340.42,-131.54 402.19,-149.56 443.47,-161.6"/>
<polygon fill="midnightblue" stroke="midnightblue" points="442.66,-165 453.24,-164.45 444.62,-158.28 442.66,-165"/>
</g>
<!-- Node17&#45;&gt;Node7 -->
<g id="edge18" class="edge">
<title>Node17&#45;&gt;Node7</title>
<path fill="none" stroke="midnightblue" d="M558.55,-107.83C578.42,-107.08 600.05,-106.38 620,-106 686.21,-104.75 702.94,-101.37 769,-106 921.71,-116.71 1099.63,-146.26 1190.8,-162.66"/>
<polygon fill="midnightblue" stroke="midnightblue" points="1190.22,-166.11 1200.69,-164.45 1191.47,-159.22 1190.22,-166.11"/>
</g>
<!-- Node18 -->
<g id="node18" class="node">
<title>Node18</title>
<g id="a_node18"><a xlink:href="classBoard.html#ac3f85f5b615feede6ea32745632203dd" target="_top" xlink:title=" ">
<polygon fill="none" stroke="black" points="620,-115 620,-145 769,-145 769,-115 620,-115"/>
<text text-anchor="start" x="628" y="-133" font-family="Helvetica,sans-Serif" font-size="10.00">Board::calculateFigureAfter</text>
<text text-anchor="middle" x="694.5" y="-122" font-family="Helvetica,sans-Serif" font-size="10.00">Taking</text>
</a>
</g>
</g>
<!-- Node17&#45;&gt;Node18 -->
<g id="edge17" class="edge">
<title>Node17&#45;&gt;Node18</title>
<path fill="none" stroke="midnightblue" d="M558.72,-117.54C575.07,-119.05 592.61,-120.67 609.46,-122.23"/>
<polygon fill="midnightblue" stroke="midnightblue" points="609.57,-125.75 619.85,-123.19 610.21,-118.78 609.57,-125.75"/>
</g>
<!-- Node19&#45;&gt;Node3 -->
<g id="edge21" class="edge">
<title>Node19&#45;&gt;Node3</title>
<path fill="none" stroke="midnightblue" d="M502.78,-183.57C538.02,-206.37 627.22,-264.1 669.96,-291.77"/>
<polygon fill="midnightblue" stroke="midnightblue" points="668.28,-294.85 678.58,-297.34 672.09,-288.97 668.28,-294.85"/>
</g>
<!-- Node19&#45;&gt;Node7 -->
<g id="edge20" class="edge">
<title>Node19&#45;&gt;Node7</title>
<path fill="none" stroke="midnightblue" d="M584.31,-174C740.59,-174 1045.69,-174 1182.37,-174"/>
<polygon fill="midnightblue" stroke="midnightblue" points="1182.71,-177.5 1192.71,-174 1182.71,-170.5 1182.71,-177.5"/>
</g>
<!-- Node21 -->
<g id="node21" class="node">
<title>Node21</title>
<g id="a_node21"><a xlink:href="classEngine.html#a7e19f1f9eb9e6ec51f646bb0a94dd1d6" target="_top" xlink:title="clearBoard очищает поле.">
<polygon fill="none" stroke="black" points="433,-0.5 433,-19.5 541,-19.5 541,-0.5 433,-0.5"/>
<text text-anchor="middle" x="487" y="-7.5" font-family="Helvetica,sans-Serif" font-size="10.00">Engine::clearBoard</text>
</a>
</g>
</g>
<!-- Node20&#45;&gt;Node21 -->
<g id="edge23" class="edge">
<title>Node20&#45;&gt;Node21</title>
<path fill="none" stroke="midnightblue" d="M315.98,-50.46C328.39,-47.66 341.76,-44.42 354,-41 370.24,-36.47 373.7,-33.31 390,-29 400.56,-26.21 411.88,-23.62 422.9,-21.31"/>
<polygon fill="midnightblue" stroke="midnightblue" points="423.81,-24.69 432.91,-19.26 422.41,-17.83 423.81,-24.69"/>
</g>
<!-- Node23 -->
<g id="node23" class="node">
<title>Node23</title>
<g id="a_node23"><a xlink:href="classEngine.html#a9027b51e4922e147b8ae3b50348c69af" target="_top" xlink:title="Базовая расстановка фигур на поле.">
<polygon fill="none" stroke="black" points="400.5,-38.5 400.5,-57.5 573.5,-57.5 573.5,-38.5 400.5,-38.5"/>
<text text-anchor="middle" x="487" y="-45.5" font-family="Helvetica,sans-Serif" font-size="10.00">Engine::setStartingArrangement</text>
</a>
</g>
</g>
<!-- Node20&#45;&gt;Node23 -->
<g id="edge25" class="edge">
<title>Node20&#45;&gt;Node23</title>
<path fill="none" stroke="midnightblue" d="M348.29,-55.65C361.89,-54.9 376.17,-54.1 390.18,-53.32"/>
<polygon fill="midnightblue" stroke="midnightblue" points="390.52,-56.81 400.31,-52.76 390.13,-49.82 390.52,-56.81"/>
</g>
<!-- Node22 -->
<g id="node22" class="node">
<title>Node22</title>
<g id="a_node22"><a xlink:href="classBoard.html#af74f0d4b43e5aa3faea16d7c6407b05e" target="_top" xlink:title="clear Очищает доску.">
<polygon fill="none" stroke="black" points="657,-0.5 657,-19.5 732,-19.5 732,-0.5 657,-0.5"/>
<text text-anchor="middle" x="694.5" y="-7.5" font-family="Helvetica,sans-Serif" font-size="10.00">Board::clear</text>
</a>
</g>
</g>
<!-- Node21&#45;&gt;Node22 -->
<g id="edge24" class="edge">
<title>Node21&#45;&gt;Node22</title>
<path fill="none" stroke="midnightblue" d="M541.19,-10C573.78,-10 615.11,-10 646.49,-10"/>
<polygon fill="midnightblue" stroke="midnightblue" points="646.73,-13.5 656.73,-10 646.73,-6.5 646.73,-13.5"/>
</g>
<!-- Node23&#45;&gt;Node22 -->
<g id="edge26" class="edge">
<title>Node23&#45;&gt;Node22</title>
<path fill="none" stroke="midnightblue" d="M539.59,-38.46C572.53,-32.37 614.88,-24.54 646.81,-18.63"/>
<polygon fill="midnightblue" stroke="midnightblue" points="647.59,-22.05 656.79,-16.79 646.32,-15.16 647.59,-22.05"/>
</g>
<!-- Node24 -->
<g id="node24" class="node">
<title>Node24</title>
<g id="a_node24"><a xlink:href="classBoard.html#a183ac960c959ed0df9b49314d0479703" target="_top" xlink:title="Устанавливает фигуру на доску.">
<polygon fill="none" stroke="black" points="639.5,-38.5 639.5,-57.5 749.5,-57.5 749.5,-38.5 639.5,-38.5"/>
<text text-anchor="middle" x="694.5" y="-45.5" font-family="Helvetica,sans-Serif" font-size="10.00">Board::setFigureOn</text>
</a>
</g>
</g>
<!-- Node23&#45;&gt;Node24 -->
<g id="edge27" class="edge">
<title>Node23&#45;&gt;Node24</title>
<path fill="none" stroke="midnightblue" d="M573.66,-48C592.26,-48 611.62,-48 629.23,-48"/>
<polygon fill="midnightblue" stroke="midnightblue" points="629.37,-51.5 639.37,-48 629.37,-44.5 629.37,-51.5"/>
</g>
</g>
</svg>
