<?xml version="1.0" encoding="UTF-8" standalone="no"?>
<!DOCTYPE svg PUBLIC "-//W3C//DTD SVG 1.1//EN"
 "http://www.w3.org/Graphics/SVG/1.1/DTD/svg11.dtd">
<!-- Generated by graphviz version 2.50.0 (0)
 -->
<!-- Title: src/constants.h Pages: 1 -->
<!--zoomable 285 -->
<svg id="main" version="1.1" xmlns="http://www.w3.org/2000/svg" xmlns:xlink="http://www.w3.org/1999/xlink" xml:space="preserve" onload="init(evt)">
<style type="text/css"><![CDATA[
.edge:hover path { stroke: red; }
.edge:hover polygon { stroke: red; fill: red; }
]]></style>
<script type="text/javascript"><![CDATA[
var edges = document.getElementsByTagName('g');
if (edges && edges.length) {
  for (var i=0;i<edges.length;i++) {
    if (edges[i].id.substr(0,4)=='edge') {
      edges[i].setAttribute('class','edge');
    }
  }
}
]]></script>
        <defs>
                <circle id="rim" cx="0" cy="0" r="7"/>
                <circle id="rim2" cx="0" cy="0" r="3.5"/>
                <g id="zoomPlus">
                        <use xlink:href="#rim" fill="#404040">
                                <set attributeName="fill" to="#808080" begin="zoomplus.mouseover" end="zoomplus.mouseout"/>
                        </use>
                        <path d="M-4,0h8M0,-4v8" fill="none" stroke="white" stroke-width="1.5" pointer-events="none"/>
                </g>
                <g id="zoomMin">
                        <use xlink:href="#rim" fill="#404040">
                                <set attributeName="fill" to="#808080" begin="zoomminus.mouseover" end="zoomminus.mouseout"/>
                        </use>
                        <path d="M-4,0h8" fill="none" stroke="white" stroke-width="1.5" pointer-events="none"/>
                </g>
                <g id="dirArrow">
                        <path fill="none" stroke="white" stroke-width="1.5" d="M0,-3.0v7 M-2.5,-0.5L0,-3.0L2.5,-0.5"/>
                </g>
               <g id="resetDef">
                       <use xlink:href="#rim2" fill="#404040">
                               <set attributeName="fill" to="#808080" begin="reset.mouseover" end="reset.mouseout"/>
                       </use>
               </g>
        </defs>

<script type="text/javascript">
var viewWidth = 1012;
var viewHeight = 285;
var sectionId = 'dynsection-0';
</script>
<script xlink:href="svgpan.js"/>
<svg id="graph" class="graph">
<g id="viewport">
<title>src/constants.h</title>
<!-- Node1 -->
<g id="node1" class="node">
<title>Node1</title>
<g id="a_node1"><a xlink:title=" ">
<polygon fill="#bfbfbf" stroke="black" points="406.5,-257.5 406.5,-276.5 490.5,-276.5 490.5,-257.5 406.5,-257.5"/>
<text text-anchor="middle" x="448.5" y="-264.5" font-family="Helvetica,sans-Serif" font-size="10.00">src/constants.h</text>
</a>
</g>
</g>
<!-- Node2 -->
<g id="node2" class="node">
<title>Node2</title>
<g id="a_node2"><a xlink:href="main__window_8h.html" target="_top" xlink:title=" ">
<polygon fill="none" stroke="black" points="268.5,-123.5 268.5,-153.5 376.5,-153.5 376.5,-123.5 268.5,-123.5"/>
<text text-anchor="start" x="276.5" y="-141.5" font-family="Helvetica,sans-Serif" font-size="10.00">src/gui/main_window</text>
<text text-anchor="middle" x="322.5" y="-130.5" font-family="Helvetica,sans-Serif" font-size="10.00">/main_window.h</text>
</a>
</g>
</g>
<!-- Node1&#45;&gt;Node2 -->
<g id="edge1" class="edge">
<title>Node1&#45;&gt;Node2</title>
<path fill="none" stroke="midnightblue" d="M425.56,-251.97C413.04,-243.75 397.65,-232.7 385.5,-221 363.6,-199.91 343,-170.89 331.64,-153.77"/>
<polygon fill="midnightblue" stroke="midnightblue" points="423.78,-254.98 434.09,-257.42 427.55,-249.09 423.78,-254.98"/>
</g>
<!-- Node5 -->
<g id="node5" class="node">
<title>Node5</title>
<g id="a_node5"><a xlink:href="screen__game_8h.html" target="_top" xlink:title=" ">
<polygon fill="none" stroke="black" points="88,-190.5 88,-220.5 195,-220.5 195,-190.5 88,-190.5"/>
<text text-anchor="start" x="96" y="-208.5" font-family="Helvetica,sans-Serif" font-size="10.00">src/gui/screen_game</text>
<text text-anchor="middle" x="141.5" y="-197.5" font-family="Helvetica,sans-Serif" font-size="10.00">/screen_game.h</text>
</a>
</g>
</g>
<!-- Node1&#45;&gt;Node5 -->
<g id="edge4" class="edge">
<title>Node1&#45;&gt;Node5</title>
<path fill="none" stroke="midnightblue" d="M396.46,-257.19C346.76,-248.6 269.84,-234.84 203.5,-221 200.79,-220.44 198.03,-219.84 195.23,-219.23"/>
<polygon fill="midnightblue" stroke="midnightblue" points="395.88,-260.64 406.33,-258.89 397.07,-253.74 395.88,-260.64"/>
</g>
<!-- Node7 -->
<g id="node7" class="node">
<title>Node7</title>
<g id="a_node7"><a xlink:href="screen__liderboard_8h.html" target="_top" xlink:title=" ">
<polygon fill="none" stroke="black" points="213,-190.5 213,-220.5 338,-220.5 338,-190.5 213,-190.5"/>
<text text-anchor="start" x="221" y="-208.5" font-family="Helvetica,sans-Serif" font-size="10.00">src/gui/screen_liderboard</text>
<text text-anchor="middle" x="275.5" y="-197.5" font-family="Helvetica,sans-Serif" font-size="10.00">/screen_liderboard.h</text>
</a>
</g>
</g>
<!-- Node1&#45;&gt;Node7 -->
<g id="edge7" class="edge">
<title>Node1&#45;&gt;Node7</title>
<path fill="none" stroke="midnightblue" d="M413.91,-254.1C385.76,-244.42 345.97,-230.74 316.27,-220.52"/>
<polygon fill="midnightblue" stroke="midnightblue" points="413.12,-257.53 423.71,-257.48 415.4,-250.91 413.12,-257.53"/>
</g>
<!-- Node9 -->
<g id="node9" class="node">
<title>Node9</title>
<g id="a_node9"><a xlink:href="screen__menu_8h.html" target="_top" xlink:title=" ">
<polygon fill="none" stroke="black" points="395,-190.5 395,-220.5 502,-220.5 502,-190.5 395,-190.5"/>
<text text-anchor="start" x="403" y="-208.5" font-family="Helvetica,sans-Serif" font-size="10.00">src/gui/screen_menu</text>
<text text-anchor="middle" x="448.5" y="-197.5" font-family="Helvetica,sans-Serif" font-size="10.00">/screen_menu.h</text>
</a>
</g>
</g>
<!-- Node1&#45;&gt;Node9 -->
<g id="edge10" class="edge">
<title>Node1&#45;&gt;Node9</title>
<path fill="none" stroke="midnightblue" d="M448.5,-247.23C448.5,-238.59 448.5,-228.5 448.5,-220.52"/>
<polygon fill="midnightblue" stroke="midnightblue" points="445,-247.48 448.5,-257.48 452,-247.48 445,-247.48"/>
</g>
<!-- Node11 -->
<g id="node11" class="node">
<title>Node11</title>
<g id="a_node11"><a xlink:href="screen__settings_8h.html" target="_top" xlink:title=" ">
<polygon fill="none" stroke="black" points="520.5,-190.5 520.5,-220.5 638.5,-220.5 638.5,-190.5 520.5,-190.5"/>
<text text-anchor="start" x="528.5" y="-208.5" font-family="Helvetica,sans-Serif" font-size="10.00">src/gui/screen_settings</text>
<text text-anchor="middle" x="579.5" y="-197.5" font-family="Helvetica,sans-Serif" font-size="10.00">/screen_settings.h</text>
</a>
</g>
</g>
<!-- Node1&#45;&gt;Node11 -->
<g id="edge13" class="edge">
<title>Node1&#45;&gt;Node11</title>
<path fill="none" stroke="midnightblue" d="M476.39,-253.33C497.59,-243.7 526.73,-230.47 548.63,-220.52"/>
<polygon fill="midnightblue" stroke="midnightblue" points="474.93,-250.15 467.27,-257.48 477.82,-256.53 474.93,-250.15"/>
</g>
<!-- Node13 -->
<g id="node13" class="node">
<title>Node13</title>
<g id="a_node13"><a xlink:href="engine_8h.html" target="_top" xlink:title=" ">
<polygon fill="none" stroke="black" points="623,-62 623,-81 748,-81 748,-62 623,-62"/>
<text text-anchor="middle" x="685.5" y="-69" font-family="Helvetica,sans-Serif" font-size="10.00">src/logic/engine/engine.h</text>
</a>
</g>
</g>
<!-- Node1&#45;&gt;Node13 -->
<g id="edge16" class="edge">
<title>Node1&#45;&gt;Node13</title>
<path fill="none" stroke="midnightblue" d="M500.79,-260.37C552.53,-253.74 626.91,-241.02 647.5,-221 687.76,-181.86 687.47,-106.36 686.12,-81.02"/>
<polygon fill="midnightblue" stroke="midnightblue" points="500.26,-256.91 490.76,-261.61 501.12,-263.85 500.26,-256.91"/>
</g>
<!-- Node15 -->
<g id="node15" class="node">
<title>Node15</title>
<g id="a_node15"><a xlink:href="figures_8h.html" target="_top" xlink:title=" ">
<polygon fill="none" stroke="black" points="710.5,-196 710.5,-215 836.5,-215 836.5,-196 710.5,-196"/>
<text text-anchor="middle" x="773.5" y="-203" font-family="Helvetica,sans-Serif" font-size="10.00">src/logic/figures/figures.h</text>
</a>
</g>
</g>
<!-- Node1&#45;&gt;Node15 -->
<g id="edge18" class="edge">
<title>Node1&#45;&gt;Node15</title>
<path fill="none" stroke="midnightblue" d="M500.7,-256.44C563.24,-244.99 667.04,-225.99 726.96,-215.02"/>
<polygon fill="midnightblue" stroke="midnightblue" points="499.86,-253.04 490.65,-258.28 501.12,-259.92 499.86,-253.04"/>
</g>
<!-- Node3 -->
<g id="node3" class="node">
<title>Node3</title>
<g id="a_node3"><a xlink:href="main__window_8cpp.html" target="_top" xlink:title=" ">
<polygon fill="none" stroke="black" points="213.5,-56.5 213.5,-86.5 321.5,-86.5 321.5,-56.5 213.5,-56.5"/>
<text text-anchor="start" x="221.5" y="-74.5" font-family="Helvetica,sans-Serif" font-size="10.00">src/gui/main_window</text>
<text text-anchor="middle" x="267.5" y="-63.5" font-family="Helvetica,sans-Serif" font-size="10.00">/main_window.cpp</text>
</a>
</g>
</g>
<!-- Node2&#45;&gt;Node3 -->
<g id="edge2" class="edge">
<title>Node2&#45;&gt;Node3</title>
<path fill="none" stroke="midnightblue" d="M304.08,-115.74C295.95,-106.12 286.61,-95.09 279.41,-86.58"/>
<polygon fill="midnightblue" stroke="midnightblue" points="301.43,-118.02 310.57,-123.4 306.78,-113.5 301.43,-118.02"/>
</g>
<!-- Node4 -->
<g id="node4" class="node">
<title>Node4</title>
<g id="a_node4"><a xlink:href="main_8cpp.html" target="_top" xlink:title=" ">
<polygon fill="none" stroke="black" points="340,-62 340,-81 413,-81 413,-62 340,-62"/>
<text text-anchor="middle" x="376.5" y="-69" font-family="Helvetica,sans-Serif" font-size="10.00">src/main.cpp</text>
</a>
</g>
</g>
<!-- Node2&#45;&gt;Node4 -->
<g id="edge3" class="edge">
<title>Node2&#45;&gt;Node4</title>
<path fill="none" stroke="midnightblue" d="M340.65,-115.66C350.44,-103.86 361.99,-89.97 369.28,-81.19"/>
<polygon fill="midnightblue" stroke="midnightblue" points="337.92,-113.47 334.22,-123.4 343.3,-117.94 337.92,-113.47"/>
</g>
<!-- Node5&#45;&gt;Node2 -->
<g id="edge5" class="edge">
<title>Node5&#45;&gt;Node2</title>
<path fill="none" stroke="midnightblue" d="M190.36,-186.96C219.51,-176.48 256.04,-163.37 283.3,-153.58"/>
<polygon fill="midnightblue" stroke="midnightblue" points="189,-183.72 180.77,-190.4 191.37,-190.31 189,-183.72"/>
</g>
<!-- Node6 -->
<g id="node6" class="node">
<title>Node6</title>
<g id="a_node6"><a xlink:href="screen__game_8cpp.html" target="_top" xlink:title=" ">
<polygon fill="none" stroke="black" points="0,-123.5 0,-153.5 107,-153.5 107,-123.5 0,-123.5"/>
<text text-anchor="start" x="8" y="-141.5" font-family="Helvetica,sans-Serif" font-size="10.00">src/gui/screen_game</text>
<text text-anchor="middle" x="53.5" y="-130.5" font-family="Helvetica,sans-Serif" font-size="10.00">/screen_game.cpp</text>
</a>
</g>
</g>
<!-- Node5&#45;&gt;Node6 -->
<g id="edge6" class="edge">
<title>Node5&#45;&gt;Node6</title>
<path fill="none" stroke="midnightblue" d="M114.36,-184.45C100.82,-174.45 84.77,-162.6 72.56,-153.58"/>
<polygon fill="midnightblue" stroke="midnightblue" points="112.28,-187.27 122.41,-190.4 116.44,-181.64 112.28,-187.27"/>
</g>
<!-- Node7&#45;&gt;Node2 -->
<g id="edge8" class="edge">
<title>Node7&#45;&gt;Node2</title>
<path fill="none" stroke="midnightblue" d="M291.66,-182.16C298.51,-172.68 306.29,-161.92 312.32,-153.58"/>
<polygon fill="midnightblue" stroke="midnightblue" points="288.72,-180.24 285.7,-190.4 294.39,-184.34 288.72,-180.24"/>
</g>
<!-- Node8 -->
<g id="node8" class="node">
<title>Node8</title>
<g id="a_node8"><a xlink:href="screen__liderboard_8cpp.html" target="_top" xlink:title=" ">
<polygon fill="none" stroke="black" points="125,-123.5 125,-153.5 250,-153.5 250,-123.5 125,-123.5"/>
<text text-anchor="start" x="133" y="-141.5" font-family="Helvetica,sans-Serif" font-size="10.00">src/gui/screen_liderboard</text>
<text text-anchor="middle" x="187.5" y="-130.5" font-family="Helvetica,sans-Serif" font-size="10.00">/screen_liderboard.cpp</text>
</a>
</g>
</g>
<!-- Node7&#45;&gt;Node8 -->
<g id="edge9" class="edge">
<title>Node7&#45;&gt;Node8</title>
<path fill="none" stroke="midnightblue" d="M248.36,-184.45C234.82,-174.45 218.77,-162.6 206.56,-153.58"/>
<polygon fill="midnightblue" stroke="midnightblue" points="246.28,-187.27 256.41,-190.4 250.44,-181.64 246.28,-187.27"/>
</g>
<!-- Node9&#45;&gt;Node2 -->
<g id="edge11" class="edge">
<title>Node9&#45;&gt;Node2</title>
<path fill="none" stroke="midnightblue" d="M412.08,-185.71C392.21,-175.46 368.02,-162.98 349.79,-153.58"/>
<polygon fill="midnightblue" stroke="midnightblue" points="410.67,-188.92 421.16,-190.4 413.88,-182.7 410.67,-188.92"/>
</g>
<!-- Node10 -->
<g id="node10" class="node">
<title>Node10</title>
<g id="a_node10"><a xlink:href="screen__menu_8cpp.html" target="_top" xlink:title=" ">
<polygon fill="none" stroke="black" points="395,-123.5 395,-153.5 502,-153.5 502,-123.5 395,-123.5"/>
<text text-anchor="start" x="403" y="-141.5" font-family="Helvetica,sans-Serif" font-size="10.00">src/gui/screen_menu</text>
<text text-anchor="middle" x="448.5" y="-130.5" font-family="Helvetica,sans-Serif" font-size="10.00">/screen_menu.cpp</text>
</a>
</g>
</g>
<!-- Node9&#45;&gt;Node10 -->
<g id="edge12" class="edge">
<title>Node9&#45;&gt;Node10</title>
<path fill="none" stroke="midnightblue" d="M448.5,-180.11C448.5,-171.15 448.5,-161.32 448.5,-153.58"/>
<polygon fill="midnightblue" stroke="midnightblue" points="445,-180.4 448.5,-190.4 452,-180.4 445,-180.4"/>
</g>
<!-- Node11&#45;&gt;Node2 -->
<g id="edge14" class="edge">
<title>Node11&#45;&gt;Node2</title>
<path fill="none" stroke="midnightblue" d="M514.33,-188.02C471.71,-177.24 416.7,-163.33 376.53,-153.16"/>
<polygon fill="midnightblue" stroke="midnightblue" points="513.5,-191.42 524.05,-190.48 515.21,-184.63 513.5,-191.42"/>
</g>
<!-- Node12 -->
<g id="node12" class="node">
<title>Node12</title>
<g id="a_node12"><a xlink:href="screen__settings_8cpp.html" target="_top" xlink:title=" ">
<polygon fill="none" stroke="black" points="520.5,-123.5 520.5,-153.5 638.5,-153.5 638.5,-123.5 520.5,-123.5"/>
<text text-anchor="start" x="528.5" y="-141.5" font-family="Helvetica,sans-Serif" font-size="10.00">src/gui/screen_settings</text>
<text text-anchor="middle" x="579.5" y="-130.5" font-family="Helvetica,sans-Serif" font-size="10.00">/screen_settings.cpp</text>
</a>
</g>
</g>
<!-- Node11&#45;&gt;Node12 -->
<g id="edge15" class="edge">
<title>Node11&#45;&gt;Node12</title>
<path fill="none" stroke="midnightblue" d="M579.5,-180.11C579.5,-171.15 579.5,-161.32 579.5,-153.58"/>
<polygon fill="midnightblue" stroke="midnightblue" points="576,-180.4 579.5,-190.4 583,-180.4 576,-180.4"/>
</g>
<!-- Node14 -->
<g id="node14" class="node">
<title>Node14</title>
<g id="a_node14"><a xlink:href="engine_8cpp.html" target="_top" xlink:title=" ">
<polygon fill="none" stroke="black" points="618,-0.5 618,-19.5 753,-19.5 753,-0.5 618,-0.5"/>
<text text-anchor="middle" x="685.5" y="-7.5" font-family="Helvetica,sans-Serif" font-size="10.00">src/logic/engine/engine.cpp</text>
</a>
</g>
</g>
<!-- Node13&#45;&gt;Node14 -->
<g id="edge17" class="edge">
<title>Node13&#45;&gt;Node14</title>
<path fill="none" stroke="midnightblue" d="M685.5,-51.82C685.5,-41 685.5,-27.9 685.5,-19.51"/>
<polygon fill="midnightblue" stroke="midnightblue" points="682,-51.98 685.5,-61.98 689,-51.98 682,-51.98"/>
</g>
<!-- Node15&#45;&gt;Node13 -->
<g id="edge22" class="edge">
<title>Node15&#45;&gt;Node13</title>
<path fill="none" stroke="midnightblue" d="M755.23,-188.93C744.99,-179.55 732.51,-166.94 723.5,-154 706.55,-129.66 693.83,-96.56 688.39,-81.1"/>
<polygon fill="midnightblue" stroke="midnightblue" points="753.05,-191.68 762.85,-195.71 757.7,-186.45 753.05,-191.68"/>
</g>
<!-- Node16 -->
<g id="node16" class="node">
<title>Node16</title>
<g id="a_node16"><a xlink:href="board_8h.html" target="_top" xlink:title=" ">
<polygon fill="none" stroke="black" points="732.5,-129 732.5,-148 848.5,-148 848.5,-129 732.5,-129"/>
<text text-anchor="middle" x="790.5" y="-136" font-family="Helvetica,sans-Serif" font-size="10.00">src/logic/board/board.h</text>
</a>
</g>
</g>
<!-- Node15&#45;&gt;Node16 -->
<g id="edge19" class="edge">
<title>Node15&#45;&gt;Node16</title>
<path fill="none" stroke="midnightblue" d="M778.36,-185.91C781.61,-173.49 785.74,-157.72 788.24,-148.13"/>
<polygon fill="midnightblue" stroke="midnightblue" points="774.94,-185.17 775.79,-195.73 781.71,-186.94 774.94,-185.17"/>
</g>
<!-- Node18 -->
<g id="node18" class="node">
<title>Node18</title>
<g id="a_node18"><a xlink:href="figures_8cpp.html" target="_top" xlink:title=" ">
<polygon fill="none" stroke="black" points="867,-129 867,-148 1004,-148 1004,-129 867,-129"/>
<text text-anchor="middle" x="935.5" y="-136" font-family="Helvetica,sans-Serif" font-size="10.00">src/logic/figures/figures.cpp</text>
</a>
</g>
</g>
<!-- Node15&#45;&gt;Node18 -->
<g id="edge23" class="edge">
<title>Node15&#45;&gt;Node18</title>
<path fill="none" stroke="midnightblue" d="M804.39,-192.1C836.56,-179.2 886.08,-159.33 914.16,-148.06"/>
<polygon fill="midnightblue" stroke="midnightblue" points="802.99,-188.9 795.01,-195.87 805.6,-195.39 802.99,-188.9"/>
</g>
<!-- Node16&#45;&gt;Node13 -->
<g id="edge21" class="edge">
<title>Node16&#45;&gt;Node13</title>
<path fill="none" stroke="midnightblue" d="M767.79,-123.44C747,-110.57 716.88,-91.93 699.44,-81.13"/>
<polygon fill="midnightblue" stroke="midnightblue" points="765.99,-126.45 776.34,-128.73 769.68,-120.49 765.99,-126.45"/>
</g>
<!-- Node17 -->
<g id="node17" class="node">
<title>Node17</title>
<g id="a_node17"><a xlink:href="board_8cpp.html" target="_top" xlink:title=" ">
<polygon fill="none" stroke="black" points="766.5,-62 766.5,-81 892.5,-81 892.5,-62 766.5,-62"/>
<text text-anchor="middle" x="829.5" y="-69" font-family="Helvetica,sans-Serif" font-size="10.00">src/logic/board/board.cpp</text>
</a>
</g>
</g>
<!-- Node16&#45;&gt;Node17 -->
<g id="edge20" class="edge">
<title>Node16&#45;&gt;Node17</title>
<path fill="none" stroke="midnightblue" d="M800.98,-120.03C808.53,-107.45 818.4,-91.01 824.32,-81.13"/>
<polygon fill="midnightblue" stroke="midnightblue" points="797.9,-118.36 795.76,-128.73 803.91,-121.96 797.9,-118.36"/>
</g>
</g>
</svg>
        <g id="navigator" transform="translate(0 0)" fill="#404254">
                <rect fill="#f2f5e9" fill-opacity="0.5" stroke="#606060" stroke-width=".5" x="0" y="0" width="60" height="60"/>
                <use id="zoomplus" xlink:href="#zoomPlus" x="17" y="9" onmousedown="handleZoom(evt,'in')"/>
                <use id="zoomminus" xlink:href="#zoomMin" x="42" y="9" onmousedown="handleZoom(evt,'out')"/>
                <use id="reset" xlink:href="#resetDef" x="30" y="36" onmousedown="handleReset()"/>
                <g id="arrowUp" xlink:href="#dirArrow" transform="translate(30 24)" onmousedown="handlePan(0,-1)">
                  <use xlink:href="#rim" fill="#404040">
                        <set attributeName="fill" to="#808080" begin="arrowUp.mouseover" end="arrowUp.mouseout"/>
                  </use>
                  <path fill="none" stroke="white" stroke-width="1.5" d="M0,-3.0v7 M-2.5,-0.5L0,-3.0L2.5,-0.5"/>
                </g>
                <g id="arrowRight" xlink:href="#dirArrow" transform="rotate(90) translate(36 -43)" onmousedown="handlePan(1,0)">
                  <use xlink:href="#rim" fill="#404040">
                        <set attributeName="fill" to="#808080" begin="arrowRight.mouseover" end="arrowRight.mouseout"/>
                  </use>
                  <path fill="none" stroke="white" stroke-width="1.5" d="M0,-3.0v7 M-2.5,-0.5L0,-3.0L2.5,-0.5"/>
                </g>
                <g id="arrowDown" xlink:href="#dirArrow" transform="rotate(180) translate(-30 -48)" onmousedown="handlePan(0,1)">
                  <use xlink:href="#rim" fill="#404040">
                        <set attributeName="fill" to="#808080" begin="arrowDown.mouseover" end="arrowDown.mouseout"/>
                  </use>
                  <path fill="none" stroke="white" stroke-width="1.5" d="M0,-3.0v7 M-2.5,-0.5L0,-3.0L2.5,-0.5"/>
                </g>
                <g id="arrowLeft" xlink:href="#dirArrow" transform="rotate(270) translate(-36 17)" onmousedown="handlePan(-1,0)">
                  <use xlink:href="#rim" fill="#404040">
                        <set attributeName="fill" to="#808080" begin="arrowLeft.mouseover" end="arrowLeft.mouseout"/>
                  </use>
                  <path fill="none" stroke="white" stroke-width="1.5" d="M0,-3.0v7 M-2.5,-0.5L0,-3.0L2.5,-0.5"/>
                </g>
        </g>
        <svg viewBox="0 0 15 15" width="100%" height="30px" preserveAspectRatio="xMaxYMin meet">
         <g id="arrow_out" transform="scale(0.3 0.3)">
          <a xlink:href="constants_8h__dep__incl_org.svg" target="_base">
           <rect id="button" ry="5" rx="5" y="6" x="6" height="38" width="38"
                fill="#f2f5e9" fill-opacity="0.5" stroke="#606060" stroke-width="1.0"/>
           <path id="arrow"
             d="M 11.500037,31.436501 C 11.940474,20.09759 22.043105,11.32322 32.158766,21.979434 L 37.068811,17.246167 C 37.068811,17.246167 37.088388,32 37.088388,32 L 22.160133,31.978069 C 22.160133,31.978069 26.997745,27.140456 26.997745,27.140456 C 18.528582,18.264221 13.291696,25.230495 11.500037,31.436501 z"
             style="fill:#404040;"/>
          </a>
         </g>
        </svg>
</svg>
