<?xml version="1.0" encoding="UTF-8" standalone="no"?>
<!DOCTYPE svg PUBLIC "-//W3C//DTD SVG 1.1//EN"
 "http://www.w3.org/Graphics/SVG/1.1/DTD/svg11.dtd">
<!-- Generated by graphviz version 2.43.0 (0)
 -->
<!-- Title: src/constants.h Pages: 1 -->
<svg width="1226pt" height="363pt"
 viewBox="0.00 0.00 1226.23 363.00" xmlns="http://www.w3.org/2000/svg" xmlns:xlink="http://www.w3.org/1999/xlink">
<g id="graph0" class="graph" transform="scale(1 1) rotate(0) translate(4 359)">
<title>src/constants.h</title>
<!-- Node1 -->
<g id="node1" class="node">
<title>Node1</title>
<g id="a_node1"><a xlink:title=" ">
<polygon fill="#bfbfbf" stroke="black" points="420.73,-335.5 420.73,-354.5 510.73,-354.5 510.73,-335.5 420.73,-335.5"/>
<text text-anchor="middle" x="465.73" y="-342.5" font-family="Helvetica,sans-Serif" font-size="10.00">src/constants.h</text>
</a>
</g>
</g>
<!-- Node2 -->
<g id="node2" class="node">
<title>Node2</title>
<g id="a_node2"><a xlink:href="main__window_8h.html" target="_top" xlink:title=" ">
<polygon fill="none" stroke="black" points="341.23,-67.5 341.23,-97.5 460.23,-97.5 460.23,-67.5 341.23,-67.5"/>
<text text-anchor="start" x="349.23" y="-85.5" font-family="Helvetica,sans-Serif" font-size="10.00">src/gui/main_window</text>
<text text-anchor="middle" x="400.73" y="-74.5" font-family="Helvetica,sans-Serif" font-size="10.00">/main_window.h</text>
</a>
</g>
</g>
<!-- Node1&#45;&gt;Node2 -->
<g id="edge1" class="edge">
<title>Node1&#45;&gt;Node2</title>
<path fill="none" stroke="midnightblue" d="M410.44,-342.2C344.54,-338.74 231.75,-328.61 139.73,-299 78.98,-279.45 45.68,-286.65 12.73,-232 -61.49,-108.94 214.87,-87.48 341.04,-84.01"/>
<polygon fill="midnightblue" stroke="midnightblue" points="410.45,-345.7 420.61,-342.7 410.79,-338.71 410.45,-345.7"/>
</g>
<!-- Node5 -->
<g id="node5" class="node">
<title>Node5</title>
<g id="a_node5"><a xlink:href="gui__figure_8h.html" target="_top" xlink:title=" ">
<polygon fill="none" stroke="black" points="149.23,-268.5 149.23,-298.5 266.23,-298.5 266.23,-268.5 149.23,-268.5"/>
<text text-anchor="start" x="157.23" y="-286.5" font-family="Helvetica,sans-Serif" font-size="10.00">src/gui/screen_game</text>
<text text-anchor="middle" x="207.73" y="-275.5" font-family="Helvetica,sans-Serif" font-size="10.00">/gui_figure.h</text>
</a>
</g>
</g>
<!-- Node1&#45;&gt;Node5 -->
<g id="edge4" class="edge">
<title>Node1&#45;&gt;Node5</title>
<path fill="none" stroke="midnightblue" d="M418.89,-333.2C376.13,-323.34 312.72,-308.71 266.55,-298.07"/>
<polygon fill="midnightblue" stroke="midnightblue" points="418.23,-336.64 428.76,-335.48 419.8,-329.82 418.23,-336.64"/>
</g>
<!-- Node7 -->
<g id="node7" class="node">
<title>Node7</title>
<g id="a_node7"><a xlink:href="screen__game_8h.html" target="_top" xlink:title=" ">
<polygon fill="none" stroke="black" points="157.23,-201.5 157.23,-231.5 274.23,-231.5 274.23,-201.5 157.23,-201.5"/>
<text text-anchor="start" x="165.23" y="-219.5" font-family="Helvetica,sans-Serif" font-size="10.00">src/gui/screen_game</text>
<text text-anchor="middle" x="215.73" y="-208.5" font-family="Helvetica,sans-Serif" font-size="10.00">/screen_game.h</text>
</a>
</g>
</g>
<!-- Node1&#45;&gt;Node7 -->
<g id="edge9" class="edge">
<title>Node1&#45;&gt;Node7</title>
<path fill="none" stroke="midnightblue" d="M410.81,-333.43C380.95,-326.3 344.04,-315.2 313.73,-299 309.16,-296.56 258.98,-254.2 232.25,-231.54"/>
<polygon fill="midnightblue" stroke="midnightblue" points="410.11,-336.86 420.64,-335.69 411.68,-330.04 410.11,-336.86"/>
</g>
<!-- Node9 -->
<g id="node9" class="node">
<title>Node9</title>
<g id="a_node9"><a xlink:href="screen__liderboard_8h.html" target="_top" xlink:title=" ">
<polygon fill="none" stroke="black" points="323.23,-268.5 323.23,-298.5 462.23,-298.5 462.23,-268.5 323.23,-268.5"/>
<text text-anchor="start" x="331.23" y="-286.5" font-family="Helvetica,sans-Serif" font-size="10.00">src/gui/screen_liderboard</text>
<text text-anchor="middle" x="392.73" y="-275.5" font-family="Helvetica,sans-Serif" font-size="10.00">/screen_liderboard.h</text>
</a>
</g>
</g>
<!-- Node1&#45;&gt;Node9 -->
<g id="edge10" class="edge">
<title>Node1&#45;&gt;Node9</title>
<path fill="none" stroke="midnightblue" d="M447.23,-328.92C435.76,-319.58 421.14,-307.66 409.93,-298.52"/>
<polygon fill="midnightblue" stroke="midnightblue" points="445.3,-331.87 455.27,-335.48 449.73,-326.44 445.3,-331.87"/>
</g>
<!-- Node11 -->
<g id="node11" class="node">
<title>Node11</title>
<g id="a_node11"><a xlink:href="screen__menu_8h.html" target="_top" xlink:title=" ">
<polygon fill="none" stroke="black" points="480.23,-268.5 480.23,-298.5 597.23,-298.5 597.23,-268.5 480.23,-268.5"/>
<text text-anchor="start" x="488.23" y="-286.5" font-family="Helvetica,sans-Serif" font-size="10.00">src/gui/screen_menu</text>
<text text-anchor="middle" x="538.73" y="-275.5" font-family="Helvetica,sans-Serif" font-size="10.00">/screen_menu.h</text>
</a>
</g>
</g>
<!-- Node1&#45;&gt;Node11 -->
<g id="edge13" class="edge">
<title>Node1&#45;&gt;Node11</title>
<path fill="none" stroke="midnightblue" d="M484.23,-328.92C495.69,-319.58 510.31,-307.66 521.52,-298.52"/>
<polygon fill="midnightblue" stroke="midnightblue" points="481.73,-326.44 476.19,-335.48 486.15,-331.87 481.73,-326.44"/>
</g>
<!-- Node13 -->
<g id="node13" class="node">
<title>Node13</title>
<g id="a_node13"><a xlink:href="screen__settings_8h.html" target="_top" xlink:title=" ">
<polygon fill="none" stroke="black" points="615.73,-268.5 615.73,-298.5 743.73,-298.5 743.73,-268.5 615.73,-268.5"/>
<text text-anchor="start" x="623.73" y="-286.5" font-family="Helvetica,sans-Serif" font-size="10.00">src/gui/screen_settings</text>
<text text-anchor="middle" x="679.73" y="-275.5" font-family="Helvetica,sans-Serif" font-size="10.00">/screen_settings.h</text>
</a>
</g>
</g>
<!-- Node1&#45;&gt;Node13 -->
<g id="edge16" class="edge">
<title>Node1&#45;&gt;Node13</title>
<path fill="none" stroke="midnightblue" d="M506.25,-332.73C541.17,-323.02 591.75,-308.96 629.29,-298.52"/>
<polygon fill="midnightblue" stroke="midnightblue" points="505.08,-329.42 496.39,-335.48 506.96,-336.17 505.08,-329.42"/>
</g>
<!-- Node15 -->
<g id="node15" class="node">
<title>Node15</title>
<g id="a_node15"><a xlink:href="engine_8h.html" target="_top" xlink:title=" ">
<polygon fill="none" stroke="black" points="787.73,-140 787.73,-159 925.73,-159 925.73,-140 787.73,-140"/>
<text text-anchor="middle" x="856.73" y="-147" font-family="Helvetica,sans-Serif" font-size="10.00">src/logic/engine/engine.h</text>
</a>
</g>
</g>
<!-- Node1&#45;&gt;Node15 -->
<g id="edge19" class="edge">
<title>Node1&#45;&gt;Node15</title>
<path fill="none" stroke="midnightblue" d="M521.27,-343.55C580.84,-341.21 677.07,-332.02 752.73,-299 796.81,-279.76 811.92,-272.6 837.73,-232 852.61,-208.58 855.86,-174.74 856.55,-159.06"/>
<polygon fill="midnightblue" stroke="midnightblue" points="520.82,-340.06 510.95,-343.9 521.06,-347.06 520.82,-340.06"/>
</g>
<!-- Node17 -->
<g id="node17" class="node">
<title>Node17</title>
<g id="a_node17"><a xlink:href="figures_8h.html" target="_top" xlink:title=" ">
<polygon fill="none" stroke="black" points="900.73,-274 900.73,-293 1038.73,-293 1038.73,-274 900.73,-274"/>
<text text-anchor="middle" x="969.73" y="-281" font-family="Helvetica,sans-Serif" font-size="10.00">src/logic/figures/figures.h</text>
</a>
</g>
</g>
<!-- Node1&#45;&gt;Node17 -->
<g id="edge22" class="edge">
<title>Node1&#45;&gt;Node17</title>
<path fill="none" stroke="midnightblue" d="M520.81,-338.49C598.8,-330.56 745.83,-315.08 870.73,-299 884.77,-297.19 899.9,-295.07 914.01,-293.01"/>
<polygon fill="midnightblue" stroke="midnightblue" points="520.33,-335.02 510.74,-339.52 521.04,-341.99 520.33,-335.02"/>
</g>
<!-- Node3 -->
<g id="node3" class="node">
<title>Node3</title>
<g id="a_node3"><a xlink:href="main__window_8cpp.html" target="_top" xlink:title=" ">
<polygon fill="none" stroke="black" points="283.23,-0.5 283.23,-30.5 402.23,-30.5 402.23,-0.5 283.23,-0.5"/>
<text text-anchor="start" x="291.23" y="-18.5" font-family="Helvetica,sans-Serif" font-size="10.00">src/gui/main_window</text>
<text text-anchor="middle" x="342.73" y="-7.5" font-family="Helvetica,sans-Serif" font-size="10.00">/main_window.cpp</text>
</a>
</g>
</g>
<!-- Node2&#45;&gt;Node3 -->
<g id="edge2" class="edge">
<title>Node2&#45;&gt;Node3</title>
<path fill="none" stroke="midnightblue" d="M381.31,-59.74C372.72,-50.12 362.88,-39.09 355.29,-30.58"/>
<polygon fill="midnightblue" stroke="midnightblue" points="378.87,-62.26 388.14,-67.4 384.09,-57.6 378.87,-62.26"/>
</g>
<!-- Node4 -->
<g id="node4" class="node">
<title>Node4</title>
<g id="a_node4"><a xlink:href="main_8cpp.html" target="_top" xlink:title=" ">
<polygon fill="none" stroke="black" points="420.23,-6 420.23,-25 499.23,-25 499.23,-6 420.23,-6"/>
<text text-anchor="middle" x="459.73" y="-13" font-family="Helvetica,sans-Serif" font-size="10.00">src/main.cpp</text>
</a>
</g>
</g>
<!-- Node2&#45;&gt;Node4 -->
<g id="edge3" class="edge">
<title>Node2&#45;&gt;Node4</title>
<path fill="none" stroke="midnightblue" d="M420.55,-59.66C431.26,-47.86 443.87,-33.97 451.83,-25.19"/>
<polygon fill="midnightblue" stroke="midnightblue" points="417.66,-57.64 413.53,-67.4 422.84,-62.34 417.66,-57.64"/>
</g>
<!-- Node6 -->
<g id="node6" class="node">
<title>Node6</title>
<g id="a_node6"><a xlink:href="gui__figure_8cpp.html" target="_top" xlink:title=" ">
<polygon fill="none" stroke="black" points="22.23,-201.5 22.23,-231.5 139.23,-231.5 139.23,-201.5 22.23,-201.5"/>
<text text-anchor="start" x="30.23" y="-219.5" font-family="Helvetica,sans-Serif" font-size="10.00">src/gui/screen_game</text>
<text text-anchor="middle" x="80.73" y="-208.5" font-family="Helvetica,sans-Serif" font-size="10.00">/gui_figure.cpp</text>
</a>
</g>
</g>
<!-- Node5&#45;&gt;Node6 -->
<g id="edge5" class="edge">
<title>Node5&#45;&gt;Node6</title>
<path fill="none" stroke="midnightblue" d="M171.02,-263.71C150.99,-253.46 126.61,-240.98 108.23,-231.58"/>
<polygon fill="midnightblue" stroke="midnightblue" points="169.67,-266.96 180.17,-268.4 172.86,-260.72 169.67,-266.96"/>
</g>
<!-- Node5&#45;&gt;Node7 -->
<g id="edge6" class="edge">
<title>Node5&#45;&gt;Node7</title>
<path fill="none" stroke="midnightblue" d="M210.69,-258.4C211.8,-249.37 213.03,-239.41 213.99,-231.58"/>
<polygon fill="midnightblue" stroke="midnightblue" points="207.21,-258.04 209.46,-268.4 214.16,-258.9 207.21,-258.04"/>
</g>
<!-- Node7&#45;&gt;Node2 -->
<g id="edge7" class="edge">
<title>Node7&#45;&gt;Node2</title>
<path fill="none" stroke="midnightblue" d="M181.09,-195.94C156.34,-179.48 130.27,-155.29 147.73,-134 171.69,-104.78 273.99,-92.14 340.95,-86.92"/>
<polygon fill="midnightblue" stroke="midnightblue" points="179.39,-199.01 189.71,-201.43 183.15,-193.11 179.39,-199.01"/>
</g>
<!-- Node8 -->
<g id="node8" class="node">
<title>Node8</title>
<g id="a_node8"><a xlink:href="screen__game_8cpp.html" target="_top" xlink:title=" ">
<polygon fill="none" stroke="black" points="157.23,-134.5 157.23,-164.5 274.23,-164.5 274.23,-134.5 157.23,-134.5"/>
<text text-anchor="start" x="165.23" y="-152.5" font-family="Helvetica,sans-Serif" font-size="10.00">src/gui/screen_game</text>
<text text-anchor="middle" x="215.73" y="-141.5" font-family="Helvetica,sans-Serif" font-size="10.00">/screen_game.cpp</text>
</a>
</g>
</g>
<!-- Node7&#45;&gt;Node8 -->
<g id="edge8" class="edge">
<title>Node7&#45;&gt;Node8</title>
<path fill="none" stroke="midnightblue" d="M215.73,-191.11C215.73,-182.15 215.73,-172.32 215.73,-164.58"/>
<polygon fill="midnightblue" stroke="midnightblue" points="212.23,-191.4 215.73,-201.4 219.23,-191.4 212.23,-191.4"/>
</g>
<!-- Node9&#45;&gt;Node2 -->
<g id="edge11" class="edge">
<title>Node9&#45;&gt;Node2</title>
<path fill="none" stroke="midnightblue" d="M351.9,-263.04C339.97,-255.18 328.37,-244.87 321.73,-232 315.41,-219.76 317.71,-214.18 321.73,-201 334.56,-158.91 368.07,-118.24 387.07,-97.57"/>
<polygon fill="midnightblue" stroke="midnightblue" points="350.22,-266.12 360.58,-268.34 353.87,-260.14 350.22,-266.12"/>
</g>
<!-- Node10 -->
<g id="node10" class="node">
<title>Node10</title>
<g id="a_node10"><a xlink:href="screen__liderboard_8cpp.html" target="_top" xlink:title=" ">
<polygon fill="none" stroke="black" points="331.23,-201.5 331.23,-231.5 470.23,-231.5 470.23,-201.5 331.23,-201.5"/>
<text text-anchor="start" x="339.23" y="-219.5" font-family="Helvetica,sans-Serif" font-size="10.00">src/gui/screen_liderboard</text>
<text text-anchor="middle" x="400.73" y="-208.5" font-family="Helvetica,sans-Serif" font-size="10.00">/screen_liderboard.cpp</text>
</a>
</g>
</g>
<!-- Node9&#45;&gt;Node10 -->
<g id="edge12" class="edge">
<title>Node9&#45;&gt;Node10</title>
<path fill="none" stroke="midnightblue" d="M395.69,-258.4C396.8,-249.37 398.03,-239.41 398.99,-231.58"/>
<polygon fill="midnightblue" stroke="midnightblue" points="392.21,-258.04 394.46,-268.4 399.16,-258.9 392.21,-258.04"/>
</g>
<!-- Node11&#45;&gt;Node2 -->
<g id="edge14" class="edge">
<title>Node11&#45;&gt;Node2</title>
<path fill="none" stroke="midnightblue" d="M523.02,-259.85C494.32,-218.46 434.19,-131.76 410.56,-97.68"/>
<polygon fill="midnightblue" stroke="midnightblue" points="520.23,-261.97 528.8,-268.19 525.98,-257.98 520.23,-261.97"/>
</g>
<!-- Node12 -->
<g id="node12" class="node">
<title>Node12</title>
<g id="a_node12"><a xlink:href="screen__menu_8cpp.html" target="_top" xlink:title=" ">
<polygon fill="none" stroke="black" points="527.23,-201.5 527.23,-231.5 644.23,-231.5 644.23,-201.5 527.23,-201.5"/>
<text text-anchor="start" x="535.23" y="-219.5" font-family="Helvetica,sans-Serif" font-size="10.00">src/gui/screen_menu</text>
<text text-anchor="middle" x="585.73" y="-208.5" font-family="Helvetica,sans-Serif" font-size="10.00">/screen_menu.cpp</text>
</a>
</g>
</g>
<!-- Node11&#45;&gt;Node12 -->
<g id="edge15" class="edge">
<title>Node11&#45;&gt;Node12</title>
<path fill="none" stroke="midnightblue" d="M554.88,-260.16C561.74,-250.68 569.52,-239.92 575.55,-231.58"/>
<polygon fill="midnightblue" stroke="midnightblue" points="551.95,-258.24 548.92,-268.4 557.62,-262.34 551.95,-258.24"/>
</g>
<!-- Node13&#45;&gt;Node2 -->
<g id="edge17" class="edge">
<title>Node13&#45;&gt;Node2</title>
<path fill="none" stroke="midnightblue" d="M676.89,-258.29C673.69,-240.57 666.92,-216.95 652.73,-201 601.86,-143.84 517.38,-112.42 460.41,-96.78"/>
<polygon fill="midnightblue" stroke="midnightblue" points="673.47,-259.08 678.46,-268.43 680.39,-258.01 673.47,-259.08"/>
</g>
<!-- Node14 -->
<g id="node14" class="node">
<title>Node14</title>
<g id="a_node14"><a xlink:href="screen__settings_8cpp.html" target="_top" xlink:title=" ">
<polygon fill="none" stroke="black" points="700.73,-201.5 700.73,-231.5 828.73,-231.5 828.73,-201.5 700.73,-201.5"/>
<text text-anchor="start" x="708.73" y="-219.5" font-family="Helvetica,sans-Serif" font-size="10.00">src/gui/screen_settings</text>
<text text-anchor="middle" x="764.73" y="-208.5" font-family="Helvetica,sans-Serif" font-size="10.00">/screen_settings.cpp</text>
</a>
</g>
</g>
<!-- Node13&#45;&gt;Node14 -->
<g id="edge18" class="edge">
<title>Node13&#45;&gt;Node14</title>
<path fill="none" stroke="midnightblue" d="M706.31,-262.17C719.31,-252.23 734.63,-240.51 746.32,-231.58"/>
<polygon fill="midnightblue" stroke="midnightblue" points="703.99,-259.54 698.17,-268.4 708.24,-265.1 703.99,-259.54"/>
</g>
<!-- Node15&#45;&gt;Node2 -->
<g id="edge20" class="edge">
<title>Node15&#45;&gt;Node2</title>
<path fill="none" stroke="midnightblue" d="M786.61,-138.51C697.34,-125.78 544.64,-104.01 460.58,-92.03"/>
<polygon fill="midnightblue" stroke="midnightblue" points="786.25,-141.99 796.64,-139.94 787.24,-135.06 786.25,-141.99"/>
</g>
<!-- Node16 -->
<g id="node16" class="node">
<title>Node16</title>
<g id="a_node16"><a xlink:href="engine_8cpp.html" target="_top" xlink:title=" ">
<polygon fill="none" stroke="black" points="782.23,-73 782.23,-92 931.23,-92 931.23,-73 782.23,-73"/>
<text text-anchor="middle" x="856.73" y="-80" font-family="Helvetica,sans-Serif" font-size="10.00">src/logic/engine/engine.cpp</text>
</a>
</g>
</g>
<!-- Node15&#45;&gt;Node16 -->
<g id="edge21" class="edge">
<title>Node15&#45;&gt;Node16</title>
<path fill="none" stroke="midnightblue" d="M856.73,-129.54C856.73,-117.17 856.73,-101.62 856.73,-92.13"/>
<polygon fill="midnightblue" stroke="midnightblue" points="853.23,-129.73 856.73,-139.73 860.23,-129.73 853.23,-129.73"/>
</g>
<!-- Node17&#45;&gt;Node15 -->
<g id="edge26" class="edge">
<title>Node17&#45;&gt;Node15</title>
<path fill="none" stroke="midnightblue" d="M950.75,-267.26C939.41,-257.71 925.05,-244.82 913.73,-232 892,-207.42 871.13,-174.43 861.81,-159.06"/>
<polygon fill="midnightblue" stroke="midnightblue" points="948.8,-270.19 958.74,-273.86 953.25,-264.79 948.8,-270.19"/>
</g>
<!-- Node18 -->
<g id="node18" class="node">
<title>Node18</title>
<g id="a_node18"><a xlink:href="board_8h.html" target="_top" xlink:title=" ">
<polygon fill="none" stroke="black" points="922.73,-207 922.73,-226 1050.73,-226 1050.73,-207 922.73,-207"/>
<text text-anchor="middle" x="986.73" y="-214" font-family="Helvetica,sans-Serif" font-size="10.00">src/logic/board/board.h</text>
</a>
</g>
</g>
<!-- Node17&#45;&gt;Node18 -->
<g id="edge23" class="edge">
<title>Node17&#45;&gt;Node18</title>
<path fill="none" stroke="midnightblue" d="M974.59,-263.91C977.84,-251.49 981.96,-235.72 984.47,-226.13"/>
<polygon fill="midnightblue" stroke="midnightblue" points="971.16,-263.17 972.02,-273.73 977.94,-264.94 971.16,-263.17"/>
</g>
<!-- Node20 -->
<g id="node20" class="node">
<title>Node20</title>
<g id="a_node20"><a xlink:href="figures_8cpp.html" target="_top" xlink:title=" ">
<polygon fill="none" stroke="black" points="1069.23,-207 1069.23,-226 1218.23,-226 1218.23,-207 1069.23,-207"/>
<text text-anchor="middle" x="1143.73" y="-214" font-family="Helvetica,sans-Serif" font-size="10.00">src/logic/figures/figures.cpp</text>
</a>
</g>
</g>
<!-- Node17&#45;&gt;Node20 -->
<g id="edge27" class="edge">
<title>Node17&#45;&gt;Node20</title>
<path fill="none" stroke="midnightblue" d="M1002.46,-270.27C1037,-257.37 1090.52,-237.38 1120.8,-226.06"/>
<polygon fill="midnightblue" stroke="midnightblue" points="1000.98,-267.09 992.83,-273.87 1003.42,-273.65 1000.98,-267.09"/>
</g>
<!-- Node18&#45;&gt;Node15 -->
<g id="edge25" class="edge">
<title>Node18&#45;&gt;Node15</title>
<path fill="none" stroke="midnightblue" d="M960.27,-202.27C934.53,-189.4 896.14,-170.21 874.06,-159.17"/>
<polygon fill="midnightblue" stroke="midnightblue" points="958.95,-205.53 969.46,-206.87 962.08,-199.27 958.95,-205.53"/>
</g>
<!-- Node19 -->
<g id="node19" class="node">
<title>Node19</title>
<g id="a_node19"><a xlink:href="board_8cpp.html" target="_top" xlink:title=" ">
<polygon fill="none" stroke="black" points="944.23,-140 944.23,-159 1083.23,-159 1083.23,-140 944.23,-140"/>
<text text-anchor="middle" x="1013.73" y="-147" font-family="Helvetica,sans-Serif" font-size="10.00">src/logic/board/board.cpp</text>
</a>
</g>
</g>
<!-- Node18&#45;&gt;Node19 -->
<g id="edge24" class="edge">
<title>Node18&#45;&gt;Node19</title>
<path fill="none" stroke="midnightblue" d="M994.29,-197.29C999.48,-184.81 1006.12,-168.81 1010.14,-159.13"/>
<polygon fill="midnightblue" stroke="midnightblue" points="990.97,-196.16 990.37,-206.73 997.44,-198.84 990.97,-196.16"/>
</g>
</g>
</svg>
