<?xml version="1.0" encoding="UTF-8" standalone="no"?>
<!DOCTYPE svg PUBLIC "-//W3C//DTD SVG 1.1//EN"
 "http://www.w3.org/Graphics/SVG/1.1/DTD/svg11.dtd">
<!-- Generated by graphviz version 2.43.0 (0)
 -->
<!-- Title: src/gui/main_window Pages: 1 -->
<svg width="583pt" height="167pt"
 viewBox="0.00 0.00 583.00 167.00" xmlns="http://www.w3.org/2000/svg" xmlns:xlink="http://www.w3.org/1999/xlink">
<g id="graph0" class="graph" transform="scale(1 1) rotate(0) translate(4 163)">
<title>src/gui/main_window</title>
<g id="clust1" class="cluster">
<title>clusterdir_99d0482cf009f9d97a0877749b817f19</title>
<g id="a_clust1"><a xlink:href="dir_99d0482cf009f9d97a0877749b817f19.html" target="_top" xlink:title="gui">
<polygon fill="#ddddee" stroke="black" points="8,-8 8,-151 439,-151 439,-8 8,-8"/>
<text text-anchor="middle" x="223.5" y="-139" font-family="Helvetica,sans-Serif" font-size="10.00">gui</text>
</a>
</g>
</g>
<!-- dir_0ca362c5a2d8fdaec9858d1a5cb7ef54 -->
<g id="node1" class="node">
<title>dir_0ca362c5a2d8fdaec9858d1a5cb7ef54</title>
<g id="a_node1"><a xlink:href="dir_0ca362c5a2d8fdaec9858d1a5cb7ef54.html" target="_top" xlink:title="screen_settings">
<polygon fill="none" stroke="black" points="108.5,-52 15.5,-52 15.5,-16 108.5,-16 108.5,-52"/>
<text text-anchor="middle" x="62" y="-31.5" font-family="Helvetica,sans-Serif" font-size="10.00">screen_settings</text>
</a>
</g>
</g>
<!-- dir_444ecdc342978a478522442bccbecc46 -->
<g id="node2" class="node">
<title>dir_444ecdc342978a478522442bccbecc46</title>
<g id="a_node2"><a xlink:href="dir_444ecdc342978a478522442bccbecc46.html" target="_top" xlink:title="screen_menu">
<polygon fill="none" stroke="black" points="209,-52 127,-52 127,-16 209,-16 209,-52"/>
<text text-anchor="middle" x="168" y="-31.5" font-family="Helvetica,sans-Serif" font-size="10.00">screen_menu</text>
</a>
</g>
</g>
<!-- dir_68c39c25abf8756328ad027d71a080e4 -->
<g id="node3" class="node">
<title>dir_68c39c25abf8756328ad027d71a080e4</title>
<g id="a_node3"><a xlink:href="dir_68c39c25abf8756328ad027d71a080e4.html" target="_top" xlink:title="screen_liderboard">
<polygon fill="none" stroke="black" points="331,-52 227,-52 227,-16 331,-16 331,-52"/>
<text text-anchor="middle" x="279" y="-31.5" font-family="Helvetica,sans-Serif" font-size="10.00">screen_liderboard</text>
</a>
</g>
</g>
<!-- dir_fb8050bda4c87c840ba27990901cbe0c -->
<g id="node4" class="node">
<title>dir_fb8050bda4c87c840ba27990901cbe0c</title>
<g id="a_node4"><a xlink:href="dir_fb8050bda4c87c840ba27990901cbe0c.html" target="_top" xlink:title="screen_game">
<polygon fill="none" stroke="black" points="431,-52 349,-52 349,-16 431,-16 431,-52"/>
<text text-anchor="middle" x="390" y="-31.5" font-family="Helvetica,sans-Serif" font-size="10.00">screen_game</text>
</a>
</g>
</g>
<!-- dir_526a302981cdfb4f6ac4e897a95db68c -->
<g id="node5" class="node">
<title>dir_526a302981cdfb4f6ac4e897a95db68c</title>
<g id="a_node5"><a xlink:href="dir_526a302981cdfb4f6ac4e897a95db68c.html" target="_top" xlink:title="main_window">
<polygon fill="#eeeeff" stroke="black" points="376,-124 292,-124 292,-88 376,-88 376,-124"/>
<text text-anchor="middle" x="334" y="-103.5" font-family="Helvetica,sans-Serif" font-size="10.00">main_window</text>
</a>
</g>
</g>
<!-- dir_526a302981cdfb4f6ac4e897a95db68c&#45;&gt;dir_0ca362c5a2d8fdaec9858d1a5cb7ef54 -->
<g id="edge1" class="edge">
<title>dir_526a302981cdfb4f6ac4e897a95db68c&#45;&gt;dir_0ca362c5a2d8fdaec9858d1a5cb7ef54</title>
<path fill="none" stroke="black" d="M291.61,-95.31C249.98,-85.64 184.45,-70 118.44,-52.05"/>
<polygon fill="black" stroke="black" points="119.27,-48.64 108.7,-49.38 117.42,-55.4 119.27,-48.64"/>
<g id="a_edge1&#45;headlabel"><a xlink:href="dir_000005_000009.html" target="_top" xlink:title="1">
<text text-anchor="middle" x="123.48" y="-44.35" font-family="Helvetica,sans-Serif" font-size="10.00">1</text>
</a>
</g>
</g>
<!-- dir_526a302981cdfb4f6ac4e897a95db68c&#45;&gt;dir_444ecdc342978a478522442bccbecc46 -->
<g id="edge3" class="edge">
<title>dir_526a302981cdfb4f6ac4e897a95db68c&#45;&gt;dir_444ecdc342978a478522442bccbecc46</title>
<path fill="none" stroke="black" d="M293.39,-87.88C270.6,-78.26 241.97,-66.19 217.83,-56.01"/>
<polygon fill="black" stroke="black" points="219.05,-52.73 208.48,-52.07 216.33,-59.18 219.05,-52.73"/>
<g id="a_edge3&#45;headlabel"><a xlink:href="dir_000005_000008.html" target="_top" xlink:title="1">
<text text-anchor="middle" x="223.47" y="-49.01" font-family="Helvetica,sans-Serif" font-size="10.00">1</text>
</a>
</g>
</g>
<!-- dir_526a302981cdfb4f6ac4e897a95db68c&#45;&gt;dir_68c39c25abf8756328ad027d71a080e4 -->
<g id="edge5" class="edge">
<title>dir_526a302981cdfb4f6ac4e897a95db68c&#45;&gt;dir_68c39c25abf8756328ad027d71a080e4</title>
<path fill="none" stroke="black" d="M320.4,-87.7C313.88,-79.39 305.93,-69.28 298.75,-60.14"/>
<polygon fill="black" stroke="black" points="301.37,-57.81 292.44,-52.1 295.87,-62.13 301.37,-57.81"/>
<g id="a_edge5&#45;headlabel"><a xlink:href="dir_000005_000007.html" target="_top" xlink:title="1">
<text text-anchor="middle" x="305.82" y="-56.38" font-family="Helvetica,sans-Serif" font-size="10.00">1</text>
</a>
</g>
</g>
<!-- dir_526a302981cdfb4f6ac4e897a95db68c&#45;&gt;dir_fb8050bda4c87c840ba27990901cbe0c -->
<g id="edge6" class="edge">
<title>dir_526a302981cdfb4f6ac4e897a95db68c&#45;&gt;dir_fb8050bda4c87c840ba27990901cbe0c</title>
<path fill="none" stroke="black" d="M347.84,-87.7C354.49,-79.39 362.58,-69.28 369.89,-60.14"/>
<polygon fill="black" stroke="black" points="372.8,-62.1 376.32,-52.1 367.34,-57.73 372.8,-62.1"/>
<g id="a_edge6&#45;headlabel"><a xlink:href="dir_000005_000006.html" target="_top" xlink:title="1">
<text text-anchor="middle" x="372.77" y="-64.18" font-family="Helvetica,sans-Serif" font-size="10.00">1</text>
</a>
</g>
</g>
<!-- dir_3d2e4578fe4cc3b7fa6177047437af5b -->
<g id="node6" class="node">
<title>dir_3d2e4578fe4cc3b7fa6177047437af5b</title>
<g id="a_node6"><a xlink:href="dir_3d2e4578fe4cc3b7fa6177047437af5b.html" target="_top" xlink:title="logic">
<polygon fill="none" stroke="red" points="503,-52 449,-52 449,-16 503,-16 503,-52"/>
<text text-anchor="middle" x="476" y="-31.5" font-family="Helvetica,sans-Serif" font-size="10.00">logic</text>
</a>
</g>
</g>
<!-- dir_526a302981cdfb4f6ac4e897a95db68c&#45;&gt;dir_3d2e4578fe4cc3b7fa6177047437af5b -->
<g id="edge2" class="edge">
<title>dir_526a302981cdfb4f6ac4e897a95db68c&#45;&gt;dir_3d2e4578fe4cc3b7fa6177047437af5b</title>
<path fill="none" stroke="black" d="M369.94,-87.78C389.08,-78.56 413.21,-66.83 439.61,-53.67"/>
<polygon fill="black" stroke="black" points="441.27,-56.75 448.65,-49.15 438.14,-50.49 441.27,-56.75"/>
<g id="a_edge2&#45;headlabel"><a xlink:href="dir_000005_000010.html" target="_top" xlink:title="1">
<text text-anchor="middle" x="439.33" y="-58.4" font-family="Helvetica,sans-Serif" font-size="10.00">1</text>
</a>
</g>
</g>
<!-- dir_452baf35e1d7639c9f2a5ece4ec85855 -->
<g id="node7" class="node">
<title>dir_452baf35e1d7639c9f2a5ece4ec85855</title>
<g id="a_node7"><a xlink:href="dir_452baf35e1d7639c9f2a5ece4ec85855.html" target="_top" xlink:title="storage">
<polygon fill="none" stroke="red" points="575,-52 521,-52 521,-16 575,-16 575,-52"/>
<text text-anchor="middle" x="548" y="-31.5" font-family="Helvetica,sans-Serif" font-size="10.00">storage</text>
</a>
</g>
</g>
<!-- dir_526a302981cdfb4f6ac4e897a95db68c&#45;&gt;dir_452baf35e1d7639c9f2a5ece4ec85855 -->
<g id="edge4" class="edge">
<title>dir_526a302981cdfb4f6ac4e897a95db68c&#45;&gt;dir_452baf35e1d7639c9f2a5ece4ec85855</title>
<path fill="none" stroke="black" d="M376.32,-94.34C410.63,-85.27 460.28,-71.17 511.16,-52.06"/>
<polygon fill="black" stroke="black" points="512.57,-55.26 520.67,-48.43 510.08,-48.72 512.57,-55.26"/>
<g id="a_edge4&#45;headlabel"><a xlink:href="dir_000005_000015.html" target="_top" xlink:title="1">
<text text-anchor="middle" x="510.23" y="-56.7" font-family="Helvetica,sans-Serif" font-size="10.00">1</text>
</a>
</g>
</g>
</g>
</svg>
