<?xml version="1.0" encoding="UTF-8" standalone="no"?>
<!DOCTYPE svg PUBLIC "-//W3C//DTD SVG 1.1//EN"
 "http://www.w3.org/Graphics/SVG/1.1/DTD/svg11.dtd">
<!-- Generated by graphviz version 2.43.0 (0)
 -->
<!-- Title: src/logic Pages: 1 -->
<svg width="266pt" height="255pt"
 viewBox="0.00 0.00 266.00 255.00" xmlns="http://www.w3.org/2000/svg" xmlns:xlink="http://www.w3.org/1999/xlink">
<g id="graph0" class="graph" transform="scale(1 1) rotate(0) translate(4 251)">
<title>src/logic</title>
<g id="clust1" class="cluster">
<title>clusterdir_68267d1309a1af8e8297ef4c3efbcdba</title>
<g id="a_clust1"><a xlink:href="dir_68267d1309a1af8e8297ef4c3efbcdba.html" target="_top" xlink:title="src">
<polygon fill="#ddddee" stroke="black" points="8,-8 8,-239 250,-239 250,-8 8,-8"/>
<text text-anchor="middle" x="129" y="-227" font-family="Helvetica,sans-Serif" font-size="10.00">src</text>
</a>
</g>
</g>
<g id="clust2" class="cluster">
<title>clusterdir_3d2e4578fe4cc3b7fa6177047437af5b</title>
<g id="a_clust2"><a xlink:href="dir_3d2e4578fe4cc3b7fa6177047437af5b.html" target="_top">
<polygon fill="#eeeeff" stroke="black" points="16,-16 16,-212 242,-212 242,-16 16,-16"/>
</a>
</g>
</g>
<!-- dir_3d2e4578fe4cc3b7fa6177047437af5b -->
<g id="node1" class="node">
<title>dir_3d2e4578fe4cc3b7fa6177047437af5b</title>
<text text-anchor="middle" x="207" y="-183.5" font-family="Helvetica,sans-Serif" font-size="10.00">logic</text>
</g>
<!-- dir_3fe8709595e6aa4a2880a9796bda37c6 -->
<g id="node2" class="node">
<title>dir_3fe8709595e6aa4a2880a9796bda37c6</title>
<g id="a_node2"><a xlink:href="dir_3fe8709595e6aa4a2880a9796bda37c6.html" target="_top" xlink:title="board">
<polygon fill="white" stroke="black" points="139,-132 85,-132 85,-96 139,-96 139,-132"/>
<text text-anchor="middle" x="112" y="-111.5" font-family="Helvetica,sans-Serif" font-size="10.00">board</text>
</a>
</g>
</g>
<!-- dir_f85fa5b410c455b12b1c74d094257128 -->
<g id="node4" class="node">
<title>dir_f85fa5b410c455b12b1c74d094257128</title>
<g id="a_node4"><a xlink:href="dir_f85fa5b410c455b12b1c74d094257128.html" target="_top" xlink:title="figures">
<polygon fill="white" stroke="black" points="162,-60 108,-60 108,-24 162,-24 162,-60"/>
<text text-anchor="middle" x="135" y="-39.5" font-family="Helvetica,sans-Serif" font-size="10.00">figures</text>
</a>
</g>
</g>
<!-- dir_3fe8709595e6aa4a2880a9796bda37c6&#45;&gt;dir_f85fa5b410c455b12b1c74d094257128 -->
<g id="edge3" class="edge">
<title>dir_3fe8709595e6aa4a2880a9796bda37c6&#45;&gt;dir_f85fa5b410c455b12b1c74d094257128</title>
<path fill="none" stroke="black" d="M117.69,-95.7C120.25,-87.9 123.33,-78.51 126.18,-69.83"/>
<polygon fill="black" stroke="black" points="129.58,-70.7 129.38,-60.1 122.93,-68.51 129.58,-70.7"/>
<g id="a_edge3&#45;headlabel"><a xlink:href="dir_000008_000010.html" target="_top" xlink:title="1">
<text text-anchor="middle" x="131.16" y="-72.5" font-family="Helvetica,sans-Serif" font-size="10.00">1</text>
</a>
</g>
</g>
<!-- dir_677b3613deff3cf9cb988b406ac50453 -->
<g id="node3" class="node">
<title>dir_677b3613deff3cf9cb988b406ac50453</title>
<g id="a_node3"><a xlink:href="dir_677b3613deff3cf9cb988b406ac50453.html" target="_top" xlink:title="engine">
<polygon fill="white" stroke="black" points="162,-204 108,-204 108,-168 162,-168 162,-204"/>
<text text-anchor="middle" x="135" y="-183.5" font-family="Helvetica,sans-Serif" font-size="10.00">engine</text>
</a>
</g>
</g>
<!-- dir_677b3613deff3cf9cb988b406ac50453&#45;&gt;dir_3fe8709595e6aa4a2880a9796bda37c6 -->
<g id="edge1" class="edge">
<title>dir_677b3613deff3cf9cb988b406ac50453&#45;&gt;dir_3fe8709595e6aa4a2880a9796bda37c6</title>
<path fill="none" stroke="black" d="M129.31,-167.7C126.75,-159.9 123.67,-150.51 120.82,-141.83"/>
<polygon fill="black" stroke="black" points="124.07,-140.51 117.62,-132.1 117.42,-142.7 124.07,-140.51"/>
<g id="a_edge1&#45;headlabel"><a xlink:href="dir_000009_000008.html" target="_top" xlink:title="1">
<text text-anchor="middle" x="127.89" y="-140.54" font-family="Helvetica,sans-Serif" font-size="10.00">1</text>
</a>
</g>
</g>
<!-- dir_677b3613deff3cf9cb988b406ac50453&#45;&gt;dir_f85fa5b410c455b12b1c74d094257128 -->
<g id="edge2" class="edge">
<title>dir_677b3613deff3cf9cb988b406ac50453&#45;&gt;dir_f85fa5b410c455b12b1c74d094257128</title>
<path fill="none" stroke="black" d="M140.41,-167.53C143.3,-157.29 146.55,-144.04 148,-132 149.92,-116.12 149.92,-111.88 148,-96 146.98,-87.53 145.07,-78.47 143.02,-70.28"/>
<polygon fill="black" stroke="black" points="146.36,-69.23 140.41,-60.47 139.6,-71.03 146.36,-69.23"/>
<g id="a_edge2&#45;headlabel"><a xlink:href="dir_000009_000010.html" target="_top" xlink:title="1">
<text text-anchor="middle" x="150.03" y="-69.48" font-family="Helvetica,sans-Serif" font-size="10.00">1</text>
</a>
</g>
</g>
<!-- dir_0a6071dbf00136e15e27a7f4c18cbb7d -->
<g id="node5" class="node">
<title>dir_0a6071dbf00136e15e27a7f4c18cbb7d</title>
<g id="a_node5"><a xlink:href="dir_0a6071dbf00136e15e27a7f4c18cbb7d.html" target="_top" xlink:title="liderboard">
<polygon fill="white" stroke="black" points="90,-204 24,-204 24,-168 90,-168 90,-204"/>
<text text-anchor="middle" x="57" y="-183.5" font-family="Helvetica,sans-Serif" font-size="10.00">liderboard</text>
</a>
</g>
</g>
</g>
</svg>
