<?xml version="1.0" encoding="UTF-8" standalone="no"?>
<!DOCTYPE svg PUBLIC "-//W3C//DTD SVG 1.1//EN"
 "http://www.w3.org/Graphics/SVG/1.1/DTD/svg11.dtd">
<!-- Generated by graphviz version 2.43.0 (0)
 -->
<!-- Title: src/gui/screen_game Pages: 1 -->
<svg width="258pt" height="167pt"
 viewBox="0.00 0.00 258.00 167.00" xmlns="http://www.w3.org/2000/svg" xmlns:xlink="http://www.w3.org/1999/xlink">
<g id="graph0" class="graph" transform="scale(1 1) rotate(0) translate(4 163)">
<title>src/gui/screen_game</title>
<g id="clust1" class="cluster">
<title>clusterdir_99d0482cf009f9d97a0877749b817f19</title>
<g id="a_clust1"><a xlink:href="dir_99d0482cf009f9d97a0877749b817f19.html" target="_top" xlink:title="gui">
<polygon fill="#ddddee" stroke="black" points="8,-8 8,-151 242,-151 242,-8 8,-8"/>
<text text-anchor="middle" x="125" y="-139" font-family="Helvetica,sans-Serif" font-size="10.00">gui</text>
</a>
</g>
</g>
<!-- dir_a2363278ae6b1eb68dd464493846cba6 -->
<g id="node1" class="node">
<title>dir_a2363278ae6b1eb68dd464493846cba6</title>
<g id="a_node1"><a xlink:href="dir_a2363278ae6b1eb68dd464493846cba6.html" target="_top" xlink:title="gui_scene">
<polygon fill="none" stroke="black" points="81.5,-52 16.5,-52 16.5,-16 81.5,-16 81.5,-52"/>
<text text-anchor="middle" x="49" y="-31.5" font-family="Helvetica,sans-Serif" font-size="10.00">gui_scene</text>
</a>
</g>
</g>
<!-- dir_c7f66b28f7c1d3b6a4d0b6753284a259 -->
<g id="node2" class="node">
<title>dir_c7f66b28f7c1d3b6a4d0b6753284a259</title>
<g id="a_node2"><a xlink:href="dir_c7f66b28f7c1d3b6a4d0b6753284a259.html" target="_top" xlink:title="gui_win">
<polygon fill="none" stroke="black" points="154,-52 100,-52 100,-16 154,-16 154,-52"/>
<text text-anchor="middle" x="127" y="-31.5" font-family="Helvetica,sans-Serif" font-size="10.00">gui_win</text>
</a>
</g>
</g>
<!-- dir_f4a8d85f9c1b3dc34fd02b37f437332d -->
<g id="node3" class="node">
<title>dir_f4a8d85f9c1b3dc34fd02b37f437332d</title>
<g id="a_node3"><a xlink:href="dir_f4a8d85f9c1b3dc34fd02b37f437332d.html" target="_top" xlink:title="gui_point">
<polygon fill="none" stroke="black" points="234,-52 172,-52 172,-16 234,-16 234,-52"/>
<text text-anchor="middle" x="203" y="-31.5" font-family="Helvetica,sans-Serif" font-size="10.00">gui_point</text>
</a>
</g>
</g>
<!-- dir_fb8050bda4c87c840ba27990901cbe0c -->
<g id="node4" class="node">
<title>dir_fb8050bda4c87c840ba27990901cbe0c</title>
<g id="a_node4"><a xlink:href="dir_fb8050bda4c87c840ba27990901cbe0c.html" target="_top" xlink:title="screen_game">
<polygon fill="#eeeeff" stroke="black" points="168,-124 86,-124 86,-88 168,-88 168,-124"/>
<text text-anchor="middle" x="127" y="-103.5" font-family="Helvetica,sans-Serif" font-size="10.00">screen_game</text>
</a>
</g>
</g>
<!-- dir_fb8050bda4c87c840ba27990901cbe0c&#45;&gt;dir_a2363278ae6b1eb68dd464493846cba6 -->
<g id="edge1" class="edge">
<title>dir_fb8050bda4c87c840ba27990901cbe0c&#45;&gt;dir_a2363278ae6b1eb68dd464493846cba6</title>
<path fill="none" stroke="black" d="M107.72,-87.7C98.08,-79.05 86.27,-68.45 75.77,-59.03"/>
<polygon fill="black" stroke="black" points="77.84,-56.18 68.06,-52.1 73.16,-61.39 77.84,-56.18"/>
<g id="a_edge1&#45;headlabel"><a xlink:href="dir_000006_000003.html" target="_top" xlink:title="1">
<text text-anchor="middle" x="82.41" y="-53.97" font-family="Helvetica,sans-Serif" font-size="10.00">1</text>
</a>
</g>
</g>
<!-- dir_fb8050bda4c87c840ba27990901cbe0c&#45;&gt;dir_c7f66b28f7c1d3b6a4d0b6753284a259 -->
<g id="edge2" class="edge">
<title>dir_fb8050bda4c87c840ba27990901cbe0c&#45;&gt;dir_c7f66b28f7c1d3b6a4d0b6753284a259</title>
<path fill="none" stroke="black" d="M127,-87.7C127,-79.98 127,-70.71 127,-62.11"/>
<polygon fill="black" stroke="black" points="130.5,-62.1 127,-52.1 123.5,-62.1 130.5,-62.1"/>
<g id="a_edge2&#45;headlabel"><a xlink:href="dir_000006_000004.html" target="_top" xlink:title="1">
<text text-anchor="middle" x="133.34" y="-63.2" font-family="Helvetica,sans-Serif" font-size="10.00">1</text>
</a>
</g>
</g>
<!-- dir_fb8050bda4c87c840ba27990901cbe0c&#45;&gt;dir_f4a8d85f9c1b3dc34fd02b37f437332d -->
<g id="edge3" class="edge">
<title>dir_fb8050bda4c87c840ba27990901cbe0c&#45;&gt;dir_f4a8d85f9c1b3dc34fd02b37f437332d</title>
<path fill="none" stroke="black" d="M145.79,-87.7C155.17,-79.05 166.68,-68.45 176.91,-59.03"/>
<polygon fill="black" stroke="black" points="179.45,-61.45 184.43,-52.1 174.7,-56.3 179.45,-61.45"/>
<g id="a_edge3&#45;headlabel"><a xlink:href="dir_000006_000002.html" target="_top" xlink:title="1">
<text text-anchor="middle" x="178.72" y="-63.48" font-family="Helvetica,sans-Serif" font-size="10.00">1</text>
</a>
</g>
</g>
</g>
</svg>
