<?xml version="1.0" encoding="UTF-8" standalone="no"?>
<!DOCTYPE svg PUBLIC "-//W3C//DTD SVG 1.1//EN"
 "http://www.w3.org/Graphics/SVG/1.1/DTD/svg11.dtd">
<!-- Generated by graphviz version 2.43.0 (0)
 -->
<!-- Title: src/gui Pages: 1 -->
<svg width="536pt" height="255pt"
 viewBox="0.00 0.00 536.00 255.00" xmlns="http://www.w3.org/2000/svg" xmlns:xlink="http://www.w3.org/1999/xlink">
<g id="graph0" class="graph" transform="scale(1 1) rotate(0) translate(4 251)">
<title>src/gui</title>
<g id="clust1" class="cluster">
<title>clusterdir_68267d1309a1af8e8297ef4c3efbcdba</title>
<g id="a_clust1"><a xlink:href="dir_68267d1309a1af8e8297ef4c3efbcdba.html" target="_top" xlink:title="src">
<polygon fill="#ddddee" stroke="black" points="8,-8 8,-239 520,-239 520,-8 8,-8"/>
<text text-anchor="middle" x="264" y="-227" font-family="Helvetica,sans-Serif" font-size="10.00">src</text>
</a>
</g>
</g>
<g id="clust2" class="cluster">
<title>clusterdir_99d0482cf009f9d97a0877749b817f19</title>
<g id="a_clust2"><a xlink:href="dir_99d0482cf009f9d97a0877749b817f19.html" target="_top">
<polygon fill="#eeeeff" stroke="black" points="16,-16 16,-212 447,-212 447,-16 16,-16"/>
</a>
</g>
</g>
<!-- dir_3d2e4578fe4cc3b7fa6177047437af5b -->
<g id="node1" class="node">
<title>dir_3d2e4578fe4cc3b7fa6177047437af5b</title>
<g id="a_node1"><a xlink:href="dir_3d2e4578fe4cc3b7fa6177047437af5b.html" target="_top" xlink:title="logic">
<polygon fill="none" stroke="red" points="512,-132 458,-132 458,-96 512,-96 512,-132"/>
<text text-anchor="middle" x="485" y="-111.5" font-family="Helvetica,sans-Serif" font-size="10.00">logic</text>
</a>
</g>
</g>
<!-- dir_99d0482cf009f9d97a0877749b817f19 -->
<g id="node2" class="node">
<title>dir_99d0482cf009f9d97a0877749b817f19</title>
<text text-anchor="middle" x="393" y="-183.5" font-family="Helvetica,sans-Serif" font-size="10.00">gui</text>
</g>
<!-- dir_a2363278ae6b1eb68dd464493846cba6 -->
<g id="node3" class="node">
<title>dir_a2363278ae6b1eb68dd464493846cba6</title>
<g id="a_node3"><a xlink:href="dir_a2363278ae6b1eb68dd464493846cba6.html" target="_top" xlink:title="gui_scene">
<polygon fill="white" stroke="black" points="97.5,-60 32.5,-60 32.5,-24 97.5,-24 97.5,-60"/>
<text text-anchor="middle" x="65" y="-39.5" font-family="Helvetica,sans-Serif" font-size="10.00">gui_scene</text>
</a>
</g>
</g>
<!-- dir_526a302981cdfb4f6ac4e897a95db68c -->
<g id="node4" class="node">
<title>dir_526a302981cdfb4f6ac4e897a95db68c</title>
<g id="a_node4"><a xlink:href="dir_526a302981cdfb4f6ac4e897a95db68c.html" target="_top" xlink:title="main_window">
<polygon fill="white" stroke="black" points="329,-204 245,-204 245,-168 329,-168 329,-204"/>
<text text-anchor="middle" x="287" y="-183.5" font-family="Helvetica,sans-Serif" font-size="10.00">main_window</text>
</a>
</g>
</g>
<!-- dir_526a302981cdfb4f6ac4e897a95db68c&#45;&gt;dir_3d2e4578fe4cc3b7fa6177047437af5b -->
<g id="edge3" class="edge">
<title>dir_526a302981cdfb4f6ac4e897a95db68c&#45;&gt;dir_3d2e4578fe4cc3b7fa6177047437af5b</title>
<path fill="none" stroke="black" d="M329.08,-173.31C360.36,-164.2 404.13,-150.55 448.28,-132.92"/>
<polygon fill="black" stroke="black" points="449.75,-136.1 457.7,-129.09 447.12,-129.61 449.75,-136.1"/>
<g id="a_edge3&#45;headlabel"><a xlink:href="dir_000003_000008.html" target="_top" xlink:title="1">
<text text-anchor="middle" x="447.49" y="-137.58" font-family="Helvetica,sans-Serif" font-size="10.00">1</text>
</a>
</g>
</g>
<!-- dir_fb8050bda4c87c840ba27990901cbe0c -->
<g id="node5" class="node">
<title>dir_fb8050bda4c87c840ba27990901cbe0c</title>
<g id="a_node5"><a xlink:href="dir_fb8050bda4c87c840ba27990901cbe0c.html" target="_top" xlink:title="screen_game">
<polygon fill="white" stroke="black" points="106,-132 24,-132 24,-96 106,-96 106,-132"/>
<text text-anchor="middle" x="65" y="-111.5" font-family="Helvetica,sans-Serif" font-size="10.00">screen_game</text>
</a>
</g>
</g>
<!-- dir_526a302981cdfb4f6ac4e897a95db68c&#45;&gt;dir_fb8050bda4c87c840ba27990901cbe0c -->
<g id="edge6" class="edge">
<title>dir_526a302981cdfb4f6ac4e897a95db68c&#45;&gt;dir_fb8050bda4c87c840ba27990901cbe0c</title>
<path fill="none" stroke="black" d="M244.83,-172.38C212.06,-162.48 165.24,-148.17 115.76,-132.21"/>
<polygon fill="black" stroke="black" points="116.76,-128.85 106.17,-129.1 114.61,-135.51 116.76,-128.85"/>
<g id="a_edge6&#45;headlabel"><a xlink:href="dir_000003_000004.html" target="_top" xlink:title="1">
<text text-anchor="middle" x="121.06" y="-124.76" font-family="Helvetica,sans-Serif" font-size="10.00">1</text>
</a>
</g>
</g>
<!-- dir_68c39c25abf8756328ad027d71a080e4 -->
<g id="node6" class="node">
<title>dir_68c39c25abf8756328ad027d71a080e4</title>
<g id="a_node6"><a xlink:href="dir_68c39c25abf8756328ad027d71a080e4.html" target="_top" xlink:title="screen_liderboard">
<polygon fill="white" stroke="black" points="228,-132 124,-132 124,-96 228,-96 228,-132"/>
<text text-anchor="middle" x="176" y="-111.5" font-family="Helvetica,sans-Serif" font-size="10.00">screen_liderboard</text>
</a>
</g>
</g>
<!-- dir_526a302981cdfb4f6ac4e897a95db68c&#45;&gt;dir_68c39c25abf8756328ad027d71a080e4 -->
<g id="edge5" class="edge">
<title>dir_526a302981cdfb4f6ac4e897a95db68c&#45;&gt;dir_68c39c25abf8756328ad027d71a080e4</title>
<path fill="none" stroke="black" d="M259.85,-167.88C245.47,-158.81 227.62,-147.55 212.09,-137.76"/>
<polygon fill="black" stroke="black" points="213.58,-134.56 203.26,-132.19 209.85,-140.48 213.58,-134.56"/>
<g id="a_edge5&#45;headlabel"><a xlink:href="dir_000003_000005.html" target="_top" xlink:title="1">
<text text-anchor="middle" x="218.14" y="-131.58" font-family="Helvetica,sans-Serif" font-size="10.00">1</text>
</a>
</g>
</g>
<!-- dir_444ecdc342978a478522442bccbecc46 -->
<g id="node7" class="node">
<title>dir_444ecdc342978a478522442bccbecc46</title>
<g id="a_node7"><a xlink:href="dir_444ecdc342978a478522442bccbecc46.html" target="_top" xlink:title="screen_menu">
<polygon fill="white" stroke="black" points="328,-132 246,-132 246,-96 328,-96 328,-132"/>
<text text-anchor="middle" x="287" y="-111.5" font-family="Helvetica,sans-Serif" font-size="10.00">screen_menu</text>
</a>
</g>
</g>
<!-- dir_526a302981cdfb4f6ac4e897a95db68c&#45;&gt;dir_444ecdc342978a478522442bccbecc46 -->
<g id="edge4" class="edge">
<title>dir_526a302981cdfb4f6ac4e897a95db68c&#45;&gt;dir_444ecdc342978a478522442bccbecc46</title>
<path fill="none" stroke="black" d="M287,-167.7C287,-159.98 287,-150.71 287,-142.11"/>
<polygon fill="black" stroke="black" points="290.5,-142.1 287,-132.1 283.5,-142.1 290.5,-142.1"/>
<g id="a_edge4&#45;headlabel"><a xlink:href="dir_000003_000006.html" target="_top" xlink:title="1">
<text text-anchor="middle" x="293.34" y="-143.2" font-family="Helvetica,sans-Serif" font-size="10.00">1</text>
</a>
</g>
</g>
<!-- dir_0ca362c5a2d8fdaec9858d1a5cb7ef54 -->
<g id="node8" class="node">
<title>dir_0ca362c5a2d8fdaec9858d1a5cb7ef54</title>
<g id="a_node8"><a xlink:href="dir_0ca362c5a2d8fdaec9858d1a5cb7ef54.html" target="_top" xlink:title="screen_settings">
<polygon fill="white" stroke="black" points="439.5,-132 346.5,-132 346.5,-96 439.5,-96 439.5,-132"/>
<text text-anchor="middle" x="393" y="-111.5" font-family="Helvetica,sans-Serif" font-size="10.00">screen_settings</text>
</a>
</g>
</g>
<!-- dir_526a302981cdfb4f6ac4e897a95db68c&#45;&gt;dir_0ca362c5a2d8fdaec9858d1a5cb7ef54 -->
<g id="edge2" class="edge">
<title>dir_526a302981cdfb4f6ac4e897a95db68c&#45;&gt;dir_0ca362c5a2d8fdaec9858d1a5cb7ef54</title>
<path fill="none" stroke="black" d="M312.93,-167.88C326.66,-158.81 343.71,-147.55 358.54,-137.76"/>
<polygon fill="black" stroke="black" points="360.55,-140.62 366.97,-132.19 356.7,-134.78 360.55,-140.62"/>
<g id="a_edge2&#45;headlabel"><a xlink:href="dir_000003_000007.html" target="_top" xlink:title="1">
<text text-anchor="middle" x="359.12" y="-142.47" font-family="Helvetica,sans-Serif" font-size="10.00">1</text>
</a>
</g>
</g>
<!-- dir_fb8050bda4c87c840ba27990901cbe0c&#45;&gt;dir_a2363278ae6b1eb68dd464493846cba6 -->
<g id="edge1" class="edge">
<title>dir_fb8050bda4c87c840ba27990901cbe0c&#45;&gt;dir_a2363278ae6b1eb68dd464493846cba6</title>
<path fill="none" stroke="black" d="M65,-95.7C65,-87.98 65,-78.71 65,-70.11"/>
<polygon fill="black" stroke="black" points="68.5,-70.1 65,-60.1 61.5,-70.1 68.5,-70.1"/>
<g id="a_edge1&#45;headlabel"><a xlink:href="dir_000004_000002.html" target="_top" xlink:title="1">
<text text-anchor="middle" x="71.34" y="-71.2" font-family="Helvetica,sans-Serif" font-size="10.00">1</text>
</a>
</g>
</g>
</g>
</svg>
