<?xml version="1.0" encoding="UTF-8" standalone="no"?>
<!DOCTYPE svg PUBLIC "-//W3C//DTD SVG 1.1//EN"
 "http://www.w3.org/Graphics/SVG/1.1/DTD/svg11.dtd">
<!-- Generated by graphviz version 2.43.0 (0)
 -->
<!-- Title: src/gui/screen_game Pages: 1 -->
<svg width="186pt" height="167pt"
 viewBox="0.00 0.00 186.00 167.00" xmlns="http://www.w3.org/2000/svg" xmlns:xlink="http://www.w3.org/1999/xlink">
<g id="graph0" class="graph" transform="scale(1 1) rotate(0) translate(4 163)">
<title>src/gui/screen_game</title>
<g id="clust1" class="cluster">
<title>clusterdir_99d0482cf009f9d97a0877749b817f19</title>
<g id="a_clust1"><a xlink:href="dir_99d0482cf009f9d97a0877749b817f19.html" target="_top" xlink:title="gui">
<polygon fill="#ddddee" stroke="black" points="8,-8 8,-151 170,-151 170,-8 8,-8"/>
<text text-anchor="middle" x="89" y="-139" font-family="Helvetica,sans-Serif" font-size="10.00">gui</text>
</a>
</g>
</g>
<!-- dir_a2363278ae6b1eb68dd464493846cba6 -->
<g id="node1" class="node">
<title>dir_a2363278ae6b1eb68dd464493846cba6</title>
<g id="a_node1"><a xlink:href="dir_a2363278ae6b1eb68dd464493846cba6.html" target="_top" xlink:title="gui_scene">
<polygon fill="none" stroke="black" points="81.5,-52 16.5,-52 16.5,-16 81.5,-16 81.5,-52"/>
<text text-anchor="middle" x="49" y="-31.5" font-family="Helvetica,sans-Serif" font-size="10.00">gui_scene</text>
</a>
</g>
</g>
<!-- dir_f4a8d85f9c1b3dc34fd02b37f437332d -->
<g id="node2" class="node">
<title>dir_f4a8d85f9c1b3dc34fd02b37f437332d</title>
<g id="a_node2"><a xlink:href="dir_f4a8d85f9c1b3dc34fd02b37f437332d.html" target="_top" xlink:title="gui_point">
<polygon fill="none" stroke="black" points="162,-52 100,-52 100,-16 162,-16 162,-52"/>
<text text-anchor="middle" x="131" y="-31.5" font-family="Helvetica,sans-Serif" font-size="10.00">gui_point</text>
</a>
</g>
</g>
<!-- dir_fb8050bda4c87c840ba27990901cbe0c -->
<g id="node3" class="node">
<title>dir_fb8050bda4c87c840ba27990901cbe0c</title>
<g id="a_node3"><a xlink:href="dir_fb8050bda4c87c840ba27990901cbe0c.html" target="_top" xlink:title="screen_game">
<polygon fill="#eeeeff" stroke="black" points="130,-124 48,-124 48,-88 130,-88 130,-124"/>
<text text-anchor="middle" x="89" y="-103.5" font-family="Helvetica,sans-Serif" font-size="10.00">screen_game</text>
</a>
</g>
</g>
<!-- dir_fb8050bda4c87c840ba27990901cbe0c&#45;&gt;dir_a2363278ae6b1eb68dd464493846cba6 -->
<g id="edge1" class="edge">
<title>dir_fb8050bda4c87c840ba27990901cbe0c&#45;&gt;dir_a2363278ae6b1eb68dd464493846cba6</title>
<path fill="none" stroke="black" d="M79.11,-87.7C74.51,-79.64 68.94,-69.89 63.85,-60.98"/>
<polygon fill="black" stroke="black" points="66.77,-59.05 58.77,-52.1 60.7,-62.52 66.77,-59.05"/>
<g id="a_edge1&#45;headlabel"><a xlink:href="dir_000005_000003.html" target="_top" xlink:title="1">
<text text-anchor="middle" x="71.02" y="-58.26" font-family="Helvetica,sans-Serif" font-size="10.00">1</text>
</a>
</g>
</g>
<!-- dir_fb8050bda4c87c840ba27990901cbe0c&#45;&gt;dir_f4a8d85f9c1b3dc34fd02b37f437332d -->
<g id="edge2" class="edge">
<title>dir_fb8050bda4c87c840ba27990901cbe0c&#45;&gt;dir_f4a8d85f9c1b3dc34fd02b37f437332d</title>
<path fill="none" stroke="black" d="M99.38,-87.7C104.26,-79.56 110.19,-69.69 115.58,-60.7"/>
<polygon fill="black" stroke="black" points="118.59,-62.48 120.74,-52.1 112.59,-58.88 118.59,-62.48"/>
<g id="a_edge2&#45;headlabel"><a xlink:href="dir_000005_000002.html" target="_top" xlink:title="1">
<text text-anchor="middle" x="119.18" y="-64.52" font-family="Helvetica,sans-Serif" font-size="10.00">1</text>
</a>
</g>
</g>
</g>
</svg>
