<?xml version="1.0" encoding="UTF-8" standalone="no"?>
<!DOCTYPE svg PUBLIC "-//W3C//DTD SVG 1.1//EN"
 "http://www.w3.org/Graphics/SVG/1.1/DTD/svg11.dtd">
<!-- Generated by graphviz version 2.43.0 (0)
 -->
<!-- Title: src/gui/main_window Pages: 1 -->
<svg width="511pt" height="167pt"
 viewBox="0.00 0.00 511.00 167.00" xmlns="http://www.w3.org/2000/svg" xmlns:xlink="http://www.w3.org/1999/xlink">
<g id="graph0" class="graph" transform="scale(1 1) rotate(0) translate(4 163)">
<title>src/gui/main_window</title>
<g id="clust1" class="cluster">
<title>clusterdir_99d0482cf009f9d97a0877749b817f19</title>
<g id="a_clust1"><a xlink:href="dir_99d0482cf009f9d97a0877749b817f19.html" target="_top" xlink:title="gui">
<polygon fill="#ddddee" stroke="black" points="8,-8 8,-151 439,-151 439,-8 8,-8"/>
<text text-anchor="middle" x="223.5" y="-139" font-family="Helvetica,sans-Serif" font-size="10.00">gui</text>
</a>
</g>
</g>
<!-- dir_0ca362c5a2d8fdaec9858d1a5cb7ef54 -->
<g id="node1" class="node">
<title>dir_0ca362c5a2d8fdaec9858d1a5cb7ef54</title>
<g id="a_node1"><a xlink:href="dir_0ca362c5a2d8fdaec9858d1a5cb7ef54.html" target="_top" xlink:title="screen_settings">
<polygon fill="none" stroke="black" points="108.5,-52 15.5,-52 15.5,-16 108.5,-16 108.5,-52"/>
<text text-anchor="middle" x="62" y="-31.5" font-family="Helvetica,sans-Serif" font-size="10.00">screen_settings</text>
</a>
</g>
</g>
<!-- dir_444ecdc342978a478522442bccbecc46 -->
<g id="node2" class="node">
<title>dir_444ecdc342978a478522442bccbecc46</title>
<g id="a_node2"><a xlink:href="dir_444ecdc342978a478522442bccbecc46.html" target="_top" xlink:title="screen_menu">
<polygon fill="none" stroke="black" points="209,-52 127,-52 127,-16 209,-16 209,-52"/>
<text text-anchor="middle" x="168" y="-31.5" font-family="Helvetica,sans-Serif" font-size="10.00">screen_menu</text>
</a>
</g>
</g>
<!-- dir_68c39c25abf8756328ad027d71a080e4 -->
<g id="node3" class="node">
<title>dir_68c39c25abf8756328ad027d71a080e4</title>
<g id="a_node3"><a xlink:href="dir_68c39c25abf8756328ad027d71a080e4.html" target="_top" xlink:title="screen_liderboard">
<polygon fill="none" stroke="black" points="331,-52 227,-52 227,-16 331,-16 331,-52"/>
<text text-anchor="middle" x="279" y="-31.5" font-family="Helvetica,sans-Serif" font-size="10.00">screen_liderboard</text>
</a>
</g>
</g>
<!-- dir_fb8050bda4c87c840ba27990901cbe0c -->
<g id="node4" class="node">
<title>dir_fb8050bda4c87c840ba27990901cbe0c</title>
<g id="a_node4"><a xlink:href="dir_fb8050bda4c87c840ba27990901cbe0c.html" target="_top" xlink:title="screen_game">
<polygon fill="none" stroke="black" points="431,-52 349,-52 349,-16 431,-16 431,-52"/>
<text text-anchor="middle" x="390" y="-31.5" font-family="Helvetica,sans-Serif" font-size="10.00">screen_game</text>
</a>
</g>
</g>
<!-- dir_526a302981cdfb4f6ac4e897a95db68c -->
<g id="node5" class="node">
<title>dir_526a302981cdfb4f6ac4e897a95db68c</title>
<g id="a_node5"><a xlink:href="dir_526a302981cdfb4f6ac4e897a95db68c.html" target="_top" xlink:title="main_window">
<polygon fill="#eeeeff" stroke="black" points="321,-124 237,-124 237,-88 321,-88 321,-124"/>
<text text-anchor="middle" x="279" y="-103.5" font-family="Helvetica,sans-Serif" font-size="10.00">main_window</text>
</a>
</g>
</g>
<!-- dir_526a302981cdfb4f6ac4e897a95db68c&#45;&gt;dir_0ca362c5a2d8fdaec9858d1a5cb7ef54 -->
<g id="edge1" class="edge">
<title>dir_526a302981cdfb4f6ac4e897a95db68c&#45;&gt;dir_0ca362c5a2d8fdaec9858d1a5cb7ef54</title>
<path fill="none" stroke="black" d="M236.9,-91.42C203.19,-80.54 155.57,-65.18 118.53,-53.24"/>
<polygon fill="black" stroke="black" points="119.47,-49.86 108.87,-50.12 117.32,-56.52 119.47,-49.86"/>
<g id="a_edge1&#45;headlabel"><a xlink:href="dir_000002_000006.html" target="_top" xlink:title="1">
<text text-anchor="middle" x="123.76" y="-45.76" font-family="Helvetica,sans-Serif" font-size="10.00">1</text>
</a>
</g>
</g>
<!-- dir_526a302981cdfb4f6ac4e897a95db68c&#45;&gt;dir_444ecdc342978a478522442bccbecc46 -->
<g id="edge3" class="edge">
<title>dir_526a302981cdfb4f6ac4e897a95db68c&#45;&gt;dir_444ecdc342978a478522442bccbecc46</title>
<path fill="none" stroke="black" d="M251.85,-87.88C237.47,-78.81 219.62,-67.55 204.09,-57.76"/>
<polygon fill="black" stroke="black" points="205.58,-54.56 195.26,-52.19 201.85,-60.48 205.58,-54.56"/>
<g id="a_edge3&#45;headlabel"><a xlink:href="dir_000002_000005.html" target="_top" xlink:title="1">
<text text-anchor="middle" x="210.14" y="-51.58" font-family="Helvetica,sans-Serif" font-size="10.00">1</text>
</a>
</g>
</g>
<!-- dir_526a302981cdfb4f6ac4e897a95db68c&#45;&gt;dir_68c39c25abf8756328ad027d71a080e4 -->
<g id="edge4" class="edge">
<title>dir_526a302981cdfb4f6ac4e897a95db68c&#45;&gt;dir_68c39c25abf8756328ad027d71a080e4</title>
<path fill="none" stroke="black" d="M279,-87.7C279,-79.98 279,-70.71 279,-62.11"/>
<polygon fill="black" stroke="black" points="282.5,-62.1 279,-52.1 275.5,-62.1 282.5,-62.1"/>
<g id="a_edge4&#45;headlabel"><a xlink:href="dir_000002_000004.html" target="_top" xlink:title="1">
<text text-anchor="middle" x="285.34" y="-63.2" font-family="Helvetica,sans-Serif" font-size="10.00">1</text>
</a>
</g>
</g>
<!-- dir_526a302981cdfb4f6ac4e897a95db68c&#45;&gt;dir_fb8050bda4c87c840ba27990901cbe0c -->
<g id="edge5" class="edge">
<title>dir_526a302981cdfb4f6ac4e897a95db68c&#45;&gt;dir_fb8050bda4c87c840ba27990901cbe0c</title>
<path fill="none" stroke="black" d="M306.15,-87.88C320.53,-78.81 338.38,-67.55 353.91,-57.76"/>
<polygon fill="black" stroke="black" points="356.15,-60.48 362.74,-52.19 352.42,-54.56 356.15,-60.48"/>
<g id="a_edge5&#45;headlabel"><a xlink:href="dir_000002_000003.html" target="_top" xlink:title="1">
<text text-anchor="middle" x="354.62" y="-62.3" font-family="Helvetica,sans-Serif" font-size="10.00">1</text>
</a>
</g>
</g>
<!-- dir_3d2e4578fe4cc3b7fa6177047437af5b -->
<g id="node6" class="node">
<title>dir_3d2e4578fe4cc3b7fa6177047437af5b</title>
<g id="a_node6"><a xlink:href="dir_3d2e4578fe4cc3b7fa6177047437af5b.html" target="_top" xlink:title="logic">
<polygon fill="none" stroke="red" points="503,-52 449,-52 449,-16 503,-16 503,-52"/>
<text text-anchor="middle" x="476" y="-31.5" font-family="Helvetica,sans-Serif" font-size="10.00">logic</text>
</a>
</g>
</g>
<!-- dir_526a302981cdfb4f6ac4e897a95db68c&#45;&gt;dir_3d2e4578fe4cc3b7fa6177047437af5b -->
<g id="edge2" class="edge">
<title>dir_526a302981cdfb4f6ac4e897a95db68c&#45;&gt;dir_3d2e4578fe4cc3b7fa6177047437af5b</title>
<path fill="none" stroke="black" d="M321.13,-93.44C352.37,-84.42 396.05,-70.85 439.29,-53.36"/>
<polygon fill="black" stroke="black" points="440.88,-56.49 448.79,-49.45 438.21,-50.02 440.88,-56.49"/>
<g id="a_edge2&#45;headlabel"><a xlink:href="dir_000002_000007.html" target="_top" xlink:title="1">
<text text-anchor="middle" x="438.63" y="-57.99" font-family="Helvetica,sans-Serif" font-size="10.00">1</text>
</a>
</g>
</g>
</g>
</svg>
