<?xml version="1.0" encoding="UTF-8" standalone="no"?>
<!DOCTYPE svg PUBLIC "-//W3C//DTD SVG 1.1//EN"
 "http://www.w3.org/Graphics/SVG/1.1/DTD/svg11.dtd">
<!-- Generated by graphviz version 2.43.0 (0)
 -->
<!-- Title: src/logic Pages: 1 -->
<svg width="182pt" height="255pt"
 viewBox="0.00 0.00 182.00 255.00" xmlns="http://www.w3.org/2000/svg" xmlns:xlink="http://www.w3.org/1999/xlink">
<g id="graph0" class="graph" transform="scale(1 1) rotate(0) translate(4 251)">
<title>src/logic</title>
<g id="clust1" class="cluster">
<title>clusterdir_68267d1309a1af8e8297ef4c3efbcdba</title>
<g id="a_clust1"><a xlink:href="dir_68267d1309a1af8e8297ef4c3efbcdba.html" target="_top" xlink:title="src">
<polygon fill="#ddddee" stroke="black" points="8,-8 8,-239 166,-239 166,-8 8,-8"/>
<text text-anchor="middle" x="87" y="-227" font-family="Helvetica,sans-Serif" font-size="10.00">src</text>
</a>
</g>
</g>
<g id="clust2" class="cluster">
<title>clusterdir_3d2e4578fe4cc3b7fa6177047437af5b</title>
<g id="a_clust2"><a xlink:href="dir_3d2e4578fe4cc3b7fa6177047437af5b.html" target="_top">
<polygon fill="#eeeeff" stroke="black" points="16,-16 16,-212 158,-212 158,-16 16,-16"/>
</a>
</g>
</g>
<!-- dir_3d2e4578fe4cc3b7fa6177047437af5b -->
<g id="node1" class="node">
<title>dir_3d2e4578fe4cc3b7fa6177047437af5b</title>
<text text-anchor="middle" x="123" y="-183.5" font-family="Helvetica,sans-Serif" font-size="10.00">logic</text>
</g>
<!-- dir_3fe8709595e6aa4a2880a9796bda37c6 -->
<g id="node2" class="node">
<title>dir_3fe8709595e6aa4a2880a9796bda37c6</title>
<g id="a_node2"><a xlink:href="dir_3fe8709595e6aa4a2880a9796bda37c6.html" target="_top" xlink:title="board">
<polygon fill="white" stroke="black" points="78,-132 24,-132 24,-96 78,-96 78,-132"/>
<text text-anchor="middle" x="51" y="-111.5" font-family="Helvetica,sans-Serif" font-size="10.00">board</text>
</a>
</g>
</g>
<!-- dir_f85fa5b410c455b12b1c74d094257128 -->
<g id="node4" class="node">
<title>dir_f85fa5b410c455b12b1c74d094257128</title>
<g id="a_node4"><a xlink:href="dir_f85fa5b410c455b12b1c74d094257128.html" target="_top" xlink:title="figures">
<polygon fill="white" stroke="black" points="101,-60 47,-60 47,-24 101,-24 101,-60"/>
<text text-anchor="middle" x="74" y="-39.5" font-family="Helvetica,sans-Serif" font-size="10.00">figures</text>
</a>
</g>
</g>
<!-- dir_3fe8709595e6aa4a2880a9796bda37c6&#45;&gt;dir_f85fa5b410c455b12b1c74d094257128 -->
<g id="edge3" class="edge">
<title>dir_3fe8709595e6aa4a2880a9796bda37c6&#45;&gt;dir_f85fa5b410c455b12b1c74d094257128</title>
<path fill="none" stroke="black" d="M56.69,-95.7C59.25,-87.9 62.33,-78.51 65.18,-69.83"/>
<polygon fill="black" stroke="black" points="68.58,-70.7 68.38,-60.1 61.93,-68.51 68.58,-70.7"/>
<g id="a_edge3&#45;headlabel"><a xlink:href="dir_000011_000013.html" target="_top" xlink:title="1">
<text text-anchor="middle" x="70.16" y="-72.5" font-family="Helvetica,sans-Serif" font-size="10.00">1</text>
</a>
</g>
</g>
<!-- dir_677b3613deff3cf9cb988b406ac50453 -->
<g id="node3" class="node">
<title>dir_677b3613deff3cf9cb988b406ac50453</title>
<g id="a_node3"><a xlink:href="dir_677b3613deff3cf9cb988b406ac50453.html" target="_top" xlink:title="engine">
<polygon fill="white" stroke="black" points="78,-204 24,-204 24,-168 78,-168 78,-204"/>
<text text-anchor="middle" x="51" y="-183.5" font-family="Helvetica,sans-Serif" font-size="10.00">engine</text>
</a>
</g>
</g>
<!-- dir_677b3613deff3cf9cb988b406ac50453&#45;&gt;dir_3fe8709595e6aa4a2880a9796bda37c6 -->
<g id="edge1" class="edge">
<title>dir_677b3613deff3cf9cb988b406ac50453&#45;&gt;dir_3fe8709595e6aa4a2880a9796bda37c6</title>
<path fill="none" stroke="black" d="M51,-167.7C51,-159.98 51,-150.71 51,-142.11"/>
<polygon fill="black" stroke="black" points="54.5,-142.1 51,-132.1 47.5,-142.1 54.5,-142.1"/>
<g id="a_edge1&#45;headlabel"><a xlink:href="dir_000012_000011.html" target="_top" xlink:title="1">
<text text-anchor="middle" x="57.34" y="-143.2" font-family="Helvetica,sans-Serif" font-size="10.00">1</text>
</a>
</g>
</g>
<!-- dir_677b3613deff3cf9cb988b406ac50453&#45;&gt;dir_f85fa5b410c455b12b1c74d094257128 -->
<g id="edge2" class="edge">
<title>dir_677b3613deff3cf9cb988b406ac50453&#45;&gt;dir_f85fa5b410c455b12b1c74d094257128</title>
<path fill="none" stroke="black" d="M66.61,-167.77C74.37,-158.03 82.95,-145.18 87,-132 93.28,-111.57 89.13,-87.54 83.9,-69.6"/>
<polygon fill="black" stroke="black" points="87.24,-68.53 80.86,-60.07 80.57,-70.66 87.24,-68.53"/>
<g id="a_edge2&#45;headlabel"><a xlink:href="dir_000012_000013.html" target="_top" xlink:title="1">
<text text-anchor="middle" x="91.03" y="-68.59" font-family="Helvetica,sans-Serif" font-size="10.00">1</text>
</a>
</g>
</g>
</g>
</svg>
