<?xml version="1.0" encoding="UTF-8" standalone="no"?>
<!DOCTYPE svg PUBLIC "-//W3C//DTD SVG 1.1//EN"
 "http://www.w3.org/Graphics/SVG/1.1/DTD/svg11.dtd">
<!-- Generated by graphviz version 2.43.0 (0)
 -->
<!-- Title: src/logic/engine Pages: 1 -->
<svg width="166pt" height="167pt"
 viewBox="0.00 0.00 166.00 167.00" xmlns="http://www.w3.org/2000/svg" xmlns:xlink="http://www.w3.org/1999/xlink">
<g id="graph0" class="graph" transform="scale(1 1) rotate(0) translate(4 163)">
<title>src/logic/engine</title>
<g id="clust1" class="cluster">
<title>clusterdir_3d2e4578fe4cc3b7fa6177047437af5b</title>
<g id="a_clust1"><a xlink:href="dir_3d2e4578fe4cc3b7fa6177047437af5b.html" target="_top" xlink:title="logic">
<polygon fill="#edf0f7" stroke="#7f7f7f" stroke-dasharray="5,2" points="8,-8 8,-151 150,-151 150,-8 8,-8"/>
<text text-anchor="middle" x="79" y="-139" font-family="Helvetica,sans-Serif" font-size="10.00">logic</text>
</a>
</g>
</g>
<!-- dir_3fe8709595e6aa4a2880a9796bda37c6 -->
<g id="node1" class="node">
<title>dir_3fe8709595e6aa4a2880a9796bda37c6</title>
<g id="a_node1"><a xlink:href="dir_3fe8709595e6aa4a2880a9796bda37c6.html" target="_top" xlink:title="board">
<polygon fill="#a2b4d6" stroke="#404040" points="70,-52 16,-52 16,-16 70,-16 70,-52"/>
<text text-anchor="middle" x="43" y="-31.5" font-family="Helvetica,sans-Serif" font-size="10.00">board</text>
</a>
</g>
</g>
<!-- dir_f85fa5b410c455b12b1c74d094257128 -->
<g id="node2" class="node">
<title>dir_f85fa5b410c455b12b1c74d094257128</title>
<g id="a_node2"><a xlink:href="dir_f85fa5b410c455b12b1c74d094257128.html" target="_top" xlink:title="figures">
<polygon fill="#a2b4d6" stroke="#404040" points="142,-52 88,-52 88,-16 142,-16 142,-52"/>
<text text-anchor="middle" x="115" y="-31.5" font-family="Helvetica,sans-Serif" font-size="10.00">figures</text>
</a>
</g>
</g>
<!-- dir_677b3613deff3cf9cb988b406ac50453 -->
<g id="node3" class="node">
<title>dir_677b3613deff3cf9cb988b406ac50453</title>
<g id="a_node3"><a xlink:href="dir_677b3613deff3cf9cb988b406ac50453.html" target="_top" xlink:title="engine">
<polygon fill="#edf0f7" stroke="#404040" stroke-width="2" points="106,-124 52,-124 52,-88 106,-88 106,-124"/>
<text text-anchor="middle" x="79" y="-103.5" font-family="Helvetica,sans-Serif" font-size="10.00">engine</text>
</a>
</g>
</g>
<!-- dir_677b3613deff3cf9cb988b406ac50453&#45;&gt;dir_3fe8709595e6aa4a2880a9796bda37c6 -->
<g id="edge1" class="edge">
<title>dir_677b3613deff3cf9cb988b406ac50453&#45;&gt;dir_3fe8709595e6aa4a2880a9796bda37c6</title>
<path fill="none" stroke="black" d="M70.1,-87.7C66,-79.73 61.05,-70.1 56.51,-61.26"/>
<polygon fill="black" stroke="black" points="59.48,-59.4 51.8,-52.1 53.26,-62.6 59.48,-59.4"/>
<g id="a_edge1&#45;headlabel"><a xlink:href="dir_000001_000000.html" target="_top" xlink:title="1">
<text text-anchor="middle" x="63.65" y="-58.79" font-family="Helvetica,sans-Serif" font-size="10.00">1</text>
</a>
</g>
</g>
<!-- dir_677b3613deff3cf9cb988b406ac50453&#45;&gt;dir_f85fa5b410c455b12b1c74d094257128 -->
<g id="edge2" class="edge">
<title>dir_677b3613deff3cf9cb988b406ac50453&#45;&gt;dir_f85fa5b410c455b12b1c74d094257128</title>
<path fill="none" stroke="black" d="M87.9,-87.7C92,-79.73 96.95,-70.1 101.49,-61.26"/>
<polygon fill="black" stroke="black" points="104.74,-62.6 106.2,-52.1 98.52,-59.4 104.74,-62.6"/>
<g id="a_edge2&#45;headlabel"><a xlink:href="dir_000001_000002.html" target="_top" xlink:title="1">
<text text-anchor="middle" x="105.62" y="-64.59" font-family="Helvetica,sans-Serif" font-size="10.00">1</text>
</a>
</g>
</g>
</g>
</svg>
