<?xml version="1.0" encoding="UTF-8" standalone="no"?>
<!DOCTYPE svg PUBLIC "-//W3C//DTD SVG 1.1//EN"
 "http://www.w3.org/Graphics/SVG/1.1/DTD/svg11.dtd">
<!-- Generated by graphviz version 2.50.0 (0)
 -->
<!-- Title: src/logic Pages: 1 -->
<svg width="260pt" height="255pt"
 viewBox="0.00 0.00 260.00 255.00" xmlns="http://www.w3.org/2000/svg" xmlns:xlink="http://www.w3.org/1999/xlink">
<g id="graph0" class="graph" transform="scale(1 1) rotate(0) translate(4 251)">
<title>src/logic</title>
<g id="clust1" class="cluster">
<title>clusterdir_68267d1309a1af8e8297ef4c3efbcdba</title>
<g id="a_clust1"><a xlink:href="dir_68267d1309a1af8e8297ef4c3efbcdba.html" target="_top" xlink:title="src">
<polygon fill="#ddddee" stroke="black" points="8,-8 8,-239 244,-239 244,-8 8,-8"/>
<text text-anchor="middle" x="126" y="-227" font-family="Helvetica,sans-Serif" font-size="10.00">src</text>
</a>
</g>
</g>
<g id="clust2" class="cluster">
<title>clusterdir_3d2e4578fe4cc3b7fa6177047437af5b</title>
<g id="a_clust2"><a xlink:href="dir_3d2e4578fe4cc3b7fa6177047437af5b.html" target="_top">
<polygon fill="#eeeeff" stroke="black" points="16,-16 16,-212 236,-212 236,-16 16,-16"/>
</a>
</g>
</g>
<!-- dir_3d2e4578fe4cc3b7fa6177047437af5b -->
<g id="node1" class="node">
<title>dir_3d2e4578fe4cc3b7fa6177047437af5b</title>
<text text-anchor="middle" x="201" y="-183.5" font-family="Helvetica,sans-Serif" font-size="10.00">logic</text>
</g>
<!-- dir_3fe8709595e6aa4a2880a9796bda37c6 -->
<g id="node2" class="node">
<title>dir_3fe8709595e6aa4a2880a9796bda37c6</title>
<g id="a_node2"><a xlink:href="dir_3fe8709595e6aa4a2880a9796bda37c6.html" target="_top" xlink:title="board">
<polygon fill="white" stroke="black" points="133,-132 79,-132 79,-96 133,-96 133,-132"/>
<text text-anchor="middle" x="106" y="-111.5" font-family="Helvetica,sans-Serif" font-size="10.00">board</text>
</a>
</g>
</g>
<!-- dir_f85fa5b410c455b12b1c74d094257128 -->
<g id="node4" class="node">
<title>dir_f85fa5b410c455b12b1c74d094257128</title>
<g id="a_node4"><a xlink:href="dir_f85fa5b410c455b12b1c74d094257128.html" target="_top" xlink:title="figures">
<polygon fill="white" stroke="black" points="156,-60 102,-60 102,-24 156,-24 156,-60"/>
<text text-anchor="middle" x="129" y="-39.5" font-family="Helvetica,sans-Serif" font-size="10.00">figures</text>
</a>
</g>
</g>
<!-- dir_3fe8709595e6aa4a2880a9796bda37c6&#45;&gt;dir_f85fa5b410c455b12b1c74d094257128 -->
<g id="edge3" class="edge">
<title>dir_3fe8709595e6aa4a2880a9796bda37c6&#45;&gt;dir_f85fa5b410c455b12b1c74d094257128</title>
<path fill="none" stroke="black" d="M111.69,-95.7C114.25,-87.9 117.33,-78.51 120.18,-69.83"/>
<polygon fill="black" stroke="black" points="123.58,-70.7 123.38,-60.1 116.93,-68.51 123.58,-70.7"/>
<g id="a_edge3&#45;headlabel"><a xlink:href="dir_000009_000011.html" target="_top" xlink:title="1">
<text text-anchor="middle" x="125.16" y="-72.5" font-family="Helvetica,sans-Serif" font-size="10.00">1</text>
</a>
</g>
</g>
<!-- dir_677b3613deff3cf9cb988b406ac50453 -->
<g id="node3" class="node">
<title>dir_677b3613deff3cf9cb988b406ac50453</title>
<g id="a_node3"><a xlink:href="dir_677b3613deff3cf9cb988b406ac50453.html" target="_top" xlink:title="engine">
<polygon fill="white" stroke="black" points="156,-204 102,-204 102,-168 156,-168 156,-204"/>
<text text-anchor="middle" x="129" y="-183.5" font-family="Helvetica,sans-Serif" font-size="10.00">engine</text>
</a>
</g>
</g>
<!-- dir_677b3613deff3cf9cb988b406ac50453&#45;&gt;dir_3fe8709595e6aa4a2880a9796bda37c6 -->
<g id="edge1" class="edge">
<title>dir_677b3613deff3cf9cb988b406ac50453&#45;&gt;dir_3fe8709595e6aa4a2880a9796bda37c6</title>
<path fill="none" stroke="black" d="M123.31,-167.7C120.75,-159.9 117.67,-150.51 114.82,-141.83"/>
<polygon fill="black" stroke="black" points="118.07,-140.51 111.62,-132.1 111.42,-142.7 118.07,-140.51"/>
<g id="a_edge1&#45;headlabel"><a xlink:href="dir_000010_000009.html" target="_top" xlink:title="1">
<text text-anchor="middle" x="121.89" y="-140.54" font-family="Helvetica,sans-Serif" font-size="10.00">1</text>
</a>
</g>
</g>
<!-- dir_677b3613deff3cf9cb988b406ac50453&#45;&gt;dir_f85fa5b410c455b12b1c74d094257128 -->
<g id="edge2" class="edge">
<title>dir_677b3613deff3cf9cb988b406ac50453&#45;&gt;dir_f85fa5b410c455b12b1c74d094257128</title>
<path fill="none" stroke="black" d="M134.41,-167.53C137.3,-157.29 140.55,-144.04 142,-132 143.92,-116.12 143.92,-111.88 142,-96 140.98,-87.53 139.07,-78.47 137.02,-70.28"/>
<polygon fill="black" stroke="black" points="140.36,-69.23 134.41,-60.47 133.6,-71.03 140.36,-69.23"/>
<g id="a_edge2&#45;headlabel"><a xlink:href="dir_000010_000011.html" target="_top" xlink:title="1">
<text text-anchor="middle" x="144.03" y="-69.48" font-family="Helvetica,sans-Serif" font-size="10.00">1</text>
</a>
</g>
</g>
<!-- dir_0a6071dbf00136e15e27a7f4c18cbb7d -->
<g id="node5" class="node">
<title>dir_0a6071dbf00136e15e27a7f4c18cbb7d</title>
<g id="a_node5"><a xlink:href="dir_0a6071dbf00136e15e27a7f4c18cbb7d.html" target="_top" xlink:title="liderboard">
<polygon fill="white" stroke="black" points="83.5,-204 24.5,-204 24.5,-168 83.5,-168 83.5,-204"/>
<text text-anchor="middle" x="54" y="-183.5" font-family="Helvetica,sans-Serif" font-size="10.00">liderboard</text>
</a>
</g>
</g>
</g>
</svg>
