<?xml version="1.0" encoding="UTF-8" standalone="no"?>
<!DOCTYPE svg PUBLIC "-//W3C//DTD SVG 1.1//EN"
 "http://www.w3.org/Graphics/SVG/1.1/DTD/svg11.dtd">
<!-- Generated by graphviz version 2.50.0 (0)
 -->
<!-- Title: src/gui Pages: 1 -->
<svg width="440pt" height="255pt"
 viewBox="0.00 0.00 440.00 255.00" xmlns="http://www.w3.org/2000/svg" xmlns:xlink="http://www.w3.org/1999/xlink">
<g id="graph0" class="graph" transform="scale(1 1) rotate(0) translate(4 251)">
<title>src/gui</title>
<g id="clust1" class="cluster">
<title>clusterdir_68267d1309a1af8e8297ef4c3efbcdba</title>
<g id="a_clust1"><a xlink:href="dir_68267d1309a1af8e8297ef4c3efbcdba.html" target="_top" xlink:title="src">
<polygon fill="#ddddee" stroke="black" points="8,-8 8,-239 424,-239 424,-8 8,-8"/>
<text text-anchor="middle" x="216" y="-227" font-family="Helvetica,sans-Serif" font-size="10.00">src</text>
</a>
</g>
</g>
<g id="clust2" class="cluster">
<title>clusterdir_99d0482cf009f9d97a0877749b817f19</title>
<g id="a_clust2"><a xlink:href="dir_99d0482cf009f9d97a0877749b817f19.html" target="_top">
<polygon fill="#eeeeff" stroke="black" points="16,-16 16,-212 416,-212 416,-16 16,-16"/>
</a>
</g>
</g>
<!-- dir_99d0482cf009f9d97a0877749b817f19 -->
<g id="node1" class="node">
<title>dir_99d0482cf009f9d97a0877749b817f19</title>
<text text-anchor="middle" x="347" y="-183.5" font-family="Helvetica,sans-Serif" font-size="10.00">gui</text>
</g>
<!-- dir_526a302981cdfb4f6ac4e897a95db68c -->
<g id="node2" class="node">
<title>dir_526a302981cdfb4f6ac4e897a95db68c</title>
<g id="a_node2"><a xlink:href="dir_526a302981cdfb4f6ac4e897a95db68c.html" target="_top" xlink:title="main_window">
<polygon fill="white" stroke="black" points="235,-204 159,-204 159,-168 235,-168 235,-204"/>
<text text-anchor="middle" x="197" y="-183.5" font-family="Helvetica,sans-Serif" font-size="10.00">main_window</text>
</a>
</g>
</g>
<!-- dir_fb8050bda4c87c840ba27990901cbe0c -->
<g id="node4" class="node">
<title>dir_fb8050bda4c87c840ba27990901cbe0c</title>
<g id="a_node4"><a xlink:href="dir_fb8050bda4c87c840ba27990901cbe0c.html" target="_top" xlink:title="screen_game">
<polygon fill="white" stroke="black" points="99.5,-132 24.5,-132 24.5,-96 99.5,-96 99.5,-132"/>
<text text-anchor="middle" x="62" y="-111.5" font-family="Helvetica,sans-Serif" font-size="10.00">screen_game</text>
</a>
</g>
</g>
<!-- dir_526a302981cdfb4f6ac4e897a95db68c&#45;&gt;dir_fb8050bda4c87c840ba27990901cbe0c -->
<g id="edge5" class="edge">
<title>dir_526a302981cdfb4f6ac4e897a95db68c&#45;&gt;dir_fb8050bda4c87c840ba27990901cbe0c</title>
<path fill="none" stroke="black" d="M163.98,-167.88C145.92,-158.51 123.35,-146.81 104.05,-136.8"/>
<polygon fill="black" stroke="black" points="105.64,-133.69 95.15,-132.19 102.42,-139.9 105.64,-133.69"/>
<g id="a_edge5&#45;headlabel"><a xlink:href="dir_000002_000004.html" target="_top" xlink:title="1">
<text text-anchor="middle" x="110.14" y="-130.32" font-family="Helvetica,sans-Serif" font-size="10.00">1</text>
</a>
</g>
</g>
<!-- dir_68c39c25abf8756328ad027d71a080e4 -->
<g id="node5" class="node">
<title>dir_68c39c25abf8756328ad027d71a080e4</title>
<g id="a_node5"><a xlink:href="dir_68c39c25abf8756328ad027d71a080e4.html" target="_top" xlink:title="screen_liderboard">
<polygon fill="white" stroke="black" points="210.5,-132 117.5,-132 117.5,-96 210.5,-96 210.5,-132"/>
<text text-anchor="middle" x="164" y="-111.5" font-family="Helvetica,sans-Serif" font-size="10.00">screen_liderboard</text>
</a>
</g>
</g>
<!-- dir_526a302981cdfb4f6ac4e897a95db68c&#45;&gt;dir_68c39c25abf8756328ad027d71a080e4 -->
<g id="edge4" class="edge">
<title>dir_526a302981cdfb4f6ac4e897a95db68c&#45;&gt;dir_68c39c25abf8756328ad027d71a080e4</title>
<path fill="none" stroke="black" d="M188.84,-167.7C185.09,-159.73 180.55,-150.1 176.38,-141.26"/>
<polygon fill="black" stroke="black" points="179.49,-139.66 172.06,-132.1 173.16,-142.64 179.49,-139.66"/>
<g id="a_edge4&#45;headlabel"><a xlink:href="dir_000002_000005.html" target="_top" xlink:title="1">
<text text-anchor="middle" x="183.59" y="-139.2" font-family="Helvetica,sans-Serif" font-size="10.00">1</text>
</a>
</g>
</g>
<!-- dir_444ecdc342978a478522442bccbecc46 -->
<g id="node6" class="node">
<title>dir_444ecdc342978a478522442bccbecc46</title>
<g id="a_node6"><a xlink:href="dir_444ecdc342978a478522442bccbecc46.html" target="_top" xlink:title="screen_menu">
<polygon fill="white" stroke="black" points="303.5,-132 228.5,-132 228.5,-96 303.5,-96 303.5,-132"/>
<text text-anchor="middle" x="266" y="-111.5" font-family="Helvetica,sans-Serif" font-size="10.00">screen_menu</text>
</a>
</g>
</g>
<!-- dir_526a302981cdfb4f6ac4e897a95db68c&#45;&gt;dir_444ecdc342978a478522442bccbecc46 -->
<g id="edge3" class="edge">
<title>dir_526a302981cdfb4f6ac4e897a95db68c&#45;&gt;dir_444ecdc342978a478522442bccbecc46</title>
<path fill="none" stroke="black" d="M214.06,-167.7C222.5,-159.14 232.82,-148.66 242.04,-139.3"/>
<polygon fill="black" stroke="black" points="244.61,-141.68 249.14,-132.1 239.63,-136.77 244.61,-141.68"/>
<g id="a_edge3&#45;headlabel"><a xlink:href="dir_000002_000006.html" target="_top" xlink:title="1">
<text text-anchor="middle" x="244.11" y="-143.74" font-family="Helvetica,sans-Serif" font-size="10.00">1</text>
</a>
</g>
</g>
<!-- dir_0ca362c5a2d8fdaec9858d1a5cb7ef54 -->
<g id="node7" class="node">
<title>dir_0ca362c5a2d8fdaec9858d1a5cb7ef54</title>
<g id="a_node7"><a xlink:href="dir_0ca362c5a2d8fdaec9858d1a5cb7ef54.html" target="_top" xlink:title="screen_settings">
<polygon fill="white" stroke="black" points="408,-132 322,-132 322,-96 408,-96 408,-132"/>
<text text-anchor="middle" x="365" y="-111.5" font-family="Helvetica,sans-Serif" font-size="10.00">screen_settings</text>
</a>
</g>
</g>
<!-- dir_526a302981cdfb4f6ac4e897a95db68c&#45;&gt;dir_0ca362c5a2d8fdaec9858d1a5cb7ef54 -->
<g id="edge2" class="edge">
<title>dir_526a302981cdfb4f6ac4e897a95db68c&#45;&gt;dir_0ca362c5a2d8fdaec9858d1a5cb7ef54</title>
<path fill="none" stroke="black" d="M235.12,-169.12C258.64,-159.32 289.09,-146.63 314.59,-136.01"/>
<polygon fill="black" stroke="black" points="316.21,-139.12 324.09,-132.04 313.52,-132.66 316.21,-139.12"/>
<g id="a_edge2&#45;headlabel"><a xlink:href="dir_000002_000007.html" target="_top" xlink:title="1">
<text text-anchor="middle" x="313.98" y="-140.62" font-family="Helvetica,sans-Serif" font-size="10.00">1</text>
</a>
</g>
</g>
<!-- dir_c15810b2f2645dd7dee6f849ffcad8a2 -->
<g id="node3" class="node">
<title>dir_c15810b2f2645dd7dee6f849ffcad8a2</title>
<g id="a_node3"><a xlink:href="dir_c15810b2f2645dd7dee6f849ffcad8a2.html" target="_top" xlink:title="scene_game">
<polygon fill="white" stroke="black" points="98,-60 26,-60 26,-24 98,-24 98,-60"/>
<text text-anchor="middle" x="62" y="-39.5" font-family="Helvetica,sans-Serif" font-size="10.00">scene_game</text>
</a>
</g>
</g>
<!-- dir_fb8050bda4c87c840ba27990901cbe0c&#45;&gt;dir_c15810b2f2645dd7dee6f849ffcad8a2 -->
<g id="edge1" class="edge">
<title>dir_fb8050bda4c87c840ba27990901cbe0c&#45;&gt;dir_c15810b2f2645dd7dee6f849ffcad8a2</title>
<path fill="none" stroke="black" d="M62,-95.7C62,-87.98 62,-78.71 62,-70.11"/>
<polygon fill="black" stroke="black" points="65.5,-70.1 62,-60.1 58.5,-70.1 65.5,-70.1"/>
<g id="a_edge1&#45;headlabel"><a xlink:href="dir_000004_000003.html" target="_top" xlink:title="1">
<text text-anchor="middle" x="68.34" y="-71.2" font-family="Helvetica,sans-Serif" font-size="10.00">1</text>
</a>
</g>
</g>
</g>
</svg>
