<?xml version="1.0" encoding="UTF-8" standalone="no"?>
<!DOCTYPE svg PUBLIC "-//W3C//DTD SVG 1.1//EN"
 "http://www.w3.org/Graphics/SVG/1.1/DTD/svg11.dtd">
<!-- Generated by graphviz version 2.43.0 (0)
 -->
<!-- Title: src Pages: 1 -->
<svg width="166pt" height="220pt"
 viewBox="0.00 0.00 166.00 220.00" xmlns="http://www.w3.org/2000/svg" xmlns:xlink="http://www.w3.org/1999/xlink">
<g id="graph0" class="graph" transform="scale(1 1) rotate(0) translate(4 216)">
<title>src</title>
<g id="clust1" class="cluster">
<title>clusterdir_68267d1309a1af8e8297ef4c3efbcdba</title>
<g id="a_clust1"><a xlink:href="dir_68267d1309a1af8e8297ef4c3efbcdba.html" target="_top">
<polygon fill="#edf0f7" stroke="#404040" stroke-width="2" points="8,-8 8,-204 150,-204 150,-8 8,-8"/>
</a>
</g>
</g>
<!-- dir_68267d1309a1af8e8297ef4c3efbcdba -->
<g id="node1" class="node">
<title>dir_68267d1309a1af8e8297ef4c3efbcdba</title>
<text text-anchor="middle" x="79" y="-175.5" font-family="Helvetica,sans-Serif" font-size="10.00">src</text>
</g>
<!-- dir_99d0482cf009f9d97a0877749b817f19 -->
<g id="node2" class="node">
<title>dir_99d0482cf009f9d97a0877749b817f19</title>
<g id="a_node2"><a xlink:href="dir_99d0482cf009f9d97a0877749b817f19.html" target="_top" xlink:title="gui">
<polygon fill="#a2b4d6" stroke="#404040" points="106,-124 52,-124 52,-88 106,-88 106,-124"/>
<text text-anchor="middle" x="79" y="-103.5" font-family="Helvetica,sans-Serif" font-size="10.00">gui</text>
</a>
</g>
</g>
<!-- dir_68267d1309a1af8e8297ef4c3efbcdba&#45;&gt;dir_99d0482cf009f9d97a0877749b817f19 -->
<g id="edge1" class="edge">
<title>dir_68267d1309a1af8e8297ef4c3efbcdba&#45;&gt;dir_99d0482cf009f9d97a0877749b817f19</title>
<path fill="none" stroke="black" d="M79,-159.7C79,-151.98 79,-142.71 79,-134.11"/>
<polygon fill="black" stroke="black" points="82.5,-134.1 79,-124.1 75.5,-134.1 82.5,-134.1"/>
<g id="a_edge1&#45;headlabel"><a xlink:href="dir_000015_000003.html" target="_top" xlink:title="8">
<text text-anchor="middle" x="85.34" y="-135.2" font-family="Helvetica,sans-Serif" font-size="10.00">8</text>
</a>
</g>
</g>
<!-- dir_3d2e4578fe4cc3b7fa6177047437af5b -->
<g id="node3" class="node">
<title>dir_3d2e4578fe4cc3b7fa6177047437af5b</title>
<g id="a_node3"><a xlink:href="dir_3d2e4578fe4cc3b7fa6177047437af5b.html" target="_top" xlink:title="logic">
<polygon fill="#a2b4d6" stroke="#404040" points="70,-52 16,-52 16,-16 70,-16 70,-52"/>
<text text-anchor="middle" x="43" y="-31.5" font-family="Helvetica,sans-Serif" font-size="10.00">logic</text>
</a>
</g>
</g>
<!-- dir_99d0482cf009f9d97a0877749b817f19&#45;&gt;dir_3d2e4578fe4cc3b7fa6177047437af5b -->
<g id="edge2" class="edge">
<title>dir_99d0482cf009f9d97a0877749b817f19&#45;&gt;dir_3d2e4578fe4cc3b7fa6177047437af5b</title>
<path fill="none" stroke="black" d="M70.1,-87.7C66,-79.73 61.05,-70.1 56.51,-61.26"/>
<polygon fill="black" stroke="black" points="59.48,-59.4 51.8,-52.1 53.26,-62.6 59.48,-59.4"/>
<g id="a_edge2&#45;headlabel"><a xlink:href="dir_000003_000008.html" target="_top" xlink:title="1">
<text text-anchor="middle" x="63.65" y="-58.79" font-family="Helvetica,sans-Serif" font-size="10.00">1</text>
</a>
</g>
</g>
<!-- dir_452baf35e1d7639c9f2a5ece4ec85855 -->
<g id="node4" class="node">
<title>dir_452baf35e1d7639c9f2a5ece4ec85855</title>
<g id="a_node4"><a xlink:href="dir_452baf35e1d7639c9f2a5ece4ec85855.html" target="_top" xlink:title="storage">
<polygon fill="#a2b4d6" stroke="#404040" points="142,-52 88,-52 88,-16 142,-16 142,-52"/>
<text text-anchor="middle" x="115" y="-31.5" font-family="Helvetica,sans-Serif" font-size="10.00">storage</text>
</a>
</g>
</g>
<!-- dir_99d0482cf009f9d97a0877749b817f19&#45;&gt;dir_452baf35e1d7639c9f2a5ece4ec85855 -->
<g id="edge3" class="edge">
<title>dir_99d0482cf009f9d97a0877749b817f19&#45;&gt;dir_452baf35e1d7639c9f2a5ece4ec85855</title>
<path fill="none" stroke="black" d="M87.9,-87.7C92,-79.73 96.95,-70.1 101.49,-61.26"/>
<polygon fill="black" stroke="black" points="104.74,-62.6 106.2,-52.1 98.52,-59.4 104.74,-62.6"/>
<g id="a_edge3&#45;headlabel"><a xlink:href="dir_000003_000016.html" target="_top" xlink:title="2">
<text text-anchor="middle" x="105.62" y="-64.59" font-family="Helvetica,sans-Serif" font-size="10.00">2</text>
</a>
</g>
</g>
</g>
</svg>
