<?xml version="1.0" encoding="UTF-8" standalone="no"?>
<!DOCTYPE svg PUBLIC "-//W3C//DTD SVG 1.1//EN"
 "http://www.w3.org/Graphics/SVG/1.1/DTD/svg11.dtd">
<!-- Generated by graphviz version 2.43.0 (0)
 -->
<!-- Title: src/gui Pages: 1 -->
<svg width="608pt" height="255pt"
 viewBox="0.00 0.00 608.00 255.00" xmlns="http://www.w3.org/2000/svg" xmlns:xlink="http://www.w3.org/1999/xlink">
<g id="graph0" class="graph" transform="scale(1 1) rotate(0) translate(4 251)">
<title>src/gui</title>
<g id="clust1" class="cluster">
<title>clusterdir_68267d1309a1af8e8297ef4c3efbcdba</title>
<g id="a_clust1"><a xlink:href="dir_68267d1309a1af8e8297ef4c3efbcdba.html" target="_top" xlink:title="src">
<polygon fill="#ddddee" stroke="black" points="8,-8 8,-239 592,-239 592,-8 8,-8"/>
<text text-anchor="middle" x="300" y="-227" font-family="Helvetica,sans-Serif" font-size="10.00">src</text>
</a>
</g>
</g>
<g id="clust2" class="cluster">
<title>clusterdir_99d0482cf009f9d97a0877749b817f19</title>
<g id="a_clust2"><a xlink:href="dir_99d0482cf009f9d97a0877749b817f19.html" target="_top">
<polygon fill="#eeeeff" stroke="black" points="16,-16 16,-212 447,-212 447,-16 16,-16"/>
</a>
</g>
</g>
<!-- dir_3d2e4578fe4cc3b7fa6177047437af5b -->
<g id="node1" class="node">
<title>dir_3d2e4578fe4cc3b7fa6177047437af5b</title>
<g id="a_node1"><a xlink:href="dir_3d2e4578fe4cc3b7fa6177047437af5b.html" target="_top" xlink:title="logic">
<polygon fill="none" stroke="red" points="512,-132 458,-132 458,-96 512,-96 512,-132"/>
<text text-anchor="middle" x="485" y="-111.5" font-family="Helvetica,sans-Serif" font-size="10.00">logic</text>
</a>
</g>
</g>
<!-- dir_452baf35e1d7639c9f2a5ece4ec85855 -->
<g id="node2" class="node">
<title>dir_452baf35e1d7639c9f2a5ece4ec85855</title>
<g id="a_node2"><a xlink:href="dir_452baf35e1d7639c9f2a5ece4ec85855.html" target="_top" xlink:title="storage">
<polygon fill="none" stroke="red" points="584,-132 530,-132 530,-96 584,-96 584,-132"/>
<text text-anchor="middle" x="557" y="-111.5" font-family="Helvetica,sans-Serif" font-size="10.00">storage</text>
</a>
</g>
</g>
<!-- dir_99d0482cf009f9d97a0877749b817f19 -->
<g id="node3" class="node">
<title>dir_99d0482cf009f9d97a0877749b817f19</title>
<text text-anchor="middle" x="402" y="-183.5" font-family="Helvetica,sans-Serif" font-size="10.00">gui</text>
</g>
<!-- dir_f4a8d85f9c1b3dc34fd02b37f437332d -->
<g id="node4" class="node">
<title>dir_f4a8d85f9c1b3dc34fd02b37f437332d</title>
<g id="a_node4"><a xlink:href="dir_f4a8d85f9c1b3dc34fd02b37f437332d.html" target="_top" xlink:title="gui_point">
<polygon fill="white" stroke="black" points="86,-60 24,-60 24,-24 86,-24 86,-60"/>
<text text-anchor="middle" x="55" y="-39.5" font-family="Helvetica,sans-Serif" font-size="10.00">gui_point</text>
</a>
</g>
</g>
<!-- dir_a2363278ae6b1eb68dd464493846cba6 -->
<g id="node5" class="node">
<title>dir_a2363278ae6b1eb68dd464493846cba6</title>
<g id="a_node5"><a xlink:href="dir_a2363278ae6b1eb68dd464493846cba6.html" target="_top" xlink:title="gui_scene">
<polygon fill="white" stroke="black" points="169.5,-60 104.5,-60 104.5,-24 169.5,-24 169.5,-60"/>
<text text-anchor="middle" x="137" y="-39.5" font-family="Helvetica,sans-Serif" font-size="10.00">gui_scene</text>
</a>
</g>
</g>
<!-- dir_c7f66b28f7c1d3b6a4d0b6753284a259 -->
<g id="node6" class="node">
<title>dir_c7f66b28f7c1d3b6a4d0b6753284a259</title>
<g id="a_node6"><a xlink:href="dir_c7f66b28f7c1d3b6a4d0b6753284a259.html" target="_top" xlink:title="gui_win">
<polygon fill="white" stroke="black" points="242,-60 188,-60 188,-24 242,-24 242,-60"/>
<text text-anchor="middle" x="215" y="-39.5" font-family="Helvetica,sans-Serif" font-size="10.00">gui_win</text>
</a>
</g>
</g>
<!-- dir_526a302981cdfb4f6ac4e897a95db68c -->
<g id="node7" class="node">
<title>dir_526a302981cdfb4f6ac4e897a95db68c</title>
<g id="a_node7"><a xlink:href="dir_526a302981cdfb4f6ac4e897a95db68c.html" target="_top" xlink:title="main_window">
<polygon fill="white" stroke="black" points="338,-204 254,-204 254,-168 338,-168 338,-204"/>
<text text-anchor="middle" x="296" y="-183.5" font-family="Helvetica,sans-Serif" font-size="10.00">main_window</text>
</a>
</g>
</g>
<!-- dir_526a302981cdfb4f6ac4e897a95db68c&#45;&gt;dir_3d2e4578fe4cc3b7fa6177047437af5b -->
<g id="edge5" class="edge">
<title>dir_526a302981cdfb4f6ac4e897a95db68c&#45;&gt;dir_3d2e4578fe4cc3b7fa6177047437af5b</title>
<path fill="none" stroke="black" d="M338.01,-172.32C367.3,-163.1 407.37,-149.75 448.37,-132.93"/>
<polygon fill="black" stroke="black" points="449.8,-136.13 457.68,-129.05 447.11,-129.66 449.8,-136.13"/>
<g id="a_edge5&#45;headlabel"><a xlink:href="dir_000005_000010.html" target="_top" xlink:title="1">
<text text-anchor="middle" x="447.57" y="-137.63" font-family="Helvetica,sans-Serif" font-size="10.00">1</text>
</a>
</g>
</g>
<!-- dir_526a302981cdfb4f6ac4e897a95db68c&#45;&gt;dir_452baf35e1d7639c9f2a5ece4ec85855 -->
<g id="edge7" class="edge">
<title>dir_526a302981cdfb4f6ac4e897a95db68c&#45;&gt;dir_452baf35e1d7639c9f2a5ece4ec85855</title>
<path fill="none" stroke="black" d="M338.18,-174.68C347.35,-172.46 357,-170.14 366,-168 431.72,-152.39 452.36,-154.95 519.89,-132.02"/>
<polygon fill="black" stroke="black" points="521.43,-135.19 529.73,-128.61 519.14,-128.57 521.43,-135.19"/>
<g id="a_edge7&#45;headlabel"><a xlink:href="dir_000005_000014.html" target="_top" xlink:title="2">
<text text-anchor="middle" x="518.96" y="-136.55" font-family="Helvetica,sans-Serif" font-size="10.00">2</text>
</a>
</g>
</g>
<!-- dir_fb8050bda4c87c840ba27990901cbe0c -->
<g id="node8" class="node">
<title>dir_fb8050bda4c87c840ba27990901cbe0c</title>
<g id="a_node8"><a xlink:href="dir_fb8050bda4c87c840ba27990901cbe0c.html" target="_top" xlink:title="screen_game">
<polygon fill="white" stroke="black" points="106,-132 24,-132 24,-96 106,-96 106,-132"/>
<text text-anchor="middle" x="65" y="-111.5" font-family="Helvetica,sans-Serif" font-size="10.00">screen_game</text>
</a>
</g>
</g>
<!-- dir_526a302981cdfb4f6ac4e897a95db68c&#45;&gt;dir_fb8050bda4c87c840ba27990901cbe0c -->
<g id="edge9" class="edge">
<title>dir_526a302981cdfb4f6ac4e897a95db68c&#45;&gt;dir_fb8050bda4c87c840ba27990901cbe0c</title>
<path fill="none" stroke="black" d="M253.79,-173.19C219.16,-163.38 168.65,-148.79 116.01,-132.26"/>
<polygon fill="black" stroke="black" points="116.74,-128.82 106.15,-129.15 114.64,-135.5 116.74,-128.82"/>
<g id="a_edge9&#45;headlabel"><a xlink:href="dir_000005_000006.html" target="_top" xlink:title="1">
<text text-anchor="middle" x="121.03" y="-124.7" font-family="Helvetica,sans-Serif" font-size="10.00">1</text>
</a>
</g>
</g>
<!-- dir_68c39c25abf8756328ad027d71a080e4 -->
<g id="node9" class="node">
<title>dir_68c39c25abf8756328ad027d71a080e4</title>
<g id="a_node9"><a xlink:href="dir_68c39c25abf8756328ad027d71a080e4.html" target="_top" xlink:title="screen_liderboard">
<polygon fill="white" stroke="black" points="228,-132 124,-132 124,-96 228,-96 228,-132"/>
<text text-anchor="middle" x="176" y="-111.5" font-family="Helvetica,sans-Serif" font-size="10.00">screen_liderboard</text>
</a>
</g>
</g>
<!-- dir_526a302981cdfb4f6ac4e897a95db68c&#45;&gt;dir_68c39c25abf8756328ad027d71a080e4 -->
<g id="edge8" class="edge">
<title>dir_526a302981cdfb4f6ac4e897a95db68c&#45;&gt;dir_68c39c25abf8756328ad027d71a080e4</title>
<path fill="none" stroke="black" d="M266.64,-167.88C250.95,-158.72 231.44,-147.34 214.55,-137.48"/>
<polygon fill="black" stroke="black" points="215.87,-134.21 205.47,-132.19 212.34,-140.25 215.87,-134.21"/>
<g id="a_edge8&#45;headlabel"><a xlink:href="dir_000005_000007.html" target="_top" xlink:title="1">
<text text-anchor="middle" x="220.41" y="-131.06" font-family="Helvetica,sans-Serif" font-size="10.00">1</text>
</a>
</g>
</g>
<!-- dir_444ecdc342978a478522442bccbecc46 -->
<g id="node10" class="node">
<title>dir_444ecdc342978a478522442bccbecc46</title>
<g id="a_node10"><a xlink:href="dir_444ecdc342978a478522442bccbecc46.html" target="_top" xlink:title="screen_menu">
<polygon fill="white" stroke="black" points="328,-132 246,-132 246,-96 328,-96 328,-132"/>
<text text-anchor="middle" x="287" y="-111.5" font-family="Helvetica,sans-Serif" font-size="10.00">screen_menu</text>
</a>
</g>
</g>
<!-- dir_526a302981cdfb4f6ac4e897a95db68c&#45;&gt;dir_444ecdc342978a478522442bccbecc46 -->
<g id="edge6" class="edge">
<title>dir_526a302981cdfb4f6ac4e897a95db68c&#45;&gt;dir_444ecdc342978a478522442bccbecc46</title>
<path fill="none" stroke="black" d="M293.78,-167.7C292.78,-159.98 291.59,-150.71 290.49,-142.11"/>
<polygon fill="black" stroke="black" points="293.95,-141.58 289.2,-132.1 287,-142.47 293.95,-141.58"/>
<g id="a_edge6&#45;headlabel"><a xlink:href="dir_000005_000008.html" target="_top" xlink:title="1">
<text text-anchor="middle" x="297.22" y="-142.28" font-family="Helvetica,sans-Serif" font-size="10.00">1</text>
</a>
</g>
</g>
<!-- dir_0ca362c5a2d8fdaec9858d1a5cb7ef54 -->
<g id="node11" class="node">
<title>dir_0ca362c5a2d8fdaec9858d1a5cb7ef54</title>
<g id="a_node11"><a xlink:href="dir_0ca362c5a2d8fdaec9858d1a5cb7ef54.html" target="_top" xlink:title="screen_settings">
<polygon fill="white" stroke="black" points="439.5,-132 346.5,-132 346.5,-96 439.5,-96 439.5,-132"/>
<text text-anchor="middle" x="393" y="-111.5" font-family="Helvetica,sans-Serif" font-size="10.00">screen_settings</text>
</a>
</g>
</g>
<!-- dir_526a302981cdfb4f6ac4e897a95db68c&#45;&gt;dir_0ca362c5a2d8fdaec9858d1a5cb7ef54 -->
<g id="edge4" class="edge">
<title>dir_526a302981cdfb4f6ac4e897a95db68c&#45;&gt;dir_0ca362c5a2d8fdaec9858d1a5cb7ef54</title>
<path fill="none" stroke="black" d="M319.98,-167.7C332.31,-158.8 347.52,-147.82 360.85,-138.2"/>
<polygon fill="black" stroke="black" points="363.24,-140.79 369.3,-132.1 359.14,-135.12 363.24,-140.79"/>
<g id="a_edge4&#45;headlabel"><a xlink:href="dir_000005_000009.html" target="_top" xlink:title="1">
<text text-anchor="middle" x="361.98" y="-142.7" font-family="Helvetica,sans-Serif" font-size="10.00">1</text>
</a>
</g>
</g>
<!-- dir_fb8050bda4c87c840ba27990901cbe0c&#45;&gt;dir_f4a8d85f9c1b3dc34fd02b37f437332d -->
<g id="edge3" class="edge">
<title>dir_fb8050bda4c87c840ba27990901cbe0c&#45;&gt;dir_f4a8d85f9c1b3dc34fd02b37f437332d</title>
<path fill="none" stroke="black" d="M62.53,-95.7C61.43,-87.98 60.1,-78.71 58.87,-70.11"/>
<polygon fill="black" stroke="black" points="62.32,-69.51 57.44,-60.1 55.39,-70.5 62.32,-69.51"/>
<g id="a_edge3&#45;headlabel"><a xlink:href="dir_000006_000002.html" target="_top" xlink:title="1">
<text text-anchor="middle" x="65.64" y="-70.17" font-family="Helvetica,sans-Serif" font-size="10.00">1</text>
</a>
</g>
</g>
<!-- dir_fb8050bda4c87c840ba27990901cbe0c&#45;&gt;dir_a2363278ae6b1eb68dd464493846cba6 -->
<g id="edge1" class="edge">
<title>dir_fb8050bda4c87c840ba27990901cbe0c&#45;&gt;dir_a2363278ae6b1eb68dd464493846cba6</title>
<path fill="none" stroke="black" d="M82.8,-95.7C91.6,-87.14 102.38,-76.66 112,-67.3"/>
<polygon fill="black" stroke="black" points="114.68,-69.58 119.41,-60.1 109.8,-64.57 114.68,-69.58"/>
<g id="a_edge1&#45;headlabel"><a xlink:href="dir_000006_000003.html" target="_top" xlink:title="1">
<text text-anchor="middle" x="114.08" y="-71.63" font-family="Helvetica,sans-Serif" font-size="10.00">1</text>
</a>
</g>
</g>
<!-- dir_fb8050bda4c87c840ba27990901cbe0c&#45;&gt;dir_c7f66b28f7c1d3b6a4d0b6753284a259 -->
<g id="edge2" class="edge">
<title>dir_fb8050bda4c87c840ba27990901cbe0c&#45;&gt;dir_c7f66b28f7c1d3b6a4d0b6753284a259</title>
<path fill="none" stroke="black" d="M101.73,-95.99C122.08,-86.55 148.03,-74.49 178.67,-60.14"/>
<polygon fill="black" stroke="black" points="180.31,-63.24 187.88,-55.83 177.34,-56.9 180.31,-63.24"/>
<g id="a_edge2&#45;headlabel"><a xlink:href="dir_000006_000004.html" target="_top" xlink:title="1">
<text text-anchor="middle" x="178.26" y="-64.84" font-family="Helvetica,sans-Serif" font-size="10.00">1</text>
</a>
</g>
</g>
</g>
</svg>
