<?xml version="1.0" encoding="UTF-8" standalone="no"?>
<!DOCTYPE svg PUBLIC "-//W3C//DTD SVG 1.1//EN"
 "http://www.w3.org/Graphics/SVG/1.1/DTD/svg11.dtd">
<!-- Generated by graphviz version 2.43.0 (0)
 -->
<!-- Title: src/logic/engine/engine.cpp Pages: 1 -->
<svg width="466pt" height="308pt"
 viewBox="0.00 0.00 465.50 308.00" xmlns="http://www.w3.org/2000/svg" xmlns:xlink="http://www.w3.org/1999/xlink">
<g id="graph0" class="graph" transform="scale(1 1) rotate(0) translate(4 304)">
<title>src/logic/engine/engine.cpp</title>
<!-- Node1 -->
<g id="node1" class="node">
<title>Node1</title>
<g id="a_node1"><a xlink:title=" ">
<polygon fill="#bfbfbf" stroke="black" points="276,-280.5 276,-299.5 425,-299.5 425,-280.5 276,-280.5"/>
<text text-anchor="middle" x="350.5" y="-287.5" font-family="Helvetica,sans-Serif" font-size="10.00">src/logic/engine/engine.cpp</text>
</a>
</g>
</g>
<!-- Node2 -->
<g id="node2" class="node">
<title>Node2</title>
<g id="a_node2"><a xlink:href="engine_8h.html" target="_top" xlink:title=" ">
<polygon fill="none" stroke="black" points="190,-224.5 190,-243.5 249,-243.5 249,-224.5 190,-224.5"/>
<text text-anchor="middle" x="219.5" y="-231.5" font-family="Helvetica,sans-Serif" font-size="10.00">engine.h</text>
</a>
</g>
</g>
<!-- Node1&#45;&gt;Node2 -->
<g id="edge1" class="edge">
<title>Node1&#45;&gt;Node2</title>
<path fill="none" stroke="midnightblue" d="M329.74,-280.44C308.18,-271.56 274.24,-257.56 249.71,-247.45"/>
<polygon fill="midnightblue" stroke="midnightblue" points="250.74,-244.09 240.16,-243.52 248.07,-250.56 250.74,-244.09"/>
</g>
<!-- Node11 -->
<g id="node11" class="node">
<title>Node11</title>
<g id="a_node11"><a xlink:title=" ">
<polygon fill="none" stroke="#bfbfbf" points="311.5,-56.5 311.5,-75.5 343.5,-75.5 343.5,-56.5 311.5,-56.5"/>
<text text-anchor="middle" x="327.5" y="-63.5" font-family="Helvetica,sans-Serif" font-size="10.00">list</text>
</a>
</g>
</g>
<!-- Node1&#45;&gt;Node11 -->
<g id="edge17" class="edge">
<title>Node1&#45;&gt;Node11</title>
<path fill="none" stroke="midnightblue" d="M349.6,-280.3C346.21,-247.63 334.22,-131.87 329.46,-85.96"/>
<polygon fill="midnightblue" stroke="midnightblue" points="332.93,-85.47 328.42,-75.88 325.97,-86.19 332.93,-85.47"/>
</g>
<!-- Node13 -->
<g id="node13" class="node">
<title>Node13</title>
<g id="a_node13"><a xlink:title=" ">
<polygon fill="none" stroke="#bfbfbf" points="360,-112.5 360,-131.5 407,-131.5 407,-112.5 360,-112.5"/>
<text text-anchor="middle" x="383.5" y="-119.5" font-family="Helvetica,sans-Serif" font-size="10.00">vector</text>
</a>
</g>
</g>
<!-- Node1&#45;&gt;Node13 -->
<g id="edge18" class="edge">
<title>Node1&#45;&gt;Node13</title>
<path fill="none" stroke="midnightblue" d="M352.27,-280.08C357.47,-253.95 372.72,-177.21 379.81,-141.58"/>
<polygon fill="midnightblue" stroke="midnightblue" points="383.28,-142.06 381.8,-131.57 376.41,-140.69 383.28,-142.06"/>
</g>
<!-- Node14 -->
<g id="node14" class="node">
<title>Node14</title>
<g id="a_node14"><a xlink:title=" ">
<polygon fill="none" stroke="#bfbfbf" points="397.5,-224.5 397.5,-243.5 457.5,-243.5 457.5,-224.5 397.5,-224.5"/>
<text text-anchor="middle" x="427.5" y="-231.5" font-family="Helvetica,sans-Serif" font-size="10.00">iostream</text>
</a>
</g>
</g>
<!-- Node1&#45;&gt;Node14 -->
<g id="edge16" class="edge">
<title>Node1&#45;&gt;Node14</title>
<path fill="none" stroke="midnightblue" d="M362.87,-280.32C374.66,-272.06 392.63,-259.45 406.64,-249.63"/>
<polygon fill="midnightblue" stroke="midnightblue" points="408.98,-252.26 415.16,-243.65 404.96,-246.53 408.98,-252.26"/>
</g>
<!-- Node3 -->
<g id="node3" class="node">
<title>Node3</title>
<g id="a_node3"><a xlink:href="constants_8h.html" target="_top" xlink:title=" ">
<polygon fill="none" stroke="black" points="0,-56.5 0,-75.5 91,-75.5 91,-56.5 0,-56.5"/>
<text text-anchor="middle" x="45.5" y="-63.5" font-family="Helvetica,sans-Serif" font-size="10.00">../../constants.h</text>
</a>
</g>
</g>
<!-- Node2&#45;&gt;Node3 -->
<g id="edge2" class="edge">
<title>Node2&#45;&gt;Node3</title>
<path fill="none" stroke="midnightblue" d="M210.15,-224.08C182.04,-197.27 98.11,-117.19 62.15,-82.89"/>
<polygon fill="midnightblue" stroke="midnightblue" points="64.13,-79.94 54.48,-75.57 59.3,-85 64.13,-79.94"/>
</g>
<!-- Node5 -->
<g id="node5" class="node">
<title>Node5</title>
<g id="a_node5"><a xlink:href="board_8h.html" target="_top" xlink:title=" ">
<polygon fill="none" stroke="black" points="210,-168.5 210,-187.5 303,-187.5 303,-168.5 210,-168.5"/>
<text text-anchor="middle" x="256.5" y="-175.5" font-family="Helvetica,sans-Serif" font-size="10.00">../board/board.h</text>
</a>
</g>
</g>
<!-- Node2&#45;&gt;Node5 -->
<g id="edge4" class="edge">
<title>Node2&#45;&gt;Node5</title>
<path fill="none" stroke="midnightblue" d="M225.61,-224.08C230.78,-216.53 238.35,-205.49 244.69,-196.23"/>
<polygon fill="midnightblue" stroke="midnightblue" points="247.74,-197.98 250.5,-187.75 241.96,-194.02 247.74,-197.98"/>
</g>
<!-- Node6 -->
<g id="node6" class="node">
<title>Node6</title>
<g id="a_node6"><a xlink:href="figures_8h.html" target="_top" xlink:title=" ">
<polygon fill="none" stroke="black" points="161.5,-112.5 161.5,-131.5 265.5,-131.5 265.5,-112.5 161.5,-112.5"/>
<text text-anchor="middle" x="213.5" y="-119.5" font-family="Helvetica,sans-Serif" font-size="10.00">../figures/figures.h</text>
</a>
</g>
</g>
<!-- Node2&#45;&gt;Node6 -->
<g id="edge15" class="edge">
<title>Node2&#45;&gt;Node6</title>
<path fill="none" stroke="midnightblue" d="M214.88,-224.34C210.44,-215.49 204.05,-201.22 201.5,-188 198.48,-172.33 202.28,-154.5 206.39,-141.49"/>
<polygon fill="midnightblue" stroke="midnightblue" points="209.76,-142.43 209.76,-131.84 203.16,-140.12 209.76,-142.43"/>
</g>
<!-- Node4 -->
<g id="node4" class="node">
<title>Node4</title>
<g id="a_node4"><a xlink:title=" ">
<polygon fill="none" stroke="#bfbfbf" points="18,-0.5 18,-19.5 73,-19.5 73,-0.5 18,-0.5"/>
<text text-anchor="middle" x="45.5" y="-7.5" font-family="Helvetica,sans-Serif" font-size="10.00">QVector</text>
</a>
</g>
</g>
<!-- Node3&#45;&gt;Node4 -->
<g id="edge3" class="edge">
<title>Node3&#45;&gt;Node4</title>
<path fill="none" stroke="midnightblue" d="M45.5,-56.08C45.5,-49.01 45.5,-38.86 45.5,-29.99"/>
<polygon fill="midnightblue" stroke="midnightblue" points="49,-29.75 45.5,-19.75 42,-29.75 49,-29.75"/>
</g>
<!-- Node5&#45;&gt;Node6 -->
<g id="edge5" class="edge">
<title>Node5&#45;&gt;Node6</title>
<path fill="none" stroke="midnightblue" d="M249.4,-168.08C243.26,-160.38 234.23,-149.03 226.76,-139.65"/>
<polygon fill="midnightblue" stroke="midnightblue" points="229.44,-137.39 220.47,-131.75 223.96,-141.75 229.44,-137.39"/>
</g>
<!-- Node5&#45;&gt;Node11 -->
<g id="edge13" class="edge">
<title>Node5&#45;&gt;Node11</title>
<path fill="none" stroke="midnightblue" d="M262.07,-168.37C273.74,-150.3 300.92,-108.18 316.33,-84.31"/>
<polygon fill="midnightblue" stroke="midnightblue" points="319.47,-85.89 321.95,-75.59 313.59,-82.1 319.47,-85.89"/>
</g>
<!-- Node5&#45;&gt;Node13 -->
<g id="edge14" class="edge">
<title>Node5&#45;&gt;Node13</title>
<path fill="none" stroke="midnightblue" d="M276.62,-168.44C297.52,-159.56 330.43,-145.56 354.22,-135.45"/>
<polygon fill="midnightblue" stroke="midnightblue" points="355.64,-138.65 363.47,-131.52 352.9,-132.21 355.64,-138.65"/>
</g>
<!-- Node6&#45;&gt;Node3 -->
<g id="edge6" class="edge">
<title>Node6&#45;&gt;Node3</title>
<path fill="none" stroke="midnightblue" d="M186.88,-112.44C158.49,-103.32 113.36,-88.81 81.75,-78.65"/>
<polygon fill="midnightblue" stroke="midnightblue" points="82.59,-75.24 72,-75.52 80.44,-81.91 82.59,-75.24"/>
</g>
<!-- Node7 -->
<g id="node7" class="node">
<title>Node7</title>
<g id="a_node7"><a xlink:href="utils_8h.html" target="_top" xlink:title=" ">
<polygon fill="none" stroke="black" points="109,-56.5 109,-75.5 174,-75.5 174,-56.5 109,-56.5"/>
<text text-anchor="middle" x="141.5" y="-63.5" font-family="Helvetica,sans-Serif" font-size="10.00">../../utils.h</text>
</a>
</g>
</g>
<!-- Node6&#45;&gt;Node7 -->
<g id="edge7" class="edge">
<title>Node6&#45;&gt;Node7</title>
<path fill="none" stroke="midnightblue" d="M201.93,-112.32C191.08,-104.18 174.62,-91.84 161.62,-82.09"/>
<polygon fill="midnightblue" stroke="midnightblue" points="163.38,-79.03 153.28,-75.83 159.18,-84.63 163.38,-79.03"/>
</g>
<!-- Node10 -->
<g id="node10" class="node">
<title>Node10</title>
<g id="a_node10"><a xlink:title=" ">
<polygon fill="none" stroke="#bfbfbf" points="192,-56.5 192,-75.5 243,-75.5 243,-56.5 192,-56.5"/>
<text text-anchor="middle" x="217.5" y="-63.5" font-family="Helvetica,sans-Serif" font-size="10.00">math.h</text>
</a>
</g>
</g>
<!-- Node6&#45;&gt;Node10 -->
<g id="edge10" class="edge">
<title>Node6&#45;&gt;Node10</title>
<path fill="none" stroke="midnightblue" d="M214.16,-112.08C214.68,-105.01 215.44,-94.86 216.09,-85.99"/>
<polygon fill="midnightblue" stroke="midnightblue" points="219.6,-85.98 216.85,-75.75 212.62,-85.47 219.6,-85.98"/>
</g>
<!-- Node6&#45;&gt;Node11 -->
<g id="edge11" class="edge">
<title>Node6&#45;&gt;Node11</title>
<path fill="none" stroke="midnightblue" d="M231.56,-112.44C250.62,-103.42 280.8,-89.12 302.21,-78.98"/>
<polygon fill="midnightblue" stroke="midnightblue" points="303.83,-82.09 311.36,-74.64 300.83,-75.76 303.83,-82.09"/>
</g>
<!-- Node12 -->
<g id="node12" class="node">
<title>Node12</title>
<g id="a_node12"><a xlink:title=" ">
<polygon fill="none" stroke="#bfbfbf" points="261.5,-56.5 261.5,-75.5 293.5,-75.5 293.5,-56.5 261.5,-56.5"/>
<text text-anchor="middle" x="277.5" y="-63.5" font-family="Helvetica,sans-Serif" font-size="10.00">set</text>
</a>
</g>
</g>
<!-- Node6&#45;&gt;Node12 -->
<g id="edge12" class="edge">
<title>Node6&#45;&gt;Node12</title>
<path fill="none" stroke="midnightblue" d="M223.78,-112.32C233.34,-104.26 247.78,-92.08 259.28,-82.37"/>
<polygon fill="midnightblue" stroke="midnightblue" points="261.64,-84.96 267.03,-75.83 257.13,-79.61 261.64,-84.96"/>
</g>
<!-- Node8 -->
<g id="node8" class="node">
<title>Node8</title>
<g id="a_node8"><a xlink:title=" ">
<polygon fill="none" stroke="#bfbfbf" points="103,-0.5 103,-19.5 156,-19.5 156,-0.5 103,-0.5"/>
<text text-anchor="middle" x="129.5" y="-7.5" font-family="Helvetica,sans-Serif" font-size="10.00">QString</text>
</a>
</g>
</g>
<!-- Node7&#45;&gt;Node8 -->
<g id="edge8" class="edge">
<title>Node7&#45;&gt;Node8</title>
<path fill="none" stroke="midnightblue" d="M139.52,-56.08C137.93,-48.93 135.64,-38.64 133.65,-29.69"/>
<polygon fill="midnightblue" stroke="midnightblue" points="137.03,-28.75 131.44,-19.75 130.2,-30.27 137.03,-28.75"/>
</g>
<!-- Node9 -->
<g id="node9" class="node">
<title>Node9</title>
<g id="a_node9"><a xlink:title=" ">
<polygon fill="none" stroke="#bfbfbf" points="174,-0.5 174,-19.5 219,-19.5 219,-0.5 174,-0.5"/>
<text text-anchor="middle" x="196.5" y="-7.5" font-family="Helvetica,sans-Serif" font-size="10.00">utility</text>
</a>
</g>
</g>
<!-- Node7&#45;&gt;Node9 -->
<g id="edge9" class="edge">
<title>Node7&#45;&gt;Node9</title>
<path fill="none" stroke="midnightblue" d="M150.58,-56.08C158.67,-48.14 170.7,-36.34 180.41,-26.8"/>
<polygon fill="midnightblue" stroke="midnightblue" points="182.9,-29.25 187.59,-19.75 178,-24.26 182.9,-29.25"/>
</g>
</g>
</svg>
