<?xml version="1.0" encoding="UTF-8" standalone="no"?>
<!DOCTYPE svg PUBLIC "-//W3C//DTD SVG 1.1//EN"
 "http://www.w3.org/Graphics/SVG/1.1/DTD/svg11.dtd">
<!-- Generated by graphviz version 2.50.0 (0)
 -->
<!-- Title: src/logic/engine/engine.cpp Pages: 1 -->
<svg width="363pt" height="308pt"
 viewBox="0.00 0.00 363.00 308.00" xmlns="http://www.w3.org/2000/svg" xmlns:xlink="http://www.w3.org/1999/xlink">
<g id="graph0" class="graph" transform="scale(1 1) rotate(0) translate(4 304)">
<title>src/logic/engine/engine.cpp</title>
<!-- Node1 -->
<g id="node1" class="node">
<title>Node1</title>
<g id="a_node1"><a xlink:title=" ">
<polygon fill="#bfbfbf" stroke="black" points="175.5,-280.5 175.5,-299.5 310.5,-299.5 310.5,-280.5 175.5,-280.5"/>
<text text-anchor="middle" x="243" y="-287.5" font-family="Helvetica,sans-Serif" font-size="10.00">src/logic/engine/engine.cpp</text>
</a>
</g>
</g>
<!-- Node2 -->
<g id="node2" class="node">
<title>Node2</title>
<g id="a_node2"><a xlink:href="engine_8h.html" target="_top" xlink:title=" ">
<polygon fill="none" stroke="black" points="180.5,-224.5 180.5,-243.5 233.5,-243.5 233.5,-224.5 180.5,-224.5"/>
<text text-anchor="middle" x="207" y="-231.5" font-family="Helvetica,sans-Serif" font-size="10.00">engine.h</text>
</a>
</g>
</g>
<!-- Node1&#45;&gt;Node2 -->
<g id="edge1" class="edge">
<title>Node1&#45;&gt;Node2</title>
<path fill="none" stroke="midnightblue" d="M237.06,-280.08C232.02,-272.53 224.66,-261.49 218.49,-252.23"/>
<polygon fill="midnightblue" stroke="midnightblue" points="221.29,-250.13 212.83,-243.75 215.47,-254.01 221.29,-250.13"/>
</g>
<!-- Node12 -->
<g id="node12" class="node">
<title>Node12</title>
<g id="a_node12"><a xlink:title=" ">
<polygon fill="none" stroke="#bfbfbf" points="252,-224.5 252,-243.5 306,-243.5 306,-224.5 252,-224.5"/>
<text text-anchor="middle" x="279" y="-231.5" font-family="Helvetica,sans-Serif" font-size="10.00">iostream</text>
</a>
</g>
</g>
<!-- Node1&#45;&gt;Node12 -->
<g id="edge14" class="edge">
<title>Node1&#45;&gt;Node12</title>
<path fill="none" stroke="midnightblue" d="M248.94,-280.08C253.98,-272.53 261.34,-261.49 267.51,-252.23"/>
<polygon fill="midnightblue" stroke="midnightblue" points="270.53,-254.01 273.17,-243.75 264.71,-250.13 270.53,-254.01"/>
</g>
<!-- Node3 -->
<g id="node3" class="node">
<title>Node3</title>
<g id="a_node3"><a xlink:href="constants_8h.html" target="_top" xlink:title=" ">
<polygon fill="none" stroke="black" points="0,-56.5 0,-75.5 86,-75.5 86,-56.5 0,-56.5"/>
<text text-anchor="middle" x="43" y="-63.5" font-family="Helvetica,sans-Serif" font-size="10.00">../../constants.h</text>
</a>
</g>
</g>
<!-- Node2&#45;&gt;Node3 -->
<g id="edge2" class="edge">
<title>Node2&#45;&gt;Node3</title>
<path fill="none" stroke="midnightblue" d="M198.18,-224.08C171.7,-197.27 92.59,-117.19 58.69,-82.89"/>
<polygon fill="midnightblue" stroke="midnightblue" points="60.98,-80.22 51.46,-75.57 56,-85.14 60.98,-80.22"/>
</g>
<!-- Node4 -->
<g id="node4" class="node">
<title>Node4</title>
<g id="a_node4"><a xlink:href="board_8h.html" target="_top" xlink:title=" ">
<polygon fill="none" stroke="black" points="237.5,-168.5 237.5,-187.5 322.5,-187.5 322.5,-168.5 237.5,-168.5"/>
<text text-anchor="middle" x="280" y="-175.5" font-family="Helvetica,sans-Serif" font-size="10.00">../board/board.h</text>
</a>
</g>
</g>
<!-- Node2&#45;&gt;Node4 -->
<g id="edge3" class="edge">
<title>Node2&#45;&gt;Node4</title>
<path fill="none" stroke="midnightblue" d="M218.73,-224.32C229.84,-216.11 246.74,-203.6 259.98,-193.81"/>
<polygon fill="midnightblue" stroke="midnightblue" points="262.1,-196.59 268.06,-187.83 257.94,-190.97 262.1,-196.59"/>
</g>
<!-- Node5 -->
<g id="node5" class="node">
<title>Node5</title>
<g id="a_node5"><a xlink:href="figures_8h.html" target="_top" xlink:title=" ">
<polygon fill="none" stroke="black" points="159.5,-112.5 159.5,-131.5 254.5,-131.5 254.5,-112.5 159.5,-112.5"/>
<text text-anchor="middle" x="207" y="-119.5" font-family="Helvetica,sans-Serif" font-size="10.00">../figures/figures.h</text>
</a>
</g>
</g>
<!-- Node2&#45;&gt;Node5 -->
<g id="edge13" class="edge">
<title>Node2&#45;&gt;Node5</title>
<path fill="none" stroke="midnightblue" d="M207,-224.37C207,-206.62 207,-165.67 207,-141.6"/>
<polygon fill="midnightblue" stroke="midnightblue" points="210.5,-141.59 207,-131.59 203.5,-141.59 210.5,-141.59"/>
</g>
<!-- Node4&#45;&gt;Node5 -->
<g id="edge4" class="edge">
<title>Node4&#45;&gt;Node5</title>
<path fill="none" stroke="midnightblue" d="M268.27,-168.32C257.16,-160.11 240.26,-147.6 227.02,-137.81"/>
<polygon fill="midnightblue" stroke="midnightblue" points="229.06,-134.97 218.94,-131.83 224.9,-140.59 229.06,-134.97"/>
</g>
<!-- Node9 -->
<g id="node9" class="node">
<title>Node9</title>
<g id="a_node9"><a xlink:title=" ">
<polygon fill="none" stroke="#bfbfbf" points="297.5,-56.5 297.5,-75.5 326.5,-75.5 326.5,-56.5 297.5,-56.5"/>
<text text-anchor="middle" x="312" y="-63.5" font-family="Helvetica,sans-Serif" font-size="10.00">list</text>
</a>
</g>
</g>
<!-- Node4&#45;&gt;Node9 -->
<g id="edge11" class="edge">
<title>Node4&#45;&gt;Node9</title>
<path fill="none" stroke="midnightblue" d="M282.51,-168.37C287.7,-150.54 299.7,-109.3 306.68,-85.27"/>
<polygon fill="midnightblue" stroke="midnightblue" points="310.07,-86.17 309.5,-75.59 303.35,-84.22 310.07,-86.17"/>
</g>
<!-- Node11 -->
<g id="node11" class="node">
<title>Node11</title>
<g id="a_node11"><a xlink:title=" ">
<polygon fill="none" stroke="#bfbfbf" points="311,-112.5 311,-131.5 355,-131.5 355,-112.5 311,-112.5"/>
<text text-anchor="middle" x="333" y="-119.5" font-family="Helvetica,sans-Serif" font-size="10.00">vector</text>
</a>
</g>
</g>
<!-- Node4&#45;&gt;Node11 -->
<g id="edge12" class="edge">
<title>Node4&#45;&gt;Node11</title>
<path fill="none" stroke="midnightblue" d="M288.75,-168.08C296.47,-160.22 307.9,-148.57 317.22,-139.08"/>
<polygon fill="midnightblue" stroke="midnightblue" points="319.9,-141.34 324.41,-131.75 314.91,-136.44 319.9,-141.34"/>
</g>
<!-- Node5&#45;&gt;Node3 -->
<g id="edge5" class="edge">
<title>Node5&#45;&gt;Node3</title>
<path fill="none" stroke="midnightblue" d="M181.01,-112.44C153.3,-103.32 109.25,-88.81 78.38,-78.65"/>
<polygon fill="midnightblue" stroke="midnightblue" points="79.46,-75.32 68.86,-75.52 77.27,-81.97 79.46,-75.32"/>
</g>
<!-- Node6 -->
<g id="node6" class="node">
<title>Node6</title>
<g id="a_node6"><a xlink:href="utils_8h.html" target="_top" xlink:title=" ">
<polygon fill="none" stroke="black" points="104.5,-56.5 104.5,-75.5 165.5,-75.5 165.5,-56.5 104.5,-56.5"/>
<text text-anchor="middle" x="135" y="-63.5" font-family="Helvetica,sans-Serif" font-size="10.00">../../utils.h</text>
</a>
</g>
</g>
<!-- Node5&#45;&gt;Node6 -->
<g id="edge6" class="edge">
<title>Node5&#45;&gt;Node6</title>
<path fill="none" stroke="midnightblue" d="M195.43,-112.32C184.58,-104.18 168.12,-91.84 155.12,-82.09"/>
<polygon fill="midnightblue" stroke="midnightblue" points="156.88,-79.03 146.78,-75.83 152.68,-84.63 156.88,-79.03"/>
</g>
<!-- Node8 -->
<g id="node8" class="node">
<title>Node8</title>
<g id="a_node8"><a xlink:title=" ">
<polygon fill="none" stroke="#bfbfbf" points="183.5,-56.5 183.5,-75.5 230.5,-75.5 230.5,-56.5 183.5,-56.5"/>
<text text-anchor="middle" x="207" y="-63.5" font-family="Helvetica,sans-Serif" font-size="10.00">math.h</text>
</a>
</g>
</g>
<!-- Node5&#45;&gt;Node8 -->
<g id="edge8" class="edge">
<title>Node5&#45;&gt;Node8</title>
<path fill="none" stroke="midnightblue" d="M207,-112.08C207,-105.01 207,-94.86 207,-85.99"/>
<polygon fill="midnightblue" stroke="midnightblue" points="210.5,-85.75 207,-75.75 203.5,-85.75 210.5,-85.75"/>
</g>
<!-- Node5&#45;&gt;Node9 -->
<g id="edge9" class="edge">
<title>Node5&#45;&gt;Node9</title>
<path fill="none" stroke="midnightblue" d="M223.87,-112.32C241.31,-103.36 268.67,-89.28 288.28,-79.2"/>
<polygon fill="midnightblue" stroke="midnightblue" points="289.92,-82.29 297.21,-74.61 286.71,-76.07 289.92,-82.29"/>
</g>
<!-- Node10 -->
<g id="node10" class="node">
<title>Node10</title>
<g id="a_node10"><a xlink:title=" ">
<polygon fill="none" stroke="#bfbfbf" points="249,-56.5 249,-75.5 279,-75.5 279,-56.5 249,-56.5"/>
<text text-anchor="middle" x="264" y="-63.5" font-family="Helvetica,sans-Serif" font-size="10.00">set</text>
</a>
</g>
</g>
<!-- Node5&#45;&gt;Node10 -->
<g id="edge10" class="edge">
<title>Node5&#45;&gt;Node10</title>
<path fill="none" stroke="midnightblue" d="M216.16,-112.32C224.5,-104.42 237.03,-92.55 247.18,-82.94"/>
<polygon fill="midnightblue" stroke="midnightblue" points="249.82,-85.25 254.68,-75.83 245.01,-80.17 249.82,-85.25"/>
</g>
<!-- Node7 -->
<g id="node7" class="node">
<title>Node7</title>
<g id="a_node7"><a xlink:title=" ">
<polygon fill="none" stroke="#bfbfbf" points="115,-0.5 115,-19.5 155,-19.5 155,-0.5 115,-0.5"/>
<text text-anchor="middle" x="135" y="-7.5" font-family="Helvetica,sans-Serif" font-size="10.00">utility</text>
</a>
</g>
</g>
<!-- Node6&#45;&gt;Node7 -->
<g id="edge7" class="edge">
<title>Node6&#45;&gt;Node7</title>
<path fill="none" stroke="midnightblue" d="M135,-56.08C135,-49.01 135,-38.86 135,-29.99"/>
<polygon fill="midnightblue" stroke="midnightblue" points="138.5,-29.75 135,-19.75 131.5,-29.75 138.5,-29.75"/>
</g>
</g>
</svg>
