<?xml version="1.0" encoding="UTF-8" standalone="no"?>
<!DOCTYPE svg PUBLIC "-//W3C//DTD SVG 1.1//EN"
 "http://www.w3.org/Graphics/SVG/1.1/DTD/svg11.dtd">
<!-- Generated by graphviz version 2.43.0 (0)
 -->
<!-- Title: src/logic/figures/figures.h Pages: 1 -->
<svg width="411pt" height="274pt"
 viewBox="0.00 0.00 411.00 274.00" xmlns="http://www.w3.org/2000/svg" xmlns:xlink="http://www.w3.org/1999/xlink">
<g id="graph0" class="graph" transform="scale(1 1) rotate(0) translate(4 270)">
<title>src/logic/figures/figures.h</title>
<!-- Node1 -->
<g id="node1" class="node">
<title>Node1</title>
<g id="a_node1"><a xlink:title=" ">
<polygon fill="#bfbfbf" stroke="black" points="157.5,-246.5 157.5,-265.5 295.5,-265.5 295.5,-246.5 157.5,-246.5"/>
<text text-anchor="middle" x="226.5" y="-253.5" font-family="Helvetica,sans-Serif" font-size="10.00">src/logic/figures/figures.h</text>
</a>
</g>
</g>
<!-- Node2 -->
<g id="node2" class="node">
<title>Node2</title>
<g id="a_node2"><a xlink:href="board_8h.html" target="_top" xlink:title=" ">
<polygon fill="none" stroke="black" points="70.5,-190.5 70.5,-209.5 198.5,-209.5 198.5,-190.5 70.5,-190.5"/>
<text text-anchor="middle" x="134.5" y="-197.5" font-family="Helvetica,sans-Serif" font-size="10.00">src/logic/board/board.h</text>
</a>
</g>
</g>
<!-- Node1&#45;&gt;Node2 -->
<g id="edge1" class="edge">
<title>Node1&#45;&gt;Node2</title>
<path fill="none" stroke="midnightblue" d="M202.95,-241.18C186.02,-231.24 163.72,-218.15 149.24,-209.65"/>
<polygon fill="midnightblue" stroke="midnightblue" points="201.32,-244.28 211.72,-246.32 204.87,-238.24 201.32,-244.28"/>
</g>
<!-- Node4 -->
<g id="node4" class="node">
<title>Node4</title>
<g id="a_node4"><a xlink:href="engine_8h.html" target="_top" xlink:title=" ">
<polygon fill="none" stroke="black" points="157.5,-134.5 157.5,-153.5 295.5,-153.5 295.5,-134.5 157.5,-134.5"/>
<text text-anchor="middle" x="226.5" y="-141.5" font-family="Helvetica,sans-Serif" font-size="10.00">src/logic/engine/engine.h</text>
</a>
</g>
</g>
<!-- Node1&#45;&gt;Node4 -->
<g id="edge8" class="edge">
<title>Node1&#45;&gt;Node4</title>
<path fill="none" stroke="midnightblue" d="M226.5,-236.35C226.5,-212.25 226.5,-171.31 226.5,-153.59"/>
<polygon fill="midnightblue" stroke="midnightblue" points="223,-236.37 226.5,-246.37 230,-236.37 223,-236.37"/>
</g>
<!-- Node9 -->
<g id="node9" class="node">
<title>Node9</title>
<g id="a_node9"><a xlink:href="figures_8cpp.html" target="_top" xlink:title=" ">
<polygon fill="none" stroke="black" points="254,-190.5 254,-209.5 403,-209.5 403,-190.5 254,-190.5"/>
<text text-anchor="middle" x="328.5" y="-197.5" font-family="Helvetica,sans-Serif" font-size="10.00">src/logic/figures/figures.cpp</text>
</a>
</g>
</g>
<!-- Node1&#45;&gt;Node9 -->
<g id="edge9" class="edge">
<title>Node1&#45;&gt;Node9</title>
<path fill="none" stroke="midnightblue" d="M251.83,-241.59C270.69,-231.61 295.88,-218.27 312.15,-209.65"/>
<polygon fill="midnightblue" stroke="midnightblue" points="250.09,-238.55 242.89,-246.32 253.36,-244.74 250.09,-238.55"/>
</g>
<!-- Node3 -->
<g id="node3" class="node">
<title>Node3</title>
<g id="a_node3"><a xlink:href="board_8cpp.html" target="_top" xlink:title=" ">
<polygon fill="none" stroke="black" points="0,-134.5 0,-153.5 139,-153.5 139,-134.5 0,-134.5"/>
<text text-anchor="middle" x="69.5" y="-141.5" font-family="Helvetica,sans-Serif" font-size="10.00">src/logic/board/board.cpp</text>
</a>
</g>
</g>
<!-- Node2&#45;&gt;Node3 -->
<g id="edge2" class="edge">
<title>Node2&#45;&gt;Node3</title>
<path fill="none" stroke="midnightblue" d="M116.23,-183.82C104.58,-174.15 89.9,-161.95 80.13,-153.83"/>
<polygon fill="midnightblue" stroke="midnightblue" points="114.13,-186.63 124.06,-190.32 118.6,-181.24 114.13,-186.63"/>
</g>
<!-- Node2&#45;&gt;Node4 -->
<g id="edge3" class="edge">
<title>Node2&#45;&gt;Node4</title>
<path fill="none" stroke="midnightblue" d="M158.05,-185.18C174.98,-175.24 197.28,-162.15 211.76,-153.65"/>
<polygon fill="midnightblue" stroke="midnightblue" points="156.13,-182.24 149.28,-190.32 159.68,-188.28 156.13,-182.24"/>
</g>
<!-- Node5 -->
<g id="node5" class="node">
<title>Node5</title>
<g id="a_node5"><a xlink:href="main__window_8h.html" target="_top" xlink:title=" ">
<polygon fill="none" stroke="black" points="91,-67.5 91,-97.5 210,-97.5 210,-67.5 91,-67.5"/>
<text text-anchor="start" x="99" y="-85.5" font-family="Helvetica,sans-Serif" font-size="10.00">src/gui/main_window</text>
<text text-anchor="middle" x="150.5" y="-74.5" font-family="Helvetica,sans-Serif" font-size="10.00">/main_window.h</text>
</a>
</g>
</g>
<!-- Node4&#45;&gt;Node5 -->
<g id="edge4" class="edge">
<title>Node4&#45;&gt;Node5</title>
<path fill="none" stroke="midnightblue" d="M207.59,-128.2C195.61,-118.81 180.2,-106.75 168.41,-97.52"/>
<polygon fill="midnightblue" stroke="midnightblue" points="205.58,-131.07 215.61,-134.48 209.89,-125.55 205.58,-131.07"/>
</g>
<!-- Node8 -->
<g id="node8" class="node">
<title>Node8</title>
<g id="a_node8"><a xlink:href="engine_8cpp.html" target="_top" xlink:title=" ">
<polygon fill="none" stroke="black" points="228,-73 228,-92 377,-92 377,-73 228,-73"/>
<text text-anchor="middle" x="302.5" y="-80" font-family="Helvetica,sans-Serif" font-size="10.00">src/logic/engine/engine.cpp</text>
</a>
</g>
</g>
<!-- Node4&#45;&gt;Node8 -->
<g id="edge7" class="edge">
<title>Node4&#45;&gt;Node8</title>
<path fill="none" stroke="midnightblue" d="M245.28,-128.29C259.86,-116.88 279.56,-101.46 291.63,-92.01"/>
<polygon fill="midnightblue" stroke="midnightblue" points="243.11,-125.55 237.39,-134.48 247.42,-131.07 243.11,-125.55"/>
</g>
<!-- Node6 -->
<g id="node6" class="node">
<title>Node6</title>
<g id="a_node6"><a xlink:href="main__window_8cpp.html" target="_top" xlink:title=" ">
<polygon fill="none" stroke="black" points="33,-0.5 33,-30.5 152,-30.5 152,-0.5 33,-0.5"/>
<text text-anchor="start" x="41" y="-18.5" font-family="Helvetica,sans-Serif" font-size="10.00">src/gui/main_window</text>
<text text-anchor="middle" x="92.5" y="-7.5" font-family="Helvetica,sans-Serif" font-size="10.00">/main_window.cpp</text>
</a>
</g>
</g>
<!-- Node5&#45;&gt;Node6 -->
<g id="edge5" class="edge">
<title>Node5&#45;&gt;Node6</title>
<path fill="none" stroke="midnightblue" d="M131.08,-59.74C122.5,-50.12 112.66,-39.09 105.06,-30.58"/>
<polygon fill="midnightblue" stroke="midnightblue" points="128.65,-62.26 137.91,-67.4 133.87,-57.6 128.65,-62.26"/>
</g>
<!-- Node7 -->
<g id="node7" class="node">
<title>Node7</title>
<g id="a_node7"><a xlink:href="main_8cpp.html" target="_top" xlink:title=" ">
<polygon fill="none" stroke="black" points="170,-6 170,-25 249,-25 249,-6 170,-6"/>
<text text-anchor="middle" x="209.5" y="-13" font-family="Helvetica,sans-Serif" font-size="10.00">src/main.cpp</text>
</a>
</g>
</g>
<!-- Node5&#45;&gt;Node7 -->
<g id="edge6" class="edge">
<title>Node5&#45;&gt;Node7</title>
<path fill="none" stroke="midnightblue" d="M170.33,-59.66C181.03,-47.86 193.65,-33.97 201.61,-25.19"/>
<polygon fill="midnightblue" stroke="midnightblue" points="167.43,-57.64 163.3,-67.4 172.61,-62.34 167.43,-57.64"/>
</g>
</g>
</svg>
