<?xml version="1.0" encoding="UTF-8" standalone="no"?>
<!DOCTYPE svg PUBLIC "-//W3C//DTD SVG 1.1//EN"
 "http://www.w3.org/Graphics/SVG/1.1/DTD/svg11.dtd">
<!-- Generated by graphviz version 2.43.0 (0)
 -->
<!-- Title: src/gui/gui_point/gui_point.cpp Pages: 1 -->
<svg width="430pt" height="207pt"
 viewBox="0.00 0.00 429.50 207.00" xmlns="http://www.w3.org/2000/svg" xmlns:xlink="http://www.w3.org/1999/xlink">
<g id="graph0" class="graph" transform="scale(1 1) rotate(0) translate(4 203)">
<title>src/gui/gui_point/gui_point.cpp</title>
<!-- Node1 -->
<g id="node1" class="node">
<title>Node1</title>
<g id="a_node1"><a xlink:title=" ">
<polygon fill="#bfbfbf" stroke="black" points="174.5,-168.5 174.5,-198.5 289.5,-198.5 289.5,-168.5 174.5,-168.5"/>
<text text-anchor="start" x="182.5" y="-186.5" font-family="Helvetica,sans-Serif" font-size="10.00">src/gui/gui_point/gui</text>
<text text-anchor="middle" x="232" y="-175.5" font-family="Helvetica,sans-Serif" font-size="10.00">_point.cpp</text>
</a>
</g>
</g>
<!-- Node2 -->
<g id="node2" class="node">
<title>Node2</title>
<g id="a_node2"><a xlink:href="gui__point_8h.html" target="_top" xlink:title=" ">
<polygon fill="none" stroke="black" points="196.5,-112.5 196.5,-131.5 267.5,-131.5 267.5,-112.5 196.5,-112.5"/>
<text text-anchor="middle" x="232" y="-119.5" font-family="Helvetica,sans-Serif" font-size="10.00">gui_point.h</text>
</a>
</g>
</g>
<!-- Node1&#45;&gt;Node2 -->
<g id="edge1" class="edge">
<title>Node1&#45;&gt;Node2</title>
<path fill="none" stroke="midnightblue" d="M232,-168.4C232,-160.47 232,-150.46 232,-141.86"/>
<polygon fill="midnightblue" stroke="midnightblue" points="235.5,-141.66 232,-131.66 228.5,-141.66 235.5,-141.66"/>
</g>
<!-- Node3 -->
<g id="node3" class="node">
<title>Node3</title>
<g id="a_node3"><a xlink:title=" ">
<polygon fill="none" stroke="#bfbfbf" points="0,-56.5 0,-75.5 98,-75.5 98,-56.5 0,-56.5"/>
<text text-anchor="middle" x="49" y="-63.5" font-family="Helvetica,sans-Serif" font-size="10.00">QGraphicsObject</text>
</a>
</g>
</g>
<!-- Node2&#45;&gt;Node3 -->
<g id="edge2" class="edge">
<title>Node2&#45;&gt;Node3</title>
<path fill="none" stroke="midnightblue" d="M203,-112.44C171.82,-103.24 122.07,-88.56 87.59,-78.39"/>
<polygon fill="midnightblue" stroke="midnightblue" points="88.44,-74.99 77.86,-75.52 86.46,-81.7 88.44,-74.99"/>
</g>
<!-- Node4 -->
<g id="node4" class="node">
<title>Node4</title>
<g id="a_node4"><a xlink:title=" ">
<polygon fill="none" stroke="#bfbfbf" points="116,-56.5 116,-75.5 240,-75.5 240,-56.5 116,-56.5"/>
<text text-anchor="middle" x="178" y="-63.5" font-family="Helvetica,sans-Serif" font-size="10.00">QGraphicsSceneEvent</text>
</a>
</g>
</g>
<!-- Node2&#45;&gt;Node4 -->
<g id="edge3" class="edge">
<title>Node2&#45;&gt;Node4</title>
<path fill="none" stroke="midnightblue" d="M223.08,-112.08C215.22,-104.22 203.57,-92.57 194.08,-83.08"/>
<polygon fill="midnightblue" stroke="midnightblue" points="196.3,-80.35 186.75,-75.75 191.35,-85.3 196.3,-80.35"/>
</g>
<!-- Node5 -->
<g id="node5" class="node">
<title>Node5</title>
<g id="a_node5"><a xlink:title=" ">
<polygon fill="none" stroke="#bfbfbf" points="258,-56.5 258,-75.5 316,-75.5 316,-56.5 258,-56.5"/>
<text text-anchor="middle" x="287" y="-63.5" font-family="Helvetica,sans-Serif" font-size="10.00">QPainter</text>
</a>
</g>
</g>
<!-- Node2&#45;&gt;Node5 -->
<g id="edge4" class="edge">
<title>Node2&#45;&gt;Node5</title>
<path fill="none" stroke="midnightblue" d="M241.08,-112.08C249.17,-104.14 261.2,-92.34 270.91,-82.8"/>
<polygon fill="midnightblue" stroke="midnightblue" points="273.4,-85.25 278.09,-75.75 268.5,-80.26 273.4,-85.25"/>
</g>
<!-- Node6 -->
<g id="node6" class="node">
<title>Node6</title>
<g id="a_node6"><a xlink:href="utils_8h.html" target="_top" xlink:title=" ">
<polygon fill="none" stroke="black" points="334,-56.5 334,-75.5 398,-75.5 398,-56.5 334,-56.5"/>
<text text-anchor="middle" x="366" y="-63.5" font-family="Helvetica,sans-Serif" font-size="10.00">src/utils.h</text>
</a>
</g>
</g>
<!-- Node2&#45;&gt;Node6 -->
<g id="edge5" class="edge">
<title>Node2&#45;&gt;Node6</title>
<path fill="none" stroke="midnightblue" d="M253.23,-112.44C275.38,-103.52 310.32,-89.44 335.44,-79.32"/>
<polygon fill="midnightblue" stroke="midnightblue" points="336.9,-82.5 344.87,-75.52 334.28,-76.01 336.9,-82.5"/>
</g>
<!-- Node7 -->
<g id="node7" class="node">
<title>Node7</title>
<g id="a_node7"><a xlink:title=" ">
<polygon fill="none" stroke="#bfbfbf" points="305.5,-0.5 305.5,-19.5 358.5,-19.5 358.5,-0.5 305.5,-0.5"/>
<text text-anchor="middle" x="332" y="-7.5" font-family="Helvetica,sans-Serif" font-size="10.00">QString</text>
</a>
</g>
</g>
<!-- Node6&#45;&gt;Node7 -->
<g id="edge6" class="edge">
<title>Node6&#45;&gt;Node7</title>
<path fill="none" stroke="midnightblue" d="M360.39,-56.08C355.63,-48.53 348.68,-37.49 342.85,-28.23"/>
<polygon fill="midnightblue" stroke="midnightblue" points="345.8,-26.35 337.51,-19.75 339.88,-30.08 345.8,-26.35"/>
</g>
<!-- Node8 -->
<g id="node8" class="node">
<title>Node8</title>
<g id="a_node8"><a xlink:title=" ">
<polygon fill="none" stroke="#bfbfbf" points="376.5,-0.5 376.5,-19.5 421.5,-19.5 421.5,-0.5 376.5,-0.5"/>
<text text-anchor="middle" x="399" y="-7.5" font-family="Helvetica,sans-Serif" font-size="10.00">utility</text>
</a>
</g>
</g>
<!-- Node6&#45;&gt;Node8 -->
<g id="edge7" class="edge">
<title>Node6&#45;&gt;Node8</title>
<path fill="none" stroke="midnightblue" d="M371.45,-56.08C376.01,-48.61 382.67,-37.72 388.29,-28.52"/>
<polygon fill="midnightblue" stroke="midnightblue" points="391.42,-30.11 393.65,-19.75 385.45,-26.46 391.42,-30.11"/>
</g>
</g>
</svg>
