<?xml version="1.0" encoding="UTF-8" standalone="no"?>
<!DOCTYPE svg PUBLIC "-//W3C//DTD SVG 1.1//EN"
 "http://www.w3.org/Graphics/SVG/1.1/DTD/svg11.dtd">
<!-- Generated by graphviz version 2.43.0 (0)
 -->
<!-- Title: src/gui/gui_win/gui_win.cpp Pages: 1 -->
<svg width="482pt" height="207pt"
 viewBox="0.00 0.00 482.00 207.00" xmlns="http://www.w3.org/2000/svg" xmlns:xlink="http://www.w3.org/1999/xlink">
<g id="graph0" class="graph" transform="scale(1 1) rotate(0) translate(4 203)">
<title>src/gui/gui_win/gui_win.cpp</title>
<!-- Node1 -->
<g id="node1" class="node">
<title>Node1</title>
<g id="a_node1"><a xlink:title=" ">
<polygon fill="#bfbfbf" stroke="black" points="224.5,-168.5 224.5,-198.5 331.5,-198.5 331.5,-168.5 224.5,-168.5"/>
<text text-anchor="start" x="232.5" y="-186.5" font-family="Helvetica,sans-Serif" font-size="10.00">src/gui/gui_win/gui</text>
<text text-anchor="middle" x="278" y="-175.5" font-family="Helvetica,sans-Serif" font-size="10.00">_win.cpp</text>
</a>
</g>
</g>
<!-- Node2 -->
<g id="node2" class="node">
<title>Node2</title>
<g id="a_node2"><a xlink:href="gui__win_8h.html" target="_top" xlink:title=" ">
<polygon fill="none" stroke="black" points="246.5,-112.5 246.5,-131.5 309.5,-131.5 309.5,-112.5 246.5,-112.5"/>
<text text-anchor="middle" x="278" y="-119.5" font-family="Helvetica,sans-Serif" font-size="10.00">gui_win.h</text>
</a>
</g>
</g>
<!-- Node1&#45;&gt;Node2 -->
<g id="edge1" class="edge">
<title>Node1&#45;&gt;Node2</title>
<path fill="none" stroke="midnightblue" d="M278,-168.4C278,-160.47 278,-150.46 278,-141.86"/>
<polygon fill="midnightblue" stroke="midnightblue" points="281.5,-141.66 278,-131.66 274.5,-141.66 281.5,-141.66"/>
</g>
<!-- Node3 -->
<g id="node3" class="node">
<title>Node3</title>
<g id="a_node3"><a xlink:title=" ">
<polygon fill="none" stroke="#bfbfbf" points="0,-56.5 0,-75.5 124,-75.5 124,-56.5 0,-56.5"/>
<text text-anchor="middle" x="62" y="-63.5" font-family="Helvetica,sans-Serif" font-size="10.00">QGraphicsSceneEvent</text>
</a>
</g>
</g>
<!-- Node2&#45;&gt;Node3 -->
<g id="edge2" class="edge">
<title>Node2&#45;&gt;Node3</title>
<path fill="none" stroke="midnightblue" d="M246.13,-113.03C209.05,-103.76 147.62,-88.4 106.01,-78"/>
<polygon fill="midnightblue" stroke="midnightblue" points="106.69,-74.57 96.14,-75.54 105,-81.36 106.69,-74.57"/>
</g>
<!-- Node4 -->
<g id="node4" class="node">
<title>Node4</title>
<g id="a_node4"><a xlink:title=" ">
<polygon fill="none" stroke="#bfbfbf" points="142.5,-56.5 142.5,-75.5 249.5,-75.5 249.5,-56.5 142.5,-56.5"/>
<text text-anchor="middle" x="196" y="-63.5" font-family="Helvetica,sans-Serif" font-size="10.00">QGraphicsSvgItem</text>
</a>
</g>
</g>
<!-- Node2&#45;&gt;Node4 -->
<g id="edge3" class="edge">
<title>Node2&#45;&gt;Node4</title>
<path fill="none" stroke="midnightblue" d="M264.83,-112.32C252.15,-103.98 232.77,-91.21 217.79,-81.35"/>
<polygon fill="midnightblue" stroke="midnightblue" points="219.42,-78.23 209.14,-75.65 215.57,-84.08 219.42,-78.23"/>
</g>
<!-- Node5 -->
<g id="node5" class="node">
<title>Node5</title>
<g id="a_node5"><a xlink:title=" ">
<polygon fill="none" stroke="#bfbfbf" points="300.5,-0.5 300.5,-19.5 353.5,-19.5 353.5,-0.5 300.5,-0.5"/>
<text text-anchor="middle" x="327" y="-7.5" font-family="Helvetica,sans-Serif" font-size="10.00">QString</text>
</a>
</g>
</g>
<!-- Node2&#45;&gt;Node5 -->
<g id="edge4" class="edge">
<title>Node2&#45;&gt;Node5</title>
<path fill="none" stroke="midnightblue" d="M279.67,-112.29C282.3,-99.52 288.06,-75.18 297,-56 301.55,-46.23 308.06,-36.17 313.84,-28.05"/>
<polygon fill="midnightblue" stroke="midnightblue" points="316.8,-29.94 319.93,-19.82 311.17,-25.78 316.8,-29.94"/>
</g>
<!-- Node6 -->
<g id="node6" class="node">
<title>Node6</title>
<g id="a_node6"><a xlink:title=" ">
<polygon fill="none" stroke="#bfbfbf" points="306,-56.5 306,-75.5 392,-75.5 392,-56.5 306,-56.5"/>
<text text-anchor="middle" x="349" y="-63.5" font-family="Helvetica,sans-Serif" font-size="10.00">QSvgRenderer</text>
</a>
</g>
</g>
<!-- Node2&#45;&gt;Node6 -->
<g id="edge5" class="edge">
<title>Node2&#45;&gt;Node6</title>
<path fill="none" stroke="midnightblue" d="M289.41,-112.32C300.11,-104.18 316.34,-91.84 329.16,-82.09"/>
<polygon fill="midnightblue" stroke="midnightblue" points="331.54,-84.67 337.39,-75.83 327.31,-79.1 331.54,-84.67"/>
</g>
<!-- Node7 -->
<g id="node7" class="node">
<title>Node7</title>
<g id="a_node7"><a xlink:href="utils_8h.html" target="_top" xlink:title=" ">
<polygon fill="none" stroke="black" points="410,-56.5 410,-75.5 474,-75.5 474,-56.5 410,-56.5"/>
<text text-anchor="middle" x="442" y="-63.5" font-family="Helvetica,sans-Serif" font-size="10.00">src/utils.h</text>
</a>
</g>
</g>
<!-- Node2&#45;&gt;Node7 -->
<g id="edge6" class="edge">
<title>Node2&#45;&gt;Node7</title>
<path fill="none" stroke="midnightblue" d="M303.99,-112.44C331.7,-103.32 375.75,-88.81 406.62,-78.65"/>
<polygon fill="midnightblue" stroke="midnightblue" points="407.73,-81.97 416.14,-75.52 405.54,-75.32 407.73,-81.97"/>
</g>
<!-- Node7&#45;&gt;Node5 -->
<g id="edge7" class="edge">
<title>Node7&#45;&gt;Node5</title>
<path fill="none" stroke="midnightblue" d="M423.78,-56.44C405.1,-47.68 375.84,-33.94 354.38,-23.86"/>
<polygon fill="midnightblue" stroke="midnightblue" points="355.68,-20.6 345.14,-19.52 352.7,-26.93 355.68,-20.6"/>
</g>
<!-- Node8 -->
<g id="node8" class="node">
<title>Node8</title>
<g id="a_node8"><a xlink:title=" ">
<polygon fill="none" stroke="#bfbfbf" points="419.5,-0.5 419.5,-19.5 464.5,-19.5 464.5,-0.5 419.5,-0.5"/>
<text text-anchor="middle" x="442" y="-7.5" font-family="Helvetica,sans-Serif" font-size="10.00">utility</text>
</a>
</g>
</g>
<!-- Node7&#45;&gt;Node8 -->
<g id="edge8" class="edge">
<title>Node7&#45;&gt;Node8</title>
<path fill="none" stroke="midnightblue" d="M442,-56.08C442,-49.01 442,-38.86 442,-29.99"/>
<polygon fill="midnightblue" stroke="midnightblue" points="445.5,-29.75 442,-19.75 438.5,-29.75 445.5,-29.75"/>
</g>
</g>
</svg>
