<?xml version="1.0" encoding="UTF-8" standalone="no"?>
<!DOCTYPE svg PUBLIC "-//W3C//DTD SVG 1.1//EN"
 "http://www.w3.org/Graphics/SVG/1.1/DTD/svg11.dtd">
<!-- Generated by graphviz version 2.43.0 (0)
 -->
<!-- Title: src/gui/screen_game/gui_advantage_bar.cpp Pages: 1 -->
<svg width="233pt" height="151pt"
 viewBox="0.00 0.00 232.50 151.00" xmlns="http://www.w3.org/2000/svg" xmlns:xlink="http://www.w3.org/1999/xlink">
<g id="graph0" class="graph" transform="scale(1 1) rotate(0) translate(4 147)">
<title>src/gui/screen_game/gui_advantage_bar.cpp</title>
<!-- Node1 -->
<g id="node1" class="node">
<title>Node1</title>
<g id="a_node1"><a xlink:title=" ">
<polygon fill="#bfbfbf" stroke="black" points="69.5,-112.5 69.5,-142.5 201.5,-142.5 201.5,-112.5 69.5,-112.5"/>
<text text-anchor="start" x="77.5" y="-130.5" font-family="Helvetica,sans-Serif" font-size="10.00">src/gui/screen_game</text>
<text text-anchor="middle" x="135.5" y="-119.5" font-family="Helvetica,sans-Serif" font-size="10.00">/gui_advantage_bar.cpp</text>
</a>
</g>
</g>
<!-- Node2 -->
<g id="node2" class="node">
<title>Node2</title>
<g id="a_node2"><a xlink:href="gui__advantage__bar_8h.html" target="_top" xlink:title=" ">
<polygon fill="none" stroke="black" points="76.5,-56.5 76.5,-75.5 194.5,-75.5 194.5,-56.5 76.5,-56.5"/>
<text text-anchor="middle" x="135.5" y="-63.5" font-family="Helvetica,sans-Serif" font-size="10.00">gui_advantage_bar.h</text>
</a>
</g>
</g>
<!-- Node1&#45;&gt;Node2 -->
<g id="edge1" class="edge">
<title>Node1&#45;&gt;Node2</title>
<path fill="none" stroke="midnightblue" d="M135.5,-112.4C135.5,-104.47 135.5,-94.46 135.5,-85.86"/>
<polygon fill="midnightblue" stroke="midnightblue" points="139,-85.66 135.5,-75.66 132,-85.66 139,-85.66"/>
</g>
<!-- Node3 -->
<g id="node3" class="node">
<title>Node3</title>
<g id="a_node3"><a xlink:title=" ">
<polygon fill="none" stroke="#bfbfbf" points="0,-0.5 0,-19.5 89,-19.5 89,-0.5 0,-0.5"/>
<text text-anchor="middle" x="44.5" y="-7.5" font-family="Helvetica,sans-Serif" font-size="10.00">QGraphicsItem</text>
</a>
</g>
</g>
<!-- Node2&#45;&gt;Node3 -->
<g id="edge2" class="edge">
<title>Node2&#45;&gt;Node3</title>
<path fill="none" stroke="midnightblue" d="M120.88,-56.32C106.55,-47.82 84.49,-34.73 67.75,-24.8"/>
<polygon fill="midnightblue" stroke="midnightblue" points="69.47,-21.75 59.08,-19.65 65.9,-27.77 69.47,-21.75"/>
</g>
<!-- Node4 -->
<g id="node4" class="node">
<title>Node4</title>
<g id="a_node4"><a xlink:title=" ">
<polygon fill="none" stroke="#bfbfbf" points="106.5,-0.5 106.5,-19.5 164.5,-19.5 164.5,-0.5 106.5,-0.5"/>
<text text-anchor="middle" x="135.5" y="-7.5" font-family="Helvetica,sans-Serif" font-size="10.00">QPainter</text>
</a>
</g>
</g>
<!-- Node2&#45;&gt;Node4 -->
<g id="edge3" class="edge">
<title>Node2&#45;&gt;Node4</title>
<path fill="none" stroke="midnightblue" d="M135.5,-56.08C135.5,-49.01 135.5,-38.86 135.5,-29.99"/>
<polygon fill="midnightblue" stroke="midnightblue" points="139,-29.75 135.5,-19.75 132,-29.75 139,-29.75"/>
</g>
<!-- Node5 -->
<g id="node5" class="node">
<title>Node5</title>
<g id="a_node5"><a xlink:title=" ">
<polygon fill="none" stroke="#bfbfbf" points="182.5,-0.5 182.5,-19.5 224.5,-19.5 224.5,-0.5 182.5,-0.5"/>
<text text-anchor="middle" x="203.5" y="-7.5" font-family="Helvetica,sans-Serif" font-size="10.00">QPen</text>
</a>
</g>
</g>
<!-- Node2&#45;&gt;Node5 -->
<g id="edge4" class="edge">
<title>Node2&#45;&gt;Node5</title>
<path fill="none" stroke="midnightblue" d="M146.43,-56.32C156.67,-48.18 172.22,-35.84 184.5,-26.09"/>
<polygon fill="midnightblue" stroke="midnightblue" points="186.72,-28.79 192.38,-19.83 182.37,-23.31 186.72,-28.79"/>
</g>
</g>
</svg>
