<?xml version="1.0" encoding="UTF-8" standalone="no"?>
<!DOCTYPE svg PUBLIC "-//W3C//DTD SVG 1.1//EN"
 "http://www.w3.org/Graphics/SVG/1.1/DTD/svg11.dtd">
<!-- Generated by graphviz version 2.43.0 (0)
 -->
<!-- Title: src/gui/gui_scene/gui_scene.h Pages: 1 -->
<svg width="379pt" height="151pt"
 viewBox="0.00 0.00 378.50 151.00" xmlns="http://www.w3.org/2000/svg" xmlns:xlink="http://www.w3.org/1999/xlink">
<g id="graph0" class="graph" transform="scale(1 1) rotate(0) translate(4 147)">
<title>src/gui/gui_scene/gui_scene.h</title>
<!-- Node1 -->
<g id="node1" class="node">
<title>Node1</title>
<g id="a_node1"><a xlink:title=" ">
<polygon fill="#bfbfbf" stroke="black" points="138.5,-112.5 138.5,-142.5 257.5,-142.5 257.5,-112.5 138.5,-112.5"/>
<text text-anchor="start" x="146.5" y="-130.5" font-family="Helvetica,sans-Serif" font-size="10.00">src/gui/gui_scene/gui</text>
<text text-anchor="middle" x="198" y="-119.5" font-family="Helvetica,sans-Serif" font-size="10.00">_scene.h</text>
</a>
</g>
</g>
<!-- Node2 -->
<g id="node2" class="node">
<title>Node2</title>
<g id="a_node2"><a xlink:title=" ">
<polygon fill="none" stroke="#bfbfbf" points="0,-56.5 0,-75.5 96,-75.5 96,-56.5 0,-56.5"/>
<text text-anchor="middle" x="48" y="-63.5" font-family="Helvetica,sans-Serif" font-size="10.00">QGraphicsScene</text>
</a>
</g>
</g>
<!-- Node1&#45;&gt;Node2 -->
<g id="edge1" class="edge">
<title>Node1&#45;&gt;Node2</title>
<path fill="none" stroke="midnightblue" d="M162.45,-112.4C137.17,-102.37 103.53,-89.03 79.27,-79.4"/>
<polygon fill="midnightblue" stroke="midnightblue" points="80.41,-76.09 69.83,-75.66 77.83,-82.6 80.41,-76.09"/>
</g>
<!-- Node3 -->
<g id="node3" class="node">
<title>Node3</title>
<g id="a_node3"><a xlink:title=" ">
<polygon fill="none" stroke="#bfbfbf" points="114,-56.5 114,-75.5 198,-75.5 198,-56.5 114,-56.5"/>
<text text-anchor="middle" x="156" y="-63.5" font-family="Helvetica,sans-Serif" font-size="10.00">QMouseEvent</text>
</a>
</g>
</g>
<!-- Node1&#45;&gt;Node3 -->
<g id="edge2" class="edge">
<title>Node1&#45;&gt;Node3</title>
<path fill="none" stroke="midnightblue" d="M188.05,-112.4C182.01,-103.84 174.26,-92.87 167.9,-83.86"/>
<polygon fill="midnightblue" stroke="midnightblue" points="170.74,-81.81 162.11,-75.66 165.02,-85.85 170.74,-81.81"/>
</g>
<!-- Node4 -->
<g id="node4" class="node">
<title>Node4</title>
<g id="a_node4"><a xlink:title=" ">
<polygon fill="none" stroke="#bfbfbf" points="215.5,-56.5 215.5,-75.5 264.5,-75.5 264.5,-56.5 215.5,-56.5"/>
<text text-anchor="middle" x="240" y="-63.5" font-family="Helvetica,sans-Serif" font-size="10.00">QPoint</text>
</a>
</g>
</g>
<!-- Node1&#45;&gt;Node4 -->
<g id="edge3" class="edge">
<title>Node1&#45;&gt;Node4</title>
<path fill="none" stroke="midnightblue" d="M207.95,-112.4C213.99,-103.84 221.74,-92.87 228.1,-83.86"/>
<polygon fill="midnightblue" stroke="midnightblue" points="230.98,-85.85 233.89,-75.66 225.26,-81.81 230.98,-85.85"/>
</g>
<!-- Node5 -->
<g id="node5" class="node">
<title>Node5</title>
<g id="a_node5"><a xlink:href="utils_8h.html" target="_top" xlink:title=" ">
<polygon fill="none" stroke="black" points="283,-56.5 283,-75.5 347,-75.5 347,-56.5 283,-56.5"/>
<text text-anchor="middle" x="315" y="-63.5" font-family="Helvetica,sans-Serif" font-size="10.00">src/utils.h</text>
</a>
</g>
</g>
<!-- Node1&#45;&gt;Node5 -->
<g id="edge4" class="edge">
<title>Node1&#45;&gt;Node5</title>
<path fill="none" stroke="midnightblue" d="M225.73,-112.4C244.83,-102.68 270.06,-89.86 288.82,-80.31"/>
<polygon fill="midnightblue" stroke="midnightblue" points="290.65,-83.31 297.98,-75.66 287.48,-77.07 290.65,-83.31"/>
</g>
<!-- Node6 -->
<g id="node6" class="node">
<title>Node6</title>
<g id="a_node6"><a xlink:title=" ">
<polygon fill="none" stroke="#bfbfbf" points="254.5,-0.5 254.5,-19.5 307.5,-19.5 307.5,-0.5 254.5,-0.5"/>
<text text-anchor="middle" x="281" y="-7.5" font-family="Helvetica,sans-Serif" font-size="10.00">QString</text>
</a>
</g>
</g>
<!-- Node5&#45;&gt;Node6 -->
<g id="edge5" class="edge">
<title>Node5&#45;&gt;Node6</title>
<path fill="none" stroke="midnightblue" d="M309.39,-56.08C304.63,-48.53 297.68,-37.49 291.85,-28.23"/>
<polygon fill="midnightblue" stroke="midnightblue" points="294.8,-26.35 286.51,-19.75 288.88,-30.08 294.8,-26.35"/>
</g>
<!-- Node7 -->
<g id="node7" class="node">
<title>Node7</title>
<g id="a_node7"><a xlink:title=" ">
<polygon fill="none" stroke="#bfbfbf" points="325.5,-0.5 325.5,-19.5 370.5,-19.5 370.5,-0.5 325.5,-0.5"/>
<text text-anchor="middle" x="348" y="-7.5" font-family="Helvetica,sans-Serif" font-size="10.00">utility</text>
</a>
</g>
</g>
<!-- Node5&#45;&gt;Node7 -->
<g id="edge6" class="edge">
<title>Node5&#45;&gt;Node7</title>
<path fill="none" stroke="midnightblue" d="M320.45,-56.08C325.01,-48.61 331.67,-37.72 337.29,-28.52"/>
<polygon fill="midnightblue" stroke="midnightblue" points="340.42,-30.11 342.65,-19.75 334.45,-26.46 340.42,-30.11"/>
</g>
</g>
</svg>
