<?xml version="1.0" encoding="UTF-8" standalone="no"?>
<!DOCTYPE svg PUBLIC "-//W3C//DTD SVG 1.1//EN"
 "http://www.w3.org/Graphics/SVG/1.1/DTD/svg11.dtd">
<!-- Generated by graphviz version 2.43.0 (0)
 -->
<!-- Title: src/gui/gui_scene/gui_scene.cpp Pages: 1 -->
<svg width="391pt" height="207pt"
 viewBox="0.00 0.00 390.50 207.00" xmlns="http://www.w3.org/2000/svg" xmlns:xlink="http://www.w3.org/1999/xlink">
<g id="graph0" class="graph" transform="scale(1 1) rotate(0) translate(4 203)">
<title>src/gui/gui_scene/gui_scene.cpp</title>
<!-- Node1 -->
<g id="node1" class="node">
<title>Node1</title>
<g id="a_node1"><a xlink:title=" ">
<polygon fill="#bfbfbf" stroke="black" points="198.5,-168.5 198.5,-198.5 317.5,-198.5 317.5,-168.5 198.5,-168.5"/>
<text text-anchor="start" x="206.5" y="-186.5" font-family="Helvetica,sans-Serif" font-size="10.00">src/gui/gui_scene/gui</text>
<text text-anchor="middle" x="258" y="-175.5" font-family="Helvetica,sans-Serif" font-size="10.00">_scene.cpp</text>
</a>
</g>
</g>
<!-- Node2 -->
<g id="node2" class="node">
<title>Node2</title>
<g id="a_node2"><a xlink:href="gui__scene_8h.html" target="_top" xlink:title=" ">
<polygon fill="none" stroke="black" points="161,-112.5 161,-131.5 235,-131.5 235,-112.5 161,-112.5"/>
<text text-anchor="middle" x="198" y="-119.5" font-family="Helvetica,sans-Serif" font-size="10.00">gui_scene.h</text>
</a>
</g>
</g>
<!-- Node1&#45;&gt;Node2 -->
<g id="edge1" class="edge">
<title>Node1&#45;&gt;Node2</title>
<path fill="none" stroke="midnightblue" d="M243.78,-168.4C234.79,-159.49 223.16,-147.95 213.87,-138.74"/>
<polygon fill="midnightblue" stroke="midnightblue" points="216.3,-136.21 206.73,-131.66 211.37,-141.18 216.3,-136.21"/>
</g>
<!-- Node9 -->
<g id="node9" class="node">
<title>Node9</title>
<g id="a_node9"><a xlink:title=" ">
<polygon fill="none" stroke="#bfbfbf" points="253.5,-112.5 253.5,-131.5 382.5,-131.5 382.5,-112.5 253.5,-112.5"/>
<text text-anchor="middle" x="318" y="-119.5" font-family="Helvetica,sans-Serif" font-size="10.00">qgraphicssceneevent.h</text>
</a>
</g>
</g>
<!-- Node1&#45;&gt;Node9 -->
<g id="edge8" class="edge">
<title>Node1&#45;&gt;Node9</title>
<path fill="none" stroke="midnightblue" d="M272.22,-168.4C281.21,-159.49 292.84,-147.95 302.13,-138.74"/>
<polygon fill="midnightblue" stroke="midnightblue" points="304.63,-141.18 309.27,-131.66 299.7,-136.21 304.63,-141.18"/>
</g>
<!-- Node3 -->
<g id="node3" class="node">
<title>Node3</title>
<g id="a_node3"><a xlink:title=" ">
<polygon fill="none" stroke="#bfbfbf" points="0,-56.5 0,-75.5 96,-75.5 96,-56.5 0,-56.5"/>
<text text-anchor="middle" x="48" y="-63.5" font-family="Helvetica,sans-Serif" font-size="10.00">QGraphicsScene</text>
</a>
</g>
</g>
<!-- Node2&#45;&gt;Node3 -->
<g id="edge2" class="edge">
<title>Node2&#45;&gt;Node3</title>
<path fill="none" stroke="midnightblue" d="M174.23,-112.44C149.11,-103.4 109.29,-89.06 81.1,-78.92"/>
<polygon fill="midnightblue" stroke="midnightblue" points="82.25,-75.61 71.66,-75.52 79.88,-82.2 82.25,-75.61"/>
</g>
<!-- Node4 -->
<g id="node4" class="node">
<title>Node4</title>
<g id="a_node4"><a xlink:title=" ">
<polygon fill="none" stroke="#bfbfbf" points="114,-56.5 114,-75.5 198,-75.5 198,-56.5 114,-56.5"/>
<text text-anchor="middle" x="156" y="-63.5" font-family="Helvetica,sans-Serif" font-size="10.00">QMouseEvent</text>
</a>
</g>
</g>
<!-- Node2&#45;&gt;Node4 -->
<g id="edge3" class="edge">
<title>Node2&#45;&gt;Node4</title>
<path fill="none" stroke="midnightblue" d="M191.06,-112.08C185.07,-104.38 176.25,-93.03 168.95,-83.65"/>
<polygon fill="midnightblue" stroke="midnightblue" points="171.71,-81.5 162.81,-75.75 166.18,-85.79 171.71,-81.5"/>
</g>
<!-- Node5 -->
<g id="node5" class="node">
<title>Node5</title>
<g id="a_node5"><a xlink:title=" ">
<polygon fill="none" stroke="#bfbfbf" points="215.5,-56.5 215.5,-75.5 264.5,-75.5 264.5,-56.5 215.5,-56.5"/>
<text text-anchor="middle" x="240" y="-63.5" font-family="Helvetica,sans-Serif" font-size="10.00">QPoint</text>
</a>
</g>
</g>
<!-- Node2&#45;&gt;Node5 -->
<g id="edge4" class="edge">
<title>Node2&#45;&gt;Node5</title>
<path fill="none" stroke="midnightblue" d="M204.94,-112.08C210.93,-104.38 219.75,-93.03 227.05,-83.65"/>
<polygon fill="midnightblue" stroke="midnightblue" points="229.82,-85.79 233.19,-75.75 224.29,-81.5 229.82,-85.79"/>
</g>
<!-- Node6 -->
<g id="node6" class="node">
<title>Node6</title>
<g id="a_node6"><a xlink:href="utils_8h.html" target="_top" xlink:title=" ">
<polygon fill="none" stroke="black" points="283,-56.5 283,-75.5 347,-75.5 347,-56.5 283,-56.5"/>
<text text-anchor="middle" x="315" y="-63.5" font-family="Helvetica,sans-Serif" font-size="10.00">src/utils.h</text>
</a>
</g>
</g>
<!-- Node2&#45;&gt;Node6 -->
<g id="edge5" class="edge">
<title>Node2&#45;&gt;Node6</title>
<path fill="none" stroke="midnightblue" d="M216.54,-112.44C235.62,-103.64 265.57,-89.81 287.44,-79.72"/>
<polygon fill="midnightblue" stroke="midnightblue" points="288.93,-82.88 296.55,-75.52 286,-76.53 288.93,-82.88"/>
</g>
<!-- Node7 -->
<g id="node7" class="node">
<title>Node7</title>
<g id="a_node7"><a xlink:title=" ">
<polygon fill="none" stroke="#bfbfbf" points="254.5,-0.5 254.5,-19.5 307.5,-19.5 307.5,-0.5 254.5,-0.5"/>
<text text-anchor="middle" x="281" y="-7.5" font-family="Helvetica,sans-Serif" font-size="10.00">QString</text>
</a>
</g>
</g>
<!-- Node6&#45;&gt;Node7 -->
<g id="edge6" class="edge">
<title>Node6&#45;&gt;Node7</title>
<path fill="none" stroke="midnightblue" d="M309.39,-56.08C304.63,-48.53 297.68,-37.49 291.85,-28.23"/>
<polygon fill="midnightblue" stroke="midnightblue" points="294.8,-26.35 286.51,-19.75 288.88,-30.08 294.8,-26.35"/>
</g>
<!-- Node8 -->
<g id="node8" class="node">
<title>Node8</title>
<g id="a_node8"><a xlink:title=" ">
<polygon fill="none" stroke="#bfbfbf" points="325.5,-0.5 325.5,-19.5 370.5,-19.5 370.5,-0.5 325.5,-0.5"/>
<text text-anchor="middle" x="348" y="-7.5" font-family="Helvetica,sans-Serif" font-size="10.00">utility</text>
</a>
</g>
</g>
<!-- Node6&#45;&gt;Node8 -->
<g id="edge7" class="edge">
<title>Node6&#45;&gt;Node8</title>
<path fill="none" stroke="midnightblue" d="M320.45,-56.08C325.01,-48.61 331.67,-37.72 337.29,-28.52"/>
<polygon fill="midnightblue" stroke="midnightblue" points="340.42,-30.11 342.65,-19.75 334.45,-26.46 340.42,-30.11"/>
</g>
</g>
</svg>
