<?xml version="1.0" encoding="UTF-8" standalone="no"?>
<!DOCTYPE svg PUBLIC "-//W3C//DTD SVG 1.1//EN"
 "http://www.w3.org/Graphics/SVG/1.1/DTD/svg11.dtd">
<!-- Generated by graphviz version 2.43.0 (0)
 -->
<!-- Title: src/gui/screen_game/gui_figure.h Pages: 1 -->
<svg width="630pt" height="151pt"
 viewBox="0.00 0.00 629.50 151.00" xmlns="http://www.w3.org/2000/svg" xmlns:xlink="http://www.w3.org/1999/xlink">
<g id="graph0" class="graph" transform="scale(1 1) rotate(0) translate(4 147)">
<title>src/gui/screen_game/gui_figure.h</title>
<!-- Node1 -->
<g id="node1" class="node">
<title>Node1</title>
<g id="a_node1"><a xlink:title=" ">
<polygon fill="#bfbfbf" stroke="black" points="284.5,-112.5 284.5,-142.5 401.5,-142.5 401.5,-112.5 284.5,-112.5"/>
<text text-anchor="start" x="292.5" y="-130.5" font-family="Helvetica,sans-Serif" font-size="10.00">src/gui/screen_game</text>
<text text-anchor="middle" x="343" y="-119.5" font-family="Helvetica,sans-Serif" font-size="10.00">/gui_figure.h</text>
</a>
</g>
</g>
<!-- Node2 -->
<g id="node2" class="node">
<title>Node2</title>
<g id="a_node2"><a xlink:title=" ">
<polygon fill="none" stroke="#bfbfbf" points="0,-56.5 0,-75.5 156,-75.5 156,-56.5 0,-56.5"/>
<text text-anchor="middle" x="78" y="-63.5" font-family="Helvetica,sans-Serif" font-size="10.00">QGraphicsSceneMouseEvent</text>
</a>
</g>
</g>
<!-- Node1&#45;&gt;Node2 -->
<g id="edge1" class="edge">
<title>Node1&#45;&gt;Node2</title>
<path fill="none" stroke="midnightblue" d="M284.19,-113.3C236.66,-102.62 170.57,-87.79 126.15,-77.81"/>
<polygon fill="midnightblue" stroke="midnightblue" points="126.7,-74.35 116.18,-75.57 125.17,-81.18 126.7,-74.35"/>
</g>
<!-- Node3 -->
<g id="node3" class="node">
<title>Node3</title>
<g id="a_node3"><a xlink:title=" ">
<polygon fill="none" stroke="#bfbfbf" points="174.5,-56.5 174.5,-75.5 281.5,-75.5 281.5,-56.5 174.5,-56.5"/>
<text text-anchor="middle" x="228" y="-63.5" font-family="Helvetica,sans-Serif" font-size="10.00">QGraphicsSvgItem</text>
</a>
</g>
</g>
<!-- Node1&#45;&gt;Node3 -->
<g id="edge2" class="edge">
<title>Node1&#45;&gt;Node3</title>
<path fill="none" stroke="midnightblue" d="M315.75,-112.4C296.97,-102.68 272.17,-89.86 253.73,-80.31"/>
<polygon fill="midnightblue" stroke="midnightblue" points="255.22,-77.14 244.73,-75.66 252.01,-83.36 255.22,-77.14"/>
</g>
<!-- Node4 -->
<g id="node4" class="node">
<title>Node4</title>
<g id="a_node4"><a xlink:title=" ">
<polygon fill="none" stroke="#bfbfbf" points="300,-56.5 300,-75.5 386,-75.5 386,-56.5 300,-56.5"/>
<text text-anchor="middle" x="343" y="-63.5" font-family="Helvetica,sans-Serif" font-size="10.00">QSvgRenderer</text>
</a>
</g>
</g>
<!-- Node1&#45;&gt;Node4 -->
<g id="edge3" class="edge">
<title>Node1&#45;&gt;Node4</title>
<path fill="none" stroke="midnightblue" d="M343,-112.4C343,-104.47 343,-94.46 343,-85.86"/>
<polygon fill="midnightblue" stroke="midnightblue" points="346.5,-85.66 343,-75.66 339.5,-85.66 346.5,-85.66"/>
</g>
<!-- Node5 -->
<g id="node5" class="node">
<title>Node5</title>
<g id="a_node5"><a xlink:href="constants_8h.html" target="_top" xlink:title=" ">
<polygon fill="none" stroke="black" points="404,-56.5 404,-75.5 494,-75.5 494,-56.5 404,-56.5"/>
<text text-anchor="middle" x="449" y="-63.5" font-family="Helvetica,sans-Serif" font-size="10.00">src/constants.h</text>
</a>
</g>
</g>
<!-- Node1&#45;&gt;Node5 -->
<g id="edge4" class="edge">
<title>Node1&#45;&gt;Node5</title>
<path fill="none" stroke="midnightblue" d="M368.12,-112.4C385.27,-102.77 407.86,-90.09 424.81,-80.58"/>
<polygon fill="midnightblue" stroke="midnightblue" points="426.57,-83.6 433.58,-75.66 423.14,-77.5 426.57,-83.6"/>
</g>
<!-- Node7 -->
<g id="node7" class="node">
<title>Node7</title>
<g id="a_node7"><a xlink:href="utils_8h.html" target="_top" xlink:title=" ">
<polygon fill="none" stroke="black" points="512,-56.5 512,-75.5 576,-75.5 576,-56.5 512,-56.5"/>
<text text-anchor="middle" x="544" y="-63.5" font-family="Helvetica,sans-Serif" font-size="10.00">src/utils.h</text>
</a>
</g>
</g>
<!-- Node1&#45;&gt;Node7 -->
<g id="edge6" class="edge">
<title>Node1&#45;&gt;Node7</title>
<path fill="none" stroke="midnightblue" d="M390.38,-112.47C425.51,-102.08 472.79,-88.08 505.58,-78.37"/>
<polygon fill="midnightblue" stroke="midnightblue" points="506.67,-81.7 515.26,-75.51 504.68,-74.99 506.67,-81.7"/>
</g>
<!-- Node6 -->
<g id="node6" class="node">
<title>Node6</title>
<g id="a_node6"><a xlink:title=" ">
<polygon fill="none" stroke="#bfbfbf" points="421.5,-0.5 421.5,-19.5 476.5,-19.5 476.5,-0.5 421.5,-0.5"/>
<text text-anchor="middle" x="449" y="-7.5" font-family="Helvetica,sans-Serif" font-size="10.00">QVector</text>
</a>
</g>
</g>
<!-- Node5&#45;&gt;Node6 -->
<g id="edge5" class="edge">
<title>Node5&#45;&gt;Node6</title>
<path fill="none" stroke="midnightblue" d="M449,-56.08C449,-49.01 449,-38.86 449,-29.99"/>
<polygon fill="midnightblue" stroke="midnightblue" points="452.5,-29.75 449,-19.75 445.5,-29.75 452.5,-29.75"/>
</g>
<!-- Node8 -->
<g id="node8" class="node">
<title>Node8</title>
<g id="a_node8"><a xlink:title=" ">
<polygon fill="none" stroke="#bfbfbf" points="505.5,-0.5 505.5,-19.5 558.5,-19.5 558.5,-0.5 505.5,-0.5"/>
<text text-anchor="middle" x="532" y="-7.5" font-family="Helvetica,sans-Serif" font-size="10.00">QString</text>
</a>
</g>
</g>
<!-- Node7&#45;&gt;Node8 -->
<g id="edge7" class="edge">
<title>Node7&#45;&gt;Node8</title>
<path fill="none" stroke="midnightblue" d="M542.02,-56.08C540.43,-48.93 538.14,-38.64 536.15,-29.69"/>
<polygon fill="midnightblue" stroke="midnightblue" points="539.53,-28.75 533.94,-19.75 532.7,-30.27 539.53,-28.75"/>
</g>
<!-- Node9 -->
<g id="node9" class="node">
<title>Node9</title>
<g id="a_node9"><a xlink:title=" ">
<polygon fill="none" stroke="#bfbfbf" points="576.5,-0.5 576.5,-19.5 621.5,-19.5 621.5,-0.5 576.5,-0.5"/>
<text text-anchor="middle" x="599" y="-7.5" font-family="Helvetica,sans-Serif" font-size="10.00">utility</text>
</a>
</g>
</g>
<!-- Node7&#45;&gt;Node9 -->
<g id="edge8" class="edge">
<title>Node7&#45;&gt;Node9</title>
<path fill="none" stroke="midnightblue" d="M553.08,-56.08C561.17,-48.14 573.2,-36.34 582.91,-26.8"/>
<polygon fill="midnightblue" stroke="midnightblue" points="585.4,-29.25 590.09,-19.75 580.5,-24.26 585.4,-29.25"/>
</g>
</g>
</svg>
