<?xml version="1.0" encoding="UTF-8" standalone="no"?>
<!DOCTYPE svg PUBLIC "-//W3C//DTD SVG 1.1//EN"
 "http://www.w3.org/Graphics/SVG/1.1/DTD/svg11.dtd">
<!-- Generated by graphviz version 2.43.0 (0)
 -->
<!-- Title: src/gui/gui_point/gui_point.h Pages: 1 -->
<svg width="430pt" height="151pt"
 viewBox="0.00 0.00 429.50 151.00" xmlns="http://www.w3.org/2000/svg" xmlns:xlink="http://www.w3.org/1999/xlink">
<g id="graph0" class="graph" transform="scale(1 1) rotate(0) translate(4 147)">
<title>src/gui/gui_point/gui_point.h</title>
<!-- Node1 -->
<g id="node1" class="node">
<title>Node1</title>
<g id="a_node1"><a xlink:title=" ">
<polygon fill="#bfbfbf" stroke="black" points="174.5,-112.5 174.5,-142.5 289.5,-142.5 289.5,-112.5 174.5,-112.5"/>
<text text-anchor="start" x="182.5" y="-130.5" font-family="Helvetica,sans-Serif" font-size="10.00">src/gui/gui_point/gui</text>
<text text-anchor="middle" x="232" y="-119.5" font-family="Helvetica,sans-Serif" font-size="10.00">_point.h</text>
</a>
</g>
</g>
<!-- Node2 -->
<g id="node2" class="node">
<title>Node2</title>
<g id="a_node2"><a xlink:title=" ">
<polygon fill="none" stroke="#bfbfbf" points="0,-56.5 0,-75.5 98,-75.5 98,-56.5 0,-56.5"/>
<text text-anchor="middle" x="49" y="-63.5" font-family="Helvetica,sans-Serif" font-size="10.00">QGraphicsObject</text>
</a>
</g>
</g>
<!-- Node1&#45;&gt;Node2 -->
<g id="edge1" class="edge">
<title>Node1&#45;&gt;Node2</title>
<path fill="none" stroke="midnightblue" d="M188.63,-112.4C157.01,-102.12 114.67,-88.35 84.93,-78.68"/>
<polygon fill="midnightblue" stroke="midnightblue" points="85.95,-75.33 75.36,-75.57 83.79,-81.99 85.95,-75.33"/>
</g>
<!-- Node3 -->
<g id="node3" class="node">
<title>Node3</title>
<g id="a_node3"><a xlink:title=" ">
<polygon fill="none" stroke="#bfbfbf" points="116,-56.5 116,-75.5 240,-75.5 240,-56.5 116,-56.5"/>
<text text-anchor="middle" x="178" y="-63.5" font-family="Helvetica,sans-Serif" font-size="10.00">QGraphicsSceneEvent</text>
</a>
</g>
</g>
<!-- Node1&#45;&gt;Node3 -->
<g id="edge2" class="edge">
<title>Node1&#45;&gt;Node3</title>
<path fill="none" stroke="midnightblue" d="M219.2,-112.4C211.28,-103.66 201.06,-92.41 192.79,-83.3"/>
<polygon fill="midnightblue" stroke="midnightblue" points="195.17,-80.71 185.86,-75.66 189.99,-85.42 195.17,-80.71"/>
</g>
<!-- Node4 -->
<g id="node4" class="node">
<title>Node4</title>
<g id="a_node4"><a xlink:title=" ">
<polygon fill="none" stroke="#bfbfbf" points="258,-56.5 258,-75.5 316,-75.5 316,-56.5 258,-56.5"/>
<text text-anchor="middle" x="287" y="-63.5" font-family="Helvetica,sans-Serif" font-size="10.00">QPainter</text>
</a>
</g>
</g>
<!-- Node1&#45;&gt;Node4 -->
<g id="edge3" class="edge">
<title>Node1&#45;&gt;Node4</title>
<path fill="none" stroke="midnightblue" d="M245.03,-112.4C253.19,-103.58 263.72,-92.18 272.19,-83.02"/>
<polygon fill="midnightblue" stroke="midnightblue" points="274.78,-85.38 279,-75.66 269.64,-80.63 274.78,-85.38"/>
</g>
<!-- Node5 -->
<g id="node5" class="node">
<title>Node5</title>
<g id="a_node5"><a xlink:href="utils_8h.html" target="_top" xlink:title=" ">
<polygon fill="none" stroke="black" points="334,-56.5 334,-75.5 398,-75.5 398,-56.5 334,-56.5"/>
<text text-anchor="middle" x="366" y="-63.5" font-family="Helvetica,sans-Serif" font-size="10.00">src/utils.h</text>
</a>
</g>
</g>
<!-- Node1&#45;&gt;Node5 -->
<g id="edge4" class="edge">
<title>Node1&#45;&gt;Node5</title>
<path fill="none" stroke="midnightblue" d="M263.76,-112.4C286.04,-102.51 315.59,-89.38 337.19,-79.79"/>
<polygon fill="midnightblue" stroke="midnightblue" points="338.78,-82.91 346.5,-75.66 335.94,-76.52 338.78,-82.91"/>
</g>
<!-- Node6 -->
<g id="node6" class="node">
<title>Node6</title>
<g id="a_node6"><a xlink:title=" ">
<polygon fill="none" stroke="#bfbfbf" points="305.5,-0.5 305.5,-19.5 358.5,-19.5 358.5,-0.5 305.5,-0.5"/>
<text text-anchor="middle" x="332" y="-7.5" font-family="Helvetica,sans-Serif" font-size="10.00">QString</text>
</a>
</g>
</g>
<!-- Node5&#45;&gt;Node6 -->
<g id="edge5" class="edge">
<title>Node5&#45;&gt;Node6</title>
<path fill="none" stroke="midnightblue" d="M360.39,-56.08C355.63,-48.53 348.68,-37.49 342.85,-28.23"/>
<polygon fill="midnightblue" stroke="midnightblue" points="345.8,-26.35 337.51,-19.75 339.88,-30.08 345.8,-26.35"/>
</g>
<!-- Node7 -->
<g id="node7" class="node">
<title>Node7</title>
<g id="a_node7"><a xlink:title=" ">
<polygon fill="none" stroke="#bfbfbf" points="376.5,-0.5 376.5,-19.5 421.5,-19.5 421.5,-0.5 376.5,-0.5"/>
<text text-anchor="middle" x="399" y="-7.5" font-family="Helvetica,sans-Serif" font-size="10.00">utility</text>
</a>
</g>
</g>
<!-- Node5&#45;&gt;Node7 -->
<g id="edge6" class="edge">
<title>Node5&#45;&gt;Node7</title>
<path fill="none" stroke="midnightblue" d="M371.45,-56.08C376.01,-48.61 382.67,-37.72 388.29,-28.52"/>
<polygon fill="midnightblue" stroke="midnightblue" points="391.42,-30.11 393.65,-19.75 385.45,-26.46 391.42,-30.11"/>
</g>
</g>
</svg>
