<?xml version="1.0" encoding="UTF-8" standalone="no"?>
<!DOCTYPE svg PUBLIC "-//W3C//DTD SVG 1.1//EN"
 "http://www.w3.org/Graphics/SVG/1.1/DTD/svg11.dtd">
<!-- Generated by graphviz version 2.43.0 (0)
 -->
<!-- Title: src/gui/gui_win/gui_win.h Pages: 1 -->
<svg width="482pt" height="151pt"
 viewBox="0.00 0.00 482.00 151.00" xmlns="http://www.w3.org/2000/svg" xmlns:xlink="http://www.w3.org/1999/xlink">
<g id="graph0" class="graph" transform="scale(1 1) rotate(0) translate(4 147)">
<title>src/gui/gui_win/gui_win.h</title>
<!-- Node1 -->
<g id="node1" class="node">
<title>Node1</title>
<g id="a_node1"><a xlink:title=" ">
<polygon fill="#bfbfbf" stroke="black" points="224.5,-112.5 224.5,-142.5 331.5,-142.5 331.5,-112.5 224.5,-112.5"/>
<text text-anchor="start" x="232.5" y="-130.5" font-family="Helvetica,sans-Serif" font-size="10.00">src/gui/gui_win/gui</text>
<text text-anchor="middle" x="278" y="-119.5" font-family="Helvetica,sans-Serif" font-size="10.00">_win.h</text>
</a>
</g>
</g>
<!-- Node2 -->
<g id="node2" class="node">
<title>Node2</title>
<g id="a_node2"><a xlink:title=" ">
<polygon fill="none" stroke="#bfbfbf" points="0,-56.5 0,-75.5 124,-75.5 124,-56.5 0,-56.5"/>
<text text-anchor="middle" x="62" y="-63.5" font-family="Helvetica,sans-Serif" font-size="10.00">QGraphicsSceneEvent</text>
</a>
</g>
</g>
<!-- Node1&#45;&gt;Node2 -->
<g id="edge1" class="edge">
<title>Node1&#45;&gt;Node2</title>
<path fill="none" stroke="midnightblue" d="M227.08,-112.47C189.17,-102.03 138.08,-87.96 102.83,-78.25"/>
<polygon fill="midnightblue" stroke="midnightblue" points="103.45,-74.79 92.88,-75.51 101.59,-81.54 103.45,-74.79"/>
</g>
<!-- Node3 -->
<g id="node3" class="node">
<title>Node3</title>
<g id="a_node3"><a xlink:title=" ">
<polygon fill="none" stroke="#bfbfbf" points="142.5,-56.5 142.5,-75.5 249.5,-75.5 249.5,-56.5 142.5,-56.5"/>
<text text-anchor="middle" x="196" y="-63.5" font-family="Helvetica,sans-Serif" font-size="10.00">QGraphicsSvgItem</text>
</a>
</g>
</g>
<!-- Node1&#45;&gt;Node3 -->
<g id="edge2" class="edge">
<title>Node1&#45;&gt;Node3</title>
<path fill="none" stroke="midnightblue" d="M258.57,-112.4C245.79,-103.13 229.11,-91.03 216.19,-81.65"/>
<polygon fill="midnightblue" stroke="midnightblue" points="218.08,-78.7 207.93,-75.66 213.97,-84.36 218.08,-78.7"/>
</g>
<!-- Node4 -->
<g id="node4" class="node">
<title>Node4</title>
<g id="a_node4"><a xlink:title=" ">
<polygon fill="none" stroke="#bfbfbf" points="300.5,-0.5 300.5,-19.5 353.5,-19.5 353.5,-0.5 300.5,-0.5"/>
<text text-anchor="middle" x="327" y="-7.5" font-family="Helvetica,sans-Serif" font-size="10.00">QString</text>
</a>
</g>
</g>
<!-- Node1&#45;&gt;Node4 -->
<g id="edge3" class="edge">
<title>Node1&#45;&gt;Node4</title>
<path fill="none" stroke="midnightblue" d="M280.43,-112.26C283.23,-97.68 288.57,-74.59 297,-56 301.45,-46.18 307.94,-36.12 313.75,-28.01"/>
<polygon fill="midnightblue" stroke="midnightblue" points="316.7,-29.9 319.87,-19.79 311.09,-25.72 316.7,-29.9"/>
</g>
<!-- Node5 -->
<g id="node5" class="node">
<title>Node5</title>
<g id="a_node5"><a xlink:title=" ">
<polygon fill="none" stroke="#bfbfbf" points="306,-56.5 306,-75.5 392,-75.5 392,-56.5 306,-56.5"/>
<text text-anchor="middle" x="349" y="-63.5" font-family="Helvetica,sans-Serif" font-size="10.00">QSvgRenderer</text>
</a>
</g>
</g>
<!-- Node1&#45;&gt;Node5 -->
<g id="edge4" class="edge">
<title>Node1&#45;&gt;Node5</title>
<path fill="none" stroke="midnightblue" d="M294.83,-112.4C305.67,-103.31 319.78,-91.49 330.87,-82.19"/>
<polygon fill="midnightblue" stroke="midnightblue" points="333.25,-84.76 338.67,-75.66 328.76,-79.4 333.25,-84.76"/>
</g>
<!-- Node6 -->
<g id="node6" class="node">
<title>Node6</title>
<g id="a_node6"><a xlink:href="utils_8h.html" target="_top" xlink:title=" ">
<polygon fill="none" stroke="black" points="410,-56.5 410,-75.5 474,-75.5 474,-56.5 410,-56.5"/>
<text text-anchor="middle" x="442" y="-63.5" font-family="Helvetica,sans-Serif" font-size="10.00">src/utils.h</text>
</a>
</g>
</g>
<!-- Node1&#45;&gt;Node6 -->
<g id="edge5" class="edge">
<title>Node1&#45;&gt;Node6</title>
<path fill="none" stroke="midnightblue" d="M316.87,-112.4C344.75,-102.28 381.94,-88.79 408.51,-79.15"/>
<polygon fill="midnightblue" stroke="midnightblue" points="409.93,-82.36 418.14,-75.66 407.54,-75.78 409.93,-82.36"/>
</g>
<!-- Node6&#45;&gt;Node4 -->
<g id="edge6" class="edge">
<title>Node6&#45;&gt;Node4</title>
<path fill="none" stroke="midnightblue" d="M423.78,-56.44C405.1,-47.68 375.84,-33.94 354.38,-23.86"/>
<polygon fill="midnightblue" stroke="midnightblue" points="355.68,-20.6 345.14,-19.52 352.7,-26.93 355.68,-20.6"/>
</g>
<!-- Node7 -->
<g id="node7" class="node">
<title>Node7</title>
<g id="a_node7"><a xlink:title=" ">
<polygon fill="none" stroke="#bfbfbf" points="419.5,-0.5 419.5,-19.5 464.5,-19.5 464.5,-0.5 419.5,-0.5"/>
<text text-anchor="middle" x="442" y="-7.5" font-family="Helvetica,sans-Serif" font-size="10.00">utility</text>
</a>
</g>
</g>
<!-- Node6&#45;&gt;Node7 -->
<g id="edge7" class="edge">
<title>Node6&#45;&gt;Node7</title>
<path fill="none" stroke="midnightblue" d="M442,-56.08C442,-49.01 442,-38.86 442,-29.99"/>
<polygon fill="midnightblue" stroke="midnightblue" points="445.5,-29.75 442,-19.75 438.5,-29.75 445.5,-29.75"/>
</g>
</g>
</svg>
