<?xml version="1.0" encoding="UTF-8" standalone="no"?>
<!DOCTYPE svg PUBLIC "-//W3C//DTD SVG 1.1//EN"
 "http://www.w3.org/Graphics/SVG/1.1/DTD/svg11.dtd">
<!-- Generated by graphviz version 2.43.0 (0)
 -->
<!-- Title: Иерархия классов. Графический вид. Pages: 1 -->
<svg width="141pt" height="218pt"
 viewBox="0.00 0.00 141.00 218.00" xmlns="http://www.w3.org/2000/svg" xmlns:xlink="http://www.w3.org/1999/xlink">
<g id="graph0" class="graph" transform="scale(1 1) rotate(0) translate(4 214)">
<title>Иерархия классов. Графический вид.</title>
<!-- Node0 -->
<g id="node1" class="node">
<title>Node0</title>
<g id="a_node1"><a xlink:href="classFigure.html" target="_top" xlink:title="Абстрактный класс фигуры.">
<polygon fill="none" stroke="black" points="0,-95.5 0,-114.5 47,-114.5 47,-95.5 0,-95.5"/>
<text text-anchor="middle" x="23.5" y="-102.5" font-family="Helvetica,sans-Serif" font-size="10.00">Figure</text>
</a>
</g>
</g>
<!-- Node1 -->
<g id="node2" class="node">
<title>Node1</title>
<g id="a_node2"><a xlink:href="classBishop.html" target="_top" xlink:title="Слон.">
<polygon fill="none" stroke="black" points="83,-190.5 83,-209.5 133,-209.5 133,-190.5 83,-190.5"/>
<text text-anchor="middle" x="108" y="-197.5" font-family="Helvetica,sans-Serif" font-size="10.00">Bishop</text>
</a>
</g>
</g>
<!-- Node0&#45;&gt;Node1 -->
<g id="edge1" class="edge">
<title>Node0&#45;&gt;Node1</title>
<path fill="none" stroke="midnightblue" d="M36.61,-123.21C47.71,-139.27 65.11,-162.87 83,-181 86.28,-184.33 90.15,-187.61 93.8,-190.49"/>
<polygon fill="midnightblue" stroke="midnightblue" points="39.35,-121.03 30.84,-114.72 33.57,-124.96 39.35,-121.03"/>
</g>
<!-- Node2 -->
<g id="node3" class="node">
<title>Node2</title>
<g id="a_node3"><a xlink:href="classKing.html" target="_top" xlink:title="Король.">
<polygon fill="none" stroke="black" points="89,-152.5 89,-171.5 127,-171.5 127,-152.5 89,-152.5"/>
<text text-anchor="middle" x="108" y="-159.5" font-family="Helvetica,sans-Serif" font-size="10.00">King</text>
</a>
</g>
</g>
<!-- Node0&#45;&gt;Node2 -->
<g id="edge2" class="edge">
<title>Node0&#45;&gt;Node2</title>
<path fill="none" stroke="midnightblue" d="M47.07,-120.59C61.83,-130.79 80.64,-143.79 93.21,-152.47"/>
<polygon fill="midnightblue" stroke="midnightblue" points="48.71,-117.47 38.5,-114.67 44.73,-123.23 48.71,-117.47"/>
</g>
<!-- Node3 -->
<g id="node4" class="node">
<title>Node3</title>
<g id="a_node4"><a xlink:href="classKnight.html" target="_top" xlink:title="Конь.">
<polygon fill="none" stroke="black" points="84,-114.5 84,-133.5 132,-133.5 132,-114.5 84,-114.5"/>
<text text-anchor="middle" x="108" y="-121.5" font-family="Helvetica,sans-Serif" font-size="10.00">Knight</text>
</a>
</g>
</g>
<!-- Node0&#45;&gt;Node3 -->
<g id="edge3" class="edge">
<title>Node0&#45;&gt;Node3</title>
<path fill="none" stroke="midnightblue" d="M56.89,-112.46C65.91,-114.54 75.53,-116.75 83.91,-118.68"/>
<polygon fill="midnightblue" stroke="midnightblue" points="57.57,-109.03 47.04,-110.19 56,-115.85 57.57,-109.03"/>
</g>
<!-- Node4 -->
<g id="node5" class="node">
<title>Node4</title>
<g id="a_node5"><a xlink:href="classPawn.html" target="_top" xlink:title="Пешка.">
<polygon fill="none" stroke="black" points="87,-76.5 87,-95.5 129,-95.5 129,-76.5 87,-76.5"/>
<text text-anchor="middle" x="108" y="-83.5" font-family="Helvetica,sans-Serif" font-size="10.00">Pawn</text>
</a>
</g>
</g>
<!-- Node0&#45;&gt;Node4 -->
<g id="edge4" class="edge">
<title>Node0&#45;&gt;Node4</title>
<path fill="none" stroke="midnightblue" d="M57.1,-97.49C67.1,-95.19 77.81,-92.72 86.74,-90.67"/>
<polygon fill="midnightblue" stroke="midnightblue" points="56,-94.15 47.04,-99.81 57.57,-100.97 56,-94.15"/>
</g>
<!-- Node5 -->
<g id="node6" class="node">
<title>Node5</title>
<g id="a_node6"><a xlink:href="classQueen.html" target="_top" xlink:title="Ферзь.">
<polygon fill="none" stroke="black" points="84,-38.5 84,-57.5 132,-57.5 132,-38.5 84,-38.5"/>
<text text-anchor="middle" x="108" y="-45.5" font-family="Helvetica,sans-Serif" font-size="10.00">Queen</text>
</a>
</g>
</g>
<!-- Node0&#45;&gt;Node5 -->
<g id="edge5" class="edge">
<title>Node0&#45;&gt;Node5</title>
<path fill="none" stroke="midnightblue" d="M47.07,-89.41C61.83,-79.21 80.64,-66.21 93.21,-57.53"/>
<polygon fill="midnightblue" stroke="midnightblue" points="44.73,-86.77 38.5,-95.33 48.71,-92.53 44.73,-86.77"/>
</g>
<!-- Node6 -->
<g id="node7" class="node">
<title>Node6</title>
<g id="a_node7"><a xlink:href="classRook.html" target="_top" xlink:title="Ладья.">
<polygon fill="none" stroke="black" points="87.5,-0.5 87.5,-19.5 128.5,-19.5 128.5,-0.5 87.5,-0.5"/>
<text text-anchor="middle" x="108" y="-7.5" font-family="Helvetica,sans-Serif" font-size="10.00">Rook</text>
</a>
</g>
</g>
<!-- Node0&#45;&gt;Node6 -->
<g id="edge6" class="edge">
<title>Node0&#45;&gt;Node6</title>
<path fill="none" stroke="midnightblue" d="M36.61,-86.79C47.71,-70.73 65.11,-47.13 83,-29 86.28,-25.67 90.15,-22.39 93.8,-19.51"/>
<polygon fill="midnightblue" stroke="midnightblue" points="33.57,-85.04 30.84,-95.28 39.35,-88.97 33.57,-85.04"/>
</g>
</g>
</svg>
