<?xml version="1.0" encoding="UTF-8" standalone="no"?>
<!DOCTYPE svg PUBLIC "-//W3C//DTD SVG 1.1//EN"
 "http://www.w3.org/Graphics/SVG/1.1/DTD/svg11.dtd">
<!-- Generated by graphviz version 2.50.0 (0)
 -->
<!-- Title: Иерархия классов. Графический вид. Pages: 1 -->
<svg width="191pt" height="142pt"
 viewBox="0.00 0.00 191.00 142.00" xmlns="http://www.w3.org/2000/svg" xmlns:xlink="http://www.w3.org/1999/xlink">
<g id="graph0" class="graph" transform="scale(1 1) rotate(0) translate(4 138)">
<title>Иерархия классов. Графический вид.</title>
<!-- Node16 -->
<g id="node1" class="node">
<title>Node16</title>
<g id="a_node1"><a xlink:title=" ">
<polygon fill="none" stroke="#bfbfbf" points="0,-57.5 0,-76.5 55,-76.5 55,-57.5 0,-57.5"/>
<text text-anchor="middle" x="27.5" y="-64.5" font-family="Helvetica,sans-Serif" font-size="10.00">QWidget</text>
</a>
</g>
</g>
<!-- Node0 -->
<g id="node2" class="node">
<title>Node0</title>
<g id="a_node2"><a xlink:href="classScreenGame.html" target="_top" xlink:title="Окно игры.">
<polygon fill="none" stroke="black" points="100,-114.5 100,-133.5 174,-133.5 174,-114.5 100,-114.5"/>
<text text-anchor="middle" x="137" y="-121.5" font-family="Helvetica,sans-Serif" font-size="10.00">ScreenGame</text>
</a>
</g>
</g>
<!-- Node16&#45;&gt;Node0 -->
<g id="edge1" class="edge">
<title>Node16&#45;&gt;Node0</title>
<path fill="none" stroke="midnightblue" d="M51.44,-82.06C63.06,-89.4 77.53,-98.11 91,-105 97.49,-108.32 104.7,-111.56 111.41,-114.39"/>
<polygon fill="midnightblue" stroke="midnightblue" points="53.11,-78.97 42.8,-76.53 49.33,-84.87 53.11,-78.97"/>
</g>
<!-- Node18 -->
<g id="node3" class="node">
<title>Node18</title>
<g id="a_node3"><a xlink:href="classScreenLiderboard.html" target="_top" xlink:title="Окно табллицы лидеров.">
<polygon fill="none" stroke="black" points="91,-76.5 91,-95.5 183,-95.5 183,-76.5 91,-76.5"/>
<text text-anchor="middle" x="137" y="-83.5" font-family="Helvetica,sans-Serif" font-size="10.00">ScreenLiderboard</text>
</a>
</g>
</g>
<!-- Node16&#45;&gt;Node18 -->
<g id="edge2" class="edge">
<title>Node16&#45;&gt;Node18</title>
<path fill="none" stroke="midnightblue" d="M65.17,-73.48C73.44,-74.94 82.33,-76.51 90.9,-78.03"/>
<polygon fill="midnightblue" stroke="midnightblue" points="65.53,-69.99 55.07,-71.7 64.31,-76.88 65.53,-69.99"/>
</g>
<!-- Node19 -->
<g id="node4" class="node">
<title>Node19</title>
<g id="a_node4"><a xlink:href="classScreenMenu.html" target="_top" xlink:title="Окно меню.">
<polygon fill="none" stroke="black" points="101.5,-38.5 101.5,-57.5 172.5,-57.5 172.5,-38.5 101.5,-38.5"/>
<text text-anchor="middle" x="137" y="-45.5" font-family="Helvetica,sans-Serif" font-size="10.00">ScreenMenu</text>
</a>
</g>
</g>
<!-- Node16&#45;&gt;Node19 -->
<g id="edge3" class="edge">
<title>Node16&#45;&gt;Node19</title>
<path fill="none" stroke="midnightblue" d="M64.98,-60.55C76.69,-58.48 89.62,-56.2 101.21,-54.15"/>
<polygon fill="midnightblue" stroke="midnightblue" points="64.31,-57.12 55.07,-62.3 65.53,-64.01 64.31,-57.12"/>
</g>
<!-- Node20 -->
<g id="node5" class="node">
<title>Node20</title>
<g id="a_node5"><a xlink:href="classScreenSettings.html" target="_top" xlink:title="Окно настроек.">
<polygon fill="none" stroke="black" points="95.5,-0.5 95.5,-19.5 178.5,-19.5 178.5,-0.5 95.5,-0.5"/>
<text text-anchor="middle" x="137" y="-7.5" font-family="Helvetica,sans-Serif" font-size="10.00">ScreenSettings</text>
</a>
</g>
</g>
<!-- Node16&#45;&gt;Node20 -->
<g id="edge4" class="edge">
<title>Node16&#45;&gt;Node20</title>
<path fill="none" stroke="midnightblue" d="M51.44,-51.94C63.06,-44.6 77.53,-35.89 91,-29 97.49,-25.68 104.7,-22.44 111.41,-19.61"/>
<polygon fill="midnightblue" stroke="midnightblue" points="49.33,-49.13 42.8,-57.47 53.11,-55.03 49.33,-49.13"/>
</g>
</g>
</svg>
