<?xml version="1.0" encoding="UTF-8" standalone="no"?>
<!DOCTYPE svg PUBLIC "-//W3C//DTD SVG 1.1//EN"
 "http://www.w3.org/Graphics/SVG/1.1/DTD/svg11.dtd">
<!-- Generated by graphviz version 2.43.0 (0)
 -->
<!-- Title: Иерархия классов. Графический вид. Pages: 1 -->
<svg width="204pt" height="142pt"
 viewBox="0.00 0.00 204.00 142.00" xmlns="http://www.w3.org/2000/svg" xmlns:xlink="http://www.w3.org/1999/xlink">
<g id="graph0" class="graph" transform="scale(1 1) rotate(0) translate(4 138)">
<title>Иерархия классов. Графический вид.</title>
<!-- Node18 -->
<g id="node1" class="node">
<title>Node18</title>
<g id="a_node1"><a xlink:title=" ">
<polygon fill="none" stroke="#bfbfbf" points="0,-57.5 0,-76.5 59,-76.5 59,-57.5 0,-57.5"/>
<text text-anchor="middle" x="29.5" y="-64.5" font-family="Helvetica,sans-Serif" font-size="10.00">QWidget</text>
</a>
</g>
</g>
<!-- Node0 -->
<g id="node2" class="node">
<title>Node0</title>
<g id="a_node2"><a xlink:href="classScreenGame.html" target="_top" xlink:title="Окно игры.">
<polygon fill="none" stroke="black" points="106,-114.5 106,-133.5 185,-133.5 185,-114.5 106,-114.5"/>
<text text-anchor="middle" x="145.5" y="-121.5" font-family="Helvetica,sans-Serif" font-size="10.00">ScreenGame</text>
</a>
</g>
</g>
<!-- Node18&#45;&gt;Node0 -->
<g id="edge1" class="edge">
<title>Node18&#45;&gt;Node0</title>
<path fill="none" stroke="midnightblue" d="M53.78,-81.98C65.82,-89.4 80.91,-98.21 95,-105 102.05,-108.4 109.87,-111.64 117.18,-114.44"/>
<polygon fill="midnightblue" stroke="midnightblue" points="55.56,-78.97 45.23,-76.63 51.85,-84.9 55.56,-78.97"/>
</g>
<!-- Node20 -->
<g id="node3" class="node">
<title>Node20</title>
<g id="a_node3"><a xlink:href="classScreenLiderboard.html" target="_top" xlink:title="Окно табллицы лидеров.">
<polygon fill="none" stroke="black" points="95,-76.5 95,-95.5 196,-95.5 196,-76.5 95,-76.5"/>
<text text-anchor="middle" x="145.5" y="-83.5" font-family="Helvetica,sans-Serif" font-size="10.00">ScreenLiderboard</text>
</a>
</g>
</g>
<!-- Node18&#45;&gt;Node20 -->
<g id="edge2" class="edge">
<title>Node18&#45;&gt;Node20</title>
<path fill="none" stroke="midnightblue" d="M69.32,-73.47C77.54,-74.84 86.33,-76.31 94.89,-77.73"/>
<polygon fill="midnightblue" stroke="midnightblue" points="69.71,-69.99 59.27,-71.79 68.56,-76.89 69.71,-69.99"/>
</g>
<!-- Node21 -->
<g id="node4" class="node">
<title>Node21</title>
<g id="a_node4"><a xlink:href="classScreenMenu.html" target="_top" xlink:title="Окно меню.">
<polygon fill="none" stroke="black" points="107,-38.5 107,-57.5 184,-57.5 184,-38.5 107,-38.5"/>
<text text-anchor="middle" x="145.5" y="-45.5" font-family="Helvetica,sans-Serif" font-size="10.00">ScreenMenu</text>
</a>
</g>
</g>
<!-- Node18&#45;&gt;Node21 -->
<g id="edge3" class="edge">
<title>Node18&#45;&gt;Node21</title>
<path fill="none" stroke="midnightblue" d="M69.47,-60.5C81.51,-58.5 94.73,-56.29 106.69,-54.3"/>
<polygon fill="midnightblue" stroke="midnightblue" points="68.56,-57.11 59.27,-62.21 69.71,-64.01 68.56,-57.11"/>
</g>
<!-- Node22 -->
<g id="node5" class="node">
<title>Node22</title>
<g id="a_node5"><a xlink:href="classScreenSettings.html" target="_top" xlink:title="Окно настроек.">
<polygon fill="none" stroke="black" points="101,-0.5 101,-19.5 190,-19.5 190,-0.5 101,-0.5"/>
<text text-anchor="middle" x="145.5" y="-7.5" font-family="Helvetica,sans-Serif" font-size="10.00">ScreenSettings</text>
</a>
</g>
</g>
<!-- Node18&#45;&gt;Node22 -->
<g id="edge4" class="edge">
<title>Node18&#45;&gt;Node22</title>
<path fill="none" stroke="midnightblue" d="M53.78,-52.02C65.82,-44.6 80.91,-35.79 95,-29 102.05,-25.6 109.87,-22.36 117.18,-19.56"/>
<polygon fill="midnightblue" stroke="midnightblue" points="51.85,-49.1 45.23,-57.37 55.56,-55.03 51.85,-49.1"/>
</g>
</g>
</svg>
