<?xml version="1.0" encoding="UTF-8" standalone="no"?>
<!DOCTYPE svg PUBLIC "-//W3C//DTD SVG 1.1//EN"
 "http://www.w3.org/Graphics/SVG/1.1/DTD/svg11.dtd">
<!-- Generated by graphviz version 2.50.0 (0)
 -->
<!-- Title: Иерархия классов. Графический вид. Pages: 1 -->
<svg width="135pt" height="218pt"
 viewBox="0.00 0.00 135.00 218.00" xmlns="http://www.w3.org/2000/svg" xmlns:xlink="http://www.w3.org/1999/xlink">
<g id="graph0" class="graph" transform="scale(1 1) rotate(0) translate(4 214)">
<title>Иерархия классов. Графический вид.</title>
<!-- Node0 -->
<g id="node1" class="node">
<title>Node0</title>
<g id="a_node1"><a xlink:href="classFigure.html" target="_top" xlink:title="Абстрактный класс фигуры.">
<polygon fill="none" stroke="black" points="0,-95.5 0,-114.5 44,-114.5 44,-95.5 0,-95.5"/>
<text text-anchor="middle" x="22" y="-102.5" font-family="Helvetica,sans-Serif" font-size="10.00">Figure</text>
</a>
</g>
</g>
<!-- Node1 -->
<g id="node2" class="node">
<title>Node1</title>
<g id="a_node2"><a xlink:href="classBishop.html" target="_top" xlink:title="Слон.">
<polygon fill="none" stroke="black" points="80,-190.5 80,-209.5 127,-209.5 127,-190.5 80,-190.5"/>
<text text-anchor="middle" x="103.5" y="-197.5" font-family="Helvetica,sans-Serif" font-size="10.00">Bishop</text>
</a>
</g>
</g>
<!-- Node0&#45;&gt;Node1 -->
<g id="edge1" class="edge">
<title>Node0&#45;&gt;Node1</title>
<path fill="none" stroke="midnightblue" d="M34.85,-123.1C45.71,-139.09 62.68,-162.65 80,-181 83.09,-184.27 86.71,-187.54 90.14,-190.42"/>
<polygon fill="midnightblue" stroke="midnightblue" points="37.67,-121.03 29.21,-114.66 31.85,-124.92 37.67,-121.03"/>
</g>
<!-- Node2 -->
<g id="node3" class="node">
<title>Node2</title>
<g id="a_node3"><a xlink:href="classKing.html" target="_top" xlink:title="Король.">
<polygon fill="none" stroke="black" points="85.5,-152.5 85.5,-171.5 121.5,-171.5 121.5,-152.5 85.5,-152.5"/>
<text text-anchor="middle" x="103.5" y="-159.5" font-family="Helvetica,sans-Serif" font-size="10.00">King</text>
</a>
</g>
</g>
<!-- Node0&#45;&gt;Node2 -->
<g id="edge2" class="edge">
<title>Node0&#45;&gt;Node2</title>
<path fill="none" stroke="midnightblue" d="M44.75,-120.59C58.98,-130.79 77.1,-143.79 89.21,-152.47"/>
<polygon fill="midnightblue" stroke="midnightblue" points="46.65,-117.65 36.49,-114.67 42.57,-123.34 46.65,-117.65"/>
</g>
<!-- Node3 -->
<g id="node4" class="node">
<title>Node3</title>
<g id="a_node4"><a xlink:href="classKinght.html" target="_top" xlink:title="Конь.">
<polygon fill="none" stroke="black" points="81.5,-114.5 81.5,-133.5 125.5,-133.5 125.5,-114.5 81.5,-114.5"/>
<text text-anchor="middle" x="103.5" y="-121.5" font-family="Helvetica,sans-Serif" font-size="10.00">Kinght</text>
</a>
</g>
</g>
<!-- Node0&#45;&gt;Node3 -->
<g id="edge3" class="edge">
<title>Node0&#45;&gt;Node3</title>
<path fill="none" stroke="midnightblue" d="M54.22,-112.46C63.34,-114.64 73.08,-116.97 81.41,-118.96"/>
<polygon fill="midnightblue" stroke="midnightblue" points="54.84,-109.01 44.3,-110.09 53.22,-115.82 54.84,-109.01"/>
</g>
<!-- Node4 -->
<g id="node5" class="node">
<title>Node4</title>
<g id="a_node5"><a xlink:href="classPawn.html" target="_top" xlink:title="Пешка.">
<polygon fill="none" stroke="black" points="83,-76.5 83,-95.5 124,-95.5 124,-76.5 83,-76.5"/>
<text text-anchor="middle" x="103.5" y="-83.5" font-family="Helvetica,sans-Serif" font-size="10.00">Pawn</text>
</a>
</g>
</g>
<!-- Node0&#45;&gt;Node4 -->
<g id="edge4" class="edge">
<title>Node0&#45;&gt;Node4</title>
<path fill="none" stroke="midnightblue" d="M54.33,-97.51C63.92,-95.22 74.19,-92.77 82.77,-90.71"/>
<polygon fill="midnightblue" stroke="midnightblue" points="53.22,-94.18 44.3,-99.91 54.84,-100.99 53.22,-94.18"/>
</g>
<!-- Node5 -->
<g id="node6" class="node">
<title>Node5</title>
<g id="a_node6"><a xlink:href="classQueen.html" target="_top" xlink:title="Ферзь.">
<polygon fill="none" stroke="black" points="81,-38.5 81,-57.5 126,-57.5 126,-38.5 81,-38.5"/>
<text text-anchor="middle" x="103.5" y="-45.5" font-family="Helvetica,sans-Serif" font-size="10.00">Queen</text>
</a>
</g>
</g>
<!-- Node0&#45;&gt;Node5 -->
<g id="edge5" class="edge">
<title>Node0&#45;&gt;Node5</title>
<path fill="none" stroke="midnightblue" d="M44.75,-89.41C58.98,-79.21 77.1,-66.21 89.21,-57.53"/>
<polygon fill="midnightblue" stroke="midnightblue" points="42.57,-86.66 36.49,-95.33 46.65,-92.35 42.57,-86.66"/>
</g>
<!-- Node6 -->
<g id="node7" class="node">
<title>Node6</title>
<g id="a_node7"><a xlink:href="classRook.html" target="_top" xlink:title="Ладья.">
<polygon fill="none" stroke="black" points="83.5,-0.5 83.5,-19.5 123.5,-19.5 123.5,-0.5 83.5,-0.5"/>
<text text-anchor="middle" x="103.5" y="-7.5" font-family="Helvetica,sans-Serif" font-size="10.00">Rook</text>
</a>
</g>
</g>
<!-- Node0&#45;&gt;Node6 -->
<g id="edge6" class="edge">
<title>Node0&#45;&gt;Node6</title>
<path fill="none" stroke="midnightblue" d="M34.85,-86.9C45.71,-70.91 62.68,-47.35 80,-29 83.09,-25.73 86.71,-22.46 90.14,-19.58"/>
<polygon fill="midnightblue" stroke="midnightblue" points="31.85,-85.08 29.21,-95.34 37.67,-88.97 31.85,-85.08"/>
</g>
</g>
</svg>
