<?xml version="1.0" encoding="UTF-8" standalone="no"?>
<!DOCTYPE svg PUBLIC "-//W3C//DTD SVG 1.1//EN"
 "http://www.w3.org/Graphics/SVG/1.1/DTD/svg11.dtd">
<!-- Generated by graphviz version 2.43.0 (0)
 -->
<!-- Title: src/gui/main_window/main_window.h Pages: 1 -->
<!--zoomable 341 -->
<svg id="main" version="1.1" xmlns="http://www.w3.org/2000/svg" xmlns:xlink="http://www.w3.org/1999/xlink" xml:space="preserve" onload="init(evt)">
<style type="text/css"><![CDATA[
.edge:hover path { stroke: red; }
.edge:hover polygon { stroke: red; fill: red; }
]]></style>
<script type="text/javascript"><![CDATA[
var edges = document.getElementsByTagName('g');
if (edges && edges.length) {
  for (var i=0;i<edges.length;i++) {
    if (edges[i].id.substr(0,4)=='edge') {
      edges[i].setAttribute('class','edge');
    }
  }
}
]]></script>
        <defs>
                <circle id="rim" cx="0" cy="0" r="7"/>
                <circle id="rim2" cx="0" cy="0" r="3.5"/>
                <g id="zoomPlus">
                        <use xlink:href="#rim" fill="#404040">
                                <set attributeName="fill" to="#808080" begin="zoomplus.mouseover" end="zoomplus.mouseout"/>
                        </use>
                        <path d="M-4,0h8M0,-4v8" fill="none" stroke="white" stroke-width="1.5" pointer-events="none"/>
                </g>
                <g id="zoomMin">
                        <use xlink:href="#rim" fill="#404040">
                                <set attributeName="fill" to="#808080" begin="zoomminus.mouseover" end="zoomminus.mouseout"/>
                        </use>
                        <path d="M-4,0h8" fill="none" stroke="white" stroke-width="1.5" pointer-events="none"/>
                </g>
                <g id="dirArrow">
                        <path fill="none" stroke="white" stroke-width="1.5" d="M0,-3.0v7 M-2.5,-0.5L0,-3.0L2.5,-0.5"/>
                </g>
               <g id="resetDef">
                       <use xlink:href="#rim2" fill="#404040">
                               <set attributeName="fill" to="#808080" begin="reset.mouseover" end="reset.mouseout"/>
                       </use>
               </g>
        </defs>

<script type="text/javascript">
var viewWidth = 2381;
var viewHeight = 341;
var sectionId = 'dynsection-0';
</script>
<script xlink:href="svgpan.js"/>
<svg id="graph" class="graph">
<g id="viewport">
<title>src/gui/main_window/main_window.h</title>
<!-- Node1 -->
<g id="node1" class="node">
<title>Node1</title>
<g id="a_node1"><a xlink:title=" ">
<polygon fill="#bfbfbf" stroke="black" points="372,-302.5 372,-332.5 491,-332.5 491,-302.5 372,-302.5"/>
<text text-anchor="start" x="380" y="-320.5" font-family="Helvetica,sans-Serif" font-size="10.00">src/gui/main_window</text>
<text text-anchor="middle" x="431.5" y="-309.5" font-family="Helvetica,sans-Serif" font-size="10.00">/main_window.h</text>
</a>
</g>
</g>
<!-- Node2 -->
<g id="node2" class="node">
<title>Node2</title>
<g id="a_node2"><a xlink:title=" ">
<polygon fill="none" stroke="#bfbfbf" points="0,-246.5 0,-265.5 87,-265.5 87,-246.5 0,-246.5"/>
<text text-anchor="middle" x="43.5" y="-253.5" font-family="Helvetica,sans-Serif" font-size="10.00">QMainWindow</text>
</a>
</g>
</g>
<!-- Node1&#45;&gt;Node2 -->
<g id="edge1" class="edge">
<title>Node1&#45;&gt;Node2</title>
<path fill="none" stroke="midnightblue" d="M371.96,-307.96C306.91,-298.54 199.37,-282.69 97.35,-266.27"/>
<polygon fill="midnightblue" stroke="midnightblue" points="97.61,-262.77 87.18,-264.63 96.5,-269.68 97.61,-262.77"/>
</g>
<!-- Node3 -->
<g id="node3" class="node">
<title>Node3</title>
<g id="a_node3"><a xlink:title=" ">
<polygon fill="none" stroke="#bfbfbf" points="105,-246.5 105,-265.5 202,-265.5 202,-246.5 105,-246.5"/>
<text text-anchor="middle" x="153.5" y="-253.5" font-family="Helvetica,sans-Serif" font-size="10.00">QStackedWidget</text>
</a>
</g>
</g>
<!-- Node1&#45;&gt;Node3 -->
<g id="edge2" class="edge">
<title>Node1&#45;&gt;Node3</title>
<path fill="none" stroke="midnightblue" d="M371.86,-303.74C321.62,-292.98 250.58,-277.78 203.33,-267.67"/>
<polygon fill="midnightblue" stroke="midnightblue" points="203.84,-264.2 193.33,-265.53 202.38,-271.04 203.84,-264.2"/>
</g>
<!-- Node4 -->
<g id="node4" class="node">
<title>Node4</title>
<g id="a_node4"><a xlink:title=" ">
<polygon fill="none" stroke="#bfbfbf" points="822,-56.5 822,-75.5 875,-75.5 875,-56.5 822,-56.5"/>
<text text-anchor="middle" x="848.5" y="-63.5" font-family="Helvetica,sans-Serif" font-size="10.00">QString</text>
</a>
</g>
</g>
<!-- Node1&#45;&gt;Node4 -->
<g id="edge3" class="edge">
<title>Node1&#45;&gt;Node4</title>
<path fill="none" stroke="midnightblue" d="M481.1,-302.5C540.78,-284.76 643.2,-251.46 725.5,-210 773.61,-185.77 794.62,-186.42 826.5,-143 838.92,-126.09 844.35,-102.3 846.71,-85.86"/>
<polygon fill="midnightblue" stroke="midnightblue" points="850.2,-86.18 847.9,-75.83 843.25,-85.35 850.2,-86.18"/>
</g>
<!-- Node5 -->
<g id="node5" class="node">
<title>Node5</title>
<g id="a_node5"><a xlink:title=" ">
<polygon fill="none" stroke="#bfbfbf" points="347,-0.5 347,-19.5 402,-19.5 402,-0.5 347,-0.5"/>
<text text-anchor="middle" x="374.5" y="-7.5" font-family="Helvetica,sans-Serif" font-size="10.00">QVector</text>
</a>
</g>
</g>
<!-- Node1&#45;&gt;Node5 -->
<g id="edge4" class="edge">
<title>Node1&#45;&gt;Node5</title>
<path fill="none" stroke="midnightblue" d="M371.74,-306.61C312.49,-292.98 230.5,-262.1 230.5,-195.5 230.5,-195.5 230.5,-195.5 230.5,-126.5 230.5,-71.79 294.53,-38.69 337.19,-22.7"/>
<polygon fill="midnightblue" stroke="midnightblue" points="338.51,-25.95 346.74,-19.28 336.14,-19.36 338.51,-25.95"/>
</g>
<!-- Node6 -->
<g id="node6" class="node">
<title>Node6</title>
<g id="a_node6"><a xlink:href="constants_8h.html" target="_top" xlink:title=" ">
<polygon fill="none" stroke="black" points="431.5,-56.5 431.5,-75.5 521.5,-75.5 521.5,-56.5 431.5,-56.5"/>
<text text-anchor="middle" x="476.5" y="-63.5" font-family="Helvetica,sans-Serif" font-size="10.00">src/constants.h</text>
</a>
</g>
</g>
<!-- Node1&#45;&gt;Node6 -->
<g id="edge5" class="edge">
<title>Node1&#45;&gt;Node6</title>
<path fill="none" stroke="midnightblue" d="M394.55,-302.38C342.28,-280.1 256.35,-233.66 287.5,-179 318.73,-124.2 388.47,-93.46 433.95,-78.57"/>
<polygon fill="midnightblue" stroke="midnightblue" points="435.06,-81.89 443.54,-75.54 432.95,-75.21 435.06,-81.89"/>
</g>
<!-- Node7 -->
<g id="node7" class="node">
<title>Node7</title>
<g id="a_node7"><a xlink:href="screen__game_8h.html" target="_top" xlink:title=" ">
<polygon fill="none" stroke="black" points="1082,-179.5 1082,-209.5 1199,-209.5 1199,-179.5 1082,-179.5"/>
<text text-anchor="start" x="1090" y="-197.5" font-family="Helvetica,sans-Serif" font-size="10.00">src/gui/screen_game</text>
<text text-anchor="middle" x="1140.5" y="-186.5" font-family="Helvetica,sans-Serif" font-size="10.00">/screen_game.h</text>
</a>
</g>
</g>
<!-- Node1&#45;&gt;Node7 -->
<g id="edge7" class="edge">
<title>Node1&#45;&gt;Node7</title>
<path fill="none" stroke="midnightblue" d="M491.2,-311.93C574.41,-305 729.77,-290.05 860.5,-266 938.4,-251.67 1026.81,-228.17 1083.08,-212.28"/>
<polygon fill="midnightblue" stroke="midnightblue" points="1084.19,-215.6 1092.85,-209.5 1082.28,-208.87 1084.19,-215.6"/>
</g>
<!-- Node33 -->
<g id="node33" class="node">
<title>Node33</title>
<g id="a_node33"><a xlink:href="screen__liderboard_8h.html" target="_top" xlink:title=" ">
<polygon fill="none" stroke="black" points="443,-179.5 443,-209.5 582,-209.5 582,-179.5 443,-179.5"/>
<text text-anchor="start" x="451" y="-197.5" font-family="Helvetica,sans-Serif" font-size="10.00">src/gui/screen_liderboard</text>
<text text-anchor="middle" x="512.5" y="-186.5" font-family="Helvetica,sans-Serif" font-size="10.00">/screen_liderboard.h</text>
</a>
</g>
</g>
<!-- Node1&#45;&gt;Node33 -->
<g id="edge46" class="edge">
<title>Node1&#45;&gt;Node33</title>
<path fill="none" stroke="midnightblue" d="M441.11,-302.14C454.99,-281.4 480.8,-242.85 497.29,-218.22"/>
<polygon fill="midnightblue" stroke="midnightblue" points="500.25,-220.09 502.9,-209.84 494.43,-216.2 500.25,-220.09"/>
</g>
<!-- Node34 -->
<g id="node34" class="node">
<title>Node34</title>
<g id="a_node34"><a xlink:href="screen__menu_8h.html" target="_top" xlink:title=" ">
<polygon fill="none" stroke="black" points="600,-179.5 600,-209.5 717,-209.5 717,-179.5 600,-179.5"/>
<text text-anchor="start" x="608" y="-197.5" font-family="Helvetica,sans-Serif" font-size="10.00">src/gui/screen_menu</text>
<text text-anchor="middle" x="658.5" y="-186.5" font-family="Helvetica,sans-Serif" font-size="10.00">/screen_menu.h</text>
</a>
</g>
</g>
<!-- Node1&#45;&gt;Node34 -->
<g id="edge49" class="edge">
<title>Node1&#45;&gt;Node34</title>
<path fill="none" stroke="midnightblue" d="M457.98,-302.38C498.91,-280.57 577.54,-238.65 623.23,-214.3"/>
<polygon fill="midnightblue" stroke="midnightblue" points="625.01,-217.32 632.18,-209.53 621.71,-211.14 625.01,-217.32"/>
</g>
<!-- Node35 -->
<g id="node35" class="node">
<title>Node35</title>
<g id="a_node35"><a xlink:href="screen__settings_8h.html" target="_top" xlink:title=" ">
<polygon fill="none" stroke="black" points="296.5,-179.5 296.5,-209.5 424.5,-209.5 424.5,-179.5 296.5,-179.5"/>
<text text-anchor="start" x="304.5" y="-197.5" font-family="Helvetica,sans-Serif" font-size="10.00">src/gui/screen_settings</text>
<text text-anchor="middle" x="360.5" y="-186.5" font-family="Helvetica,sans-Serif" font-size="10.00">/screen_settings.h</text>
</a>
</g>
</g>
<!-- Node1&#45;&gt;Node35 -->
<g id="edge52" class="edge">
<title>Node1&#45;&gt;Node35</title>
<path fill="none" stroke="midnightblue" d="M423.08,-302.14C410.96,-281.5 388.48,-243.19 374.02,-218.55"/>
<polygon fill="midnightblue" stroke="midnightblue" points="376.99,-216.69 368.91,-209.84 370.95,-220.23 376.99,-216.69"/>
</g>
<!-- Node36 -->
<g id="node36" class="node">
<title>Node36</title>
<g id="a_node36"><a xlink:href="engine_8h.html" target="_top" xlink:title=" ">
<polygon fill="none" stroke="black" points="1330.5,-246.5 1330.5,-265.5 1468.5,-265.5 1468.5,-246.5 1330.5,-246.5"/>
<text text-anchor="middle" x="1399.5" y="-253.5" font-family="Helvetica,sans-Serif" font-size="10.00">src/logic/engine/engine.h</text>
</a>
</g>
</g>
<!-- Node1&#45;&gt;Node36 -->
<g id="edge55" class="edge">
<title>Node1&#45;&gt;Node36</title>
<path fill="none" stroke="midnightblue" d="M491.32,-312.82C658.59,-302.54 1131.18,-273.49 1320.06,-261.88"/>
<polygon fill="midnightblue" stroke="midnightblue" points="1320.42,-265.37 1330.19,-261.26 1319.99,-258.38 1320.42,-265.37"/>
</g>
<!-- Node6&#45;&gt;Node5 -->
<g id="edge6" class="edge">
<title>Node6&#45;&gt;Node5</title>
<path fill="none" stroke="midnightblue" d="M460.11,-56.32C443.83,-47.7 418.63,-34.36 399.78,-24.39"/>
<polygon fill="midnightblue" stroke="midnightblue" points="401.32,-21.24 390.85,-19.65 398.05,-27.43 401.32,-21.24"/>
</g>
<!-- Node7&#45;&gt;Node4 -->
<g id="edge15" class="edge">
<title>Node7&#45;&gt;Node4</title>
<path fill="none" stroke="midnightblue" d="M1081.79,-192.37C1031.17,-188.87 958.01,-177.54 904.5,-143 882.4,-128.73 866,-102.48 856.84,-84.88"/>
<polygon fill="midnightblue" stroke="midnightblue" points="859.86,-83.09 852.29,-75.67 853.58,-86.19 859.86,-83.09"/>
</g>
<!-- Node7&#45;&gt;Node6 -->
<g id="edge18" class="edge">
<title>Node7&#45;&gt;Node6</title>
<path fill="none" stroke="midnightblue" d="M1081.64,-191.7C968.24,-187.55 723.85,-175.07 646.5,-143 626.37,-134.65 627.56,-122.57 608.5,-112 581.37,-96.95 548.33,-85.69 522.09,-78.2"/>
<polygon fill="midnightblue" stroke="midnightblue" points="522.97,-74.81 512.4,-75.52 521.1,-81.56 522.97,-74.81"/>
</g>
<!-- Node8 -->
<g id="node8" class="node">
<title>Node8</title>
<g id="a_node8"><a xlink:title=" ">
<polygon fill="none" stroke="#bfbfbf" points="1212.5,-118 1212.5,-137 1250.5,-137 1250.5,-118 1212.5,-118"/>
<text text-anchor="middle" x="1231.5" y="-125" font-family="Helvetica,sans-Serif" font-size="10.00">QDir</text>
</a>
</g>
</g>
<!-- Node7&#45;&gt;Node8 -->
<g id="edge8" class="edge">
<title>Node7&#45;&gt;Node8</title>
<path fill="none" stroke="midnightblue" d="M1160.25,-179.4C1175.36,-168.6 1196.14,-153.76 1211.36,-142.89"/>
<polygon fill="midnightblue" stroke="midnightblue" points="1213.49,-145.67 1219.59,-137.01 1209.42,-139.97 1213.49,-145.67"/>
</g>
<!-- Node9 -->
<g id="node9" class="node">
<title>Node9</title>
<g id="a_node9"><a xlink:title=" ">
<polygon fill="none" stroke="#bfbfbf" points="1268.5,-118 1268.5,-137 1402.5,-137 1402.5,-118 1268.5,-118"/>
<text text-anchor="middle" x="1335.5" y="-125" font-family="Helvetica,sans-Serif" font-size="10.00">QGraphicsColorizeEffect</text>
</a>
</g>
</g>
<!-- Node7&#45;&gt;Node9 -->
<g id="edge9" class="edge">
<title>Node7&#45;&gt;Node9</title>
<path fill="none" stroke="midnightblue" d="M1182.81,-179.4C1217.94,-167.69 1267.31,-151.23 1300.3,-140.23"/>
<polygon fill="midnightblue" stroke="midnightblue" points="1301.6,-143.49 1309.98,-137.01 1299.39,-136.85 1301.6,-143.49"/>
</g>
<!-- Node10 -->
<g id="node10" class="node">
<title>Node10</title>
<g id="a_node10"><a xlink:title=" ">
<polygon fill="none" stroke="#bfbfbf" points="1420.5,-118 1420.5,-137 1542.5,-137 1542.5,-118 1420.5,-118"/>
<text text-anchor="middle" x="1481.5" y="-125" font-family="Helvetica,sans-Serif" font-size="10.00">QGraphicsEllipseItem</text>
</a>
</g>
</g>
<!-- Node7&#45;&gt;Node10 -->
<g id="edge10" class="edge">
<title>Node7&#45;&gt;Node10</title>
<path fill="none" stroke="midnightblue" d="M1199.24,-182.9C1254.18,-172.91 1338.48,-157.36 1411.5,-143 1417.73,-141.77 1424.27,-140.46 1430.75,-139.14"/>
<polygon fill="midnightblue" stroke="midnightblue" points="1431.72,-142.51 1440.81,-137.07 1430.31,-135.65 1431.72,-142.51"/>
</g>
<!-- Node11 -->
<g id="node11" class="node">
<title>Node11</title>
<g id="a_node11"><a xlink:title=" ">
<polygon fill="none" stroke="#bfbfbf" points="1560.5,-118 1560.5,-137 1700.5,-137 1700.5,-118 1560.5,-118"/>
<text text-anchor="middle" x="1630.5" y="-125" font-family="Helvetica,sans-Serif" font-size="10.00">QGraphicsItemAnimation</text>
</a>
</g>
</g>
<!-- Node7&#45;&gt;Node11 -->
<g id="edge11" class="edge">
<title>Node7&#45;&gt;Node11</title>
<path fill="none" stroke="midnightblue" d="M1199.18,-187.4C1279.07,-178.83 1426.43,-162.14 1551.5,-143 1559.63,-141.75 1568.21,-140.31 1576.61,-138.83"/>
<polygon fill="midnightblue" stroke="midnightblue" points="1577.48,-142.23 1586.7,-137.02 1576.24,-135.34 1577.48,-142.23"/>
</g>
<!-- Node12 -->
<g id="node12" class="node">
<title>Node12</title>
<g id="a_node12"><a xlink:title=" ">
<polygon fill="none" stroke="#bfbfbf" points="539.5,-56.5 539.5,-75.5 635.5,-75.5 635.5,-56.5 539.5,-56.5"/>
<text text-anchor="middle" x="587.5" y="-63.5" font-family="Helvetica,sans-Serif" font-size="10.00">QGraphicsScene</text>
</a>
</g>
</g>
<!-- Node7&#45;&gt;Node12 -->
<g id="edge12" class="edge">
<title>Node7&#45;&gt;Node12</title>
<path fill="none" stroke="midnightblue" d="M1081.99,-190.75C976.66,-185.18 759.58,-170.66 689.5,-143 684.82,-141.15 635.16,-103.46 606.9,-81.86"/>
<polygon fill="midnightblue" stroke="midnightblue" points="608.96,-79.03 598.89,-75.73 604.7,-84.59 608.96,-79.03"/>
</g>
<!-- Node13 -->
<g id="node13" class="node">
<title>Node13</title>
<g id="a_node13"><a xlink:title=" ">
<polygon fill="none" stroke="#bfbfbf" points="1172,-56.5 1172,-75.5 1279,-75.5 1279,-56.5 1172,-56.5"/>
<text text-anchor="middle" x="1225.5" y="-63.5" font-family="Helvetica,sans-Serif" font-size="10.00">QGraphicsSvgItem</text>
</a>
</g>
</g>
<!-- Node7&#45;&gt;Node13 -->
<g id="edge13" class="edge">
<title>Node7&#45;&gt;Node13</title>
<path fill="none" stroke="midnightblue" d="M1116.83,-179.45C1092.61,-163.28 1060.84,-135.87 1078.5,-112 1089.34,-97.34 1130.5,-85.51 1166.51,-77.66"/>
<polygon fill="midnightblue" stroke="midnightblue" points="1167.44,-81.04 1176.5,-75.56 1166,-74.19 1167.44,-81.04"/>
</g>
<!-- Node14 -->
<g id="node14" class="node">
<title>Node14</title>
<g id="a_node14"><a xlink:title=" ">
<polygon fill="none" stroke="#bfbfbf" points="1718.5,-118 1718.5,-137 1798.5,-137 1798.5,-118 1718.5,-118"/>
<text text-anchor="middle" x="1758.5" y="-125" font-family="Helvetica,sans-Serif" font-size="10.00">QInputDialog</text>
</a>
</g>
</g>
<!-- Node7&#45;&gt;Node14 -->
<g id="edge14" class="edge">
<title>Node7&#45;&gt;Node14</title>
<path fill="none" stroke="midnightblue" d="M1199.19,-192.14C1302.98,-188.87 1525.37,-178.05 1709.5,-143 1714.03,-142.14 1718.75,-141.03 1723.39,-139.8"/>
<polygon fill="midnightblue" stroke="midnightblue" points="1724.63,-143.09 1733.3,-137 1722.73,-136.35 1724.63,-143.09"/>
</g>
<!-- Node15 -->
<g id="node15" class="node">
<title>Node15</title>
<g id="a_node15"><a xlink:title=" ">
<polygon fill="none" stroke="#bfbfbf" points="1817,-118 1817,-137 1886,-137 1886,-118 1817,-118"/>
<text text-anchor="middle" x="1851.5" y="-125" font-family="Helvetica,sans-Serif" font-size="10.00">QTimeLine</text>
</a>
</g>
</g>
<!-- Node7&#45;&gt;Node15 -->
<g id="edge16" class="edge">
<title>Node7&#45;&gt;Node15</title>
<path fill="none" stroke="midnightblue" d="M1199.14,-193.81C1316.05,-193.39 1585.99,-187.2 1807.5,-143 1811.38,-142.23 1815.4,-141.21 1819.35,-140.08"/>
<polygon fill="midnightblue" stroke="midnightblue" points="1820.44,-143.41 1828.95,-137.1 1818.36,-136.73 1820.44,-143.41"/>
</g>
<!-- Node16 -->
<g id="node16" class="node">
<title>Node16</title>
<g id="a_node16"><a xlink:title=" ">
<polygon fill="none" stroke="#bfbfbf" points="469,-118 469,-137 528,-137 528,-118 469,-118"/>
<text text-anchor="middle" x="498.5" y="-125" font-family="Helvetica,sans-Serif" font-size="10.00">QWidget</text>
</a>
</g>
</g>
<!-- Node7&#45;&gt;Node16 -->
<g id="edge17" class="edge">
<title>Node7&#45;&gt;Node16</title>
<path fill="none" stroke="midnightblue" d="M1081.74,-188.27C985.06,-179.57 786.4,-161.26 618.5,-143 591.73,-140.09 561.64,-136.45 538.28,-133.55"/>
<polygon fill="midnightblue" stroke="midnightblue" points="538.42,-130.04 528.07,-132.27 537.56,-136.98 538.42,-130.04"/>
</g>
<!-- Node17 -->
<g id="node17" class="node">
<title>Node17</title>
<g id="a_node17"><a xlink:href="gui__point_8h.html" target="_top" xlink:title=" ">
<polygon fill="none" stroke="black" points="1904,-112.5 1904,-142.5 2019,-142.5 2019,-112.5 1904,-112.5"/>
<text text-anchor="start" x="1912" y="-130.5" font-family="Helvetica,sans-Serif" font-size="10.00">src/gui/gui_point/gui</text>
<text text-anchor="middle" x="1961.5" y="-119.5" font-family="Helvetica,sans-Serif" font-size="10.00">_point.h</text>
</a>
</g>
</g>
<!-- Node7&#45;&gt;Node17 -->
<g id="edge19" class="edge">
<title>Node7&#45;&gt;Node17</title>
<path fill="none" stroke="midnightblue" d="M1199.07,-192.56C1324.77,-189.89 1629.79,-179.99 1893.83,-143.1"/>
<polygon fill="midnightblue" stroke="midnightblue" points="1894.59,-146.53 1904,-141.66 1893.61,-139.6 1894.59,-146.53"/>
</g>
<!-- Node23 -->
<g id="node23" class="node">
<title>Node23</title>
<g id="a_node23"><a xlink:href="gui__scene_8h.html" target="_top" xlink:title=" ">
<polygon fill="none" stroke="black" points="699,-112.5 699,-142.5 818,-142.5 818,-112.5 699,-112.5"/>
<text text-anchor="start" x="707" y="-130.5" font-family="Helvetica,sans-Serif" font-size="10.00">src/gui/gui_scene/gui</text>
<text text-anchor="middle" x="758.5" y="-119.5" font-family="Helvetica,sans-Serif" font-size="10.00">_scene.h</text>
</a>
</g>
</g>
<!-- Node7&#45;&gt;Node23 -->
<g id="edge25" class="edge">
<title>Node7&#45;&gt;Node23</title>
<path fill="none" stroke="midnightblue" d="M1081.65,-183.49C1013.29,-171.85 900.63,-152.68 828.02,-140.33"/>
<polygon fill="midnightblue" stroke="midnightblue" points="828.49,-136.86 818.05,-138.63 827.32,-143.76 828.49,-136.86"/>
</g>
<!-- Node26 -->
<g id="node26" class="node">
<title>Node26</title>
<g id="a_node26"><a xlink:href="gui__win_8h.html" target="_top" xlink:title=" ">
<polygon fill="none" stroke="black" points="1087,-112.5 1087,-142.5 1194,-142.5 1194,-112.5 1087,-112.5"/>
<text text-anchor="start" x="1095" y="-130.5" font-family="Helvetica,sans-Serif" font-size="10.00">src/gui/gui_win/gui</text>
<text text-anchor="middle" x="1140.5" y="-119.5" font-family="Helvetica,sans-Serif" font-size="10.00">_win.h</text>
</a>
</g>
</g>
<!-- Node7&#45;&gt;Node26 -->
<g id="edge30" class="edge">
<title>Node7&#45;&gt;Node26</title>
<path fill="none" stroke="midnightblue" d="M1140.5,-179.4C1140.5,-171.64 1140.5,-161.81 1140.5,-152.86"/>
<polygon fill="midnightblue" stroke="midnightblue" points="1144,-152.58 1140.5,-142.58 1137,-152.58 1144,-152.58"/>
</g>
<!-- Node28 -->
<g id="node28" class="node">
<title>Node28</title>
<g id="a_node28"><a xlink:href="gui__advantage__bar_8h.html" target="_top" xlink:title=" ">
<polygon fill="none" stroke="black" points="2037,-112.5 2037,-142.5 2158,-142.5 2158,-112.5 2037,-112.5"/>
<text text-anchor="start" x="2045" y="-130.5" font-family="Helvetica,sans-Serif" font-size="10.00">src/gui/screen_game</text>
<text text-anchor="middle" x="2097.5" y="-119.5" font-family="Helvetica,sans-Serif" font-size="10.00">/gui_advantage_bar.h</text>
</a>
</g>
</g>
<!-- Node7&#45;&gt;Node28 -->
<g id="edge36" class="edge">
<title>Node7&#45;&gt;Node28</title>
<path fill="none" stroke="midnightblue" d="M1199.23,-193.2C1340.39,-191.84 1709.9,-184.38 2026.34,-143.16"/>
<polygon fill="midnightblue" stroke="midnightblue" points="2027.18,-146.58 2036.63,-141.81 2026.26,-139.64 2027.18,-146.58"/>
</g>
<!-- Node31 -->
<g id="node31" class="node">
<title>Node31</title>
<g id="a_node31"><a xlink:href="gui__figure_8h.html" target="_top" xlink:title=" ">
<polygon fill="none" stroke="black" points="913,-112.5 913,-142.5 1030,-142.5 1030,-112.5 913,-112.5"/>
<text text-anchor="start" x="921" y="-130.5" font-family="Helvetica,sans-Serif" font-size="10.00">src/gui/screen_game</text>
<text text-anchor="middle" x="971.5" y="-119.5" font-family="Helvetica,sans-Serif" font-size="10.00">/gui_figure.h</text>
</a>
</g>
</g>
<!-- Node7&#45;&gt;Node31 -->
<g id="edge40" class="edge">
<title>Node7&#45;&gt;Node31</title>
<path fill="none" stroke="midnightblue" d="M1103.83,-179.4C1078.58,-169.69 1044.84,-156.71 1017.75,-146.29"/>
<polygon fill="midnightblue" stroke="midnightblue" points="1018.69,-142.9 1008.1,-142.58 1016.18,-149.43 1018.69,-142.9"/>
</g>
<!-- Node18 -->
<g id="node18" class="node">
<title>Node18</title>
<g id="a_node18"><a xlink:title=" ">
<polygon fill="none" stroke="#bfbfbf" points="1843.5,-56.5 1843.5,-75.5 1941.5,-75.5 1941.5,-56.5 1843.5,-56.5"/>
<text text-anchor="middle" x="1892.5" y="-63.5" font-family="Helvetica,sans-Serif" font-size="10.00">QGraphicsObject</text>
</a>
</g>
</g>
<!-- Node17&#45;&gt;Node18 -->
<g id="edge20" class="edge">
<title>Node17&#45;&gt;Node18</title>
<path fill="none" stroke="midnightblue" d="M1945.15,-112.4C1934.6,-103.31 1920.9,-91.49 1910.12,-82.19"/>
<polygon fill="midnightblue" stroke="midnightblue" points="1912.4,-79.54 1902.54,-75.66 1907.83,-84.84 1912.4,-79.54"/>
</g>
<!-- Node19 -->
<g id="node19" class="node">
<title>Node19</title>
<g id="a_node19"><a xlink:title=" ">
<polygon fill="none" stroke="#bfbfbf" points="1540.5,-56.5 1540.5,-75.5 1664.5,-75.5 1664.5,-56.5 1540.5,-56.5"/>
<text text-anchor="middle" x="1602.5" y="-63.5" font-family="Helvetica,sans-Serif" font-size="10.00">QGraphicsSceneEvent</text>
</a>
</g>
</g>
<!-- Node17&#45;&gt;Node19 -->
<g id="edge21" class="edge">
<title>Node17&#45;&gt;Node19</title>
<path fill="none" stroke="midnightblue" d="M1903.95,-113.63C1901.1,-113.06 1898.27,-112.52 1895.5,-112 1820.53,-98.02 1734.19,-85.15 1674.75,-76.79"/>
<polygon fill="midnightblue" stroke="midnightblue" points="1675.1,-73.3 1664.71,-75.38 1674.13,-80.23 1675.1,-73.3"/>
</g>
<!-- Node20 -->
<g id="node20" class="node">
<title>Node20</title>
<g id="a_node20"><a xlink:title=" ">
<polygon fill="none" stroke="#bfbfbf" points="1959.5,-56.5 1959.5,-75.5 2017.5,-75.5 2017.5,-56.5 1959.5,-56.5"/>
<text text-anchor="middle" x="1988.5" y="-63.5" font-family="Helvetica,sans-Serif" font-size="10.00">QPainter</text>
</a>
</g>
</g>
<!-- Node17&#45;&gt;Node20 -->
<g id="edge22" class="edge">
<title>Node17&#45;&gt;Node20</title>
<path fill="none" stroke="midnightblue" d="M1967.9,-112.4C1971.62,-104.2 1976.35,-93.78 1980.33,-84.99"/>
<polygon fill="midnightblue" stroke="midnightblue" points="1983.63,-86.21 1984.57,-75.66 1977.25,-83.32 1983.63,-86.21"/>
</g>
<!-- Node21 -->
<g id="node21" class="node">
<title>Node21</title>
<g id="a_node21"><a xlink:href="utils_8h.html" target="_top" xlink:title=" ">
<polygon fill="none" stroke="black" points="1297.5,-56.5 1297.5,-75.5 1361.5,-75.5 1361.5,-56.5 1297.5,-56.5"/>
<text text-anchor="middle" x="1329.5" y="-63.5" font-family="Helvetica,sans-Serif" font-size="10.00">src/utils.h</text>
</a>
</g>
</g>
<!-- Node17&#45;&gt;Node21 -->
<g id="edge23" class="edge">
<title>Node17&#45;&gt;Node21</title>
<path fill="none" stroke="midnightblue" d="M1903.99,-113.38C1901.13,-112.88 1898.28,-112.41 1895.5,-112 1700.97,-83.04 1465.86,-71.89 1371.59,-68.38"/>
<polygon fill="midnightblue" stroke="midnightblue" points="1371.71,-64.88 1361.59,-68.01 1371.45,-71.87 1371.71,-64.88"/>
</g>
<!-- Node22 -->
<g id="node22" class="node">
<title>Node22</title>
<g id="a_node22"><a xlink:title=" ">
<polygon fill="none" stroke="#bfbfbf" points="1307,-0.5 1307,-19.5 1352,-19.5 1352,-0.5 1307,-0.5"/>
<text text-anchor="middle" x="1329.5" y="-7.5" font-family="Helvetica,sans-Serif" font-size="10.00">utility</text>
</a>
</g>
</g>
<!-- Node21&#45;&gt;Node22 -->
<g id="edge24" class="edge">
<title>Node21&#45;&gt;Node22</title>
<path fill="none" stroke="midnightblue" d="M1329.5,-56.08C1329.5,-49.01 1329.5,-38.86 1329.5,-29.99"/>
<polygon fill="midnightblue" stroke="midnightblue" points="1333,-29.75 1329.5,-19.75 1326,-29.75 1333,-29.75"/>
</g>
<!-- Node23&#45;&gt;Node12 -->
<g id="edge26" class="edge">
<title>Node23&#45;&gt;Node12</title>
<path fill="none" stroke="midnightblue" d="M717.98,-112.4C688.77,-102.24 649.78,-88.67 622.05,-79.02"/>
<polygon fill="midnightblue" stroke="midnightblue" points="622.98,-75.64 612.38,-75.66 620.68,-82.25 622.98,-75.64"/>
</g>
<!-- Node23&#45;&gt;Node21 -->
<g id="edge29" class="edge">
<title>Node23&#45;&gt;Node21</title>
<path fill="none" stroke="midnightblue" d="M818.16,-120.5C844.61,-117.86 876.1,-114.74 904.5,-112 1071.87,-95.84 1117.41,-102.17 1287.3,-76.01"/>
<polygon fill="midnightblue" stroke="midnightblue" points="1288,-79.44 1297.34,-74.45 1286.92,-72.53 1288,-79.44"/>
</g>
<!-- Node24 -->
<g id="node24" class="node">
<title>Node24</title>
<g id="a_node24"><a xlink:title=" ">
<polygon fill="none" stroke="#bfbfbf" points="653.5,-56.5 653.5,-75.5 737.5,-75.5 737.5,-56.5 653.5,-56.5"/>
<text text-anchor="middle" x="695.5" y="-63.5" font-family="Helvetica,sans-Serif" font-size="10.00">QMouseEvent</text>
</a>
</g>
</g>
<!-- Node23&#45;&gt;Node24 -->
<g id="edge27" class="edge">
<title>Node23&#45;&gt;Node24</title>
<path fill="none" stroke="midnightblue" d="M743.57,-112.4C734.13,-103.49 721.92,-91.95 712.17,-82.74"/>
<polygon fill="midnightblue" stroke="midnightblue" points="714.34,-79.98 704.67,-75.66 709.53,-85.07 714.34,-79.98"/>
</g>
<!-- Node25 -->
<g id="node25" class="node">
<title>Node25</title>
<g id="a_node25"><a xlink:title=" ">
<polygon fill="none" stroke="#bfbfbf" points="755,-56.5 755,-75.5 804,-75.5 804,-56.5 755,-56.5"/>
<text text-anchor="middle" x="779.5" y="-63.5" font-family="Helvetica,sans-Serif" font-size="10.00">QPoint</text>
</a>
</g>
</g>
<!-- Node23&#45;&gt;Node25 -->
<g id="edge28" class="edge">
<title>Node23&#45;&gt;Node25</title>
<path fill="none" stroke="midnightblue" d="M763.48,-112.4C766.34,-104.29 769.97,-94.01 773.05,-85.28"/>
<polygon fill="midnightblue" stroke="midnightblue" points="776.42,-86.25 776.44,-75.66 769.82,-83.92 776.42,-86.25"/>
</g>
<!-- Node26&#45;&gt;Node4 -->
<g id="edge33" class="edge">
<title>Node26&#45;&gt;Node4</title>
<path fill="none" stroke="midnightblue" d="M1086.89,-116.74C1037.21,-107.5 961.03,-92.89 885.38,-76.11"/>
<polygon fill="midnightblue" stroke="midnightblue" points="885.72,-72.6 875.2,-73.83 884.2,-79.43 885.72,-72.6"/>
</g>
<!-- Node26&#45;&gt;Node13 -->
<g id="edge32" class="edge">
<title>Node26&#45;&gt;Node13</title>
<path fill="none" stroke="midnightblue" d="M1160.64,-112.4C1173.89,-103.13 1191.18,-91.03 1204.58,-81.65"/>
<polygon fill="midnightblue" stroke="midnightblue" points="1206.95,-84.26 1213.13,-75.66 1202.93,-78.53 1206.95,-84.26"/>
</g>
<!-- Node26&#45;&gt;Node19 -->
<g id="edge31" class="edge">
<title>Node26&#45;&gt;Node19</title>
<path fill="none" stroke="midnightblue" d="M1194.03,-113.74C1197.23,-113.12 1200.4,-112.53 1203.5,-112 1317,-92.6 1450.16,-79.5 1530.34,-72.65"/>
<polygon fill="midnightblue" stroke="midnightblue" points="1530.66,-76.13 1540.33,-71.8 1530.07,-69.16 1530.66,-76.13"/>
</g>
<!-- Node26&#45;&gt;Node21 -->
<g id="edge35" class="edge">
<title>Node26&#45;&gt;Node21</title>
<path fill="none" stroke="midnightblue" d="M1185.29,-112.4C1217.95,-102.12 1261.68,-88.35 1292.39,-78.68"/>
<polygon fill="midnightblue" stroke="midnightblue" points="1293.79,-81.91 1302.27,-75.57 1291.69,-75.24 1293.79,-81.91"/>
</g>
<!-- Node27 -->
<g id="node27" class="node">
<title>Node27</title>
<g id="a_node27"><a xlink:title=" ">
<polygon fill="none" stroke="#bfbfbf" points="1067.5,-56.5 1067.5,-75.5 1153.5,-75.5 1153.5,-56.5 1067.5,-56.5"/>
<text text-anchor="middle" x="1110.5" y="-63.5" font-family="Helvetica,sans-Serif" font-size="10.00">QSvgRenderer</text>
</a>
</g>
</g>
<!-- Node26&#45;&gt;Node27 -->
<g id="edge34" class="edge">
<title>Node26&#45;&gt;Node27</title>
<path fill="none" stroke="midnightblue" d="M1133.39,-112.4C1129.21,-104.11 1123.89,-93.55 1119.43,-84.71"/>
<polygon fill="midnightblue" stroke="midnightblue" points="1122.49,-83.01 1114.87,-75.66 1116.24,-86.16 1122.49,-83.01"/>
</g>
<!-- Node28&#45;&gt;Node20 -->
<g id="edge38" class="edge">
<title>Node28&#45;&gt;Node20</title>
<path fill="none" stroke="midnightblue" d="M2071.67,-112.4C2054.03,-102.77 2030.8,-90.09 2013.37,-80.58"/>
<polygon fill="midnightblue" stroke="midnightblue" points="2014.81,-77.38 2004.36,-75.66 2011.46,-83.52 2014.81,-77.38"/>
</g>
<!-- Node29 -->
<g id="node29" class="node">
<title>Node29</title>
<g id="a_node29"><a xlink:title=" ">
<polygon fill="none" stroke="#bfbfbf" points="2036,-56.5 2036,-75.5 2125,-75.5 2125,-56.5 2036,-56.5"/>
<text text-anchor="middle" x="2080.5" y="-63.5" font-family="Helvetica,sans-Serif" font-size="10.00">QGraphicsItem</text>
</a>
</g>
</g>
<!-- Node28&#45;&gt;Node29 -->
<g id="edge37" class="edge">
<title>Node28&#45;&gt;Node29</title>
<path fill="none" stroke="midnightblue" d="M2093.47,-112.4C2091.15,-104.29 2088.22,-94.01 2085.72,-85.28"/>
<polygon fill="midnightblue" stroke="midnightblue" points="2089.09,-84.31 2082.97,-75.66 2082.36,-86.23 2089.09,-84.31"/>
</g>
<!-- Node30 -->
<g id="node30" class="node">
<title>Node30</title>
<g id="a_node30"><a xlink:title=" ">
<polygon fill="none" stroke="#bfbfbf" points="2142.5,-56.5 2142.5,-75.5 2184.5,-75.5 2184.5,-56.5 2142.5,-56.5"/>
<text text-anchor="middle" x="2163.5" y="-63.5" font-family="Helvetica,sans-Serif" font-size="10.00">QPen</text>
</a>
</g>
</g>
<!-- Node28&#45;&gt;Node30 -->
<g id="edge39" class="edge">
<title>Node28&#45;&gt;Node30</title>
<path fill="none" stroke="midnightblue" d="M2113.14,-112.4C2123.13,-103.4 2136.08,-91.72 2146.35,-82.47"/>
<polygon fill="midnightblue" stroke="midnightblue" points="2148.81,-84.95 2153.9,-75.66 2144.13,-79.75 2148.81,-84.95"/>
</g>
<!-- Node31&#45;&gt;Node6 -->
<g id="edge44" class="edge">
<title>Node31&#45;&gt;Node6</title>
<path fill="none" stroke="midnightblue" d="M912.88,-120.75C830.26,-112.43 674.61,-95.99 531.81,-76.12"/>
<polygon fill="midnightblue" stroke="midnightblue" points="531.94,-72.61 521.55,-74.69 530.97,-79.54 531.94,-72.61"/>
</g>
<!-- Node31&#45;&gt;Node13 -->
<g id="edge42" class="edge">
<title>Node31&#45;&gt;Node13</title>
<path fill="none" stroke="midnightblue" d="M1030.09,-112.77C1075.43,-102.15 1137.36,-87.65 1179.25,-77.83"/>
<polygon fill="midnightblue" stroke="midnightblue" points="1180.25,-81.2 1189.18,-75.51 1178.65,-74.38 1180.25,-81.2"/>
</g>
<!-- Node31&#45;&gt;Node21 -->
<g id="edge45" class="edge">
<title>Node31&#45;&gt;Node21</title>
<path fill="none" stroke="midnightblue" d="M1030.1,-118.21C1091.74,-109.25 1191.78,-94.05 1287.47,-76.11"/>
<polygon fill="midnightblue" stroke="midnightblue" points="1288.13,-79.55 1297.31,-74.25 1286.83,-72.67 1288.13,-79.55"/>
</g>
<!-- Node31&#45;&gt;Node27 -->
<g id="edge43" class="edge">
<title>Node31&#45;&gt;Node27</title>
<path fill="none" stroke="midnightblue" d="M1004.44,-112.4C1027.66,-102.46 1058.49,-89.26 1080.92,-79.66"/>
<polygon fill="midnightblue" stroke="midnightblue" points="1082.46,-82.81 1090.27,-75.66 1079.7,-76.38 1082.46,-82.81"/>
</g>
<!-- Node32 -->
<g id="node32" class="node">
<title>Node32</title>
<g id="a_node32"><a xlink:title=" ">
<polygon fill="none" stroke="#bfbfbf" points="893.5,-56.5 893.5,-75.5 1049.5,-75.5 1049.5,-56.5 893.5,-56.5"/>
<text text-anchor="middle" x="971.5" y="-63.5" font-family="Helvetica,sans-Serif" font-size="10.00">QGraphicsSceneMouseEvent</text>
</a>
</g>
</g>
<!-- Node31&#45;&gt;Node32 -->
<g id="edge41" class="edge">
<title>Node31&#45;&gt;Node32</title>
<path fill="none" stroke="midnightblue" d="M971.5,-112.4C971.5,-104.47 971.5,-94.46 971.5,-85.86"/>
<polygon fill="midnightblue" stroke="midnightblue" points="975,-85.66 971.5,-75.66 968,-85.66 975,-85.66"/>
</g>
<!-- Node33&#45;&gt;Node6 -->
<g id="edge48" class="edge">
<title>Node33&#45;&gt;Node6</title>
<path fill="none" stroke="midnightblue" d="M490.8,-179.47C479.16,-170.58 465.91,-157.95 459.5,-143 451.38,-124.04 458.97,-100.68 466.44,-84.91"/>
<polygon fill="midnightblue" stroke="midnightblue" points="469.69,-86.25 471.16,-75.75 463.47,-83.04 469.69,-86.25"/>
</g>
<!-- Node33&#45;&gt;Node16 -->
<g id="edge47" class="edge">
<title>Node33&#45;&gt;Node16</title>
<path fill="none" stroke="midnightblue" d="M509.46,-179.4C507.43,-169.96 504.74,-157.45 502.53,-147.19"/>
<polygon fill="midnightblue" stroke="midnightblue" points="505.9,-146.23 500.37,-137.19 499.06,-147.71 505.9,-146.23"/>
</g>
<!-- Node34&#45;&gt;Node6 -->
<g id="edge51" class="edge">
<title>Node34&#45;&gt;Node6</title>
<path fill="none" stroke="midnightblue" d="M636.09,-179.46C620.38,-169.51 598.97,-155.71 580.5,-143 550.52,-122.36 516.63,-97.25 495.91,-81.69"/>
<polygon fill="midnightblue" stroke="midnightblue" points="497.98,-78.87 487.89,-75.65 493.77,-84.46 497.98,-78.87"/>
</g>
<!-- Node34&#45;&gt;Node16 -->
<g id="edge50" class="edge">
<title>Node34&#45;&gt;Node16</title>
<path fill="none" stroke="midnightblue" d="M623.78,-179.4C595.46,-167.89 555.85,-151.8 528.79,-140.81"/>
<polygon fill="midnightblue" stroke="midnightblue" points="530.02,-137.53 519.44,-137.01 527.39,-144.01 530.02,-137.53"/>
</g>
<!-- Node35&#45;&gt;Node6 -->
<g id="edge54" class="edge">
<title>Node35&#45;&gt;Node6</title>
<path fill="none" stroke="midnightblue" d="M373.36,-179.48C394.98,-155.9 438.51,-108.43 461.49,-83.36"/>
<polygon fill="midnightblue" stroke="midnightblue" points="464.26,-85.52 468.44,-75.79 459.1,-80.79 464.26,-85.52"/>
</g>
<!-- Node35&#45;&gt;Node16 -->
<g id="edge53" class="edge">
<title>Node35&#45;&gt;Node16</title>
<path fill="none" stroke="midnightblue" d="M390.44,-179.4C414.44,-168.09 447.84,-152.36 471.13,-141.39"/>
<polygon fill="midnightblue" stroke="midnightblue" points="472.88,-144.43 480.44,-137.01 469.9,-138.1 472.88,-144.43"/>
</g>
<!-- Node36&#45;&gt;Node6 -->
<g id="edge56" class="edge">
<title>Node36&#45;&gt;Node6</title>
<path fill="none" stroke="midnightblue" d="M1330.43,-250.35C1162.42,-238.24 736.78,-202.45 608.5,-143 589.65,-134.26 590.89,-123.38 573.5,-112 553.3,-98.78 528.6,-87.38 509.18,-79.36"/>
<polygon fill="midnightblue" stroke="midnightblue" points="510.41,-76.09 499.83,-75.59 507.8,-82.58 510.41,-76.09"/>
</g>
<!-- Node37 -->
<g id="node37" class="node">
<title>Node37</title>
<g id="a_node37"><a xlink:href="board_8h.html" target="_top" xlink:title=" ">
<polygon fill="none" stroke="black" points="2229,-185 2229,-204 2322,-204 2322,-185 2229,-185"/>
<text text-anchor="middle" x="2275.5" y="-192" font-family="Helvetica,sans-Serif" font-size="10.00">../board/board.h</text>
</a>
</g>
</g>
<!-- Node36&#45;&gt;Node37 -->
<g id="edge57" class="edge">
<title>Node36&#45;&gt;Node37</title>
<path fill="none" stroke="midnightblue" d="M1468.6,-250.31C1636.65,-238.89 2064.19,-209.85 2218.7,-199.36"/>
<polygon fill="midnightblue" stroke="midnightblue" points="2219.17,-202.83 2228.91,-198.66 2218.69,-195.85 2219.17,-202.83"/>
</g>
<!-- Node38 -->
<g id="node38" class="node">
<title>Node38</title>
<g id="a_node38"><a xlink:href="figures_8h.html" target="_top" xlink:title=" ">
<polygon fill="none" stroke="black" points="2176.5,-118 2176.5,-137 2280.5,-137 2280.5,-118 2176.5,-118"/>
<text text-anchor="middle" x="2228.5" y="-125" font-family="Helvetica,sans-Serif" font-size="10.00">../figures/figures.h</text>
</a>
</g>
</g>
<!-- Node36&#45;&gt;Node38 -->
<g id="edge66" class="edge">
<title>Node36&#45;&gt;Node38</title>
<path fill="none" stroke="midnightblue" d="M1468.69,-247C1603.68,-230.92 1911.42,-192.01 2167.5,-143 2173.25,-141.9 2179.28,-140.62 2185.22,-139.29"/>
<polygon fill="midnightblue" stroke="midnightblue" points="2186.1,-142.68 2195.05,-137.01 2184.52,-135.86 2186.1,-142.68"/>
</g>
<!-- Node37&#45;&gt;Node38 -->
<g id="edge58" class="edge">
<title>Node37&#45;&gt;Node38</title>
<path fill="none" stroke="midnightblue" d="M2269.16,-184.73C2261.9,-174.7 2249.84,-158.01 2240.74,-145.42"/>
<polygon fill="midnightblue" stroke="midnightblue" points="2243.43,-143.18 2234.74,-137.13 2237.76,-147.28 2243.43,-143.18"/>
</g>
<!-- Node40 -->
<g id="node40" class="node">
<title>Node40</title>
<g id="a_node40"><a xlink:title=" ">
<polygon fill="none" stroke="#bfbfbf" points="2340.5,-56.5 2340.5,-75.5 2372.5,-75.5 2372.5,-56.5 2340.5,-56.5"/>
<text text-anchor="middle" x="2356.5" y="-63.5" font-family="Helvetica,sans-Serif" font-size="10.00">list</text>
</a>
</g>
</g>
<!-- Node37&#45;&gt;Node40 -->
<g id="edge64" class="edge">
<title>Node37&#45;&gt;Node40</title>
<path fill="none" stroke="midnightblue" d="M2301.02,-184.97C2319.74,-177.22 2343.86,-163.78 2355.5,-143 2365.35,-125.41 2363.8,-101.76 2360.95,-85.53"/>
<polygon fill="midnightblue" stroke="midnightblue" points="2364.36,-84.73 2358.89,-75.66 2357.5,-86.16 2364.36,-84.73"/>
</g>
<!-- Node42 -->
<g id="node42" class="node">
<title>Node42</title>
<g id="a_node42"><a xlink:title=" ">
<polygon fill="none" stroke="#bfbfbf" points="2299,-118 2299,-137 2346,-137 2346,-118 2299,-118"/>
<text text-anchor="middle" x="2322.5" y="-125" font-family="Helvetica,sans-Serif" font-size="10.00">vector</text>
</a>
</g>
</g>
<!-- Node37&#45;&gt;Node42 -->
<g id="edge65" class="edge">
<title>Node37&#45;&gt;Node42</title>
<path fill="none" stroke="midnightblue" d="M2281.84,-184.73C2289.1,-174.7 2301.16,-158.01 2310.26,-145.42"/>
<polygon fill="midnightblue" stroke="midnightblue" points="2313.24,-147.28 2316.26,-137.13 2307.57,-143.18 2313.24,-147.28"/>
</g>
<!-- Node38&#45;&gt;Node6 -->
<g id="edge59" class="edge">
<title>Node38&#45;&gt;Node6</title>
<path fill="none" stroke="midnightblue" d="M2198.33,-117.99C2188.57,-115.6 2177.65,-113.3 2167.5,-112 1449.04,-19.76 1256.83,-142.84 531.69,-75.95"/>
<polygon fill="midnightblue" stroke="midnightblue" points="531.8,-72.44 521.52,-75 531.15,-79.41 531.8,-72.44"/>
</g>
<!-- Node38&#45;&gt;Node21 -->
<g id="edge60" class="edge">
<title>Node38&#45;&gt;Node21</title>
<path fill="none" stroke="midnightblue" d="M2197.36,-117.96C2187.85,-115.66 2177.3,-113.42 2167.5,-112 2127.82,-106.27 1536.57,-77.11 1371.83,-69.06"/>
<polygon fill="midnightblue" stroke="midnightblue" points="1371.76,-65.55 1361.6,-68.56 1371.42,-72.55 1371.76,-65.55"/>
</g>
<!-- Node39 -->
<g id="node39" class="node">
<title>Node39</title>
<g id="a_node39"><a xlink:title=" ">
<polygon fill="none" stroke="#bfbfbf" points="2203,-56.5 2203,-75.5 2254,-75.5 2254,-56.5 2203,-56.5"/>
<text text-anchor="middle" x="2228.5" y="-63.5" font-family="Helvetica,sans-Serif" font-size="10.00">math.h</text>
</a>
</g>
</g>
<!-- Node38&#45;&gt;Node39 -->
<g id="edge61" class="edge">
<title>Node38&#45;&gt;Node39</title>
<path fill="none" stroke="midnightblue" d="M2228.5,-117.98C2228.5,-109.58 2228.5,-96.48 2228.5,-85.66"/>
<polygon fill="midnightblue" stroke="midnightblue" points="2232,-85.51 2228.5,-75.51 2225,-85.51 2232,-85.51"/>
</g>
<!-- Node38&#45;&gt;Node40 -->
<g id="edge62" class="edge">
<title>Node38&#45;&gt;Node40</title>
<path fill="none" stroke="midnightblue" d="M2246.84,-117.98C2268.93,-107.71 2306.17,-90.4 2331.04,-78.84"/>
<polygon fill="midnightblue" stroke="midnightblue" points="2332.63,-81.96 2340.22,-74.57 2329.68,-75.61 2332.63,-81.96"/>
</g>
<!-- Node41 -->
<g id="node41" class="node">
<title>Node41</title>
<g id="a_node41"><a xlink:title=" ">
<polygon fill="none" stroke="#bfbfbf" points="2272.5,-56.5 2272.5,-75.5 2304.5,-75.5 2304.5,-56.5 2272.5,-56.5"/>
<text text-anchor="middle" x="2288.5" y="-63.5" font-family="Helvetica,sans-Serif" font-size="10.00">set</text>
</a>
</g>
</g>
<!-- Node38&#45;&gt;Node41 -->
<g id="edge63" class="edge">
<title>Node38&#45;&gt;Node41</title>
<path fill="none" stroke="midnightblue" d="M2237.1,-117.98C2246.36,-108.78 2261.32,-93.96 2272.71,-82.66"/>
<polygon fill="midnightblue" stroke="midnightblue" points="2275.28,-85.04 2279.92,-75.51 2270.35,-80.07 2275.28,-85.04"/>
</g>
</g>
</svg>
        <g id="navigator" transform="translate(0 0)" fill="#404254">
                <rect fill="#f2f5e9" fill-opacity="0.5" stroke="#606060" stroke-width=".5" x="0" y="0" width="60" height="60"/>
                <use id="zoomplus" xlink:href="#zoomPlus" x="17" y="9" onmousedown="handleZoom(evt,'in')"/>
                <use id="zoomminus" xlink:href="#zoomMin" x="42" y="9" onmousedown="handleZoom(evt,'out')"/>
                <use id="reset" xlink:href="#resetDef" x="30" y="36" onmousedown="handleReset()"/>
                <g id="arrowUp" xlink:href="#dirArrow" transform="translate(30 24)" onmousedown="handlePan(0,-1)">
                  <use xlink:href="#rim" fill="#404040">
                        <set attributeName="fill" to="#808080" begin="arrowUp.mouseover" end="arrowUp.mouseout"/>
                  </use>
                  <path fill="none" stroke="white" stroke-width="1.5" d="M0,-3.0v7 M-2.5,-0.5L0,-3.0L2.5,-0.5"/>
                </g>
                <g id="arrowRight" xlink:href="#dirArrow" transform="rotate(90) translate(36 -43)" onmousedown="handlePan(1,0)">
                  <use xlink:href="#rim" fill="#404040">
                        <set attributeName="fill" to="#808080" begin="arrowRight.mouseover" end="arrowRight.mouseout"/>
                  </use>
                  <path fill="none" stroke="white" stroke-width="1.5" d="M0,-3.0v7 M-2.5,-0.5L0,-3.0L2.5,-0.5"/>
                </g>
                <g id="arrowDown" xlink:href="#dirArrow" transform="rotate(180) translate(-30 -48)" onmousedown="handlePan(0,1)">
                  <use xlink:href="#rim" fill="#404040">
                        <set attributeName="fill" to="#808080" begin="arrowDown.mouseover" end="arrowDown.mouseout"/>
                  </use>
                  <path fill="none" stroke="white" stroke-width="1.5" d="M0,-3.0v7 M-2.5,-0.5L0,-3.0L2.5,-0.5"/>
                </g>
                <g id="arrowLeft" xlink:href="#dirArrow" transform="rotate(270) translate(-36 17)" onmousedown="handlePan(-1,0)">
                  <use xlink:href="#rim" fill="#404040">
                        <set attributeName="fill" to="#808080" begin="arrowLeft.mouseover" end="arrowLeft.mouseout"/>
                  </use>
                  <path fill="none" stroke="white" stroke-width="1.5" d="M0,-3.0v7 M-2.5,-0.5L0,-3.0L2.5,-0.5"/>
                </g>
        </g>
        <svg viewBox="0 0 15 15" width="100%" height="30px" preserveAspectRatio="xMaxYMin meet">
         <g id="arrow_out" transform="scale(0.3 0.3)">
          <a xlink:href="main__window_8h__incl_org.svg" target="_base">
           <rect id="button" ry="5" rx="5" y="6" x="6" height="38" width="38"
                fill="#f2f5e9" fill-opacity="0.5" stroke="#606060" stroke-width="1.0"/>
           <path id="arrow"
             d="M 11.500037,31.436501 C 11.940474,20.09759 22.043105,11.32322 32.158766,21.979434 L 37.068811,17.246167 C 37.068811,17.246167 37.088388,32 37.088388,32 L 22.160133,31.978069 C 22.160133,31.978069 26.997745,27.140456 26.997745,27.140456 C 18.528582,18.264221 13.291696,25.230495 11.500037,31.436501 z"
             style="fill:#404040;"/>
          </a>
         </g>
        </svg>
</svg>
