<?xml version="1.0" encoding="UTF-8" standalone="no"?>
<!DOCTYPE svg PUBLIC "-//W3C//DTD SVG 1.1//EN"
 "http://www.w3.org/Graphics/SVG/1.1/DTD/svg11.dtd">
<!-- Generated by graphviz version 2.50.0 (0)
 -->
<!-- Title: src/main.cpp Pages: 1 -->
<svg width="805pt" height="285pt"
 viewBox="0.00 0.00 805.00 285.00" xmlns="http://www.w3.org/2000/svg" xmlns:xlink="http://www.w3.org/1999/xlink">
<g id="graph0" class="graph" transform="scale(1 1) rotate(0) translate(4 281)">
<title>src/main.cpp</title>
<!-- Node1 -->
<g id="node1" class="node">
<title>Node1</title>
<g id="a_node1"><a xlink:title=" ">
<polygon fill="#bfbfbf" stroke="black" points="358.5,-257.5 358.5,-276.5 431.5,-276.5 431.5,-257.5 358.5,-257.5"/>
<text text-anchor="middle" x="395" y="-264.5" font-family="Helvetica,sans-Serif" font-size="10.00">src/main.cpp</text>
</a>
</g>
</g>
<!-- Node2 -->
<g id="node2" class="node">
<title>Node2</title>
<g id="a_node2"><a xlink:href="main__window_8h.html" target="_top" xlink:title=" ">
<polygon fill="none" stroke="black" points="287,-190.5 287,-220.5 395,-220.5 395,-190.5 287,-190.5"/>
<text text-anchor="start" x="295" y="-208.5" font-family="Helvetica,sans-Serif" font-size="10.00">src/gui/main_window</text>
<text text-anchor="middle" x="341" y="-197.5" font-family="Helvetica,sans-Serif" font-size="10.00">/main_window.h</text>
</a>
</g>
</g>
<!-- Node1&#45;&gt;Node2 -->
<g id="edge1" class="edge">
<title>Node1&#45;&gt;Node2</title>
<path fill="none" stroke="midnightblue" d="M387.26,-257.48C380.29,-249.79 369.74,-238.17 360.48,-227.96"/>
<polygon fill="midnightblue" stroke="midnightblue" points="363.04,-225.58 353.73,-220.52 357.86,-230.28 363.04,-225.58"/>
</g>
<!-- Node16 -->
<g id="node16" class="node">
<title>Node16</title>
<g id="a_node16"><a xlink:title=" ">
<polygon fill="none" stroke="#bfbfbf" points="413,-196 413,-215 485,-215 485,-196 413,-196"/>
<text text-anchor="middle" x="449" y="-203" font-family="Helvetica,sans-Serif" font-size="10.00">QApplication</text>
</a>
</g>
</g>
<!-- Node1&#45;&gt;Node16 -->
<g id="edge23" class="edge">
<title>Node1&#45;&gt;Node16</title>
<path fill="none" stroke="midnightblue" d="M402.74,-257.48C411,-248.37 424.28,-233.74 434.49,-222.48"/>
<polygon fill="midnightblue" stroke="midnightblue" points="437.15,-224.77 441.28,-215.01 431.97,-220.06 437.15,-224.77"/>
</g>
<!-- Node3 -->
<g id="node3" class="node">
<title>Node3</title>
<g id="a_node3"><a xlink:title=" ">
<polygon fill="none" stroke="#bfbfbf" points="0,-129 0,-148 80,-148 80,-129 0,-129"/>
<text text-anchor="middle" x="40" y="-136" font-family="Helvetica,sans-Serif" font-size="10.00">QMainWindow</text>
</a>
</g>
</g>
<!-- Node2&#45;&gt;Node3 -->
<g id="edge2" class="edge">
<title>Node2&#45;&gt;Node3</title>
<path fill="none" stroke="midnightblue" d="M286.61,-195.06C235.36,-185.82 156.57,-170.73 89,-154 85.14,-153.04 81.13,-151.98 77.13,-150.87"/>
<polygon fill="midnightblue" stroke="midnightblue" points="77.93,-147.46 67.35,-148.07 76,-154.19 77.93,-147.46"/>
</g>
<!-- Node4 -->
<g id="node4" class="node">
<title>Node4</title>
<g id="a_node4"><a xlink:title=" ">
<polygon fill="none" stroke="#bfbfbf" points="98.5,-129 98.5,-148 189.5,-148 189.5,-129 98.5,-129"/>
<text text-anchor="middle" x="144" y="-136" font-family="Helvetica,sans-Serif" font-size="10.00">QStackedWidget</text>
</a>
</g>
</g>
<!-- Node2&#45;&gt;Node4 -->
<g id="edge3" class="edge">
<title>Node2&#45;&gt;Node4</title>
<path fill="none" stroke="midnightblue" d="M298.25,-190.4C262.77,-178.69 212.89,-162.23 179.56,-151.23"/>
<polygon fill="midnightblue" stroke="midnightblue" points="180.38,-147.82 169.78,-148.01 178.18,-154.46 180.38,-147.82"/>
</g>
<!-- Node5 -->
<g id="node5" class="node">
<title>Node5</title>
<g id="a_node5"><a xlink:title=" ">
<polygon fill="none" stroke="#bfbfbf" points="193,-62 193,-81 243,-81 243,-62 193,-62"/>
<text text-anchor="middle" x="218" y="-69" font-family="Helvetica,sans-Serif" font-size="10.00">QString</text>
</a>
</g>
</g>
<!-- Node2&#45;&gt;Node5 -->
<g id="edge4" class="edge">
<title>Node2&#45;&gt;Node5</title>
<path fill="none" stroke="midnightblue" d="M290.74,-190.47C271.34,-182.68 250.59,-171.02 237,-154 222.65,-136.03 218.78,-109.14 217.92,-91.22"/>
<polygon fill="midnightblue" stroke="midnightblue" points="221.42,-91.07 217.7,-81.15 214.42,-91.22 221.42,-91.07"/>
</g>
<!-- Node6 -->
<g id="node6" class="node">
<title>Node6</title>
<g id="a_node6"><a xlink:href="constants_8h.html" target="_top" xlink:title=" ">
<polygon fill="none" stroke="black" points="431,-62 431,-81 515,-81 515,-62 431,-62"/>
<text text-anchor="middle" x="473" y="-69" font-family="Helvetica,sans-Serif" font-size="10.00">src/constants.h</text>
</a>
</g>
</g>
<!-- Node2&#45;&gt;Node6 -->
<g id="edge5" class="edge">
<title>Node2&#45;&gt;Node6</title>
<path fill="none" stroke="midnightblue" d="M349.56,-190.49C360.42,-173.38 380.37,-144.11 402,-123 416.39,-108.96 434.97,-95.89 449.51,-86.56"/>
<polygon fill="midnightblue" stroke="midnightblue" points="451.78,-89.27 458.41,-81 448.07,-83.34 451.78,-89.27"/>
</g>
<!-- Node7 -->
<g id="node7" class="node">
<title>Node7</title>
<g id="a_node7"><a xlink:href="screen__game_8h.html" target="_top" xlink:title=" ">
<polygon fill="none" stroke="black" points="246.5,-123.5 246.5,-153.5 353.5,-153.5 353.5,-123.5 246.5,-123.5"/>
<text text-anchor="start" x="254.5" y="-141.5" font-family="Helvetica,sans-Serif" font-size="10.00">src/gui/screen_game</text>
<text text-anchor="middle" x="300" y="-130.5" font-family="Helvetica,sans-Serif" font-size="10.00">/screen_game.h</text>
</a>
</g>
</g>
<!-- Node2&#45;&gt;Node7 -->
<g id="edge6" class="edge">
<title>Node2&#45;&gt;Node7</title>
<path fill="none" stroke="midnightblue" d="M332.1,-190.4C326.89,-182.13 320.19,-171.51 314.26,-162.1"/>
<polygon fill="midnightblue" stroke="midnightblue" points="317.17,-160.17 308.88,-153.58 311.25,-163.9 317.17,-160.17"/>
</g>
<!-- Node13 -->
<g id="node13" class="node">
<title>Node13</title>
<g id="a_node13"><a xlink:href="screen__liderboard_8h.html" target="_top" xlink:title=" ">
<polygon fill="none" stroke="black" points="410.5,-123.5 410.5,-153.5 535.5,-153.5 535.5,-123.5 410.5,-123.5"/>
<text text-anchor="start" x="418.5" y="-141.5" font-family="Helvetica,sans-Serif" font-size="10.00">src/gui/screen_liderboard</text>
<text text-anchor="middle" x="473" y="-130.5" font-family="Helvetica,sans-Serif" font-size="10.00">/screen_liderboard.h</text>
</a>
</g>
</g>
<!-- Node2&#45;&gt;Node13 -->
<g id="edge14" class="edge">
<title>Node2&#45;&gt;Node13</title>
<path fill="none" stroke="midnightblue" d="M369.64,-190.4C388.84,-180.94 414.33,-168.39 435.19,-158.12"/>
<polygon fill="midnightblue" stroke="midnightblue" points="436.99,-161.13 444.41,-153.58 433.9,-154.85 436.99,-161.13"/>
</g>
<!-- Node14 -->
<g id="node14" class="node">
<title>Node14</title>
<g id="a_node14"><a xlink:href="screen__menu_8h.html" target="_top" xlink:title=" ">
<polygon fill="none" stroke="black" points="553.5,-123.5 553.5,-153.5 660.5,-153.5 660.5,-123.5 553.5,-123.5"/>
<text text-anchor="start" x="561.5" y="-141.5" font-family="Helvetica,sans-Serif" font-size="10.00">src/gui/screen_menu</text>
<text text-anchor="middle" x="607" y="-130.5" font-family="Helvetica,sans-Serif" font-size="10.00">/screen_menu.h</text>
</a>
</g>
</g>
<!-- Node2&#45;&gt;Node14 -->
<g id="edge17" class="edge">
<title>Node2&#45;&gt;Node14</title>
<path fill="none" stroke="midnightblue" d="M395.15,-191.27C438.08,-180.78 498.17,-166.09 543.39,-155.04"/>
<polygon fill="midnightblue" stroke="midnightblue" points="544.5,-158.38 553.38,-152.6 542.84,-151.58 544.5,-158.38"/>
</g>
<!-- Node15 -->
<g id="node15" class="node">
<title>Node15</title>
<g id="a_node15"><a xlink:href="screen__settings_8h.html" target="_top" xlink:title=" ">
<polygon fill="none" stroke="black" points="679,-123.5 679,-153.5 797,-153.5 797,-123.5 679,-123.5"/>
<text text-anchor="start" x="687" y="-141.5" font-family="Helvetica,sans-Serif" font-size="10.00">src/gui/screen_settings</text>
<text text-anchor="middle" x="738" y="-130.5" font-family="Helvetica,sans-Serif" font-size="10.00">/screen_settings.h</text>
</a>
</g>
</g>
<!-- Node2&#45;&gt;Node15 -->
<g id="edge20" class="edge">
<title>Node2&#45;&gt;Node15</title>
<path fill="none" stroke="midnightblue" d="M395.23,-191.69C398.19,-191.09 401.13,-190.52 404,-190 518.16,-169.18 550.7,-174.15 668.57,-154.16"/>
<polygon fill="midnightblue" stroke="midnightblue" points="669.45,-157.56 678.71,-152.42 668.26,-150.66 669.45,-157.56"/>
</g>
<!-- Node7&#45;&gt;Node5 -->
<g id="edge11" class="edge">
<title>Node7&#45;&gt;Node5</title>
<path fill="none" stroke="midnightblue" d="M282.21,-123.4C268.92,-112.86 250.77,-98.48 237.16,-87.69"/>
<polygon fill="midnightblue" stroke="midnightblue" points="238.98,-84.66 228.97,-81.19 234.63,-90.15 238.98,-84.66"/>
</g>
<!-- Node7&#45;&gt;Node6 -->
<g id="edge13" class="edge">
<title>Node7&#45;&gt;Node6</title>
<path fill="none" stroke="midnightblue" d="M337.54,-123.4C368.3,-111.84 411.37,-95.66 440.63,-84.66"/>
<polygon fill="midnightblue" stroke="midnightblue" points="442.23,-87.8 450.36,-81.01 439.77,-81.25 442.23,-87.8"/>
</g>
<!-- Node8 -->
<g id="node8" class="node">
<title>Node8</title>
<g id="a_node8"><a xlink:href="scene__game_8h.html" target="_top" xlink:title=" ">
<polygon fill="none" stroke="black" points="261,-56.5 261,-86.5 371,-86.5 371,-56.5 261,-56.5"/>
<text text-anchor="start" x="269" y="-74.5" font-family="Helvetica,sans-Serif" font-size="10.00">../scene_game/scene</text>
<text text-anchor="middle" x="316" y="-63.5" font-family="Helvetica,sans-Serif" font-size="10.00">_game.h</text>
</a>
</g>
</g>
<!-- Node7&#45;&gt;Node8 -->
<g id="edge7" class="edge">
<title>Node7&#45;&gt;Node8</title>
<path fill="none" stroke="midnightblue" d="M303.47,-123.4C305.4,-115.56 307.85,-105.6 310.08,-96.57"/>
<polygon fill="midnightblue" stroke="midnightblue" points="313.54,-97.12 312.54,-86.58 306.75,-95.45 313.54,-97.12"/>
</g>
<!-- Node12 -->
<g id="node12" class="node">
<title>Node12</title>
<g id="a_node12"><a xlink:title=" ">
<polygon fill="none" stroke="#bfbfbf" points="556.5,-62 556.5,-81 611.5,-81 611.5,-62 556.5,-62"/>
<text text-anchor="middle" x="584" y="-69" font-family="Helvetica,sans-Serif" font-size="10.00">QWidget</text>
</a>
</g>
</g>
<!-- Node7&#45;&gt;Node12 -->
<g id="edge12" class="edge">
<title>Node7&#45;&gt;Node12</title>
<path fill="none" stroke="midnightblue" d="M353.91,-125.59C399.32,-115.5 465.96,-100.55 524,-87 531.25,-85.31 538.98,-83.47 546.39,-81.68"/>
<polygon fill="midnightblue" stroke="midnightblue" points="547.34,-85.05 556.24,-79.3 545.7,-78.25 547.34,-85.05"/>
</g>
<!-- Node9 -->
<g id="node9" class="node">
<title>Node9</title>
<g id="a_node9"><a xlink:title=" ">
<polygon fill="none" stroke="#bfbfbf" points="186.5,-0.5 186.5,-19.5 277.5,-19.5 277.5,-0.5 186.5,-0.5"/>
<text text-anchor="middle" x="232" y="-7.5" font-family="Helvetica,sans-Serif" font-size="10.00">QGraphicsScene</text>
</a>
</g>
</g>
<!-- Node8&#45;&gt;Node9 -->
<g id="edge8" class="edge">
<title>Node8&#45;&gt;Node9</title>
<path fill="none" stroke="midnightblue" d="M296.09,-56.4C283.01,-47.13 265.92,-35.03 252.68,-25.65"/>
<polygon fill="midnightblue" stroke="midnightblue" points="254.41,-22.58 244.22,-19.66 250.36,-28.29 254.41,-22.58"/>
</g>
<!-- Node10 -->
<g id="node10" class="node">
<title>Node10</title>
<g id="a_node10"><a xlink:title=" ">
<polygon fill="none" stroke="#bfbfbf" points="296,-0.5 296,-19.5 336,-19.5 336,-0.5 296,-0.5"/>
<text text-anchor="middle" x="316" y="-7.5" font-family="Helvetica,sans-Serif" font-size="10.00">QList</text>
</a>
</g>
</g>
<!-- Node8&#45;&gt;Node10 -->
<g id="edge9" class="edge">
<title>Node8&#45;&gt;Node10</title>
<path fill="none" stroke="midnightblue" d="M316,-56.4C316,-48.47 316,-38.46 316,-29.86"/>
<polygon fill="midnightblue" stroke="midnightblue" points="319.5,-29.66 316,-19.66 312.5,-29.66 319.5,-29.66"/>
</g>
<!-- Node11 -->
<g id="node11" class="node">
<title>Node11</title>
<g id="a_node11"><a xlink:title=" ">
<polygon fill="none" stroke="#bfbfbf" points="354,-0.5 354,-19.5 406,-19.5 406,-0.5 354,-0.5"/>
<text text-anchor="middle" x="380" y="-7.5" font-family="Helvetica,sans-Serif" font-size="10.00">QVector</text>
</a>
</g>
</g>
<!-- Node8&#45;&gt;Node11 -->
<g id="edge10" class="edge">
<title>Node8&#45;&gt;Node11</title>
<path fill="none" stroke="midnightblue" d="M331.17,-56.4C340.75,-47.49 353.16,-35.95 363.07,-26.74"/>
<polygon fill="midnightblue" stroke="midnightblue" points="365.75,-29.03 370.69,-19.66 360.98,-23.9 365.75,-29.03"/>
</g>
<!-- Node13&#45;&gt;Node6 -->
<g id="edge16" class="edge">
<title>Node13&#45;&gt;Node6</title>
<path fill="none" stroke="midnightblue" d="M473,-123.4C473,-114.06 473,-101.71 473,-91.52"/>
<polygon fill="midnightblue" stroke="midnightblue" points="476.5,-91.19 473,-81.19 469.5,-91.19 476.5,-91.19"/>
</g>
<!-- Node13&#45;&gt;Node12 -->
<g id="edge15" class="edge">
<title>Node13&#45;&gt;Node12</title>
<path fill="none" stroke="midnightblue" d="M497.09,-123.4C515.96,-112.34 542.06,-97.06 560.72,-86.13"/>
<polygon fill="midnightblue" stroke="midnightblue" points="562.61,-89.08 569.47,-81.01 559.07,-83.04 562.61,-89.08"/>
</g>
<!-- Node14&#45;&gt;Node6 -->
<g id="edge19" class="edge">
<title>Node14&#45;&gt;Node6</title>
<path fill="none" stroke="midnightblue" d="M577.92,-123.4C554.62,-112.09 522.19,-96.36 499.57,-85.39"/>
<polygon fill="midnightblue" stroke="midnightblue" points="501.06,-82.22 490.54,-81.01 498.01,-88.52 501.06,-82.22"/>
</g>
<!-- Node14&#45;&gt;Node12 -->
<g id="edge18" class="edge">
<title>Node14&#45;&gt;Node12</title>
<path fill="none" stroke="midnightblue" d="M602.01,-123.4C598.64,-113.86 594.15,-101.18 590.5,-90.86"/>
<polygon fill="midnightblue" stroke="midnightblue" points="593.71,-89.45 587.08,-81.19 587.11,-91.79 593.71,-89.45"/>
</g>
<!-- Node15&#45;&gt;Node6 -->
<g id="edge22" class="edge">
<title>Node15&#45;&gt;Node6</title>
<path fill="none" stroke="midnightblue" d="M680.83,-123.48C631.88,-111.47 562.4,-94.43 517.51,-83.42"/>
<polygon fill="midnightblue" stroke="midnightblue" points="518.32,-80.01 507.77,-81.03 516.65,-86.81 518.32,-80.01"/>
</g>
<!-- Node15&#45;&gt;Node12 -->
<g id="edge21" class="edge">
<title>Node15&#45;&gt;Node12</title>
<path fill="none" stroke="midnightblue" d="M704.58,-123.4C677.44,-111.94 639.53,-95.94 613.5,-84.95"/>
<polygon fill="midnightblue" stroke="midnightblue" points="614.73,-81.67 604.16,-81.01 612.01,-88.12 614.73,-81.67"/>
</g>
</g>
</svg>
