<?xml version="1.0" encoding="UTF-8" standalone="no"?>
<!DOCTYPE svg PUBLIC "-//W3C//DTD SVG 1.1//EN"
 "http://www.w3.org/Graphics/SVG/1.1/DTD/svg11.dtd">
<!-- Generated by graphviz version 2.43.0 (0)
 -->
<!-- Title: src/gui/main_window/main_window.cpp Pages: 1 -->
<svg width="2466pt" height="397pt"
 viewBox="0.00 0.00 2465.50 397.00" xmlns="http://www.w3.org/2000/svg" xmlns:xlink="http://www.w3.org/1999/xlink">
<g id="graph0" class="graph" transform="scale(1 1) rotate(0) translate(4 393)">
<title>src/gui/main_window/main_window.cpp</title>
<!-- Node1 -->
<g id="node1" class="node">
<title>Node1</title>
<g id="a_node1"><a xlink:title=" ">
<polygon fill="#bfbfbf" stroke="black" points="494,-358.5 494,-388.5 613,-388.5 613,-358.5 494,-358.5"/>
<text text-anchor="start" x="502" y="-376.5" font-family="Helvetica,sans-Serif" font-size="10.00">src/gui/main_window</text>
<text text-anchor="middle" x="553.5" y="-365.5" font-family="Helvetica,sans-Serif" font-size="10.00">/main_window.cpp</text>
</a>
</g>
</g>
<!-- Node2 -->
<g id="node2" class="node">
<title>Node2</title>
<g id="a_node2"><a xlink:href="main__window_8h.html" target="_top" xlink:title=" ">
<polygon fill="none" stroke="black" points="389.5,-302.5 389.5,-321.5 481.5,-321.5 481.5,-302.5 389.5,-302.5"/>
<text text-anchor="middle" x="435.5" y="-309.5" font-family="Helvetica,sans-Serif" font-size="10.00">main_window.h</text>
</a>
</g>
</g>
<!-- Node1&#45;&gt;Node2 -->
<g id="edge1" class="edge">
<title>Node1&#45;&gt;Node2</title>
<path fill="none" stroke="midnightblue" d="M525.54,-358.4C506.18,-348.64 480.59,-335.74 461.64,-326.18"/>
<polygon fill="midnightblue" stroke="midnightblue" points="463.17,-323.04 452.67,-321.66 460.02,-329.29 463.17,-323.04"/>
</g>
<!-- Node42 -->
<g id="node42" class="node">
<title>Node42</title>
<g id="a_node42"><a xlink:title=" ">
<polygon fill="none" stroke="#bfbfbf" points="500,-302.5 500,-321.5 607,-321.5 607,-302.5 500,-302.5"/>
<text text-anchor="middle" x="553.5" y="-309.5" font-family="Helvetica,sans-Serif" font-size="10.00">ui_main_window.h</text>
</a>
</g>
</g>
<!-- Node1&#45;&gt;Node42 -->
<g id="edge66" class="edge">
<title>Node1&#45;&gt;Node42</title>
<path fill="none" stroke="midnightblue" d="M553.5,-358.4C553.5,-350.47 553.5,-340.46 553.5,-331.86"/>
<polygon fill="midnightblue" stroke="midnightblue" points="557,-331.66 553.5,-321.66 550,-331.66 557,-331.66"/>
</g>
<!-- Node43 -->
<g id="node43" class="node">
<title>Node43</title>
<g id="a_node43"><a xlink:title=" ">
<polygon fill="none" stroke="#bfbfbf" points="625.5,-302.5 625.5,-321.5 685.5,-321.5 685.5,-302.5 625.5,-302.5"/>
<text text-anchor="middle" x="655.5" y="-309.5" font-family="Helvetica,sans-Serif" font-size="10.00">iostream</text>
</a>
</g>
</g>
<!-- Node1&#45;&gt;Node43 -->
<g id="edge67" class="edge">
<title>Node1&#45;&gt;Node43</title>
<path fill="none" stroke="midnightblue" d="M577.67,-358.4C594.02,-348.86 615.51,-336.32 631.77,-326.84"/>
<polygon fill="midnightblue" stroke="midnightblue" points="633.78,-329.72 640.66,-321.66 630.26,-323.67 633.78,-329.72"/>
</g>
<!-- Node3 -->
<g id="node3" class="node">
<title>Node3</title>
<g id="a_node3"><a xlink:title=" ">
<polygon fill="none" stroke="#bfbfbf" points="0,-246.5 0,-265.5 87,-265.5 87,-246.5 0,-246.5"/>
<text text-anchor="middle" x="43.5" y="-253.5" font-family="Helvetica,sans-Serif" font-size="10.00">QMainWindow</text>
</a>
</g>
</g>
<!-- Node2&#45;&gt;Node3 -->
<g id="edge2" class="edge">
<title>Node2&#45;&gt;Node3</title>
<path fill="none" stroke="midnightblue" d="M389.5,-305.5C325.99,-297.78 207.61,-282.92 97.15,-266.21"/>
<polygon fill="midnightblue" stroke="midnightblue" points="97.58,-262.73 87.17,-264.69 96.53,-269.65 97.58,-262.73"/>
</g>
<!-- Node4 -->
<g id="node4" class="node">
<title>Node4</title>
<g id="a_node4"><a xlink:title=" ">
<polygon fill="none" stroke="#bfbfbf" points="105,-246.5 105,-265.5 202,-265.5 202,-246.5 105,-246.5"/>
<text text-anchor="middle" x="153.5" y="-253.5" font-family="Helvetica,sans-Serif" font-size="10.00">QStackedWidget</text>
</a>
</g>
</g>
<!-- Node2&#45;&gt;Node4 -->
<g id="edge3" class="edge">
<title>Node2&#45;&gt;Node4</title>
<path fill="none" stroke="midnightblue" d="M390.82,-302.44C341.21,-292.94 261.14,-277.61 207.91,-267.42"/>
<polygon fill="midnightblue" stroke="midnightblue" points="208.45,-263.96 197.97,-265.52 207.14,-270.83 208.45,-263.96"/>
</g>
<!-- Node5 -->
<g id="node5" class="node">
<title>Node5</title>
<g id="a_node5"><a xlink:title=" ">
<polygon fill="none" stroke="#bfbfbf" points="787,-56.5 787,-75.5 840,-75.5 840,-56.5 787,-56.5"/>
<text text-anchor="middle" x="813.5" y="-63.5" font-family="Helvetica,sans-Serif" font-size="10.00">QString</text>
</a>
</g>
</g>
<!-- Node2&#45;&gt;Node5 -->
<g id="edge4" class="edge">
<title>Node2&#45;&gt;Node5</title>
<path fill="none" stroke="midnightblue" d="M468.98,-302.45C536.43,-284.74 685.67,-242.96 726.5,-210 768.59,-176.02 795.47,-115.85 807,-85.54"/>
<polygon fill="midnightblue" stroke="midnightblue" points="810.41,-86.43 810.56,-75.83 803.83,-84.02 810.41,-86.43"/>
</g>
<!-- Node6 -->
<g id="node6" class="node">
<title>Node6</title>
<g id="a_node6"><a xlink:title=" ">
<polygon fill="none" stroke="#bfbfbf" points="415,-0.5 415,-19.5 470,-19.5 470,-0.5 415,-0.5"/>
<text text-anchor="middle" x="442.5" y="-7.5" font-family="Helvetica,sans-Serif" font-size="10.00">QVector</text>
</a>
</g>
</g>
<!-- Node2&#45;&gt;Node6 -->
<g id="edge5" class="edge">
<title>Node2&#45;&gt;Node6</title>
<path fill="none" stroke="midnightblue" d="M389.49,-305.53C329.05,-295.49 230.5,-268.01 230.5,-195.5 230.5,-195.5 230.5,-195.5 230.5,-126.5 230.5,-48.05 343.83,-22.57 404.77,-14.55"/>
<polygon fill="midnightblue" stroke="midnightblue" points="405.28,-18.01 414.78,-13.32 404.43,-11.06 405.28,-18.01"/>
</g>
<!-- Node7 -->
<g id="node7" class="node">
<title>Node7</title>
<g id="a_node7"><a xlink:href="constants_8h.html" target="_top" xlink:title=" ">
<polygon fill="none" stroke="black" points="608.5,-56.5 608.5,-75.5 698.5,-75.5 698.5,-56.5 608.5,-56.5"/>
<text text-anchor="middle" x="653.5" y="-63.5" font-family="Helvetica,sans-Serif" font-size="10.00">src/constants.h</text>
</a>
</g>
</g>
<!-- Node2&#45;&gt;Node7 -->
<g id="edge6" class="edge">
<title>Node2&#45;&gt;Node7</title>
<path fill="none" stroke="midnightblue" d="M410.24,-302.42C358.65,-283.5 249.14,-235.35 287.5,-179 322.78,-127.18 504.86,-90.91 598.2,-75.41"/>
<polygon fill="midnightblue" stroke="midnightblue" points="599,-78.83 608.31,-73.76 597.87,-71.92 599,-78.83"/>
</g>
<!-- Node8 -->
<g id="node8" class="node">
<title>Node8</title>
<g id="a_node8"><a xlink:href="screen__game_8h.html" target="_top" xlink:title=" ">
<polygon fill="none" stroke="black" points="1183,-179.5 1183,-209.5 1300,-209.5 1300,-179.5 1183,-179.5"/>
<text text-anchor="start" x="1191" y="-197.5" font-family="Helvetica,sans-Serif" font-size="10.00">src/gui/screen_game</text>
<text text-anchor="middle" x="1241.5" y="-186.5" font-family="Helvetica,sans-Serif" font-size="10.00">/screen_game.h</text>
</a>
</g>
</g>
<!-- Node2&#45;&gt;Node8 -->
<g id="edge8" class="edge">
<title>Node2&#45;&gt;Node8</title>
<path fill="none" stroke="midnightblue" d="M481.69,-303.29C484.67,-302.84 487.63,-302.4 490.5,-302 626.55,-282.9 661.41,-284.78 797.5,-266 930.63,-247.63 1085.53,-222.08 1172.69,-207.32"/>
<polygon fill="midnightblue" stroke="midnightblue" points="1173.45,-210.74 1182.72,-205.62 1172.28,-203.84 1173.45,-210.74"/>
</g>
<!-- Node32 -->
<g id="node32" class="node">
<title>Node32</title>
<g id="a_node32"><a xlink:href="screen__liderboard_8h.html" target="_top" xlink:title=" ">
<polygon fill="none" stroke="black" points="297,-179.5 297,-209.5 436,-209.5 436,-179.5 297,-179.5"/>
<text text-anchor="start" x="305" y="-197.5" font-family="Helvetica,sans-Serif" font-size="10.00">src/gui/screen_liderboard</text>
<text text-anchor="middle" x="366.5" y="-186.5" font-family="Helvetica,sans-Serif" font-size="10.00">/screen_liderboard.h</text>
</a>
</g>
</g>
<!-- Node2&#45;&gt;Node32 -->
<g id="edge45" class="edge">
<title>Node2&#45;&gt;Node32</title>
<path fill="none" stroke="midnightblue" d="M430.31,-302.32C419.76,-284.66 395.5,-244.04 380.11,-218.29"/>
<polygon fill="midnightblue" stroke="midnightblue" points="383.02,-216.34 374.89,-209.55 377.01,-219.93 383.02,-216.34"/>
</g>
<!-- Node33 -->
<g id="node33" class="node">
<title>Node33</title>
<g id="a_node33"><a xlink:href="screen__menu_8h.html" target="_top" xlink:title=" ">
<polygon fill="none" stroke="black" points="454,-179.5 454,-209.5 571,-209.5 571,-179.5 454,-179.5"/>
<text text-anchor="start" x="462" y="-197.5" font-family="Helvetica,sans-Serif" font-size="10.00">src/gui/screen_menu</text>
<text text-anchor="middle" x="512.5" y="-186.5" font-family="Helvetica,sans-Serif" font-size="10.00">/screen_menu.h</text>
</a>
</g>
</g>
<!-- Node2&#45;&gt;Node33 -->
<g id="edge48" class="edge">
<title>Node2&#45;&gt;Node33</title>
<path fill="none" stroke="midnightblue" d="M441.29,-302.32C453.11,-284.58 480.38,-243.68 497.53,-217.95"/>
<polygon fill="midnightblue" stroke="midnightblue" points="500.5,-219.81 503.14,-209.55 494.68,-215.92 500.5,-219.81"/>
</g>
<!-- Node34 -->
<g id="node34" class="node">
<title>Node34</title>
<g id="a_node34"><a xlink:href="screen__settings_8h.html" target="_top" xlink:title=" ">
<polygon fill="none" stroke="black" points="589.5,-179.5 589.5,-209.5 717.5,-209.5 717.5,-179.5 589.5,-179.5"/>
<text text-anchor="start" x="597.5" y="-197.5" font-family="Helvetica,sans-Serif" font-size="10.00">src/gui/screen_settings</text>
<text text-anchor="middle" x="653.5" y="-186.5" font-family="Helvetica,sans-Serif" font-size="10.00">/screen_settings.h</text>
</a>
</g>
</g>
<!-- Node2&#45;&gt;Node34 -->
<g id="edge51" class="edge">
<title>Node2&#45;&gt;Node34</title>
<path fill="none" stroke="midnightblue" d="M451.89,-302.32C486.98,-283.73 570.08,-239.7 617.92,-214.35"/>
<polygon fill="midnightblue" stroke="midnightblue" points="619.79,-217.32 626.99,-209.55 616.52,-211.13 619.79,-217.32"/>
</g>
<!-- Node35 -->
<g id="node35" class="node">
<title>Node35</title>
<g id="a_node35"><a xlink:href="engine_8h.html" target="_top" xlink:title=" ">
<polygon fill="none" stroke="black" points="1378.5,-246.5 1378.5,-265.5 1516.5,-265.5 1516.5,-246.5 1378.5,-246.5"/>
<text text-anchor="middle" x="1447.5" y="-253.5" font-family="Helvetica,sans-Serif" font-size="10.00">src/logic/engine/engine.h</text>
</a>
</g>
</g>
<!-- Node2&#45;&gt;Node35 -->
<g id="edge54" class="edge">
<title>Node2&#45;&gt;Node35</title>
<path fill="none" stroke="midnightblue" d="M481.66,-303.05C484.65,-302.66 487.61,-302.3 490.5,-302 659.9,-284.22 1170.81,-266.08 1368.34,-259.54"/>
<polygon fill="midnightblue" stroke="midnightblue" points="1368.48,-263.04 1378.35,-259.21 1368.24,-256.05 1368.48,-263.04"/>
</g>
<!-- Node7&#45;&gt;Node6 -->
<g id="edge7" class="edge">
<title>Node7&#45;&gt;Node6</title>
<path fill="none" stroke="midnightblue" d="M620.07,-56.44C581.9,-46.68 519.64,-30.74 479.9,-20.57"/>
<polygon fill="midnightblue" stroke="midnightblue" points="480.62,-17.14 470.06,-18.05 478.88,-23.92 480.62,-17.14"/>
</g>
<!-- Node8&#45;&gt;Node5 -->
<g id="edge14" class="edge">
<title>Node8&#45;&gt;Node5</title>
<path fill="none" stroke="midnightblue" d="M1182.92,-194.14C1082.46,-193.99 883.2,-187.86 832.5,-143 816.46,-128.81 812.96,-103.31 812.65,-85.79"/>
<polygon fill="midnightblue" stroke="midnightblue" points="816.15,-85.68 812.8,-75.63 809.15,-85.58 816.15,-85.68"/>
</g>
<!-- Node8&#45;&gt;Node7 -->
<g id="edge17" class="edge">
<title>Node8&#45;&gt;Node7</title>
<path fill="none" stroke="midnightblue" d="M1182.71,-192.64C1098.93,-190.07 941.09,-180.19 812.5,-143 761.31,-128.2 706.19,-98.36 676.17,-80.8"/>
<polygon fill="midnightblue" stroke="midnightblue" points="677.73,-77.65 667.34,-75.56 674.16,-83.67 677.73,-77.65"/>
</g>
<!-- Node9 -->
<g id="node9" class="node">
<title>Node9</title>
<g id="a_node9"><a xlink:title=" ">
<polygon fill="none" stroke="#bfbfbf" points="841.5,-118 841.5,-137 975.5,-137 975.5,-118 841.5,-118"/>
<text text-anchor="middle" x="908.5" y="-125" font-family="Helvetica,sans-Serif" font-size="10.00">QGraphicsColorizeEffect</text>
</a>
</g>
</g>
<!-- Node8&#45;&gt;Node9 -->
<g id="edge9" class="edge">
<title>Node8&#45;&gt;Node9</title>
<path fill="none" stroke="midnightblue" d="M1182.73,-182.03C1120.34,-169.85 1022.57,-150.77 962.19,-138.98"/>
<polygon fill="midnightblue" stroke="midnightblue" points="962.58,-135.49 952.09,-137.01 961.24,-142.36 962.58,-135.49"/>
</g>
<!-- Node10 -->
<g id="node10" class="node">
<title>Node10</title>
<g id="a_node10"><a xlink:title=" ">
<polygon fill="none" stroke="#bfbfbf" points="1031.5,-118 1031.5,-137 1153.5,-137 1153.5,-118 1031.5,-118"/>
<text text-anchor="middle" x="1092.5" y="-125" font-family="Helvetica,sans-Serif" font-size="10.00">QGraphicsEllipseItem</text>
</a>
</g>
</g>
<!-- Node8&#45;&gt;Node10 -->
<g id="edge10" class="edge">
<title>Node8&#45;&gt;Node10</title>
<path fill="none" stroke="midnightblue" d="M1209.17,-179.4C1183.03,-167.99 1146.55,-152.08 1121.38,-141.1"/>
<polygon fill="midnightblue" stroke="midnightblue" points="1122.57,-137.8 1112,-137.01 1119.77,-144.21 1122.57,-137.8"/>
</g>
<!-- Node11 -->
<g id="node11" class="node">
<title>Node11</title>
<g id="a_node11"><a xlink:title=" ">
<polygon fill="none" stroke="#bfbfbf" points="1171.5,-118 1171.5,-137 1311.5,-137 1311.5,-118 1171.5,-118"/>
<text text-anchor="middle" x="1241.5" y="-125" font-family="Helvetica,sans-Serif" font-size="10.00">QGraphicsItemAnimation</text>
</a>
</g>
</g>
<!-- Node8&#45;&gt;Node11 -->
<g id="edge11" class="edge">
<title>Node8&#45;&gt;Node11</title>
<path fill="none" stroke="midnightblue" d="M1241.5,-179.4C1241.5,-170.06 1241.5,-157.71 1241.5,-147.52"/>
<polygon fill="midnightblue" stroke="midnightblue" points="1245,-147.19 1241.5,-137.19 1238,-147.19 1245,-147.19"/>
</g>
<!-- Node12 -->
<g id="node12" class="node">
<title>Node12</title>
<g id="a_node12"><a xlink:title=" ">
<polygon fill="none" stroke="#bfbfbf" points="2191.5,-56.5 2191.5,-75.5 2287.5,-75.5 2287.5,-56.5 2191.5,-56.5"/>
<text text-anchor="middle" x="2239.5" y="-63.5" font-family="Helvetica,sans-Serif" font-size="10.00">QGraphicsScene</text>
</a>
</g>
</g>
<!-- Node8&#45;&gt;Node12 -->
<g id="edge12" class="edge">
<title>Node8&#45;&gt;Node12</title>
<path fill="none" stroke="midnightblue" d="M1300.31,-192.07C1486.5,-187.29 2055.38,-170.57 2133.5,-143 2169.75,-130.21 2204.53,-100.96 2223.85,-82.71"/>
<polygon fill="midnightblue" stroke="midnightblue" points="2226.4,-85.11 2231.15,-75.64 2221.53,-80.09 2226.4,-85.11"/>
</g>
<!-- Node13 -->
<g id="node13" class="node">
<title>Node13</title>
<g id="a_node13"><a xlink:title=" ">
<polygon fill="none" stroke="#bfbfbf" points="1210,-56.5 1210,-75.5 1317,-75.5 1317,-56.5 1210,-56.5"/>
<text text-anchor="middle" x="1263.5" y="-63.5" font-family="Helvetica,sans-Serif" font-size="10.00">QGraphicsSvgItem</text>
</a>
</g>
</g>
<!-- Node8&#45;&gt;Node13 -->
<g id="edge13" class="edge">
<title>Node8&#45;&gt;Node13</title>
<path fill="none" stroke="midnightblue" d="M1182.72,-191.07C1103.07,-185.65 975.84,-168.17 1022.5,-112 1028.22,-105.11 1130.49,-87.85 1199.95,-76.81"/>
<polygon fill="midnightblue" stroke="midnightblue" points="1200.62,-80.25 1209.95,-75.23 1199.52,-73.34 1200.62,-80.25"/>
</g>
<!-- Node14 -->
<g id="node14" class="node">
<title>Node14</title>
<g id="a_node14"><a xlink:title=" ">
<polygon fill="none" stroke="#bfbfbf" points="1330,-118 1330,-137 1399,-137 1399,-118 1330,-118"/>
<text text-anchor="middle" x="1364.5" y="-125" font-family="Helvetica,sans-Serif" font-size="10.00">QTimeLine</text>
</a>
</g>
</g>
<!-- Node8&#45;&gt;Node14 -->
<g id="edge15" class="edge">
<title>Node8&#45;&gt;Node14</title>
<path fill="none" stroke="midnightblue" d="M1268.19,-179.4C1289.39,-168.19 1318.82,-152.64 1339.55,-141.69"/>
<polygon fill="midnightblue" stroke="midnightblue" points="1341.2,-144.77 1348.4,-137.01 1337.93,-138.58 1341.2,-144.77"/>
</g>
<!-- Node15 -->
<g id="node15" class="node">
<title>Node15</title>
<g id="a_node15"><a xlink:title=" ">
<polygon fill="none" stroke="#bfbfbf" points="554,-118 554,-137 613,-137 613,-118 554,-118"/>
<text text-anchor="middle" x="583.5" y="-125" font-family="Helvetica,sans-Serif" font-size="10.00">QWidget</text>
</a>
</g>
</g>
<!-- Node8&#45;&gt;Node15 -->
<g id="edge16" class="edge">
<title>Node8&#45;&gt;Node15</title>
<path fill="none" stroke="midnightblue" d="M1182.84,-187.9C1086.8,-178.7 890.05,-159.74 723.5,-143 689.76,-139.61 651.46,-135.63 623.46,-132.7"/>
<polygon fill="midnightblue" stroke="midnightblue" points="623.57,-129.2 613.26,-131.64 622.84,-136.16 623.57,-129.2"/>
</g>
<!-- Node16 -->
<g id="node16" class="node">
<title>Node16</title>
<g id="a_node16"><a xlink:href="gui__point_8h.html" target="_top" xlink:title=" ">
<polygon fill="none" stroke="black" points="1816,-112.5 1816,-142.5 1931,-142.5 1931,-112.5 1816,-112.5"/>
<text text-anchor="start" x="1824" y="-130.5" font-family="Helvetica,sans-Serif" font-size="10.00">src/gui/gui_point/gui</text>
<text text-anchor="middle" x="1873.5" y="-119.5" font-family="Helvetica,sans-Serif" font-size="10.00">_point.h</text>
</a>
</g>
</g>
<!-- Node8&#45;&gt;Node16 -->
<g id="edge18" class="edge">
<title>Node8&#45;&gt;Node16</title>
<path fill="none" stroke="midnightblue" d="M1300.05,-190.74C1401.36,-185.42 1615.96,-171.79 1806.09,-143.1"/>
<polygon fill="midnightblue" stroke="midnightblue" points="1806.63,-146.56 1815.99,-141.59 1805.57,-139.64 1806.63,-146.56"/>
</g>
<!-- Node22 -->
<g id="node22" class="node">
<title>Node22</title>
<g id="a_node22"><a xlink:href="gui__scene_8h.html" target="_top" xlink:title=" ">
<polygon fill="none" stroke="black" points="2005,-112.5 2005,-142.5 2124,-142.5 2124,-112.5 2005,-112.5"/>
<text text-anchor="start" x="2013" y="-130.5" font-family="Helvetica,sans-Serif" font-size="10.00">src/gui/gui_scene/gui</text>
<text text-anchor="middle" x="2064.5" y="-119.5" font-family="Helvetica,sans-Serif" font-size="10.00">_scene.h</text>
</a>
</g>
</g>
<!-- Node8&#45;&gt;Node22 -->
<g id="edge24" class="edge">
<title>Node8&#45;&gt;Node22</title>
<path fill="none" stroke="midnightblue" d="M1300.03,-190.15C1420.19,-183.08 1703.39,-165.42 1940.5,-143 1958.09,-141.34 1977.04,-139.26 1994.72,-137.21"/>
<polygon fill="midnightblue" stroke="midnightblue" points="1995.43,-140.65 2004.95,-136 1994.61,-133.7 1995.43,-140.65"/>
</g>
<!-- Node25 -->
<g id="node25" class="node">
<title>Node25</title>
<g id="a_node25"><a xlink:href="gui__win_8h.html" target="_top" xlink:title=" ">
<polygon fill="none" stroke="black" points="1552,-112.5 1552,-142.5 1659,-142.5 1659,-112.5 1552,-112.5"/>
<text text-anchor="start" x="1560" y="-130.5" font-family="Helvetica,sans-Serif" font-size="10.00">src/gui/gui_win/gui</text>
<text text-anchor="middle" x="1605.5" y="-119.5" font-family="Helvetica,sans-Serif" font-size="10.00">_win.h</text>
</a>
</g>
</g>
<!-- Node8&#45;&gt;Node25 -->
<g id="edge29" class="edge">
<title>Node8&#45;&gt;Node25</title>
<path fill="none" stroke="midnightblue" d="M1300.16,-184.83C1358.96,-175.88 1452.28,-160.99 1541.73,-143.29"/>
<polygon fill="midnightblue" stroke="midnightblue" points="1542.65,-146.67 1551.78,-141.29 1541.29,-139.81 1542.65,-146.67"/>
</g>
<!-- Node27 -->
<g id="node27" class="node">
<title>Node27</title>
<g id="a_node27"><a xlink:href="gui__advantage__bar_8h.html" target="_top" xlink:title=" ">
<polygon fill="none" stroke="black" points="1677,-112.5 1677,-142.5 1798,-142.5 1798,-112.5 1677,-112.5"/>
<text text-anchor="start" x="1685" y="-130.5" font-family="Helvetica,sans-Serif" font-size="10.00">src/gui/screen_game</text>
<text text-anchor="middle" x="1737.5" y="-119.5" font-family="Helvetica,sans-Serif" font-size="10.00">/gui_advantage_bar.h</text>
</a>
</g>
</g>
<!-- Node8&#45;&gt;Node27 -->
<g id="edge35" class="edge">
<title>Node8&#45;&gt;Node27</title>
<path fill="none" stroke="midnightblue" d="M1300.09,-188.24C1380.58,-180.65 1530.04,-165.23 1666.74,-143.2"/>
<polygon fill="midnightblue" stroke="midnightblue" points="1667.67,-146.6 1676.98,-141.54 1666.54,-139.69 1667.67,-146.6"/>
</g>
<!-- Node30 -->
<g id="node30" class="node">
<title>Node30</title>
<g id="a_node30"><a xlink:href="gui__figure_8h.html" target="_top" xlink:title=" ">
<polygon fill="none" stroke="black" points="1417,-112.5 1417,-142.5 1534,-142.5 1534,-112.5 1417,-112.5"/>
<text text-anchor="start" x="1425" y="-130.5" font-family="Helvetica,sans-Serif" font-size="10.00">src/gui/screen_game</text>
<text text-anchor="middle" x="1475.5" y="-119.5" font-family="Helvetica,sans-Serif" font-size="10.00">/gui_figure.h</text>
</a>
</g>
</g>
<!-- Node8&#45;&gt;Node30 -->
<g id="edge39" class="edge">
<title>Node8&#45;&gt;Node30</title>
<path fill="none" stroke="midnightblue" d="M1291.99,-179.48C1328,-169.47 1376.6,-155.97 1414.74,-145.38"/>
<polygon fill="midnightblue" stroke="midnightblue" points="1416,-148.66 1424.7,-142.61 1414.13,-141.92 1416,-148.66"/>
</g>
<!-- Node17 -->
<g id="node17" class="node">
<title>Node17</title>
<g id="a_node17"><a xlink:title=" ">
<polygon fill="none" stroke="#bfbfbf" points="1824.5,-56.5 1824.5,-75.5 1922.5,-75.5 1922.5,-56.5 1824.5,-56.5"/>
<text text-anchor="middle" x="1873.5" y="-63.5" font-family="Helvetica,sans-Serif" font-size="10.00">QGraphicsObject</text>
</a>
</g>
</g>
<!-- Node16&#45;&gt;Node17 -->
<g id="edge19" class="edge">
<title>Node16&#45;&gt;Node17</title>
<path fill="none" stroke="midnightblue" d="M1873.5,-112.4C1873.5,-104.47 1873.5,-94.46 1873.5,-85.86"/>
<polygon fill="midnightblue" stroke="midnightblue" points="1877,-85.66 1873.5,-75.66 1870,-85.66 1877,-85.66"/>
</g>
<!-- Node18 -->
<g id="node18" class="node">
<title>Node18</title>
<g id="a_node18"><a xlink:title=" ">
<polygon fill="none" stroke="#bfbfbf" points="1499.5,-56.5 1499.5,-75.5 1623.5,-75.5 1623.5,-56.5 1499.5,-56.5"/>
<text text-anchor="middle" x="1561.5" y="-63.5" font-family="Helvetica,sans-Serif" font-size="10.00">QGraphicsSceneEvent</text>
</a>
</g>
</g>
<!-- Node16&#45;&gt;Node18 -->
<g id="edge20" class="edge">
<title>Node16&#45;&gt;Node18</title>
<path fill="none" stroke="midnightblue" d="M1815.93,-113.73C1813.08,-113.13 1810.26,-112.56 1807.5,-112 1743.99,-99.22 1670.93,-86.05 1621.04,-77.28"/>
<polygon fill="midnightblue" stroke="midnightblue" points="1621.53,-73.82 1611.07,-75.54 1620.32,-80.71 1621.53,-73.82"/>
</g>
<!-- Node19 -->
<g id="node19" class="node">
<title>Node19</title>
<g id="a_node19"><a xlink:title=" ">
<polygon fill="none" stroke="#bfbfbf" points="1748.5,-56.5 1748.5,-75.5 1806.5,-75.5 1806.5,-56.5 1748.5,-56.5"/>
<text text-anchor="middle" x="1777.5" y="-63.5" font-family="Helvetica,sans-Serif" font-size="10.00">QPainter</text>
</a>
</g>
</g>
<!-- Node16&#45;&gt;Node19 -->
<g id="edge21" class="edge">
<title>Node16&#45;&gt;Node19</title>
<path fill="none" stroke="midnightblue" d="M1850.75,-112.4C1835.51,-102.95 1815.51,-90.56 1800.26,-81.11"/>
<polygon fill="midnightblue" stroke="midnightblue" points="1801.81,-77.95 1791.47,-75.66 1798.12,-83.9 1801.81,-77.95"/>
</g>
<!-- Node20 -->
<g id="node20" class="node">
<title>Node20</title>
<g id="a_node20"><a xlink:href="utils_8h.html" target="_top" xlink:title=" ">
<polygon fill="none" stroke="black" points="1940.5,-56.5 1940.5,-75.5 2004.5,-75.5 2004.5,-56.5 1940.5,-56.5"/>
<text text-anchor="middle" x="1972.5" y="-63.5" font-family="Helvetica,sans-Serif" font-size="10.00">src/utils.h</text>
</a>
</g>
</g>
<!-- Node16&#45;&gt;Node20 -->
<g id="edge22" class="edge">
<title>Node16&#45;&gt;Node20</title>
<path fill="none" stroke="midnightblue" d="M1896.96,-112.4C1912.83,-102.86 1933.69,-90.32 1949.47,-80.84"/>
<polygon fill="midnightblue" stroke="midnightblue" points="1951.33,-83.81 1958.09,-75.66 1947.72,-77.81 1951.33,-83.81"/>
</g>
<!-- Node21 -->
<g id="node21" class="node">
<title>Node21</title>
<g id="a_node21"><a xlink:title=" ">
<polygon fill="none" stroke="#bfbfbf" points="1950,-0.5 1950,-19.5 1995,-19.5 1995,-0.5 1950,-0.5"/>
<text text-anchor="middle" x="1972.5" y="-7.5" font-family="Helvetica,sans-Serif" font-size="10.00">utility</text>
</a>
</g>
</g>
<!-- Node20&#45;&gt;Node21 -->
<g id="edge23" class="edge">
<title>Node20&#45;&gt;Node21</title>
<path fill="none" stroke="midnightblue" d="M1972.5,-56.08C1972.5,-49.01 1972.5,-38.86 1972.5,-29.99"/>
<polygon fill="midnightblue" stroke="midnightblue" points="1976,-29.75 1972.5,-19.75 1969,-29.75 1976,-29.75"/>
</g>
<!-- Node22&#45;&gt;Node12 -->
<g id="edge25" class="edge">
<title>Node22&#45;&gt;Node12</title>
<path fill="none" stroke="midnightblue" d="M2105.97,-112.4C2136.08,-102.16 2176.35,-88.47 2204.77,-78.81"/>
<polygon fill="midnightblue" stroke="midnightblue" points="2205.95,-82.1 2214.29,-75.57 2203.7,-75.48 2205.95,-82.1"/>
</g>
<!-- Node22&#45;&gt;Node20 -->
<g id="edge28" class="edge">
<title>Node22&#45;&gt;Node20</title>
<path fill="none" stroke="midnightblue" d="M2042.7,-112.4C2028.09,-102.95 2008.93,-90.56 1994.32,-81.11"/>
<polygon fill="midnightblue" stroke="midnightblue" points="1996.18,-78.15 1985.89,-75.66 1992.38,-84.03 1996.18,-78.15"/>
</g>
<!-- Node23 -->
<g id="node23" class="node">
<title>Node23</title>
<g id="a_node23"><a xlink:title=" ">
<polygon fill="none" stroke="#bfbfbf" points="2022.5,-56.5 2022.5,-75.5 2106.5,-75.5 2106.5,-56.5 2022.5,-56.5"/>
<text text-anchor="middle" x="2064.5" y="-63.5" font-family="Helvetica,sans-Serif" font-size="10.00">QMouseEvent</text>
</a>
</g>
</g>
<!-- Node22&#45;&gt;Node23 -->
<g id="edge26" class="edge">
<title>Node22&#45;&gt;Node23</title>
<path fill="none" stroke="midnightblue" d="M2064.5,-112.4C2064.5,-104.47 2064.5,-94.46 2064.5,-85.86"/>
<polygon fill="midnightblue" stroke="midnightblue" points="2068,-85.66 2064.5,-75.66 2061,-85.66 2068,-85.66"/>
</g>
<!-- Node24 -->
<g id="node24" class="node">
<title>Node24</title>
<g id="a_node24"><a xlink:title=" ">
<polygon fill="none" stroke="#bfbfbf" points="2124,-56.5 2124,-75.5 2173,-75.5 2173,-56.5 2124,-56.5"/>
<text text-anchor="middle" x="2148.5" y="-63.5" font-family="Helvetica,sans-Serif" font-size="10.00">QPoint</text>
</a>
</g>
</g>
<!-- Node22&#45;&gt;Node24 -->
<g id="edge27" class="edge">
<title>Node22&#45;&gt;Node24</title>
<path fill="none" stroke="midnightblue" d="M2084.41,-112.4C2097.49,-103.13 2114.58,-91.03 2127.82,-81.65"/>
<polygon fill="midnightblue" stroke="midnightblue" points="2130.14,-84.29 2136.28,-75.66 2126.09,-78.58 2130.14,-84.29"/>
</g>
<!-- Node25&#45;&gt;Node5 -->
<g id="edge32" class="edge">
<title>Node25&#45;&gt;Node5</title>
<path fill="none" stroke="midnightblue" d="M1551.84,-113.37C1549.03,-112.86 1546.23,-112.4 1543.5,-112 1407.4,-92.04 978.8,-73.63 850.28,-68.45"/>
<polygon fill="midnightblue" stroke="midnightblue" points="850.3,-64.95 840.16,-68.04 850.02,-71.94 850.3,-64.95"/>
</g>
<!-- Node25&#45;&gt;Node13 -->
<g id="edge31" class="edge">
<title>Node25&#45;&gt;Node13</title>
<path fill="none" stroke="midnightblue" d="M1551.78,-113.69C1548.98,-113.1 1546.21,-112.53 1543.5,-112 1503.21,-104.06 1396.56,-87.36 1327.12,-76.69"/>
<polygon fill="midnightblue" stroke="midnightblue" points="1327.58,-73.22 1317.16,-75.16 1326.51,-80.14 1327.58,-73.22"/>
</g>
<!-- Node25&#45;&gt;Node18 -->
<g id="edge30" class="edge">
<title>Node25&#45;&gt;Node18</title>
<path fill="none" stroke="midnightblue" d="M1595.07,-112.4C1588.74,-103.84 1580.63,-92.87 1573.97,-83.86"/>
<polygon fill="midnightblue" stroke="midnightblue" points="1576.66,-81.62 1567.9,-75.66 1571.03,-85.78 1576.66,-81.62"/>
</g>
<!-- Node25&#45;&gt;Node20 -->
<g id="edge34" class="edge">
<title>Node25&#45;&gt;Node20</title>
<path fill="none" stroke="midnightblue" d="M1659.05,-113.83C1662.24,-113.18 1665.41,-112.57 1668.5,-112 1781.38,-91.33 1813.6,-96.36 1930.28,-76.09"/>
<polygon fill="midnightblue" stroke="midnightblue" points="1931.08,-79.5 1940.32,-74.32 1929.86,-72.61 1931.08,-79.5"/>
</g>
<!-- Node26 -->
<g id="node26" class="node">
<title>Node26</title>
<g id="a_node26"><a xlink:title=" ">
<polygon fill="none" stroke="#bfbfbf" points="1335.5,-56.5 1335.5,-75.5 1421.5,-75.5 1421.5,-56.5 1335.5,-56.5"/>
<text text-anchor="middle" x="1378.5" y="-63.5" font-family="Helvetica,sans-Serif" font-size="10.00">QSvgRenderer</text>
</a>
</g>
</g>
<!-- Node25&#45;&gt;Node26 -->
<g id="edge33" class="edge">
<title>Node25&#45;&gt;Node26</title>
<path fill="none" stroke="midnightblue" d="M1551.99,-112.47C1511.97,-101.99 1457.99,-87.84 1420.93,-78.12"/>
<polygon fill="midnightblue" stroke="midnightblue" points="1421.51,-74.66 1410.95,-75.51 1419.74,-81.43 1421.51,-74.66"/>
</g>
<!-- Node27&#45;&gt;Node19 -->
<g id="edge37" class="edge">
<title>Node27&#45;&gt;Node19</title>
<path fill="none" stroke="midnightblue" d="M1746.98,-112.4C1752.67,-103.93 1759.95,-93.1 1765.98,-84.14"/>
<polygon fill="midnightblue" stroke="midnightblue" points="1769.01,-85.91 1771.68,-75.66 1763.2,-82 1769.01,-85.91"/>
</g>
<!-- Node28 -->
<g id="node28" class="node">
<title>Node28</title>
<g id="a_node28"><a xlink:title=" ">
<polygon fill="none" stroke="#bfbfbf" points="1642,-56.5 1642,-75.5 1731,-75.5 1731,-56.5 1642,-56.5"/>
<text text-anchor="middle" x="1686.5" y="-63.5" font-family="Helvetica,sans-Serif" font-size="10.00">QGraphicsItem</text>
</a>
</g>
</g>
<!-- Node27&#45;&gt;Node28 -->
<g id="edge36" class="edge">
<title>Node27&#45;&gt;Node28</title>
<path fill="none" stroke="midnightblue" d="M1725.41,-112.4C1717.93,-103.66 1708.28,-92.41 1700.47,-83.3"/>
<polygon fill="midnightblue" stroke="midnightblue" points="1703.09,-80.97 1693.92,-75.66 1697.77,-85.53 1703.09,-80.97"/>
</g>
<!-- Node29 -->
<g id="node29" class="node">
<title>Node29</title>
<g id="a_node29"><a xlink:title=" ">
<polygon fill="none" stroke="#bfbfbf" points="1439.5,-56.5 1439.5,-75.5 1481.5,-75.5 1481.5,-56.5 1439.5,-56.5"/>
<text text-anchor="middle" x="1460.5" y="-63.5" font-family="Helvetica,sans-Serif" font-size="10.00">QPen</text>
</a>
</g>
</g>
<!-- Node27&#45;&gt;Node29 -->
<g id="edge38" class="edge">
<title>Node27&#45;&gt;Node29</title>
<path fill="none" stroke="midnightblue" d="M1676.92,-113.74C1674.08,-113.15 1671.26,-112.57 1668.5,-112 1592.54,-96.34 1570.5,-95.65 1491.64,-76.11"/>
<polygon fill="midnightblue" stroke="midnightblue" points="1492.29,-72.67 1481.74,-73.63 1490.59,-79.46 1492.29,-72.67"/>
</g>
<!-- Node30&#45;&gt;Node7 -->
<g id="edge43" class="edge">
<title>Node30&#45;&gt;Node7</title>
<path fill="none" stroke="midnightblue" d="M1416.77,-113.25C1413.98,-112.79 1411.21,-112.37 1408.5,-112 1130.16,-74.18 1057.81,-94.17 777.5,-76 755.01,-74.54 730.24,-72.78 708.79,-71.2"/>
<polygon fill="midnightblue" stroke="midnightblue" points="708.78,-67.69 698.55,-70.44 708.26,-74.67 708.78,-67.69"/>
</g>
<!-- Node30&#45;&gt;Node13 -->
<g id="edge41" class="edge">
<title>Node30&#45;&gt;Node13</title>
<path fill="none" stroke="midnightblue" d="M1425.53,-112.47C1388.31,-102.03 1338.17,-87.96 1303.57,-78.25"/>
<polygon fill="midnightblue" stroke="midnightblue" points="1304.38,-74.84 1293.81,-75.51 1302.49,-81.58 1304.38,-74.84"/>
</g>
<!-- Node30&#45;&gt;Node20 -->
<g id="edge44" class="edge">
<title>Node30&#45;&gt;Node20</title>
<path fill="none" stroke="midnightblue" d="M1534.03,-113.56C1537.22,-113 1540.4,-112.47 1543.5,-112 1711.45,-86.39 1758.59,-102 1930.2,-76.01"/>
<polygon fill="midnightblue" stroke="midnightblue" points="1930.99,-79.43 1940.34,-74.45 1929.93,-72.52 1930.99,-79.43"/>
</g>
<!-- Node30&#45;&gt;Node26 -->
<g id="edge42" class="edge">
<title>Node30&#45;&gt;Node26</title>
<path fill="none" stroke="midnightblue" d="M1452.51,-112.4C1437.11,-102.95 1416.91,-90.56 1401.5,-81.11"/>
<polygon fill="midnightblue" stroke="midnightblue" points="1402.97,-77.9 1392.61,-75.66 1399.31,-83.87 1402.97,-77.9"/>
</g>
<!-- Node31 -->
<g id="node31" class="node">
<title>Node31</title>
<g id="a_node31"><a xlink:title=" ">
<polygon fill="none" stroke="#bfbfbf" points="1035.5,-56.5 1035.5,-75.5 1191.5,-75.5 1191.5,-56.5 1035.5,-56.5"/>
<text text-anchor="middle" x="1113.5" y="-63.5" font-family="Helvetica,sans-Serif" font-size="10.00">QGraphicsSceneMouseEvent</text>
</a>
</g>
</g>
<!-- Node30&#45;&gt;Node31 -->
<g id="edge40" class="edge">
<title>Node30&#45;&gt;Node31</title>
<path fill="none" stroke="midnightblue" d="M1416.72,-113.56C1413.94,-113.02 1411.19,-112.5 1408.5,-112 1333.37,-98.15 1246.9,-85.33 1187.09,-76.94"/>
<polygon fill="midnightblue" stroke="midnightblue" points="1187.38,-73.45 1176.99,-75.53 1186.41,-80.38 1187.38,-73.45"/>
</g>
<!-- Node32&#45;&gt;Node7 -->
<g id="edge47" class="edge">
<title>Node32&#45;&gt;Node7</title>
<path fill="none" stroke="midnightblue" d="M390.53,-179.49C420.71,-162.24 474.36,-132.7 522.5,-112 552.96,-98.9 588.61,-86.86 615.03,-78.53"/>
<polygon fill="midnightblue" stroke="midnightblue" points="616.16,-81.85 624.67,-75.53 614.08,-75.16 616.16,-81.85"/>
</g>
<!-- Node32&#45;&gt;Node15 -->
<g id="edge46" class="edge">
<title>Node32&#45;&gt;Node15</title>
<path fill="none" stroke="midnightblue" d="M413.32,-179.48C452.72,-167.67 508.38,-151 545.18,-139.98"/>
<polygon fill="midnightblue" stroke="midnightblue" points="546.45,-143.25 555.03,-137.03 544.44,-136.55 546.45,-143.25"/>
</g>
<!-- Node33&#45;&gt;Node7 -->
<g id="edge50" class="edge">
<title>Node33&#45;&gt;Node7</title>
<path fill="none" stroke="midnightblue" d="M514.6,-179.27C517.93,-161.38 526.07,-130.76 544.5,-112 560.22,-96 582.46,-85.45 602.74,-78.62"/>
<polygon fill="midnightblue" stroke="midnightblue" points="604.02,-81.89 612.51,-75.56 601.92,-75.21 604.02,-81.89"/>
</g>
<!-- Node33&#45;&gt;Node15 -->
<g id="edge49" class="edge">
<title>Node33&#45;&gt;Node15</title>
<path fill="none" stroke="midnightblue" d="M527.91,-179.4C539.31,-168.96 554.83,-154.75 566.57,-144"/>
<polygon fill="midnightblue" stroke="midnightblue" points="568.99,-146.53 574,-137.19 564.26,-141.37 568.99,-146.53"/>
</g>
<!-- Node34&#45;&gt;Node7 -->
<g id="edge53" class="edge">
<title>Node34&#45;&gt;Node7</title>
<path fill="none" stroke="midnightblue" d="M653.5,-179.48C653.5,-156.72 653.5,-111.7 653.5,-86.06"/>
<polygon fill="midnightblue" stroke="midnightblue" points="657,-85.79 653.5,-75.79 650,-85.79 657,-85.79"/>
</g>
<!-- Node34&#45;&gt;Node15 -->
<g id="edge52" class="edge">
<title>Node34&#45;&gt;Node15</title>
<path fill="none" stroke="midnightblue" d="M638.31,-179.4C627.18,-169.06 612.06,-155.02 600.53,-144.31"/>
<polygon fill="midnightblue" stroke="midnightblue" points="602.57,-141.43 592.86,-137.19 597.81,-146.56 602.57,-141.43"/>
</g>
<!-- Node35&#45;&gt;Node7 -->
<g id="edge55" class="edge">
<title>Node35&#45;&gt;Node7</title>
<path fill="none" stroke="midnightblue" d="M1378.33,-249.49C1221.88,-236.17 845.61,-199.14 732.5,-143 704.63,-129.17 680.13,-102 666.07,-84.18"/>
<polygon fill="midnightblue" stroke="midnightblue" points="668.55,-81.66 659.71,-75.83 662.99,-85.9 668.55,-81.66"/>
</g>
<!-- Node36 -->
<g id="node36" class="node">
<title>Node36</title>
<g id="a_node36"><a xlink:href="board_8h.html" target="_top" xlink:title=" ">
<polygon fill="none" stroke="black" points="2280,-185 2280,-204 2373,-204 2373,-185 2280,-185"/>
<text text-anchor="middle" x="2326.5" y="-192" font-family="Helvetica,sans-Serif" font-size="10.00">../board/board.h</text>
</a>
</g>
</g>
<!-- Node35&#45;&gt;Node36 -->
<g id="edge56" class="edge">
<title>Node35&#45;&gt;Node36</title>
<path fill="none" stroke="midnightblue" d="M1516.84,-250.31C1685.46,-238.89 2114.47,-209.85 2269.5,-199.36"/>
<polygon fill="midnightblue" stroke="midnightblue" points="2270.01,-202.83 2279.75,-198.66 2269.54,-195.85 2270.01,-202.83"/>
</g>
<!-- Node37 -->
<g id="node37" class="node">
<title>Node37</title>
<g id="a_node37"><a xlink:href="figures_8h.html" target="_top" xlink:title=" ">
<polygon fill="none" stroke="black" points="2227.5,-118 2227.5,-137 2331.5,-137 2331.5,-118 2227.5,-118"/>
<text text-anchor="middle" x="2279.5" y="-125" font-family="Helvetica,sans-Serif" font-size="10.00">../figures/figures.h</text>
</a>
</g>
</g>
<!-- Node35&#45;&gt;Node37 -->
<g id="edge65" class="edge">
<title>Node35&#45;&gt;Node37</title>
<path fill="none" stroke="midnightblue" d="M1508.35,-246.48C1636.15,-228.45 1941.85,-184.68 2197.5,-143 2205.51,-141.69 2213.96,-140.26 2222.26,-138.82"/>
<polygon fill="midnightblue" stroke="midnightblue" points="2223.02,-142.24 2232.27,-137.07 2221.82,-135.35 2223.02,-142.24"/>
</g>
<!-- Node36&#45;&gt;Node37 -->
<g id="edge57" class="edge">
<title>Node36&#45;&gt;Node37</title>
<path fill="none" stroke="midnightblue" d="M2320.16,-184.73C2312.9,-174.7 2300.84,-158.01 2291.74,-145.42"/>
<polygon fill="midnightblue" stroke="midnightblue" points="2294.43,-143.18 2285.74,-137.13 2288.76,-147.28 2294.43,-143.18"/>
</g>
<!-- Node39 -->
<g id="node39" class="node">
<title>Node39</title>
<g id="a_node39"><a xlink:title=" ">
<polygon fill="none" stroke="#bfbfbf" points="2425.5,-56.5 2425.5,-75.5 2457.5,-75.5 2457.5,-56.5 2425.5,-56.5"/>
<text text-anchor="middle" x="2441.5" y="-63.5" font-family="Helvetica,sans-Serif" font-size="10.00">list</text>
</a>
</g>
</g>
<!-- Node36&#45;&gt;Node39 -->
<g id="edge63" class="edge">
<title>Node36&#45;&gt;Node39</title>
<path fill="none" stroke="midnightblue" d="M2346.54,-184.9C2364.26,-176.43 2389.83,-162.02 2406.5,-143 2421.27,-126.15 2430.94,-102.02 2436.3,-85.5"/>
<polygon fill="midnightblue" stroke="midnightblue" points="2439.66,-86.48 2439.21,-75.89 2432.97,-84.45 2439.66,-86.48"/>
</g>
<!-- Node41 -->
<g id="node41" class="node">
<title>Node41</title>
<g id="a_node41"><a xlink:title=" ">
<polygon fill="none" stroke="#bfbfbf" points="2350,-118 2350,-137 2397,-137 2397,-118 2350,-118"/>
<text text-anchor="middle" x="2373.5" y="-125" font-family="Helvetica,sans-Serif" font-size="10.00">vector</text>
</a>
</g>
</g>
<!-- Node36&#45;&gt;Node41 -->
<g id="edge64" class="edge">
<title>Node36&#45;&gt;Node41</title>
<path fill="none" stroke="midnightblue" d="M2332.84,-184.73C2340.1,-174.7 2352.16,-158.01 2361.26,-145.42"/>
<polygon fill="midnightblue" stroke="midnightblue" points="2364.24,-147.28 2367.26,-137.13 2358.57,-143.18 2364.24,-147.28"/>
</g>
<!-- Node37&#45;&gt;Node7 -->
<g id="edge58" class="edge">
<title>Node37&#45;&gt;Node7</title>
<path fill="none" stroke="midnightblue" d="M2227.2,-120.38C2199.41,-117.36 2164.64,-113.96 2133.5,-112 1531.81,-74.18 1379.64,-105.83 777.5,-76 754.99,-74.88 730.21,-73.18 708.77,-71.56"/>
<polygon fill="midnightblue" stroke="midnightblue" points="708.77,-68.05 698.53,-70.77 708.23,-75.03 708.77,-68.05"/>
</g>
<!-- Node37&#45;&gt;Node20 -->
<g id="edge59" class="edge">
<title>Node37&#45;&gt;Node20</title>
<path fill="none" stroke="midnightblue" d="M2232.33,-117.96C2181.18,-108.61 2096.85,-92.93 2014.71,-76.21"/>
<polygon fill="midnightblue" stroke="midnightblue" points="2015.21,-72.73 2004.71,-74.16 2013.81,-79.59 2015.21,-72.73"/>
</g>
<!-- Node38 -->
<g id="node38" class="node">
<title>Node38</title>
<g id="a_node38"><a xlink:title=" ">
<polygon fill="none" stroke="#bfbfbf" points="2306,-56.5 2306,-75.5 2357,-75.5 2357,-56.5 2306,-56.5"/>
<text text-anchor="middle" x="2331.5" y="-63.5" font-family="Helvetica,sans-Serif" font-size="10.00">math.h</text>
</a>
</g>
</g>
<!-- Node37&#45;&gt;Node38 -->
<g id="edge60" class="edge">
<title>Node37&#45;&gt;Node38</title>
<path fill="none" stroke="midnightblue" d="M2286.95,-117.98C2294.83,-108.96 2307.44,-94.52 2317.24,-83.31"/>
<polygon fill="midnightblue" stroke="midnightblue" points="2320.12,-85.34 2324.06,-75.51 2314.85,-80.74 2320.12,-85.34"/>
</g>
<!-- Node37&#45;&gt;Node39 -->
<g id="edge61" class="edge">
<title>Node37&#45;&gt;Node39</title>
<path fill="none" stroke="midnightblue" d="M2302.71,-117.98C2332.58,-107 2384.33,-88 2415.49,-76.55"/>
<polygon fill="midnightblue" stroke="midnightblue" points="2417.03,-79.72 2425.21,-72.98 2414.62,-73.14 2417.03,-79.72"/>
</g>
<!-- Node40 -->
<g id="node40" class="node">
<title>Node40</title>
<g id="a_node40"><a xlink:title=" ">
<polygon fill="none" stroke="#bfbfbf" points="2375.5,-56.5 2375.5,-75.5 2407.5,-75.5 2407.5,-56.5 2375.5,-56.5"/>
<text text-anchor="middle" x="2391.5" y="-63.5" font-family="Helvetica,sans-Serif" font-size="10.00">set</text>
</a>
</g>
</g>
<!-- Node37&#45;&gt;Node40 -->
<g id="edge62" class="edge">
<title>Node37&#45;&gt;Node40</title>
<path fill="none" stroke="midnightblue" d="M2295.55,-117.98C2314.09,-108.12 2344.84,-91.79 2366.52,-80.27"/>
<polygon fill="midnightblue" stroke="midnightblue" points="2368.29,-83.29 2375.48,-75.51 2365.01,-77.11 2368.29,-83.29"/>
</g>
</g>
</svg>
