<?xml version="1.0" encoding="UTF-8" standalone="no"?>
<!DOCTYPE svg PUBLIC "-//W3C//DTD SVG 1.1//EN"
 "http://www.w3.org/Graphics/SVG/1.1/DTD/svg11.dtd">
<!-- Generated by graphviz version 2.43.0 (0)
 -->
<!-- Title: src/gui/main_window/main_window.h Pages: 1 -->
<svg width="1510pt" height="341pt"
 viewBox="0.00 0.00 1509.50 341.00" xmlns="http://www.w3.org/2000/svg" xmlns:xlink="http://www.w3.org/1999/xlink">
<g id="graph0" class="graph" transform="scale(1 1) rotate(0) translate(4 337)">
<title>src/gui/main_window/main_window.h</title>
<!-- Node1 -->
<g id="node1" class="node">
<title>Node1</title>
<g id="a_node1"><a xlink:title=" ">
<polygon fill="#bfbfbf" stroke="black" points="727,-302.5 727,-332.5 846,-332.5 846,-302.5 727,-302.5"/>
<text text-anchor="start" x="735" y="-320.5" font-family="Helvetica,sans-Serif" font-size="10.00">src/gui/main_window</text>
<text text-anchor="middle" x="786.5" y="-309.5" font-family="Helvetica,sans-Serif" font-size="10.00">/main_window.h</text>
</a>
</g>
</g>
<!-- Node2 -->
<g id="node2" class="node">
<title>Node2</title>
<g id="a_node2"><a xlink:title=" ">
<polygon fill="none" stroke="#bfbfbf" points="0,-246.5 0,-265.5 87,-265.5 87,-246.5 0,-246.5"/>
<text text-anchor="middle" x="43.5" y="-253.5" font-family="Helvetica,sans-Serif" font-size="10.00">QMainWindow</text>
</a>
</g>
</g>
<!-- Node1&#45;&gt;Node2 -->
<g id="edge1" class="edge">
<title>Node1&#45;&gt;Node2</title>
<path fill="none" stroke="midnightblue" d="M726.69,-314.11C608.36,-308.96 335.87,-294.95 97.4,-266.13"/>
<polygon fill="midnightblue" stroke="midnightblue" points="97.5,-262.61 87.15,-264.88 96.65,-269.56 97.5,-262.61"/>
</g>
<!-- Node3 -->
<g id="node3" class="node">
<title>Node3</title>
<g id="a_node3"><a xlink:title=" ">
<polygon fill="none" stroke="#bfbfbf" points="105,-246.5 105,-265.5 202,-265.5 202,-246.5 105,-246.5"/>
<text text-anchor="middle" x="153.5" y="-253.5" font-family="Helvetica,sans-Serif" font-size="10.00">QStackedWidget</text>
</a>
</g>
</g>
<!-- Node1&#45;&gt;Node3 -->
<g id="edge2" class="edge">
<title>Node1&#45;&gt;Node3</title>
<path fill="none" stroke="midnightblue" d="M726.9,-312.28C623.06,-304.68 402.28,-287.48 216.5,-266 215.2,-265.85 213.89,-265.69 212.57,-265.54"/>
<polygon fill="midnightblue" stroke="midnightblue" points="212.67,-262.02 202.31,-264.24 211.79,-268.96 212.67,-262.02"/>
</g>
<!-- Node4 -->
<g id="node4" class="node">
<title>Node4</title>
<g id="a_node4"><a xlink:title=" ">
<polygon fill="none" stroke="#bfbfbf" points="259,-118 259,-137 312,-137 312,-118 259,-118"/>
<text text-anchor="middle" x="285.5" y="-125" font-family="Helvetica,sans-Serif" font-size="10.00">QString</text>
</a>
</g>
</g>
<!-- Node1&#45;&gt;Node4 -->
<g id="edge3" class="edge">
<title>Node1&#45;&gt;Node4</title>
<path fill="none" stroke="midnightblue" d="M747.35,-302.47C666.99,-273.55 477.77,-204.83 320.5,-143 318.86,-142.35 317.18,-141.69 315.48,-141"/>
<polygon fill="midnightblue" stroke="midnightblue" points="316.39,-137.59 305.81,-137.06 313.75,-144.08 316.39,-137.59"/>
</g>
<!-- Node5 -->
<g id="node5" class="node">
<title>Node5</title>
<g id="a_node5"><a xlink:title=" ">
<polygon fill="none" stroke="#bfbfbf" points="671,-0.5 671,-19.5 726,-19.5 726,-0.5 671,-0.5"/>
<text text-anchor="middle" x="698.5" y="-7.5" font-family="Helvetica,sans-Serif" font-size="10.00">QVector</text>
</a>
</g>
</g>
<!-- Node1&#45;&gt;Node5 -->
<g id="edge4" class="edge">
<title>Node1&#45;&gt;Node5</title>
<path fill="none" stroke="midnightblue" d="M727,-316.02C583.57,-313.27 230.5,-296.26 230.5,-195.5 230.5,-195.5 230.5,-195.5 230.5,-126.5 230.5,-89.09 244.59,-75.54 276.5,-56 340.49,-16.81 569.8,-11.5 660.85,-10.96"/>
<polygon fill="midnightblue" stroke="midnightblue" points="661.01,-14.46 671,-10.92 660.98,-7.46 661.01,-14.46"/>
</g>
<!-- Node6 -->
<g id="node6" class="node">
<title>Node6</title>
<g id="a_node6"><a xlink:href="constants_8h.html" target="_top" xlink:title=" ">
<polygon fill="none" stroke="black" points="1121.5,-56.5 1121.5,-75.5 1211.5,-75.5 1211.5,-56.5 1121.5,-56.5"/>
<text text-anchor="middle" x="1166.5" y="-63.5" font-family="Helvetica,sans-Serif" font-size="10.00">src/constants.h</text>
</a>
</g>
</g>
<!-- Node1&#45;&gt;Node6 -->
<g id="edge5" class="edge">
<title>Node1&#45;&gt;Node6</title>
<path fill="none" stroke="midnightblue" d="M846.1,-310.91C954.53,-299.38 1177.19,-268.95 1223.5,-210 1254.76,-170.21 1208.61,-111.07 1182.45,-82.96"/>
<polygon fill="midnightblue" stroke="midnightblue" points="1184.83,-80.38 1175.38,-75.59 1179.78,-85.23 1184.83,-80.38"/>
</g>
<!-- Node7 -->
<g id="node7" class="node">
<title>Node7</title>
<g id="a_node7"><a xlink:href="screen__game_8h.html" target="_top" xlink:title=" ">
<polygon fill="none" stroke="black" points="659,-179.5 659,-209.5 776,-209.5 776,-179.5 659,-179.5"/>
<text text-anchor="start" x="667" y="-197.5" font-family="Helvetica,sans-Serif" font-size="10.00">src/gui/screen_game</text>
<text text-anchor="middle" x="717.5" y="-186.5" font-family="Helvetica,sans-Serif" font-size="10.00">/screen_game.h</text>
</a>
</g>
</g>
<!-- Node1&#45;&gt;Node7 -->
<g id="edge7" class="edge">
<title>Node1&#45;&gt;Node7</title>
<path fill="none" stroke="midnightblue" d="M778.31,-302.14C766.54,-281.5 744.69,-243.19 730.64,-218.55"/>
<polygon fill="midnightblue" stroke="midnightblue" points="733.67,-216.79 725.68,-209.84 727.59,-220.26 733.67,-216.79"/>
</g>
<!-- Node22 -->
<g id="node22" class="node">
<title>Node22</title>
<g id="a_node22"><a xlink:href="screen__liderboard_8h.html" target="_top" xlink:title=" ">
<polygon fill="none" stroke="black" points="794,-179.5 794,-209.5 933,-209.5 933,-179.5 794,-179.5"/>
<text text-anchor="start" x="802" y="-197.5" font-family="Helvetica,sans-Serif" font-size="10.00">src/gui/screen_liderboard</text>
<text text-anchor="middle" x="863.5" y="-186.5" font-family="Helvetica,sans-Serif" font-size="10.00">/screen_liderboard.h</text>
</a>
</g>
</g>
<!-- Node1&#45;&gt;Node22 -->
<g id="edge26" class="edge">
<title>Node1&#45;&gt;Node22</title>
<path fill="none" stroke="midnightblue" d="M795.64,-302.14C808.78,-281.5 833.15,-243.19 848.83,-218.55"/>
<polygon fill="midnightblue" stroke="midnightblue" points="851.96,-220.15 854.38,-209.84 846.05,-216.39 851.96,-220.15"/>
</g>
<!-- Node23 -->
<g id="node23" class="node">
<title>Node23</title>
<g id="a_node23"><a xlink:href="screen__menu_8h.html" target="_top" xlink:title=" ">
<polygon fill="none" stroke="black" points="951,-179.5 951,-209.5 1068,-209.5 1068,-179.5 951,-179.5"/>
<text text-anchor="start" x="959" y="-197.5" font-family="Helvetica,sans-Serif" font-size="10.00">src/gui/screen_menu</text>
<text text-anchor="middle" x="1009.5" y="-186.5" font-family="Helvetica,sans-Serif" font-size="10.00">/screen_menu.h</text>
</a>
</g>
</g>
<!-- Node1&#45;&gt;Node23 -->
<g id="edge29" class="edge">
<title>Node1&#45;&gt;Node23</title>
<path fill="none" stroke="midnightblue" d="M812.52,-302.38C852.72,-280.57 929.97,-238.65 974.85,-214.3"/>
<polygon fill="midnightblue" stroke="midnightblue" points="976.53,-217.37 983.65,-209.53 973.19,-211.22 976.53,-217.37"/>
</g>
<!-- Node24 -->
<g id="node24" class="node">
<title>Node24</title>
<g id="a_node24"><a xlink:href="screen__settings_8h.html" target="_top" xlink:title=" ">
<polygon fill="none" stroke="black" points="1086.5,-179.5 1086.5,-209.5 1214.5,-209.5 1214.5,-179.5 1086.5,-179.5"/>
<text text-anchor="start" x="1094.5" y="-197.5" font-family="Helvetica,sans-Serif" font-size="10.00">src/gui/screen_settings</text>
<text text-anchor="middle" x="1150.5" y="-186.5" font-family="Helvetica,sans-Serif" font-size="10.00">/screen_settings.h</text>
</a>
</g>
</g>
<!-- Node1&#45;&gt;Node24 -->
<g id="edge32" class="edge">
<title>Node1&#45;&gt;Node24</title>
<path fill="none" stroke="midnightblue" d="M828.97,-302.38C895.96,-280.11 1025.97,-236.9 1098.47,-212.8"/>
<polygon fill="midnightblue" stroke="midnightblue" points="1099.92,-216 1108.3,-209.53 1097.71,-209.36 1099.92,-216"/>
</g>
<!-- Node25 -->
<g id="node25" class="node">
<title>Node25</title>
<g id="a_node25"><a xlink:href="engine_8h.html" target="_top" xlink:title=" ">
<polygon fill="none" stroke="black" points="1275.5,-246.5 1275.5,-265.5 1413.5,-265.5 1413.5,-246.5 1275.5,-246.5"/>
<text text-anchor="middle" x="1344.5" y="-253.5" font-family="Helvetica,sans-Serif" font-size="10.00">src/logic/engine/engine.h</text>
</a>
</g>
</g>
<!-- Node1&#45;&gt;Node25 -->
<g id="edge35" class="edge">
<title>Node1&#45;&gt;Node25</title>
<path fill="none" stroke="midnightblue" d="M846.22,-310.13C947.33,-299.35 1152.25,-277.5 1265.25,-265.45"/>
<polygon fill="midnightblue" stroke="midnightblue" points="1265.66,-268.93 1275.23,-264.39 1264.91,-261.97 1265.66,-268.93"/>
</g>
<!-- Node6&#45;&gt;Node5 -->
<g id="edge6" class="edge">
<title>Node6&#45;&gt;Node5</title>
<path fill="none" stroke="midnightblue" d="M1121.43,-57.93C1116.73,-57.25 1112.02,-56.59 1107.5,-56 971.13,-38.11 808.55,-21.67 736.31,-14.63"/>
<polygon fill="midnightblue" stroke="midnightblue" points="736.61,-11.14 726.32,-13.66 735.93,-18.11 736.61,-11.14"/>
</g>
<!-- Node7&#45;&gt;Node4 -->
<g id="edge11" class="edge">
<title>Node7&#45;&gt;Node4</title>
<path fill="none" stroke="midnightblue" d="M658.71,-190.91C580.38,-186.35 438.01,-174.22 320.5,-143 318.05,-142.35 315.55,-141.57 313.06,-140.71"/>
<polygon fill="midnightblue" stroke="midnightblue" points="314.3,-137.43 303.71,-137.12 311.79,-143.97 314.3,-137.43"/>
</g>
<!-- Node7&#45;&gt;Node6 -->
<g id="edge14" class="edge">
<title>Node7&#45;&gt;Node6</title>
<path fill="none" stroke="midnightblue" d="M776.08,-180.86C779.26,-180.22 782.42,-179.59 785.5,-179 877.62,-161.21 909.55,-184.88 993.5,-143 1011.51,-134.02 1009.16,-122.22 1026.5,-112 1053.43,-96.13 1086.64,-85.14 1113.95,-78"/>
<polygon fill="midnightblue" stroke="midnightblue" points="1114.87,-81.38 1123.72,-75.54 1113.17,-74.59 1114.87,-81.38"/>
</g>
<!-- Node8 -->
<g id="node8" class="node">
<title>Node8</title>
<g id="a_node8"><a xlink:title=" ">
<polygon fill="none" stroke="#bfbfbf" points="469.5,-118 469.5,-137 609.5,-137 609.5,-118 469.5,-118"/>
<text text-anchor="middle" x="539.5" y="-125" font-family="Helvetica,sans-Serif" font-size="10.00">QGraphicsItemAnimation</text>
</a>
</g>
</g>
<!-- Node7&#45;&gt;Node8 -->
<g id="edge8" class="edge">
<title>Node7&#45;&gt;Node8</title>
<path fill="none" stroke="midnightblue" d="M678.88,-179.4C647.09,-167.79 602.52,-151.51 572.41,-140.52"/>
<polygon fill="midnightblue" stroke="midnightblue" points="573.39,-137.15 562.8,-137.01 570.99,-143.72 573.39,-137.15"/>
</g>
<!-- Node9 -->
<g id="node9" class="node">
<title>Node9</title>
<g id="a_node9"><a xlink:title=" ">
<polygon fill="none" stroke="#bfbfbf" points="627.5,-118 627.5,-137 723.5,-137 723.5,-118 627.5,-118"/>
<text text-anchor="middle" x="675.5" y="-125" font-family="Helvetica,sans-Serif" font-size="10.00">QGraphicsScene</text>
</a>
</g>
</g>
<!-- Node7&#45;&gt;Node9 -->
<g id="edge9" class="edge">
<title>Node7&#45;&gt;Node9</title>
<path fill="none" stroke="midnightblue" d="M708.39,-179.4C702.03,-169.56 693.51,-156.38 686.74,-145.89"/>
<polygon fill="midnightblue" stroke="midnightblue" points="689.48,-143.69 681.12,-137.19 683.61,-147.49 689.48,-143.69"/>
</g>
<!-- Node10 -->
<g id="node10" class="node">
<title>Node10</title>
<g id="a_node10"><a xlink:title=" ">
<polygon fill="none" stroke="#bfbfbf" points="703,-56.5 703,-75.5 810,-75.5 810,-56.5 703,-56.5"/>
<text text-anchor="middle" x="756.5" y="-63.5" font-family="Helvetica,sans-Serif" font-size="10.00">QGraphicsSvgItem</text>
</a>
</g>
</g>
<!-- Node7&#45;&gt;Node10 -->
<g id="edge10" class="edge">
<title>Node7&#45;&gt;Node10</title>
<path fill="none" stroke="midnightblue" d="M721.82,-179.48C728.9,-156.51 742.97,-110.89 750.84,-85.37"/>
<polygon fill="midnightblue" stroke="midnightblue" points="754.19,-86.38 753.79,-75.79 747.5,-84.31 754.19,-86.38"/>
</g>
<!-- Node11 -->
<g id="node11" class="node">
<title>Node11</title>
<g id="a_node11"><a xlink:title=" ">
<polygon fill="none" stroke="#bfbfbf" points="780,-118 780,-137 849,-137 849,-118 780,-118"/>
<text text-anchor="middle" x="814.5" y="-125" font-family="Helvetica,sans-Serif" font-size="10.00">QTimeLine</text>
</a>
</g>
</g>
<!-- Node7&#45;&gt;Node11 -->
<g id="edge12" class="edge">
<title>Node7&#45;&gt;Node11</title>
<path fill="none" stroke="midnightblue" d="M738.55,-179.4C754.81,-168.5 777.22,-153.48 793.48,-142.58"/>
<polygon fill="midnightblue" stroke="midnightblue" points="795.45,-145.48 801.8,-137.01 791.55,-139.67 795.45,-145.48"/>
</g>
<!-- Node12 -->
<g id="node12" class="node">
<title>Node12</title>
<g id="a_node12"><a xlink:title=" ">
<polygon fill="none" stroke="#bfbfbf" points="1079,-118 1079,-137 1138,-137 1138,-118 1079,-118"/>
<text text-anchor="middle" x="1108.5" y="-125" font-family="Helvetica,sans-Serif" font-size="10.00">QWidget</text>
</a>
</g>
</g>
<!-- Node7&#45;&gt;Node12 -->
<g id="edge13" class="edge">
<title>Node7&#45;&gt;Node12</title>
<path fill="none" stroke="midnightblue" d="M776.06,-180.77C779.25,-180.15 782.41,-179.56 785.5,-179 892.07,-159.7 919.61,-160.43 1026.5,-143 1040.37,-140.74 1055.53,-138.1 1069,-135.7"/>
<polygon fill="midnightblue" stroke="midnightblue" points="1069.7,-139.14 1078.93,-133.93 1068.47,-132.24 1069.7,-139.14"/>
</g>
<!-- Node13 -->
<g id="node13" class="node">
<title>Node13</title>
<g id="a_node13"><a xlink:href="gui__advantage__bar_8h.html" target="_top" xlink:title=" ">
<polygon fill="none" stroke="black" points="330,-112.5 330,-142.5 451,-142.5 451,-112.5 330,-112.5"/>
<text text-anchor="start" x="338" y="-130.5" font-family="Helvetica,sans-Serif" font-size="10.00">src/gui/screen_game</text>
<text text-anchor="middle" x="390.5" y="-119.5" font-family="Helvetica,sans-Serif" font-size="10.00">/gui_advantage_bar.h</text>
</a>
</g>
</g>
<!-- Node7&#45;&gt;Node13 -->
<g id="edge15" class="edge">
<title>Node7&#45;&gt;Node13</title>
<path fill="none" stroke="midnightblue" d="M658.77,-182.14C608.9,-172.45 535.14,-158.02 461.16,-143.12"/>
<polygon fill="midnightblue" stroke="midnightblue" points="461.69,-139.66 451.2,-141.11 460.31,-146.52 461.69,-139.66"/>
</g>
<!-- Node17 -->
<g id="node17" class="node">
<title>Node17</title>
<g id="a_node17"><a xlink:href="gui__figure_8h.html" target="_top" xlink:title=" ">
<polygon fill="none" stroke="black" points="867,-112.5 867,-142.5 984,-142.5 984,-112.5 867,-112.5"/>
<text text-anchor="start" x="875" y="-130.5" font-family="Helvetica,sans-Serif" font-size="10.00">src/gui/screen_game</text>
<text text-anchor="middle" x="925.5" y="-119.5" font-family="Helvetica,sans-Serif" font-size="10.00">/gui_figure.h</text>
</a>
</g>
</g>
<!-- Node7&#45;&gt;Node17 -->
<g id="edge19" class="edge">
<title>Node7&#45;&gt;Node17</title>
<path fill="none" stroke="midnightblue" d="M762.38,-179.48C794.12,-169.56 836.86,-156.2 870.63,-145.65"/>
<polygon fill="midnightblue" stroke="midnightblue" points="871.84,-148.93 880.35,-142.61 869.76,-142.25 871.84,-148.93"/>
</g>
<!-- Node14 -->
<g id="node14" class="node">
<title>Node14</title>
<g id="a_node14"><a xlink:title=" ">
<polygon fill="none" stroke="#bfbfbf" points="346,-56.5 346,-75.5 435,-75.5 435,-56.5 346,-56.5"/>
<text text-anchor="middle" x="390.5" y="-63.5" font-family="Helvetica,sans-Serif" font-size="10.00">QGraphicsItem</text>
</a>
</g>
</g>
<!-- Node13&#45;&gt;Node14 -->
<g id="edge16" class="edge">
<title>Node13&#45;&gt;Node14</title>
<path fill="none" stroke="midnightblue" d="M390.5,-112.4C390.5,-104.47 390.5,-94.46 390.5,-85.86"/>
<polygon fill="midnightblue" stroke="midnightblue" points="394,-85.66 390.5,-75.66 387,-85.66 394,-85.66"/>
</g>
<!-- Node15 -->
<g id="node15" class="node">
<title>Node15</title>
<g id="a_node15"><a xlink:title=" ">
<polygon fill="none" stroke="#bfbfbf" points="452.5,-56.5 452.5,-75.5 510.5,-75.5 510.5,-56.5 452.5,-56.5"/>
<text text-anchor="middle" x="481.5" y="-63.5" font-family="Helvetica,sans-Serif" font-size="10.00">QPainter</text>
</a>
</g>
</g>
<!-- Node13&#45;&gt;Node15 -->
<g id="edge17" class="edge">
<title>Node13&#45;&gt;Node15</title>
<path fill="none" stroke="midnightblue" d="M412.07,-112.4C426.38,-103.04 445.11,-90.79 459.51,-81.38"/>
<polygon fill="midnightblue" stroke="midnightblue" points="461.8,-84.06 468.26,-75.66 457.97,-78.2 461.8,-84.06"/>
</g>
<!-- Node16 -->
<g id="node16" class="node">
<title>Node16</title>
<g id="a_node16"><a xlink:title=" ">
<polygon fill="none" stroke="#bfbfbf" points="285.5,-56.5 285.5,-75.5 327.5,-75.5 327.5,-56.5 285.5,-56.5"/>
<text text-anchor="middle" x="306.5" y="-63.5" font-family="Helvetica,sans-Serif" font-size="10.00">QPen</text>
</a>
</g>
</g>
<!-- Node13&#45;&gt;Node16 -->
<g id="edge18" class="edge">
<title>Node13&#45;&gt;Node16</title>
<path fill="none" stroke="midnightblue" d="M370.59,-112.4C357.51,-103.13 340.42,-91.03 327.18,-81.65"/>
<polygon fill="midnightblue" stroke="midnightblue" points="328.91,-78.58 318.72,-75.66 324.86,-84.29 328.91,-78.58"/>
</g>
<!-- Node17&#45;&gt;Node6 -->
<g id="edge23" class="edge">
<title>Node17&#45;&gt;Node6</title>
<path fill="none" stroke="midnightblue" d="M982.31,-112.47C1025.07,-101.92 1082.84,-87.66 1122.21,-77.94"/>
<polygon fill="midnightblue" stroke="midnightblue" points="1123.18,-81.3 1132.05,-75.51 1121.5,-74.51 1123.18,-81.3"/>
</g>
<!-- Node17&#45;&gt;Node10 -->
<g id="edge21" class="edge">
<title>Node17&#45;&gt;Node10</title>
<path fill="none" stroke="midnightblue" d="M885.45,-112.4C856.59,-102.24 818.05,-88.67 790.65,-79.02"/>
<polygon fill="midnightblue" stroke="midnightblue" points="791.69,-75.68 781.09,-75.66 789.36,-82.28 791.69,-75.68"/>
</g>
<!-- Node18 -->
<g id="node18" class="node">
<title>Node18</title>
<g id="a_node18"><a xlink:title=" ">
<polygon fill="none" stroke="#bfbfbf" points="942.5,-56.5 942.5,-75.5 1098.5,-75.5 1098.5,-56.5 942.5,-56.5"/>
<text text-anchor="middle" x="1020.5" y="-63.5" font-family="Helvetica,sans-Serif" font-size="10.00">QGraphicsSceneMouseEvent</text>
</a>
</g>
</g>
<!-- Node17&#45;&gt;Node18 -->
<g id="edge20" class="edge">
<title>Node17&#45;&gt;Node18</title>
<path fill="none" stroke="midnightblue" d="M948.01,-112.4C963.1,-102.95 982.89,-90.56 997.97,-81.11"/>
<polygon fill="midnightblue" stroke="midnightblue" points="1000.06,-83.93 1006.68,-75.66 996.34,-78 1000.06,-83.93"/>
</g>
<!-- Node19 -->
<g id="node19" class="node">
<title>Node19</title>
<g id="a_node19"><a xlink:title=" ">
<polygon fill="none" stroke="#bfbfbf" points="838.5,-56.5 838.5,-75.5 924.5,-75.5 924.5,-56.5 838.5,-56.5"/>
<text text-anchor="middle" x="881.5" y="-63.5" font-family="Helvetica,sans-Serif" font-size="10.00">QSvgRenderer</text>
</a>
</g>
</g>
<!-- Node17&#45;&gt;Node19 -->
<g id="edge22" class="edge">
<title>Node17&#45;&gt;Node19</title>
<path fill="none" stroke="midnightblue" d="M915.07,-112.4C908.74,-103.84 900.63,-92.87 893.97,-83.86"/>
<polygon fill="midnightblue" stroke="midnightblue" points="896.66,-81.62 887.9,-75.66 891.03,-85.78 896.66,-81.62"/>
</g>
<!-- Node20 -->
<g id="node20" class="node">
<title>Node20</title>
<g id="a_node20"><a xlink:href="utils_8h.html" target="_top" xlink:title=" ">
<polygon fill="none" stroke="black" points="1240.5,-56.5 1240.5,-75.5 1304.5,-75.5 1304.5,-56.5 1240.5,-56.5"/>
<text text-anchor="middle" x="1272.5" y="-63.5" font-family="Helvetica,sans-Serif" font-size="10.00">src/utils.h</text>
</a>
</g>
</g>
<!-- Node17&#45;&gt;Node20 -->
<g id="edge24" class="edge">
<title>Node17&#45;&gt;Node20</title>
<path fill="none" stroke="midnightblue" d="M984.27,-116.47C1043.82,-106.3 1138.57,-90.1 1220.5,-76 1223.71,-75.45 1227.02,-74.88 1230.36,-74.3"/>
<polygon fill="midnightblue" stroke="midnightblue" points="1231.07,-77.73 1240.32,-72.58 1229.87,-70.83 1231.07,-77.73"/>
</g>
<!-- Node21 -->
<g id="node21" class="node">
<title>Node21</title>
<g id="a_node21"><a xlink:title=" ">
<polygon fill="none" stroke="#bfbfbf" points="1250,-0.5 1250,-19.5 1295,-19.5 1295,-0.5 1250,-0.5"/>
<text text-anchor="middle" x="1272.5" y="-7.5" font-family="Helvetica,sans-Serif" font-size="10.00">utility</text>
</a>
</g>
</g>
<!-- Node20&#45;&gt;Node21 -->
<g id="edge25" class="edge">
<title>Node20&#45;&gt;Node21</title>
<path fill="none" stroke="midnightblue" d="M1272.5,-56.08C1272.5,-49.01 1272.5,-38.86 1272.5,-29.99"/>
<polygon fill="midnightblue" stroke="midnightblue" points="1276,-29.75 1272.5,-19.75 1269,-29.75 1276,-29.75"/>
</g>
<!-- Node22&#45;&gt;Node6 -->
<g id="edge28" class="edge">
<title>Node22&#45;&gt;Node6</title>
<path fill="none" stroke="midnightblue" d="M924.46,-179.48C955.84,-171.07 994.2,-158.89 1026.5,-143 1047.97,-132.44 1049.81,-124.01 1070.5,-112 1091.74,-99.67 1116.93,-87.96 1136.17,-79.58"/>
<polygon fill="midnightblue" stroke="midnightblue" points="1137.56,-82.8 1145.37,-75.63 1134.8,-76.36 1137.56,-82.8"/>
</g>
<!-- Node22&#45;&gt;Node12 -->
<g id="edge27" class="edge">
<title>Node22&#45;&gt;Node12</title>
<path fill="none" stroke="midnightblue" d="M924.05,-179.49C964.11,-169.93 1017.68,-156.58 1064.5,-143 1067.49,-142.13 1070.59,-141.19 1073.69,-140.23"/>
<polygon fill="midnightblue" stroke="midnightblue" points="1075.01,-143.48 1083.47,-137.1 1072.88,-136.81 1075.01,-143.48"/>
</g>
<!-- Node23&#45;&gt;Node6 -->
<g id="edge31" class="edge">
<title>Node23&#45;&gt;Node6</title>
<path fill="none" stroke="midnightblue" d="M1063.29,-179.44C1096.83,-169.64 1135.77,-156.04 1147.5,-143 1161.54,-127.39 1165.56,-102.97 1166.53,-86.04"/>
<polygon fill="midnightblue" stroke="midnightblue" points="1170.04,-85.81 1166.81,-75.72 1163.04,-85.62 1170.04,-85.81"/>
</g>
<!-- Node23&#45;&gt;Node12 -->
<g id="edge30" class="edge">
<title>Node23&#45;&gt;Node12</title>
<path fill="none" stroke="midnightblue" d="M1030.98,-179.4C1047.58,-168.5 1070.46,-153.48 1087.05,-142.58"/>
<polygon fill="midnightblue" stroke="midnightblue" points="1089.1,-145.42 1095.54,-137.01 1085.26,-139.57 1089.1,-145.42"/>
</g>
<!-- Node24&#45;&gt;Node6 -->
<g id="edge34" class="edge">
<title>Node24&#45;&gt;Node6</title>
<path fill="none" stroke="midnightblue" d="M1161.67,-179.43C1168.59,-169.79 1176.83,-156.37 1180.5,-143 1185.87,-123.45 1180.02,-100.5 1174.33,-84.97"/>
<polygon fill="midnightblue" stroke="midnightblue" points="1177.52,-83.52 1170.55,-75.54 1171.02,-86.13 1177.52,-83.52"/>
</g>
<!-- Node24&#45;&gt;Node12 -->
<g id="edge33" class="edge">
<title>Node24&#45;&gt;Node12</title>
<path fill="none" stroke="midnightblue" d="M1141.39,-179.4C1135.03,-169.56 1126.51,-156.38 1119.74,-145.89"/>
<polygon fill="midnightblue" stroke="midnightblue" points="1122.48,-143.69 1114.12,-137.19 1116.61,-147.49 1122.48,-143.69"/>
</g>
<!-- Node25&#45;&gt;Node6 -->
<g id="edge36" class="edge">
<title>Node25&#45;&gt;Node6</title>
<path fill="none" stroke="midnightblue" d="M1341.23,-246.47C1331.65,-222.42 1301.43,-153.14 1256.5,-112 1240.85,-97.67 1219.78,-86.8 1201.96,-79.34"/>
<polygon fill="midnightblue" stroke="midnightblue" points="1203.04,-76 1192.45,-75.55 1200.44,-82.51 1203.04,-76"/>
</g>
<!-- Node26 -->
<g id="node26" class="node">
<title>Node26</title>
<g id="a_node26"><a xlink:href="board_8h.html" target="_top" xlink:title=" ">
<polygon fill="none" stroke="black" points="1403,-185 1403,-204 1496,-204 1496,-185 1403,-185"/>
<text text-anchor="middle" x="1449.5" y="-192" font-family="Helvetica,sans-Serif" font-size="10.00">../board/board.h</text>
</a>
</g>
</g>
<!-- Node25&#45;&gt;Node26 -->
<g id="edge37" class="edge">
<title>Node25&#45;&gt;Node26</title>
<path fill="none" stroke="midnightblue" d="M1359.54,-246.48C1376.78,-236.71 1405.24,-220.58 1425.53,-209.08"/>
<polygon fill="midnightblue" stroke="midnightblue" points="1427.51,-211.98 1434.48,-204.01 1424.06,-205.89 1427.51,-211.98"/>
</g>
<!-- Node27 -->
<g id="node27" class="node">
<title>Node27</title>
<g id="a_node27"><a xlink:href="figures_8h.html" target="_top" xlink:title=" ">
<polygon fill="none" stroke="black" points="1308.5,-118 1308.5,-137 1412.5,-137 1412.5,-118 1308.5,-118"/>
<text text-anchor="middle" x="1360.5" y="-125" font-family="Helvetica,sans-Serif" font-size="10.00">../figures/figures.h</text>
</a>
</g>
</g>
<!-- Node25&#45;&gt;Node27 -->
<g id="edge46" class="edge">
<title>Node25&#45;&gt;Node27</title>
<path fill="none" stroke="midnightblue" d="M1345.6,-246.31C1348.17,-225.99 1354.61,-175.05 1358.13,-147.28"/>
<polygon fill="midnightblue" stroke="midnightblue" points="1361.61,-147.62 1359.39,-137.26 1354.67,-146.74 1361.61,-147.62"/>
</g>
<!-- Node26&#45;&gt;Node27 -->
<g id="edge38" class="edge">
<title>Node26&#45;&gt;Node27</title>
<path fill="none" stroke="midnightblue" d="M1437.5,-184.73C1422.95,-174.11 1398.22,-156.05 1380.72,-143.26"/>
<polygon fill="midnightblue" stroke="midnightblue" points="1382.45,-140.2 1372.31,-137.13 1378.32,-145.85 1382.45,-140.2"/>
</g>
<!-- Node29 -->
<g id="node29" class="node">
<title>Node29</title>
<g id="a_node29"><a xlink:title=" ">
<polygon fill="none" stroke="#bfbfbf" points="1469.5,-56.5 1469.5,-75.5 1501.5,-75.5 1501.5,-56.5 1469.5,-56.5"/>
<text text-anchor="middle" x="1485.5" y="-63.5" font-family="Helvetica,sans-Serif" font-size="10.00">list</text>
</a>
</g>
</g>
<!-- Node26&#45;&gt;Node29 -->
<g id="edge44" class="edge">
<title>Node26&#45;&gt;Node29</title>
<path fill="none" stroke="midnightblue" d="M1458.83,-184.89C1468.15,-175.6 1481.87,-159.86 1487.5,-143 1493.76,-124.26 1492.02,-101.46 1489.49,-85.74"/>
<polygon fill="midnightblue" stroke="midnightblue" points="1492.89,-84.9 1487.61,-75.72 1486.01,-86.19 1492.89,-84.9"/>
</g>
<!-- Node31 -->
<g id="node31" class="node">
<title>Node31</title>
<g id="a_node31"><a xlink:title=" ">
<polygon fill="none" stroke="#bfbfbf" points="1431,-118 1431,-137 1478,-137 1478,-118 1431,-118"/>
<text text-anchor="middle" x="1454.5" y="-125" font-family="Helvetica,sans-Serif" font-size="10.00">vector</text>
</a>
</g>
</g>
<!-- Node26&#45;&gt;Node31 -->
<g id="edge45" class="edge">
<title>Node26&#45;&gt;Node31</title>
<path fill="none" stroke="midnightblue" d="M1450.17,-184.73C1450.91,-175.18 1452.11,-159.62 1453.06,-147.28"/>
<polygon fill="midnightblue" stroke="midnightblue" points="1456.56,-147.37 1453.84,-137.13 1449.58,-146.83 1456.56,-147.37"/>
</g>
<!-- Node27&#45;&gt;Node6 -->
<g id="edge39" class="edge">
<title>Node27&#45;&gt;Node6</title>
<path fill="none" stroke="midnightblue" d="M1332.7,-117.98C1298.85,-107.59 1241.53,-90.01 1203.85,-78.45"/>
<polygon fill="midnightblue" stroke="midnightblue" points="1204.83,-75.1 1194.24,-75.51 1202.78,-81.79 1204.83,-75.1"/>
</g>
<!-- Node27&#45;&gt;Node20 -->
<g id="edge40" class="edge">
<title>Node27&#45;&gt;Node20</title>
<path fill="none" stroke="midnightblue" d="M1347.89,-117.98C1333.78,-108.43 1310.67,-92.81 1293.75,-81.37"/>
<polygon fill="midnightblue" stroke="midnightblue" points="1295.33,-78.21 1285.08,-75.51 1291.41,-84.01 1295.33,-78.21"/>
</g>
<!-- Node28 -->
<g id="node28" class="node">
<title>Node28</title>
<g id="a_node28"><a xlink:title=" ">
<polygon fill="none" stroke="#bfbfbf" points="1329,-56.5 1329,-75.5 1380,-75.5 1380,-56.5 1329,-56.5"/>
<text text-anchor="middle" x="1354.5" y="-63.5" font-family="Helvetica,sans-Serif" font-size="10.00">math.h</text>
</a>
</g>
</g>
<!-- Node27&#45;&gt;Node28 -->
<g id="edge41" class="edge">
<title>Node27&#45;&gt;Node28</title>
<path fill="none" stroke="midnightblue" d="M1359.64,-117.98C1358.79,-109.58 1357.47,-96.48 1356.38,-85.66"/>
<polygon fill="midnightblue" stroke="midnightblue" points="1359.84,-85.11 1355.36,-75.51 1352.88,-85.81 1359.84,-85.11"/>
</g>
<!-- Node27&#45;&gt;Node29 -->
<g id="edge42" class="edge">
<title>Node27&#45;&gt;Node29</title>
<path fill="none" stroke="midnightblue" d="M1378.41,-117.98C1399.77,-107.81 1435.63,-90.74 1459.91,-79.18"/>
<polygon fill="midnightblue" stroke="midnightblue" points="1461.69,-82.21 1469.21,-74.75 1458.68,-75.89 1461.69,-82.21"/>
</g>
<!-- Node30 -->
<g id="node30" class="node">
<title>Node30</title>
<g id="a_node30"><a xlink:title=" ">
<polygon fill="none" stroke="#bfbfbf" points="1398.5,-56.5 1398.5,-75.5 1430.5,-75.5 1430.5,-56.5 1398.5,-56.5"/>
<text text-anchor="middle" x="1414.5" y="-63.5" font-family="Helvetica,sans-Serif" font-size="10.00">set</text>
</a>
</g>
</g>
<!-- Node27&#45;&gt;Node30 -->
<g id="edge43" class="edge">
<title>Node27&#45;&gt;Node30</title>
<path fill="none" stroke="midnightblue" d="M1368.24,-117.98C1376.5,-108.87 1389.78,-94.24 1399.99,-82.98"/>
<polygon fill="midnightblue" stroke="midnightblue" points="1402.65,-85.27 1406.78,-75.51 1397.47,-80.56 1402.65,-85.27"/>
</g>
</g>
</svg>
