<?xml version="1.0" encoding="UTF-8" standalone="no"?>
<!DOCTYPE svg PUBLIC "-//W3C//DTD SVG 1.1//EN"
 "http://www.w3.org/Graphics/SVG/1.1/DTD/svg11.dtd">
<!-- Generated by graphviz version 2.43.0 (0)
 -->
<!-- Title: src/gui/main_window/main_window.cpp Pages: 1 -->
<svg width="1489pt" height="397pt"
 viewBox="0.00 0.00 1488.50 397.00" xmlns="http://www.w3.org/2000/svg" xmlns:xlink="http://www.w3.org/1999/xlink">
<g id="graph0" class="graph" transform="scale(1 1) rotate(0) translate(4 393)">
<title>src/gui/main_window/main_window.cpp</title>
<!-- Node1 -->
<g id="node1" class="node">
<title>Node1</title>
<g id="a_node1"><a xlink:title=" ">
<polygon fill="#bfbfbf" stroke="black" points="935,-358.5 935,-388.5 1054,-388.5 1054,-358.5 935,-358.5"/>
<text text-anchor="start" x="943" y="-376.5" font-family="Helvetica,sans-Serif" font-size="10.00">src/gui/main_window</text>
<text text-anchor="middle" x="994.5" y="-365.5" font-family="Helvetica,sans-Serif" font-size="10.00">/main_window.cpp</text>
</a>
</g>
</g>
<!-- Node2 -->
<g id="node2" class="node">
<title>Node2</title>
<g id="a_node2"><a xlink:href="main__window_8h.html" target="_top" xlink:title=" ">
<polygon fill="none" stroke="black" points="830.5,-302.5 830.5,-321.5 922.5,-321.5 922.5,-302.5 830.5,-302.5"/>
<text text-anchor="middle" x="876.5" y="-309.5" font-family="Helvetica,sans-Serif" font-size="10.00">main_window.h</text>
</a>
</g>
</g>
<!-- Node1&#45;&gt;Node2 -->
<g id="edge1" class="edge">
<title>Node1&#45;&gt;Node2</title>
<path fill="none" stroke="midnightblue" d="M966.54,-358.4C947.18,-348.64 921.59,-335.74 902.64,-326.18"/>
<polygon fill="midnightblue" stroke="midnightblue" points="904.17,-323.04 893.67,-321.66 901.02,-329.29 904.17,-323.04"/>
</g>
<!-- Node37 -->
<g id="node37" class="node">
<title>Node37</title>
<g id="a_node37"><a xlink:title=" ">
<polygon fill="none" stroke="#bfbfbf" points="941,-302.5 941,-321.5 1048,-321.5 1048,-302.5 941,-302.5"/>
<text text-anchor="middle" x="994.5" y="-309.5" font-family="Helvetica,sans-Serif" font-size="10.00">ui_main_window.h</text>
</a>
</g>
</g>
<!-- Node1&#45;&gt;Node37 -->
<g id="edge54" class="edge">
<title>Node1&#45;&gt;Node37</title>
<path fill="none" stroke="midnightblue" d="M994.5,-358.4C994.5,-350.47 994.5,-340.46 994.5,-331.86"/>
<polygon fill="midnightblue" stroke="midnightblue" points="998,-331.66 994.5,-321.66 991,-331.66 998,-331.66"/>
</g>
<!-- Node38 -->
<g id="node38" class="node">
<title>Node38</title>
<g id="a_node38"><a xlink:title=" ">
<polygon fill="none" stroke="#bfbfbf" points="1066.5,-302.5 1066.5,-321.5 1126.5,-321.5 1126.5,-302.5 1066.5,-302.5"/>
<text text-anchor="middle" x="1096.5" y="-309.5" font-family="Helvetica,sans-Serif" font-size="10.00">iostream</text>
</a>
</g>
</g>
<!-- Node1&#45;&gt;Node38 -->
<g id="edge55" class="edge">
<title>Node1&#45;&gt;Node38</title>
<path fill="none" stroke="midnightblue" d="M1018.67,-358.4C1035.02,-348.86 1056.51,-336.32 1072.77,-326.84"/>
<polygon fill="midnightblue" stroke="midnightblue" points="1074.78,-329.72 1081.66,-321.66 1071.26,-323.67 1074.78,-329.72"/>
</g>
<!-- Node3 -->
<g id="node3" class="node">
<title>Node3</title>
<g id="a_node3"><a xlink:title=" ">
<polygon fill="none" stroke="#bfbfbf" points="344,-246.5 344,-265.5 431,-265.5 431,-246.5 344,-246.5"/>
<text text-anchor="middle" x="387.5" y="-253.5" font-family="Helvetica,sans-Serif" font-size="10.00">QMainWindow</text>
</a>
</g>
</g>
<!-- Node2&#45;&gt;Node3 -->
<g id="edge2" class="edge">
<title>Node2&#45;&gt;Node3</title>
<path fill="none" stroke="midnightblue" d="M830.45,-307.31C752.43,-300.82 589.09,-286.26 441.32,-266.17"/>
<polygon fill="midnightblue" stroke="midnightblue" points="441.54,-262.67 431.16,-264.78 440.59,-269.61 441.54,-262.67"/>
</g>
<!-- Node4 -->
<g id="node4" class="node">
<title>Node4</title>
<g id="a_node4"><a xlink:title=" ">
<polygon fill="none" stroke="#bfbfbf" points="449,-246.5 449,-265.5 546,-265.5 546,-246.5 449,-246.5"/>
<text text-anchor="middle" x="497.5" y="-253.5" font-family="Helvetica,sans-Serif" font-size="10.00">QStackedWidget</text>
</a>
</g>
</g>
<!-- Node2&#45;&gt;Node4 -->
<g id="edge3" class="edge">
<title>Node2&#45;&gt;Node4</title>
<path fill="none" stroke="midnightblue" d="M830.45,-304.45C768.92,-295.69 656.5,-279.69 560.5,-266 559.21,-265.82 557.9,-265.63 556.58,-265.44"/>
<polygon fill="midnightblue" stroke="midnightblue" points="556.73,-261.93 546.34,-263.98 555.74,-268.86 556.73,-261.93"/>
</g>
<!-- Node5 -->
<g id="node5" class="node">
<title>Node5</title>
<g id="a_node5"><a xlink:title=" ">
<polygon fill="none" stroke="#bfbfbf" points="0,-118 0,-137 53,-137 53,-118 0,-118"/>
<text text-anchor="middle" x="26.5" y="-125" font-family="Helvetica,sans-Serif" font-size="10.00">QString</text>
</a>
</g>
</g>
<!-- Node2&#45;&gt;Node5 -->
<g id="edge4" class="edge">
<title>Node2&#45;&gt;Node5</title>
<path fill="none" stroke="midnightblue" d="M834.16,-302.48C672.39,-269.9 100.42,-154.45 62.5,-143 60.21,-142.31 57.87,-141.53 55.53,-140.71"/>
<polygon fill="midnightblue" stroke="midnightblue" points="56.67,-137.4 46.08,-137.13 54.19,-143.94 56.67,-137.4"/>
</g>
<!-- Node6 -->
<g id="node6" class="node">
<title>Node6</title>
<g id="a_node6"><a xlink:title=" ">
<polygon fill="none" stroke="#bfbfbf" points="1159,-0.5 1159,-19.5 1214,-19.5 1214,-0.5 1159,-0.5"/>
<text text-anchor="middle" x="1186.5" y="-7.5" font-family="Helvetica,sans-Serif" font-size="10.00">QVector</text>
</a>
</g>
</g>
<!-- Node2&#45;&gt;Node6 -->
<g id="edge5" class="edge">
<title>Node2&#45;&gt;Node6</title>
<path fill="none" stroke="midnightblue" d="M922.97,-303.39C978.47,-293.99 1067.76,-277.81 1099.5,-266 1159.28,-243.75 1224.5,-259.28 1224.5,-195.5 1224.5,-195.5 1224.5,-195.5 1224.5,-126.5 1224.5,-90.25 1207.41,-50.67 1196.15,-28.53"/>
<polygon fill="midnightblue" stroke="midnightblue" points="1199.23,-26.87 1191.47,-19.66 1193.04,-30.14 1199.23,-26.87"/>
</g>
<!-- Node7 -->
<g id="node7" class="node">
<title>Node7</title>
<g id="a_node7"><a xlink:href="constants_8h.html" target="_top" xlink:title=" ">
<polygon fill="none" stroke="black" points="1103.5,-56.5 1103.5,-75.5 1193.5,-75.5 1193.5,-56.5 1103.5,-56.5"/>
<text text-anchor="middle" x="1148.5" y="-63.5" font-family="Helvetica,sans-Serif" font-size="10.00">src/constants.h</text>
</a>
</g>
</g>
<!-- Node2&#45;&gt;Node7 -->
<g id="edge6" class="edge">
<title>Node2&#45;&gt;Node7</title>
<path fill="none" stroke="midnightblue" d="M919.26,-302.45C992.79,-286.79 1138.13,-251.29 1167.5,-210 1194.51,-172.03 1172.22,-113.71 1158.03,-84.69"/>
<polygon fill="midnightblue" stroke="midnightblue" points="1161.11,-83.03 1153.44,-75.72 1154.88,-86.22 1161.11,-83.03"/>
</g>
<!-- Node8 -->
<g id="node8" class="node">
<title>Node8</title>
<g id="a_node8"><a xlink:href="screen__game_8h.html" target="_top" xlink:title=" ">
<polygon fill="none" stroke="black" points="603,-179.5 603,-209.5 720,-209.5 720,-179.5 603,-179.5"/>
<text text-anchor="start" x="611" y="-197.5" font-family="Helvetica,sans-Serif" font-size="10.00">src/gui/screen_game</text>
<text text-anchor="middle" x="661.5" y="-186.5" font-family="Helvetica,sans-Serif" font-size="10.00">/screen_game.h</text>
</a>
</g>
</g>
<!-- Node2&#45;&gt;Node8 -->
<g id="edge8" class="edge">
<title>Node2&#45;&gt;Node8</title>
<path fill="none" stroke="midnightblue" d="M860.34,-302.32C825.73,-283.73 743.78,-239.7 696.59,-214.35"/>
<polygon fill="midnightblue" stroke="midnightblue" points="698.11,-211.19 687.64,-209.55 694.8,-217.36 698.11,-211.19"/>
</g>
<!-- Node27 -->
<g id="node27" class="node">
<title>Node27</title>
<g id="a_node27"><a xlink:href="screen__liderboard_8h.html" target="_top" xlink:title=" ">
<polygon fill="none" stroke="black" points="738,-179.5 738,-209.5 877,-209.5 877,-179.5 738,-179.5"/>
<text text-anchor="start" x="746" y="-197.5" font-family="Helvetica,sans-Serif" font-size="10.00">src/gui/screen_liderboard</text>
<text text-anchor="middle" x="807.5" y="-186.5" font-family="Helvetica,sans-Serif" font-size="10.00">/screen_liderboard.h</text>
</a>
</g>
</g>
<!-- Node2&#45;&gt;Node27 -->
<g id="edge33" class="edge">
<title>Node2&#45;&gt;Node27</title>
<path fill="none" stroke="midnightblue" d="M871.31,-302.32C860.76,-284.66 836.5,-244.04 821.11,-218.29"/>
<polygon fill="midnightblue" stroke="midnightblue" points="824.02,-216.34 815.89,-209.55 818.01,-219.93 824.02,-216.34"/>
</g>
<!-- Node28 -->
<g id="node28" class="node">
<title>Node28</title>
<g id="a_node28"><a xlink:href="screen__menu_8h.html" target="_top" xlink:title=" ">
<polygon fill="none" stroke="black" points="895,-179.5 895,-209.5 1012,-209.5 1012,-179.5 895,-179.5"/>
<text text-anchor="start" x="903" y="-197.5" font-family="Helvetica,sans-Serif" font-size="10.00">src/gui/screen_menu</text>
<text text-anchor="middle" x="953.5" y="-186.5" font-family="Helvetica,sans-Serif" font-size="10.00">/screen_menu.h</text>
</a>
</g>
</g>
<!-- Node2&#45;&gt;Node28 -->
<g id="edge36" class="edge">
<title>Node2&#45;&gt;Node28</title>
<path fill="none" stroke="midnightblue" d="M882.29,-302.32C894.11,-284.58 921.38,-243.68 938.53,-217.95"/>
<polygon fill="midnightblue" stroke="midnightblue" points="941.5,-219.81 944.14,-209.55 935.68,-215.92 941.5,-219.81"/>
</g>
<!-- Node29 -->
<g id="node29" class="node">
<title>Node29</title>
<g id="a_node29"><a xlink:href="screen__settings_8h.html" target="_top" xlink:title=" ">
<polygon fill="none" stroke="black" points="1030.5,-179.5 1030.5,-209.5 1158.5,-209.5 1158.5,-179.5 1030.5,-179.5"/>
<text text-anchor="start" x="1038.5" y="-197.5" font-family="Helvetica,sans-Serif" font-size="10.00">src/gui/screen_settings</text>
<text text-anchor="middle" x="1094.5" y="-186.5" font-family="Helvetica,sans-Serif" font-size="10.00">/screen_settings.h</text>
</a>
</g>
</g>
<!-- Node2&#45;&gt;Node29 -->
<g id="edge39" class="edge">
<title>Node2&#45;&gt;Node29</title>
<path fill="none" stroke="midnightblue" d="M892.89,-302.32C927.98,-283.73 1011.08,-239.7 1058.92,-214.35"/>
<polygon fill="midnightblue" stroke="midnightblue" points="1060.79,-217.32 1067.99,-209.55 1057.52,-211.13 1060.79,-217.32"/>
</g>
<!-- Node30 -->
<g id="node30" class="node">
<title>Node30</title>
<g id="a_node30"><a xlink:href="engine_8h.html" target="_top" xlink:title=" ">
<polygon fill="none" stroke="black" points="1257.5,-246.5 1257.5,-265.5 1395.5,-265.5 1395.5,-246.5 1257.5,-246.5"/>
<text text-anchor="middle" x="1326.5" y="-253.5" font-family="Helvetica,sans-Serif" font-size="10.00">src/logic/engine/engine.h</text>
</a>
</g>
</g>
<!-- Node2&#45;&gt;Node30 -->
<g id="edge42" class="edge">
<title>Node2&#45;&gt;Node30</title>
<path fill="none" stroke="midnightblue" d="M922.62,-303.42C925.96,-302.92 929.28,-302.44 932.5,-302 991.38,-293.91 1150.03,-276.27 1247.11,-265.63"/>
<polygon fill="midnightblue" stroke="midnightblue" points="1247.61,-269.1 1257.17,-264.53 1246.85,-262.14 1247.61,-269.1"/>
</g>
<!-- Node7&#45;&gt;Node6 -->
<g id="edge7" class="edge">
<title>Node7&#45;&gt;Node6</title>
<path fill="none" stroke="midnightblue" d="M1154.77,-56.08C1160.14,-48.46 1168.02,-37.26 1174.58,-27.94"/>
<polygon fill="midnightblue" stroke="midnightblue" points="1177.45,-29.94 1180.34,-19.75 1171.72,-25.91 1177.45,-29.94"/>
</g>
<!-- Node8&#45;&gt;Node5 -->
<g id="edge13" class="edge">
<title>Node8&#45;&gt;Node5</title>
<path fill="none" stroke="midnightblue" d="M602.64,-181.14C597.87,-180.34 593.11,-179.61 588.5,-179 356.22,-148.11 290.89,-195.42 62.5,-143 59.67,-142.35 56.77,-141.51 53.9,-140.56"/>
<polygon fill="midnightblue" stroke="midnightblue" points="55.05,-137.25 44.45,-137.02 52.59,-143.8 55.05,-137.25"/>
</g>
<!-- Node8&#45;&gt;Node7 -->
<g id="edge16" class="edge">
<title>Node8&#45;&gt;Node7</title>
<path fill="none" stroke="midnightblue" d="M720.3,-180.63C723.07,-180.07 725.81,-179.52 728.5,-179 821.03,-161.03 853.14,-185.04 937.5,-143 955.51,-134.02 952.85,-121.66 970.5,-112 991.64,-100.43 1049.92,-86.82 1094.08,-77.63"/>
<polygon fill="midnightblue" stroke="midnightblue" points="1095.03,-81.01 1104.12,-75.56 1093.62,-74.15 1095.03,-81.01"/>
</g>
<!-- Node9 -->
<g id="node9" class="node">
<title>Node9</title>
<g id="a_node9"><a xlink:title=" ">
<polygon fill="none" stroke="#bfbfbf" points="630.5,-118 630.5,-137 752.5,-137 752.5,-118 630.5,-118"/>
<text text-anchor="middle" x="691.5" y="-125" font-family="Helvetica,sans-Serif" font-size="10.00">QGraphicsEllipseItem</text>
</a>
</g>
</g>
<!-- Node8&#45;&gt;Node9 -->
<g id="edge9" class="edge">
<title>Node8&#45;&gt;Node9</title>
<path fill="none" stroke="midnightblue" d="M668.01,-179.4C672.46,-169.76 678.39,-156.91 683.18,-146.54"/>
<polygon fill="midnightblue" stroke="midnightblue" points="686.47,-147.74 687.49,-137.19 680.12,-144.81 686.47,-147.74"/>
</g>
<!-- Node10 -->
<g id="node10" class="node">
<title>Node10</title>
<g id="a_node10"><a xlink:title=" ">
<polygon fill="none" stroke="#bfbfbf" points="71.5,-118 71.5,-137 211.5,-137 211.5,-118 71.5,-118"/>
<text text-anchor="middle" x="141.5" y="-125" font-family="Helvetica,sans-Serif" font-size="10.00">QGraphicsItemAnimation</text>
</a>
</g>
</g>
<!-- Node8&#45;&gt;Node10 -->
<g id="edge10" class="edge">
<title>Node8&#45;&gt;Node10</title>
<path fill="none" stroke="midnightblue" d="M602.62,-181.29C597.85,-180.46 593.1,-179.68 588.5,-179 425.93,-154.96 383.24,-165.85 220.5,-143 212.06,-141.82 203.15,-140.37 194.48,-138.86"/>
<polygon fill="midnightblue" stroke="midnightblue" points="194.9,-135.38 184.44,-137.06 193.67,-142.27 194.9,-135.38"/>
</g>
<!-- Node11 -->
<g id="node11" class="node">
<title>Node11</title>
<g id="a_node11"><a xlink:title=" ">
<polygon fill="none" stroke="#bfbfbf" points="733.5,-56.5 733.5,-75.5 829.5,-75.5 829.5,-56.5 733.5,-56.5"/>
<text text-anchor="middle" x="781.5" y="-63.5" font-family="Helvetica,sans-Serif" font-size="10.00">QGraphicsScene</text>
</a>
</g>
</g>
<!-- Node8&#45;&gt;Node11 -->
<g id="edge11" class="edge">
<title>Node8&#45;&gt;Node11</title>
<path fill="none" stroke="midnightblue" d="M708.33,-179.4C727.32,-171.51 747.92,-159.78 761.5,-143 774.75,-126.63 779.29,-102.36 780.81,-85.68"/>
<polygon fill="midnightblue" stroke="midnightblue" points="784.31,-85.73 781.45,-75.53 777.33,-85.29 784.31,-85.73"/>
</g>
<!-- Node12 -->
<g id="node12" class="node">
<title>Node12</title>
<g id="a_node12"><a xlink:title=" ">
<polygon fill="none" stroke="#bfbfbf" points="330,-56.5 330,-75.5 437,-75.5 437,-56.5 330,-56.5"/>
<text text-anchor="middle" x="383.5" y="-63.5" font-family="Helvetica,sans-Serif" font-size="10.00">QGraphicsSvgItem</text>
</a>
</g>
</g>
<!-- Node8&#45;&gt;Node12 -->
<g id="edge12" class="edge">
<title>Node8&#45;&gt;Node12</title>
<path fill="none" stroke="midnightblue" d="M602.94,-181.82C598.05,-180.86 593.19,-179.91 588.5,-179 504.13,-162.63 459.5,-203.54 398.5,-143 383.54,-128.16 381.28,-103.01 381.77,-85.74"/>
<polygon fill="midnightblue" stroke="midnightblue" points="385.26,-85.91 382.38,-75.71 378.28,-85.48 385.26,-85.91"/>
</g>
<!-- Node13 -->
<g id="node13" class="node">
<title>Node13</title>
<g id="a_node13"><a xlink:title=" ">
<polygon fill="none" stroke="#bfbfbf" points="408,-118 408,-137 477,-137 477,-118 408,-118"/>
<text text-anchor="middle" x="442.5" y="-125" font-family="Helvetica,sans-Serif" font-size="10.00">QTimeLine</text>
</a>
</g>
</g>
<!-- Node8&#45;&gt;Node13 -->
<g id="edge14" class="edge">
<title>Node8&#45;&gt;Node13</title>
<path fill="none" stroke="midnightblue" d="M610.1,-179.42C574.9,-169.62 527.23,-156.01 485.5,-143 482.75,-142.14 479.91,-141.23 477.06,-140.31"/>
<polygon fill="midnightblue" stroke="midnightblue" points="478.04,-136.95 467.45,-137.13 475.84,-143.59 478.04,-136.95"/>
</g>
<!-- Node14 -->
<g id="node14" class="node">
<title>Node14</title>
<g id="a_node14"><a xlink:title=" ">
<polygon fill="none" stroke="#bfbfbf" points="1023,-118 1023,-137 1082,-137 1082,-118 1023,-118"/>
<text text-anchor="middle" x="1052.5" y="-125" font-family="Helvetica,sans-Serif" font-size="10.00">QWidget</text>
</a>
</g>
</g>
<!-- Node8&#45;&gt;Node14 -->
<g id="edge15" class="edge">
<title>Node8&#45;&gt;Node14</title>
<path fill="none" stroke="midnightblue" d="M720.28,-180.55C723.06,-180.01 725.81,-179.49 728.5,-179 835.47,-159.49 863.17,-160.47 970.5,-143 984.37,-140.74 999.53,-138.11 1013.01,-135.71"/>
<polygon fill="midnightblue" stroke="midnightblue" points="1013.7,-139.14 1022.93,-133.93 1012.47,-132.25 1013.7,-139.14"/>
</g>
<!-- Node15 -->
<g id="node15" class="node">
<title>Node15</title>
<g id="a_node15"><a xlink:href="gui__scene_8h.html" target="_top" xlink:title=" ">
<polygon fill="none" stroke="black" points="809,-112.5 809,-142.5 928,-142.5 928,-112.5 809,-112.5"/>
<text text-anchor="start" x="817" y="-130.5" font-family="Helvetica,sans-Serif" font-size="10.00">src/gui/gui_scene/gui</text>
<text text-anchor="middle" x="868.5" y="-119.5" font-family="Helvetica,sans-Serif" font-size="10.00">_scene.h</text>
</a>
</g>
</g>
<!-- Node8&#45;&gt;Node15 -->
<g id="edge17" class="edge">
<title>Node8&#45;&gt;Node15</title>
<path fill="none" stroke="midnightblue" d="M706.16,-179.48C737.75,-169.56 780.28,-156.2 813.89,-145.65"/>
<polygon fill="midnightblue" stroke="midnightblue" points="815.07,-148.95 823.56,-142.61 812.97,-142.27 815.07,-148.95"/>
</g>
<!-- Node20 -->
<g id="node20" class="node">
<title>Node20</title>
<g id="a_node20"><a xlink:href="gui__advantage__bar_8h.html" target="_top" xlink:title=" ">
<polygon fill="none" stroke="black" points="230,-112.5 230,-142.5 351,-142.5 351,-112.5 230,-112.5"/>
<text text-anchor="start" x="238" y="-130.5" font-family="Helvetica,sans-Serif" font-size="10.00">src/gui/screen_game</text>
<text text-anchor="middle" x="290.5" y="-119.5" font-family="Helvetica,sans-Serif" font-size="10.00">/gui_advantage_bar.h</text>
</a>
</g>
</g>
<!-- Node8&#45;&gt;Node20 -->
<g id="edge23" class="edge">
<title>Node8&#45;&gt;Node20</title>
<path fill="none" stroke="midnightblue" d="M602.96,-181.68C598.08,-180.75 593.21,-179.85 588.5,-179 489.69,-161.22 464.35,-160.53 365.5,-143 364.03,-142.74 362.55,-142.47 361.05,-142.2"/>
<polygon fill="midnightblue" stroke="midnightblue" points="361.52,-138.73 351.05,-140.37 360.26,-145.62 361.52,-138.73"/>
</g>
<!-- Node24 -->
<g id="node24" class="node">
<title>Node24</title>
<g id="a_node24"><a xlink:href="gui__figure_8h.html" target="_top" xlink:title=" ">
<polygon fill="none" stroke="black" points="495,-112.5 495,-142.5 612,-142.5 612,-112.5 495,-112.5"/>
<text text-anchor="start" x="503" y="-130.5" font-family="Helvetica,sans-Serif" font-size="10.00">src/gui/screen_game</text>
<text text-anchor="middle" x="553.5" y="-119.5" font-family="Helvetica,sans-Serif" font-size="10.00">/gui_figure.h</text>
</a>
</g>
</g>
<!-- Node8&#45;&gt;Node24 -->
<g id="edge27" class="edge">
<title>Node8&#45;&gt;Node24</title>
<path fill="none" stroke="midnightblue" d="M638.07,-179.4C622.78,-170.2 602.62,-158.07 585.82,-147.95"/>
<polygon fill="midnightblue" stroke="midnightblue" points="587.26,-144.73 576.89,-142.58 583.65,-150.73 587.26,-144.73"/>
</g>
<!-- Node15&#45;&gt;Node11 -->
<g id="edge18" class="edge">
<title>Node15&#45;&gt;Node11</title>
<path fill="none" stroke="midnightblue" d="M847.88,-112.4C834.2,-103.04 816.29,-90.79 802.52,-81.38"/>
<polygon fill="midnightblue" stroke="midnightblue" points="804.39,-78.41 794.16,-75.66 800.44,-84.19 804.39,-78.41"/>
</g>
<!-- Node16 -->
<g id="node16" class="node">
<title>Node16</title>
<g id="a_node16"><a xlink:title=" ">
<polygon fill="none" stroke="#bfbfbf" points="929.5,-56.5 929.5,-75.5 1013.5,-75.5 1013.5,-56.5 929.5,-56.5"/>
<text text-anchor="middle" x="971.5" y="-63.5" font-family="Helvetica,sans-Serif" font-size="10.00">QMouseEvent</text>
</a>
</g>
</g>
<!-- Node15&#45;&gt;Node16 -->
<g id="edge19" class="edge">
<title>Node15&#45;&gt;Node16</title>
<path fill="none" stroke="midnightblue" d="M892.91,-112.4C909.42,-102.86 931.12,-90.32 947.54,-80.84"/>
<polygon fill="midnightblue" stroke="midnightblue" points="949.6,-83.69 956.51,-75.66 946.1,-77.63 949.6,-83.69"/>
</g>
<!-- Node17 -->
<g id="node17" class="node">
<title>Node17</title>
<g id="a_node17"><a xlink:title=" ">
<polygon fill="none" stroke="#bfbfbf" points="1031,-56.5 1031,-75.5 1080,-75.5 1080,-56.5 1031,-56.5"/>
<text text-anchor="middle" x="1055.5" y="-63.5" font-family="Helvetica,sans-Serif" font-size="10.00">QPoint</text>
</a>
</g>
</g>
<!-- Node15&#45;&gt;Node17 -->
<g id="edge20" class="edge">
<title>Node15&#45;&gt;Node17</title>
<path fill="none" stroke="midnightblue" d="M912.82,-112.4C946,-101.84 990.74,-87.6 1021.22,-77.91"/>
<polygon fill="midnightblue" stroke="midnightblue" points="1022.5,-81.17 1030.97,-74.8 1020.38,-74.5 1022.5,-81.17"/>
</g>
<!-- Node18 -->
<g id="node18" class="node">
<title>Node18</title>
<g id="a_node18"><a xlink:href="utils_8h.html" target="_top" xlink:title=" ">
<polygon fill="none" stroke="black" points="847.5,-56.5 847.5,-75.5 911.5,-75.5 911.5,-56.5 847.5,-56.5"/>
<text text-anchor="middle" x="879.5" y="-63.5" font-family="Helvetica,sans-Serif" font-size="10.00">src/utils.h</text>
</a>
</g>
</g>
<!-- Node15&#45;&gt;Node18 -->
<g id="edge21" class="edge">
<title>Node15&#45;&gt;Node18</title>
<path fill="none" stroke="midnightblue" d="M871.11,-112.4C872.59,-104.38 874.47,-94.23 876.07,-85.57"/>
<polygon fill="midnightblue" stroke="midnightblue" points="879.52,-86.13 877.9,-75.66 872.64,-84.85 879.52,-86.13"/>
</g>
<!-- Node19 -->
<g id="node19" class="node">
<title>Node19</title>
<g id="a_node19"><a xlink:title=" ">
<polygon fill="none" stroke="#bfbfbf" points="857,-0.5 857,-19.5 902,-19.5 902,-0.5 857,-0.5"/>
<text text-anchor="middle" x="879.5" y="-7.5" font-family="Helvetica,sans-Serif" font-size="10.00">utility</text>
</a>
</g>
</g>
<!-- Node18&#45;&gt;Node19 -->
<g id="edge22" class="edge">
<title>Node18&#45;&gt;Node19</title>
<path fill="none" stroke="midnightblue" d="M879.5,-56.08C879.5,-49.01 879.5,-38.86 879.5,-29.99"/>
<polygon fill="midnightblue" stroke="midnightblue" points="883,-29.75 879.5,-19.75 876,-29.75 883,-29.75"/>
</g>
<!-- Node21 -->
<g id="node21" class="node">
<title>Node21</title>
<g id="a_node21"><a xlink:title=" ">
<polygon fill="none" stroke="#bfbfbf" points="87,-56.5 87,-75.5 176,-75.5 176,-56.5 87,-56.5"/>
<text text-anchor="middle" x="131.5" y="-63.5" font-family="Helvetica,sans-Serif" font-size="10.00">QGraphicsItem</text>
</a>
</g>
</g>
<!-- Node20&#45;&gt;Node21 -->
<g id="edge24" class="edge">
<title>Node20&#45;&gt;Node21</title>
<path fill="none" stroke="midnightblue" d="M252.82,-112.4C225.9,-102.33 190.05,-88.91 164.31,-79.28"/>
<polygon fill="midnightblue" stroke="midnightblue" points="165.23,-75.88 154.64,-75.66 162.77,-82.44 165.23,-75.88"/>
</g>
<!-- Node22 -->
<g id="node22" class="node">
<title>Node22</title>
<g id="a_node22"><a xlink:title=" ">
<polygon fill="none" stroke="#bfbfbf" points="193.5,-56.5 193.5,-75.5 251.5,-75.5 251.5,-56.5 193.5,-56.5"/>
<text text-anchor="middle" x="222.5" y="-63.5" font-family="Helvetica,sans-Serif" font-size="10.00">QPainter</text>
</a>
</g>
</g>
<!-- Node20&#45;&gt;Node22 -->
<g id="edge25" class="edge">
<title>Node20&#45;&gt;Node22</title>
<path fill="none" stroke="midnightblue" d="M274.38,-112.4C264.1,-103.4 250.75,-91.72 240.17,-82.47"/>
<polygon fill="midnightblue" stroke="midnightblue" points="242.23,-79.61 232.39,-75.66 237.62,-84.88 242.23,-79.61"/>
</g>
<!-- Node23 -->
<g id="node23" class="node">
<title>Node23</title>
<g id="a_node23"><a xlink:title=" ">
<polygon fill="none" stroke="#bfbfbf" points="269.5,-56.5 269.5,-75.5 311.5,-75.5 311.5,-56.5 269.5,-56.5"/>
<text text-anchor="middle" x="290.5" y="-63.5" font-family="Helvetica,sans-Serif" font-size="10.00">QPen</text>
</a>
</g>
</g>
<!-- Node20&#45;&gt;Node23 -->
<g id="edge26" class="edge">
<title>Node20&#45;&gt;Node23</title>
<path fill="none" stroke="midnightblue" d="M290.5,-112.4C290.5,-104.47 290.5,-94.46 290.5,-85.86"/>
<polygon fill="midnightblue" stroke="midnightblue" points="294,-85.66 290.5,-75.66 287,-85.66 294,-85.66"/>
</g>
<!-- Node24&#45;&gt;Node7 -->
<g id="edge31" class="edge">
<title>Node24&#45;&gt;Node7</title>
<path fill="none" stroke="midnightblue" d="M612.02,-113.5C615.22,-112.96 618.39,-112.45 621.5,-112 827.97,-82.18 882.24,-99.75 1089.5,-76 1090.77,-75.85 1092.06,-75.7 1093.36,-75.54"/>
<polygon fill="midnightblue" stroke="midnightblue" points="1093.99,-78.99 1103.45,-74.23 1093.08,-72.05 1093.99,-78.99"/>
</g>
<!-- Node24&#45;&gt;Node12 -->
<g id="edge29" class="edge">
<title>Node24&#45;&gt;Node12</title>
<path fill="none" stroke="midnightblue" d="M513.21,-112.4C484.18,-102.24 445.42,-88.67 417.85,-79.02"/>
<polygon fill="midnightblue" stroke="midnightblue" points="418.83,-75.66 408.24,-75.66 416.52,-82.26 418.83,-75.66"/>
</g>
<!-- Node24&#45;&gt;Node18 -->
<g id="edge32" class="edge">
<title>Node24&#45;&gt;Node18</title>
<path fill="none" stroke="midnightblue" d="M612.07,-113.83C615.26,-113.2 618.42,-112.58 621.5,-112 714.46,-94.39 740.82,-94.46 837.42,-76.13"/>
<polygon fill="midnightblue" stroke="midnightblue" points="838.14,-79.55 847.3,-74.23 836.82,-72.68 838.14,-79.55"/>
</g>
<!-- Node25 -->
<g id="node25" class="node">
<title>Node25</title>
<g id="a_node25"><a xlink:title=" ">
<polygon fill="none" stroke="#bfbfbf" points="455.5,-56.5 455.5,-75.5 611.5,-75.5 611.5,-56.5 455.5,-56.5"/>
<text text-anchor="middle" x="533.5" y="-63.5" font-family="Helvetica,sans-Serif" font-size="10.00">QGraphicsSceneMouseEvent</text>
</a>
</g>
</g>
<!-- Node24&#45;&gt;Node25 -->
<g id="edge28" class="edge">
<title>Node24&#45;&gt;Node25</title>
<path fill="none" stroke="midnightblue" d="M548.76,-112.4C546.03,-104.29 542.58,-94.01 539.64,-85.28"/>
<polygon fill="midnightblue" stroke="midnightblue" points="542.91,-84.02 536.41,-75.66 536.28,-86.25 542.91,-84.02"/>
</g>
<!-- Node26 -->
<g id="node26" class="node">
<title>Node26</title>
<g id="a_node26"><a xlink:title=" ">
<polygon fill="none" stroke="#bfbfbf" points="629.5,-56.5 629.5,-75.5 715.5,-75.5 715.5,-56.5 629.5,-56.5"/>
<text text-anchor="middle" x="672.5" y="-63.5" font-family="Helvetica,sans-Serif" font-size="10.00">QSvgRenderer</text>
</a>
</g>
</g>
<!-- Node24&#45;&gt;Node26 -->
<g id="edge30" class="edge">
<title>Node24&#45;&gt;Node26</title>
<path fill="none" stroke="midnightblue" d="M581.7,-112.4C601.22,-102.64 627.03,-89.74 646.13,-80.18"/>
<polygon fill="midnightblue" stroke="midnightblue" points="647.81,-83.26 655.18,-75.66 644.67,-77 647.81,-83.26"/>
</g>
<!-- Node27&#45;&gt;Node7 -->
<g id="edge35" class="edge">
<title>Node27&#45;&gt;Node7</title>
<path fill="none" stroke="midnightblue" d="M868.46,-179.48C899.84,-171.07 938.2,-158.89 970.5,-143 991.97,-132.44 993.16,-122.81 1014.5,-112 1043.23,-97.45 1077.72,-85.99 1104.51,-78.28"/>
<polygon fill="midnightblue" stroke="midnightblue" points="1105.69,-81.58 1114.38,-75.51 1103.8,-74.84 1105.69,-81.58"/>
</g>
<!-- Node27&#45;&gt;Node14 -->
<g id="edge34" class="edge">
<title>Node27&#45;&gt;Node14</title>
<path fill="none" stroke="midnightblue" d="M868.05,-179.49C908.11,-169.93 961.68,-156.58 1008.5,-143 1011.49,-142.13 1014.59,-141.19 1017.69,-140.23"/>
<polygon fill="midnightblue" stroke="midnightblue" points="1019.01,-143.48 1027.47,-137.1 1016.88,-136.81 1019.01,-143.48"/>
</g>
<!-- Node28&#45;&gt;Node7 -->
<g id="edge38" class="edge">
<title>Node28&#45;&gt;Node7</title>
<path fill="none" stroke="midnightblue" d="M1012.23,-180.14C1038.24,-172.26 1068.16,-160.35 1091.5,-143 1112.64,-127.29 1129.58,-101.62 1139.34,-84.51"/>
<polygon fill="midnightblue" stroke="midnightblue" points="1142.5,-86.03 1144.23,-75.58 1136.36,-82.67 1142.5,-86.03"/>
</g>
<!-- Node28&#45;&gt;Node14 -->
<g id="edge37" class="edge">
<title>Node28&#45;&gt;Node14</title>
<path fill="none" stroke="midnightblue" d="M974.98,-179.4C991.58,-168.5 1014.46,-153.48 1031.05,-142.58"/>
<polygon fill="midnightblue" stroke="midnightblue" points="1033.1,-145.42 1039.54,-137.01 1029.26,-139.57 1033.1,-145.42"/>
</g>
<!-- Node29&#45;&gt;Node7 -->
<g id="edge41" class="edge">
<title>Node29&#45;&gt;Node7</title>
<path fill="none" stroke="midnightblue" d="M1104.08,-179.39C1110.48,-169.52 1118.75,-155.84 1124.5,-143 1132.96,-124.1 1139.73,-101.32 1143.9,-85.66"/>
<polygon fill="midnightblue" stroke="midnightblue" points="1147.37,-86.23 1146.46,-75.67 1140.58,-84.49 1147.37,-86.23"/>
</g>
<!-- Node29&#45;&gt;Node14 -->
<g id="edge40" class="edge">
<title>Node29&#45;&gt;Node14</title>
<path fill="none" stroke="midnightblue" d="M1085.39,-179.4C1079.03,-169.56 1070.51,-156.38 1063.74,-145.89"/>
<polygon fill="midnightblue" stroke="midnightblue" points="1066.48,-143.69 1058.12,-137.19 1060.61,-147.49 1066.48,-143.69"/>
</g>
<!-- Node30&#45;&gt;Node7 -->
<g id="edge43" class="edge">
<title>Node30&#45;&gt;Node7</title>
<path fill="none" stroke="midnightblue" d="M1319.5,-246.26C1301,-223.34 1248.91,-159.98 1200.5,-112 1189.9,-101.49 1177.25,-90.52 1167.09,-82.04"/>
<polygon fill="midnightblue" stroke="midnightblue" points="1169.17,-79.22 1159.23,-75.57 1164.72,-84.62 1169.17,-79.22"/>
</g>
<!-- Node31 -->
<g id="node31" class="node">
<title>Node31</title>
<g id="a_node31"><a xlink:href="board_8h.html" target="_top" xlink:title=" ">
<polygon fill="none" stroke="black" points="1385,-185 1385,-204 1478,-204 1478,-185 1385,-185"/>
<text text-anchor="middle" x="1431.5" y="-192" font-family="Helvetica,sans-Serif" font-size="10.00">../board/board.h</text>
</a>
</g>
</g>
<!-- Node30&#45;&gt;Node31 -->
<g id="edge44" class="edge">
<title>Node30&#45;&gt;Node31</title>
<path fill="none" stroke="midnightblue" d="M1341.54,-246.48C1358.78,-236.71 1387.24,-220.58 1407.53,-209.08"/>
<polygon fill="midnightblue" stroke="midnightblue" points="1409.51,-211.98 1416.48,-204.01 1406.06,-205.89 1409.51,-211.98"/>
</g>
<!-- Node32 -->
<g id="node32" class="node">
<title>Node32</title>
<g id="a_node32"><a xlink:href="figures_8h.html" target="_top" xlink:title=" ">
<polygon fill="none" stroke="black" points="1290.5,-118 1290.5,-137 1394.5,-137 1394.5,-118 1290.5,-118"/>
<text text-anchor="middle" x="1342.5" y="-125" font-family="Helvetica,sans-Serif" font-size="10.00">../figures/figures.h</text>
</a>
</g>
</g>
<!-- Node30&#45;&gt;Node32 -->
<g id="edge53" class="edge">
<title>Node30&#45;&gt;Node32</title>
<path fill="none" stroke="midnightblue" d="M1327.6,-246.31C1330.17,-225.99 1336.61,-175.05 1340.13,-147.28"/>
<polygon fill="midnightblue" stroke="midnightblue" points="1343.61,-147.62 1341.39,-137.26 1336.67,-146.74 1343.61,-147.62"/>
</g>
<!-- Node31&#45;&gt;Node32 -->
<g id="edge45" class="edge">
<title>Node31&#45;&gt;Node32</title>
<path fill="none" stroke="midnightblue" d="M1419.5,-184.73C1404.95,-174.11 1380.22,-156.05 1362.72,-143.26"/>
<polygon fill="midnightblue" stroke="midnightblue" points="1364.45,-140.2 1354.31,-137.13 1360.32,-145.85 1364.45,-140.2"/>
</g>
<!-- Node34 -->
<g id="node34" class="node">
<title>Node34</title>
<g id="a_node34"><a xlink:title=" ">
<polygon fill="none" stroke="#bfbfbf" points="1448.5,-56.5 1448.5,-75.5 1480.5,-75.5 1480.5,-56.5 1448.5,-56.5"/>
<text text-anchor="middle" x="1464.5" y="-63.5" font-family="Helvetica,sans-Serif" font-size="10.00">list</text>
</a>
</g>
</g>
<!-- Node31&#45;&gt;Node34 -->
<g id="edge51" class="edge">
<title>Node31&#45;&gt;Node34</title>
<path fill="none" stroke="midnightblue" d="M1440.83,-184.89C1450.15,-175.6 1463.87,-159.86 1469.5,-143 1475.77,-124.23 1473,-101.43 1469.62,-85.73"/>
<polygon fill="midnightblue" stroke="midnightblue" points="1472.94,-84.59 1467.17,-75.71 1466.14,-86.25 1472.94,-84.59"/>
</g>
<!-- Node36 -->
<g id="node36" class="node">
<title>Node36</title>
<g id="a_node36"><a xlink:title=" ">
<polygon fill="none" stroke="#bfbfbf" points="1413,-118 1413,-137 1460,-137 1460,-118 1413,-118"/>
<text text-anchor="middle" x="1436.5" y="-125" font-family="Helvetica,sans-Serif" font-size="10.00">vector</text>
</a>
</g>
</g>
<!-- Node31&#45;&gt;Node36 -->
<g id="edge52" class="edge">
<title>Node31&#45;&gt;Node36</title>
<path fill="none" stroke="midnightblue" d="M1432.17,-184.73C1432.91,-175.18 1434.11,-159.62 1435.06,-147.28"/>
<polygon fill="midnightblue" stroke="midnightblue" points="1438.56,-147.37 1435.84,-137.13 1431.58,-146.83 1438.56,-147.37"/>
</g>
<!-- Node32&#45;&gt;Node7 -->
<g id="edge46" class="edge">
<title>Node32&#45;&gt;Node7</title>
<path fill="none" stroke="midnightblue" d="M1314.7,-117.98C1280.85,-107.59 1223.53,-90.01 1185.85,-78.45"/>
<polygon fill="midnightblue" stroke="midnightblue" points="1186.83,-75.1 1176.24,-75.51 1184.78,-81.79 1186.83,-75.1"/>
</g>
<!-- Node32&#45;&gt;Node18 -->
<g id="edge47" class="edge">
<title>Node32&#45;&gt;Node18</title>
<path fill="none" stroke="midnightblue" d="M1290.29,-121.9C1212.22,-114.65 1060.25,-99.15 921.63,-76.05"/>
<polygon fill="midnightblue" stroke="midnightblue" points="922.11,-72.58 911.67,-74.37 920.95,-79.48 922.11,-72.58"/>
</g>
<!-- Node33 -->
<g id="node33" class="node">
<title>Node33</title>
<g id="a_node33"><a xlink:title=" ">
<polygon fill="none" stroke="#bfbfbf" points="1281,-56.5 1281,-75.5 1332,-75.5 1332,-56.5 1281,-56.5"/>
<text text-anchor="middle" x="1306.5" y="-63.5" font-family="Helvetica,sans-Serif" font-size="10.00">math.h</text>
</a>
</g>
</g>
<!-- Node32&#45;&gt;Node33 -->
<g id="edge48" class="edge">
<title>Node32&#45;&gt;Node33</title>
<path fill="none" stroke="midnightblue" d="M1337.34,-117.98C1332.05,-109.23 1323.66,-95.37 1316.97,-84.31"/>
<polygon fill="midnightblue" stroke="midnightblue" points="1319.82,-82.25 1311.65,-75.51 1313.83,-85.88 1319.82,-82.25"/>
</g>
<!-- Node32&#45;&gt;Node34 -->
<g id="edge49" class="edge">
<title>Node32&#45;&gt;Node34</title>
<path fill="none" stroke="midnightblue" d="M1359.98,-117.98C1380.71,-107.86 1415.44,-90.93 1439.12,-79.38"/>
<polygon fill="midnightblue" stroke="midnightblue" points="1440.77,-82.47 1448.22,-74.94 1437.7,-76.18 1440.77,-82.47"/>
</g>
<!-- Node35 -->
<g id="node35" class="node">
<title>Node35</title>
<g id="a_node35"><a xlink:title=" ">
<polygon fill="none" stroke="#bfbfbf" points="1350.5,-56.5 1350.5,-75.5 1382.5,-75.5 1382.5,-56.5 1350.5,-56.5"/>
<text text-anchor="middle" x="1366.5" y="-63.5" font-family="Helvetica,sans-Serif" font-size="10.00">set</text>
</a>
</g>
</g>
<!-- Node32&#45;&gt;Node35 -->
<g id="edge50" class="edge">
<title>Node32&#45;&gt;Node35</title>
<path fill="none" stroke="midnightblue" d="M1345.94,-117.98C1349.4,-109.4 1354.83,-95.93 1359.25,-84.98"/>
<polygon fill="midnightblue" stroke="midnightblue" points="1362.57,-86.09 1363.07,-75.51 1356.08,-83.47 1362.57,-86.09"/>
</g>
</g>
</svg>
