<?xml version="1.0" encoding="UTF-8" standalone="no"?>
<!DOCTYPE svg PUBLIC "-//W3C//DTD SVG 1.1//EN"
 "http://www.w3.org/Graphics/SVG/1.1/DTD/svg11.dtd">
<!-- Generated by graphviz version 2.43.0 (0)
 -->
<!-- Title: src/gui/main_window/main_window.cpp Pages: 1 -->
<!--zoomable 397 -->
<svg id="main" version="1.1" xmlns="http://www.w3.org/2000/svg" xmlns:xlink="http://www.w3.org/1999/xlink" xml:space="preserve" onload="init(evt)">
<style type="text/css"><![CDATA[
.edge:hover path { stroke: red; }
.edge:hover polygon { stroke: red; fill: red; }
]]></style>
<script type="text/javascript"><![CDATA[
var edges = document.getElementsByTagName('g');
if (edges && edges.length) {
  for (var i=0;i<edges.length;i++) {
    if (edges[i].id.substr(0,4)=='edge') {
      edges[i].setAttribute('class','edge');
    }
  }
}
]]></script>
        <defs>
                <circle id="rim" cx="0" cy="0" r="7"/>
                <circle id="rim2" cx="0" cy="0" r="3.5"/>
                <g id="zoomPlus">
                        <use xlink:href="#rim" fill="#404040">
                                <set attributeName="fill" to="#808080" begin="zoomplus.mouseover" end="zoomplus.mouseout"/>
                        </use>
                        <path d="M-4,0h8M0,-4v8" fill="none" stroke="white" stroke-width="1.5" pointer-events="none"/>
                </g>
                <g id="zoomMin">
                        <use xlink:href="#rim" fill="#404040">
                                <set attributeName="fill" to="#808080" begin="zoomminus.mouseover" end="zoomminus.mouseout"/>
                        </use>
                        <path d="M-4,0h8" fill="none" stroke="white" stroke-width="1.5" pointer-events="none"/>
                </g>
                <g id="dirArrow">
                        <path fill="none" stroke="white" stroke-width="1.5" d="M0,-3.0v7 M-2.5,-0.5L0,-3.0L2.5,-0.5"/>
                </g>
               <g id="resetDef">
                       <use xlink:href="#rim2" fill="#404040">
                               <set attributeName="fill" to="#808080" begin="reset.mouseover" end="reset.mouseout"/>
                       </use>
               </g>
        </defs>

<script type="text/javascript">
var viewWidth = 1150;
var viewHeight = 397;
var sectionId = 'dynsection-0';
</script>
<script xlink:href="svgpan.js"/>
<svg id="graph" class="graph">
<g id="viewport">
<title>src/gui/main_window/main_window.cpp</title>
<!-- Node1 -->
<g id="node1" class="node">
<title>Node1</title>
<g id="a_node1"><a xlink:title=" ">
<polygon fill="#bfbfbf" stroke="black" points="486,-358.5 486,-388.5 605,-388.5 605,-358.5 486,-358.5"/>
<text text-anchor="start" x="494" y="-376.5" font-family="Helvetica,sans-Serif" font-size="10.00">src/gui/main_window</text>
<text text-anchor="middle" x="545.5" y="-365.5" font-family="Helvetica,sans-Serif" font-size="10.00">/main_window.cpp</text>
</a>
</g>
</g>
<!-- Node2 -->
<g id="node2" class="node">
<title>Node2</title>
<g id="a_node2"><a xlink:href="main__window_8h.html" target="_top" xlink:title=" ">
<polygon fill="none" stroke="black" points="381.5,-302.5 381.5,-321.5 473.5,-321.5 473.5,-302.5 381.5,-302.5"/>
<text text-anchor="middle" x="427.5" y="-309.5" font-family="Helvetica,sans-Serif" font-size="10.00">main_window.h</text>
</a>
</g>
</g>
<!-- Node1&#45;&gt;Node2 -->
<g id="edge1" class="edge">
<title>Node1&#45;&gt;Node2</title>
<path fill="none" stroke="midnightblue" d="M517.54,-358.4C498.18,-348.64 472.59,-335.74 453.64,-326.18"/>
<polygon fill="midnightblue" stroke="midnightblue" points="455.17,-323.04 444.67,-321.66 452.02,-329.29 455.17,-323.04"/>
</g>
<!-- Node27 -->
<g id="node27" class="node">
<title>Node27</title>
<g id="a_node27"><a xlink:title=" ">
<polygon fill="none" stroke="#bfbfbf" points="492,-302.5 492,-321.5 599,-321.5 599,-302.5 492,-302.5"/>
<text text-anchor="middle" x="545.5" y="-309.5" font-family="Helvetica,sans-Serif" font-size="10.00">ui_main_window.h</text>
</a>
</g>
</g>
<!-- Node1&#45;&gt;Node27 -->
<g id="edge42" class="edge">
<title>Node1&#45;&gt;Node27</title>
<path fill="none" stroke="midnightblue" d="M545.5,-358.4C545.5,-350.47 545.5,-340.46 545.5,-331.86"/>
<polygon fill="midnightblue" stroke="midnightblue" points="549,-331.66 545.5,-321.66 542,-331.66 549,-331.66"/>
</g>
<!-- Node28 -->
<g id="node28" class="node">
<title>Node28</title>
<g id="a_node28"><a xlink:title=" ">
<polygon fill="none" stroke="#bfbfbf" points="617.5,-302.5 617.5,-321.5 677.5,-321.5 677.5,-302.5 617.5,-302.5"/>
<text text-anchor="middle" x="647.5" y="-309.5" font-family="Helvetica,sans-Serif" font-size="10.00">iostream</text>
</a>
</g>
</g>
<!-- Node1&#45;&gt;Node28 -->
<g id="edge43" class="edge">
<title>Node1&#45;&gt;Node28</title>
<path fill="none" stroke="midnightblue" d="M569.67,-358.4C586.02,-348.86 607.51,-336.32 623.77,-326.84"/>
<polygon fill="midnightblue" stroke="midnightblue" points="625.78,-329.72 632.66,-321.66 622.26,-323.67 625.78,-329.72"/>
</g>
<!-- Node3 -->
<g id="node3" class="node">
<title>Node3</title>
<g id="a_node3"><a xlink:title=" ">
<polygon fill="none" stroke="#bfbfbf" points="0,-246.5 0,-265.5 87,-265.5 87,-246.5 0,-246.5"/>
<text text-anchor="middle" x="43.5" y="-253.5" font-family="Helvetica,sans-Serif" font-size="10.00">QMainWindow</text>
</a>
</g>
</g>
<!-- Node2&#45;&gt;Node3 -->
<g id="edge2" class="edge">
<title>Node2&#45;&gt;Node3</title>
<path fill="none" stroke="midnightblue" d="M381.23,-305.27C318.95,-297.44 204.45,-282.63 97.2,-266.22"/>
<polygon fill="midnightblue" stroke="midnightblue" points="97.59,-262.74 87.17,-264.68 96.53,-269.66 97.59,-262.74"/>
</g>
<!-- Node4 -->
<g id="node4" class="node">
<title>Node4</title>
<g id="a_node4"><a xlink:title=" ">
<polygon fill="none" stroke="#bfbfbf" points="105,-246.5 105,-265.5 202,-265.5 202,-246.5 105,-246.5"/>
<text text-anchor="middle" x="153.5" y="-253.5" font-family="Helvetica,sans-Serif" font-size="10.00">QStackedWidget</text>
</a>
</g>
</g>
<!-- Node2&#45;&gt;Node4 -->
<g id="edge3" class="edge">
<title>Node2&#45;&gt;Node4</title>
<path fill="none" stroke="midnightblue" d="M384.08,-302.44C335.98,-292.96 258.41,-277.67 206.69,-267.48"/>
<polygon fill="midnightblue" stroke="midnightblue" points="207.2,-264.02 196.71,-265.52 205.85,-270.88 207.2,-264.02"/>
</g>
<!-- Node5 -->
<g id="node5" class="node">
<title>Node5</title>
<g id="a_node5"><a xlink:title=" ">
<polygon fill="none" stroke="#bfbfbf" points="259,-118 259,-137 312,-137 312,-118 259,-118"/>
<text text-anchor="middle" x="285.5" y="-125" font-family="Helvetica,sans-Serif" font-size="10.00">QString</text>
</a>
</g>
</g>
<!-- Node2&#45;&gt;Node5 -->
<g id="edge4" class="edge">
<title>Node2&#45;&gt;Node5</title>
<path fill="none" stroke="midnightblue" d="M407.61,-302.31C377.38,-287.94 320.66,-256.16 294.5,-210 283.5,-190.6 282.6,-164.42 283.55,-147.02"/>
<polygon fill="midnightblue" stroke="midnightblue" points="287.04,-147.27 284.35,-137.02 280.06,-146.71 287.04,-147.27"/>
</g>
<!-- Node6 -->
<g id="node6" class="node">
<title>Node6</title>
<g id="a_node6"><a xlink:title=" ">
<polygon fill="none" stroke="#bfbfbf" points="479,-0.5 479,-19.5 534,-19.5 534,-0.5 479,-0.5"/>
<text text-anchor="middle" x="506.5" y="-7.5" font-family="Helvetica,sans-Serif" font-size="10.00">QVector</text>
</a>
</g>
</g>
<!-- Node2&#45;&gt;Node6 -->
<g id="edge5" class="edge">
<title>Node2&#45;&gt;Node6</title>
<path fill="none" stroke="midnightblue" d="M381.31,-304.56C323.08,-293.54 230.5,-265.08 230.5,-195.5 230.5,-195.5 230.5,-195.5 230.5,-126.5 230.5,-91.9 236.13,-77.16 263.5,-56 294.96,-31.68 408.27,-18.99 468.4,-13.83"/>
<polygon fill="midnightblue" stroke="midnightblue" points="468.95,-17.3 478.63,-12.98 468.37,-10.32 468.95,-17.3"/>
</g>
<!-- Node7 -->
<g id="node7" class="node">
<title>Node7</title>
<g id="a_node7"><a xlink:href="constants_8h.html" target="_top" xlink:title=" ">
<polygon fill="none" stroke="black" points="737.5,-56.5 737.5,-75.5 827.5,-75.5 827.5,-56.5 737.5,-56.5"/>
<text text-anchor="middle" x="782.5" y="-63.5" font-family="Helvetica,sans-Serif" font-size="10.00">src/constants.h</text>
</a>
</g>
</g>
<!-- Node2&#45;&gt;Node7 -->
<g id="edge6" class="edge">
<title>Node2&#45;&gt;Node7</title>
<path fill="none" stroke="midnightblue" d="M471.64,-302.45C581.06,-281.05 856.93,-225.77 869.5,-210 904.07,-166.64 838.76,-108.46 803.27,-81.65"/>
<polygon fill="midnightblue" stroke="midnightblue" points="805.09,-78.65 794.96,-75.54 800.94,-84.29 805.09,-78.65"/>
</g>
<!-- Node8 -->
<g id="node8" class="node">
<title>Node8</title>
<g id="a_node8"><a xlink:href="screen__game_8h.html" target="_top" xlink:title=" ">
<polygon fill="none" stroke="black" points="304,-179.5 304,-209.5 421,-209.5 421,-179.5 304,-179.5"/>
<text text-anchor="start" x="312" y="-197.5" font-family="Helvetica,sans-Serif" font-size="10.00">src/gui/screen_game</text>
<text text-anchor="middle" x="362.5" y="-186.5" font-family="Helvetica,sans-Serif" font-size="10.00">/screen_game.h</text>
</a>
</g>
</g>
<!-- Node2&#45;&gt;Node8 -->
<g id="edge8" class="edge">
<title>Node2&#45;&gt;Node8</title>
<path fill="none" stroke="midnightblue" d="M422.61,-302.32C412.67,-284.66 389.82,-244.04 375.33,-218.29"/>
<polygon fill="midnightblue" stroke="midnightblue" points="378.36,-216.54 370.4,-209.55 372.26,-219.98 378.36,-216.54"/>
</g>
<!-- Node17 -->
<g id="node17" class="node">
<title>Node17</title>
<g id="a_node17"><a xlink:href="screen__liderboard_8h.html" target="_top" xlink:title=" ">
<polygon fill="none" stroke="black" points="721,-179.5 721,-209.5 860,-209.5 860,-179.5 721,-179.5"/>
<text text-anchor="start" x="729" y="-197.5" font-family="Helvetica,sans-Serif" font-size="10.00">src/gui/screen_liderboard</text>
<text text-anchor="middle" x="790.5" y="-186.5" font-family="Helvetica,sans-Serif" font-size="10.00">/screen_liderboard.h</text>
</a>
</g>
</g>
<!-- Node2&#45;&gt;Node17 -->
<g id="edge21" class="edge">
<title>Node2&#45;&gt;Node17</title>
<path fill="none" stroke="midnightblue" d="M454.49,-302.41C514.05,-283.46 657.7,-237.75 736.52,-212.68"/>
<polygon fill="midnightblue" stroke="midnightblue" points="737.79,-215.94 746.26,-209.58 735.67,-209.27 737.79,-215.94"/>
</g>
<!-- Node18 -->
<g id="node18" class="node">
<title>Node18</title>
<g id="a_node18"><a xlink:href="screen__menu_8h.html" target="_top" xlink:title=" ">
<polygon fill="none" stroke="black" points="439,-179.5 439,-209.5 556,-209.5 556,-179.5 439,-179.5"/>
<text text-anchor="start" x="447" y="-197.5" font-family="Helvetica,sans-Serif" font-size="10.00">src/gui/screen_menu</text>
<text text-anchor="middle" x="497.5" y="-186.5" font-family="Helvetica,sans-Serif" font-size="10.00">/screen_menu.h</text>
</a>
</g>
</g>
<!-- Node2&#45;&gt;Node18 -->
<g id="edge24" class="edge">
<title>Node2&#45;&gt;Node18</title>
<path fill="none" stroke="midnightblue" d="M432.76,-302.32C443.47,-284.66 468.08,-244.04 483.69,-218.29"/>
<polygon fill="midnightblue" stroke="midnightblue" points="486.8,-219.91 488.99,-209.55 480.81,-216.28 486.8,-219.91"/>
</g>
<!-- Node19 -->
<g id="node19" class="node">
<title>Node19</title>
<g id="a_node19"><a xlink:href="screen__settings_8h.html" target="_top" xlink:title=" ">
<polygon fill="none" stroke="black" points="574.5,-179.5 574.5,-209.5 702.5,-209.5 702.5,-179.5 574.5,-179.5"/>
<text text-anchor="start" x="582.5" y="-197.5" font-family="Helvetica,sans-Serif" font-size="10.00">src/gui/screen_settings</text>
<text text-anchor="middle" x="638.5" y="-186.5" font-family="Helvetica,sans-Serif" font-size="10.00">/screen_settings.h</text>
</a>
</g>
</g>
<!-- Node2&#45;&gt;Node19 -->
<g id="edge27" class="edge">
<title>Node2&#45;&gt;Node19</title>
<path fill="none" stroke="midnightblue" d="M443.36,-302.32C477.32,-283.73 557.75,-239.7 604.06,-214.35"/>
<polygon fill="midnightblue" stroke="midnightblue" points="605.75,-217.42 612.84,-209.55 602.39,-211.28 605.75,-217.42"/>
</g>
<!-- Node20 -->
<g id="node20" class="node">
<title>Node20</title>
<g id="a_node20"><a xlink:href="engine_8h.html" target="_top" xlink:title=" ">
<polygon fill="none" stroke="black" points="926.5,-246.5 926.5,-265.5 1064.5,-265.5 1064.5,-246.5 926.5,-246.5"/>
<text text-anchor="middle" x="995.5" y="-253.5" font-family="Helvetica,sans-Serif" font-size="10.00">src/logic/engine/engine.h</text>
</a>
</g>
</g>
<!-- Node2&#45;&gt;Node20 -->
<g id="edge30" class="edge">
<title>Node2&#45;&gt;Node20</title>
<path fill="none" stroke="midnightblue" d="M473.61,-303.31C476.95,-302.84 480.27,-302.4 483.5,-302 669.01,-279.16 716.37,-283 902.5,-266 906.98,-265.59 911.59,-265.16 916.23,-264.73"/>
<polygon fill="midnightblue" stroke="midnightblue" points="916.81,-268.19 926.44,-263.77 916.15,-261.22 916.81,-268.19"/>
</g>
<!-- Node7&#45;&gt;Node6 -->
<g id="edge7" class="edge">
<title>Node7&#45;&gt;Node6</title>
<path fill="none" stroke="midnightblue" d="M738.77,-56.44C685.01,-45.93 594.71,-28.26 543.99,-18.33"/>
<polygon fill="midnightblue" stroke="midnightblue" points="544.58,-14.88 534.09,-16.4 543.24,-21.75 544.58,-14.88"/>
</g>
<!-- Node8&#45;&gt;Node5 -->
<g id="edge11" class="edge">
<title>Node8&#45;&gt;Node5</title>
<path fill="none" stroke="midnightblue" d="M345.79,-179.4C333.31,-168.86 316.27,-154.48 303.49,-143.69"/>
<polygon fill="midnightblue" stroke="midnightblue" points="305.7,-140.97 295.8,-137.19 301.18,-146.32 305.7,-140.97"/>
</g>
<!-- Node8&#45;&gt;Node7 -->
<g id="edge13" class="edge">
<title>Node8&#45;&gt;Node7</title>
<path fill="none" stroke="midnightblue" d="M421.31,-180.72C424.08,-180.13 426.82,-179.56 429.5,-179 509.37,-162.37 536.98,-180.37 609.5,-143 627.39,-133.78 625.16,-122.22 642.5,-112 669.43,-96.13 702.64,-85.14 729.95,-78"/>
<polygon fill="midnightblue" stroke="midnightblue" points="730.87,-81.38 739.72,-75.54 729.17,-74.59 730.87,-81.38"/>
</g>
<!-- Node9 -->
<g id="node9" class="node">
<title>Node9</title>
<g id="a_node9"><a xlink:title=" ">
<polygon fill="none" stroke="#bfbfbf" points="504.5,-118 504.5,-137 600.5,-137 600.5,-118 504.5,-118"/>
<text text-anchor="middle" x="552.5" y="-125" font-family="Helvetica,sans-Serif" font-size="10.00">QGraphicsScene</text>
</a>
</g>
</g>
<!-- Node8&#45;&gt;Node9 -->
<g id="edge9" class="edge">
<title>Node8&#45;&gt;Node9</title>
<path fill="none" stroke="midnightblue" d="M403.73,-179.4C437.8,-167.74 485.64,-151.37 517.79,-140.38"/>
<polygon fill="midnightblue" stroke="midnightblue" points="519.3,-143.56 527.63,-137.01 517.04,-136.93 519.3,-143.56"/>
</g>
<!-- Node10 -->
<g id="node10" class="node">
<title>Node10</title>
<g id="a_node10"><a xlink:title=" ">
<polygon fill="none" stroke="#bfbfbf" points="273,-56.5 273,-75.5 380,-75.5 380,-56.5 273,-56.5"/>
<text text-anchor="middle" x="326.5" y="-63.5" font-family="Helvetica,sans-Serif" font-size="10.00">QGraphicsSvgItem</text>
</a>
</g>
</g>
<!-- Node8&#45;&gt;Node10 -->
<g id="edge10" class="edge">
<title>Node8&#45;&gt;Node10</title>
<path fill="none" stroke="midnightblue" d="M358.51,-179.48C352,-156.62 339.11,-111.3 331.83,-85.71"/>
<polygon fill="midnightblue" stroke="midnightblue" points="335.1,-84.45 329,-75.79 328.37,-86.36 335.1,-84.45"/>
</g>
<!-- Node11 -->
<g id="node11" class="node">
<title>Node11</title>
<g id="a_node11"><a xlink:title=" ">
<polygon fill="none" stroke="#bfbfbf" points="695,-118 695,-137 754,-137 754,-118 695,-118"/>
<text text-anchor="middle" x="724.5" y="-125" font-family="Helvetica,sans-Serif" font-size="10.00">QWidget</text>
</a>
</g>
</g>
<!-- Node8&#45;&gt;Node11 -->
<g id="edge12" class="edge">
<title>Node8&#45;&gt;Node11</title>
<path fill="none" stroke="midnightblue" d="M421.29,-180.62C424.07,-180.06 426.81,-179.52 429.5,-179 523.78,-160.84 547.89,-159.36 642.5,-143 656.35,-140.61 671.51,-137.94 684.98,-135.55"/>
<polygon fill="midnightblue" stroke="midnightblue" points="685.67,-138.98 694.9,-133.79 684.45,-132.09 685.67,-138.98"/>
</g>
<!-- Node12 -->
<g id="node12" class="node">
<title>Node12</title>
<g id="a_node12"><a xlink:href="gui__figure_8h.html" target="_top" xlink:title=" ">
<polygon fill="none" stroke="black" points="369,-112.5 369,-142.5 486,-142.5 486,-112.5 369,-112.5"/>
<text text-anchor="start" x="377" y="-130.5" font-family="Helvetica,sans-Serif" font-size="10.00">src/gui/screen_game</text>
<text text-anchor="middle" x="427.5" y="-119.5" font-family="Helvetica,sans-Serif" font-size="10.00">/gui_figure.h</text>
</a>
</g>
</g>
<!-- Node8&#45;&gt;Node12 -->
<g id="edge14" class="edge">
<title>Node8&#45;&gt;Node12</title>
<path fill="none" stroke="midnightblue" d="M376.6,-179.4C385.29,-170.71 396.6,-159.4 406.34,-149.66"/>
<polygon fill="midnightblue" stroke="midnightblue" points="408.83,-152.12 413.42,-142.58 403.88,-147.17 408.83,-152.12"/>
</g>
<!-- Node12&#45;&gt;Node7 -->
<g id="edge18" class="edge">
<title>Node12&#45;&gt;Node7</title>
<path fill="none" stroke="midnightblue" d="M486.06,-113.8C489.25,-113.17 492.41,-112.57 495.5,-112 575.74,-97.17 669.18,-83.11 727.1,-74.77"/>
<polygon fill="midnightblue" stroke="midnightblue" points="727.73,-78.22 737.14,-73.33 726.74,-71.29 727.73,-78.22"/>
</g>
<!-- Node12&#45;&gt;Node10 -->
<g id="edge16" class="edge">
<title>Node12&#45;&gt;Node10</title>
<path fill="none" stroke="midnightblue" d="M403.56,-112.4C387.37,-102.86 366.09,-90.32 350,-80.84"/>
<polygon fill="midnightblue" stroke="midnightblue" points="351.59,-77.72 341.2,-75.66 348.04,-83.75 351.59,-77.72"/>
</g>
<!-- Node13 -->
<g id="node13" class="node">
<title>Node13</title>
<g id="a_node13"><a xlink:title=" ">
<polygon fill="none" stroke="#bfbfbf" points="398.5,-56.5 398.5,-75.5 554.5,-75.5 554.5,-56.5 398.5,-56.5"/>
<text text-anchor="middle" x="476.5" y="-63.5" font-family="Helvetica,sans-Serif" font-size="10.00">QGraphicsSceneMouseEvent</text>
</a>
</g>
</g>
<!-- Node12&#45;&gt;Node13 -->
<g id="edge15" class="edge">
<title>Node12&#45;&gt;Node13</title>
<path fill="none" stroke="midnightblue" d="M439.11,-112.4C446.23,-103.75 455.38,-92.64 462.85,-83.58"/>
<polygon fill="midnightblue" stroke="midnightblue" points="465.71,-85.6 469.37,-75.66 460.31,-81.15 465.71,-85.6"/>
</g>
<!-- Node14 -->
<g id="node14" class="node">
<title>Node14</title>
<g id="a_node14"><a xlink:title=" ">
<polygon fill="none" stroke="#bfbfbf" points="572.5,-56.5 572.5,-75.5 658.5,-75.5 658.5,-56.5 572.5,-56.5"/>
<text text-anchor="middle" x="615.5" y="-63.5" font-family="Helvetica,sans-Serif" font-size="10.00">QSvgRenderer</text>
</a>
</g>
</g>
<!-- Node12&#45;&gt;Node14 -->
<g id="edge17" class="edge">
<title>Node12&#45;&gt;Node14</title>
<path fill="none" stroke="midnightblue" d="M472.05,-112.4C504.54,-102.12 548.04,-88.35 578.59,-78.68"/>
<polygon fill="midnightblue" stroke="midnightblue" points="579.94,-81.93 588.42,-75.57 577.83,-75.25 579.94,-81.93"/>
</g>
<!-- Node15 -->
<g id="node15" class="node">
<title>Node15</title>
<g id="a_node15"><a xlink:href="utils_8h.html" target="_top" xlink:title=" ">
<polygon fill="none" stroke="black" points="851.5,-56.5 851.5,-75.5 915.5,-75.5 915.5,-56.5 851.5,-56.5"/>
<text text-anchor="middle" x="883.5" y="-63.5" font-family="Helvetica,sans-Serif" font-size="10.00">src/utils.h</text>
</a>
</g>
</g>
<!-- Node12&#45;&gt;Node15 -->
<g id="edge19" class="edge">
<title>Node12&#45;&gt;Node15</title>
<path fill="none" stroke="midnightblue" d="M486.03,-113.61C489.23,-113.03 492.4,-112.49 495.5,-112 646.01,-88.08 685.75,-98.35 836.5,-76 838.17,-75.75 839.86,-75.49 841.58,-75.21"/>
<polygon fill="midnightblue" stroke="midnightblue" points="842.19,-78.66 851.45,-73.51 841,-71.76 842.19,-78.66"/>
</g>
<!-- Node16 -->
<g id="node16" class="node">
<title>Node16</title>
<g id="a_node16"><a xlink:title=" ">
<polygon fill="none" stroke="#bfbfbf" points="861,-0.5 861,-19.5 906,-19.5 906,-0.5 861,-0.5"/>
<text text-anchor="middle" x="883.5" y="-7.5" font-family="Helvetica,sans-Serif" font-size="10.00">utility</text>
</a>
</g>
</g>
<!-- Node15&#45;&gt;Node16 -->
<g id="edge20" class="edge">
<title>Node15&#45;&gt;Node16</title>
<path fill="none" stroke="midnightblue" d="M883.5,-56.08C883.5,-49.01 883.5,-38.86 883.5,-29.99"/>
<polygon fill="midnightblue" stroke="midnightblue" points="887,-29.75 883.5,-19.75 880,-29.75 887,-29.75"/>
</g>
<!-- Node17&#45;&gt;Node7 -->
<g id="edge23" class="edge">
<title>Node17&#45;&gt;Node7</title>
<path fill="none" stroke="midnightblue" d="M793.46,-179.29C796.42,-162.97 800.06,-135.42 796.5,-112 795.13,-103 792.31,-93.33 789.55,-85.26"/>
<polygon fill="midnightblue" stroke="midnightblue" points="792.81,-83.98 786.1,-75.78 786.23,-86.37 792.81,-83.98"/>
</g>
<!-- Node17&#45;&gt;Node11 -->
<g id="edge22" class="edge">
<title>Node17&#45;&gt;Node11</title>
<path fill="none" stroke="midnightblue" d="M776.18,-179.4C765.68,-169.06 751.43,-155.02 740.55,-144.31"/>
<polygon fill="midnightblue" stroke="midnightblue" points="742.91,-141.72 733.33,-137.19 738,-146.71 742.91,-141.72"/>
</g>
<!-- Node18&#45;&gt;Node7 -->
<g id="edge26" class="edge">
<title>Node18&#45;&gt;Node7</title>
<path fill="none" stroke="midnightblue" d="M548.92,-179.43C577.31,-170.72 612.74,-158.28 642.5,-143 663.78,-132.07 665.81,-124.01 686.5,-112 707.74,-99.67 732.93,-87.96 752.17,-79.58"/>
<polygon fill="midnightblue" stroke="midnightblue" points="753.56,-82.8 761.37,-75.63 750.8,-76.36 753.56,-82.8"/>
</g>
<!-- Node18&#45;&gt;Node11 -->
<g id="edge25" class="edge">
<title>Node18&#45;&gt;Node11</title>
<path fill="none" stroke="midnightblue" d="M550.95,-179.49C587.55,-169.72 637.12,-156.12 680.5,-143 683.41,-142.12 686.42,-141.18 689.43,-140.23"/>
<polygon fill="midnightblue" stroke="midnightblue" points="690.53,-143.55 698.97,-137.15 688.38,-136.89 690.53,-143.55"/>
</g>
<!-- Node19&#45;&gt;Node7 -->
<g id="edge29" class="edge">
<title>Node19&#45;&gt;Node7</title>
<path fill="none" stroke="midnightblue" d="M702.77,-180.22C724.8,-172.69 747.83,-161.01 763.5,-143 777.28,-127.16 781.35,-102.79 782.41,-85.93"/>
<polygon fill="midnightblue" stroke="midnightblue" points="785.92,-85.77 782.74,-75.66 778.92,-85.54 785.92,-85.77"/>
</g>
<!-- Node19&#45;&gt;Node11 -->
<g id="edge28" class="edge">
<title>Node19&#45;&gt;Node11</title>
<path fill="none" stroke="midnightblue" d="M657.16,-179.4C671.23,-168.76 690.49,-154.2 704.81,-143.38"/>
<polygon fill="midnightblue" stroke="midnightblue" points="707.13,-146.02 713,-137.19 702.91,-140.43 707.13,-146.02"/>
</g>
<!-- Node20&#45;&gt;Node7 -->
<g id="edge31" class="edge">
<title>Node20&#45;&gt;Node7</title>
<path fill="none" stroke="midnightblue" d="M992.13,-246.23C982.21,-221.54 950.76,-150.75 902.5,-112 882.55,-95.98 856.31,-85.28 833.46,-78.34"/>
<polygon fill="midnightblue" stroke="midnightblue" points="834.15,-74.9 823.57,-75.5 832.22,-81.62 834.15,-74.9"/>
</g>
<!-- Node21 -->
<g id="node21" class="node">
<title>Node21</title>
<g id="a_node21"><a xlink:href="board_8h.html" target="_top" xlink:title=" ">
<polygon fill="none" stroke="black" points="1049,-185 1049,-204 1142,-204 1142,-185 1049,-185"/>
<text text-anchor="middle" x="1095.5" y="-192" font-family="Helvetica,sans-Serif" font-size="10.00">../board/board.h</text>
</a>
</g>
</g>
<!-- Node20&#45;&gt;Node21 -->
<g id="edge32" class="edge">
<title>Node20&#45;&gt;Node21</title>
<path fill="none" stroke="midnightblue" d="M1009.83,-246.48C1026.16,-236.75 1053.1,-220.73 1072.41,-209.24"/>
<polygon fill="midnightblue" stroke="midnightblue" points="1074.39,-212.13 1081.2,-204.01 1070.82,-206.11 1074.39,-212.13"/>
</g>
<!-- Node22 -->
<g id="node22" class="node">
<title>Node22</title>
<g id="a_node22"><a xlink:href="figures_8h.html" target="_top" xlink:title=" ">
<polygon fill="none" stroke="black" points="954.5,-118 954.5,-137 1058.5,-137 1058.5,-118 954.5,-118"/>
<text text-anchor="middle" x="1006.5" y="-125" font-family="Helvetica,sans-Serif" font-size="10.00">../figures/figures.h</text>
</a>
</g>
</g>
<!-- Node20&#45;&gt;Node22 -->
<g id="edge41" class="edge">
<title>Node20&#45;&gt;Node22</title>
<path fill="none" stroke="midnightblue" d="M996.26,-246.31C998.02,-225.99 1002.45,-175.05 1004.87,-147.28"/>
<polygon fill="midnightblue" stroke="midnightblue" points="1008.36,-147.52 1005.74,-137.26 1001.39,-146.91 1008.36,-147.52"/>
</g>
<!-- Node21&#45;&gt;Node22 -->
<g id="edge33" class="edge">
<title>Node21&#45;&gt;Node22</title>
<path fill="none" stroke="midnightblue" d="M1083.5,-184.73C1068.95,-174.11 1044.22,-156.05 1026.72,-143.26"/>
<polygon fill="midnightblue" stroke="midnightblue" points="1028.45,-140.2 1018.31,-137.13 1024.32,-145.85 1028.45,-140.2"/>
</g>
<!-- Node24 -->
<g id="node24" class="node">
<title>Node24</title>
<g id="a_node24"><a xlink:title=" ">
<polygon fill="none" stroke="#bfbfbf" points="1099.5,-56.5 1099.5,-75.5 1131.5,-75.5 1131.5,-56.5 1099.5,-56.5"/>
<text text-anchor="middle" x="1115.5" y="-63.5" font-family="Helvetica,sans-Serif" font-size="10.00">list</text>
</a>
</g>
</g>
<!-- Node21&#45;&gt;Node24 -->
<g id="edge39" class="edge">
<title>Node21&#45;&gt;Node24</title>
<path fill="none" stroke="midnightblue" d="M1104.83,-184.89C1114.15,-175.6 1127.87,-159.86 1133.5,-143 1140.06,-123.38 1132.4,-100.15 1125.15,-84.58"/>
<polygon fill="midnightblue" stroke="midnightblue" points="1128.23,-82.92 1120.59,-75.57 1121.98,-86.08 1128.23,-82.92"/>
</g>
<!-- Node26 -->
<g id="node26" class="node">
<title>Node26</title>
<g id="a_node26"><a xlink:title=" ">
<polygon fill="none" stroke="#bfbfbf" points="1077,-118 1077,-137 1124,-137 1124,-118 1077,-118"/>
<text text-anchor="middle" x="1100.5" y="-125" font-family="Helvetica,sans-Serif" font-size="10.00">vector</text>
</a>
</g>
</g>
<!-- Node21&#45;&gt;Node26 -->
<g id="edge40" class="edge">
<title>Node21&#45;&gt;Node26</title>
<path fill="none" stroke="midnightblue" d="M1096.17,-184.73C1096.91,-175.18 1098.11,-159.62 1099.06,-147.28"/>
<polygon fill="midnightblue" stroke="midnightblue" points="1102.56,-147.37 1099.84,-137.13 1095.58,-146.83 1102.56,-147.37"/>
</g>
<!-- Node22&#45;&gt;Node7 -->
<g id="edge34" class="edge">
<title>Node22&#45;&gt;Node7</title>
<path fill="none" stroke="midnightblue" d="M974.41,-117.98C934.9,-107.48 867.72,-89.64 824.24,-78.09"/>
<polygon fill="midnightblue" stroke="midnightblue" points="825.1,-74.69 814.53,-75.51 823.3,-81.46 825.1,-74.69"/>
</g>
<!-- Node22&#45;&gt;Node15 -->
<g id="edge35" class="edge">
<title>Node22&#45;&gt;Node15</title>
<path fill="none" stroke="midnightblue" d="M988.88,-117.98C968.33,-108.03 934.14,-91.49 910.29,-79.96"/>
<polygon fill="midnightblue" stroke="midnightblue" points="911.62,-76.71 901.09,-75.51 908.57,-83.01 911.62,-76.71"/>
</g>
<!-- Node23 -->
<g id="node23" class="node">
<title>Node23</title>
<g id="a_node23"><a xlink:title=" ">
<polygon fill="none" stroke="#bfbfbf" points="987,-56.5 987,-75.5 1038,-75.5 1038,-56.5 987,-56.5"/>
<text text-anchor="middle" x="1012.5" y="-63.5" font-family="Helvetica,sans-Serif" font-size="10.00">math.h</text>
</a>
</g>
</g>
<!-- Node22&#45;&gt;Node23 -->
<g id="edge36" class="edge">
<title>Node22&#45;&gt;Node23</title>
<path fill="none" stroke="midnightblue" d="M1007.36,-117.98C1008.21,-109.58 1009.53,-96.48 1010.62,-85.66"/>
<polygon fill="midnightblue" stroke="midnightblue" points="1014.12,-85.81 1011.64,-75.51 1007.16,-85.11 1014.12,-85.81"/>
</g>
<!-- Node22&#45;&gt;Node24 -->
<g id="edge37" class="edge">
<title>Node22&#45;&gt;Node24</title>
<path fill="none" stroke="midnightblue" d="M1022.12,-117.98C1040.09,-108.17 1069.82,-91.93 1090.91,-80.42"/>
<polygon fill="midnightblue" stroke="midnightblue" points="1092.81,-83.37 1099.91,-75.51 1089.46,-77.23 1092.81,-83.37"/>
</g>
<!-- Node25 -->
<g id="node25" class="node">
<title>Node25</title>
<g id="a_node25"><a xlink:title=" ">
<polygon fill="none" stroke="#bfbfbf" points="936.5,-56.5 936.5,-75.5 968.5,-75.5 968.5,-56.5 936.5,-56.5"/>
<text text-anchor="middle" x="952.5" y="-63.5" font-family="Helvetica,sans-Serif" font-size="10.00">set</text>
</a>
</g>
</g>
<!-- Node22&#45;&gt;Node25 -->
<g id="edge38" class="edge">
<title>Node22&#45;&gt;Node25</title>
<path fill="none" stroke="midnightblue" d="M998.76,-117.98C990.5,-108.87 977.22,-94.24 967.01,-82.98"/>
<polygon fill="midnightblue" stroke="midnightblue" points="969.53,-80.56 960.22,-75.51 964.35,-85.27 969.53,-80.56"/>
</g>
</g>
</svg>
        <g id="navigator" transform="translate(0 0)" fill="#404254">
                <rect fill="#f2f5e9" fill-opacity="0.5" stroke="#606060" stroke-width=".5" x="0" y="0" width="60" height="60"/>
                <use id="zoomplus" xlink:href="#zoomPlus" x="17" y="9" onmousedown="handleZoom(evt,'in')"/>
                <use id="zoomminus" xlink:href="#zoomMin" x="42" y="9" onmousedown="handleZoom(evt,'out')"/>
                <use id="reset" xlink:href="#resetDef" x="30" y="36" onmousedown="handleReset()"/>
                <g id="arrowUp" xlink:href="#dirArrow" transform="translate(30 24)" onmousedown="handlePan(0,-1)">
                  <use xlink:href="#rim" fill="#404040">
                        <set attributeName="fill" to="#808080" begin="arrowUp.mouseover" end="arrowUp.mouseout"/>
                  </use>
                  <path fill="none" stroke="white" stroke-width="1.5" d="M0,-3.0v7 M-2.5,-0.5L0,-3.0L2.5,-0.5"/>
                </g>
                <g id="arrowRight" xlink:href="#dirArrow" transform="rotate(90) translate(36 -43)" onmousedown="handlePan(1,0)">
                  <use xlink:href="#rim" fill="#404040">
                        <set attributeName="fill" to="#808080" begin="arrowRight.mouseover" end="arrowRight.mouseout"/>
                  </use>
                  <path fill="none" stroke="white" stroke-width="1.5" d="M0,-3.0v7 M-2.5,-0.5L0,-3.0L2.5,-0.5"/>
                </g>
                <g id="arrowDown" xlink:href="#dirArrow" transform="rotate(180) translate(-30 -48)" onmousedown="handlePan(0,1)">
                  <use xlink:href="#rim" fill="#404040">
                        <set attributeName="fill" to="#808080" begin="arrowDown.mouseover" end="arrowDown.mouseout"/>
                  </use>
                  <path fill="none" stroke="white" stroke-width="1.5" d="M0,-3.0v7 M-2.5,-0.5L0,-3.0L2.5,-0.5"/>
                </g>
                <g id="arrowLeft" xlink:href="#dirArrow" transform="rotate(270) translate(-36 17)" onmousedown="handlePan(-1,0)">
                  <use xlink:href="#rim" fill="#404040">
                        <set attributeName="fill" to="#808080" begin="arrowLeft.mouseover" end="arrowLeft.mouseout"/>
                  </use>
                  <path fill="none" stroke="white" stroke-width="1.5" d="M0,-3.0v7 M-2.5,-0.5L0,-3.0L2.5,-0.5"/>
                </g>
        </g>
        <svg viewBox="0 0 15 15" width="100%" height="30px" preserveAspectRatio="xMaxYMin meet">
         <g id="arrow_out" transform="scale(0.3 0.3)">
          <a xlink:href="main__window_8cpp__incl_org.svg" target="_base">
           <rect id="button" ry="5" rx="5" y="6" x="6" height="38" width="38"
                fill="#f2f5e9" fill-opacity="0.5" stroke="#606060" stroke-width="1.0"/>
           <path id="arrow"
             d="M 11.500037,31.436501 C 11.940474,20.09759 22.043105,11.32322 32.158766,21.979434 L 37.068811,17.246167 C 37.068811,17.246167 37.088388,32 37.088388,32 L 22.160133,31.978069 C 22.160133,31.978069 26.997745,27.140456 26.997745,27.140456 C 18.528582,18.264221 13.291696,25.230495 11.500037,31.436501 z"
             style="fill:#404040;"/>
          </a>
         </g>
        </svg>
</svg>
