<?xml version="1.0" encoding="UTF-8" standalone="no"?>
<!DOCTYPE svg PUBLIC "-//W3C//DTD SVG 1.1//EN"
 "http://www.w3.org/Graphics/SVG/1.1/DTD/svg11.dtd">
<!-- Generated by graphviz version 2.50.0 (0)
 -->
<!-- Title: src/gui/main_window/main_window.cpp Pages: 1 -->
<!--zoomable 285 -->
<svg id="main" version="1.1" xmlns="http://www.w3.org/2000/svg" xmlns:xlink="http://www.w3.org/1999/xlink" xml:space="preserve" onload="init(evt)">
<style type="text/css"><![CDATA[
.edge:hover path { stroke: red; }
.edge:hover polygon { stroke: red; fill: red; }
]]></style>
<script type="text/javascript"><![CDATA[
var edges = document.getElementsByTagName('g');
if (edges && edges.length) {
  for (var i=0;i<edges.length;i++) {
    if (edges[i].id.substr(0,4)=='edge') {
      edges[i].setAttribute('class','edge');
    }
  }
}
]]></script>
        <defs>
                <circle id="rim" cx="0" cy="0" r="7"/>
                <circle id="rim2" cx="0" cy="0" r="3.5"/>
                <g id="zoomPlus">
                        <use xlink:href="#rim" fill="#404040">
                                <set attributeName="fill" to="#808080" begin="zoomplus.mouseover" end="zoomplus.mouseout"/>
                        </use>
                        <path d="M-4,0h8M0,-4v8" fill="none" stroke="white" stroke-width="1.5" pointer-events="none"/>
                </g>
                <g id="zoomMin">
                        <use xlink:href="#rim" fill="#404040">
                                <set attributeName="fill" to="#808080" begin="zoomminus.mouseover" end="zoomminus.mouseout"/>
                        </use>
                        <path d="M-4,0h8" fill="none" stroke="white" stroke-width="1.5" pointer-events="none"/>
                </g>
                <g id="dirArrow">
                        <path fill="none" stroke="white" stroke-width="1.5" d="M0,-3.0v7 M-2.5,-0.5L0,-3.0L2.5,-0.5"/>
                </g>
               <g id="resetDef">
                       <use xlink:href="#rim2" fill="#404040">
                               <set attributeName="fill" to="#808080" begin="reset.mouseover" end="reset.mouseout"/>
                       </use>
               </g>
        </defs>

<script type="text/javascript">
var viewWidth = 805;
var viewHeight = 285;
var sectionId = 'dynsection-0';
</script>
<script xlink:href="svgpan.js"/>
<svg id="graph" class="graph">
<g id="viewport">
<title>src/gui/main_window/main_window.cpp</title>
<!-- Node1 -->
<g id="node1" class="node">
<title>Node1</title>
<g id="a_node1"><a xlink:title=" ">
<polygon fill="#bfbfbf" stroke="black" points="341,-246.5 341,-276.5 449,-276.5 449,-246.5 341,-246.5"/>
<text text-anchor="start" x="349" y="-264.5" font-family="Helvetica,sans-Serif" font-size="10.00">src/gui/main_window</text>
<text text-anchor="middle" x="395" y="-253.5" font-family="Helvetica,sans-Serif" font-size="10.00">/main_window.cpp</text>
</a>
</g>
</g>
<!-- Node2 -->
<g id="node2" class="node">
<title>Node2</title>
<g id="a_node2"><a xlink:href="main__window_8h.html" target="_top" xlink:title=" ">
<polygon fill="none" stroke="black" points="299.5,-190.5 299.5,-209.5 382.5,-209.5 382.5,-190.5 299.5,-190.5"/>
<text text-anchor="middle" x="341" y="-197.5" font-family="Helvetica,sans-Serif" font-size="10.00">main_window.h</text>
</a>
</g>
</g>
<!-- Node1&#45;&gt;Node2 -->
<g id="edge1" class="edge">
<title>Node1&#45;&gt;Node2</title>
<path fill="none" stroke="midnightblue" d="M382.2,-246.4C374.28,-237.66 364.06,-226.41 355.79,-217.3"/>
<polygon fill="midnightblue" stroke="midnightblue" points="358.17,-214.71 348.86,-209.66 352.99,-219.42 358.17,-214.71"/>
</g>
<!-- Node16 -->
<g id="node16" class="node">
<title>Node16</title>
<g id="a_node16"><a xlink:title=" ">
<polygon fill="none" stroke="#bfbfbf" points="401,-190.5 401,-209.5 497,-209.5 497,-190.5 401,-190.5"/>
<text text-anchor="middle" x="449" y="-197.5" font-family="Helvetica,sans-Serif" font-size="10.00">ui_main_window.h</text>
</a>
</g>
</g>
<!-- Node1&#45;&gt;Node16 -->
<g id="edge23" class="edge">
<title>Node1&#45;&gt;Node16</title>
<path fill="none" stroke="midnightblue" d="M407.8,-246.4C415.72,-237.66 425.94,-226.41 434.21,-217.3"/>
<polygon fill="midnightblue" stroke="midnightblue" points="437.01,-219.42 441.14,-209.66 431.83,-214.71 437.01,-219.42"/>
</g>
<!-- Node3 -->
<g id="node3" class="node">
<title>Node3</title>
<g id="a_node3"><a xlink:title=" ">
<polygon fill="none" stroke="#bfbfbf" points="0,-129 0,-148 80,-148 80,-129 0,-129"/>
<text text-anchor="middle" x="40" y="-136" font-family="Helvetica,sans-Serif" font-size="10.00">QMainWindow</text>
</a>
</g>
</g>
<!-- Node2&#45;&gt;Node3 -->
<g id="edge2" class="edge">
<title>Node2&#45;&gt;Node3</title>
<path fill="none" stroke="midnightblue" d="M299.24,-193C249.01,-185.44 162.31,-171.34 89,-154 84.92,-153.04 80.68,-151.93 76.47,-150.78"/>
<polygon fill="midnightblue" stroke="midnightblue" points="77.39,-147.4 66.81,-148.02 75.47,-154.13 77.39,-147.4"/>
</g>
<!-- Node4 -->
<g id="node4" class="node">
<title>Node4</title>
<g id="a_node4"><a xlink:title=" ">
<polygon fill="none" stroke="#bfbfbf" points="98.5,-129 98.5,-148 189.5,-148 189.5,-129 98.5,-129"/>
<text text-anchor="middle" x="144" y="-136" font-family="Helvetica,sans-Serif" font-size="10.00">QStackedWidget</text>
</a>
</g>
</g>
<!-- Node2&#45;&gt;Node4 -->
<g id="edge3" class="edge">
<title>Node2&#45;&gt;Node4</title>
<path fill="none" stroke="midnightblue" d="M312.77,-190.48C278.4,-180.09 220.19,-162.51 181.92,-150.95"/>
<polygon fill="midnightblue" stroke="midnightblue" points="182.76,-147.55 172.17,-148.01 180.73,-154.25 182.76,-147.55"/>
</g>
<!-- Node5 -->
<g id="node5" class="node">
<title>Node5</title>
<g id="a_node5"><a xlink:title=" ">
<polygon fill="none" stroke="#bfbfbf" points="193,-62 193,-81 243,-81 243,-62 193,-62"/>
<text text-anchor="middle" x="218" y="-69" font-family="Helvetica,sans-Serif" font-size="10.00">QString</text>
</a>
</g>
</g>
<!-- Node2&#45;&gt;Node5 -->
<g id="edge4" class="edge">
<title>Node2&#45;&gt;Node5</title>
<path fill="none" stroke="midnightblue" d="M299.29,-190.46C277.73,-183.96 252.7,-172.8 237,-154 222.26,-136.35 218.49,-109.38 217.75,-91.35"/>
<polygon fill="midnightblue" stroke="midnightblue" points="221.25,-91.17 217.62,-81.22 214.25,-91.26 221.25,-91.17"/>
</g>
<!-- Node6 -->
<g id="node6" class="node">
<title>Node6</title>
<g id="a_node6"><a xlink:href="constants_8h.html" target="_top" xlink:title=" ">
<polygon fill="none" stroke="black" points="431,-62 431,-81 515,-81 515,-62 431,-62"/>
<text text-anchor="middle" x="473" y="-69" font-family="Helvetica,sans-Serif" font-size="10.00">src/constants.h</text>
</a>
</g>
</g>
<!-- Node2&#45;&gt;Node6 -->
<g id="edge5" class="edge">
<title>Node2&#45;&gt;Node6</title>
<path fill="none" stroke="midnightblue" d="M346.73,-190.38C356.81,-175.58 378.87,-144.83 402,-123 416.62,-109.2 435.19,-96.12 449.68,-86.73"/>
<polygon fill="midnightblue" stroke="midnightblue" points="451.95,-89.44 458.52,-81.12 448.2,-83.52 451.95,-89.44"/>
</g>
<!-- Node7 -->
<g id="node7" class="node">
<title>Node7</title>
<g id="a_node7"><a xlink:href="screen__game_8h.html" target="_top" xlink:title=" ">
<polygon fill="none" stroke="black" points="246.5,-123.5 246.5,-153.5 353.5,-153.5 353.5,-123.5 246.5,-123.5"/>
<text text-anchor="start" x="254.5" y="-141.5" font-family="Helvetica,sans-Serif" font-size="10.00">src/gui/screen_game</text>
<text text-anchor="middle" x="300" y="-130.5" font-family="Helvetica,sans-Serif" font-size="10.00">/screen_game.h</text>
</a>
</g>
</g>
<!-- Node2&#45;&gt;Node7 -->
<g id="edge6" class="edge">
<title>Node2&#45;&gt;Node7</title>
<path fill="none" stroke="midnightblue" d="M335.13,-190.48C329.99,-183.02 322.29,-171.85 315.41,-161.87"/>
<polygon fill="midnightblue" stroke="midnightblue" points="318.22,-159.77 309.66,-153.52 312.45,-163.74 318.22,-159.77"/>
</g>
<!-- Node13 -->
<g id="node13" class="node">
<title>Node13</title>
<g id="a_node13"><a xlink:href="screen__liderboard_8h.html" target="_top" xlink:title=" ">
<polygon fill="none" stroke="black" points="410.5,-123.5 410.5,-153.5 535.5,-153.5 535.5,-123.5 410.5,-123.5"/>
<text text-anchor="start" x="418.5" y="-141.5" font-family="Helvetica,sans-Serif" font-size="10.00">src/gui/screen_liderboard</text>
<text text-anchor="middle" x="473" y="-130.5" font-family="Helvetica,sans-Serif" font-size="10.00">/screen_liderboard.h</text>
</a>
</g>
</g>
<!-- Node2&#45;&gt;Node13 -->
<g id="edge14" class="edge">
<title>Node2&#45;&gt;Node13</title>
<path fill="none" stroke="midnightblue" d="M359.91,-190.48C378.79,-181.96 408.4,-168.62 432.58,-157.72"/>
<polygon fill="midnightblue" stroke="midnightblue" points="434.21,-160.82 441.89,-153.52 431.34,-154.44 434.21,-160.82"/>
</g>
<!-- Node14 -->
<g id="node14" class="node">
<title>Node14</title>
<g id="a_node14"><a xlink:href="screen__menu_8h.html" target="_top" xlink:title=" ">
<polygon fill="none" stroke="black" points="553.5,-123.5 553.5,-153.5 660.5,-153.5 660.5,-123.5 553.5,-123.5"/>
<text text-anchor="start" x="561.5" y="-141.5" font-family="Helvetica,sans-Serif" font-size="10.00">src/gui/screen_menu</text>
<text text-anchor="middle" x="607" y="-130.5" font-family="Helvetica,sans-Serif" font-size="10.00">/screen_menu.h</text>
</a>
</g>
</g>
<!-- Node2&#45;&gt;Node14 -->
<g id="edge17" class="edge">
<title>Node2&#45;&gt;Node14</title>
<path fill="none" stroke="midnightblue" d="M380.52,-190.44C419.55,-181.95 481.22,-168.44 543.28,-154.38"/>
<polygon fill="midnightblue" stroke="midnightblue" points="544.26,-157.74 553.24,-152.12 542.71,-150.92 544.26,-157.74"/>
</g>
<!-- Node15 -->
<g id="node15" class="node">
<title>Node15</title>
<g id="a_node15"><a xlink:href="screen__settings_8h.html" target="_top" xlink:title=" ">
<polygon fill="none" stroke="black" points="679,-123.5 679,-153.5 797,-153.5 797,-123.5 679,-123.5"/>
<text text-anchor="start" x="687" y="-141.5" font-family="Helvetica,sans-Serif" font-size="10.00">src/gui/screen_settings</text>
<text text-anchor="middle" x="738" y="-130.5" font-family="Helvetica,sans-Serif" font-size="10.00">/screen_settings.h</text>
</a>
</g>
</g>
<!-- Node2&#45;&gt;Node15 -->
<g id="edge20" class="edge">
<title>Node2&#45;&gt;Node15</title>
<path fill="none" stroke="midnightblue" d="M382.72,-191.48C385.86,-190.96 388.98,-190.46 392,-190 511.91,-171.67 545.44,-174.82 668.52,-154.17"/>
<polygon fill="midnightblue" stroke="midnightblue" points="669.44,-157.56 678.72,-152.44 668.27,-150.66 669.44,-157.56"/>
</g>
<!-- Node7&#45;&gt;Node5 -->
<g id="edge11" class="edge">
<title>Node7&#45;&gt;Node5</title>
<path fill="none" stroke="midnightblue" d="M282.21,-123.4C268.92,-112.86 250.77,-98.48 237.16,-87.69"/>
<polygon fill="midnightblue" stroke="midnightblue" points="238.98,-84.66 228.97,-81.19 234.63,-90.15 238.98,-84.66"/>
</g>
<!-- Node7&#45;&gt;Node6 -->
<g id="edge13" class="edge">
<title>Node7&#45;&gt;Node6</title>
<path fill="none" stroke="midnightblue" d="M337.54,-123.4C368.3,-111.84 411.37,-95.66 440.63,-84.66"/>
<polygon fill="midnightblue" stroke="midnightblue" points="442.23,-87.8 450.36,-81.01 439.77,-81.25 442.23,-87.8"/>
</g>
<!-- Node8 -->
<g id="node8" class="node">
<title>Node8</title>
<g id="a_node8"><a xlink:href="scene__game_8h.html" target="_top" xlink:title=" ">
<polygon fill="none" stroke="black" points="261,-56.5 261,-86.5 371,-86.5 371,-56.5 261,-56.5"/>
<text text-anchor="start" x="269" y="-74.5" font-family="Helvetica,sans-Serif" font-size="10.00">../scene_game/scene</text>
<text text-anchor="middle" x="316" y="-63.5" font-family="Helvetica,sans-Serif" font-size="10.00">_game.h</text>
</a>
</g>
</g>
<!-- Node7&#45;&gt;Node8 -->
<g id="edge7" class="edge">
<title>Node7&#45;&gt;Node8</title>
<path fill="none" stroke="midnightblue" d="M303.47,-123.4C305.4,-115.56 307.85,-105.6 310.08,-96.57"/>
<polygon fill="midnightblue" stroke="midnightblue" points="313.54,-97.12 312.54,-86.58 306.75,-95.45 313.54,-97.12"/>
</g>
<!-- Node12 -->
<g id="node12" class="node">
<title>Node12</title>
<g id="a_node12"><a xlink:title=" ">
<polygon fill="none" stroke="#bfbfbf" points="556.5,-62 556.5,-81 611.5,-81 611.5,-62 556.5,-62"/>
<text text-anchor="middle" x="584" y="-69" font-family="Helvetica,sans-Serif" font-size="10.00">QWidget</text>
</a>
</g>
</g>
<!-- Node7&#45;&gt;Node12 -->
<g id="edge12" class="edge">
<title>Node7&#45;&gt;Node12</title>
<path fill="none" stroke="midnightblue" d="M353.91,-125.59C399.32,-115.5 465.96,-100.55 524,-87 531.25,-85.31 538.98,-83.47 546.39,-81.68"/>
<polygon fill="midnightblue" stroke="midnightblue" points="547.34,-85.05 556.24,-79.3 545.7,-78.25 547.34,-85.05"/>
</g>
<!-- Node9 -->
<g id="node9" class="node">
<title>Node9</title>
<g id="a_node9"><a xlink:title=" ">
<polygon fill="none" stroke="#bfbfbf" points="186.5,-0.5 186.5,-19.5 277.5,-19.5 277.5,-0.5 186.5,-0.5"/>
<text text-anchor="middle" x="232" y="-7.5" font-family="Helvetica,sans-Serif" font-size="10.00">QGraphicsScene</text>
</a>
</g>
</g>
<!-- Node8&#45;&gt;Node9 -->
<g id="edge8" class="edge">
<title>Node8&#45;&gt;Node9</title>
<path fill="none" stroke="midnightblue" d="M296.09,-56.4C283.01,-47.13 265.92,-35.03 252.68,-25.65"/>
<polygon fill="midnightblue" stroke="midnightblue" points="254.41,-22.58 244.22,-19.66 250.36,-28.29 254.41,-22.58"/>
</g>
<!-- Node10 -->
<g id="node10" class="node">
<title>Node10</title>
<g id="a_node10"><a xlink:title=" ">
<polygon fill="none" stroke="#bfbfbf" points="296,-0.5 296,-19.5 336,-19.5 336,-0.5 296,-0.5"/>
<text text-anchor="middle" x="316" y="-7.5" font-family="Helvetica,sans-Serif" font-size="10.00">QList</text>
</a>
</g>
</g>
<!-- Node8&#45;&gt;Node10 -->
<g id="edge9" class="edge">
<title>Node8&#45;&gt;Node10</title>
<path fill="none" stroke="midnightblue" d="M316,-56.4C316,-48.47 316,-38.46 316,-29.86"/>
<polygon fill="midnightblue" stroke="midnightblue" points="319.5,-29.66 316,-19.66 312.5,-29.66 319.5,-29.66"/>
</g>
<!-- Node11 -->
<g id="node11" class="node">
<title>Node11</title>
<g id="a_node11"><a xlink:title=" ">
<polygon fill="none" stroke="#bfbfbf" points="354,-0.5 354,-19.5 406,-19.5 406,-0.5 354,-0.5"/>
<text text-anchor="middle" x="380" y="-7.5" font-family="Helvetica,sans-Serif" font-size="10.00">QVector</text>
</a>
</g>
</g>
<!-- Node8&#45;&gt;Node11 -->
<g id="edge10" class="edge">
<title>Node8&#45;&gt;Node11</title>
<path fill="none" stroke="midnightblue" d="M331.17,-56.4C340.75,-47.49 353.16,-35.95 363.07,-26.74"/>
<polygon fill="midnightblue" stroke="midnightblue" points="365.75,-29.03 370.69,-19.66 360.98,-23.9 365.75,-29.03"/>
</g>
<!-- Node13&#45;&gt;Node6 -->
<g id="edge16" class="edge">
<title>Node13&#45;&gt;Node6</title>
<path fill="none" stroke="midnightblue" d="M473,-123.4C473,-114.06 473,-101.71 473,-91.52"/>
<polygon fill="midnightblue" stroke="midnightblue" points="476.5,-91.19 473,-81.19 469.5,-91.19 476.5,-91.19"/>
</g>
<!-- Node13&#45;&gt;Node12 -->
<g id="edge15" class="edge">
<title>Node13&#45;&gt;Node12</title>
<path fill="none" stroke="midnightblue" d="M497.09,-123.4C515.96,-112.34 542.06,-97.06 560.72,-86.13"/>
<polygon fill="midnightblue" stroke="midnightblue" points="562.61,-89.08 569.47,-81.01 559.07,-83.04 562.61,-89.08"/>
</g>
<!-- Node14&#45;&gt;Node6 -->
<g id="edge19" class="edge">
<title>Node14&#45;&gt;Node6</title>
<path fill="none" stroke="midnightblue" d="M577.92,-123.4C554.62,-112.09 522.19,-96.36 499.57,-85.39"/>
<polygon fill="midnightblue" stroke="midnightblue" points="501.06,-82.22 490.54,-81.01 498.01,-88.52 501.06,-82.22"/>
</g>
<!-- Node14&#45;&gt;Node12 -->
<g id="edge18" class="edge">
<title>Node14&#45;&gt;Node12</title>
<path fill="none" stroke="midnightblue" d="M602.01,-123.4C598.64,-113.86 594.15,-101.18 590.5,-90.86"/>
<polygon fill="midnightblue" stroke="midnightblue" points="593.71,-89.45 587.08,-81.19 587.11,-91.79 593.71,-89.45"/>
</g>
<!-- Node15&#45;&gt;Node6 -->
<g id="edge22" class="edge">
<title>Node15&#45;&gt;Node6</title>
<path fill="none" stroke="midnightblue" d="M680.83,-123.48C631.88,-111.47 562.4,-94.43 517.51,-83.42"/>
<polygon fill="midnightblue" stroke="midnightblue" points="518.32,-80.01 507.77,-81.03 516.65,-86.81 518.32,-80.01"/>
</g>
<!-- Node15&#45;&gt;Node12 -->
<g id="edge21" class="edge">
<title>Node15&#45;&gt;Node12</title>
<path fill="none" stroke="midnightblue" d="M704.58,-123.4C677.44,-111.94 639.53,-95.94 613.5,-84.95"/>
<polygon fill="midnightblue" stroke="midnightblue" points="614.73,-81.67 604.16,-81.01 612.01,-88.12 614.73,-81.67"/>
</g>
</g>
</svg>
        <g id="navigator" transform="translate(0 0)" fill="#404254">
                <rect fill="#f2f5e9" fill-opacity="0.5" stroke="#606060" stroke-width=".5" x="0" y="0" width="60" height="60"/>
                <use id="zoomplus" xlink:href="#zoomPlus" x="17" y="9" onmousedown="handleZoom(evt,'in')"/>
                <use id="zoomminus" xlink:href="#zoomMin" x="42" y="9" onmousedown="handleZoom(evt,'out')"/>
                <use id="reset" xlink:href="#resetDef" x="30" y="36" onmousedown="handleReset()"/>
                <g id="arrowUp" xlink:href="#dirArrow" transform="translate(30 24)" onmousedown="handlePan(0,-1)">
                  <use xlink:href="#rim" fill="#404040">
                        <set attributeName="fill" to="#808080" begin="arrowUp.mouseover" end="arrowUp.mouseout"/>
                  </use>
                  <path fill="none" stroke="white" stroke-width="1.5" d="M0,-3.0v7 M-2.5,-0.5L0,-3.0L2.5,-0.5"/>
                </g>
                <g id="arrowRight" xlink:href="#dirArrow" transform="rotate(90) translate(36 -43)" onmousedown="handlePan(1,0)">
                  <use xlink:href="#rim" fill="#404040">
                        <set attributeName="fill" to="#808080" begin="arrowRight.mouseover" end="arrowRight.mouseout"/>
                  </use>
                  <path fill="none" stroke="white" stroke-width="1.5" d="M0,-3.0v7 M-2.5,-0.5L0,-3.0L2.5,-0.5"/>
                </g>
                <g id="arrowDown" xlink:href="#dirArrow" transform="rotate(180) translate(-30 -48)" onmousedown="handlePan(0,1)">
                  <use xlink:href="#rim" fill="#404040">
                        <set attributeName="fill" to="#808080" begin="arrowDown.mouseover" end="arrowDown.mouseout"/>
                  </use>
                  <path fill="none" stroke="white" stroke-width="1.5" d="M0,-3.0v7 M-2.5,-0.5L0,-3.0L2.5,-0.5"/>
                </g>
                <g id="arrowLeft" xlink:href="#dirArrow" transform="rotate(270) translate(-36 17)" onmousedown="handlePan(-1,0)">
                  <use xlink:href="#rim" fill="#404040">
                        <set attributeName="fill" to="#808080" begin="arrowLeft.mouseover" end="arrowLeft.mouseout"/>
                  </use>
                  <path fill="none" stroke="white" stroke-width="1.5" d="M0,-3.0v7 M-2.5,-0.5L0,-3.0L2.5,-0.5"/>
                </g>
        </g>
        <svg viewBox="0 0 15 15" width="100%" height="30px" preserveAspectRatio="xMaxYMin meet">
         <g id="arrow_out" transform="scale(0.3 0.3)">
          <a xlink:href="main__window_8cpp__incl_org.svg" target="_base">
           <rect id="button" ry="5" rx="5" y="6" x="6" height="38" width="38"
                fill="#f2f5e9" fill-opacity="0.5" stroke="#606060" stroke-width="1.0"/>
           <path id="arrow"
             d="M 11.500037,31.436501 C 11.940474,20.09759 22.043105,11.32322 32.158766,21.979434 L 37.068811,17.246167 C 37.068811,17.246167 37.088388,32 37.088388,32 L 22.160133,31.978069 C 22.160133,31.978069 26.997745,27.140456 26.997745,27.140456 C 18.528582,18.264221 13.291696,25.230495 11.500037,31.436501 z"
             style="fill:#404040;"/>
          </a>
         </g>
        </svg>
</svg>
