<?xml version="1.0" encoding="UTF-8" standalone="no"?>
<!DOCTYPE svg PUBLIC "-//W3C//DTD SVG 1.1//EN"
 "http://www.w3.org/Graphics/SVG/1.1/DTD/svg11.dtd">
<!-- Generated by graphviz version 2.43.0 (0)
 -->
<!-- Title: src/main.cpp Pages: 1 -->
<svg width="1734pt" height="397pt"
 viewBox="0.00 0.00 1734.00 397.00" xmlns="http://www.w3.org/2000/svg" xmlns:xlink="http://www.w3.org/1999/xlink">
<g id="graph0" class="graph" transform="scale(1 1) rotate(0) translate(4 393)">
<title>src/main.cpp</title>
<!-- Node1 -->
<g id="node1" class="node">
<title>Node1</title>
<g id="a_node1"><a xlink:title=" ">
<polygon fill="#bfbfbf" stroke="black" points="1141.5,-369.5 1141.5,-388.5 1220.5,-388.5 1220.5,-369.5 1141.5,-369.5"/>
<text text-anchor="middle" x="1181" y="-376.5" font-family="Helvetica,sans-Serif" font-size="10.00">src/main.cpp</text>
</a>
</g>
</g>
<!-- Node2 -->
<g id="node2" class="node">
<title>Node2</title>
<g id="a_node2"><a xlink:href="main__window_8h.html" target="_top" xlink:title=" ">
<polygon fill="none" stroke="black" points="1063.5,-302.5 1063.5,-332.5 1182.5,-332.5 1182.5,-302.5 1063.5,-302.5"/>
<text text-anchor="start" x="1071.5" y="-320.5" font-family="Helvetica,sans-Serif" font-size="10.00">src/gui/main_window</text>
<text text-anchor="middle" x="1123" y="-309.5" font-family="Helvetica,sans-Serif" font-size="10.00">/main_window.h</text>
</a>
</g>
</g>
<!-- Node1&#45;&gt;Node2 -->
<g id="edge1" class="edge">
<title>Node1&#45;&gt;Node2</title>
<path fill="none" stroke="midnightblue" d="M1172.69,-369.48C1165.2,-361.79 1153.87,-350.17 1143.92,-339.96"/>
<polygon fill="midnightblue" stroke="midnightblue" points="1146.16,-337.24 1136.67,-332.52 1141.14,-342.13 1146.16,-337.24"/>
</g>
<!-- Node38 -->
<g id="node38" class="node">
<title>Node38</title>
<g id="a_node38"><a xlink:title=" ">
<polygon fill="none" stroke="#bfbfbf" points="1200.5,-308 1200.5,-327 1279.5,-327 1279.5,-308 1200.5,-308"/>
<text text-anchor="middle" x="1240" y="-315" font-family="Helvetica,sans-Serif" font-size="10.00">QApplication</text>
</a>
</g>
</g>
<!-- Node1&#45;&gt;Node38 -->
<g id="edge55" class="edge">
<title>Node1&#45;&gt;Node38</title>
<path fill="none" stroke="midnightblue" d="M1189.45,-369.48C1198.57,-360.28 1213.27,-345.46 1224.48,-334.16"/>
<polygon fill="midnightblue" stroke="midnightblue" points="1227.01,-336.57 1231.56,-327.01 1222.04,-331.65 1227.01,-336.57"/>
</g>
<!-- Node3 -->
<g id="node3" class="node">
<title>Node3</title>
<g id="a_node3"><a xlink:title=" ">
<polygon fill="none" stroke="#bfbfbf" points="465.5,-246.5 465.5,-265.5 552.5,-265.5 552.5,-246.5 465.5,-246.5"/>
<text text-anchor="middle" x="509" y="-253.5" font-family="Helvetica,sans-Serif" font-size="10.00">QMainWindow</text>
</a>
</g>
</g>
<!-- Node2&#45;&gt;Node3 -->
<g id="edge2" class="edge">
<title>Node2&#45;&gt;Node3</title>
<path fill="none" stroke="midnightblue" d="M1063.46,-312.68C962.63,-305.88 751.66,-290.18 562.75,-265.99"/>
<polygon fill="midnightblue" stroke="midnightblue" points="563,-262.5 552.63,-264.69 562.1,-269.44 563,-262.5"/>
</g>
<!-- Node4 -->
<g id="node4" class="node">
<title>Node4</title>
<g id="a_node4"><a xlink:title=" ">
<polygon fill="none" stroke="#bfbfbf" points="570.5,-246.5 570.5,-265.5 667.5,-265.5 667.5,-246.5 570.5,-246.5"/>
<text text-anchor="middle" x="619" y="-253.5" font-family="Helvetica,sans-Serif" font-size="10.00">QStackedWidget</text>
</a>
</g>
</g>
<!-- Node2&#45;&gt;Node4 -->
<g id="edge3" class="edge">
<title>Node2&#45;&gt;Node4</title>
<path fill="none" stroke="midnightblue" d="M1063.38,-310.21C978.56,-301.13 818.24,-283.53 682,-266 680.71,-265.83 679.4,-265.66 678.08,-265.49"/>
<polygon fill="midnightblue" stroke="midnightblue" points="678.2,-261.97 667.82,-264.11 677.27,-268.91 678.2,-261.97"/>
</g>
<!-- Node5 -->
<g id="node5" class="node">
<title>Node5</title>
<g id="a_node5"><a xlink:title=" ">
<polygon fill="none" stroke="#bfbfbf" points="65.5,-118 65.5,-137 118.5,-137 118.5,-118 65.5,-118"/>
<text text-anchor="middle" x="92" y="-125" font-family="Helvetica,sans-Serif" font-size="10.00">QString</text>
</a>
</g>
</g>
<!-- Node2&#45;&gt;Node5 -->
<g id="edge4" class="edge">
<title>Node2&#45;&gt;Node5</title>
<path fill="none" stroke="midnightblue" d="M1063.27,-306.88C862.27,-274.41 217.86,-169.39 127,-143 124.71,-142.33 122.36,-141.57 120.03,-140.74"/>
<polygon fill="midnightblue" stroke="midnightblue" points="121.21,-137.44 110.62,-137.1 118.68,-143.97 121.21,-137.44"/>
</g>
<!-- Node6 -->
<g id="node6" class="node">
<title>Node6</title>
<g id="a_node6"><a xlink:title=" ">
<polygon fill="none" stroke="#bfbfbf" points="1410.5,-0.5 1410.5,-19.5 1465.5,-19.5 1465.5,-0.5 1410.5,-0.5"/>
<text text-anchor="middle" x="1438" y="-7.5" font-family="Helvetica,sans-Serif" font-size="10.00">QVector</text>
</a>
</g>
</g>
<!-- Node2&#45;&gt;Node6 -->
<g id="edge5" class="edge">
<title>Node2&#45;&gt;Node6</title>
<path fill="none" stroke="midnightblue" d="M1182.63,-304.09C1224.07,-294.92 1280.38,-281.4 1329,-266 1410.9,-240.05 1509,-281.42 1509,-195.5 1509,-195.5 1509,-195.5 1509,-126.5 1509,-85.8 1476.61,-47.39 1455.58,-26.74"/>
<polygon fill="midnightblue" stroke="midnightblue" points="1457.84,-24.06 1448.17,-19.73 1453.03,-29.15 1457.84,-24.06"/>
</g>
<!-- Node7 -->
<g id="node7" class="node">
<title>Node7</title>
<g id="a_node7"><a xlink:href="constants_8h.html" target="_top" xlink:title=" ">
<polygon fill="none" stroke="black" points="1323,-56.5 1323,-75.5 1413,-75.5 1413,-56.5 1323,-56.5"/>
<text text-anchor="middle" x="1368" y="-63.5" font-family="Helvetica,sans-Serif" font-size="10.00">src/constants.h</text>
</a>
</g>
</g>
<!-- Node2&#45;&gt;Node7 -->
<g id="edge6" class="edge">
<title>Node2&#45;&gt;Node7</title>
<path fill="none" stroke="midnightblue" d="M1143.45,-302.49C1191.94,-268.9 1311.86,-183.58 1339,-143 1350.99,-125.07 1359,-101.48 1363.51,-85.37"/>
<polygon fill="midnightblue" stroke="midnightblue" points="1366.92,-86.13 1366.07,-75.57 1360.15,-84.35 1366.92,-86.13"/>
</g>
<!-- Node8 -->
<g id="node8" class="node">
<title>Node8</title>
<g id="a_node8"><a xlink:href="screen__game_8h.html" target="_top" xlink:title=" ">
<polygon fill="none" stroke="black" points="724.5,-179.5 724.5,-209.5 841.5,-209.5 841.5,-179.5 724.5,-179.5"/>
<text text-anchor="start" x="732.5" y="-197.5" font-family="Helvetica,sans-Serif" font-size="10.00">src/gui/screen_game</text>
<text text-anchor="middle" x="783" y="-186.5" font-family="Helvetica,sans-Serif" font-size="10.00">/screen_game.h</text>
</a>
</g>
</g>
<!-- Node2&#45;&gt;Node8 -->
<g id="edge8" class="edge">
<title>Node2&#45;&gt;Node8</title>
<path fill="none" stroke="midnightblue" d="M1083.33,-302.38C1020.89,-280.16 899.81,-237.07 832.02,-212.94"/>
<polygon fill="midnightblue" stroke="midnightblue" points="833.01,-209.58 822.42,-209.53 830.66,-216.18 833.01,-209.58"/>
</g>
<!-- Node28 -->
<g id="node28" class="node">
<title>Node28</title>
<g id="a_node28"><a xlink:href="screen__liderboard_8h.html" target="_top" xlink:title=" ">
<polygon fill="none" stroke="black" points="984.5,-179.5 984.5,-209.5 1123.5,-209.5 1123.5,-179.5 984.5,-179.5"/>
<text text-anchor="start" x="992.5" y="-197.5" font-family="Helvetica,sans-Serif" font-size="10.00">src/gui/screen_liderboard</text>
<text text-anchor="middle" x="1054" y="-186.5" font-family="Helvetica,sans-Serif" font-size="10.00">/screen_liderboard.h</text>
</a>
</g>
</g>
<!-- Node2&#45;&gt;Node28 -->
<g id="edge34" class="edge">
<title>Node2&#45;&gt;Node28</title>
<path fill="none" stroke="midnightblue" d="M1114.81,-302.14C1103.04,-281.5 1081.19,-243.19 1067.14,-218.55"/>
<polygon fill="midnightblue" stroke="midnightblue" points="1070.17,-216.79 1062.18,-209.84 1064.09,-220.26 1070.17,-216.79"/>
</g>
<!-- Node29 -->
<g id="node29" class="node">
<title>Node29</title>
<g id="a_node29"><a xlink:href="screen__menu_8h.html" target="_top" xlink:title=" ">
<polygon fill="none" stroke="black" points="1141.5,-179.5 1141.5,-209.5 1258.5,-209.5 1258.5,-179.5 1141.5,-179.5"/>
<text text-anchor="start" x="1149.5" y="-197.5" font-family="Helvetica,sans-Serif" font-size="10.00">src/gui/screen_menu</text>
<text text-anchor="middle" x="1200" y="-186.5" font-family="Helvetica,sans-Serif" font-size="10.00">/screen_menu.h</text>
</a>
</g>
</g>
<!-- Node2&#45;&gt;Node29 -->
<g id="edge37" class="edge">
<title>Node2&#45;&gt;Node29</title>
<path fill="none" stroke="midnightblue" d="M1132.14,-302.14C1145.28,-281.5 1169.65,-243.19 1185.33,-218.55"/>
<polygon fill="midnightblue" stroke="midnightblue" points="1188.46,-220.15 1190.88,-209.84 1182.55,-216.39 1188.46,-220.15"/>
</g>
<!-- Node30 -->
<g id="node30" class="node">
<title>Node30</title>
<g id="a_node30"><a xlink:href="screen__settings_8h.html" target="_top" xlink:title=" ">
<polygon fill="none" stroke="black" points="1315,-179.5 1315,-209.5 1443,-209.5 1443,-179.5 1315,-179.5"/>
<text text-anchor="start" x="1323" y="-197.5" font-family="Helvetica,sans-Serif" font-size="10.00">src/gui/screen_settings</text>
<text text-anchor="middle" x="1379" y="-186.5" font-family="Helvetica,sans-Serif" font-size="10.00">/screen_settings.h</text>
</a>
</g>
</g>
<!-- Node2&#45;&gt;Node30 -->
<g id="edge40" class="edge">
<title>Node2&#45;&gt;Node30</title>
<path fill="none" stroke="midnightblue" d="M1182.88,-302.61C1226.23,-291.98 1280.63,-277.28 1301,-266 1323.71,-253.43 1345.26,-233.07 1359.93,-217.45"/>
<polygon fill="midnightblue" stroke="midnightblue" points="1362.77,-219.52 1366.94,-209.78 1357.61,-214.8 1362.77,-219.52"/>
</g>
<!-- Node31 -->
<g id="node31" class="node">
<title>Node31</title>
<g id="a_node31"><a xlink:href="engine_8h.html" target="_top" xlink:title=" ">
<polygon fill="none" stroke="black" points="1537,-246.5 1537,-265.5 1675,-265.5 1675,-246.5 1537,-246.5"/>
<text text-anchor="middle" x="1606" y="-253.5" font-family="Helvetica,sans-Serif" font-size="10.00">src/logic/engine/engine.h</text>
</a>
</g>
</g>
<!-- Node2&#45;&gt;Node31 -->
<g id="edge43" class="edge">
<title>Node2&#45;&gt;Node31</title>
<path fill="none" stroke="midnightblue" d="M1182.77,-303.56C1185.89,-303.01 1188.98,-302.48 1192,-302 1193.03,-301.84 1406.76,-278.63 1526.68,-265.61"/>
<polygon fill="midnightblue" stroke="midnightblue" points="1527.36,-269.06 1536.92,-264.5 1526.6,-262.1 1527.36,-269.06"/>
</g>
<!-- Node7&#45;&gt;Node6 -->
<g id="edge7" class="edge">
<title>Node7&#45;&gt;Node6</title>
<path fill="none" stroke="midnightblue" d="M1379.25,-56.32C1389.8,-48.18 1405.8,-35.84 1418.44,-26.09"/>
<polygon fill="midnightblue" stroke="midnightblue" points="1420.77,-28.71 1426.55,-19.83 1416.49,-23.17 1420.77,-28.71"/>
</g>
<!-- Node8&#45;&gt;Node5 -->
<g id="edge14" class="edge">
<title>Node8&#45;&gt;Node5</title>
<path fill="none" stroke="midnightblue" d="M724.15,-181.1C719.37,-180.31 714.61,-179.6 710,-179 452.55,-145.64 379.93,-201.48 127,-143 124.33,-142.38 121.6,-141.58 118.9,-140.67"/>
<polygon fill="midnightblue" stroke="midnightblue" points="120.02,-137.35 109.43,-137.05 117.52,-143.89 120.02,-137.35"/>
</g>
<!-- Node8&#45;&gt;Node7 -->
<g id="edge17" class="edge">
<title>Node8&#45;&gt;Node7</title>
<path fill="none" stroke="midnightblue" d="M841.82,-189.94C932.71,-183.7 1102.5,-168.94 1157,-143 1175.17,-134.35 1172.35,-121.66 1190,-112 1228.21,-91.08 1276.34,-79.67 1312.92,-73.58"/>
<polygon fill="midnightblue" stroke="midnightblue" points="1313.58,-77.02 1322.92,-72 1312.49,-70.11 1313.58,-77.02"/>
</g>
<!-- Node9 -->
<g id="node9" class="node">
<title>Node9</title>
<g id="a_node9"><a xlink:title=" ">
<polygon fill="none" stroke="#bfbfbf" points="716,-118 716,-137 850,-137 850,-118 716,-118"/>
<text text-anchor="middle" x="783" y="-125" font-family="Helvetica,sans-Serif" font-size="10.00">QGraphicsColorizeEffect</text>
</a>
</g>
</g>
<!-- Node8&#45;&gt;Node9 -->
<g id="edge9" class="edge">
<title>Node8&#45;&gt;Node9</title>
<path fill="none" stroke="midnightblue" d="M783,-179.4C783,-170.06 783,-157.71 783,-147.52"/>
<polygon fill="midnightblue" stroke="midnightblue" points="786.5,-147.19 783,-137.19 779.5,-147.19 786.5,-147.19"/>
</g>
<!-- Node10 -->
<g id="node10" class="node">
<title>Node10</title>
<g id="a_node10"><a xlink:title=" ">
<polygon fill="none" stroke="#bfbfbf" points="868,-118 868,-137 990,-137 990,-118 868,-118"/>
<text text-anchor="middle" x="929" y="-125" font-family="Helvetica,sans-Serif" font-size="10.00">QGraphicsEllipseItem</text>
</a>
</g>
</g>
<!-- Node8&#45;&gt;Node10 -->
<g id="edge10" class="edge">
<title>Node8&#45;&gt;Node10</title>
<path fill="none" stroke="midnightblue" d="M814.68,-179.4C840.3,-167.99 876.04,-152.08 900.7,-141.1"/>
<polygon fill="midnightblue" stroke="midnightblue" points="902.18,-144.27 909.89,-137.01 899.33,-137.88 902.18,-144.27"/>
</g>
<!-- Node11 -->
<g id="node11" class="node">
<title>Node11</title>
<g id="a_node11"><a xlink:title=" ">
<polygon fill="none" stroke="#bfbfbf" points="1008,-118 1008,-137 1148,-137 1148,-118 1008,-118"/>
<text text-anchor="middle" x="1078" y="-125" font-family="Helvetica,sans-Serif" font-size="10.00">QGraphicsItemAnimation</text>
</a>
</g>
</g>
<!-- Node8&#45;&gt;Node11 -->
<g id="edge11" class="edge">
<title>Node8&#45;&gt;Node11</title>
<path fill="none" stroke="midnightblue" d="M841.64,-180.58C896.61,-168.47 977.85,-150.57 1029.33,-139.22"/>
<polygon fill="midnightblue" stroke="midnightblue" points="1030.2,-142.62 1039.22,-137.05 1028.7,-135.78 1030.2,-142.62"/>
</g>
<!-- Node12 -->
<g id="node12" class="node">
<title>Node12</title>
<g id="a_node12"><a xlink:title=" ">
<polygon fill="none" stroke="#bfbfbf" points="243,-56.5 243,-75.5 339,-75.5 339,-56.5 243,-56.5"/>
<text text-anchor="middle" x="291" y="-63.5" font-family="Helvetica,sans-Serif" font-size="10.00">QGraphicsScene</text>
</a>
</g>
</g>
<!-- Node8&#45;&gt;Node12 -->
<g id="edge12" class="edge">
<title>Node8&#45;&gt;Node12</title>
<path fill="none" stroke="midnightblue" d="M724.13,-181.25C719.36,-180.42 714.6,-179.66 710,-179 621.22,-166.24 375.43,-202.14 308,-143 291.99,-128.96 289.25,-103.43 289.5,-85.86"/>
<polygon fill="midnightblue" stroke="midnightblue" points="293.01,-85.82 290,-75.67 286.02,-85.48 293.01,-85.82"/>
</g>
<!-- Node13 -->
<g id="node13" class="node">
<title>Node13</title>
<g id="a_node13"><a xlink:title=" ">
<polygon fill="none" stroke="#bfbfbf" points="526.5,-56.5 526.5,-75.5 633.5,-75.5 633.5,-56.5 526.5,-56.5"/>
<text text-anchor="middle" x="580" y="-63.5" font-family="Helvetica,sans-Serif" font-size="10.00">QGraphicsSvgItem</text>
</a>
</g>
</g>
<!-- Node8&#45;&gt;Node13 -->
<g id="edge13" class="edge">
<title>Node8&#45;&gt;Node13</title>
<path fill="none" stroke="midnightblue" d="M724.34,-181.39C663.3,-168.51 575.86,-149.15 571,-143 558.04,-126.59 564.41,-101.64 571.25,-84.85"/>
<polygon fill="midnightblue" stroke="midnightblue" points="574.5,-86.16 575.39,-75.6 568.11,-83.29 574.5,-86.16"/>
</g>
<!-- Node14 -->
<g id="node14" class="node">
<title>Node14</title>
<g id="a_node14"><a xlink:title=" ">
<polygon fill="none" stroke="#bfbfbf" points="317.5,-118 317.5,-137 386.5,-137 386.5,-118 317.5,-118"/>
<text text-anchor="middle" x="352" y="-125" font-family="Helvetica,sans-Serif" font-size="10.00">QTimeLine</text>
</a>
</g>
</g>
<!-- Node8&#45;&gt;Node14 -->
<g id="edge15" class="edge">
<title>Node8&#45;&gt;Node14</title>
<path fill="none" stroke="midnightblue" d="M724.11,-181.37C719.34,-180.52 714.6,-179.72 710,-179 570.78,-157.26 532.53,-173.68 395,-143 391.51,-142.22 387.91,-141.26 384.34,-140.21"/>
<polygon fill="midnightblue" stroke="midnightblue" points="385.1,-136.78 374.51,-137.09 382.98,-143.45 385.1,-136.78"/>
</g>
<!-- Node15 -->
<g id="node15" class="node">
<title>Node15</title>
<g id="a_node15"><a xlink:title=" ">
<polygon fill="none" stroke="#bfbfbf" points="1242.5,-118 1242.5,-137 1301.5,-137 1301.5,-118 1242.5,-118"/>
<text text-anchor="middle" x="1272" y="-125" font-family="Helvetica,sans-Serif" font-size="10.00">QWidget</text>
</a>
</g>
</g>
<!-- Node8&#45;&gt;Node15 -->
<g id="edge16" class="edge">
<title>Node8&#45;&gt;Node15</title>
<path fill="none" stroke="midnightblue" d="M841.77,-187.17C921.01,-178.42 1066.43,-161.58 1190,-143 1203.9,-140.91 1219.07,-138.32 1232.54,-135.9"/>
<polygon fill="midnightblue" stroke="midnightblue" points="1233.24,-139.33 1242.46,-134.1 1231.99,-132.44 1233.24,-139.33"/>
</g>
<!-- Node16 -->
<g id="node16" class="node">
<title>Node16</title>
<g id="a_node16"><a xlink:href="gui__scene_8h.html" target="_top" xlink:title=" ">
<polygon fill="none" stroke="black" points="404.5,-112.5 404.5,-142.5 523.5,-142.5 523.5,-112.5 404.5,-112.5"/>
<text text-anchor="start" x="412.5" y="-130.5" font-family="Helvetica,sans-Serif" font-size="10.00">src/gui/gui_scene/gui</text>
<text text-anchor="middle" x="464" y="-119.5" font-family="Helvetica,sans-Serif" font-size="10.00">_scene.h</text>
</a>
</g>
</g>
<!-- Node8&#45;&gt;Node16 -->
<g id="edge18" class="edge">
<title>Node8&#45;&gt;Node16</title>
<path fill="none" stroke="midnightblue" d="M724.49,-181.58C670.7,-170.62 590.88,-154.35 533.79,-142.72"/>
<polygon fill="midnightblue" stroke="midnightblue" points="534.26,-139.24 523.76,-140.68 532.86,-146.1 534.26,-139.24"/>
</g>
<!-- Node21 -->
<g id="node21" class="node">
<title>Node21</title>
<g id="a_node21"><a xlink:href="gui__advantage__bar_8h.html" target="_top" xlink:title=" ">
<polygon fill="none" stroke="black" points="136.5,-112.5 136.5,-142.5 257.5,-142.5 257.5,-112.5 136.5,-112.5"/>
<text text-anchor="start" x="144.5" y="-130.5" font-family="Helvetica,sans-Serif" font-size="10.00">src/gui/screen_game</text>
<text text-anchor="middle" x="197" y="-119.5" font-family="Helvetica,sans-Serif" font-size="10.00">/gui_advantage_bar.h</text>
</a>
</g>
</g>
<!-- Node8&#45;&gt;Node21 -->
<g id="edge24" class="edge">
<title>Node8&#45;&gt;Node21</title>
<path fill="none" stroke="midnightblue" d="M724.13,-181.21C719.36,-180.4 714.61,-179.65 710,-179 517.89,-152.06 467.28,-168.76 275,-143 272.64,-142.68 270.24,-142.34 267.82,-141.99"/>
<polygon fill="midnightblue" stroke="midnightblue" points="268.22,-138.5 257.8,-140.42 267.13,-145.42 268.22,-138.5"/>
</g>
<!-- Node25 -->
<g id="node25" class="node">
<title>Node25</title>
<g id="a_node25"><a xlink:href="gui__figure_8h.html" target="_top" xlink:title=" ">
<polygon fill="none" stroke="black" points="580.5,-112.5 580.5,-142.5 697.5,-142.5 697.5,-112.5 580.5,-112.5"/>
<text text-anchor="start" x="588.5" y="-130.5" font-family="Helvetica,sans-Serif" font-size="10.00">src/gui/screen_game</text>
<text text-anchor="middle" x="639" y="-119.5" font-family="Helvetica,sans-Serif" font-size="10.00">/gui_figure.h</text>
</a>
</g>
</g>
<!-- Node8&#45;&gt;Node25 -->
<g id="edge28" class="edge">
<title>Node8&#45;&gt;Node25</title>
<path fill="none" stroke="midnightblue" d="M751.75,-179.4C730.53,-169.81 702.25,-157.05 679.32,-146.7"/>
<polygon fill="midnightblue" stroke="midnightblue" points="680.74,-143.5 670.18,-142.58 677.86,-149.88 680.74,-143.5"/>
</g>
<!-- Node16&#45;&gt;Node12 -->
<g id="edge19" class="edge">
<title>Node16&#45;&gt;Node12</title>
<path fill="none" stroke="midnightblue" d="M423,-112.4C393.37,-102.21 353.77,-88.59 325.7,-78.93"/>
<polygon fill="midnightblue" stroke="midnightblue" points="326.52,-75.51 315.92,-75.57 324.24,-82.13 326.52,-75.51"/>
</g>
<!-- Node17 -->
<g id="node17" class="node">
<title>Node17</title>
<g id="a_node17"><a xlink:title=" ">
<polygon fill="none" stroke="#bfbfbf" points="425,-56.5 425,-75.5 509,-75.5 509,-56.5 425,-56.5"/>
<text text-anchor="middle" x="467" y="-63.5" font-family="Helvetica,sans-Serif" font-size="10.00">QMouseEvent</text>
</a>
</g>
</g>
<!-- Node16&#45;&gt;Node17 -->
<g id="edge20" class="edge">
<title>Node16&#45;&gt;Node17</title>
<path fill="none" stroke="midnightblue" d="M464.71,-112.4C465.11,-104.47 465.62,-94.46 466.05,-85.86"/>
<polygon fill="midnightblue" stroke="midnightblue" points="469.56,-85.82 466.56,-75.66 462.56,-85.47 469.56,-85.82"/>
</g>
<!-- Node18 -->
<g id="node18" class="node">
<title>Node18</title>
<g id="a_node18"><a xlink:title=" ">
<polygon fill="none" stroke="#bfbfbf" points="357.5,-56.5 357.5,-75.5 406.5,-75.5 406.5,-56.5 357.5,-56.5"/>
<text text-anchor="middle" x="382" y="-63.5" font-family="Helvetica,sans-Serif" font-size="10.00">QPoint</text>
</a>
</g>
</g>
<!-- Node16&#45;&gt;Node18 -->
<g id="edge21" class="edge">
<title>Node16&#45;&gt;Node18</title>
<path fill="none" stroke="midnightblue" d="M444.57,-112.4C431.79,-103.13 415.11,-91.03 402.19,-81.65"/>
<polygon fill="midnightblue" stroke="midnightblue" points="404.08,-78.7 393.93,-75.66 399.97,-84.36 404.08,-78.7"/>
</g>
<!-- Node19 -->
<g id="node19" class="node">
<title>Node19</title>
<g id="a_node19"><a xlink:href="utils_8h.html" target="_top" xlink:title=" ">
<polygon fill="none" stroke="black" points="756,-56.5 756,-75.5 820,-75.5 820,-56.5 756,-56.5"/>
<text text-anchor="middle" x="788" y="-63.5" font-family="Helvetica,sans-Serif" font-size="10.00">src/utils.h</text>
</a>
</g>
</g>
<!-- Node16&#45;&gt;Node19 -->
<g id="edge22" class="edge">
<title>Node16&#45;&gt;Node19</title>
<path fill="none" stroke="midnightblue" d="M523.76,-116.54C578.88,-107.2 663.24,-92.49 745.75,-76.19"/>
<polygon fill="midnightblue" stroke="midnightblue" points="746.67,-79.58 755.8,-74.19 745.31,-72.71 746.67,-79.58"/>
</g>
<!-- Node20 -->
<g id="node20" class="node">
<title>Node20</title>
<g id="a_node20"><a xlink:title=" ">
<polygon fill="none" stroke="#bfbfbf" points="765.5,-0.5 765.5,-19.5 810.5,-19.5 810.5,-0.5 765.5,-0.5"/>
<text text-anchor="middle" x="788" y="-7.5" font-family="Helvetica,sans-Serif" font-size="10.00">utility</text>
</a>
</g>
</g>
<!-- Node19&#45;&gt;Node20 -->
<g id="edge23" class="edge">
<title>Node19&#45;&gt;Node20</title>
<path fill="none" stroke="midnightblue" d="M788,-56.08C788,-49.01 788,-38.86 788,-29.99"/>
<polygon fill="midnightblue" stroke="midnightblue" points="791.5,-29.75 788,-19.75 784.5,-29.75 791.5,-29.75"/>
</g>
<!-- Node22 -->
<g id="node22" class="node">
<title>Node22</title>
<g id="a_node22"><a xlink:title=" ">
<polygon fill="none" stroke="#bfbfbf" points="60.5,-56.5 60.5,-75.5 149.5,-75.5 149.5,-56.5 60.5,-56.5"/>
<text text-anchor="middle" x="105" y="-63.5" font-family="Helvetica,sans-Serif" font-size="10.00">QGraphicsItem</text>
</a>
</g>
</g>
<!-- Node21&#45;&gt;Node22 -->
<g id="edge25" class="edge">
<title>Node21&#45;&gt;Node22</title>
<path fill="none" stroke="midnightblue" d="M175.2,-112.4C160.59,-102.95 141.43,-90.56 126.82,-81.11"/>
<polygon fill="midnightblue" stroke="midnightblue" points="128.68,-78.15 118.39,-75.66 124.88,-84.03 128.68,-78.15"/>
</g>
<!-- Node23 -->
<g id="node23" class="node">
<title>Node23</title>
<g id="a_node23"><a xlink:title=" ">
<polygon fill="none" stroke="#bfbfbf" points="167,-56.5 167,-75.5 225,-75.5 225,-56.5 167,-56.5"/>
<text text-anchor="middle" x="196" y="-63.5" font-family="Helvetica,sans-Serif" font-size="10.00">QPainter</text>
</a>
</g>
</g>
<!-- Node21&#45;&gt;Node23 -->
<g id="edge26" class="edge">
<title>Node21&#45;&gt;Node23</title>
<path fill="none" stroke="midnightblue" d="M196.76,-112.4C196.63,-104.47 196.46,-94.46 196.32,-85.86"/>
<polygon fill="midnightblue" stroke="midnightblue" points="199.81,-85.6 196.15,-75.66 192.81,-85.72 199.81,-85.6"/>
</g>
<!-- Node24 -->
<g id="node24" class="node">
<title>Node24</title>
<g id="a_node24"><a xlink:title=" ">
<polygon fill="none" stroke="#bfbfbf" points="0,-56.5 0,-75.5 42,-75.5 42,-56.5 0,-56.5"/>
<text text-anchor="middle" x="21" y="-63.5" font-family="Helvetica,sans-Serif" font-size="10.00">QPen</text>
</a>
</g>
</g>
<!-- Node21&#45;&gt;Node24 -->
<g id="edge27" class="edge">
<title>Node21&#45;&gt;Node24</title>
<path fill="none" stroke="midnightblue" d="M155.29,-112.4C123.46,-101.64 80.35,-87.06 51.65,-77.36"/>
<polygon fill="midnightblue" stroke="midnightblue" points="52.73,-74.03 42.14,-74.15 50.49,-80.66 52.73,-74.03"/>
</g>
<!-- Node25&#45;&gt;Node7 -->
<g id="edge32" class="edge">
<title>Node25&#45;&gt;Node7</title>
<path fill="none" stroke="midnightblue" d="M697.51,-113.47C700.71,-112.93 703.89,-112.43 707,-112 930.14,-80.78 1198.81,-70.99 1312.68,-68.11"/>
<polygon fill="midnightblue" stroke="midnightblue" points="1312.98,-71.61 1322.89,-67.86 1312.81,-64.61 1312.98,-71.61"/>
</g>
<!-- Node25&#45;&gt;Node13 -->
<g id="edge30" class="edge">
<title>Node25&#45;&gt;Node13</title>
<path fill="none" stroke="midnightblue" d="M625.02,-112.4C616.27,-103.58 604.97,-92.18 595.88,-83.02"/>
<polygon fill="midnightblue" stroke="midnightblue" points="598.11,-80.29 588.59,-75.66 593.14,-85.22 598.11,-80.29"/>
</g>
<!-- Node25&#45;&gt;Node19 -->
<g id="edge33" class="edge">
<title>Node25&#45;&gt;Node19</title>
<path fill="none" stroke="midnightblue" d="M674.31,-112.4C699.42,-102.37 732.84,-89.03 756.94,-79.4"/>
<polygon fill="midnightblue" stroke="midnightblue" points="758.33,-82.62 766.32,-75.66 755.73,-76.12 758.33,-82.62"/>
</g>
<!-- Node26 -->
<g id="node26" class="node">
<title>Node26</title>
<g id="a_node26"><a xlink:title=" ">
<polygon fill="none" stroke="#bfbfbf" points="838,-56.5 838,-75.5 994,-75.5 994,-56.5 838,-56.5"/>
<text text-anchor="middle" x="916" y="-63.5" font-family="Helvetica,sans-Serif" font-size="10.00">QGraphicsSceneMouseEvent</text>
</a>
</g>
</g>
<!-- Node25&#45;&gt;Node26 -->
<g id="edge29" class="edge">
<title>Node25&#45;&gt;Node26</title>
<path fill="none" stroke="midnightblue" d="M697.74,-113.88C747.75,-103.14 818.81,-87.88 866.1,-77.72"/>
<polygon fill="midnightblue" stroke="midnightblue" points="867.07,-81.09 876.11,-75.57 865.6,-74.25 867.07,-81.09"/>
</g>
<!-- Node27 -->
<g id="node27" class="node">
<title>Node27</title>
<g id="a_node27"><a xlink:title=" ">
<polygon fill="none" stroke="#bfbfbf" points="652,-56.5 652,-75.5 738,-75.5 738,-56.5 652,-56.5"/>
<text text-anchor="middle" x="695" y="-63.5" font-family="Helvetica,sans-Serif" font-size="10.00">QSvgRenderer</text>
</a>
</g>
</g>
<!-- Node25&#45;&gt;Node27 -->
<g id="edge31" class="edge">
<title>Node25&#45;&gt;Node27</title>
<path fill="none" stroke="midnightblue" d="M652.27,-112.4C660.58,-103.58 671.3,-92.18 679.92,-83.02"/>
<polygon fill="midnightblue" stroke="midnightblue" points="682.55,-85.34 686.85,-75.66 677.45,-80.54 682.55,-85.34"/>
</g>
<!-- Node28&#45;&gt;Node7 -->
<g id="edge36" class="edge">
<title>Node28&#45;&gt;Node7</title>
<path fill="none" stroke="midnightblue" d="M1100.92,-179.41C1127.74,-170.55 1161.59,-157.96 1190,-143 1211.17,-131.85 1212.66,-122.81 1234,-112 1262.73,-97.45 1297.22,-85.99 1324.01,-78.28"/>
<polygon fill="midnightblue" stroke="midnightblue" points="1325.19,-81.58 1333.88,-75.51 1323.3,-74.84 1325.19,-81.58"/>
</g>
<!-- Node28&#45;&gt;Node15 -->
<g id="edge35" class="edge">
<title>Node28&#45;&gt;Node15</title>
<path fill="none" stroke="midnightblue" d="M1104.02,-179.5C1138.87,-169.61 1186.39,-155.89 1228,-143 1230.9,-142.1 1233.91,-141.15 1236.92,-140.19"/>
<polygon fill="midnightblue" stroke="midnightblue" points="1238.03,-143.51 1246.46,-137.09 1235.86,-136.85 1238.03,-143.51"/>
</g>
<!-- Node29&#45;&gt;Node7 -->
<g id="edge39" class="edge">
<title>Node29&#45;&gt;Node7</title>
<path fill="none" stroke="midnightblue" d="M1243.66,-179.47C1265.36,-171.11 1291.12,-158.98 1311,-143 1331.42,-126.59 1348.44,-101.29 1358.42,-84.44"/>
<polygon fill="midnightblue" stroke="midnightblue" points="1361.53,-86.05 1363.46,-75.63 1355.46,-82.58 1361.53,-86.05"/>
</g>
<!-- Node29&#45;&gt;Node15 -->
<g id="edge38" class="edge">
<title>Node29&#45;&gt;Node15</title>
<path fill="none" stroke="midnightblue" d="M1215.62,-179.4C1227.18,-168.96 1242.92,-154.75 1254.83,-144"/>
<polygon fill="midnightblue" stroke="midnightblue" points="1257.29,-146.49 1262.37,-137.19 1252.6,-141.3 1257.29,-146.49"/>
</g>
<!-- Node30&#45;&gt;Node7 -->
<g id="edge42" class="edge">
<title>Node30&#45;&gt;Node7</title>
<path fill="none" stroke="midnightblue" d="M1381.12,-179.27C1383.19,-162.94 1385.55,-135.38 1382,-112 1380.63,-103 1377.81,-93.33 1375.05,-85.26"/>
<polygon fill="midnightblue" stroke="midnightblue" points="1378.31,-83.98 1371.6,-75.78 1371.73,-86.37 1378.31,-83.98"/>
</g>
<!-- Node30&#45;&gt;Node15 -->
<g id="edge41" class="edge">
<title>Node30&#45;&gt;Node15</title>
<path fill="none" stroke="midnightblue" d="M1355.78,-179.4C1337.67,-168.39 1312.66,-153.2 1294.69,-142.28"/>
<polygon fill="midnightblue" stroke="midnightblue" points="1296.37,-139.21 1286,-137.01 1292.73,-145.19 1296.37,-139.21"/>
</g>
<!-- Node31&#45;&gt;Node7 -->
<g id="edge44" class="edge">
<title>Node31&#45;&gt;Node7</title>
<path fill="none" stroke="midnightblue" d="M1595.16,-246.43C1557.83,-216.95 1434.36,-119.42 1386.86,-81.9"/>
<polygon fill="midnightblue" stroke="midnightblue" points="1388.93,-79.07 1378.91,-75.62 1384.59,-84.56 1388.93,-79.07"/>
</g>
<!-- Node32 -->
<g id="node32" class="node">
<title>Node32</title>
<g id="a_node32"><a xlink:href="board_8h.html" target="_top" xlink:title=" ">
<polygon fill="none" stroke="black" points="1631.5,-185 1631.5,-204 1724.5,-204 1724.5,-185 1631.5,-185"/>
<text text-anchor="middle" x="1678" y="-192" font-family="Helvetica,sans-Serif" font-size="10.00">../board/board.h</text>
</a>
</g>
</g>
<!-- Node31&#45;&gt;Node32 -->
<g id="edge45" class="edge">
<title>Node31&#45;&gt;Node32</title>
<path fill="none" stroke="midnightblue" d="M1616.32,-246.48C1627.65,-237.11 1646.07,-221.88 1659.84,-210.51"/>
<polygon fill="midnightblue" stroke="midnightblue" points="1662.22,-213.08 1667.7,-204.01 1657.77,-207.68 1662.22,-213.08"/>
</g>
<!-- Node33 -->
<g id="node33" class="node">
<title>Node33</title>
<g id="a_node33"><a xlink:href="figures_8h.html" target="_top" xlink:title=" ">
<polygon fill="none" stroke="black" points="1537,-118 1537,-137 1641,-137 1641,-118 1537,-118"/>
<text text-anchor="middle" x="1589" y="-125" font-family="Helvetica,sans-Serif" font-size="10.00">../figures/figures.h</text>
</a>
</g>
</g>
<!-- Node31&#45;&gt;Node33 -->
<g id="edge54" class="edge">
<title>Node31&#45;&gt;Node33</title>
<path fill="none" stroke="midnightblue" d="M1604.83,-246.31C1602.1,-225.99 1595.26,-175.05 1591.52,-147.28"/>
<polygon fill="midnightblue" stroke="midnightblue" points="1594.98,-146.7 1590.18,-137.26 1588.04,-147.63 1594.98,-146.7"/>
</g>
<!-- Node32&#45;&gt;Node33 -->
<g id="edge46" class="edge">
<title>Node32&#45;&gt;Node33</title>
<path fill="none" stroke="midnightblue" d="M1666,-184.73C1651.45,-174.11 1626.72,-156.05 1609.22,-143.26"/>
<polygon fill="midnightblue" stroke="midnightblue" points="1610.95,-140.2 1600.81,-137.13 1606.82,-145.85 1610.95,-140.2"/>
</g>
<!-- Node35 -->
<g id="node35" class="node">
<title>Node35</title>
<g id="a_node35"><a xlink:title=" ">
<polygon fill="none" stroke="#bfbfbf" points="1694,-56.5 1694,-75.5 1726,-75.5 1726,-56.5 1694,-56.5"/>
<text text-anchor="middle" x="1710" y="-63.5" font-family="Helvetica,sans-Serif" font-size="10.00">list</text>
</a>
</g>
</g>
<!-- Node32&#45;&gt;Node35 -->
<g id="edge52" class="edge">
<title>Node32&#45;&gt;Node35</title>
<path fill="none" stroke="midnightblue" d="M1687.33,-184.89C1696.65,-175.6 1710.37,-159.86 1716,-143 1722.28,-124.21 1719.17,-101.41 1715.5,-85.72"/>
<polygon fill="midnightblue" stroke="midnightblue" points="1718.79,-84.48 1712.85,-75.7 1712.02,-86.26 1718.79,-84.48"/>
</g>
<!-- Node37 -->
<g id="node37" class="node">
<title>Node37</title>
<g id="a_node37"><a xlink:title=" ">
<polygon fill="none" stroke="#bfbfbf" points="1659.5,-118 1659.5,-137 1706.5,-137 1706.5,-118 1659.5,-118"/>
<text text-anchor="middle" x="1683" y="-125" font-family="Helvetica,sans-Serif" font-size="10.00">vector</text>
</a>
</g>
</g>
<!-- Node32&#45;&gt;Node37 -->
<g id="edge53" class="edge">
<title>Node32&#45;&gt;Node37</title>
<path fill="none" stroke="midnightblue" d="M1678.67,-184.73C1679.41,-175.18 1680.61,-159.62 1681.56,-147.28"/>
<polygon fill="midnightblue" stroke="midnightblue" points="1685.06,-147.37 1682.34,-137.13 1678.08,-146.83 1685.06,-147.37"/>
</g>
<!-- Node33&#45;&gt;Node7 -->
<g id="edge47" class="edge">
<title>Node33&#45;&gt;Node7</title>
<path fill="none" stroke="midnightblue" d="M1557.34,-117.98C1518.44,-107.5 1452.36,-89.71 1409.45,-78.16"/>
<polygon fill="midnightblue" stroke="midnightblue" points="1410.17,-74.73 1399.61,-75.51 1408.35,-81.49 1410.17,-74.73"/>
</g>
<!-- Node33&#45;&gt;Node19 -->
<g id="edge48" class="edge">
<title>Node33&#45;&gt;Node19</title>
<path fill="none" stroke="midnightblue" d="M1536.93,-123.49C1382.65,-114.53 932.74,-87.91 830.18,-75.83"/>
<polygon fill="midnightblue" stroke="midnightblue" points="830.51,-72.34 820.15,-74.53 829.62,-79.29 830.51,-72.34"/>
</g>
<!-- Node34 -->
<g id="node34" class="node">
<title>Node34</title>
<g id="a_node34"><a xlink:title=" ">
<polygon fill="none" stroke="#bfbfbf" points="1550.5,-56.5 1550.5,-75.5 1601.5,-75.5 1601.5,-56.5 1550.5,-56.5"/>
<text text-anchor="middle" x="1576" y="-63.5" font-family="Helvetica,sans-Serif" font-size="10.00">math.h</text>
</a>
</g>
</g>
<!-- Node33&#45;&gt;Node34 -->
<g id="edge49" class="edge">
<title>Node33&#45;&gt;Node34</title>
<path fill="none" stroke="midnightblue" d="M1587.14,-117.98C1585.28,-109.49 1582.38,-96.2 1580,-85.32"/>
<polygon fill="midnightblue" stroke="midnightblue" points="1583.41,-84.53 1577.86,-75.51 1576.57,-86.03 1583.41,-84.53"/>
</g>
<!-- Node33&#45;&gt;Node35 -->
<g id="edge50" class="edge">
<title>Node33&#45;&gt;Node35</title>
<path fill="none" stroke="midnightblue" d="M1606.34,-117.98C1626.9,-107.86 1661.34,-90.93 1684.83,-79.38"/>
<polygon fill="midnightblue" stroke="midnightblue" points="1686.43,-82.49 1693.86,-74.94 1683.34,-76.21 1686.43,-82.49"/>
</g>
<!-- Node36 -->
<g id="node36" class="node">
<title>Node36</title>
<g id="a_node36"><a xlink:title=" ">
<polygon fill="none" stroke="#bfbfbf" points="1620,-56.5 1620,-75.5 1652,-75.5 1652,-56.5 1620,-56.5"/>
<text text-anchor="middle" x="1636" y="-63.5" font-family="Helvetica,sans-Serif" font-size="10.00">set</text>
</a>
</g>
</g>
<!-- Node33&#45;&gt;Node36 -->
<g id="edge51" class="edge">
<title>Node33&#45;&gt;Node36</title>
<path fill="none" stroke="midnightblue" d="M1595.73,-117.98C1602.78,-109.05 1614.03,-94.81 1622.85,-83.64"/>
<polygon fill="midnightblue" stroke="midnightblue" points="1625.83,-85.53 1629.28,-75.51 1620.33,-81.19 1625.83,-85.53"/>
</g>
</g>
</svg>
