<?xml version="1.0" encoding="UTF-8" standalone="no"?>
<!DOCTYPE svg PUBLIC "-//W3C//DTD SVG 1.1//EN"
 "http://www.w3.org/Graphics/SVG/1.1/DTD/svg11.dtd">
<!-- Generated by graphviz version 2.43.0 (0)
 -->
<!-- Title: src/gui/main_window/main_window.h Pages: 1 -->
<!--zoomable 341 -->
<svg id="main" version="1.1" xmlns="http://www.w3.org/2000/svg" xmlns:xlink="http://www.w3.org/1999/xlink" xml:space="preserve" onload="init(evt)">
<style type="text/css"><![CDATA[
.edge:hover path { stroke: red; }
.edge:hover polygon { stroke: red; fill: red; }
]]></style>
<script type="text/javascript"><![CDATA[
var edges = document.getElementsByTagName('g');
if (edges && edges.length) {
  for (var i=0;i<edges.length;i++) {
    if (edges[i].id.substr(0,4)=='edge') {
      edges[i].setAttribute('class','edge');
    }
  }
}
]]></script>
        <defs>
                <circle id="rim" cx="0" cy="0" r="7"/>
                <circle id="rim2" cx="0" cy="0" r="3.5"/>
                <g id="zoomPlus">
                        <use xlink:href="#rim" fill="#404040">
                                <set attributeName="fill" to="#808080" begin="zoomplus.mouseover" end="zoomplus.mouseout"/>
                        </use>
                        <path d="M-4,0h8M0,-4v8" fill="none" stroke="white" stroke-width="1.5" pointer-events="none"/>
                </g>
                <g id="zoomMin">
                        <use xlink:href="#rim" fill="#404040">
                                <set attributeName="fill" to="#808080" begin="zoomminus.mouseover" end="zoomminus.mouseout"/>
                        </use>
                        <path d="M-4,0h8" fill="none" stroke="white" stroke-width="1.5" pointer-events="none"/>
                </g>
                <g id="dirArrow">
                        <path fill="none" stroke="white" stroke-width="1.5" d="M0,-3.0v7 M-2.5,-0.5L0,-3.0L2.5,-0.5"/>
                </g>
               <g id="resetDef">
                       <use xlink:href="#rim2" fill="#404040">
                               <set attributeName="fill" to="#808080" begin="reset.mouseover" end="reset.mouseout"/>
                       </use>
               </g>
        </defs>

<script type="text/javascript">
var viewWidth = 2270;
var viewHeight = 341;
var sectionId = 'dynsection-0';
</script>
<script xlink:href="svgpan.js"/>
<svg id="graph" class="graph">
<g id="viewport">
<title>src/gui/main_window/main_window.h</title>
<!-- Node1 -->
<g id="node1" class="node">
<title>Node1</title>
<g id="a_node1"><a xlink:title=" ">
<polygon fill="#bfbfbf" stroke="black" points="363,-302.5 363,-332.5 482,-332.5 482,-302.5 363,-302.5"/>
<text text-anchor="start" x="371" y="-320.5" font-family="Helvetica,sans-Serif" font-size="10.00">src/gui/main_window</text>
<text text-anchor="middle" x="422.5" y="-309.5" font-family="Helvetica,sans-Serif" font-size="10.00">/main_window.h</text>
</a>
</g>
</g>
<!-- Node2 -->
<g id="node2" class="node">
<title>Node2</title>
<g id="a_node2"><a xlink:title=" ">
<polygon fill="none" stroke="#bfbfbf" points="0,-246.5 0,-265.5 87,-265.5 87,-246.5 0,-246.5"/>
<text text-anchor="middle" x="43.5" y="-253.5" font-family="Helvetica,sans-Serif" font-size="10.00">QMainWindow</text>
</a>
</g>
</g>
<!-- Node1&#45;&gt;Node2 -->
<g id="edge1" class="edge">
<title>Node1&#45;&gt;Node2</title>
<path fill="none" stroke="midnightblue" d="M362.78,-307.61C299.36,-298.09 195.91,-282.36 97.32,-266.28"/>
<polygon fill="midnightblue" stroke="midnightblue" points="97.62,-262.78 87.18,-264.62 96.49,-269.69 97.62,-262.78"/>
</g>
<!-- Node3 -->
<g id="node3" class="node">
<title>Node3</title>
<g id="a_node3"><a xlink:title=" ">
<polygon fill="none" stroke="#bfbfbf" points="105,-246.5 105,-265.5 202,-265.5 202,-246.5 105,-246.5"/>
<text text-anchor="middle" x="153.5" y="-253.5" font-family="Helvetica,sans-Serif" font-size="10.00">QStackedWidget</text>
</a>
</g>
</g>
<!-- Node1&#45;&gt;Node3 -->
<g id="edge2" class="edge">
<title>Node1&#45;&gt;Node3</title>
<path fill="none" stroke="midnightblue" d="M362.8,-303.3C314.45,-292.6 247.19,-277.72 202.09,-267.75"/>
<polygon fill="midnightblue" stroke="midnightblue" points="202.78,-264.31 192.26,-265.57 201.26,-271.15 202.78,-264.31"/>
</g>
<!-- Node4 -->
<g id="node4" class="node">
<title>Node4</title>
<g id="a_node4"><a xlink:title=" ">
<polygon fill="none" stroke="#bfbfbf" points="934,-118 934,-137 987,-137 987,-118 934,-118"/>
<text text-anchor="middle" x="960.5" y="-125" font-family="Helvetica,sans-Serif" font-size="10.00">QString</text>
</a>
</g>
</g>
<!-- Node1&#45;&gt;Node4 -->
<g id="edge3" class="edge">
<title>Node1&#45;&gt;Node4</title>
<path fill="none" stroke="midnightblue" d="M482.31,-313.32C582.5,-307.33 779.59,-292.54 843.5,-266 880.62,-250.59 888.35,-240.52 914.5,-210 931.22,-190.48 944.84,-163.97 952.81,-146.56"/>
<polygon fill="midnightblue" stroke="midnightblue" points="956.17,-147.6 957.01,-137.04 949.77,-144.77 956.17,-147.6"/>
</g>
<!-- Node5 -->
<g id="node5" class="node">
<title>Node5</title>
<g id="a_node5"><a xlink:title=" ">
<polygon fill="none" stroke="#bfbfbf" points="364,-0.5 364,-19.5 419,-19.5 419,-0.5 364,-0.5"/>
<text text-anchor="middle" x="391.5" y="-7.5" font-family="Helvetica,sans-Serif" font-size="10.00">QVector</text>
</a>
</g>
</g>
<!-- Node1&#45;&gt;Node5 -->
<g id="edge4" class="edge">
<title>Node1&#45;&gt;Node5</title>
<path fill="none" stroke="midnightblue" d="M362.8,-305.09C306.44,-290.44 230.5,-258.93 230.5,-195.5 230.5,-195.5 230.5,-195.5 230.5,-126.5 230.5,-65.96 306.58,-34.07 354.14,-20.05"/>
<polygon fill="midnightblue" stroke="midnightblue" points="355.15,-23.41 363.82,-17.33 353.25,-16.67 355.15,-23.41"/>
</g>
<!-- Node6 -->
<g id="node6" class="node">
<title>Node6</title>
<g id="a_node6"><a xlink:href="constants_8h.html" target="_top" xlink:title=" ">
<polygon fill="none" stroke="black" points="481.5,-56.5 481.5,-75.5 571.5,-75.5 571.5,-56.5 481.5,-56.5"/>
<text text-anchor="middle" x="526.5" y="-63.5" font-family="Helvetica,sans-Serif" font-size="10.00">src/constants.h</text>
</a>
</g>
</g>
<!-- Node1&#45;&gt;Node6 -->
<g id="edge5" class="edge">
<title>Node1&#45;&gt;Node6</title>
<path fill="none" stroke="midnightblue" d="M388.77,-302.4C338.99,-279.46 255.06,-231.31 287.5,-179 327.02,-115.26 413.7,-87.24 471.09,-75.32"/>
<polygon fill="midnightblue" stroke="midnightblue" points="471.96,-78.72 481.09,-73.35 470.6,-71.85 471.96,-78.72"/>
</g>
<!-- Node7 -->
<g id="node7" class="node">
<title>Node7</title>
<g id="a_node7"><a xlink:href="screen__game_8h.html" target="_top" xlink:title=" ">
<polygon fill="none" stroke="black" points="1361,-179.5 1361,-209.5 1478,-209.5 1478,-179.5 1361,-179.5"/>
<text text-anchor="start" x="1369" y="-197.5" font-family="Helvetica,sans-Serif" font-size="10.00">src/gui/screen_game</text>
<text text-anchor="middle" x="1419.5" y="-186.5" font-family="Helvetica,sans-Serif" font-size="10.00">/screen_game.h</text>
</a>
</g>
</g>
<!-- Node1&#45;&gt;Node7 -->
<g id="edge7" class="edge">
<title>Node1&#45;&gt;Node7</title>
<path fill="none" stroke="midnightblue" d="M482.09,-312.16C582.17,-304.6 790.27,-287.73 965.5,-266 1102.7,-248.98 1262.22,-222.69 1350.95,-207.49"/>
<polygon fill="midnightblue" stroke="midnightblue" points="1351.63,-210.92 1360.89,-205.78 1350.44,-204.02 1351.63,-210.92"/>
</g>
<!-- Node30 -->
<g id="node30" class="node">
<title>Node30</title>
<g id="a_node30"><a xlink:href="screen__liderboard_8h.html" target="_top" xlink:title=" ">
<polygon fill="none" stroke="black" points="579,-179.5 579,-209.5 718,-209.5 718,-179.5 579,-179.5"/>
<text text-anchor="start" x="587" y="-197.5" font-family="Helvetica,sans-Serif" font-size="10.00">src/gui/screen_liderboard</text>
<text text-anchor="middle" x="648.5" y="-186.5" font-family="Helvetica,sans-Serif" font-size="10.00">/screen_liderboard.h</text>
</a>
</g>
</g>
<!-- Node1&#45;&gt;Node30 -->
<g id="edge38" class="edge">
<title>Node1&#45;&gt;Node30</title>
<path fill="none" stroke="midnightblue" d="M448.87,-302.38C489.61,-280.57 567.9,-238.65 613.39,-214.3"/>
<polygon fill="midnightblue" stroke="midnightblue" points="615.14,-217.33 622.3,-209.53 611.83,-211.16 615.14,-217.33"/>
</g>
<!-- Node31 -->
<g id="node31" class="node">
<title>Node31</title>
<g id="a_node31"><a xlink:href="screen__menu_8h.html" target="_top" xlink:title=" ">
<polygon fill="none" stroke="black" points="297,-179.5 297,-209.5 414,-209.5 414,-179.5 297,-179.5"/>
<text text-anchor="start" x="305" y="-197.5" font-family="Helvetica,sans-Serif" font-size="10.00">src/gui/screen_menu</text>
<text text-anchor="middle" x="355.5" y="-186.5" font-family="Helvetica,sans-Serif" font-size="10.00">/screen_menu.h</text>
</a>
</g>
</g>
<!-- Node1&#45;&gt;Node31 -->
<g id="edge41" class="edge">
<title>Node1&#45;&gt;Node31</title>
<path fill="none" stroke="midnightblue" d="M414.55,-302.14C403.17,-281.59 382.09,-243.53 368.44,-218.87"/>
<polygon fill="midnightblue" stroke="midnightblue" points="371.34,-216.89 363.44,-209.84 365.22,-220.28 371.34,-216.89"/>
</g>
<!-- Node32 -->
<g id="node32" class="node">
<title>Node32</title>
<g id="a_node32"><a xlink:href="screen__settings_8h.html" target="_top" xlink:title=" ">
<polygon fill="none" stroke="black" points="432.5,-179.5 432.5,-209.5 560.5,-209.5 560.5,-179.5 432.5,-179.5"/>
<text text-anchor="start" x="440.5" y="-197.5" font-family="Helvetica,sans-Serif" font-size="10.00">src/gui/screen_settings</text>
<text text-anchor="middle" x="496.5" y="-186.5" font-family="Helvetica,sans-Serif" font-size="10.00">/screen_settings.h</text>
</a>
</g>
</g>
<!-- Node1&#45;&gt;Node32 -->
<g id="edge44" class="edge">
<title>Node1&#45;&gt;Node32</title>
<path fill="none" stroke="midnightblue" d="M431.28,-302.14C443.91,-281.5 467.34,-243.19 482.41,-218.55"/>
<polygon fill="midnightblue" stroke="midnightblue" points="485.5,-220.19 487.73,-209.84 479.53,-216.54 485.5,-220.19"/>
</g>
<!-- Node33 -->
<g id="node33" class="node">
<title>Node33</title>
<g id="a_node33"><a xlink:href="engine_8h.html" target="_top" xlink:title=" ">
<polygon fill="none" stroke="black" points="696.5,-246.5 696.5,-265.5 834.5,-265.5 834.5,-246.5 696.5,-246.5"/>
<text text-anchor="middle" x="765.5" y="-253.5" font-family="Helvetica,sans-Serif" font-size="10.00">src/logic/engine/engine.h</text>
</a>
</g>
</g>
<!-- Node1&#45;&gt;Node33 -->
<g id="edge47" class="edge">
<title>Node1&#45;&gt;Node33</title>
<path fill="none" stroke="midnightblue" d="M482.25,-306.14C545.15,-295.22 643.59,-278.15 706.3,-267.27"/>
<polygon fill="midnightblue" stroke="midnightblue" points="707.17,-270.67 716.42,-265.51 705.97,-263.77 707.17,-270.67"/>
</g>
<!-- Node6&#45;&gt;Node5 -->
<g id="edge6" class="edge">
<title>Node6&#45;&gt;Node5</title>
<path fill="none" stroke="midnightblue" d="M505.11,-56.44C482.79,-47.52 447.6,-33.44 422.29,-23.32"/>
<polygon fill="midnightblue" stroke="midnightblue" points="423.38,-19.98 412.79,-19.52 420.78,-26.48 423.38,-19.98"/>
</g>
<!-- Node7&#45;&gt;Node4 -->
<g id="edge13" class="edge">
<title>Node7&#45;&gt;Node4</title>
<path fill="none" stroke="midnightblue" d="M1360.98,-190.49C1279.5,-185.39 1127.65,-172.55 1001.5,-143 998.27,-142.24 994.93,-141.32 991.63,-140.3"/>
<polygon fill="midnightblue" stroke="midnightblue" points="992.53,-136.92 981.94,-137.08 990.32,-143.56 992.53,-136.92"/>
</g>
<!-- Node7&#45;&gt;Node6 -->
<g id="edge16" class="edge">
<title>Node7&#45;&gt;Node6</title>
<path fill="none" stroke="midnightblue" d="M1360.76,-193.34C1220.98,-192.28 872.25,-185.32 764.5,-143 743.89,-134.9 745.47,-121.57 725.5,-112 700.47,-100 631.52,-85.83 581.8,-76.64"/>
<polygon fill="midnightblue" stroke="midnightblue" points="582.28,-73.17 571.81,-74.82 581.02,-80.06 582.28,-73.17"/>
</g>
<!-- Node8 -->
<g id="node8" class="node">
<title>Node8</title>
<g id="a_node8"><a xlink:title=" ">
<polygon fill="none" stroke="#bfbfbf" points="1742.5,-118 1742.5,-137 1876.5,-137 1876.5,-118 1742.5,-118"/>
<text text-anchor="middle" x="1809.5" y="-125" font-family="Helvetica,sans-Serif" font-size="10.00">QGraphicsColorizeEffect</text>
</a>
</g>
</g>
<!-- Node7&#45;&gt;Node8 -->
<g id="edge8" class="edge">
<title>Node7&#45;&gt;Node8</title>
<path fill="none" stroke="midnightblue" d="M1478.04,-184.61C1541.17,-174.89 1644.59,-158.63 1733.5,-143 1740.69,-141.74 1748.24,-140.36 1755.69,-138.97"/>
<polygon fill="midnightblue" stroke="midnightblue" points="1756.56,-142.37 1765.73,-137.08 1755.26,-135.49 1756.56,-142.37"/>
</g>
<!-- Node9 -->
<g id="node9" class="node">
<title>Node9</title>
<g id="a_node9"><a xlink:title=" ">
<polygon fill="none" stroke="#bfbfbf" points="1894.5,-118 1894.5,-137 2016.5,-137 2016.5,-118 1894.5,-118"/>
<text text-anchor="middle" x="1955.5" y="-125" font-family="Helvetica,sans-Serif" font-size="10.00">QGraphicsEllipseItem</text>
</a>
</g>
</g>
<!-- Node7&#45;&gt;Node9 -->
<g id="edge9" class="edge">
<title>Node7&#45;&gt;Node9</title>
<path fill="none" stroke="midnightblue" d="M1478.22,-188.96C1566.82,-181.71 1739.8,-165.93 1885.5,-143 1892.66,-141.87 1900.21,-140.5 1907.58,-139.06"/>
<polygon fill="midnightblue" stroke="midnightblue" points="1908.36,-142.48 1917.48,-137.07 1906.98,-135.61 1908.36,-142.48"/>
</g>
<!-- Node10 -->
<g id="node10" class="node">
<title>Node10</title>
<g id="a_node10"><a xlink:title=" ">
<polygon fill="none" stroke="#bfbfbf" points="2034.5,-118 2034.5,-137 2174.5,-137 2174.5,-118 2034.5,-118"/>
<text text-anchor="middle" x="2104.5" y="-125" font-family="Helvetica,sans-Serif" font-size="10.00">QGraphicsItemAnimation</text>
</a>
</g>
</g>
<!-- Node7&#45;&gt;Node10 -->
<g id="edge10" class="edge">
<title>Node7&#45;&gt;Node10</title>
<path fill="none" stroke="midnightblue" d="M1478.21,-190.53C1586.66,-184.62 1825.62,-169.61 2025.5,-143 2034.24,-141.84 2043.48,-140.36 2052.44,-138.81"/>
<polygon fill="midnightblue" stroke="midnightblue" points="2053.17,-142.23 2062.39,-137.02 2051.93,-135.34 2053.17,-142.23"/>
</g>
<!-- Node11 -->
<g id="node11" class="node">
<title>Node11</title>
<g id="a_node11"><a xlink:title=" ">
<polygon fill="none" stroke="#bfbfbf" points="1747.5,-56.5 1747.5,-75.5 1843.5,-75.5 1843.5,-56.5 1747.5,-56.5"/>
<text text-anchor="middle" x="1795.5" y="-63.5" font-family="Helvetica,sans-Serif" font-size="10.00">QGraphicsScene</text>
</a>
</g>
</g>
<!-- Node7&#45;&gt;Node11 -->
<g id="edge11" class="edge">
<title>Node7&#45;&gt;Node11</title>
<path fill="none" stroke="midnightblue" d="M1469.73,-179.41C1496.67,-170.81 1529.91,-158.48 1557.5,-143 1576.81,-132.17 1576.53,-121.57 1596.5,-112 1621.08,-100.22 1688.02,-86.34 1737.51,-77.14"/>
<polygon fill="midnightblue" stroke="midnightblue" points="1738.27,-80.56 1747.47,-75.31 1737.01,-73.68 1738.27,-80.56"/>
</g>
<!-- Node12 -->
<g id="node12" class="node">
<title>Node12</title>
<g id="a_node12"><a xlink:title=" ">
<polygon fill="none" stroke="#bfbfbf" points="760,-56.5 760,-75.5 867,-75.5 867,-56.5 760,-56.5"/>
<text text-anchor="middle" x="813.5" y="-63.5" font-family="Helvetica,sans-Serif" font-size="10.00">QGraphicsSvgItem</text>
</a>
</g>
</g>
<!-- Node7&#45;&gt;Node12 -->
<g id="edge12" class="edge">
<title>Node7&#45;&gt;Node12</title>
<path fill="none" stroke="midnightblue" d="M1360.86,-189.63C1268.27,-182.89 1092.84,-167.32 1035.5,-143 1015.12,-134.35 1016.38,-121.76 996.5,-112 973.97,-100.94 912.74,-86.98 867.27,-77.56"/>
<polygon fill="midnightblue" stroke="midnightblue" points="867.75,-74.09 857.25,-75.51 866.34,-80.94 867.75,-74.09"/>
</g>
<!-- Node13 -->
<g id="node13" class="node">
<title>Node13</title>
<g id="a_node13"><a xlink:title=" ">
<polygon fill="none" stroke="#bfbfbf" points="2193,-118 2193,-137 2262,-137 2262,-118 2193,-118"/>
<text text-anchor="middle" x="2227.5" y="-125" font-family="Helvetica,sans-Serif" font-size="10.00">QTimeLine</text>
</a>
</g>
</g>
<!-- Node7&#45;&gt;Node13 -->
<g id="edge14" class="edge">
<title>Node7&#45;&gt;Node13</title>
<path fill="none" stroke="midnightblue" d="M1478.19,-191.54C1632.78,-186.06 2048.53,-169.26 2183.5,-143 2187.39,-142.24 2191.4,-141.24 2195.36,-140.12"/>
<polygon fill="midnightblue" stroke="midnightblue" points="2196.44,-143.45 2204.95,-137.14 2194.37,-136.76 2196.44,-143.45"/>
</g>
<!-- Node14 -->
<g id="node14" class="node">
<title>Node14</title>
<g id="a_node14"><a xlink:title=" ">
<polygon fill="none" stroke="#bfbfbf" points="516,-118 516,-137 575,-137 575,-118 516,-118"/>
<text text-anchor="middle" x="545.5" y="-125" font-family="Helvetica,sans-Serif" font-size="10.00">QWidget</text>
</a>
</g>
</g>
<!-- Node7&#45;&gt;Node14 -->
<g id="edge15" class="edge">
<title>Node7&#45;&gt;Node14</title>
<path fill="none" stroke="midnightblue" d="M1360.84,-190.78C1233.26,-184.6 921.11,-168.08 660.5,-143 635.43,-140.59 607.38,-137.07 585.26,-134.1"/>
<polygon fill="midnightblue" stroke="midnightblue" points="585.61,-130.62 575.23,-132.74 584.67,-137.55 585.61,-130.62"/>
</g>
<!-- Node15 -->
<g id="node15" class="node">
<title>Node15</title>
<g id="a_node15"><a xlink:href="gui__point_8h.html" target="_top" xlink:title=" ">
<polygon fill="none" stroke="black" points="1294,-112.5 1294,-142.5 1409,-142.5 1409,-112.5 1294,-112.5"/>
<text text-anchor="start" x="1302" y="-130.5" font-family="Helvetica,sans-Serif" font-size="10.00">src/gui/gui_point/gui</text>
<text text-anchor="middle" x="1351.5" y="-119.5" font-family="Helvetica,sans-Serif" font-size="10.00">_point.h</text>
</a>
</g>
</g>
<!-- Node7&#45;&gt;Node15 -->
<g id="edge17" class="edge">
<title>Node7&#45;&gt;Node15</title>
<path fill="none" stroke="midnightblue" d="M1404.75,-179.4C1395.66,-170.71 1383.83,-159.4 1373.63,-149.66"/>
<polygon fill="midnightblue" stroke="midnightblue" points="1375.87,-146.96 1366.23,-142.58 1371.04,-152.02 1375.87,-146.96"/>
</g>
<!-- Node21 -->
<g id="node21" class="node">
<title>Node21</title>
<g id="a_node21"><a xlink:href="gui__scene_8h.html" target="_top" xlink:title=" ">
<polygon fill="none" stroke="black" points="1605,-112.5 1605,-142.5 1724,-142.5 1724,-112.5 1605,-112.5"/>
<text text-anchor="start" x="1613" y="-130.5" font-family="Helvetica,sans-Serif" font-size="10.00">src/gui/gui_scene/gui</text>
<text text-anchor="middle" x="1664.5" y="-119.5" font-family="Helvetica,sans-Serif" font-size="10.00">_scene.h</text>
</a>
</g>
</g>
<!-- Node7&#45;&gt;Node21 -->
<g id="edge23" class="edge">
<title>Node7&#45;&gt;Node21</title>
<path fill="none" stroke="midnightblue" d="M1472.36,-179.48C1510.23,-169.43 1561.39,-155.86 1601.4,-145.24"/>
<polygon fill="midnightblue" stroke="midnightblue" points="1602.54,-148.56 1611.31,-142.61 1600.75,-141.79 1602.54,-148.56"/>
</g>
<!-- Node24 -->
<g id="node24" class="node">
<title>Node24</title>
<g id="a_node24"><a xlink:href="gui__advantage__bar_8h.html" target="_top" xlink:title=" ">
<polygon fill="none" stroke="black" points="1427,-112.5 1427,-142.5 1548,-142.5 1548,-112.5 1427,-112.5"/>
<text text-anchor="start" x="1435" y="-130.5" font-family="Helvetica,sans-Serif" font-size="10.00">src/gui/screen_game</text>
<text text-anchor="middle" x="1487.5" y="-119.5" font-family="Helvetica,sans-Serif" font-size="10.00">/gui_advantage_bar.h</text>
</a>
</g>
</g>
<!-- Node7&#45;&gt;Node24 -->
<g id="edge28" class="edge">
<title>Node7&#45;&gt;Node24</title>
<path fill="none" stroke="midnightblue" d="M1434.25,-179.4C1443.34,-170.71 1455.17,-159.4 1465.37,-149.66"/>
<polygon fill="midnightblue" stroke="midnightblue" points="1467.96,-152.02 1472.77,-142.58 1463.13,-146.96 1467.96,-152.02"/>
</g>
<!-- Node27 -->
<g id="node27" class="node">
<title>Node27</title>
<g id="a_node27"><a xlink:href="gui__figure_8h.html" target="_top" xlink:title=" ">
<polygon fill="none" stroke="black" points="1044,-112.5 1044,-142.5 1161,-142.5 1161,-112.5 1044,-112.5"/>
<text text-anchor="start" x="1052" y="-130.5" font-family="Helvetica,sans-Serif" font-size="10.00">src/gui/screen_game</text>
<text text-anchor="middle" x="1102.5" y="-119.5" font-family="Helvetica,sans-Serif" font-size="10.00">/gui_figure.h</text>
</a>
</g>
</g>
<!-- Node7&#45;&gt;Node27 -->
<g id="edge32" class="edge">
<title>Node7&#45;&gt;Node27</title>
<path fill="none" stroke="midnightblue" d="M1360.99,-181.5C1307.32,-170.5 1227.8,-154.19 1171.15,-142.58"/>
<polygon fill="midnightblue" stroke="midnightblue" points="1171.71,-139.12 1161.21,-140.54 1170.3,-145.98 1171.71,-139.12"/>
</g>
<!-- Node16 -->
<g id="node16" class="node">
<title>Node16</title>
<g id="a_node16"><a xlink:title=" ">
<polygon fill="none" stroke="#bfbfbf" points="1387.5,-56.5 1387.5,-75.5 1485.5,-75.5 1485.5,-56.5 1387.5,-56.5"/>
<text text-anchor="middle" x="1436.5" y="-63.5" font-family="Helvetica,sans-Serif" font-size="10.00">QGraphicsObject</text>
</a>
</g>
</g>
<!-- Node15&#45;&gt;Node16 -->
<g id="edge18" class="edge">
<title>Node15&#45;&gt;Node16</title>
<path fill="none" stroke="midnightblue" d="M1371.64,-112.4C1384.89,-103.13 1402.18,-91.03 1415.58,-81.65"/>
<polygon fill="midnightblue" stroke="midnightblue" points="1417.95,-84.26 1424.13,-75.66 1413.93,-78.53 1417.95,-84.26"/>
</g>
<!-- Node17 -->
<g id="node17" class="node">
<title>Node17</title>
<g id="a_node17"><a xlink:title=" ">
<polygon fill="none" stroke="#bfbfbf" points="1245.5,-56.5 1245.5,-75.5 1369.5,-75.5 1369.5,-56.5 1245.5,-56.5"/>
<text text-anchor="middle" x="1307.5" y="-63.5" font-family="Helvetica,sans-Serif" font-size="10.00">QGraphicsSceneEvent</text>
</a>
</g>
</g>
<!-- Node15&#45;&gt;Node17 -->
<g id="edge19" class="edge">
<title>Node15&#45;&gt;Node17</title>
<path fill="none" stroke="midnightblue" d="M1341.07,-112.4C1334.74,-103.84 1326.63,-92.87 1319.97,-83.86"/>
<polygon fill="midnightblue" stroke="midnightblue" points="1322.66,-81.62 1313.9,-75.66 1317.03,-85.78 1322.66,-81.62"/>
</g>
<!-- Node18 -->
<g id="node18" class="node">
<title>Node18</title>
<g id="a_node18"><a xlink:title=" ">
<polygon fill="none" stroke="#bfbfbf" points="1503.5,-56.5 1503.5,-75.5 1561.5,-75.5 1561.5,-56.5 1503.5,-56.5"/>
<text text-anchor="middle" x="1532.5" y="-63.5" font-family="Helvetica,sans-Serif" font-size="10.00">QPainter</text>
</a>
</g>
</g>
<!-- Node15&#45;&gt;Node18 -->
<g id="edge20" class="edge">
<title>Node15&#45;&gt;Node18</title>
<path fill="none" stroke="midnightblue" d="M1394.39,-112.4C1425.53,-102.16 1467.19,-88.47 1496.58,-78.81"/>
<polygon fill="midnightblue" stroke="midnightblue" points="1498.02,-82.02 1506.43,-75.57 1495.83,-75.37 1498.02,-82.02"/>
</g>
<!-- Node19 -->
<g id="node19" class="node">
<title>Node19</title>
<g id="a_node19"><a xlink:href="utils_8h.html" target="_top" xlink:title=" ">
<polygon fill="none" stroke="black" points="1163.5,-56.5 1163.5,-75.5 1227.5,-75.5 1227.5,-56.5 1163.5,-56.5"/>
<text text-anchor="middle" x="1195.5" y="-63.5" font-family="Helvetica,sans-Serif" font-size="10.00">src/utils.h</text>
</a>
</g>
</g>
<!-- Node15&#45;&gt;Node19 -->
<g id="edge21" class="edge">
<title>Node15&#45;&gt;Node19</title>
<path fill="none" stroke="midnightblue" d="M1314.53,-112.4C1288.12,-102.33 1252.94,-88.91 1227.69,-79.28"/>
<polygon fill="midnightblue" stroke="midnightblue" points="1228.79,-75.95 1218.2,-75.66 1226.3,-82.49 1228.79,-75.95"/>
</g>
<!-- Node20 -->
<g id="node20" class="node">
<title>Node20</title>
<g id="a_node20"><a xlink:title=" ">
<polygon fill="none" stroke="#bfbfbf" points="1173,-0.5 1173,-19.5 1218,-19.5 1218,-0.5 1173,-0.5"/>
<text text-anchor="middle" x="1195.5" y="-7.5" font-family="Helvetica,sans-Serif" font-size="10.00">utility</text>
</a>
</g>
</g>
<!-- Node19&#45;&gt;Node20 -->
<g id="edge22" class="edge">
<title>Node19&#45;&gt;Node20</title>
<path fill="none" stroke="midnightblue" d="M1195.5,-56.08C1195.5,-49.01 1195.5,-38.86 1195.5,-29.99"/>
<polygon fill="midnightblue" stroke="midnightblue" points="1199,-29.75 1195.5,-19.75 1192,-29.75 1199,-29.75"/>
</g>
<!-- Node21&#45;&gt;Node11 -->
<g id="edge24" class="edge">
<title>Node21&#45;&gt;Node11</title>
<path fill="none" stroke="midnightblue" d="M1695.55,-112.4C1717.23,-102.55 1745.96,-89.5 1767.05,-79.92"/>
<polygon fill="midnightblue" stroke="midnightblue" points="1768.78,-82.98 1776.44,-75.66 1765.89,-76.61 1768.78,-82.98"/>
</g>
<!-- Node21&#45;&gt;Node19 -->
<g id="edge27" class="edge">
<title>Node21&#45;&gt;Node19</title>
<path fill="none" stroke="midnightblue" d="M1604.82,-118.17C1589.42,-116.08 1572.85,-113.9 1557.5,-112 1418.23,-94.76 1379.85,-99.21 1237.64,-76.04"/>
<polygon fill="midnightblue" stroke="midnightblue" points="1238.1,-72.56 1227.67,-74.39 1236.97,-79.47 1238.1,-72.56"/>
</g>
<!-- Node22 -->
<g id="node22" class="node">
<title>Node22</title>
<g id="a_node22"><a xlink:title=" ">
<polygon fill="none" stroke="#bfbfbf" points="1929.5,-56.5 1929.5,-75.5 2013.5,-75.5 2013.5,-56.5 1929.5,-56.5"/>
<text text-anchor="middle" x="1971.5" y="-63.5" font-family="Helvetica,sans-Serif" font-size="10.00">QMouseEvent</text>
</a>
</g>
</g>
<!-- Node21&#45;&gt;Node22 -->
<g id="edge25" class="edge">
<title>Node21&#45;&gt;Node22</title>
<path fill="none" stroke="midnightblue" d="M1724.32,-113.85C1727.43,-113.22 1730.5,-112.6 1733.5,-112 1797.41,-99.24 1871.16,-85.44 1919.42,-76.53"/>
<polygon fill="midnightblue" stroke="midnightblue" points="1920.12,-79.96 1929.32,-74.71 1918.85,-73.08 1920.12,-79.96"/>
</g>
<!-- Node23 -->
<g id="node23" class="node">
<title>Node23</title>
<g id="a_node23"><a xlink:title=" ">
<polygon fill="none" stroke="#bfbfbf" points="1862,-56.5 1862,-75.5 1911,-75.5 1911,-56.5 1862,-56.5"/>
<text text-anchor="middle" x="1886.5" y="-63.5" font-family="Helvetica,sans-Serif" font-size="10.00">QPoint</text>
</a>
</g>
</g>
<!-- Node21&#45;&gt;Node23 -->
<g id="edge26" class="edge">
<title>Node21&#45;&gt;Node23</title>
<path fill="none" stroke="midnightblue" d="M1716.83,-112.47C1758.48,-101.31 1815.6,-86 1851.78,-76.31"/>
<polygon fill="midnightblue" stroke="midnightblue" points="1853.09,-79.58 1861.85,-73.61 1851.28,-72.82 1853.09,-79.58"/>
</g>
<!-- Node24&#45;&gt;Node18 -->
<g id="edge30" class="edge">
<title>Node24&#45;&gt;Node18</title>
<path fill="none" stroke="midnightblue" d="M1498.16,-112.4C1504.64,-103.84 1512.93,-92.87 1519.75,-83.86"/>
<polygon fill="midnightblue" stroke="midnightblue" points="1522.71,-85.74 1525.95,-75.66 1517.13,-81.52 1522.71,-85.74"/>
</g>
<!-- Node25 -->
<g id="node25" class="node">
<title>Node25</title>
<g id="a_node25"><a xlink:title=" ">
<polygon fill="none" stroke="#bfbfbf" points="1640,-56.5 1640,-75.5 1729,-75.5 1729,-56.5 1640,-56.5"/>
<text text-anchor="middle" x="1684.5" y="-63.5" font-family="Helvetica,sans-Serif" font-size="10.00">QGraphicsItem</text>
</a>
</g>
</g>
<!-- Node24&#45;&gt;Node25 -->
<g id="edge29" class="edge">
<title>Node24&#45;&gt;Node25</title>
<path fill="none" stroke="midnightblue" d="M1534.19,-112.4C1568.38,-102.07 1614.21,-88.23 1646.24,-78.56"/>
<polygon fill="midnightblue" stroke="midnightblue" points="1647.56,-81.81 1656.12,-75.57 1645.54,-75.11 1647.56,-81.81"/>
</g>
<!-- Node26 -->
<g id="node26" class="node">
<title>Node26</title>
<g id="a_node26"><a xlink:title=" ">
<polygon fill="none" stroke="#bfbfbf" points="1579.5,-56.5 1579.5,-75.5 1621.5,-75.5 1621.5,-56.5 1579.5,-56.5"/>
<text text-anchor="middle" x="1600.5" y="-63.5" font-family="Helvetica,sans-Serif" font-size="10.00">QPen</text>
</a>
</g>
</g>
<!-- Node24&#45;&gt;Node26 -->
<g id="edge31" class="edge">
<title>Node24&#45;&gt;Node26</title>
<path fill="none" stroke="midnightblue" d="M1514.28,-112.4C1532.56,-102.77 1556.65,-90.09 1574.71,-80.58"/>
<polygon fill="midnightblue" stroke="midnightblue" points="1576.84,-83.41 1584.06,-75.66 1573.58,-77.22 1576.84,-83.41"/>
</g>
<!-- Node27&#45;&gt;Node6 -->
<g id="edge36" class="edge">
<title>Node27&#45;&gt;Node6</title>
<path fill="none" stroke="midnightblue" d="M1043.97,-117.96C1028.55,-115.86 1011.91,-113.72 996.5,-112 815.31,-91.78 766.33,-99.01 581.59,-76.04"/>
<polygon fill="midnightblue" stroke="midnightblue" points="581.9,-72.55 571.54,-74.78 581.03,-79.5 581.9,-72.55"/>
</g>
<!-- Node27&#45;&gt;Node12 -->
<g id="edge34" class="edge">
<title>Node27&#45;&gt;Node12</title>
<path fill="none" stroke="midnightblue" d="M1043.67,-114.39C991.17,-103.58 915.07,-87.91 864.95,-77.59"/>
<polygon fill="midnightblue" stroke="midnightblue" points="865.48,-74.13 854.98,-75.54 864.07,-80.98 865.48,-74.13"/>
</g>
<!-- Node27&#45;&gt;Node19 -->
<g id="edge37" class="edge">
<title>Node27&#45;&gt;Node19</title>
<path fill="none" stroke="midnightblue" d="M1124.54,-112.4C1139.31,-102.95 1158.68,-90.56 1173.45,-81.11"/>
<polygon fill="midnightblue" stroke="midnightblue" points="1175.43,-84 1181.97,-75.66 1171.66,-78.1 1175.43,-84"/>
</g>
<!-- Node28 -->
<g id="node28" class="node">
<title>Node28</title>
<g id="a_node28"><a xlink:title=" ">
<polygon fill="none" stroke="#bfbfbf" points="885.5,-56.5 885.5,-75.5 1041.5,-75.5 1041.5,-56.5 885.5,-56.5"/>
<text text-anchor="middle" x="963.5" y="-63.5" font-family="Helvetica,sans-Serif" font-size="10.00">QGraphicsSceneMouseEvent</text>
</a>
</g>
</g>
<!-- Node27&#45;&gt;Node28 -->
<g id="edge33" class="edge">
<title>Node27&#45;&gt;Node28</title>
<path fill="none" stroke="midnightblue" d="M1069.56,-112.4C1046.34,-102.46 1015.51,-89.26 993.08,-79.66"/>
<polygon fill="midnightblue" stroke="midnightblue" points="994.3,-76.38 983.73,-75.66 991.54,-82.81 994.3,-76.38"/>
</g>
<!-- Node29 -->
<g id="node29" class="node">
<title>Node29</title>
<g id="a_node29"><a xlink:title=" ">
<polygon fill="none" stroke="#bfbfbf" points="1059.5,-56.5 1059.5,-75.5 1145.5,-75.5 1145.5,-56.5 1059.5,-56.5"/>
<text text-anchor="middle" x="1102.5" y="-63.5" font-family="Helvetica,sans-Serif" font-size="10.00">QSvgRenderer</text>
</a>
</g>
</g>
<!-- Node27&#45;&gt;Node29 -->
<g id="edge35" class="edge">
<title>Node27&#45;&gt;Node29</title>
<path fill="none" stroke="midnightblue" d="M1102.5,-112.4C1102.5,-104.47 1102.5,-94.46 1102.5,-85.86"/>
<polygon fill="midnightblue" stroke="midnightblue" points="1106,-85.66 1102.5,-75.66 1099,-85.66 1106,-85.66"/>
</g>
<!-- Node30&#45;&gt;Node6 -->
<g id="edge40" class="edge">
<title>Node30&#45;&gt;Node6</title>
<path fill="none" stroke="midnightblue" d="M638.81,-179.43C626.82,-162.52 605.31,-133.7 583.5,-112 572.36,-100.91 558.55,-89.95 547.31,-81.62"/>
<polygon fill="midnightblue" stroke="midnightblue" points="549.1,-78.6 538.96,-75.56 544.99,-84.26 549.1,-78.6"/>
</g>
<!-- Node30&#45;&gt;Node14 -->
<g id="edge39" class="edge">
<title>Node30&#45;&gt;Node14</title>
<path fill="none" stroke="midnightblue" d="M626.15,-179.4C608.88,-168.5 585.08,-153.48 567.82,-142.58"/>
<polygon fill="midnightblue" stroke="midnightblue" points="569.31,-139.38 558.98,-137.01 565.57,-145.3 569.31,-139.38"/>
</g>
<!-- Node31&#45;&gt;Node6 -->
<g id="edge43" class="edge">
<title>Node31&#45;&gt;Node6</title>
<path fill="none" stroke="midnightblue" d="M374.45,-179.48C407.02,-155.39 473.3,-106.35 506.55,-81.76"/>
<polygon fill="midnightblue" stroke="midnightblue" points="508.66,-84.55 514.62,-75.79 504.5,-78.92 508.66,-84.55"/>
</g>
<!-- Node31&#45;&gt;Node14 -->
<g id="edge42" class="edge">
<title>Node31&#45;&gt;Node14</title>
<path fill="none" stroke="midnightblue" d="M396.73,-179.4C430.8,-167.74 478.64,-151.37 510.79,-140.38"/>
<polygon fill="midnightblue" stroke="midnightblue" points="512.3,-143.56 520.63,-137.01 510.04,-136.93 512.3,-143.56"/>
</g>
<!-- Node32&#45;&gt;Node6 -->
<g id="edge46" class="edge">
<title>Node32&#45;&gt;Node6</title>
<path fill="none" stroke="midnightblue" d="M496.97,-179.41C497.8,-162.97 500.11,-135.08 506.5,-112 509.07,-102.73 513.24,-92.92 517.11,-84.83"/>
<polygon fill="midnightblue" stroke="midnightblue" points="520.35,-86.18 521.71,-75.68 514.09,-83.04 520.35,-86.18"/>
</g>
<!-- Node32&#45;&gt;Node14 -->
<g id="edge45" class="edge">
<title>Node32&#45;&gt;Node14</title>
<path fill="none" stroke="midnightblue" d="M507.13,-179.4C514.7,-169.36 524.89,-155.84 532.87,-145.25"/>
<polygon fill="midnightblue" stroke="midnightblue" points="535.72,-147.29 538.95,-137.19 530.13,-143.07 535.72,-147.29"/>
</g>
<!-- Node33&#45;&gt;Node6 -->
<g id="edge48" class="edge">
<title>Node33&#45;&gt;Node6</title>
<path fill="none" stroke="midnightblue" d="M762.98,-246.47C758.13,-231.27 746.17,-199.17 726.5,-179 703.17,-155.08 689.3,-159.94 660.5,-143 638.29,-129.93 633.79,-124.93 611.5,-112 592.18,-100.8 569.85,-89.02 552.92,-80.32"/>
<polygon fill="midnightblue" stroke="midnightblue" points="554.14,-77.01 543.64,-75.58 550.96,-83.25 554.14,-77.01"/>
</g>
<!-- Node34 -->
<g id="node34" class="node">
<title>Node34</title>
<g id="a_node34"><a xlink:href="board_8h.html" target="_top" xlink:title=" ">
<polygon fill="none" stroke="black" points="813,-185 813,-204 906,-204 906,-185 813,-185"/>
<text text-anchor="middle" x="859.5" y="-192" font-family="Helvetica,sans-Serif" font-size="10.00">../board/board.h</text>
</a>
</g>
</g>
<!-- Node33&#45;&gt;Node34 -->
<g id="edge49" class="edge">
<title>Node33&#45;&gt;Node34</title>
<path fill="none" stroke="midnightblue" d="M778.97,-246.48C794.18,-236.84 819.19,-221.02 837.3,-209.55"/>
<polygon fill="midnightblue" stroke="midnightblue" points="839.48,-212.31 846.06,-204.01 835.74,-206.4 839.48,-212.31"/>
</g>
<!-- Node35 -->
<g id="node35" class="node">
<title>Node35</title>
<g id="a_node35"><a xlink:href="figures_8h.html" target="_top" xlink:title=" ">
<polygon fill="none" stroke="black" points="773.5,-118 773.5,-137 877.5,-137 877.5,-118 773.5,-118"/>
<text text-anchor="middle" x="825.5" y="-125" font-family="Helvetica,sans-Serif" font-size="10.00">../figures/figures.h</text>
</a>
</g>
</g>
<!-- Node33&#45;&gt;Node35 -->
<g id="edge58" class="edge">
<title>Node33&#45;&gt;Node35</title>
<path fill="none" stroke="midnightblue" d="M769.62,-246.31C779.34,-225.81 803.85,-174.15 816.94,-146.54"/>
<polygon fill="midnightblue" stroke="midnightblue" points="820.22,-147.79 821.35,-137.26 813.9,-144.79 820.22,-147.79"/>
</g>
<!-- Node34&#45;&gt;Node35 -->
<g id="edge50" class="edge">
<title>Node34&#45;&gt;Node35</title>
<path fill="none" stroke="midnightblue" d="M854.91,-184.73C849.77,-174.89 841.28,-158.66 834.74,-146.16"/>
<polygon fill="midnightblue" stroke="midnightblue" points="837.75,-144.37 830.01,-137.13 831.55,-147.61 837.75,-144.37"/>
</g>
<!-- Node37 -->
<g id="node37" class="node">
<title>Node37</title>
<g id="a_node37"><a xlink:title=" ">
<polygon fill="none" stroke="#bfbfbf" points="709.5,-56.5 709.5,-75.5 741.5,-75.5 741.5,-56.5 709.5,-56.5"/>
<text text-anchor="middle" x="725.5" y="-63.5" font-family="Helvetica,sans-Serif" font-size="10.00">list</text>
</a>
</g>
</g>
<!-- Node34&#45;&gt;Node37 -->
<g id="edge56" class="edge">
<title>Node34&#45;&gt;Node37</title>
<path fill="none" stroke="midnightblue" d="M867.2,-184.77C880.29,-168.82 903.87,-134.56 886.5,-112 850.22,-64.87 813.92,-91.66 751.41,-75.81"/>
<polygon fill="midnightblue" stroke="midnightblue" points="752.14,-72.38 741.57,-73.02 750.23,-79.12 752.14,-72.38"/>
</g>
<!-- Node39 -->
<g id="node39" class="node">
<title>Node39</title>
<g id="a_node39"><a xlink:title=" ">
<polygon fill="none" stroke="#bfbfbf" points="670,-118 670,-137 717,-137 717,-118 670,-118"/>
<text text-anchor="middle" x="693.5" y="-125" font-family="Helvetica,sans-Serif" font-size="10.00">vector</text>
</a>
</g>
</g>
<!-- Node34&#45;&gt;Node39 -->
<g id="edge57" class="edge">
<title>Node34&#45;&gt;Node39</title>
<path fill="none" stroke="midnightblue" d="M837.46,-184.87C808.6,-173.57 757.85,-153.7 724.96,-140.82"/>
<polygon fill="midnightblue" stroke="midnightblue" points="725.96,-137.45 715.37,-137.06 723.41,-143.97 725.96,-137.45"/>
</g>
<!-- Node35&#45;&gt;Node6 -->
<g id="edge51" class="edge">
<title>Node35&#45;&gt;Node6</title>
<path fill="none" stroke="midnightblue" d="M787.49,-117.98C778.34,-115.97 768.58,-113.87 759.5,-112 698.79,-99.47 628.96,-86.13 581.7,-77.25"/>
<polygon fill="midnightblue" stroke="midnightblue" points="582.14,-73.77 571.67,-75.37 580.85,-80.65 582.14,-73.77"/>
</g>
<!-- Node35&#45;&gt;Node19 -->
<g id="edge52" class="edge">
<title>Node35&#45;&gt;Node19</title>
<path fill="none" stroke="midnightblue" d="M877.82,-118.89C952.73,-107.92 1087.89,-87.86 1153.41,-76.08"/>
<polygon fill="midnightblue" stroke="midnightblue" points="1154.11,-79.52 1163.31,-74.27 1152.84,-72.63 1154.11,-79.52"/>
</g>
<!-- Node36 -->
<g id="node36" class="node">
<title>Node36</title>
<g id="a_node36"><a xlink:title=" ">
<polygon fill="none" stroke="#bfbfbf" points="590,-56.5 590,-75.5 641,-75.5 641,-56.5 590,-56.5"/>
<text text-anchor="middle" x="615.5" y="-63.5" font-family="Helvetica,sans-Serif" font-size="10.00">math.h</text>
</a>
</g>
</g>
<!-- Node35&#45;&gt;Node36 -->
<g id="edge53" class="edge">
<title>Node35&#45;&gt;Node36</title>
<path fill="none" stroke="midnightblue" d="M795.41,-117.98C757.25,-107.16 691.54,-88.55 650.98,-77.05"/>
<polygon fill="midnightblue" stroke="midnightblue" points="651.81,-73.65 641.24,-74.29 649.91,-80.39 651.81,-73.65"/>
</g>
<!-- Node35&#45;&gt;Node37 -->
<g id="edge54" class="edge">
<title>Node35&#45;&gt;Node37</title>
<path fill="none" stroke="midnightblue" d="M811.17,-117.98C794.84,-108.25 767.9,-92.23 748.59,-80.74"/>
<polygon fill="midnightblue" stroke="midnightblue" points="750.18,-77.61 739.8,-75.51 746.61,-83.63 750.18,-77.61"/>
</g>
<!-- Node38 -->
<g id="node38" class="node">
<title>Node38</title>
<g id="a_node38"><a xlink:title=" ">
<polygon fill="none" stroke="#bfbfbf" points="659.5,-56.5 659.5,-75.5 691.5,-75.5 691.5,-56.5 659.5,-56.5"/>
<text text-anchor="middle" x="675.5" y="-63.5" font-family="Helvetica,sans-Serif" font-size="10.00">set</text>
</a>
</g>
</g>
<!-- Node35&#45;&gt;Node38 -->
<g id="edge55" class="edge">
<title>Node35&#45;&gt;Node38</title>
<path fill="none" stroke="midnightblue" d="M804.01,-117.98C776.91,-107.22 730.35,-88.76 701.34,-77.25"/>
<polygon fill="midnightblue" stroke="midnightblue" points="702.46,-73.93 691.87,-73.49 699.88,-80.43 702.46,-73.93"/>
</g>
</g>
</svg>
        <g id="navigator" transform="translate(0 0)" fill="#404254">
                <rect fill="#f2f5e9" fill-opacity="0.5" stroke="#606060" stroke-width=".5" x="0" y="0" width="60" height="60"/>
                <use id="zoomplus" xlink:href="#zoomPlus" x="17" y="9" onmousedown="handleZoom(evt,'in')"/>
                <use id="zoomminus" xlink:href="#zoomMin" x="42" y="9" onmousedown="handleZoom(evt,'out')"/>
                <use id="reset" xlink:href="#resetDef" x="30" y="36" onmousedown="handleReset()"/>
                <g id="arrowUp" xlink:href="#dirArrow" transform="translate(30 24)" onmousedown="handlePan(0,-1)">
                  <use xlink:href="#rim" fill="#404040">
                        <set attributeName="fill" to="#808080" begin="arrowUp.mouseover" end="arrowUp.mouseout"/>
                  </use>
                  <path fill="none" stroke="white" stroke-width="1.5" d="M0,-3.0v7 M-2.5,-0.5L0,-3.0L2.5,-0.5"/>
                </g>
                <g id="arrowRight" xlink:href="#dirArrow" transform="rotate(90) translate(36 -43)" onmousedown="handlePan(1,0)">
                  <use xlink:href="#rim" fill="#404040">
                        <set attributeName="fill" to="#808080" begin="arrowRight.mouseover" end="arrowRight.mouseout"/>
                  </use>
                  <path fill="none" stroke="white" stroke-width="1.5" d="M0,-3.0v7 M-2.5,-0.5L0,-3.0L2.5,-0.5"/>
                </g>
                <g id="arrowDown" xlink:href="#dirArrow" transform="rotate(180) translate(-30 -48)" onmousedown="handlePan(0,1)">
                  <use xlink:href="#rim" fill="#404040">
                        <set attributeName="fill" to="#808080" begin="arrowDown.mouseover" end="arrowDown.mouseout"/>
                  </use>
                  <path fill="none" stroke="white" stroke-width="1.5" d="M0,-3.0v7 M-2.5,-0.5L0,-3.0L2.5,-0.5"/>
                </g>
                <g id="arrowLeft" xlink:href="#dirArrow" transform="rotate(270) translate(-36 17)" onmousedown="handlePan(-1,0)">
                  <use xlink:href="#rim" fill="#404040">
                        <set attributeName="fill" to="#808080" begin="arrowLeft.mouseover" end="arrowLeft.mouseout"/>
                  </use>
                  <path fill="none" stroke="white" stroke-width="1.5" d="M0,-3.0v7 M-2.5,-0.5L0,-3.0L2.5,-0.5"/>
                </g>
        </g>
        <svg viewBox="0 0 15 15" width="100%" height="30px" preserveAspectRatio="xMaxYMin meet">
         <g id="arrow_out" transform="scale(0.3 0.3)">
          <a xlink:href="main__window_8h__incl_org.svg" target="_base">
           <rect id="button" ry="5" rx="5" y="6" x="6" height="38" width="38"
                fill="#f2f5e9" fill-opacity="0.5" stroke="#606060" stroke-width="1.0"/>
           <path id="arrow"
             d="M 11.500037,31.436501 C 11.940474,20.09759 22.043105,11.32322 32.158766,21.979434 L 37.068811,17.246167 C 37.068811,17.246167 37.088388,32 37.088388,32 L 22.160133,31.978069 C 22.160133,31.978069 26.997745,27.140456 26.997745,27.140456 C 18.528582,18.264221 13.291696,25.230495 11.500037,31.436501 z"
             style="fill:#404040;"/>
          </a>
         </g>
        </svg>
</svg>
