<?xml version="1.0" encoding="UTF-8" standalone="no"?>
<!DOCTYPE svg PUBLIC "-//W3C//DTD SVG 1.1//EN"
 "http://www.w3.org/Graphics/SVG/1.1/DTD/svg11.dtd">
<!-- Generated by graphviz version 2.43.0 (0)
 -->
<!-- Title: src/main.cpp Pages: 1 -->
<svg width="2395pt" height="397pt"
 viewBox="0.00 0.00 2394.50 397.00" xmlns="http://www.w3.org/2000/svg" xmlns:xlink="http://www.w3.org/1999/xlink">
<g id="graph0" class="graph" transform="scale(1 1) rotate(0) translate(4 393)">
<title>src/main.cpp</title>
<!-- Node1 -->
<g id="node1" class="node">
<title>Node1</title>
<g id="a_node1"><a xlink:title=" ">
<polygon fill="#bfbfbf" stroke="black" points="1787,-369.5 1787,-388.5 1866,-388.5 1866,-369.5 1787,-369.5"/>
<text text-anchor="middle" x="1826.5" y="-376.5" font-family="Helvetica,sans-Serif" font-size="10.00">src/main.cpp</text>
</a>
</g>
</g>
<!-- Node2 -->
<g id="node2" class="node">
<title>Node2</title>
<g id="a_node2"><a xlink:href="main__window_8h.html" target="_top" xlink:title=" ">
<polygon fill="none" stroke="black" points="1709,-302.5 1709,-332.5 1828,-332.5 1828,-302.5 1709,-302.5"/>
<text text-anchor="start" x="1717" y="-320.5" font-family="Helvetica,sans-Serif" font-size="10.00">src/gui/main_window</text>
<text text-anchor="middle" x="1768.5" y="-309.5" font-family="Helvetica,sans-Serif" font-size="10.00">/main_window.h</text>
</a>
</g>
</g>
<!-- Node1&#45;&gt;Node2 -->
<g id="edge1" class="edge">
<title>Node1&#45;&gt;Node2</title>
<path fill="none" stroke="midnightblue" d="M1818.19,-369.48C1810.7,-361.79 1799.37,-350.17 1789.42,-339.96"/>
<polygon fill="midnightblue" stroke="midnightblue" points="1791.66,-337.24 1782.17,-332.52 1786.64,-342.13 1791.66,-337.24"/>
</g>
<!-- Node44 -->
<g id="node44" class="node">
<title>Node44</title>
<g id="a_node44"><a xlink:title=" ">
<polygon fill="none" stroke="#bfbfbf" points="1846,-308 1846,-327 1925,-327 1925,-308 1846,-308"/>
<text text-anchor="middle" x="1885.5" y="-315" font-family="Helvetica,sans-Serif" font-size="10.00">QApplication</text>
</a>
</g>
</g>
<!-- Node1&#45;&gt;Node44 -->
<g id="edge69" class="edge">
<title>Node1&#45;&gt;Node44</title>
<path fill="none" stroke="midnightblue" d="M1834.95,-369.48C1844.07,-360.28 1858.77,-345.46 1869.98,-334.16"/>
<polygon fill="midnightblue" stroke="midnightblue" points="1872.51,-336.57 1877.06,-327.01 1867.54,-331.65 1872.51,-336.57"/>
</g>
<!-- Node3 -->
<g id="node3" class="node">
<title>Node3</title>
<g id="a_node3"><a xlink:title=" ">
<polygon fill="none" stroke="#bfbfbf" points="0,-246.5 0,-265.5 87,-265.5 87,-246.5 0,-246.5"/>
<text text-anchor="middle" x="43.5" y="-253.5" font-family="Helvetica,sans-Serif" font-size="10.00">QMainWindow</text>
</a>
</g>
</g>
<!-- Node2&#45;&gt;Node3 -->
<g id="edge2" class="edge">
<title>Node2&#45;&gt;Node3</title>
<path fill="none" stroke="midnightblue" d="M1708.77,-315.83C1451.84,-312.77 438.6,-298.9 97.28,-266.01"/>
<polygon fill="midnightblue" stroke="midnightblue" points="97.43,-262.51 87.13,-265.01 96.74,-269.48 97.43,-262.51"/>
</g>
<!-- Node4 -->
<g id="node4" class="node">
<title>Node4</title>
<g id="a_node4"><a xlink:title=" ">
<polygon fill="none" stroke="#bfbfbf" points="105,-246.5 105,-265.5 202,-265.5 202,-246.5 105,-246.5"/>
<text text-anchor="middle" x="153.5" y="-253.5" font-family="Helvetica,sans-Serif" font-size="10.00">QStackedWidget</text>
</a>
</g>
</g>
<!-- Node2&#45;&gt;Node4 -->
<g id="edge3" class="edge">
<title>Node2&#45;&gt;Node4</title>
<path fill="none" stroke="midnightblue" d="M1708.8,-316.9C1501.85,-317.8 796.26,-316.69 216.5,-266 215.2,-265.89 213.89,-265.76 212.56,-265.63"/>
<polygon fill="midnightblue" stroke="midnightblue" points="212.6,-262.12 202.28,-264.51 211.84,-269.08 212.6,-262.12"/>
</g>
<!-- Node5 -->
<g id="node5" class="node">
<title>Node5</title>
<g id="a_node5"><a xlink:title=" ">
<polygon fill="none" stroke="#bfbfbf" points="1026,-0.5 1026,-19.5 1079,-19.5 1079,-0.5 1026,-0.5"/>
<text text-anchor="middle" x="1052.5" y="-7.5" font-family="Helvetica,sans-Serif" font-size="10.00">QString</text>
</a>
</g>
</g>
<!-- Node2&#45;&gt;Node5 -->
<g id="edge4" class="edge">
<title>Node2&#45;&gt;Node5</title>
<path fill="none" stroke="midnightblue" d="M1708.68,-314.98C1425.18,-307.42 230.5,-271.04 230.5,-195.5 230.5,-195.5 230.5,-195.5 230.5,-126.5 230.5,-94.05 224.3,-76.45 249.5,-56 309.52,-7.29 866.51,-9.18 1015.82,-10.58"/>
<polygon fill="midnightblue" stroke="midnightblue" points="1015.82,-14.08 1025.85,-10.67 1015.89,-7.08 1015.82,-14.08"/>
</g>
<!-- Node6 -->
<g id="node6" class="node">
<title>Node6</title>
<g id="a_node6"><a xlink:title=" ">
<polygon fill="none" stroke="#bfbfbf" points="2065,-0.5 2065,-19.5 2120,-19.5 2120,-0.5 2065,-0.5"/>
<text text-anchor="middle" x="2092.5" y="-7.5" font-family="Helvetica,sans-Serif" font-size="10.00">QVector</text>
</a>
</g>
</g>
<!-- Node2&#45;&gt;Node6 -->
<g id="edge5" class="edge">
<title>Node2&#45;&gt;Node6</title>
<path fill="none" stroke="midnightblue" d="M1828.06,-303.84C1880.79,-292.37 1953.57,-275.8 1981.5,-266 2050.63,-241.75 2130.5,-268.76 2130.5,-195.5 2130.5,-195.5 2130.5,-195.5 2130.5,-126.5 2130.5,-90.25 2113.41,-50.67 2102.15,-28.53"/>
<polygon fill="midnightblue" stroke="midnightblue" points="2105.23,-26.87 2097.47,-19.66 2099.04,-30.14 2105.23,-26.87"/>
</g>
<!-- Node7 -->
<g id="node7" class="node">
<title>Node7</title>
<g id="a_node7"><a xlink:href="constants_8h.html" target="_top" xlink:title=" ">
<polygon fill="none" stroke="black" points="2009.5,-56.5 2009.5,-75.5 2099.5,-75.5 2099.5,-56.5 2009.5,-56.5"/>
<text text-anchor="middle" x="2054.5" y="-63.5" font-family="Helvetica,sans-Serif" font-size="10.00">src/constants.h</text>
</a>
</g>
</g>
<!-- Node2&#45;&gt;Node7 -->
<g id="edge6" class="edge">
<title>Node2&#45;&gt;Node7</title>
<path fill="none" stroke="midnightblue" d="M1818.4,-302.5C1900.9,-278.85 2058.24,-231.49 2073.5,-210 2100.48,-172 2078.2,-113.7 2064.02,-84.68"/>
<polygon fill="midnightblue" stroke="midnightblue" points="2067.1,-83.03 2059.43,-75.72 2060.87,-86.21 2067.1,-83.03"/>
</g>
<!-- Node8 -->
<g id="node8" class="node">
<title>Node8</title>
<g id="a_node8"><a xlink:href="screen__game_8h.html" target="_top" xlink:title=" ">
<polygon fill="none" stroke="black" points="1222,-179.5 1222,-209.5 1339,-209.5 1339,-179.5 1222,-179.5"/>
<text text-anchor="start" x="1230" y="-197.5" font-family="Helvetica,sans-Serif" font-size="10.00">src/gui/screen_game</text>
<text text-anchor="middle" x="1280.5" y="-186.5" font-family="Helvetica,sans-Serif" font-size="10.00">/screen_game.h</text>
</a>
</g>
</g>
<!-- Node2&#45;&gt;Node8 -->
<g id="edge8" class="edge">
<title>Node2&#45;&gt;Node8</title>
<path fill="none" stroke="midnightblue" d="M1711.57,-302.38C1620.75,-279.86 1443.52,-235.92 1347.01,-211.99"/>
<polygon fill="midnightblue" stroke="midnightblue" points="1347.62,-208.54 1337.07,-209.53 1345.94,-215.33 1347.62,-208.54"/>
</g>
<!-- Node34 -->
<g id="node34" class="node">
<title>Node34</title>
<g id="a_node34"><a xlink:href="screen__liderboard_8h.html" target="_top" xlink:title=" ">
<polygon fill="none" stroke="black" points="1925,-179.5 1925,-209.5 2064,-209.5 2064,-179.5 1925,-179.5"/>
<text text-anchor="start" x="1933" y="-197.5" font-family="Helvetica,sans-Serif" font-size="10.00">src/gui/screen_liderboard</text>
<text text-anchor="middle" x="1994.5" y="-186.5" font-family="Helvetica,sans-Serif" font-size="10.00">/screen_liderboard.h</text>
</a>
</g>
</g>
<!-- Node2&#45;&gt;Node34 -->
<g id="edge48" class="edge">
<title>Node2&#45;&gt;Node34</title>
<path fill="none" stroke="midnightblue" d="M1794.87,-302.38C1835.61,-280.57 1913.9,-238.65 1959.39,-214.3"/>
<polygon fill="midnightblue" stroke="midnightblue" points="1961.14,-217.33 1968.3,-209.53 1957.83,-211.16 1961.14,-217.33"/>
</g>
<!-- Node35 -->
<g id="node35" class="node">
<title>Node35</title>
<g id="a_node35"><a xlink:href="screen__menu_8h.html" target="_top" xlink:title=" ">
<polygon fill="none" stroke="black" points="1643,-179.5 1643,-209.5 1760,-209.5 1760,-179.5 1643,-179.5"/>
<text text-anchor="start" x="1651" y="-197.5" font-family="Helvetica,sans-Serif" font-size="10.00">src/gui/screen_menu</text>
<text text-anchor="middle" x="1701.5" y="-186.5" font-family="Helvetica,sans-Serif" font-size="10.00">/screen_menu.h</text>
</a>
</g>
</g>
<!-- Node2&#45;&gt;Node35 -->
<g id="edge51" class="edge">
<title>Node2&#45;&gt;Node35</title>
<path fill="none" stroke="midnightblue" d="M1760.55,-302.14C1749.17,-281.59 1728.09,-243.53 1714.44,-218.87"/>
<polygon fill="midnightblue" stroke="midnightblue" points="1717.34,-216.89 1709.44,-209.84 1711.22,-220.28 1717.34,-216.89"/>
</g>
<!-- Node36 -->
<g id="node36" class="node">
<title>Node36</title>
<g id="a_node36"><a xlink:href="screen__settings_8h.html" target="_top" xlink:title=" ">
<polygon fill="none" stroke="black" points="1778.5,-179.5 1778.5,-209.5 1906.5,-209.5 1906.5,-179.5 1778.5,-179.5"/>
<text text-anchor="start" x="1786.5" y="-197.5" font-family="Helvetica,sans-Serif" font-size="10.00">src/gui/screen_settings</text>
<text text-anchor="middle" x="1842.5" y="-186.5" font-family="Helvetica,sans-Serif" font-size="10.00">/screen_settings.h</text>
</a>
</g>
</g>
<!-- Node2&#45;&gt;Node36 -->
<g id="edge54" class="edge">
<title>Node2&#45;&gt;Node36</title>
<path fill="none" stroke="midnightblue" d="M1777.28,-302.14C1789.91,-281.5 1813.34,-243.19 1828.41,-218.55"/>
<polygon fill="midnightblue" stroke="midnightblue" points="1831.5,-220.19 1833.73,-209.84 1825.53,-216.54 1831.5,-220.19"/>
</g>
<!-- Node37 -->
<g id="node37" class="node">
<title>Node37</title>
<g id="a_node37"><a xlink:href="engine_8h.html" target="_top" xlink:title=" ">
<polygon fill="none" stroke="black" points="2168.5,-246.5 2168.5,-265.5 2306.5,-265.5 2306.5,-246.5 2168.5,-246.5"/>
<text text-anchor="middle" x="2237.5" y="-253.5" font-family="Helvetica,sans-Serif" font-size="10.00">src/logic/engine/engine.h</text>
</a>
</g>
</g>
<!-- Node2&#45;&gt;Node37 -->
<g id="edge57" class="edge">
<title>Node2&#45;&gt;Node37</title>
<path fill="none" stroke="midnightblue" d="M1828.27,-303.58C1831.39,-303.02 1834.48,-302.49 1837.5,-302 1897.31,-292.37 2059.55,-275.15 2158.07,-265.03"/>
<polygon fill="midnightblue" stroke="midnightblue" points="2158.69,-268.49 2168.28,-263.98 2157.97,-261.52 2158.69,-268.49"/>
</g>
<!-- Node7&#45;&gt;Node6 -->
<g id="edge7" class="edge">
<title>Node7&#45;&gt;Node6</title>
<path fill="none" stroke="midnightblue" d="M2060.77,-56.08C2066.14,-48.46 2074.02,-37.26 2080.58,-27.94"/>
<polygon fill="midnightblue" stroke="midnightblue" points="2083.45,-29.94 2086.34,-19.75 2077.72,-25.91 2083.45,-29.94"/>
</g>
<!-- Node8&#45;&gt;Node5 -->
<g id="edge16" class="edge">
<title>Node8&#45;&gt;Node5</title>
<path fill="none" stroke="midnightblue" d="M1286.18,-179.34C1294.48,-160.63 1311.77,-128.18 1337.5,-112 1422.91,-58.29 1626.07,-130.02 1557.5,-56 1523.51,-19.3 1172.86,-27.67 1089.13,-19.62"/>
<polygon fill="midnightblue" stroke="midnightblue" points="1089.51,-16.14 1079.15,-18.37 1088.64,-23.08 1089.51,-16.14"/>
</g>
<!-- Node8&#45;&gt;Node7 -->
<g id="edge19" class="edge">
<title>Node8&#45;&gt;Node7</title>
<path fill="none" stroke="midnightblue" d="M1339.05,-190.42C1473.89,-183 1798.29,-163.29 1843.5,-143 1861.86,-134.76 1858.85,-121.66 1876.5,-112 1914.71,-91.08 1962.84,-79.67 1999.42,-73.58"/>
<polygon fill="midnightblue" stroke="midnightblue" points="2000.08,-77.02 2009.42,-72 1998.99,-70.11 2000.08,-77.02"/>
</g>
<!-- Node9 -->
<g id="node9" class="node">
<title>Node9</title>
<g id="a_node9"><a xlink:title=" ">
<polygon fill="none" stroke="#bfbfbf" points="1346.5,-118 1346.5,-137 1384.5,-137 1384.5,-118 1346.5,-118"/>
<text text-anchor="middle" x="1365.5" y="-125" font-family="Helvetica,sans-Serif" font-size="10.00">QDir</text>
</a>
</g>
</g>
<!-- Node8&#45;&gt;Node9 -->
<g id="edge9" class="edge">
<title>Node8&#45;&gt;Node9</title>
<path fill="none" stroke="midnightblue" d="M1298.94,-179.4C1312.85,-168.76 1331.89,-154.2 1346.04,-143.38"/>
<polygon fill="midnightblue" stroke="midnightblue" points="1348.31,-146.05 1354.13,-137.19 1344.06,-140.49 1348.31,-146.05"/>
</g>
<!-- Node10 -->
<g id="node10" class="node">
<title>Node10</title>
<g id="a_node10"><a xlink:title=" ">
<polygon fill="none" stroke="#bfbfbf" points="1402.5,-118 1402.5,-137 1536.5,-137 1536.5,-118 1402.5,-118"/>
<text text-anchor="middle" x="1469.5" y="-125" font-family="Helvetica,sans-Serif" font-size="10.00">QGraphicsColorizeEffect</text>
</a>
</g>
</g>
<!-- Node8&#45;&gt;Node10 -->
<g id="edge10" class="edge">
<title>Node8&#45;&gt;Node10</title>
<path fill="none" stroke="midnightblue" d="M1321.51,-179.4C1355.41,-167.74 1402.99,-151.37 1434.97,-140.38"/>
<polygon fill="midnightblue" stroke="midnightblue" points="1436.45,-143.57 1444.76,-137.01 1434.17,-136.95 1436.45,-143.57"/>
</g>
<!-- Node11 -->
<g id="node11" class="node">
<title>Node11</title>
<g id="a_node11"><a xlink:title=" ">
<polygon fill="none" stroke="#bfbfbf" points="1554.5,-118 1554.5,-137 1676.5,-137 1676.5,-118 1554.5,-118"/>
<text text-anchor="middle" x="1615.5" y="-125" font-family="Helvetica,sans-Serif" font-size="10.00">QGraphicsEllipseItem</text>
</a>
</g>
</g>
<!-- Node8&#45;&gt;Node11 -->
<g id="edge11" class="edge">
<title>Node8&#45;&gt;Node11</title>
<path fill="none" stroke="midnightblue" d="M1339.23,-182.59C1392.97,-172.53 1474.64,-157.09 1545.5,-143 1551.73,-141.76 1558.27,-140.44 1564.74,-139.11"/>
<polygon fill="midnightblue" stroke="midnightblue" points="1565.72,-142.49 1574.81,-137.04 1564.31,-135.63 1565.72,-142.49"/>
</g>
<!-- Node12 -->
<g id="node12" class="node">
<title>Node12</title>
<g id="a_node12"><a xlink:title=" ">
<polygon fill="none" stroke="#bfbfbf" points="1694.5,-118 1694.5,-137 1834.5,-137 1834.5,-118 1694.5,-118"/>
<text text-anchor="middle" x="1764.5" y="-125" font-family="Helvetica,sans-Serif" font-size="10.00">QGraphicsItemAnimation</text>
</a>
</g>
</g>
<!-- Node8&#45;&gt;Node12 -->
<g id="edge12" class="edge">
<title>Node8&#45;&gt;Node12</title>
<path fill="none" stroke="midnightblue" d="M1339.33,-187.24C1418.28,-178.59 1562.77,-161.9 1685.5,-143 1693.63,-141.75 1702.21,-140.3 1710.6,-138.82"/>
<polygon fill="midnightblue" stroke="midnightblue" points="1711.48,-142.22 1720.7,-137 1710.24,-135.33 1711.48,-142.22"/>
</g>
<!-- Node13 -->
<g id="node13" class="node">
<title>Node13</title>
<g id="a_node13"><a xlink:title=" ">
<polygon fill="none" stroke="#bfbfbf" points="427.5,-56.5 427.5,-75.5 523.5,-75.5 523.5,-56.5 427.5,-56.5"/>
<text text-anchor="middle" x="475.5" y="-63.5" font-family="Helvetica,sans-Serif" font-size="10.00">QGraphicsScene</text>
</a>
</g>
</g>
<!-- Node8&#45;&gt;Node13 -->
<g id="edge13" class="edge">
<title>Node8&#45;&gt;Node13</title>
<path fill="none" stroke="midnightblue" d="M1221.95,-192.36C1098.78,-189.28 816.92,-178.46 728.5,-143 707.95,-134.76 709.54,-121.42 689.5,-112 675.29,-105.32 590.08,-88.48 531.57,-77.4"/>
<polygon fill="midnightblue" stroke="midnightblue" points="532.18,-73.96 521.7,-75.54 530.88,-80.84 532.18,-73.96"/>
</g>
<!-- Node14 -->
<g id="node14" class="node">
<title>Node14</title>
<g id="a_node14"><a xlink:title=" ">
<polygon fill="none" stroke="#bfbfbf" points="1441,-56.5 1441,-75.5 1548,-75.5 1548,-56.5 1441,-56.5"/>
<text text-anchor="middle" x="1494.5" y="-63.5" font-family="Helvetica,sans-Serif" font-size="10.00">QGraphicsSvgItem</text>
</a>
</g>
</g>
<!-- Node8&#45;&gt;Node14 -->
<g id="edge14" class="edge">
<title>Node8&#45;&gt;Node14</title>
<path fill="none" stroke="midnightblue" d="M1280.58,-179.2C1281.48,-160.96 1285.87,-129.65 1304.5,-112 1314.3,-102.72 1385.42,-87.57 1437.78,-77.45"/>
<polygon fill="midnightblue" stroke="midnightblue" points="1438.49,-80.88 1447.65,-75.56 1437.17,-74 1438.49,-80.88"/>
</g>
<!-- Node15 -->
<g id="node15" class="node">
<title>Node15</title>
<g id="a_node15"><a xlink:title=" ">
<polygon fill="none" stroke="#bfbfbf" points="513.5,-118 513.5,-137 593.5,-137 593.5,-118 513.5,-118"/>
<text text-anchor="middle" x="553.5" y="-125" font-family="Helvetica,sans-Serif" font-size="10.00">QInputDialog</text>
</a>
</g>
</g>
<!-- Node8&#45;&gt;Node15 -->
<g id="edge15" class="edge">
<title>Node8&#45;&gt;Node15</title>
<path fill="none" stroke="midnightblue" d="M1221.92,-193.32C1103.78,-192.05 828.91,-184.44 602.5,-143 597.96,-142.17 593.24,-141.08 588.6,-139.86"/>
<polygon fill="midnightblue" stroke="midnightblue" points="589.26,-136.41 578.68,-137.07 587.36,-143.15 589.26,-136.41"/>
</g>
<!-- Node16 -->
<g id="node16" class="node">
<title>Node16</title>
<g id="a_node16"><a xlink:title=" ">
<polygon fill="none" stroke="#bfbfbf" points="612,-118 612,-137 681,-137 681,-118 612,-118"/>
<text text-anchor="middle" x="646.5" y="-125" font-family="Helvetica,sans-Serif" font-size="10.00">QTimeLine</text>
</a>
</g>
</g>
<!-- Node8&#45;&gt;Node16 -->
<g id="edge17" class="edge">
<title>Node8&#45;&gt;Node16</title>
<path fill="none" stroke="midnightblue" d="M1221.85,-192.34C1115.87,-189.38 885.81,-178.99 695.5,-143 690.96,-142.14 686.25,-141.03 681.61,-139.81"/>
<polygon fill="midnightblue" stroke="midnightblue" points="682.27,-136.36 671.69,-137.01 680.37,-143.1 682.27,-136.36"/>
</g>
<!-- Node17 -->
<g id="node17" class="node">
<title>Node17</title>
<g id="a_node17"><a xlink:title=" ">
<polygon fill="none" stroke="#bfbfbf" points="1929,-118 1929,-137 1988,-137 1988,-118 1929,-118"/>
<text text-anchor="middle" x="1958.5" y="-125" font-family="Helvetica,sans-Serif" font-size="10.00">QWidget</text>
</a>
</g>
</g>
<!-- Node8&#45;&gt;Node17 -->
<g id="edge18" class="edge">
<title>Node8&#45;&gt;Node17</title>
<path fill="none" stroke="midnightblue" d="M1339.06,-190.3C1446.09,-184.06 1680.34,-168.6 1876.5,-143 1890.44,-141.18 1905.61,-138.65 1919.08,-136.22"/>
<polygon fill="midnightblue" stroke="midnightblue" points="1919.8,-139.64 1928.99,-134.38 1918.53,-132.76 1919.8,-139.64"/>
</g>
<!-- Node18 -->
<g id="node18" class="node">
<title>Node18</title>
<g id="a_node18"><a xlink:href="gui__point_8h.html" target="_top" xlink:title=" ">
<polygon fill="none" stroke="black" points="877,-112.5 877,-142.5 992,-142.5 992,-112.5 877,-112.5"/>
<text text-anchor="start" x="885" y="-130.5" font-family="Helvetica,sans-Serif" font-size="10.00">src/gui/gui_point/gui</text>
<text text-anchor="middle" x="934.5" y="-119.5" font-family="Helvetica,sans-Serif" font-size="10.00">_point.h</text>
</a>
</g>
</g>
<!-- Node8&#45;&gt;Node18 -->
<g id="edge20" class="edge">
<title>Node8&#45;&gt;Node18</title>
<path fill="none" stroke="midnightblue" d="M1221.92,-183.6C1167.41,-174.23 1083.65,-159.46 1002.01,-143.26"/>
<polygon fill="midnightblue" stroke="midnightblue" points="1002.56,-139.8 992.07,-141.28 1001.19,-146.67 1002.56,-139.8"/>
</g>
<!-- Node24 -->
<g id="node24" class="node">
<title>Node24</title>
<g id="a_node24"><a xlink:href="gui__scene_8h.html" target="_top" xlink:title=" ">
<polygon fill="none" stroke="black" points="376,-112.5 376,-142.5 495,-142.5 495,-112.5 376,-112.5"/>
<text text-anchor="start" x="384" y="-130.5" font-family="Helvetica,sans-Serif" font-size="10.00">src/gui/gui_scene/gui</text>
<text text-anchor="middle" x="435.5" y="-119.5" font-family="Helvetica,sans-Serif" font-size="10.00">_scene.h</text>
</a>
</g>
</g>
<!-- Node8&#45;&gt;Node24 -->
<g id="edge27" class="edge">
<title>Node8&#45;&gt;Node24</title>
<path fill="none" stroke="midnightblue" d="M1221.81,-192.52C1093.53,-189.78 778.5,-179.69 505.36,-142.97"/>
<polygon fill="midnightblue" stroke="midnightblue" points="505.63,-139.48 495.25,-141.6 504.69,-146.41 505.63,-139.48"/>
</g>
<!-- Node27 -->
<g id="node27" class="node">
<title>Node27</title>
<g id="a_node27"><a xlink:href="gui__win_8h.html" target="_top" xlink:title=" ">
<polygon fill="none" stroke="black" points="1010,-112.5 1010,-142.5 1117,-142.5 1117,-112.5 1010,-112.5"/>
<text text-anchor="start" x="1018" y="-130.5" font-family="Helvetica,sans-Serif" font-size="10.00">src/gui/gui_win/gui</text>
<text text-anchor="middle" x="1063.5" y="-119.5" font-family="Helvetica,sans-Serif" font-size="10.00">_win.h</text>
</a>
</g>
</g>
<!-- Node8&#45;&gt;Node27 -->
<g id="edge32" class="edge">
<title>Node8&#45;&gt;Node27</title>
<path fill="none" stroke="midnightblue" d="M1233.68,-179.48C1200.43,-169.51 1155.6,-156.09 1120.3,-145.51"/>
<polygon fill="midnightblue" stroke="midnightblue" points="1121.19,-142.13 1110.61,-142.61 1119.18,-148.83 1121.19,-142.13"/>
</g>
<!-- Node29 -->
<g id="node29" class="node">
<title>Node29</title>
<g id="a_node29"><a xlink:href="gui__advantage__bar_8h.html" target="_top" xlink:title=" ">
<polygon fill="none" stroke="black" points="738,-112.5 738,-142.5 859,-142.5 859,-112.5 738,-112.5"/>
<text text-anchor="start" x="746" y="-130.5" font-family="Helvetica,sans-Serif" font-size="10.00">src/gui/screen_game</text>
<text text-anchor="middle" x="798.5" y="-119.5" font-family="Helvetica,sans-Serif" font-size="10.00">/gui_advantage_bar.h</text>
</a>
</g>
</g>
<!-- Node8&#45;&gt;Node29 -->
<g id="edge38" class="edge">
<title>Node8&#45;&gt;Node29</title>
<path fill="none" stroke="midnightblue" d="M1221.8,-187.92C1143.55,-180.12 1000.59,-164.65 869.27,-143.21"/>
<polygon fill="midnightblue" stroke="midnightblue" points="869.46,-139.7 859.03,-141.52 868.32,-146.6 869.46,-139.7"/>
</g>
<!-- Node32 -->
<g id="node32" class="node">
<title>Node32</title>
<g id="a_node32"><a xlink:href="gui__figure_8h.html" target="_top" xlink:title=" ">
<polygon fill="none" stroke="black" points="1135,-112.5 1135,-142.5 1252,-142.5 1252,-112.5 1135,-112.5"/>
<text text-anchor="start" x="1143" y="-130.5" font-family="Helvetica,sans-Serif" font-size="10.00">src/gui/screen_game</text>
<text text-anchor="middle" x="1193.5" y="-119.5" font-family="Helvetica,sans-Serif" font-size="10.00">/gui_figure.h</text>
</a>
</g>
</g>
<!-- Node8&#45;&gt;Node32 -->
<g id="edge42" class="edge">
<title>Node8&#45;&gt;Node32</title>
<path fill="none" stroke="midnightblue" d="M1261.62,-179.4C1249.65,-170.45 1233.97,-158.74 1220.67,-148.8"/>
<polygon fill="midnightblue" stroke="midnightblue" points="1222.45,-145.76 1212.34,-142.58 1218.26,-151.37 1222.45,-145.76"/>
</g>
<!-- Node19 -->
<g id="node19" class="node">
<title>Node19</title>
<g id="a_node19"><a xlink:title=" ">
<polygon fill="none" stroke="#bfbfbf" points="784.5,-56.5 784.5,-75.5 882.5,-75.5 882.5,-56.5 784.5,-56.5"/>
<text text-anchor="middle" x="833.5" y="-63.5" font-family="Helvetica,sans-Serif" font-size="10.00">QGraphicsObject</text>
</a>
</g>
</g>
<!-- Node18&#45;&gt;Node19 -->
<g id="edge21" class="edge">
<title>Node18&#45;&gt;Node19</title>
<path fill="none" stroke="midnightblue" d="M910.56,-112.4C894.37,-102.86 873.09,-90.32 857,-80.84"/>
<polygon fill="midnightblue" stroke="midnightblue" points="858.59,-77.72 848.2,-75.66 855.04,-83.75 858.59,-77.72"/>
</g>
<!-- Node20 -->
<g id="node20" class="node">
<title>Node20</title>
<g id="a_node20"><a xlink:title=" ">
<polygon fill="none" stroke="#bfbfbf" points="900.5,-56.5 900.5,-75.5 1024.5,-75.5 1024.5,-56.5 900.5,-56.5"/>
<text text-anchor="middle" x="962.5" y="-63.5" font-family="Helvetica,sans-Serif" font-size="10.00">QGraphicsSceneEvent</text>
</a>
</g>
</g>
<!-- Node18&#45;&gt;Node20 -->
<g id="edge22" class="edge">
<title>Node18&#45;&gt;Node20</title>
<path fill="none" stroke="midnightblue" d="M941.14,-112.4C945.04,-104.11 950,-93.55 954.17,-84.71"/>
<polygon fill="midnightblue" stroke="midnightblue" points="957.33,-86.2 958.43,-75.66 951,-83.22 957.33,-86.2"/>
</g>
<!-- Node21 -->
<g id="node21" class="node">
<title>Node21</title>
<g id="a_node21"><a xlink:title=" ">
<polygon fill="none" stroke="#bfbfbf" points="708.5,-56.5 708.5,-75.5 766.5,-75.5 766.5,-56.5 708.5,-56.5"/>
<text text-anchor="middle" x="737.5" y="-63.5" font-family="Helvetica,sans-Serif" font-size="10.00">QPainter</text>
</a>
</g>
</g>
<!-- Node18&#45;&gt;Node21 -->
<g id="edge23" class="edge">
<title>Node18&#45;&gt;Node21</title>
<path fill="none" stroke="midnightblue" d="M887.81,-112.4C853.62,-102.07 807.79,-88.23 775.76,-78.56"/>
<polygon fill="midnightblue" stroke="midnightblue" points="776.46,-75.11 765.88,-75.57 774.44,-81.81 776.46,-75.11"/>
</g>
<!-- Node22 -->
<g id="node22" class="node">
<title>Node22</title>
<g id="a_node22"><a xlink:href="utils_8h.html" target="_top" xlink:title=" ">
<polygon fill="none" stroke="black" points="1080.5,-56.5 1080.5,-75.5 1144.5,-75.5 1144.5,-56.5 1080.5,-56.5"/>
<text text-anchor="middle" x="1112.5" y="-63.5" font-family="Helvetica,sans-Serif" font-size="10.00">src/utils.h</text>
</a>
</g>
</g>
<!-- Node18&#45;&gt;Node22 -->
<g id="edge24" class="edge">
<title>Node18&#45;&gt;Node22</title>
<path fill="none" stroke="midnightblue" d="M976.68,-112.4C1007.31,-102.16 1048.27,-88.47 1077.17,-78.81"/>
<polygon fill="midnightblue" stroke="midnightblue" points="1078.48,-82.06 1086.86,-75.57 1076.27,-75.42 1078.48,-82.06"/>
</g>
<!-- Node22&#45;&gt;Node5 -->
<g id="edge25" class="edge">
<title>Node22&#45;&gt;Node5</title>
<path fill="none" stroke="midnightblue" d="M1102.86,-56.32C1093.99,-48.34 1080.63,-36.31 1069.89,-26.65"/>
<polygon fill="midnightblue" stroke="midnightblue" points="1072.09,-23.92 1062.32,-19.83 1067.41,-29.13 1072.09,-23.92"/>
</g>
<!-- Node23 -->
<g id="node23" class="node">
<title>Node23</title>
<g id="a_node23"><a xlink:title=" ">
<polygon fill="none" stroke="#bfbfbf" points="1097,-0.5 1097,-19.5 1142,-19.5 1142,-0.5 1097,-0.5"/>
<text text-anchor="middle" x="1119.5" y="-7.5" font-family="Helvetica,sans-Serif" font-size="10.00">utility</text>
</a>
</g>
</g>
<!-- Node22&#45;&gt;Node23 -->
<g id="edge26" class="edge">
<title>Node22&#45;&gt;Node23</title>
<path fill="none" stroke="midnightblue" d="M1113.66,-56.08C1114.58,-48.93 1115.92,-38.64 1117.08,-29.69"/>
<polygon fill="midnightblue" stroke="midnightblue" points="1120.55,-30.12 1118.37,-19.75 1113.61,-29.22 1120.55,-30.12"/>
</g>
<!-- Node24&#45;&gt;Node13 -->
<g id="edge28" class="edge">
<title>Node24&#45;&gt;Node13</title>
<path fill="none" stroke="midnightblue" d="M444.98,-112.4C450.67,-103.93 457.95,-93.1 463.98,-84.14"/>
<polygon fill="midnightblue" stroke="midnightblue" points="467.01,-85.91 469.68,-75.66 461.2,-82 467.01,-85.91"/>
</g>
<!-- Node24&#45;&gt;Node22 -->
<g id="edge31" class="edge">
<title>Node24&#45;&gt;Node22</title>
<path fill="none" stroke="midnightblue" d="M495.25,-113.41C498.37,-112.9 501.47,-112.42 504.5,-112 737.93,-79.69 798.81,-97.34 1033.5,-76 1045.41,-74.92 1058.3,-73.54 1070.15,-72.18"/>
<polygon fill="midnightblue" stroke="midnightblue" points="1070.72,-75.64 1080.25,-71.01 1069.91,-68.69 1070.72,-75.64"/>
</g>
<!-- Node25 -->
<g id="node25" class="node">
<title>Node25</title>
<g id="a_node25"><a xlink:title=" ">
<polygon fill="none" stroke="#bfbfbf" points="258.5,-56.5 258.5,-75.5 342.5,-75.5 342.5,-56.5 258.5,-56.5"/>
<text text-anchor="middle" x="300.5" y="-63.5" font-family="Helvetica,sans-Serif" font-size="10.00">QMouseEvent</text>
</a>
</g>
</g>
<!-- Node24&#45;&gt;Node25 -->
<g id="edge29" class="edge">
<title>Node24&#45;&gt;Node25</title>
<path fill="none" stroke="midnightblue" d="M403.51,-112.4C381.06,-102.51 351.29,-89.38 329.52,-79.79"/>
<polygon fill="midnightblue" stroke="midnightblue" points="330.71,-76.49 320.14,-75.66 327.88,-82.89 330.71,-76.49"/>
</g>
<!-- Node26 -->
<g id="node26" class="node">
<title>Node26</title>
<g id="a_node26"><a xlink:title=" ">
<polygon fill="none" stroke="#bfbfbf" points="360,-56.5 360,-75.5 409,-75.5 409,-56.5 360,-56.5"/>
<text text-anchor="middle" x="384.5" y="-63.5" font-family="Helvetica,sans-Serif" font-size="10.00">QPoint</text>
</a>
</g>
</g>
<!-- Node24&#45;&gt;Node26 -->
<g id="edge30" class="edge">
<title>Node24&#45;&gt;Node26</title>
<path fill="none" stroke="midnightblue" d="M423.41,-112.4C415.93,-103.66 406.28,-92.41 398.47,-83.3"/>
<polygon fill="midnightblue" stroke="midnightblue" points="401.09,-80.97 391.92,-75.66 395.77,-85.53 401.09,-80.97"/>
</g>
<!-- Node27&#45;&gt;Node5 -->
<g id="edge35" class="edge">
<title>Node27&#45;&gt;Node5</title>
<path fill="none" stroke="midnightblue" d="M1062.15,-112.34C1060.18,-91.62 1056.5,-53.02 1054.3,-29.9"/>
<polygon fill="midnightblue" stroke="midnightblue" points="1057.76,-29.29 1053.33,-19.67 1050.79,-29.96 1057.76,-29.29"/>
</g>
<!-- Node27&#45;&gt;Node14 -->
<g id="edge34" class="edge">
<title>Node27&#45;&gt;Node14</title>
<path fill="none" stroke="midnightblue" d="M1117.19,-113.55C1120,-113 1122.78,-112.48 1125.5,-112 1257.22,-88.92 1294,-93.45 1430.87,-76.04"/>
<polygon fill="midnightblue" stroke="midnightblue" points="1431.43,-79.5 1440.9,-74.75 1430.53,-72.56 1431.43,-79.5"/>
</g>
<!-- Node27&#45;&gt;Node20 -->
<g id="edge33" class="edge">
<title>Node27&#45;&gt;Node20</title>
<path fill="none" stroke="midnightblue" d="M1039.56,-112.4C1023.37,-102.86 1002.09,-90.32 986,-80.84"/>
<polygon fill="midnightblue" stroke="midnightblue" points="987.59,-77.72 977.2,-75.66 984.04,-83.75 987.59,-77.72"/>
</g>
<!-- Node27&#45;&gt;Node22 -->
<g id="edge37" class="edge">
<title>Node27&#45;&gt;Node22</title>
<path fill="none" stroke="midnightblue" d="M1075.11,-112.4C1082.23,-103.75 1091.38,-92.64 1098.85,-83.58"/>
<polygon fill="midnightblue" stroke="midnightblue" points="1101.71,-85.6 1105.37,-75.66 1096.31,-81.15 1101.71,-85.6"/>
</g>
<!-- Node28 -->
<g id="node28" class="node">
<title>Node28</title>
<g id="a_node28"><a xlink:title=" ">
<polygon fill="none" stroke="#bfbfbf" points="1162.5,-56.5 1162.5,-75.5 1248.5,-75.5 1248.5,-56.5 1162.5,-56.5"/>
<text text-anchor="middle" x="1205.5" y="-63.5" font-family="Helvetica,sans-Serif" font-size="10.00">QSvgRenderer</text>
</a>
</g>
</g>
<!-- Node27&#45;&gt;Node28 -->
<g id="edge36" class="edge">
<title>Node27&#45;&gt;Node28</title>
<path fill="none" stroke="midnightblue" d="M1097.15,-112.4C1120.98,-102.42 1152.65,-89.15 1175.59,-79.53"/>
<polygon fill="midnightblue" stroke="midnightblue" points="1176.97,-82.75 1184.84,-75.66 1174.26,-76.29 1176.97,-82.75"/>
</g>
<!-- Node29&#45;&gt;Node21 -->
<g id="edge40" class="edge">
<title>Node29&#45;&gt;Node21</title>
<path fill="none" stroke="midnightblue" d="M784.04,-112.4C774.91,-103.49 763.08,-91.95 753.64,-82.74"/>
<polygon fill="midnightblue" stroke="midnightblue" points="755.98,-80.13 746.38,-75.66 751.09,-85.15 755.98,-80.13"/>
</g>
<!-- Node30 -->
<g id="node30" class="node">
<title>Node30</title>
<g id="a_node30"><a xlink:title=" ">
<polygon fill="none" stroke="#bfbfbf" points="542,-56.5 542,-75.5 631,-75.5 631,-56.5 542,-56.5"/>
<text text-anchor="middle" x="586.5" y="-63.5" font-family="Helvetica,sans-Serif" font-size="10.00">QGraphicsItem</text>
</a>
</g>
</g>
<!-- Node29&#45;&gt;Node30 -->
<g id="edge39" class="edge">
<title>Node29&#45;&gt;Node30</title>
<path fill="none" stroke="midnightblue" d="M748.53,-112.47C711.31,-102.03 661.17,-87.96 626.57,-78.25"/>
<polygon fill="midnightblue" stroke="midnightblue" points="627.38,-74.84 616.81,-75.51 625.49,-81.58 627.38,-74.84"/>
</g>
<!-- Node31 -->
<g id="node31" class="node">
<title>Node31</title>
<g id="a_node31"><a xlink:title=" ">
<polygon fill="none" stroke="#bfbfbf" points="648.5,-56.5 648.5,-75.5 690.5,-75.5 690.5,-56.5 648.5,-56.5"/>
<text text-anchor="middle" x="669.5" y="-63.5" font-family="Helvetica,sans-Serif" font-size="10.00">QPen</text>
</a>
</g>
</g>
<!-- Node29&#45;&gt;Node31 -->
<g id="edge41" class="edge">
<title>Node29&#45;&gt;Node31</title>
<path fill="none" stroke="midnightblue" d="M767.93,-112.4C746.57,-102.55 718.28,-89.5 697.52,-79.92"/>
<polygon fill="midnightblue" stroke="midnightblue" points="698.82,-76.67 688.27,-75.66 695.89,-83.02 698.82,-76.67"/>
</g>
<!-- Node32&#45;&gt;Node7 -->
<g id="edge46" class="edge">
<title>Node32&#45;&gt;Node7</title>
<path fill="none" stroke="midnightblue" d="M1252.31,-120.07C1278.38,-117.35 1309.45,-114.29 1337.5,-112 1583.91,-91.87 1878.6,-75.93 1999.07,-69.77"/>
<polygon fill="midnightblue" stroke="midnightblue" points="1999.35,-73.26 2009.16,-69.25 1998.99,-66.27 1999.35,-73.26"/>
</g>
<!-- Node32&#45;&gt;Node14 -->
<g id="edge44" class="edge">
<title>Node32&#45;&gt;Node14</title>
<path fill="none" stroke="midnightblue" d="M1252.07,-114.86C1256.95,-113.89 1261.81,-112.93 1266.5,-112 1326.29,-100.16 1394.92,-86.62 1441.13,-77.52"/>
<polygon fill="midnightblue" stroke="midnightblue" points="1442.08,-80.9 1451.21,-75.53 1440.72,-74.03 1442.08,-80.9"/>
</g>
<!-- Node32&#45;&gt;Node22 -->
<g id="edge47" class="edge">
<title>Node32&#45;&gt;Node22</title>
<path fill="none" stroke="midnightblue" d="M1174.3,-112.4C1161.68,-103.13 1145.21,-91.03 1132.44,-81.65"/>
<polygon fill="midnightblue" stroke="midnightblue" points="1134.42,-78.76 1124.29,-75.66 1130.27,-84.4 1134.42,-78.76"/>
</g>
<!-- Node32&#45;&gt;Node28 -->
<g id="edge45" class="edge">
<title>Node32&#45;&gt;Node28</title>
<path fill="none" stroke="midnightblue" d="M1196.34,-112.4C1197.96,-104.38 1200.01,-94.23 1201.75,-85.57"/>
<polygon fill="midnightblue" stroke="midnightblue" points="1205.21,-86.15 1203.75,-75.66 1198.35,-84.77 1205.21,-86.15"/>
</g>
<!-- Node33 -->
<g id="node33" class="node">
<title>Node33</title>
<g id="a_node33"><a xlink:title=" ">
<polygon fill="none" stroke="#bfbfbf" points="1266.5,-56.5 1266.5,-75.5 1422.5,-75.5 1422.5,-56.5 1266.5,-56.5"/>
<text text-anchor="middle" x="1344.5" y="-63.5" font-family="Helvetica,sans-Serif" font-size="10.00">QGraphicsSceneMouseEvent</text>
</a>
</g>
</g>
<!-- Node32&#45;&gt;Node33 -->
<g id="edge43" class="edge">
<title>Node32&#45;&gt;Node33</title>
<path fill="none" stroke="midnightblue" d="M1229.28,-112.4C1254.73,-102.37 1288.6,-89.03 1313.02,-79.4"/>
<polygon fill="midnightblue" stroke="midnightblue" points="1314.51,-82.58 1322.53,-75.66 1311.94,-76.07 1314.51,-82.58"/>
</g>
<!-- Node34&#45;&gt;Node7 -->
<g id="edge50" class="edge">
<title>Node34&#45;&gt;Node7</title>
<path fill="none" stroke="midnightblue" d="M2006.51,-179.25C2014.21,-169.54 2023.97,-156.1 2030.5,-143 2039.74,-124.47 2046.38,-101.63 2050.3,-85.85"/>
<polygon fill="midnightblue" stroke="midnightblue" points="2053.79,-86.31 2052.67,-75.77 2046.98,-84.71 2053.79,-86.31"/>
</g>
<!-- Node34&#45;&gt;Node17 -->
<g id="edge49" class="edge">
<title>Node34&#45;&gt;Node17</title>
<path fill="none" stroke="midnightblue" d="M1986.69,-179.4C1981.3,-169.66 1974.09,-156.65 1968.31,-146.21"/>
<polygon fill="midnightblue" stroke="midnightblue" points="1971.22,-144.25 1963.32,-137.19 1965.1,-147.64 1971.22,-144.25"/>
</g>
<!-- Node35&#45;&gt;Node7 -->
<g id="edge53" class="edge">
<title>Node35&#45;&gt;Node7</title>
<path fill="none" stroke="midnightblue" d="M1757.83,-179.41C1800.58,-168.32 1855.47,-153.09 1876.5,-143 1898.07,-132.65 1899.16,-122.81 1920.5,-112 1949.23,-97.45 1983.72,-85.99 2010.51,-78.28"/>
<polygon fill="midnightblue" stroke="midnightblue" points="2011.69,-81.58 2020.38,-75.51 2009.8,-74.84 2011.69,-81.58"/>
</g>
<!-- Node35&#45;&gt;Node17 -->
<g id="edge52" class="edge">
<title>Node35&#45;&gt;Node17</title>
<path fill="none" stroke="midnightblue" d="M1760.16,-181.01C1803.14,-171.52 1862.75,-157.63 1914.5,-143 1917.67,-142.1 1920.96,-141.12 1924.24,-140.1"/>
<polygon fill="midnightblue" stroke="midnightblue" points="1925.49,-143.38 1933.95,-137 1923.36,-136.71 1925.49,-143.38"/>
</g>
<!-- Node36&#45;&gt;Node7 -->
<g id="edge56" class="edge">
<title>Node36&#45;&gt;Node7</title>
<path fill="none" stroke="midnightblue" d="M1897.22,-179.44C1934.93,-169.05 1981.1,-154.74 1997.5,-143 2018.91,-127.68 2035.79,-101.9 2045.46,-84.68"/>
<polygon fill="midnightblue" stroke="midnightblue" points="2048.65,-86.13 2050.3,-75.67 2042.48,-82.82 2048.65,-86.13"/>
</g>
<!-- Node36&#45;&gt;Node17 -->
<g id="edge55" class="edge">
<title>Node36&#45;&gt;Node17</title>
<path fill="none" stroke="midnightblue" d="M1867.67,-179.4C1887.48,-168.29 1914.92,-152.92 1934.44,-141.98"/>
<polygon fill="midnightblue" stroke="midnightblue" points="1936.31,-144.95 1943.32,-137.01 1932.88,-138.84 1936.31,-144.95"/>
</g>
<!-- Node37&#45;&gt;Node7 -->
<g id="edge58" class="edge">
<title>Node37&#45;&gt;Node7</title>
<path fill="none" stroke="midnightblue" d="M2230.15,-246.3C2210.75,-223.48 2156.23,-160.35 2106.5,-112 2095.8,-101.6 2083.15,-90.63 2073.01,-82.12"/>
<polygon fill="midnightblue" stroke="midnightblue" points="2075.11,-79.31 2065.17,-75.62 2070.64,-84.7 2075.11,-79.31"/>
</g>
<!-- Node38 -->
<g id="node38" class="node">
<title>Node38</title>
<g id="a_node38"><a xlink:href="board_8h.html" target="_top" xlink:title=" ">
<polygon fill="none" stroke="black" points="2291,-185 2291,-204 2384,-204 2384,-185 2291,-185"/>
<text text-anchor="middle" x="2337.5" y="-192" font-family="Helvetica,sans-Serif" font-size="10.00">../board/board.h</text>
</a>
</g>
</g>
<!-- Node37&#45;&gt;Node38 -->
<g id="edge59" class="edge">
<title>Node37&#45;&gt;Node38</title>
<path fill="none" stroke="midnightblue" d="M2251.83,-246.48C2268.16,-236.75 2295.1,-220.73 2314.41,-209.24"/>
<polygon fill="midnightblue" stroke="midnightblue" points="2316.39,-212.13 2323.2,-204.01 2312.82,-206.11 2316.39,-212.13"/>
</g>
<!-- Node39 -->
<g id="node39" class="node">
<title>Node39</title>
<g id="a_node39"><a xlink:href="figures_8h.html" target="_top" xlink:title=" ">
<polygon fill="none" stroke="black" points="2196.5,-118 2196.5,-137 2300.5,-137 2300.5,-118 2196.5,-118"/>
<text text-anchor="middle" x="2248.5" y="-125" font-family="Helvetica,sans-Serif" font-size="10.00">../figures/figures.h</text>
</a>
</g>
</g>
<!-- Node37&#45;&gt;Node39 -->
<g id="edge68" class="edge">
<title>Node37&#45;&gt;Node39</title>
<path fill="none" stroke="midnightblue" d="M2238.26,-246.31C2240.02,-225.99 2244.45,-175.05 2246.87,-147.28"/>
<polygon fill="midnightblue" stroke="midnightblue" points="2250.36,-147.52 2247.74,-137.26 2243.39,-146.91 2250.36,-147.52"/>
</g>
<!-- Node38&#45;&gt;Node39 -->
<g id="edge60" class="edge">
<title>Node38&#45;&gt;Node39</title>
<path fill="none" stroke="midnightblue" d="M2325.5,-184.73C2310.95,-174.11 2286.22,-156.05 2268.72,-143.26"/>
<polygon fill="midnightblue" stroke="midnightblue" points="2270.45,-140.2 2260.31,-137.13 2266.32,-145.85 2270.45,-140.2"/>
</g>
<!-- Node41 -->
<g id="node41" class="node">
<title>Node41</title>
<g id="a_node41"><a xlink:title=" ">
<polygon fill="none" stroke="#bfbfbf" points="2354.5,-56.5 2354.5,-75.5 2386.5,-75.5 2386.5,-56.5 2354.5,-56.5"/>
<text text-anchor="middle" x="2370.5" y="-63.5" font-family="Helvetica,sans-Serif" font-size="10.00">list</text>
</a>
</g>
</g>
<!-- Node38&#45;&gt;Node41 -->
<g id="edge66" class="edge">
<title>Node38&#45;&gt;Node41</title>
<path fill="none" stroke="midnightblue" d="M2346.83,-184.89C2356.15,-175.6 2369.87,-159.86 2375.5,-143 2381.77,-124.23 2379,-101.43 2375.62,-85.73"/>
<polygon fill="midnightblue" stroke="midnightblue" points="2378.94,-84.59 2373.17,-75.71 2372.14,-86.25 2378.94,-84.59"/>
</g>
<!-- Node43 -->
<g id="node43" class="node">
<title>Node43</title>
<g id="a_node43"><a xlink:title=" ">
<polygon fill="none" stroke="#bfbfbf" points="2319,-118 2319,-137 2366,-137 2366,-118 2319,-118"/>
<text text-anchor="middle" x="2342.5" y="-125" font-family="Helvetica,sans-Serif" font-size="10.00">vector</text>
</a>
</g>
</g>
<!-- Node38&#45;&gt;Node43 -->
<g id="edge67" class="edge">
<title>Node38&#45;&gt;Node43</title>
<path fill="none" stroke="midnightblue" d="M2338.17,-184.73C2338.91,-175.18 2340.11,-159.62 2341.06,-147.28"/>
<polygon fill="midnightblue" stroke="midnightblue" points="2344.56,-147.37 2341.84,-137.13 2337.58,-146.83 2344.56,-147.37"/>
</g>
<!-- Node39&#45;&gt;Node7 -->
<g id="edge61" class="edge">
<title>Node39&#45;&gt;Node7</title>
<path fill="none" stroke="midnightblue" d="M2220.7,-117.98C2186.85,-107.59 2129.53,-90.01 2091.85,-78.45"/>
<polygon fill="midnightblue" stroke="midnightblue" points="2092.83,-75.1 2082.24,-75.51 2090.78,-81.79 2092.83,-75.1"/>
</g>
<!-- Node39&#45;&gt;Node22 -->
<g id="edge62" class="edge">
<title>Node39&#45;&gt;Node22</title>
<path fill="none" stroke="midnightblue" d="M2196.11,-123.24C2145.34,-120.14 2066.16,-115.45 1997.5,-112 1625.82,-93.34 1527.54,-123.89 1154.62,-75.9"/>
<polygon fill="midnightblue" stroke="midnightblue" points="1155,-72.42 1144.64,-74.61 1154.1,-79.36 1155,-72.42"/>
</g>
<!-- Node40 -->
<g id="node40" class="node">
<title>Node40</title>
<g id="a_node40"><a xlink:title=" ">
<polygon fill="none" stroke="#bfbfbf" points="2187,-56.5 2187,-75.5 2238,-75.5 2238,-56.5 2187,-56.5"/>
<text text-anchor="middle" x="2212.5" y="-63.5" font-family="Helvetica,sans-Serif" font-size="10.00">math.h</text>
</a>
</g>
</g>
<!-- Node39&#45;&gt;Node40 -->
<g id="edge63" class="edge">
<title>Node39&#45;&gt;Node40</title>
<path fill="none" stroke="midnightblue" d="M2243.34,-117.98C2238.05,-109.23 2229.66,-95.37 2222.97,-84.31"/>
<polygon fill="midnightblue" stroke="midnightblue" points="2225.82,-82.25 2217.65,-75.51 2219.83,-85.88 2225.82,-82.25"/>
</g>
<!-- Node39&#45;&gt;Node41 -->
<g id="edge64" class="edge">
<title>Node39&#45;&gt;Node41</title>
<path fill="none" stroke="midnightblue" d="M2265.98,-117.98C2286.71,-107.86 2321.44,-90.93 2345.12,-79.38"/>
<polygon fill="midnightblue" stroke="midnightblue" points="2346.77,-82.47 2354.22,-74.94 2343.7,-76.18 2346.77,-82.47"/>
</g>
<!-- Node42 -->
<g id="node42" class="node">
<title>Node42</title>
<g id="a_node42"><a xlink:title=" ">
<polygon fill="none" stroke="#bfbfbf" points="2256.5,-56.5 2256.5,-75.5 2288.5,-75.5 2288.5,-56.5 2256.5,-56.5"/>
<text text-anchor="middle" x="2272.5" y="-63.5" font-family="Helvetica,sans-Serif" font-size="10.00">set</text>
</a>
</g>
</g>
<!-- Node39&#45;&gt;Node42 -->
<g id="edge65" class="edge">
<title>Node39&#45;&gt;Node42</title>
<path fill="none" stroke="midnightblue" d="M2251.94,-117.98C2255.4,-109.4 2260.83,-95.93 2265.25,-84.98"/>
<polygon fill="midnightblue" stroke="midnightblue" points="2268.57,-86.09 2269.07,-75.51 2262.08,-83.47 2268.57,-86.09"/>
</g>
</g>
</svg>
