<?xml version="1.0" encoding="UTF-8" standalone="no"?>
<!DOCTYPE svg PUBLIC "-//W3C//DTD SVG 1.1//EN"
 "http://www.w3.org/Graphics/SVG/1.1/DTD/svg11.dtd">
<!-- Generated by graphviz version 2.43.0 (0)
 -->
<!-- Title: src/main.cpp Pages: 1 -->
<svg width="2968pt" height="408pt"
 viewBox="0.00 0.00 2968.00 408.00" xmlns="http://www.w3.org/2000/svg" xmlns:xlink="http://www.w3.org/1999/xlink">
<g id="graph0" class="graph" transform="scale(1 1) rotate(0) translate(4 404)">
<title>src/main.cpp</title>
<!-- Node1 -->
<g id="node1" class="node">
<title>Node1</title>
<g id="a_node1"><a xlink:title=" ">
<polygon fill="#bfbfbf" stroke="black" points="1731,-380.5 1731,-399.5 1810,-399.5 1810,-380.5 1731,-380.5"/>
<text text-anchor="middle" x="1770.5" y="-387.5" font-family="Helvetica,sans-Serif" font-size="10.00">src/main.cpp</text>
</a>
</g>
</g>
<!-- Node2 -->
<g id="node2" class="node">
<title>Node2</title>
<g id="a_node2"><a xlink:href="main__window_8h.html" target="_top" xlink:title=" ">
<polygon fill="none" stroke="black" points="1653,-313.5 1653,-343.5 1772,-343.5 1772,-313.5 1653,-313.5"/>
<text text-anchor="start" x="1661" y="-331.5" font-family="Helvetica,sans-Serif" font-size="10.00">src/gui/main_window</text>
<text text-anchor="middle" x="1712.5" y="-320.5" font-family="Helvetica,sans-Serif" font-size="10.00">/main_window.h</text>
</a>
</g>
</g>
<!-- Node1&#45;&gt;Node2 -->
<g id="edge1" class="edge">
<title>Node1&#45;&gt;Node2</title>
<path fill="none" stroke="midnightblue" d="M1762.19,-380.48C1754.7,-372.79 1743.37,-361.17 1733.42,-350.96"/>
<polygon fill="midnightblue" stroke="midnightblue" points="1735.66,-348.24 1726.17,-343.52 1730.64,-353.13 1735.66,-348.24"/>
</g>
<!-- Node52 -->
<g id="node52" class="node">
<title>Node52</title>
<g id="a_node52"><a xlink:title=" ">
<polygon fill="none" stroke="#bfbfbf" points="1790,-319 1790,-338 1869,-338 1869,-319 1790,-319"/>
<text text-anchor="middle" x="1829.5" y="-326" font-family="Helvetica,sans-Serif" font-size="10.00">QApplication</text>
</a>
</g>
</g>
<!-- Node1&#45;&gt;Node52 -->
<g id="edge79" class="edge">
<title>Node1&#45;&gt;Node52</title>
<path fill="none" stroke="midnightblue" d="M1778.95,-380.48C1788.07,-371.28 1802.77,-356.46 1813.98,-345.16"/>
<polygon fill="midnightblue" stroke="midnightblue" points="1816.51,-347.57 1821.06,-338.01 1811.54,-342.65 1816.51,-347.57"/>
</g>
<!-- Node3 -->
<g id="node3" class="node">
<title>Node3</title>
<g id="a_node3"><a xlink:title=" ">
<polygon fill="none" stroke="#bfbfbf" points="0,-252 0,-271 87,-271 87,-252 0,-252"/>
<text text-anchor="middle" x="43.5" y="-259" font-family="Helvetica,sans-Serif" font-size="10.00">QMainWindow</text>
</a>
</g>
</g>
<!-- Node2&#45;&gt;Node3 -->
<g id="edge2" class="edge">
<title>Node2&#45;&gt;Node3</title>
<path fill="none" stroke="midnightblue" d="M1652.97,-327.56C1398.95,-327.5 404.55,-324.21 95.5,-277 90.25,-276.2 84.78,-275.04 79.43,-273.72"/>
<polygon fill="midnightblue" stroke="midnightblue" points="79.98,-270.25 69.42,-271.05 78.18,-277.01 79.98,-270.25"/>
</g>
<!-- Node4 -->
<g id="node4" class="node">
<title>Node4</title>
<g id="a_node4"><a xlink:title=" ">
<polygon fill="none" stroke="#bfbfbf" points="105,-252 105,-271 202,-271 202,-252 105,-252"/>
<text text-anchor="middle" x="153.5" y="-259" font-family="Helvetica,sans-Serif" font-size="10.00">QStackedWidget</text>
</a>
</g>
</g>
<!-- Node2&#45;&gt;Node4 -->
<g id="edge3" class="edge">
<title>Node2&#45;&gt;Node4</title>
<path fill="none" stroke="midnightblue" d="M1652.63,-327.02C1410.29,-324.82 501.4,-314.24 216.5,-277 209.55,-276.09 202.23,-274.76 195.15,-273.27"/>
<polygon fill="midnightblue" stroke="midnightblue" points="195.53,-269.77 185.01,-271 194.01,-276.6 195.53,-269.77"/>
</g>
<!-- Node5 -->
<g id="node5" class="node">
<title>Node5</title>
<g id="a_node5"><a xlink:title=" ">
<polygon fill="none" stroke="#bfbfbf" points="707,-0.5 707,-19.5 760,-19.5 760,-0.5 707,-0.5"/>
<text text-anchor="middle" x="733.5" y="-7.5" font-family="Helvetica,sans-Serif" font-size="10.00">QString</text>
</a>
</g>
</g>
<!-- Node2&#45;&gt;Node5 -->
<g id="edge4" class="edge">
<title>Node2&#45;&gt;Node5</title>
<path fill="none" stroke="midnightblue" d="M1652.57,-325.36C1375.31,-315.06 230.5,-268.15 230.5,-195.5 230.5,-195.5 230.5,-195.5 230.5,-126.5 230.5,-90.47 240.28,-75.62 270.5,-56 340.61,-10.49 600.04,-9.15 696.8,-10.31"/>
<polygon fill="midnightblue" stroke="midnightblue" points="696.93,-13.81 706.98,-10.45 697.02,-6.81 696.93,-13.81"/>
</g>
<!-- Node6 -->
<g id="node6" class="node">
<title>Node6</title>
<g id="a_node6"><a xlink:title=" ">
<polygon fill="none" stroke="#bfbfbf" points="1839,-0.5 1839,-19.5 1894,-19.5 1894,-0.5 1839,-0.5"/>
<text text-anchor="middle" x="1866.5" y="-7.5" font-family="Helvetica,sans-Serif" font-size="10.00">QVector</text>
</a>
</g>
</g>
<!-- Node2&#45;&gt;Node6 -->
<g id="edge5" class="edge">
<title>Node2&#45;&gt;Node6</title>
<path fill="none" stroke="midnightblue" d="M1708.94,-313.12C1702.89,-285.54 1693.22,-223.98 1714.5,-179 1715.04,-177.85 1813.37,-69.51 1851.57,-27.44"/>
<polygon fill="midnightblue" stroke="midnightblue" points="1854.23,-29.72 1858.36,-19.96 1849.05,-25.01 1854.23,-29.72"/>
</g>
<!-- Node7 -->
<g id="node7" class="node">
<title>Node7</title>
<g id="a_node7"><a xlink:href="constants_8h.html" target="_top" xlink:title=" ">
<polygon fill="none" stroke="black" points="1854.5,-56.5 1854.5,-75.5 1944.5,-75.5 1944.5,-56.5 1854.5,-56.5"/>
<text text-anchor="middle" x="1899.5" y="-63.5" font-family="Helvetica,sans-Serif" font-size="10.00">src/constants.h</text>
</a>
</g>
</g>
<!-- Node2&#45;&gt;Node7 -->
<g id="edge6" class="edge">
<title>Node2&#45;&gt;Node7</title>
<path fill="none" stroke="midnightblue" d="M1710.76,-313.13C1708.09,-285.03 1705.82,-221.84 1732.5,-179 1737.03,-171.72 1833.02,-109.62 1877.38,-81.15"/>
<polygon fill="midnightblue" stroke="midnightblue" points="1879.48,-83.96 1886.01,-75.62 1875.7,-78.07 1879.48,-83.96"/>
</g>
<!-- Node8 -->
<g id="node8" class="node">
<title>Node8</title>
<g id="a_node8"><a xlink:href="screen__game_8h.html" target="_top" xlink:title=" ">
<polygon fill="none" stroke="black" points="1105,-179.5 1105,-209.5 1222,-209.5 1222,-179.5 1105,-179.5"/>
<text text-anchor="start" x="1113" y="-197.5" font-family="Helvetica,sans-Serif" font-size="10.00">src/gui/screen_game</text>
<text text-anchor="middle" x="1163.5" y="-186.5" font-family="Helvetica,sans-Serif" font-size="10.00">/screen_game.h</text>
</a>
</g>
</g>
<!-- Node2&#45;&gt;Node8 -->
<g id="edge8" class="edge">
<title>Node2&#45;&gt;Node8</title>
<path fill="none" stroke="midnightblue" d="M1654.27,-313.5C1552.04,-288.92 1340.84,-238.14 1231.86,-211.94"/>
<polygon fill="midnightblue" stroke="midnightblue" points="1232.5,-208.49 1221.96,-209.56 1230.87,-215.3 1232.5,-208.49"/>
</g>
<!-- Node34 -->
<g id="node34" class="node">
<title>Node34</title>
<g id="a_node34"><a xlink:href="screen__liderboard_8h.html" target="_top" xlink:title=" ">
<polygon fill="none" stroke="black" points="1741,-179.5 1741,-209.5 1880,-209.5 1880,-179.5 1741,-179.5"/>
<text text-anchor="start" x="1749" y="-197.5" font-family="Helvetica,sans-Serif" font-size="10.00">src/gui/screen_liderboard</text>
<text text-anchor="middle" x="1810.5" y="-186.5" font-family="Helvetica,sans-Serif" font-size="10.00">/screen_liderboard.h</text>
</a>
</g>
</g>
<!-- Node2&#45;&gt;Node34 -->
<g id="edge48" class="edge">
<title>Node2&#45;&gt;Node34</title>
<path fill="none" stroke="midnightblue" d="M1722.99,-313.37C1740.01,-290.45 1773.78,-244.97 1794.03,-217.69"/>
<polygon fill="midnightblue" stroke="midnightblue" points="1796.94,-219.64 1800.09,-209.52 1791.32,-215.47 1796.94,-219.64"/>
</g>
<!-- Node35 -->
<g id="node35" class="node">
<title>Node35</title>
<g id="a_node35"><a xlink:href="screen__menu_8h.html" target="_top" xlink:title=" ">
<polygon fill="none" stroke="black" points="1898,-179.5 1898,-209.5 2015,-209.5 2015,-179.5 1898,-179.5"/>
<text text-anchor="start" x="1906" y="-197.5" font-family="Helvetica,sans-Serif" font-size="10.00">src/gui/screen_menu</text>
<text text-anchor="middle" x="1956.5" y="-186.5" font-family="Helvetica,sans-Serif" font-size="10.00">/screen_menu.h</text>
</a>
</g>
</g>
<!-- Node2&#45;&gt;Node35 -->
<g id="edge52" class="edge">
<title>Node2&#45;&gt;Node35</title>
<path fill="none" stroke="midnightblue" d="M1738.61,-313.37C1782.73,-289.51 1872.05,-241.19 1921.53,-214.42"/>
<polygon fill="midnightblue" stroke="midnightblue" points="1923.45,-217.36 1930.58,-209.52 1920.11,-211.2 1923.45,-217.36"/>
</g>
<!-- Node36 -->
<g id="node36" class="node">
<title>Node36</title>
<g id="a_node36"><a xlink:href="screen__settings_8h.html" target="_top" xlink:title=" ">
<polygon fill="none" stroke="black" points="2033.5,-179.5 2033.5,-209.5 2161.5,-209.5 2161.5,-179.5 2033.5,-179.5"/>
<text text-anchor="start" x="2041.5" y="-197.5" font-family="Helvetica,sans-Serif" font-size="10.00">src/gui/screen_settings</text>
<text text-anchor="middle" x="2097.5" y="-186.5" font-family="Helvetica,sans-Serif" font-size="10.00">/screen_settings.h</text>
</a>
</g>
</g>
<!-- Node2&#45;&gt;Node36 -->
<g id="edge55" class="edge">
<title>Node2&#45;&gt;Node36</title>
<path fill="none" stroke="midnightblue" d="M1753.34,-313.5C1824.23,-289.19 1969.86,-239.26 2046.99,-212.82"/>
<polygon fill="midnightblue" stroke="midnightblue" points="2048.18,-216.11 2056.5,-209.56 2045.91,-209.49 2048.18,-216.11"/>
</g>
<!-- Node37 -->
<g id="node37" class="node">
<title>Node37</title>
<g id="a_node37"><a xlink:href="engine_8h.html" target="_top" xlink:title=" ">
<polygon fill="none" stroke="black" points="2139.5,-252 2139.5,-271 2277.5,-271 2277.5,-252 2139.5,-252"/>
<text text-anchor="middle" x="2208.5" y="-259" font-family="Helvetica,sans-Serif" font-size="10.00">src/logic/engine/engine.h</text>
</a>
</g>
</g>
<!-- Node2&#45;&gt;Node37 -->
<g id="edge58" class="edge">
<title>Node2&#45;&gt;Node37</title>
<path fill="none" stroke="midnightblue" d="M1772.28,-314.6C1775.39,-314.03 1778.48,-313.49 1781.5,-313 1902.19,-293.22 2043.3,-278.07 2129.25,-269.73"/>
<polygon fill="midnightblue" stroke="midnightblue" points="2129.84,-273.19 2139.46,-268.75 2129.17,-266.22 2129.84,-273.19"/>
</g>
<!-- Node44 -->
<g id="node44" class="node">
<title>Node44</title>
<g id="a_node44"><a xlink:href="storage_2liderboard_2liderboard_8h.html" target="_top" xlink:title=" ">
<polygon fill="none" stroke="black" points="2584,-246.5 2584,-276.5 2707,-276.5 2707,-246.5 2584,-246.5"/>
<text text-anchor="start" x="2592" y="-264.5" font-family="Helvetica,sans-Serif" font-size="10.00">src/storage/liderboard</text>
<text text-anchor="middle" x="2645.5" y="-253.5" font-family="Helvetica,sans-Serif" font-size="10.00">/liderboard.h</text>
</a>
</g>
</g>
<!-- Node2&#45;&gt;Node44 -->
<g id="edge70" class="edge">
<title>Node2&#45;&gt;Node44</title>
<path fill="none" stroke="midnightblue" d="M1772.25,-314.38C1775.37,-313.87 1778.47,-313.41 1781.5,-313 1933.99,-292.64 2395.35,-272.54 2573.88,-265.31"/>
<polygon fill="midnightblue" stroke="midnightblue" points="2574.1,-268.8 2583.95,-264.9 2573.82,-261.81 2574.1,-268.8"/>
</g>
<!-- Node7&#45;&gt;Node6 -->
<g id="edge7" class="edge">
<title>Node7&#45;&gt;Node6</title>
<path fill="none" stroke="midnightblue" d="M1894.05,-56.08C1889.49,-48.61 1882.83,-37.72 1877.21,-28.52"/>
<polygon fill="midnightblue" stroke="midnightblue" points="1880.05,-26.46 1871.85,-19.75 1874.08,-30.11 1880.05,-26.46"/>
</g>
<!-- Node8&#45;&gt;Node5 -->
<g id="edge16" class="edge">
<title>Node8&#45;&gt;Node5</title>
<path fill="none" stroke="midnightblue" d="M1104.78,-192.31C912.99,-188.12 315.57,-172.74 287.5,-143 260.96,-114.88 261.57,-84.68 287.5,-56 314.78,-25.82 595.05,-14.92 696.82,-11.94"/>
<polygon fill="midnightblue" stroke="midnightblue" points="697.04,-15.43 706.94,-11.65 696.84,-8.44 697.04,-15.43"/>
</g>
<!-- Node8&#45;&gt;Node7 -->
<g id="edge19" class="edge">
<title>Node8&#45;&gt;Node7</title>
<path fill="none" stroke="midnightblue" d="M1222.21,-194.48C1325.92,-194.84 1547.6,-189.45 1727.5,-143 1782.79,-128.72 1842.82,-98.48 1875.3,-80.75"/>
<polygon fill="midnightblue" stroke="midnightblue" points="1877.41,-83.58 1884.46,-75.68 1874.02,-77.46 1877.41,-83.58"/>
</g>
<!-- Node9 -->
<g id="node9" class="node">
<title>Node9</title>
<g id="a_node9"><a xlink:title=" ">
<polygon fill="none" stroke="#bfbfbf" points="745.5,-118 745.5,-137 783.5,-137 783.5,-118 745.5,-118"/>
<text text-anchor="middle" x="764.5" y="-125" font-family="Helvetica,sans-Serif" font-size="10.00">QDir</text>
</a>
</g>
</g>
<!-- Node8&#45;&gt;Node9 -->
<g id="edge9" class="edge">
<title>Node8&#45;&gt;Node9</title>
<path fill="none" stroke="midnightblue" d="M1104.96,-191.69C1030.69,-188 899.4,-176.84 792.5,-143 791.03,-142.54 789.55,-142 788.07,-141.41"/>
<polygon fill="midnightblue" stroke="midnightblue" points="789.17,-138.06 778.63,-137.01 786.21,-144.4 789.17,-138.06"/>
</g>
<!-- Node10 -->
<g id="node10" class="node">
<title>Node10</title>
<g id="a_node10"><a xlink:title=" ">
<polygon fill="none" stroke="#bfbfbf" points="801.5,-118 801.5,-137 935.5,-137 935.5,-118 801.5,-118"/>
<text text-anchor="middle" x="868.5" y="-125" font-family="Helvetica,sans-Serif" font-size="10.00">QGraphicsColorizeEffect</text>
</a>
</g>
</g>
<!-- Node8&#45;&gt;Node10 -->
<g id="edge10" class="edge">
<title>Node8&#45;&gt;Node10</title>
<path fill="none" stroke="midnightblue" d="M1104.86,-180.58C1049.89,-168.47 968.65,-150.57 917.17,-139.22"/>
<polygon fill="midnightblue" stroke="midnightblue" points="917.8,-135.78 907.28,-137.05 916.3,-142.62 917.8,-135.78"/>
</g>
<!-- Node11 -->
<g id="node11" class="node">
<title>Node11</title>
<g id="a_node11"><a xlink:title=" ">
<polygon fill="none" stroke="#bfbfbf" points="953.5,-118 953.5,-137 1075.5,-137 1075.5,-118 953.5,-118"/>
<text text-anchor="middle" x="1014.5" y="-125" font-family="Helvetica,sans-Serif" font-size="10.00">QGraphicsEllipseItem</text>
</a>
</g>
</g>
<!-- Node8&#45;&gt;Node11 -->
<g id="edge11" class="edge">
<title>Node8&#45;&gt;Node11</title>
<path fill="none" stroke="midnightblue" d="M1131.17,-179.4C1105.03,-167.99 1068.55,-152.08 1043.38,-141.1"/>
<polygon fill="midnightblue" stroke="midnightblue" points="1044.57,-137.8 1034,-137.01 1041.77,-144.21 1044.57,-137.8"/>
</g>
<!-- Node12 -->
<g id="node12" class="node">
<title>Node12</title>
<g id="a_node12"><a xlink:title=" ">
<polygon fill="none" stroke="#bfbfbf" points="1093.5,-118 1093.5,-137 1233.5,-137 1233.5,-118 1093.5,-118"/>
<text text-anchor="middle" x="1163.5" y="-125" font-family="Helvetica,sans-Serif" font-size="10.00">QGraphicsItemAnimation</text>
</a>
</g>
</g>
<!-- Node8&#45;&gt;Node12 -->
<g id="edge12" class="edge">
<title>Node8&#45;&gt;Node12</title>
<path fill="none" stroke="midnightblue" d="M1163.5,-179.4C1163.5,-170.06 1163.5,-157.71 1163.5,-147.52"/>
<polygon fill="midnightblue" stroke="midnightblue" points="1167,-147.19 1163.5,-137.19 1160,-147.19 1167,-147.19"/>
</g>
<!-- Node13 -->
<g id="node13" class="node">
<title>Node13</title>
<g id="a_node13"><a xlink:title=" ">
<polygon fill="none" stroke="#bfbfbf" points="655.5,-56.5 655.5,-75.5 751.5,-75.5 751.5,-56.5 655.5,-56.5"/>
<text text-anchor="middle" x="703.5" y="-63.5" font-family="Helvetica,sans-Serif" font-size="10.00">QGraphicsScene</text>
</a>
</g>
</g>
<!-- Node8&#45;&gt;Node13 -->
<g id="edge13" class="edge">
<title>Node8&#45;&gt;Node13</title>
<path fill="none" stroke="midnightblue" d="M1104.78,-193.72C944.51,-193.71 508.64,-189.37 465.5,-143 456.12,-132.91 456.71,-122.61 465.5,-112 468.4,-108.5 575.76,-89.23 645.29,-77.07"/>
<polygon fill="midnightblue" stroke="midnightblue" points="646,-80.5 655.25,-75.33 644.8,-73.6 646,-80.5"/>
</g>
<!-- Node14 -->
<g id="node14" class="node">
<title>Node14</title>
<g id="a_node14"><a xlink:title=" ">
<polygon fill="none" stroke="#bfbfbf" points="1435,-56.5 1435,-75.5 1542,-75.5 1542,-56.5 1435,-56.5"/>
<text text-anchor="middle" x="1488.5" y="-63.5" font-family="Helvetica,sans-Serif" font-size="10.00">QGraphicsSvgItem</text>
</a>
</g>
</g>
<!-- Node8&#45;&gt;Node14 -->
<g id="edge14" class="edge">
<title>Node8&#45;&gt;Node14</title>
<path fill="none" stroke="midnightblue" d="M1222.25,-190.09C1325.6,-183.47 1531.07,-167.4 1552.5,-143 1561.59,-132.65 1558.85,-124.23 1552.5,-112 1545.35,-98.23 1531.83,-87.78 1519.05,-80.44"/>
<polygon fill="midnightblue" stroke="midnightblue" points="1520.46,-77.23 1509.98,-75.64 1517.18,-83.41 1520.46,-77.23"/>
</g>
<!-- Node15 -->
<g id="node15" class="node">
<title>Node15</title>
<g id="a_node15"><a xlink:title=" ">
<polygon fill="none" stroke="#bfbfbf" points="1251.5,-118 1251.5,-137 1331.5,-137 1331.5,-118 1251.5,-118"/>
<text text-anchor="middle" x="1291.5" y="-125" font-family="Helvetica,sans-Serif" font-size="10.00">QInputDialog</text>
</a>
</g>
</g>
<!-- Node8&#45;&gt;Node15 -->
<g id="edge15" class="edge">
<title>Node8&#45;&gt;Node15</title>
<path fill="none" stroke="midnightblue" d="M1191.27,-179.4C1213.44,-168.14 1244.24,-152.5 1265.83,-141.54"/>
<polygon fill="midnightblue" stroke="midnightblue" points="1267.42,-144.66 1274.75,-137.01 1264.25,-138.41 1267.42,-144.66"/>
</g>
<!-- Node16 -->
<g id="node16" class="node">
<title>Node16</title>
<g id="a_node16"><a xlink:title=" ">
<polygon fill="none" stroke="#bfbfbf" points="1350,-118 1350,-137 1419,-137 1419,-118 1350,-118"/>
<text text-anchor="middle" x="1384.5" y="-125" font-family="Helvetica,sans-Serif" font-size="10.00">QTimeLine</text>
</a>
</g>
</g>
<!-- Node8&#45;&gt;Node16 -->
<g id="edge17" class="edge">
<title>Node8&#45;&gt;Node16</title>
<path fill="none" stroke="midnightblue" d="M1214.78,-179.46C1250.21,-169.62 1298.35,-155.95 1340.5,-143 1343.4,-142.11 1346.41,-141.16 1349.42,-140.2"/>
<polygon fill="midnightblue" stroke="midnightblue" points="1350.53,-143.52 1358.96,-137.11 1348.37,-136.86 1350.53,-143.52"/>
</g>
<!-- Node17 -->
<g id="node17" class="node">
<title>Node17</title>
<g id="a_node17"><a xlink:title=" ">
<polygon fill="none" stroke="#bfbfbf" points="1927,-118 1927,-137 1986,-137 1986,-118 1927,-118"/>
<text text-anchor="middle" x="1956.5" y="-125" font-family="Helvetica,sans-Serif" font-size="10.00">QWidget</text>
</a>
</g>
</g>
<!-- Node8&#45;&gt;Node17 -->
<g id="edge18" class="edge">
<title>Node8&#45;&gt;Node17</title>
<path fill="none" stroke="midnightblue" d="M1222.09,-190C1339.04,-182.82 1609.69,-165.2 1836.5,-143 1863.3,-140.38 1893.39,-136.74 1916.74,-133.76"/>
<polygon fill="midnightblue" stroke="midnightblue" points="1917.48,-137.2 1926.95,-132.45 1916.59,-130.25 1917.48,-137.2"/>
</g>
<!-- Node18 -->
<g id="node18" class="node">
<title>Node18</title>
<g id="a_node18"><a xlink:href="gui__point_8h.html" target="_top" xlink:title=" ">
<polygon fill="none" stroke="black" points="475,-112.5 475,-142.5 590,-142.5 590,-112.5 475,-112.5"/>
<text text-anchor="start" x="483" y="-130.5" font-family="Helvetica,sans-Serif" font-size="10.00">src/gui/gui_point/gui</text>
<text text-anchor="middle" x="532.5" y="-119.5" font-family="Helvetica,sans-Serif" font-size="10.00">_point.h</text>
</a>
</g>
</g>
<!-- Node8&#45;&gt;Node18 -->
<g id="edge20" class="edge">
<title>Node8&#45;&gt;Node18</title>
<path fill="none" stroke="midnightblue" d="M1104.64,-190.71C1003.4,-185.37 789.66,-171.73 600.16,-143.14"/>
<polygon fill="midnightblue" stroke="midnightblue" points="600.43,-139.64 590.01,-141.59 599.37,-146.56 600.43,-139.64"/>
</g>
<!-- Node24 -->
<g id="node24" class="node">
<title>Node24</title>
<g id="a_node24"><a xlink:href="gui__scene_8h.html" target="_top" xlink:title=" ">
<polygon fill="none" stroke="black" points="608,-112.5 608,-142.5 727,-142.5 727,-112.5 608,-112.5"/>
<text text-anchor="start" x="616" y="-130.5" font-family="Helvetica,sans-Serif" font-size="10.00">src/gui/gui_scene/gui</text>
<text text-anchor="middle" x="667.5" y="-119.5" font-family="Helvetica,sans-Serif" font-size="10.00">_scene.h</text>
</a>
</g>
</g>
<!-- Node8&#45;&gt;Node24 -->
<g id="edge27" class="edge">
<title>Node8&#45;&gt;Node24</title>
<path fill="none" stroke="midnightblue" d="M1104.91,-188.24C1024.34,-180.65 874.67,-165.2 737.16,-143.01"/>
<polygon fill="midnightblue" stroke="midnightblue" points="737.71,-139.56 727.28,-141.4 736.58,-146.47 737.71,-139.56"/>
</g>
<!-- Node27 -->
<g id="node27" class="node">
<title>Node27</title>
<g id="a_node27"><a xlink:href="gui__win_8h.html" target="_top" xlink:title=" ">
<polygon fill="none" stroke="black" points="1437,-112.5 1437,-142.5 1544,-142.5 1544,-112.5 1437,-112.5"/>
<text text-anchor="start" x="1445" y="-130.5" font-family="Helvetica,sans-Serif" font-size="10.00">src/gui/gui_win/gui</text>
<text text-anchor="middle" x="1490.5" y="-119.5" font-family="Helvetica,sans-Serif" font-size="10.00">_win.h</text>
</a>
</g>
</g>
<!-- Node8&#45;&gt;Node27 -->
<g id="edge32" class="edge">
<title>Node8&#45;&gt;Node27</title>
<path fill="none" stroke="midnightblue" d="M1222.08,-182.94C1273.47,-173.53 1350.44,-159.08 1427.08,-143.04"/>
<polygon fill="midnightblue" stroke="midnightblue" points="1427.85,-146.46 1436.91,-140.98 1426.41,-139.61 1427.85,-146.46"/>
</g>
<!-- Node29 -->
<g id="node29" class="node">
<title>Node29</title>
<g id="a_node29"><a xlink:href="gui__advantage__bar_8h.html" target="_top" xlink:title=" ">
<polygon fill="none" stroke="black" points="297,-112.5 297,-142.5 418,-142.5 418,-112.5 297,-112.5"/>
<text text-anchor="start" x="305" y="-130.5" font-family="Helvetica,sans-Serif" font-size="10.00">src/gui/screen_game</text>
<text text-anchor="middle" x="357.5" y="-119.5" font-family="Helvetica,sans-Serif" font-size="10.00">/gui_advantage_bar.h</text>
</a>
</g>
</g>
<!-- Node8&#45;&gt;Node29 -->
<g id="edge38" class="edge">
<title>Node8&#45;&gt;Node29</title>
<path fill="none" stroke="midnightblue" d="M1104.98,-191.88C980.68,-187.91 681.31,-175.52 432.5,-143 431.21,-142.83 429.9,-142.65 428.59,-142.47"/>
<polygon fill="midnightblue" stroke="midnightblue" points="428.8,-138.96 418.39,-140.92 427.75,-145.88 428.8,-138.96"/>
</g>
<!-- Node32 -->
<g id="node32" class="node">
<title>Node32</title>
<g id="a_node32"><a xlink:href="gui__figure_8h.html" target="_top" xlink:title=" ">
<polygon fill="none" stroke="black" points="1601,-112.5 1601,-142.5 1718,-142.5 1718,-112.5 1601,-112.5"/>
<text text-anchor="start" x="1609" y="-130.5" font-family="Helvetica,sans-Serif" font-size="10.00">src/gui/screen_game</text>
<text text-anchor="middle" x="1659.5" y="-119.5" font-family="Helvetica,sans-Serif" font-size="10.00">/gui_figure.h</text>
</a>
</g>
</g>
<!-- Node8&#45;&gt;Node32 -->
<g id="edge42" class="edge">
<title>Node8&#45;&gt;Node32</title>
<path fill="none" stroke="midnightblue" d="M1222.2,-187.94C1304.06,-179.86 1457.03,-163.56 1586.5,-143 1587.79,-142.79 1589.1,-142.58 1590.41,-142.37"/>
<polygon fill="midnightblue" stroke="midnightblue" points="1591.35,-145.76 1600.6,-140.6 1590.15,-138.86 1591.35,-145.76"/>
</g>
<!-- Node19 -->
<g id="node19" class="node">
<title>Node19</title>
<g id="a_node19"><a xlink:title=" ">
<polygon fill="none" stroke="#bfbfbf" points="539.5,-56.5 539.5,-75.5 637.5,-75.5 637.5,-56.5 539.5,-56.5"/>
<text text-anchor="middle" x="588.5" y="-63.5" font-family="Helvetica,sans-Serif" font-size="10.00">QGraphicsObject</text>
</a>
</g>
</g>
<!-- Node18&#45;&gt;Node19 -->
<g id="edge21" class="edge">
<title>Node18&#45;&gt;Node19</title>
<path fill="none" stroke="midnightblue" d="M545.77,-112.4C554.08,-103.58 564.8,-92.18 573.42,-83.02"/>
<polygon fill="midnightblue" stroke="midnightblue" points="576.05,-85.34 580.35,-75.66 570.95,-80.54 576.05,-85.34"/>
</g>
<!-- Node20 -->
<g id="node20" class="node">
<title>Node20</title>
<g id="a_node20"><a xlink:title=" ">
<polygon fill="none" stroke="#bfbfbf" points="769.5,-56.5 769.5,-75.5 893.5,-75.5 893.5,-56.5 769.5,-56.5"/>
<text text-anchor="middle" x="831.5" y="-63.5" font-family="Helvetica,sans-Serif" font-size="10.00">QGraphicsSceneEvent</text>
</a>
</g>
</g>
<!-- Node18&#45;&gt;Node20 -->
<g id="edge22" class="edge">
<title>Node18&#45;&gt;Node20</title>
<path fill="none" stroke="midnightblue" d="M590.07,-113.76C592.92,-113.16 595.74,-112.57 598.5,-112 658.83,-99.55 728.18,-86.29 775.42,-77.42"/>
<polygon fill="midnightblue" stroke="midnightblue" points="776.27,-80.82 785.45,-75.54 774.98,-73.94 776.27,-80.82"/>
</g>
<!-- Node21 -->
<g id="node21" class="node">
<title>Node21</title>
<g id="a_node21"><a xlink:title=" ">
<polygon fill="none" stroke="#bfbfbf" points="463.5,-56.5 463.5,-75.5 521.5,-75.5 521.5,-56.5 463.5,-56.5"/>
<text text-anchor="middle" x="492.5" y="-63.5" font-family="Helvetica,sans-Serif" font-size="10.00">QPainter</text>
</a>
</g>
</g>
<!-- Node18&#45;&gt;Node21 -->
<g id="edge23" class="edge">
<title>Node18&#45;&gt;Node21</title>
<path fill="none" stroke="midnightblue" d="M523.02,-112.4C517.33,-103.93 510.05,-93.1 504.02,-84.14"/>
<polygon fill="midnightblue" stroke="midnightblue" points="506.8,-82 498.32,-75.66 500.99,-85.91 506.8,-82"/>
</g>
<!-- Node22 -->
<g id="node22" class="node">
<title>Node22</title>
<g id="a_node22"><a xlink:href="utils_8h.html" target="_top" xlink:title=" ">
<polygon fill="none" stroke="black" points="1734.5,-56.5 1734.5,-75.5 1798.5,-75.5 1798.5,-56.5 1734.5,-56.5"/>
<text text-anchor="middle" x="1766.5" y="-63.5" font-family="Helvetica,sans-Serif" font-size="10.00">src/utils.h</text>
</a>
</g>
</g>
<!-- Node18&#45;&gt;Node22 -->
<g id="edge24" class="edge">
<title>Node18&#45;&gt;Node22</title>
<path fill="none" stroke="midnightblue" d="M590.34,-113.16C593.09,-112.73 595.82,-112.33 598.5,-112 1092.51,-50.38 1226.44,-136.83 1724.41,-75.87"/>
<polygon fill="midnightblue" stroke="midnightblue" points="1724.87,-79.34 1734.37,-74.64 1724.01,-72.39 1724.87,-79.34"/>
</g>
<!-- Node22&#45;&gt;Node5 -->
<g id="edge25" class="edge">
<title>Node22&#45;&gt;Node5</title>
<path fill="none" stroke="midnightblue" d="M1734.36,-57.4C1731.38,-56.86 1728.39,-56.38 1725.5,-56 1535.44,-31.01 926.97,-15.48 770.48,-11.83"/>
<polygon fill="midnightblue" stroke="midnightblue" points="770.5,-8.33 760.42,-11.6 770.33,-15.33 770.5,-8.33"/>
</g>
<!-- Node23 -->
<g id="node23" class="node">
<title>Node23</title>
<g id="a_node23"><a xlink:title=" ">
<polygon fill="none" stroke="#bfbfbf" points="1744,-0.5 1744,-19.5 1789,-19.5 1789,-0.5 1744,-0.5"/>
<text text-anchor="middle" x="1766.5" y="-7.5" font-family="Helvetica,sans-Serif" font-size="10.00">utility</text>
</a>
</g>
</g>
<!-- Node22&#45;&gt;Node23 -->
<g id="edge26" class="edge">
<title>Node22&#45;&gt;Node23</title>
<path fill="none" stroke="midnightblue" d="M1766.5,-56.08C1766.5,-49.01 1766.5,-38.86 1766.5,-29.99"/>
<polygon fill="midnightblue" stroke="midnightblue" points="1770,-29.75 1766.5,-19.75 1763,-29.75 1770,-29.75"/>
</g>
<!-- Node24&#45;&gt;Node13 -->
<g id="edge28" class="edge">
<title>Node24&#45;&gt;Node13</title>
<path fill="none" stroke="midnightblue" d="M676.03,-112.4C681.1,-104.02 687.57,-93.33 692.96,-84.42"/>
<polygon fill="midnightblue" stroke="midnightblue" points="696.08,-86.03 698.26,-75.66 690.09,-82.4 696.08,-86.03"/>
</g>
<!-- Node24&#45;&gt;Node22 -->
<g id="edge31" class="edge">
<title>Node24&#45;&gt;Node22</title>
<path fill="none" stroke="midnightblue" d="M727.23,-113.3C730.36,-112.81 733.46,-112.37 736.5,-112 1169.79,-58.98 1287.38,-130.28 1724.31,-75.89"/>
<polygon fill="midnightblue" stroke="midnightblue" points="1724.88,-79.35 1734.37,-74.63 1724.01,-72.4 1724.88,-79.35"/>
</g>
<!-- Node25 -->
<g id="node25" class="node">
<title>Node25</title>
<g id="a_node25"><a xlink:title=" ">
<polygon fill="none" stroke="#bfbfbf" points="911.5,-56.5 911.5,-75.5 995.5,-75.5 995.5,-56.5 911.5,-56.5"/>
<text text-anchor="middle" x="953.5" y="-63.5" font-family="Helvetica,sans-Serif" font-size="10.00">QMouseEvent</text>
</a>
</g>
</g>
<!-- Node24&#45;&gt;Node25 -->
<g id="edge29" class="edge">
<title>Node24&#45;&gt;Node25</title>
<path fill="none" stroke="midnightblue" d="M727.34,-113.92C730.44,-113.27 733.5,-112.63 736.5,-112 793.28,-100.15 858.44,-86.65 902.42,-77.55"/>
<polygon fill="midnightblue" stroke="midnightblue" points="903.21,-80.96 912.3,-75.51 901.79,-74.11 903.21,-80.96"/>
</g>
<!-- Node26 -->
<g id="node26" class="node">
<title>Node26</title>
<g id="a_node26"><a xlink:title=" ">
<polygon fill="none" stroke="#bfbfbf" points="1013,-56.5 1013,-75.5 1062,-75.5 1062,-56.5 1013,-56.5"/>
<text text-anchor="middle" x="1037.5" y="-63.5" font-family="Helvetica,sans-Serif" font-size="10.00">QPoint</text>
</a>
</g>
</g>
<!-- Node24&#45;&gt;Node26 -->
<g id="edge30" class="edge">
<title>Node24&#45;&gt;Node26</title>
<path fill="none" stroke="midnightblue" d="M727.29,-113.65C730.4,-113.07 733.48,-112.52 736.5,-112 851.7,-92.19 884.91,-99.43 1002.59,-76.17"/>
<polygon fill="midnightblue" stroke="midnightblue" points="1003.6,-79.54 1012.72,-74.14 1002.22,-72.68 1003.6,-79.54"/>
</g>
<!-- Node27&#45;&gt;Node5 -->
<g id="edge35" class="edge">
<title>Node27&#45;&gt;Node5</title>
<path fill="none" stroke="midnightblue" d="M1436.94,-113.9C1433.75,-113.24 1430.59,-112.6 1427.5,-112 1177.86,-63.75 873.7,-27.01 770.08,-15.11"/>
<polygon fill="midnightblue" stroke="midnightblue" points="770.46,-11.63 760.12,-13.97 769.66,-18.58 770.46,-11.63"/>
</g>
<!-- Node27&#45;&gt;Node14 -->
<g id="edge34" class="edge">
<title>Node27&#45;&gt;Node14</title>
<path fill="none" stroke="midnightblue" d="M1490.03,-112.4C1489.76,-104.47 1489.42,-94.46 1489.13,-85.86"/>
<polygon fill="midnightblue" stroke="midnightblue" points="1492.63,-85.53 1488.79,-75.66 1485.63,-85.77 1492.63,-85.53"/>
</g>
<!-- Node27&#45;&gt;Node20 -->
<g id="edge33" class="edge">
<title>Node27&#45;&gt;Node20</title>
<path fill="none" stroke="midnightblue" d="M1436.99,-113.58C1433.79,-113 1430.61,-112.46 1427.5,-112 1199.43,-78.15 1137.03,-98.13 903.96,-76.08"/>
<polygon fill="midnightblue" stroke="midnightblue" points="904.1,-72.58 893.82,-75.11 903.43,-79.55 904.1,-72.58"/>
</g>
<!-- Node27&#45;&gt;Node22 -->
<g id="edge37" class="edge">
<title>Node27&#45;&gt;Node22</title>
<path fill="none" stroke="midnightblue" d="M1544.18,-115.03C1589.59,-105.32 1656.66,-90.93 1724.29,-76.26"/>
<polygon fill="midnightblue" stroke="midnightblue" points="1725.24,-79.63 1734.27,-74.09 1723.76,-72.79 1725.24,-79.63"/>
</g>
<!-- Node28 -->
<g id="node28" class="node">
<title>Node28</title>
<g id="a_node28"><a xlink:title=" ">
<polygon fill="none" stroke="#bfbfbf" points="1330.5,-56.5 1330.5,-75.5 1416.5,-75.5 1416.5,-56.5 1330.5,-56.5"/>
<text text-anchor="middle" x="1373.5" y="-63.5" font-family="Helvetica,sans-Serif" font-size="10.00">QSvgRenderer</text>
</a>
</g>
</g>
<!-- Node27&#45;&gt;Node28 -->
<g id="edge36" class="edge">
<title>Node27&#45;&gt;Node28</title>
<path fill="none" stroke="midnightblue" d="M1462.77,-112.4C1443.67,-102.68 1418.44,-89.86 1399.68,-80.31"/>
<polygon fill="midnightblue" stroke="midnightblue" points="1401.02,-77.07 1390.52,-75.66 1397.85,-83.31 1401.02,-77.07"/>
</g>
<!-- Node29&#45;&gt;Node21 -->
<g id="edge40" class="edge">
<title>Node29&#45;&gt;Node21</title>
<path fill="none" stroke="midnightblue" d="M389.49,-112.4C411.94,-102.51 441.71,-89.38 463.48,-79.79"/>
<polygon fill="midnightblue" stroke="midnightblue" points="465.12,-82.89 472.86,-75.66 462.29,-76.49 465.12,-82.89"/>
</g>
<!-- Node30 -->
<g id="node30" class="node">
<title>Node30</title>
<g id="a_node30"><a xlink:title=" ">
<polygon fill="none" stroke="#bfbfbf" points="297,-56.5 297,-75.5 386,-75.5 386,-56.5 297,-56.5"/>
<text text-anchor="middle" x="341.5" y="-63.5" font-family="Helvetica,sans-Serif" font-size="10.00">QGraphicsItem</text>
</a>
</g>
</g>
<!-- Node29&#45;&gt;Node30 -->
<g id="edge39" class="edge">
<title>Node29&#45;&gt;Node30</title>
<path fill="none" stroke="midnightblue" d="M353.71,-112.4C351.55,-104.38 348.82,-94.23 346.49,-85.57"/>
<polygon fill="midnightblue" stroke="midnightblue" points="349.8,-84.41 343.83,-75.66 343.05,-86.22 349.8,-84.41"/>
</g>
<!-- Node31 -->
<g id="node31" class="node">
<title>Node31</title>
<g id="a_node31"><a xlink:title=" ">
<polygon fill="none" stroke="#bfbfbf" points="403.5,-56.5 403.5,-75.5 445.5,-75.5 445.5,-56.5 403.5,-56.5"/>
<text text-anchor="middle" x="424.5" y="-63.5" font-family="Helvetica,sans-Serif" font-size="10.00">QPen</text>
</a>
</g>
</g>
<!-- Node29&#45;&gt;Node31 -->
<g id="edge41" class="edge">
<title>Node29&#45;&gt;Node31</title>
<path fill="none" stroke="midnightblue" d="M373.38,-112.4C383.52,-103.4 396.66,-91.72 407.09,-82.47"/>
<polygon fill="midnightblue" stroke="midnightblue" points="409.6,-84.92 414.75,-75.66 404.95,-79.68 409.6,-84.92"/>
</g>
<!-- Node32&#45;&gt;Node7 -->
<g id="edge46" class="edge">
<title>Node32&#45;&gt;Node7</title>
<path fill="none" stroke="midnightblue" d="M1716.07,-112.47C1758.65,-101.92 1816.18,-87.66 1855.39,-77.94"/>
<polygon fill="midnightblue" stroke="midnightblue" points="1856.32,-81.31 1865.19,-75.51 1854.64,-74.52 1856.32,-81.31"/>
</g>
<!-- Node32&#45;&gt;Node14 -->
<g id="edge44" class="edge">
<title>Node32&#45;&gt;Node14</title>
<path fill="none" stroke="midnightblue" d="M1618.98,-112.4C1589.77,-102.24 1550.78,-88.67 1523.05,-79.02"/>
<polygon fill="midnightblue" stroke="midnightblue" points="1523.98,-75.64 1513.38,-75.66 1521.68,-82.25 1523.98,-75.64"/>
</g>
<!-- Node32&#45;&gt;Node22 -->
<g id="edge47" class="edge">
<title>Node32&#45;&gt;Node22</title>
<path fill="none" stroke="midnightblue" d="M1684.86,-112.4C1702.17,-102.77 1724.98,-90.09 1742.08,-80.58"/>
<polygon fill="midnightblue" stroke="midnightblue" points="1743.89,-83.58 1750.93,-75.66 1740.49,-77.46 1743.89,-83.58"/>
</g>
<!-- Node32&#45;&gt;Node28 -->
<g id="edge45" class="edge">
<title>Node32&#45;&gt;Node28</title>
<path fill="none" stroke="midnightblue" d="M1600.93,-114.32C1548.95,-103.5 1473.78,-87.86 1424.29,-77.57"/>
<polygon fill="midnightblue" stroke="midnightblue" points="1424.95,-74.13 1414.44,-75.52 1423.52,-80.98 1424.95,-74.13"/>
</g>
<!-- Node33 -->
<g id="node33" class="node">
<title>Node33</title>
<g id="a_node33"><a xlink:title=" ">
<polygon fill="none" stroke="#bfbfbf" points="1560.5,-56.5 1560.5,-75.5 1716.5,-75.5 1716.5,-56.5 1560.5,-56.5"/>
<text text-anchor="middle" x="1638.5" y="-63.5" font-family="Helvetica,sans-Serif" font-size="10.00">QGraphicsSceneMouseEvent</text>
</a>
</g>
</g>
<!-- Node32&#45;&gt;Node33 -->
<g id="edge43" class="edge">
<title>Node32&#45;&gt;Node33</title>
<path fill="none" stroke="midnightblue" d="M1654.52,-112.4C1651.66,-104.29 1648.03,-94.01 1644.95,-85.28"/>
<polygon fill="midnightblue" stroke="midnightblue" points="1648.18,-83.92 1641.56,-75.66 1641.58,-86.25 1648.18,-83.92"/>
</g>
<!-- Node34&#45;&gt;Node7 -->
<g id="edge50" class="edge">
<title>Node34&#45;&gt;Node7</title>
<path fill="none" stroke="midnightblue" d="M1834.71,-179.38C1848.12,-170.47 1864.12,-157.85 1874.5,-143 1886.66,-125.61 1893.21,-101.92 1896.51,-85.63"/>
<polygon fill="midnightblue" stroke="midnightblue" points="1899.97,-86.17 1898.31,-75.71 1893.09,-84.92 1899.97,-86.17"/>
</g>
<!-- Node34&#45;&gt;Node17 -->
<g id="edge49" class="edge">
<title>Node34&#45;&gt;Node17</title>
<path fill="none" stroke="midnightblue" d="M1842.18,-179.4C1867.8,-167.99 1903.54,-152.08 1928.2,-141.1"/>
<polygon fill="midnightblue" stroke="midnightblue" points="1929.68,-144.27 1937.39,-137.01 1926.83,-137.88 1929.68,-144.27"/>
</g>
<!-- Node34&#45;&gt;Node22 -->
<g id="edge51" class="edge">
<title>Node34&#45;&gt;Node22</title>
<path fill="none" stroke="midnightblue" d="M1805.62,-179.48C1797.64,-156.51 1781.77,-110.89 1772.89,-85.37"/>
<polygon fill="midnightblue" stroke="midnightblue" points="1776.15,-84.08 1769.56,-75.79 1769.54,-86.38 1776.15,-84.08"/>
</g>
<!-- Node35&#45;&gt;Node7 -->
<g id="edge54" class="edge">
<title>Node35&#45;&gt;Node7</title>
<path fill="none" stroke="midnightblue" d="M1971.88,-179.41C1988.17,-162.72 2009.72,-134.37 1995.5,-112 1985.34,-96.01 1967.82,-85.6 1950.52,-78.87"/>
<polygon fill="midnightblue" stroke="midnightblue" points="1951.57,-75.53 1940.97,-75.5 1949.23,-82.13 1951.57,-75.53"/>
</g>
<!-- Node35&#45;&gt;Node17 -->
<g id="edge53" class="edge">
<title>Node35&#45;&gt;Node17</title>
<path fill="none" stroke="midnightblue" d="M1956.5,-179.4C1956.5,-170.06 1956.5,-157.71 1956.5,-147.52"/>
<polygon fill="midnightblue" stroke="midnightblue" points="1960,-147.19 1956.5,-137.19 1953,-147.19 1960,-147.19"/>
</g>
<!-- Node36&#45;&gt;Node7 -->
<g id="edge57" class="edge">
<title>Node36&#45;&gt;Node7</title>
<path fill="none" stroke="midnightblue" d="M2085.69,-179.41C2070.2,-161.68 2041.45,-131.21 2011.5,-112 1989.07,-97.61 1961.28,-86.41 1939,-78.79"/>
<polygon fill="midnightblue" stroke="midnightblue" points="1940.09,-75.46 1929.5,-75.64 1937.89,-82.11 1940.09,-75.46"/>
</g>
<!-- Node36&#45;&gt;Node17 -->
<g id="edge56" class="edge">
<title>Node36&#45;&gt;Node17</title>
<path fill="none" stroke="midnightblue" d="M2066.91,-179.4C2042.27,-168.04 2007.95,-152.22 1984.14,-141.24"/>
<polygon fill="midnightblue" stroke="midnightblue" points="1985.5,-138.02 1974.95,-137.01 1982.57,-144.37 1985.5,-138.02"/>
</g>
<!-- Node37&#45;&gt;Node7 -->
<g id="edge59" class="edge">
<title>Node37&#45;&gt;Node7</title>
<path fill="none" stroke="midnightblue" d="M2206.43,-251.84C2202.19,-235.72 2191.13,-200.74 2170.5,-179 2112.28,-117.65 2015.49,-88.76 1954.71,-76.03"/>
<polygon fill="midnightblue" stroke="midnightblue" points="1955.03,-72.53 1944.54,-73.98 1953.65,-79.39 1955.03,-72.53"/>
</g>
<!-- Node38 -->
<g id="node38" class="node">
<title>Node38</title>
<g id="a_node38"><a xlink:href="board_8h.html" target="_top" xlink:title=" ">
<polygon fill="none" stroke="black" points="2294,-185 2294,-204 2387,-204 2387,-185 2294,-185"/>
<text text-anchor="middle" x="2340.5" y="-192" font-family="Helvetica,sans-Serif" font-size="10.00">../board/board.h</text>
</a>
</g>
</g>
<!-- Node37&#45;&gt;Node38 -->
<g id="edge60" class="edge">
<title>Node37&#45;&gt;Node38</title>
<path fill="none" stroke="midnightblue" d="M2226.03,-251.87C2248.51,-240.8 2287.73,-221.49 2313.9,-208.6"/>
<polygon fill="midnightblue" stroke="midnightblue" points="2315.47,-211.72 2322.9,-204.17 2312.38,-205.44 2315.47,-211.72"/>
</g>
<!-- Node39 -->
<g id="node39" class="node">
<title>Node39</title>
<g id="a_node39"><a xlink:href="figures_8h.html" target="_top" xlink:title=" ">
<polygon fill="none" stroke="black" points="2217.5,-118 2217.5,-137 2321.5,-137 2321.5,-118 2217.5,-118"/>
<text text-anchor="middle" x="2269.5" y="-125" font-family="Helvetica,sans-Serif" font-size="10.00">../figures/figures.h</text>
</a>
</g>
</g>
<!-- Node37&#45;&gt;Node39 -->
<g id="edge69" class="edge">
<title>Node37&#45;&gt;Node39</title>
<path fill="none" stroke="midnightblue" d="M2212.5,-251.84C2222.37,-230.49 2248.02,-174.98 2261.29,-146.27"/>
<polygon fill="midnightblue" stroke="midnightblue" points="2264.54,-147.57 2265.56,-137.02 2258.19,-144.63 2264.54,-147.57"/>
</g>
<!-- Node38&#45;&gt;Node39 -->
<g id="edge61" class="edge">
<title>Node38&#45;&gt;Node39</title>
<path fill="none" stroke="midnightblue" d="M2330.92,-184.73C2319.53,-174.31 2300.31,-156.71 2286.4,-143.97"/>
<polygon fill="midnightblue" stroke="midnightblue" points="2288.66,-141.3 2278.92,-137.13 2283.94,-146.46 2288.66,-141.3"/>
</g>
<!-- Node41 -->
<g id="node41" class="node">
<title>Node41</title>
<g id="a_node41"><a xlink:title=" ">
<polygon fill="none" stroke="#bfbfbf" points="2377.5,-56.5 2377.5,-75.5 2409.5,-75.5 2409.5,-56.5 2377.5,-56.5"/>
<text text-anchor="middle" x="2393.5" y="-63.5" font-family="Helvetica,sans-Serif" font-size="10.00">list</text>
</a>
</g>
</g>
<!-- Node38&#45;&gt;Node41 -->
<g id="edge67" class="edge">
<title>Node38&#45;&gt;Node41</title>
<path fill="none" stroke="midnightblue" d="M2355.66,-184.95C2369.22,-176.33 2388.2,-161.66 2396.5,-143 2404.61,-124.77 2402.1,-101.58 2398.68,-85.63"/>
<polygon fill="midnightblue" stroke="midnightblue" points="2402.08,-84.78 2396.29,-75.91 2395.28,-86.45 2402.08,-84.78"/>
</g>
<!-- Node43 -->
<g id="node43" class="node">
<title>Node43</title>
<g id="a_node43"><a xlink:title=" ">
<polygon fill="none" stroke="#bfbfbf" points="2340,-118 2340,-137 2387,-137 2387,-118 2340,-118"/>
<text text-anchor="middle" x="2363.5" y="-125" font-family="Helvetica,sans-Serif" font-size="10.00">vector</text>
</a>
</g>
</g>
<!-- Node38&#45;&gt;Node43 -->
<g id="edge68" class="edge">
<title>Node38&#45;&gt;Node43</title>
<path fill="none" stroke="midnightblue" d="M2343.6,-184.73C2347.02,-175.09 2352.6,-159.3 2356.99,-146.91"/>
<polygon fill="midnightblue" stroke="midnightblue" points="2360.41,-147.72 2360.45,-137.13 2353.81,-145.39 2360.41,-147.72"/>
</g>
<!-- Node39&#45;&gt;Node7 -->
<g id="edge62" class="edge">
<title>Node39&#45;&gt;Node7</title>
<path fill="none" stroke="midnightblue" d="M2232.94,-117.99C2223.38,-115.9 2213.08,-113.76 2203.5,-112 2117.06,-96.13 2016,-82.05 1954.92,-74.03"/>
<polygon fill="midnightblue" stroke="midnightblue" points="1955.1,-70.52 1944.73,-72.7 1954.19,-77.46 1955.1,-70.52"/>
</g>
<!-- Node39&#45;&gt;Node22 -->
<g id="edge63" class="edge">
<title>Node39&#45;&gt;Node22</title>
<path fill="none" stroke="midnightblue" d="M2217.43,-118.96C2200.84,-116.64 2182.41,-114.13 2165.5,-112 2023.5,-94.12 1987.71,-92.1 1845.5,-76 1833.62,-74.65 1820.73,-73.19 1808.88,-71.84"/>
<polygon fill="midnightblue" stroke="midnightblue" points="1809.12,-68.34 1798.79,-70.69 1808.32,-75.3 1809.12,-68.34"/>
</g>
<!-- Node40 -->
<g id="node40" class="node">
<title>Node40</title>
<g id="a_node40"><a xlink:title=" ">
<polygon fill="none" stroke="#bfbfbf" points="2265,-56.5 2265,-75.5 2316,-75.5 2316,-56.5 2265,-56.5"/>
<text text-anchor="middle" x="2290.5" y="-63.5" font-family="Helvetica,sans-Serif" font-size="10.00">math.h</text>
</a>
</g>
</g>
<!-- Node39&#45;&gt;Node40 -->
<g id="edge64" class="edge">
<title>Node39&#45;&gt;Node40</title>
<path fill="none" stroke="midnightblue" d="M2272.51,-117.98C2275.53,-109.4 2280.29,-95.93 2284.15,-84.98"/>
<polygon fill="midnightblue" stroke="midnightblue" points="2287.47,-86.1 2287.5,-75.51 2280.87,-83.77 2287.47,-86.1"/>
</g>
<!-- Node39&#45;&gt;Node41 -->
<g id="edge65" class="edge">
<title>Node39&#45;&gt;Node41</title>
<path fill="none" stroke="midnightblue" d="M2287.27,-117.98C2308.45,-107.81 2344.03,-90.74 2368.11,-79.18"/>
<polygon fill="midnightblue" stroke="midnightblue" points="2369.84,-82.23 2377.34,-74.75 2366.81,-75.92 2369.84,-82.23"/>
</g>
<!-- Node42 -->
<g id="node42" class="node">
<title>Node42</title>
<g id="a_node42"><a xlink:title=" ">
<polygon fill="none" stroke="#bfbfbf" points="2214.5,-56.5 2214.5,-75.5 2246.5,-75.5 2246.5,-56.5 2214.5,-56.5"/>
<text text-anchor="middle" x="2230.5" y="-63.5" font-family="Helvetica,sans-Serif" font-size="10.00">set</text>
</a>
</g>
</g>
<!-- Node39&#45;&gt;Node42 -->
<g id="edge66" class="edge">
<title>Node39&#45;&gt;Node42</title>
<path fill="none" stroke="midnightblue" d="M2263.91,-117.98C2258.12,-109.14 2248.91,-95.09 2241.63,-83.98"/>
<polygon fill="midnightblue" stroke="midnightblue" points="2244.49,-81.95 2236.08,-75.51 2238.63,-85.79 2244.49,-81.95"/>
</g>
<!-- Node44&#45;&gt;Node22 -->
<g id="edge78" class="edge">
<title>Node44&#45;&gt;Node22</title>
<path fill="none" stroke="midnightblue" d="M2583.7,-255.37C2511.47,-248.55 2388.67,-234.44 2285.5,-210 2153.12,-178.64 2126.98,-146.97 1995.5,-112 1931.07,-94.86 1854.85,-81.16 1808.62,-73.56"/>
<polygon fill="midnightblue" stroke="midnightblue" points="1809.1,-70.09 1798.66,-71.94 1807.97,-77 1809.1,-70.09"/>
</g>
<!-- Node45 -->
<g id="node45" class="node">
<title>Node45</title>
<g id="a_node45"><a xlink:title=" ">
<polygon fill="none" stroke="#bfbfbf" points="2919,-185 2919,-204 2960,-204 2960,-185 2919,-185"/>
<text text-anchor="middle" x="2939.5" y="-192" font-family="Helvetica,sans-Serif" font-size="10.00">QFile</text>
</a>
</g>
</g>
<!-- Node44&#45;&gt;Node45 -->
<g id="edge71" class="edge">
<title>Node44&#45;&gt;Node45</title>
<path fill="none" stroke="midnightblue" d="M2707.24,-253.63C2761.75,-246.41 2842.84,-232.87 2910.5,-210 2911.93,-209.52 2913.38,-208.97 2914.84,-208.39"/>
<polygon fill="midnightblue" stroke="midnightblue" points="2916.53,-211.46 2924.19,-204.14 2913.63,-205.09 2916.53,-211.46"/>
</g>
<!-- Node46 -->
<g id="node46" class="node">
<title>Node46</title>
<g id="a_node46"><a xlink:title=" ">
<polygon fill="none" stroke="#bfbfbf" points="2405,-185 2405,-204 2476,-204 2476,-185 2405,-185"/>
<text text-anchor="middle" x="2440.5" y="-192" font-family="Helvetica,sans-Serif" font-size="10.00">QJsonArray</text>
</a>
</g>
</g>
<!-- Node44&#45;&gt;Node46 -->
<g id="edge72" class="edge">
<title>Node44&#45;&gt;Node46</title>
<path fill="none" stroke="midnightblue" d="M2600.65,-246.42C2568.56,-236.33 2524.35,-222.39 2485.5,-210 2482.71,-209.11 2479.83,-208.19 2476.93,-207.26"/>
<polygon fill="midnightblue" stroke="midnightblue" points="2477.73,-203.84 2467.14,-204.11 2475.59,-210.51 2477.73,-203.84"/>
</g>
<!-- Node47 -->
<g id="node47" class="node">
<title>Node47</title>
<g id="a_node47"><a xlink:title=" ">
<polygon fill="none" stroke="#bfbfbf" points="2494,-185 2494,-204 2589,-204 2589,-185 2494,-185"/>
<text text-anchor="middle" x="2541.5" y="-192" font-family="Helvetica,sans-Serif" font-size="10.00">QJsonDocument</text>
</a>
</g>
</g>
<!-- Node44&#45;&gt;Node47 -->
<g id="edge73" class="edge">
<title>Node44&#45;&gt;Node47</title>
<path fill="none" stroke="midnightblue" d="M2622.93,-246.4C2605.49,-235.5 2581.47,-220.48 2564.03,-209.58"/>
<polygon fill="midnightblue" stroke="midnightblue" points="2565.45,-206.34 2555.11,-204.01 2561.74,-212.28 2565.45,-206.34"/>
</g>
<!-- Node48 -->
<g id="node48" class="node">
<title>Node48</title>
<g id="a_node48"><a xlink:title=" ">
<polygon fill="none" stroke="#bfbfbf" points="2607.5,-185 2607.5,-204 2683.5,-204 2683.5,-185 2607.5,-185"/>
<text text-anchor="middle" x="2645.5" y="-192" font-family="Helvetica,sans-Serif" font-size="10.00">QJsonObject</text>
</a>
</g>
</g>
<!-- Node44&#45;&gt;Node48 -->
<g id="edge74" class="edge">
<title>Node44&#45;&gt;Node48</title>
<path fill="none" stroke="midnightblue" d="M2645.5,-246.4C2645.5,-237.06 2645.5,-224.71 2645.5,-214.52"/>
<polygon fill="midnightblue" stroke="midnightblue" points="2649,-214.19 2645.5,-204.19 2642,-214.19 2649,-214.19"/>
</g>
<!-- Node49 -->
<g id="node49" class="node">
<title>Node49</title>
<g id="a_node49"><a xlink:title=" ">
<polygon fill="none" stroke="#bfbfbf" points="2701.5,-185 2701.5,-204 2757.5,-204 2757.5,-185 2701.5,-185"/>
<text text-anchor="middle" x="2729.5" y="-192" font-family="Helvetica,sans-Serif" font-size="10.00">QObject</text>
</a>
</g>
</g>
<!-- Node44&#45;&gt;Node49 -->
<g id="edge75" class="edge">
<title>Node44&#45;&gt;Node49</title>
<path fill="none" stroke="midnightblue" d="M2663.73,-246.4C2677.47,-235.76 2696.28,-221.2 2710.27,-210.38"/>
<polygon fill="midnightblue" stroke="midnightblue" points="2712.5,-213.08 2718.26,-204.19 2708.21,-207.55 2712.5,-213.08"/>
</g>
<!-- Node50 -->
<g id="node50" class="node">
<title>Node50</title>
<g id="a_node50"><a xlink:title=" ">
<polygon fill="none" stroke="#bfbfbf" points="2775.5,-185 2775.5,-204 2835.5,-204 2835.5,-185 2775.5,-185"/>
<text text-anchor="middle" x="2805.5" y="-192" font-family="Helvetica,sans-Serif" font-size="10.00">iostream</text>
</a>
</g>
</g>
<!-- Node44&#45;&gt;Node50 -->
<g id="edge76" class="edge">
<title>Node44&#45;&gt;Node50</title>
<path fill="none" stroke="midnightblue" d="M2680.22,-246.4C2708.54,-234.89 2748.15,-218.8 2775.21,-207.81"/>
<polygon fill="midnightblue" stroke="midnightblue" points="2776.61,-211.01 2784.56,-204.01 2773.98,-204.53 2776.61,-211.01"/>
</g>
<!-- Node51 -->
<g id="node51" class="node">
<title>Node51</title>
<g id="a_node51"><a xlink:title=" ">
<polygon fill="none" stroke="#bfbfbf" points="2854,-185 2854,-204 2901,-204 2901,-185 2854,-185"/>
<text text-anchor="middle" x="2877.5" y="-192" font-family="Helvetica,sans-Serif" font-size="10.00">qlist.h</text>
</a>
</g>
</g>
<!-- Node44&#45;&gt;Node51 -->
<g id="edge77" class="edge">
<title>Node44&#45;&gt;Node51</title>
<path fill="none" stroke="midnightblue" d="M2707.24,-247.61C2746.93,-238.64 2799.33,-225.53 2844.5,-210 2846.36,-209.36 2848.27,-208.66 2850.18,-207.92"/>
<polygon fill="midnightblue" stroke="midnightblue" points="2851.66,-211.09 2859.56,-204.03 2848.98,-204.62 2851.66,-211.09"/>
</g>
</g>
</svg>
