<?xml version="1.0" encoding="UTF-8" standalone="no"?>
<!DOCTYPE svg PUBLIC "-//W3C//DTD SVG 1.1//EN"
 "http://www.w3.org/Graphics/SVG/1.1/DTD/svg11.dtd">
<!-- Generated by graphviz version 2.50.0 (0)
 -->
<!-- Title: src/gui/scene_game/scene_game.h Pages: 1 -->
<svg width="228pt" height="95pt"
 viewBox="0.00 0.00 227.50 95.00" xmlns="http://www.w3.org/2000/svg" xmlns:xlink="http://www.w3.org/1999/xlink">
<g id="graph0" class="graph" transform="scale(1 1) rotate(0) translate(4 91)">
<title>src/gui/scene_game/scene_game.h</title>
<!-- Node1 -->
<g id="node1" class="node">
<title>Node1</title>
<g id="a_node1"><a xlink:title=" ">
<polygon fill="#bfbfbf" stroke="black" points="77.5,-56.5 77.5,-86.5 181.5,-86.5 181.5,-56.5 77.5,-56.5"/>
<text text-anchor="start" x="85.5" y="-74.5" font-family="Helvetica,sans-Serif" font-size="10.00">src/gui/scene_game</text>
<text text-anchor="middle" x="129.5" y="-63.5" font-family="Helvetica,sans-Serif" font-size="10.00">/scene_game.h</text>
</a>
</g>
</g>
<!-- Node2 -->
<g id="node2" class="node">
<title>Node2</title>
<g id="a_node2"><a xlink:title=" ">
<polygon fill="none" stroke="#bfbfbf" points="0,-0.5 0,-19.5 91,-19.5 91,-0.5 0,-0.5"/>
<text text-anchor="middle" x="45.5" y="-7.5" font-family="Helvetica,sans-Serif" font-size="10.00">QGraphicsScene</text>
</a>
</g>
</g>
<!-- Node1&#45;&gt;Node2 -->
<g id="edge1" class="edge">
<title>Node1&#45;&gt;Node2</title>
<path fill="none" stroke="midnightblue" d="M109.59,-56.4C96.51,-47.13 79.42,-35.03 66.18,-25.65"/>
<polygon fill="midnightblue" stroke="midnightblue" points="67.91,-22.58 57.72,-19.66 63.86,-28.29 67.91,-22.58"/>
</g>
<!-- Node3 -->
<g id="node3" class="node">
<title>Node3</title>
<g id="a_node3"><a xlink:title=" ">
<polygon fill="none" stroke="#bfbfbf" points="109.5,-0.5 109.5,-19.5 149.5,-19.5 149.5,-0.5 109.5,-0.5"/>
<text text-anchor="middle" x="129.5" y="-7.5" font-family="Helvetica,sans-Serif" font-size="10.00">QList</text>
</a>
</g>
</g>
<!-- Node1&#45;&gt;Node3 -->
<g id="edge2" class="edge">
<title>Node1&#45;&gt;Node3</title>
<path fill="none" stroke="midnightblue" d="M129.5,-56.4C129.5,-48.47 129.5,-38.46 129.5,-29.86"/>
<polygon fill="midnightblue" stroke="midnightblue" points="133,-29.66 129.5,-19.66 126,-29.66 133,-29.66"/>
</g>
<!-- Node4 -->
<g id="node4" class="node">
<title>Node4</title>
<g id="a_node4"><a xlink:title=" ">
<polygon fill="none" stroke="#bfbfbf" points="167.5,-0.5 167.5,-19.5 219.5,-19.5 219.5,-0.5 167.5,-0.5"/>
<text text-anchor="middle" x="193.5" y="-7.5" font-family="Helvetica,sans-Serif" font-size="10.00">QVector</text>
</a>
</g>
</g>
<!-- Node1&#45;&gt;Node4 -->
<g id="edge3" class="edge">
<title>Node1&#45;&gt;Node4</title>
<path fill="none" stroke="midnightblue" d="M144.67,-56.4C154.25,-47.49 166.66,-35.95 176.57,-26.74"/>
<polygon fill="midnightblue" stroke="midnightblue" points="179.25,-29.03 184.19,-19.66 174.48,-23.9 179.25,-29.03"/>
</g>
</g>
</svg>
