<?xml version="1.0" encoding="UTF-8" standalone="no"?>
<!DOCTYPE svg PUBLIC "-//W3C//DTD SVG 1.1//EN"
 "http://www.w3.org/Graphics/SVG/1.1/DTD/svg11.dtd">
<!-- Generated by graphviz version 2.43.0 (0)
 -->
<!-- Title: src/gui/screen_game/screen_game.cpp Pages: 1 -->
<svg width="1191pt" height="274pt"
 viewBox="0.00 0.00 1191.00 274.00" xmlns="http://www.w3.org/2000/svg" xmlns:xlink="http://www.w3.org/1999/xlink">
<g id="graph0" class="graph" transform="scale(1 1) rotate(0) translate(4 270)">
<title>src/gui/screen_game/screen_game.cpp</title>
<!-- Node1 -->
<g id="node1" class="node">
<title>Node1</title>
<g id="a_node1"><a xlink:title=" ">
<polygon fill="#bfbfbf" stroke="black" points="636.5,-235.5 636.5,-265.5 753.5,-265.5 753.5,-235.5 636.5,-235.5"/>
<text text-anchor="start" x="644.5" y="-253.5" font-family="Helvetica,sans-Serif" font-size="10.00">src/gui/screen_game</text>
<text text-anchor="middle" x="695" y="-242.5" font-family="Helvetica,sans-Serif" font-size="10.00">/screen_game.cpp</text>
</a>
</g>
</g>
<!-- Node2 -->
<g id="node2" class="node">
<title>Node2</title>
<g id="a_node2"><a xlink:href="screen__game_8h.html" target="_top" xlink:title=" ">
<polygon fill="none" stroke="black" points="533.5,-179.5 533.5,-198.5 624.5,-198.5 624.5,-179.5 533.5,-179.5"/>
<text text-anchor="middle" x="579" y="-186.5" font-family="Helvetica,sans-Serif" font-size="10.00">screen_game.h</text>
</a>
</g>
</g>
<!-- Node1&#45;&gt;Node2 -->
<g id="edge1" class="edge">
<title>Node1&#45;&gt;Node2</title>
<path fill="none" stroke="midnightblue" d="M667.51,-235.4C648.57,-225.68 623.56,-212.86 604.96,-203.31"/>
<polygon fill="midnightblue" stroke="midnightblue" points="606.37,-200.11 595.88,-198.66 603.18,-206.34 606.37,-200.11"/>
</g>
<!-- Node24 -->
<g id="node24" class="node">
<title>Node24</title>
<g id="a_node24"><a xlink:title=" ">
<polygon fill="none" stroke="#bfbfbf" points="642.5,-179.5 642.5,-198.5 747.5,-198.5 747.5,-179.5 642.5,-179.5"/>
<text text-anchor="middle" x="695" y="-186.5" font-family="Helvetica,sans-Serif" font-size="10.00">ui_screen_game.h</text>
</a>
</g>
</g>
<!-- Node1&#45;&gt;Node24 -->
<g id="edge27" class="edge">
<title>Node1&#45;&gt;Node24</title>
<path fill="none" stroke="midnightblue" d="M695,-235.4C695,-227.47 695,-217.46 695,-208.86"/>
<polygon fill="midnightblue" stroke="midnightblue" points="698.5,-208.66 695,-198.66 691.5,-208.66 698.5,-208.66"/>
</g>
<!-- Node25 -->
<g id="node25" class="node">
<title>Node25</title>
<g id="a_node25"><a xlink:title=" ">
<polygon fill="none" stroke="#bfbfbf" points="766,-179.5 766,-198.5 826,-198.5 826,-179.5 766,-179.5"/>
<text text-anchor="middle" x="796" y="-186.5" font-family="Helvetica,sans-Serif" font-size="10.00">iostream</text>
</a>
</g>
</g>
<!-- Node1&#45;&gt;Node25 -->
<g id="edge28" class="edge">
<title>Node1&#45;&gt;Node25</title>
<path fill="none" stroke="midnightblue" d="M718.94,-235.4C735.13,-225.86 756.41,-213.32 772.5,-203.84"/>
<polygon fill="midnightblue" stroke="midnightblue" points="774.46,-206.75 781.3,-198.66 770.91,-200.72 774.46,-206.75"/>
</g>
<!-- Node3 -->
<g id="node3" class="node">
<title>Node3</title>
<g id="a_node3"><a xlink:title=" ">
<polygon fill="none" stroke="#bfbfbf" points="0,-118 0,-137 122,-137 122,-118 0,-118"/>
<text text-anchor="middle" x="61" y="-125" font-family="Helvetica,sans-Serif" font-size="10.00">QGraphicsEllipseItem</text>
</a>
</g>
</g>
<!-- Node2&#45;&gt;Node3 -->
<g id="edge2" class="edge">
<title>Node2&#45;&gt;Node3</title>
<path fill="none" stroke="midnightblue" d="M533.33,-184.99C452.09,-179.29 277.23,-165.43 131,-143 123.75,-141.89 116.11,-140.52 108.65,-139.06"/>
<polygon fill="midnightblue" stroke="midnightblue" points="109.15,-135.59 98.65,-137.05 107.76,-142.45 109.15,-135.59"/>
</g>
<!-- Node4 -->
<g id="node4" class="node">
<title>Node4</title>
<g id="a_node4"><a xlink:title=" ">
<polygon fill="none" stroke="#bfbfbf" points="140,-118 140,-137 280,-137 280,-118 140,-118"/>
<text text-anchor="middle" x="210" y="-125" font-family="Helvetica,sans-Serif" font-size="10.00">QGraphicsItemAnimation</text>
</a>
</g>
</g>
<!-- Node2&#45;&gt;Node4 -->
<g id="edge3" class="edge">
<title>Node2&#45;&gt;Node4</title>
<path fill="none" stroke="midnightblue" d="M533.06,-180.95C476.71,-172.26 378.26,-156.92 294,-143 285.81,-141.65 277.19,-140.19 268.7,-138.74"/>
<polygon fill="midnightblue" stroke="midnightblue" points="269.29,-135.29 258.84,-137.05 268.1,-142.19 269.29,-135.29"/>
</g>
<!-- Node5 -->
<g id="node5" class="node">
<title>Node5</title>
<g id="a_node5"><a xlink:title=" ">
<polygon fill="none" stroke="#bfbfbf" points="80,-56.5 80,-75.5 176,-75.5 176,-56.5 80,-56.5"/>
<text text-anchor="middle" x="128" y="-63.5" font-family="Helvetica,sans-Serif" font-size="10.00">QGraphicsScene</text>
</a>
</g>
</g>
<!-- Node2&#45;&gt;Node5 -->
<g id="edge4" class="edge">
<title>Node2&#45;&gt;Node5</title>
<path fill="none" stroke="midnightblue" d="M533.26,-186.7C481.14,-183.69 394.45,-173.97 327,-143 307.19,-133.9 308.35,-122.03 289,-112 256.8,-95.3 217.67,-84.18 186.05,-77.17"/>
<polygon fill="midnightblue" stroke="midnightblue" points="186.58,-73.71 176.07,-75.04 185.11,-80.55 186.58,-73.71"/>
</g>
<!-- Node6 -->
<g id="node6" class="node">
<title>Node6</title>
<g id="a_node6"><a xlink:title=" ">
<polygon fill="none" stroke="#bfbfbf" points="446.5,-56.5 446.5,-75.5 553.5,-75.5 553.5,-56.5 446.5,-56.5"/>
<text text-anchor="middle" x="500" y="-63.5" font-family="Helvetica,sans-Serif" font-size="10.00">QGraphicsSvgItem</text>
</a>
</g>
</g>
<!-- Node2&#45;&gt;Node6 -->
<g id="edge5" class="edge">
<title>Node2&#45;&gt;Node6</title>
<path fill="none" stroke="midnightblue" d="M557.28,-179.43C541.79,-172.14 521.84,-160.1 511,-143 500.2,-125.97 498.32,-102.52 498.6,-86.2"/>
<polygon fill="midnightblue" stroke="midnightblue" points="502.11,-85.91 499.08,-75.76 495.12,-85.59 502.11,-85.91"/>
</g>
<!-- Node7 -->
<g id="node7" class="node">
<title>Node7</title>
<g id="a_node7"><a xlink:title=" ">
<polygon fill="none" stroke="#bfbfbf" points="694.5,-118 694.5,-137 747.5,-137 747.5,-118 694.5,-118"/>
<text text-anchor="middle" x="721" y="-125" font-family="Helvetica,sans-Serif" font-size="10.00">QString</text>
</a>
</g>
</g>
<!-- Node2&#45;&gt;Node7 -->
<g id="edge6" class="edge">
<title>Node2&#45;&gt;Node7</title>
<path fill="none" stroke="midnightblue" d="M599.35,-179.48C623.39,-169.4 663.6,-152.55 691.16,-141"/>
<polygon fill="midnightblue" stroke="midnightblue" points="692.82,-144.1 700.69,-137.01 690.12,-137.65 692.82,-144.1"/>
</g>
<!-- Node8 -->
<g id="node8" class="node">
<title>Node8</title>
<g id="a_node8"><a xlink:title=" ">
<polygon fill="none" stroke="#bfbfbf" points="765.5,-118 765.5,-137 834.5,-137 834.5,-118 765.5,-118"/>
<text text-anchor="middle" x="800" y="-125" font-family="Helvetica,sans-Serif" font-size="10.00">QTimeLine</text>
</a>
</g>
</g>
<!-- Node2&#45;&gt;Node8 -->
<g id="edge7" class="edge">
<title>Node2&#45;&gt;Node8</title>
<path fill="none" stroke="midnightblue" d="M615.81,-179.43C651.75,-170.88 707.91,-157.02 756,-143 758.99,-142.13 762.09,-141.19 765.18,-140.22"/>
<polygon fill="midnightblue" stroke="midnightblue" points="766.51,-143.47 774.96,-137.08 764.37,-136.8 766.51,-143.47"/>
</g>
<!-- Node9 -->
<g id="node9" class="node">
<title>Node9</title>
<g id="a_node9"><a xlink:title=" ">
<polygon fill="none" stroke="#bfbfbf" points="852.5,-118 852.5,-137 911.5,-137 911.5,-118 852.5,-118"/>
<text text-anchor="middle" x="882" y="-125" font-family="Helvetica,sans-Serif" font-size="10.00">QWidget</text>
</a>
</g>
</g>
<!-- Node2&#45;&gt;Node9 -->
<g id="edge8" class="edge">
<title>Node2&#45;&gt;Node9</title>
<path fill="none" stroke="midnightblue" d="M624.76,-180.31C698.93,-167.83 837.74,-144.41 843,-143 845.81,-142.24 848.71,-141.37 851.59,-140.43"/>
<polygon fill="midnightblue" stroke="midnightblue" points="852.91,-143.67 861.18,-137.06 850.59,-137.07 852.91,-143.67"/>
</g>
<!-- Node10 -->
<g id="node10" class="node">
<title>Node10</title>
<g id="a_node10"><a xlink:href="constants_8h.html" target="_top" xlink:title=" ">
<polygon fill="none" stroke="black" points="850,-56.5 850,-75.5 940,-75.5 940,-56.5 850,-56.5"/>
<text text-anchor="middle" x="895" y="-63.5" font-family="Helvetica,sans-Serif" font-size="10.00">src/constants.h</text>
</a>
</g>
</g>
<!-- Node2&#45;&gt;Node10 -->
<g id="edge9" class="edge">
<title>Node2&#45;&gt;Node10</title>
<path fill="none" stroke="midnightblue" d="M592.57,-179.35C606.26,-170.5 627.9,-156.24 646,-143 663.87,-129.93 664.98,-121.46 685,-112 698.91,-105.43 782.21,-88.62 839.62,-77.51"/>
<polygon fill="midnightblue" stroke="midnightblue" points="840.51,-80.9 849.66,-75.57 839.18,-74.03 840.51,-80.9"/>
</g>
<!-- Node12 -->
<g id="node12" class="node">
<title>Node12</title>
<g id="a_node12"><a xlink:href="gui__scene_8h.html" target="_top" xlink:title=" ">
<polygon fill="none" stroke="black" points="336.5,-112.5 336.5,-142.5 455.5,-142.5 455.5,-112.5 336.5,-112.5"/>
<text text-anchor="start" x="344.5" y="-130.5" font-family="Helvetica,sans-Serif" font-size="10.00">src/gui/gui_scene/gui</text>
<text text-anchor="middle" x="396" y="-119.5" font-family="Helvetica,sans-Serif" font-size="10.00">_scene.h</text>
</a>
</g>
</g>
<!-- Node2&#45;&gt;Node12 -->
<g id="edge11" class="edge">
<title>Node2&#45;&gt;Node12</title>
<path fill="none" stroke="midnightblue" d="M552.78,-179.48C525.8,-170.7 483,-156.79 448.94,-145.71"/>
<polygon fill="midnightblue" stroke="midnightblue" points="449.72,-142.29 439.13,-142.52 447.56,-148.94 449.72,-142.29"/>
</g>
<!-- Node17 -->
<g id="node17" class="node">
<title>Node17</title>
<g id="a_node17"><a xlink:href="gui__advantage__bar_8h.html" target="_top" xlink:title=" ">
<polygon fill="none" stroke="black" points="988.5,-112.5 988.5,-142.5 1109.5,-142.5 1109.5,-112.5 988.5,-112.5"/>
<text text-anchor="start" x="996.5" y="-130.5" font-family="Helvetica,sans-Serif" font-size="10.00">src/gui/screen_game</text>
<text text-anchor="middle" x="1049" y="-119.5" font-family="Helvetica,sans-Serif" font-size="10.00">/gui_advantage_bar.h</text>
</a>
</g>
</g>
<!-- Node2&#45;&gt;Node17 -->
<g id="edge17" class="edge">
<title>Node2&#45;&gt;Node17</title>
<path fill="none" stroke="midnightblue" d="M624.64,-180.25C627.47,-179.81 630.27,-179.39 633,-179 697.83,-169.67 877.28,-148.48 978.02,-136.73"/>
<polygon fill="midnightblue" stroke="midnightblue" points="978.59,-140.19 988.12,-135.55 977.78,-133.23 978.59,-140.19"/>
</g>
<!-- Node21 -->
<g id="node21" class="node">
<title>Node21</title>
<g id="a_node21"><a xlink:href="gui__figure_8h.html" target="_top" xlink:title=" ">
<polygon fill="none" stroke="black" points="520.5,-112.5 520.5,-142.5 637.5,-142.5 637.5,-112.5 520.5,-112.5"/>
<text text-anchor="start" x="528.5" y="-130.5" font-family="Helvetica,sans-Serif" font-size="10.00">src/gui/screen_game</text>
<text text-anchor="middle" x="579" y="-119.5" font-family="Helvetica,sans-Serif" font-size="10.00">/gui_figure.h</text>
</a>
</g>
</g>
<!-- Node2&#45;&gt;Node21 -->
<g id="edge21" class="edge">
<title>Node2&#45;&gt;Node21</title>
<path fill="none" stroke="midnightblue" d="M579,-179.48C579,-172.47 579,-162.19 579,-152.7"/>
<polygon fill="midnightblue" stroke="midnightblue" points="582.5,-152.52 579,-142.52 575.5,-152.52 582.5,-152.52"/>
</g>
<!-- Node11 -->
<g id="node11" class="node">
<title>Node11</title>
<g id="a_node11"><a xlink:title=" ">
<polygon fill="none" stroke="#bfbfbf" points="867.5,-0.5 867.5,-19.5 922.5,-19.5 922.5,-0.5 867.5,-0.5"/>
<text text-anchor="middle" x="895" y="-7.5" font-family="Helvetica,sans-Serif" font-size="10.00">QVector</text>
</a>
</g>
</g>
<!-- Node10&#45;&gt;Node11 -->
<g id="edge10" class="edge">
<title>Node10&#45;&gt;Node11</title>
<path fill="none" stroke="midnightblue" d="M895,-56.08C895,-49.01 895,-38.86 895,-29.99"/>
<polygon fill="midnightblue" stroke="midnightblue" points="898.5,-29.75 895,-19.75 891.5,-29.75 898.5,-29.75"/>
</g>
<!-- Node12&#45;&gt;Node5 -->
<g id="edge12" class="edge">
<title>Node12&#45;&gt;Node5</title>
<path fill="none" stroke="midnightblue" d="M336.19,-113.22C288,-102.52 221.12,-87.67 176.29,-77.72"/>
<polygon fill="midnightblue" stroke="midnightblue" points="177.03,-74.3 166.51,-75.55 175.52,-81.13 177.03,-74.3"/>
</g>
<!-- Node13 -->
<g id="node13" class="node">
<title>Node13</title>
<g id="a_node13"><a xlink:title=" ">
<polygon fill="none" stroke="#bfbfbf" points="262,-56.5 262,-75.5 346,-75.5 346,-56.5 262,-56.5"/>
<text text-anchor="middle" x="304" y="-63.5" font-family="Helvetica,sans-Serif" font-size="10.00">QMouseEvent</text>
</a>
</g>
</g>
<!-- Node12&#45;&gt;Node13 -->
<g id="edge13" class="edge">
<title>Node12&#45;&gt;Node13</title>
<path fill="none" stroke="midnightblue" d="M374.2,-112.4C359.59,-102.95 340.43,-90.56 325.82,-81.11"/>
<polygon fill="midnightblue" stroke="midnightblue" points="327.68,-78.15 317.39,-75.66 323.88,-84.03 327.68,-78.15"/>
</g>
<!-- Node14 -->
<g id="node14" class="node">
<title>Node14</title>
<g id="a_node14"><a xlink:title=" ">
<polygon fill="none" stroke="#bfbfbf" points="194.5,-56.5 194.5,-75.5 243.5,-75.5 243.5,-56.5 194.5,-56.5"/>
<text text-anchor="middle" x="219" y="-63.5" font-family="Helvetica,sans-Serif" font-size="10.00">QPoint</text>
</a>
</g>
</g>
<!-- Node12&#45;&gt;Node14 -->
<g id="edge14" class="edge">
<title>Node12&#45;&gt;Node14</title>
<path fill="none" stroke="midnightblue" d="M354.05,-112.4C323.33,-102.07 282.13,-88.22 253.35,-78.55"/>
<polygon fill="midnightblue" stroke="midnightblue" points="254.32,-75.18 243.73,-75.31 252.09,-81.82 254.32,-75.18"/>
</g>
<!-- Node15 -->
<g id="node15" class="node">
<title>Node15</title>
<g id="a_node15"><a xlink:href="utils_8h.html" target="_top" xlink:title=" ">
<polygon fill="none" stroke="black" points="364,-56.5 364,-75.5 428,-75.5 428,-56.5 364,-56.5"/>
<text text-anchor="middle" x="396" y="-63.5" font-family="Helvetica,sans-Serif" font-size="10.00">src/utils.h</text>
</a>
</g>
</g>
<!-- Node12&#45;&gt;Node15 -->
<g id="edge15" class="edge">
<title>Node12&#45;&gt;Node15</title>
<path fill="none" stroke="midnightblue" d="M396,-112.4C396,-104.47 396,-94.46 396,-85.86"/>
<polygon fill="midnightblue" stroke="midnightblue" points="399.5,-85.66 396,-75.66 392.5,-85.66 399.5,-85.66"/>
</g>
<!-- Node16 -->
<g id="node16" class="node">
<title>Node16</title>
<g id="a_node16"><a xlink:title=" ">
<polygon fill="none" stroke="#bfbfbf" points="373.5,-0.5 373.5,-19.5 418.5,-19.5 418.5,-0.5 373.5,-0.5"/>
<text text-anchor="middle" x="396" y="-7.5" font-family="Helvetica,sans-Serif" font-size="10.00">utility</text>
</a>
</g>
</g>
<!-- Node15&#45;&gt;Node16 -->
<g id="edge16" class="edge">
<title>Node15&#45;&gt;Node16</title>
<path fill="none" stroke="midnightblue" d="M396,-56.08C396,-49.01 396,-38.86 396,-29.99"/>
<polygon fill="midnightblue" stroke="midnightblue" points="399.5,-29.75 396,-19.75 392.5,-29.75 399.5,-29.75"/>
</g>
<!-- Node18 -->
<g id="node18" class="node">
<title>Node18</title>
<g id="a_node18"><a xlink:title=" ">
<polygon fill="none" stroke="#bfbfbf" points="958.5,-56.5 958.5,-75.5 1047.5,-75.5 1047.5,-56.5 958.5,-56.5"/>
<text text-anchor="middle" x="1003" y="-63.5" font-family="Helvetica,sans-Serif" font-size="10.00">QGraphicsItem</text>
</a>
</g>
</g>
<!-- Node17&#45;&gt;Node18 -->
<g id="edge18" class="edge">
<title>Node17&#45;&gt;Node18</title>
<path fill="none" stroke="midnightblue" d="M1038.1,-112.4C1031.41,-103.75 1022.82,-92.64 1015.82,-83.58"/>
<polygon fill="midnightblue" stroke="midnightblue" points="1018.58,-81.43 1009.69,-75.66 1013.04,-85.71 1018.58,-81.43"/>
</g>
<!-- Node19 -->
<g id="node19" class="node">
<title>Node19</title>
<g id="a_node19"><a xlink:title=" ">
<polygon fill="none" stroke="#bfbfbf" points="1065,-56.5 1065,-75.5 1123,-75.5 1123,-56.5 1065,-56.5"/>
<text text-anchor="middle" x="1094" y="-63.5" font-family="Helvetica,sans-Serif" font-size="10.00">QPainter</text>
</a>
</g>
</g>
<!-- Node17&#45;&gt;Node19 -->
<g id="edge19" class="edge">
<title>Node17&#45;&gt;Node19</title>
<path fill="none" stroke="midnightblue" d="M1059.66,-112.4C1066.14,-103.84 1074.43,-92.87 1081.25,-83.86"/>
<polygon fill="midnightblue" stroke="midnightblue" points="1084.21,-85.74 1087.45,-75.66 1078.63,-81.52 1084.21,-85.74"/>
</g>
<!-- Node20 -->
<g id="node20" class="node">
<title>Node20</title>
<g id="a_node20"><a xlink:title=" ">
<polygon fill="none" stroke="#bfbfbf" points="1141,-56.5 1141,-75.5 1183,-75.5 1183,-56.5 1141,-56.5"/>
<text text-anchor="middle" x="1162" y="-63.5" font-family="Helvetica,sans-Serif" font-size="10.00">QPen</text>
</a>
</g>
</g>
<!-- Node17&#45;&gt;Node20 -->
<g id="edge20" class="edge">
<title>Node17&#45;&gt;Node20</title>
<path fill="none" stroke="midnightblue" d="M1075.78,-112.4C1094.06,-102.77 1118.15,-90.09 1136.21,-80.58"/>
<polygon fill="midnightblue" stroke="midnightblue" points="1138.34,-83.41 1145.56,-75.66 1135.08,-77.22 1138.34,-83.41"/>
</g>
<!-- Node21&#45;&gt;Node6 -->
<g id="edge23" class="edge">
<title>Node21&#45;&gt;Node6</title>
<path fill="none" stroke="midnightblue" d="M560.28,-112.4C548.09,-103.22 532.21,-91.26 519.81,-81.92"/>
<polygon fill="midnightblue" stroke="midnightblue" points="521.59,-78.88 511.5,-75.66 517.38,-84.47 521.59,-78.88"/>
</g>
<!-- Node21&#45;&gt;Node10 -->
<g id="edge25" class="edge">
<title>Node21&#45;&gt;Node10</title>
<path fill="none" stroke="midnightblue" d="M637.56,-114.8C642.44,-113.84 647.3,-112.9 652,-112 716.32,-99.66 790.33,-86.04 839.61,-77.05"/>
<polygon fill="midnightblue" stroke="midnightblue" points="840.52,-80.44 849.73,-75.2 839.27,-73.55 840.52,-80.44"/>
</g>
<!-- Node21&#45;&gt;Node15 -->
<g id="edge26" class="edge">
<title>Node21&#45;&gt;Node15</title>
<path fill="none" stroke="midnightblue" d="M535.63,-112.4C504.01,-102.12 461.67,-88.35 431.93,-78.68"/>
<polygon fill="midnightblue" stroke="midnightblue" points="432.95,-75.33 422.36,-75.57 430.79,-81.99 432.95,-75.33"/>
</g>
<!-- Node22 -->
<g id="node22" class="node">
<title>Node22</title>
<g id="a_node22"><a xlink:title=" ">
<polygon fill="none" stroke="#bfbfbf" points="676,-56.5 676,-75.5 832,-75.5 832,-56.5 676,-56.5"/>
<text text-anchor="middle" x="754" y="-63.5" font-family="Helvetica,sans-Serif" font-size="10.00">QGraphicsSceneMouseEvent</text>
</a>
</g>
</g>
<!-- Node21&#45;&gt;Node22 -->
<g id="edge22" class="edge">
<title>Node21&#45;&gt;Node22</title>
<path fill="none" stroke="midnightblue" d="M620.47,-112.4C650.58,-102.16 690.85,-88.47 719.27,-78.81"/>
<polygon fill="midnightblue" stroke="midnightblue" points="720.45,-82.1 728.79,-75.57 718.2,-75.48 720.45,-82.1"/>
</g>
<!-- Node23 -->
<g id="node23" class="node">
<title>Node23</title>
<g id="a_node23"><a xlink:title=" ">
<polygon fill="none" stroke="#bfbfbf" points="572,-56.5 572,-75.5 658,-75.5 658,-56.5 572,-56.5"/>
<text text-anchor="middle" x="615" y="-63.5" font-family="Helvetica,sans-Serif" font-size="10.00">QSvgRenderer</text>
</a>
</g>
</g>
<!-- Node21&#45;&gt;Node23 -->
<g id="edge24" class="edge">
<title>Node21&#45;&gt;Node23</title>
<path fill="none" stroke="midnightblue" d="M587.53,-112.4C592.6,-104.02 599.07,-93.33 604.46,-84.42"/>
<polygon fill="midnightblue" stroke="midnightblue" points="607.58,-86.03 609.76,-75.66 601.59,-82.4 607.58,-86.03"/>
</g>
</g>
</svg>
