<?xml version="1.0" encoding="UTF-8" standalone="no"?>
<!DOCTYPE svg PUBLIC "-//W3C//DTD SVG 1.1//EN"
 "http://www.w3.org/Graphics/SVG/1.1/DTD/svg11.dtd">
<!-- Generated by graphviz version 2.43.0 (0)
 -->
<!-- Title: src/gui/screen_game/screen_game.h Pages: 1 -->
<svg width="1685pt" height="218pt"
 viewBox="0.00 0.00 1685.00 218.00" xmlns="http://www.w3.org/2000/svg" xmlns:xlink="http://www.w3.org/1999/xlink">
<g id="graph0" class="graph" transform="scale(1 1) rotate(0) translate(4 214)">
<title>src/gui/screen_game/screen_game.h</title>
<!-- Node1 -->
<g id="node1" class="node">
<title>Node1</title>
<g id="a_node1"><a xlink:title=" ">
<polygon fill="#bfbfbf" stroke="black" points="850.5,-179.5 850.5,-209.5 967.5,-209.5 967.5,-179.5 850.5,-179.5"/>
<text text-anchor="start" x="858.5" y="-197.5" font-family="Helvetica,sans-Serif" font-size="10.00">src/gui/screen_game</text>
<text text-anchor="middle" x="909" y="-186.5" font-family="Helvetica,sans-Serif" font-size="10.00">/screen_game.h</text>
</a>
</g>
</g>
<!-- Node2 -->
<g id="node2" class="node">
<title>Node2</title>
<g id="a_node2"><a xlink:title=" ">
<polygon fill="none" stroke="#bfbfbf" points="0,-118 0,-137 38,-137 38,-118 0,-118"/>
<text text-anchor="middle" x="19" y="-125" font-family="Helvetica,sans-Serif" font-size="10.00">QDir</text>
</a>
</g>
</g>
<!-- Node1&#45;&gt;Node2 -->
<g id="edge1" class="edge">
<title>Node1&#45;&gt;Node2</title>
<path fill="none" stroke="midnightblue" d="M850.21,-193.23C681.6,-191.97 198.78,-184.71 47,-143 45.33,-142.54 43.65,-141.97 41.98,-141.33"/>
<polygon fill="midnightblue" stroke="midnightblue" points="43.32,-138.1 32.77,-137.08 40.38,-144.45 43.32,-138.1"/>
</g>
<!-- Node3 -->
<g id="node3" class="node">
<title>Node3</title>
<g id="a_node3"><a xlink:title=" ">
<polygon fill="none" stroke="#bfbfbf" points="56,-118 56,-137 190,-137 190,-118 56,-118"/>
<text text-anchor="middle" x="123" y="-125" font-family="Helvetica,sans-Serif" font-size="10.00">QGraphicsColorizeEffect</text>
</a>
</g>
</g>
<!-- Node1&#45;&gt;Node3 -->
<g id="edge2" class="edge">
<title>Node1&#45;&gt;Node3</title>
<path fill="none" stroke="midnightblue" d="M850.32,-191.66C728.51,-187.33 439.48,-174.38 199,-143 190.58,-141.9 181.67,-140.46 173.05,-138.91"/>
<polygon fill="midnightblue" stroke="midnightblue" points="173.56,-135.45 163.09,-137.06 172.28,-142.33 173.56,-135.45"/>
</g>
<!-- Node4 -->
<g id="node4" class="node">
<title>Node4</title>
<g id="a_node4"><a xlink:title=" ">
<polygon fill="none" stroke="#bfbfbf" points="208,-118 208,-137 330,-137 330,-118 208,-118"/>
<text text-anchor="middle" x="269" y="-125" font-family="Helvetica,sans-Serif" font-size="10.00">QGraphicsEllipseItem</text>
</a>
</g>
</g>
<!-- Node1&#45;&gt;Node4 -->
<g id="edge3" class="edge">
<title>Node1&#45;&gt;Node4</title>
<path fill="none" stroke="midnightblue" d="M850.48,-190.56C746.92,-184.85 524.76,-170.37 339,-143 331.57,-141.91 323.75,-140.52 316.13,-139.04"/>
<polygon fill="midnightblue" stroke="midnightblue" points="316.77,-135.6 306.28,-137.06 315.39,-142.46 316.77,-135.6"/>
</g>
<!-- Node5 -->
<g id="node5" class="node">
<title>Node5</title>
<g id="a_node5"><a xlink:title=" ">
<polygon fill="none" stroke="#bfbfbf" points="348,-118 348,-137 488,-137 488,-118 348,-118"/>
<text text-anchor="middle" x="418" y="-125" font-family="Helvetica,sans-Serif" font-size="10.00">QGraphicsItemAnimation</text>
</a>
</g>
</g>
<!-- Node1&#45;&gt;Node5 -->
<g id="edge4" class="edge">
<title>Node1&#45;&gt;Node5</title>
<path fill="none" stroke="midnightblue" d="M850.24,-187.1C771.02,-178.26 625.61,-161.33 502,-143 493.28,-141.71 484.07,-140.23 475.07,-138.73"/>
<polygon fill="midnightblue" stroke="midnightblue" points="475.47,-135.25 465.03,-137.02 474.3,-142.15 475.47,-135.25"/>
</g>
<!-- Node6 -->
<g id="node6" class="node">
<title>Node6</title>
<g id="a_node6"><a xlink:title=" ">
<polygon fill="none" stroke="#bfbfbf" points="244,-56.5 244,-75.5 340,-75.5 340,-56.5 244,-56.5"/>
<text text-anchor="middle" x="292" y="-63.5" font-family="Helvetica,sans-Serif" font-size="10.00">QGraphicsScene</text>
</a>
</g>
</g>
<!-- Node1&#45;&gt;Node6 -->
<g id="edge5" class="edge">
<title>Node1&#45;&gt;Node6</title>
<path fill="none" stroke="midnightblue" d="M850.38,-189.48C759.77,-182.62 590.38,-167.02 535,-143 515,-134.33 516.62,-121.48 497,-112 471.47,-99.66 401.22,-85.7 350.06,-76.64"/>
<polygon fill="midnightblue" stroke="midnightblue" points="350.55,-73.17 340.1,-74.9 349.35,-80.07 350.55,-73.17"/>
</g>
<!-- Node7 -->
<g id="node7" class="node">
<title>Node7</title>
<g id="a_node7"><a xlink:title=" ">
<polygon fill="none" stroke="#bfbfbf" points="868.5,-56.5 868.5,-75.5 975.5,-75.5 975.5,-56.5 868.5,-56.5"/>
<text text-anchor="middle" x="922" y="-63.5" font-family="Helvetica,sans-Serif" font-size="10.00">QGraphicsSvgItem</text>
</a>
</g>
</g>
<!-- Node1&#45;&gt;Node7 -->
<g id="edge6" class="edge">
<title>Node1&#45;&gt;Node7</title>
<path fill="none" stroke="midnightblue" d="M916.64,-179.39C921.53,-169.52 927.43,-155.85 930,-143 933.89,-123.53 930.49,-100.85 927.01,-85.36"/>
<polygon fill="midnightblue" stroke="midnightblue" points="930.36,-84.37 924.55,-75.51 923.57,-86.06 930.36,-84.37"/>
</g>
<!-- Node8 -->
<g id="node8" class="node">
<title>Node8</title>
<g id="a_node8"><a xlink:title=" ">
<polygon fill="none" stroke="#bfbfbf" points="1330,-118 1330,-137 1410,-137 1410,-118 1330,-118"/>
<text text-anchor="middle" x="1370" y="-125" font-family="Helvetica,sans-Serif" font-size="10.00">QInputDialog</text>
</a>
</g>
</g>
<!-- Node1&#45;&gt;Node8 -->
<g id="edge7" class="edge">
<title>Node1&#45;&gt;Node8</title>
<path fill="none" stroke="midnightblue" d="M967.83,-189.37C1048.23,-183.03 1196.64,-168.83 1321,-143 1325.25,-142.12 1329.67,-141.04 1334.03,-139.88"/>
<polygon fill="midnightblue" stroke="midnightblue" points="1335.34,-143.15 1344.01,-137.06 1333.44,-136.41 1335.34,-143.15"/>
</g>
<!-- Node9 -->
<g id="node9" class="node">
<title>Node9</title>
<g id="a_node9"><a xlink:title=" ">
<polygon fill="none" stroke="#bfbfbf" points="1348.5,-56.5 1348.5,-75.5 1401.5,-75.5 1401.5,-56.5 1348.5,-56.5"/>
<text text-anchor="middle" x="1375" y="-63.5" font-family="Helvetica,sans-Serif" font-size="10.00">QString</text>
</a>
</g>
</g>
<!-- Node1&#45;&gt;Node9 -->
<g id="edge8" class="edge">
<title>Node1&#45;&gt;Node9</title>
<path fill="none" stroke="midnightblue" d="M967.62,-184.04C1007.35,-176.27 1060.36,-163.2 1104,-143 1125.71,-132.95 1125.97,-121.32 1148,-112 1224.69,-79.57 1252.59,-93.38 1338.4,-75.95"/>
<polygon fill="midnightblue" stroke="midnightblue" points="1339.25,-79.35 1348.3,-73.86 1337.8,-72.51 1339.25,-79.35"/>
</g>
<!-- Node10 -->
<g id="node10" class="node">
<title>Node10</title>
<g id="a_node10"><a xlink:title=" ">
<polygon fill="none" stroke="#bfbfbf" points="1428.5,-118 1428.5,-137 1497.5,-137 1497.5,-118 1428.5,-118"/>
<text text-anchor="middle" x="1463" y="-125" font-family="Helvetica,sans-Serif" font-size="10.00">QTimeLine</text>
</a>
</g>
</g>
<!-- Node1&#45;&gt;Node10 -->
<g id="edge9" class="edge">
<title>Node1&#45;&gt;Node10</title>
<path fill="none" stroke="midnightblue" d="M967.77,-191.86C1063.34,-188.27 1257.96,-177.07 1419,-143 1422.68,-142.22 1426.48,-141.24 1430.24,-140.17"/>
<polygon fill="midnightblue" stroke="midnightblue" points="1431.46,-143.45 1439.97,-137.14 1429.38,-136.77 1431.46,-143.45"/>
</g>
<!-- Node11 -->
<g id="node11" class="node">
<title>Node11</title>
<g id="a_node11"><a xlink:title=" ">
<polygon fill="none" stroke="#bfbfbf" points="1515.5,-118 1515.5,-137 1574.5,-137 1574.5,-118 1515.5,-118"/>
<text text-anchor="middle" x="1545" y="-125" font-family="Helvetica,sans-Serif" font-size="10.00">QWidget</text>
</a>
</g>
</g>
<!-- Node1&#45;&gt;Node11 -->
<g id="edge10" class="edge">
<title>Node1&#45;&gt;Node11</title>
<path fill="none" stroke="midnightblue" d="M967.56,-193.95C1075.6,-193.6 1312.99,-187.28 1507,-143 1510,-142.32 1513.08,-141.44 1516.13,-140.47"/>
<polygon fill="midnightblue" stroke="midnightblue" points="1517.35,-143.75 1525.6,-137.1 1515.01,-137.15 1517.35,-143.75"/>
</g>
<!-- Node12 -->
<g id="node12" class="node">
<title>Node12</title>
<g id="a_node12"><a xlink:href="constants_8h.html" target="_top" xlink:title=" ">
<polygon fill="none" stroke="black" points="1420,-56.5 1420,-75.5 1510,-75.5 1510,-56.5 1420,-56.5"/>
<text text-anchor="middle" x="1465" y="-63.5" font-family="Helvetica,sans-Serif" font-size="10.00">src/constants.h</text>
</a>
</g>
</g>
<!-- Node1&#45;&gt;Node12 -->
<g id="edge11" class="edge">
<title>Node1&#45;&gt;Node12</title>
<path fill="none" stroke="midnightblue" d="M967.62,-187.58C1015.64,-181.13 1084.48,-168.17 1140,-143 1161.13,-133.42 1160.59,-120.95 1182,-112 1274.09,-73.51 1307.22,-91.27 1409.78,-76.12"/>
<polygon fill="midnightblue" stroke="midnightblue" points="1410.58,-79.53 1419.92,-74.54 1409.51,-72.62 1410.58,-79.53"/>
</g>
<!-- Node14 -->
<g id="node14" class="node">
<title>Node14</title>
<g id="a_node14"><a xlink:href="gui__point_8h.html" target="_top" xlink:title=" ">
<polygon fill="none" stroke="black" points="681.5,-112.5 681.5,-142.5 796.5,-142.5 796.5,-112.5 681.5,-112.5"/>
<text text-anchor="start" x="689.5" y="-130.5" font-family="Helvetica,sans-Serif" font-size="10.00">src/gui/gui_point/gui</text>
<text text-anchor="middle" x="739" y="-119.5" font-family="Helvetica,sans-Serif" font-size="10.00">_point.h</text>
</a>
</g>
</g>
<!-- Node1&#45;&gt;Node14 -->
<g id="edge13" class="edge">
<title>Node1&#45;&gt;Node14</title>
<path fill="none" stroke="midnightblue" d="M872.11,-179.4C846.61,-169.64 812.48,-156.59 785.17,-146.15"/>
<polygon fill="midnightblue" stroke="midnightblue" points="786.41,-142.88 775.82,-142.58 783.91,-149.42 786.41,-142.88"/>
</g>
<!-- Node20 -->
<g id="node20" class="node">
<title>Node20</title>
<g id="a_node20"><a xlink:href="gui__scene_8h.html" target="_top" xlink:title=" ">
<polygon fill="none" stroke="black" points="544.5,-112.5 544.5,-142.5 663.5,-142.5 663.5,-112.5 544.5,-112.5"/>
<text text-anchor="start" x="552.5" y="-130.5" font-family="Helvetica,sans-Serif" font-size="10.00">src/gui/gui_scene/gui</text>
<text text-anchor="middle" x="604" y="-119.5" font-family="Helvetica,sans-Serif" font-size="10.00">_scene.h</text>
</a>
</g>
</g>
<!-- Node1&#45;&gt;Node20 -->
<g id="edge19" class="edge">
<title>Node1&#45;&gt;Node20</title>
<path fill="none" stroke="midnightblue" d="M850.07,-180.95C804.46,-171.23 739.42,-157.37 673.81,-143.39"/>
<polygon fill="midnightblue" stroke="midnightblue" points="674.21,-139.89 663.7,-141.23 672.75,-146.74 674.21,-139.89"/>
</g>
<!-- Node23 -->
<g id="node23" class="node">
<title>Node23</title>
<g id="a_node23"><a xlink:href="gui__win_8h.html" target="_top" xlink:title=" ">
<polygon fill="none" stroke="black" points="814.5,-112.5 814.5,-142.5 921.5,-142.5 921.5,-112.5 814.5,-112.5"/>
<text text-anchor="start" x="822.5" y="-130.5" font-family="Helvetica,sans-Serif" font-size="10.00">src/gui/gui_win/gui</text>
<text text-anchor="middle" x="868" y="-119.5" font-family="Helvetica,sans-Serif" font-size="10.00">_win.h</text>
</a>
</g>
</g>
<!-- Node1&#45;&gt;Node23 -->
<g id="edge24" class="edge">
<title>Node1&#45;&gt;Node23</title>
<path fill="none" stroke="midnightblue" d="M900.1,-179.4C894.89,-171.13 888.19,-160.51 882.26,-151.1"/>
<polygon fill="midnightblue" stroke="midnightblue" points="885.17,-149.17 876.88,-142.58 879.25,-152.9 885.17,-149.17"/>
</g>
<!-- Node25 -->
<g id="node25" class="node">
<title>Node25</title>
<g id="a_node25"><a xlink:href="gui__advantage__bar_8h.html" target="_top" xlink:title=" ">
<polygon fill="none" stroke="black" points="1190.5,-112.5 1190.5,-142.5 1311.5,-142.5 1311.5,-112.5 1190.5,-112.5"/>
<text text-anchor="start" x="1198.5" y="-130.5" font-family="Helvetica,sans-Serif" font-size="10.00">src/gui/screen_game</text>
<text text-anchor="middle" x="1251" y="-119.5" font-family="Helvetica,sans-Serif" font-size="10.00">/gui_advantage_bar.h</text>
</a>
</g>
</g>
<!-- Node1&#45;&gt;Node25 -->
<g id="edge30" class="edge">
<title>Node1&#45;&gt;Node25</title>
<path fill="none" stroke="midnightblue" d="M967.61,-182.49C1021.72,-172.3 1104.29,-156.71 1176,-143 1177.47,-142.72 1178.95,-142.44 1180.44,-142.15"/>
<polygon fill="midnightblue" stroke="midnightblue" points="1181.26,-145.56 1190.42,-140.23 1179.94,-138.68 1181.26,-145.56"/>
</g>
<!-- Node28 -->
<g id="node28" class="node">
<title>Node28</title>
<g id="a_node28"><a xlink:href="gui__figure_8h.html" target="_top" xlink:title=" ">
<polygon fill="none" stroke="black" points="978.5,-112.5 978.5,-142.5 1095.5,-142.5 1095.5,-112.5 978.5,-112.5"/>
<text text-anchor="start" x="986.5" y="-130.5" font-family="Helvetica,sans-Serif" font-size="10.00">src/gui/screen_game</text>
<text text-anchor="middle" x="1037" y="-119.5" font-family="Helvetica,sans-Serif" font-size="10.00">/gui_figure.h</text>
</a>
</g>
</g>
<!-- Node1&#45;&gt;Node28 -->
<g id="edge34" class="edge">
<title>Node1&#45;&gt;Node28</title>
<path fill="none" stroke="midnightblue" d="M936.77,-179.4C955.39,-169.94 980.11,-157.39 1000.34,-147.12"/>
<polygon fill="midnightblue" stroke="midnightblue" points="1001.95,-150.23 1009.28,-142.58 998.78,-143.98 1001.95,-150.23"/>
</g>
<!-- Node13 -->
<g id="node13" class="node">
<title>Node13</title>
<g id="a_node13"><a xlink:title=" ">
<polygon fill="none" stroke="#bfbfbf" points="1437.5,-0.5 1437.5,-19.5 1492.5,-19.5 1492.5,-0.5 1437.5,-0.5"/>
<text text-anchor="middle" x="1465" y="-7.5" font-family="Helvetica,sans-Serif" font-size="10.00">QVector</text>
</a>
</g>
</g>
<!-- Node12&#45;&gt;Node13 -->
<g id="edge12" class="edge">
<title>Node12&#45;&gt;Node13</title>
<path fill="none" stroke="midnightblue" d="M1465,-56.08C1465,-49.01 1465,-38.86 1465,-29.99"/>
<polygon fill="midnightblue" stroke="midnightblue" points="1468.5,-29.75 1465,-19.75 1461.5,-29.75 1468.5,-29.75"/>
</g>
<!-- Node15 -->
<g id="node15" class="node">
<title>Node15</title>
<g id="a_node15"><a xlink:title=" ">
<polygon fill="none" stroke="#bfbfbf" points="528,-56.5 528,-75.5 626,-75.5 626,-56.5 528,-56.5"/>
<text text-anchor="middle" x="577" y="-63.5" font-family="Helvetica,sans-Serif" font-size="10.00">QGraphicsObject</text>
</a>
</g>
</g>
<!-- Node14&#45;&gt;Node15 -->
<g id="edge14" class="edge">
<title>Node14&#45;&gt;Node15</title>
<path fill="none" stroke="midnightblue" d="M700.61,-112.4C673.06,-102.28 636.33,-88.79 610.08,-79.15"/>
<polygon fill="midnightblue" stroke="midnightblue" points="611.17,-75.82 600.57,-75.66 608.75,-82.39 611.17,-75.82"/>
</g>
<!-- Node16 -->
<g id="node16" class="node">
<title>Node16</title>
<g id="a_node16"><a xlink:title=" ">
<polygon fill="none" stroke="#bfbfbf" points="644,-56.5 644,-75.5 768,-75.5 768,-56.5 644,-56.5"/>
<text text-anchor="middle" x="706" y="-63.5" font-family="Helvetica,sans-Serif" font-size="10.00">QGraphicsSceneEvent</text>
</a>
</g>
</g>
<!-- Node14&#45;&gt;Node16 -->
<g id="edge15" class="edge">
<title>Node14&#45;&gt;Node16</title>
<path fill="none" stroke="midnightblue" d="M731.18,-112.4C726.53,-104.02 720.6,-93.33 715.66,-84.42"/>
<polygon fill="midnightblue" stroke="midnightblue" points="718.71,-82.71 710.8,-75.66 712.59,-86.1 718.71,-82.71"/>
</g>
<!-- Node17 -->
<g id="node17" class="node">
<title>Node17</title>
<g id="a_node17"><a xlink:title=" ">
<polygon fill="none" stroke="#bfbfbf" points="1098,-56.5 1098,-75.5 1156,-75.5 1156,-56.5 1098,-56.5"/>
<text text-anchor="middle" x="1127" y="-63.5" font-family="Helvetica,sans-Serif" font-size="10.00">QPainter</text>
</a>
</g>
</g>
<!-- Node14&#45;&gt;Node17 -->
<g id="edge16" class="edge">
<title>Node14&#45;&gt;Node17</title>
<path fill="none" stroke="midnightblue" d="M796.53,-113.54C799.39,-113 802.23,-112.48 805,-112 927.19,-90.88 962.05,-98.29 1087.61,-76.08"/>
<polygon fill="midnightblue" stroke="midnightblue" points="1088.38,-79.5 1097.61,-74.29 1087.15,-72.61 1088.38,-79.5"/>
</g>
<!-- Node18 -->
<g id="node18" class="node">
<title>Node18</title>
<g id="a_node18"><a xlink:href="utils_8h.html" target="_top" xlink:title=" ">
<polygon fill="none" stroke="black" points="786,-56.5 786,-75.5 850,-75.5 850,-56.5 786,-56.5"/>
<text text-anchor="middle" x="818" y="-63.5" font-family="Helvetica,sans-Serif" font-size="10.00">src/utils.h</text>
</a>
</g>
</g>
<!-- Node14&#45;&gt;Node18 -->
<g id="edge17" class="edge">
<title>Node14&#45;&gt;Node18</title>
<path fill="none" stroke="midnightblue" d="M757.72,-112.4C769.91,-103.22 785.79,-91.26 798.19,-81.92"/>
<polygon fill="midnightblue" stroke="midnightblue" points="800.62,-84.47 806.5,-75.66 796.41,-78.88 800.62,-84.47"/>
</g>
<!-- Node19 -->
<g id="node19" class="node">
<title>Node19</title>
<g id="a_node19"><a xlink:title=" ">
<polygon fill="none" stroke="#bfbfbf" points="795.5,-0.5 795.5,-19.5 840.5,-19.5 840.5,-0.5 795.5,-0.5"/>
<text text-anchor="middle" x="818" y="-7.5" font-family="Helvetica,sans-Serif" font-size="10.00">utility</text>
</a>
</g>
</g>
<!-- Node18&#45;&gt;Node19 -->
<g id="edge18" class="edge">
<title>Node18&#45;&gt;Node19</title>
<path fill="none" stroke="midnightblue" d="M818,-56.08C818,-49.01 818,-38.86 818,-29.99"/>
<polygon fill="midnightblue" stroke="midnightblue" points="821.5,-29.75 818,-19.75 814.5,-29.75 821.5,-29.75"/>
</g>
<!-- Node20&#45;&gt;Node6 -->
<g id="edge20" class="edge">
<title>Node20&#45;&gt;Node6</title>
<path fill="none" stroke="midnightblue" d="M544.23,-114.75C539.42,-113.82 534.63,-112.89 530,-112 467.55,-99.98 395.82,-86.45 347.57,-77.4"/>
<polygon fill="midnightblue" stroke="midnightblue" points="348.12,-73.94 337.64,-75.54 346.83,-80.82 348.12,-73.94"/>
</g>
<!-- Node20&#45;&gt;Node18 -->
<g id="edge23" class="edge">
<title>Node20&#45;&gt;Node18</title>
<path fill="none" stroke="midnightblue" d="M654.44,-112.47C692.01,-102.03 742.62,-87.96 777.55,-78.25"/>
<polygon fill="midnightblue" stroke="midnightblue" points="778.71,-81.56 787.41,-75.51 776.83,-74.81 778.71,-81.56"/>
</g>
<!-- Node21 -->
<g id="node21" class="node">
<title>Node21</title>
<g id="a_node21"><a xlink:title=" ">
<polygon fill="none" stroke="#bfbfbf" points="426,-56.5 426,-75.5 510,-75.5 510,-56.5 426,-56.5"/>
<text text-anchor="middle" x="468" y="-63.5" font-family="Helvetica,sans-Serif" font-size="10.00">QMouseEvent</text>
</a>
</g>
</g>
<!-- Node20&#45;&gt;Node21 -->
<g id="edge21" class="edge">
<title>Node20&#45;&gt;Node21</title>
<path fill="none" stroke="midnightblue" d="M571.77,-112.4C549.16,-102.51 519.16,-89.38 497.24,-79.79"/>
<polygon fill="midnightblue" stroke="midnightblue" points="498.35,-76.46 487.79,-75.66 495.55,-82.87 498.35,-76.46"/>
</g>
<!-- Node22 -->
<g id="node22" class="node">
<title>Node22</title>
<g id="a_node22"><a xlink:title=" ">
<polygon fill="none" stroke="#bfbfbf" points="358.5,-56.5 358.5,-75.5 407.5,-75.5 407.5,-56.5 358.5,-56.5"/>
<text text-anchor="middle" x="383" y="-63.5" font-family="Helvetica,sans-Serif" font-size="10.00">QPoint</text>
</a>
</g>
</g>
<!-- Node20&#45;&gt;Node22 -->
<g id="edge22" class="edge">
<title>Node20&#45;&gt;Node22</title>
<path fill="none" stroke="midnightblue" d="M551.91,-112.47C510.44,-101.31 453.58,-86 417.56,-76.31"/>
<polygon fill="midnightblue" stroke="midnightblue" points="418.11,-72.83 407.54,-73.61 416.29,-79.59 418.11,-72.83"/>
</g>
<!-- Node23&#45;&gt;Node7 -->
<g id="edge26" class="edge">
<title>Node23&#45;&gt;Node7</title>
<path fill="none" stroke="midnightblue" d="M880.8,-112.4C888.72,-103.66 898.94,-92.41 907.21,-83.3"/>
<polygon fill="midnightblue" stroke="midnightblue" points="910.01,-85.42 914.14,-75.66 904.83,-80.71 910.01,-85.42"/>
</g>
<!-- Node23&#45;&gt;Node9 -->
<g id="edge27" class="edge">
<title>Node23&#45;&gt;Node9</title>
<path fill="none" stroke="midnightblue" d="M921.67,-118.33C936.94,-116.13 953.61,-113.85 969,-112 1129.83,-92.64 1174.46,-103.66 1338.41,-75.84"/>
<polygon fill="midnightblue" stroke="midnightblue" points="1339.1,-79.27 1348.36,-74.13 1337.91,-72.37 1339.1,-79.27"/>
</g>
<!-- Node23&#45;&gt;Node16 -->
<g id="edge25" class="edge">
<title>Node23&#45;&gt;Node16</title>
<path fill="none" stroke="midnightblue" d="M829.61,-112.4C802.06,-102.28 765.33,-88.79 739.08,-79.15"/>
<polygon fill="midnightblue" stroke="midnightblue" points="740.17,-75.82 729.57,-75.66 737.75,-82.39 740.17,-75.82"/>
</g>
<!-- Node23&#45;&gt;Node18 -->
<g id="edge29" class="edge">
<title>Node23&#45;&gt;Node18</title>
<path fill="none" stroke="midnightblue" d="M856.15,-112.4C848.89,-103.75 839.55,-92.64 831.93,-83.58"/>
<polygon fill="midnightblue" stroke="midnightblue" points="834.39,-81.06 825.28,-75.66 829.03,-85.57 834.39,-81.06"/>
</g>
<!-- Node24 -->
<g id="node24" class="node">
<title>Node24</title>
<g id="a_node24"><a xlink:title=" ">
<polygon fill="none" stroke="#bfbfbf" points="994,-56.5 994,-75.5 1080,-75.5 1080,-56.5 994,-56.5"/>
<text text-anchor="middle" x="1037" y="-63.5" font-family="Helvetica,sans-Serif" font-size="10.00">QSvgRenderer</text>
</a>
</g>
</g>
<!-- Node23&#45;&gt;Node24 -->
<g id="edge28" class="edge">
<title>Node23&#45;&gt;Node24</title>
<path fill="none" stroke="midnightblue" d="M908.05,-112.4C936.91,-102.24 975.45,-88.67 1002.85,-79.02"/>
<polygon fill="midnightblue" stroke="midnightblue" points="1004.14,-82.28 1012.41,-75.66 1001.81,-75.68 1004.14,-82.28"/>
</g>
<!-- Node25&#45;&gt;Node17 -->
<g id="edge32" class="edge">
<title>Node25&#45;&gt;Node17</title>
<path fill="none" stroke="midnightblue" d="M1221.61,-112.4C1201.18,-102.59 1174.14,-89.62 1154.2,-80.05"/>
<polygon fill="midnightblue" stroke="midnightblue" points="1155.57,-76.83 1145.04,-75.66 1152.54,-83.14 1155.57,-76.83"/>
</g>
<!-- Node26 -->
<g id="node26" class="node">
<title>Node26</title>
<g id="a_node26"><a xlink:title=" ">
<polygon fill="none" stroke="#bfbfbf" points="1528.5,-56.5 1528.5,-75.5 1617.5,-75.5 1617.5,-56.5 1528.5,-56.5"/>
<text text-anchor="middle" x="1573" y="-63.5" font-family="Helvetica,sans-Serif" font-size="10.00">QGraphicsItem</text>
</a>
</g>
</g>
<!-- Node25&#45;&gt;Node26 -->
<g id="edge31" class="edge">
<title>Node25&#45;&gt;Node26</title>
<path fill="none" stroke="midnightblue" d="M1311.69,-113.82C1314.83,-113.2 1317.95,-112.59 1321,-112 1388.77,-98.93 1467.06,-85.16 1518.16,-76.34"/>
<polygon fill="midnightblue" stroke="midnightblue" points="1519.06,-79.74 1528.32,-74.6 1517.87,-72.84 1519.06,-79.74"/>
</g>
<!-- Node27 -->
<g id="node27" class="node">
<title>Node27</title>
<g id="a_node27"><a xlink:title=" ">
<polygon fill="none" stroke="#bfbfbf" points="1635,-56.5 1635,-75.5 1677,-75.5 1677,-56.5 1635,-56.5"/>
<text text-anchor="middle" x="1656" y="-63.5" font-family="Helvetica,sans-Serif" font-size="10.00">QPen</text>
</a>
</g>
</g>
<!-- Node25&#45;&gt;Node27 -->
<g id="edge33" class="edge">
<title>Node25&#45;&gt;Node27</title>
<path fill="none" stroke="midnightblue" d="M1311.65,-113.6C1314.81,-113.03 1317.94,-112.5 1321,-112 1453.01,-90.6 1491.26,-103.76 1625.09,-76.1"/>
<polygon fill="midnightblue" stroke="midnightblue" points="1625.83,-79.53 1634.9,-74.04 1624.39,-72.68 1625.83,-79.53"/>
</g>
<!-- Node28&#45;&gt;Node7 -->
<g id="edge36" class="edge">
<title>Node28&#45;&gt;Node7</title>
<path fill="none" stroke="midnightblue" d="M1009.75,-112.4C990.97,-102.68 966.17,-89.86 947.73,-80.31"/>
<polygon fill="midnightblue" stroke="midnightblue" points="949.22,-77.14 938.73,-75.66 946.01,-83.36 949.22,-77.14"/>
</g>
<!-- Node28&#45;&gt;Node12 -->
<g id="edge38" class="edge">
<title>Node28&#45;&gt;Node12</title>
<path fill="none" stroke="midnightblue" d="M1095.7,-118.8C1180.98,-107.58 1336.13,-87.01 1409.69,-76.15"/>
<polygon fill="midnightblue" stroke="midnightblue" points="1410.56,-79.56 1419.94,-74.62 1409.53,-72.63 1410.56,-79.56"/>
</g>
<!-- Node28&#45;&gt;Node18 -->
<g id="edge39" class="edge">
<title>Node28&#45;&gt;Node18</title>
<path fill="none" stroke="midnightblue" d="M985.38,-112.47C946.94,-102.03 895.14,-87.96 859.4,-78.25"/>
<polygon fill="midnightblue" stroke="midnightblue" points="859.88,-74.75 849.31,-75.51 858.04,-81.51 859.88,-74.75"/>
</g>
<!-- Node28&#45;&gt;Node24 -->
<g id="edge37" class="edge">
<title>Node28&#45;&gt;Node24</title>
<path fill="none" stroke="midnightblue" d="M1037,-112.4C1037,-104.47 1037,-94.46 1037,-85.86"/>
<polygon fill="midnightblue" stroke="midnightblue" points="1040.5,-85.66 1037,-75.66 1033.5,-85.66 1040.5,-85.66"/>
</g>
<!-- Node29 -->
<g id="node29" class="node">
<title>Node29</title>
<g id="a_node29"><a xlink:title=" ">
<polygon fill="none" stroke="#bfbfbf" points="1174,-56.5 1174,-75.5 1330,-75.5 1330,-56.5 1174,-56.5"/>
<text text-anchor="middle" x="1252" y="-63.5" font-family="Helvetica,sans-Serif" font-size="10.00">QGraphicsSceneMouseEvent</text>
</a>
</g>
</g>
<!-- Node28&#45;&gt;Node29 -->
<g id="edge35" class="edge">
<title>Node28&#45;&gt;Node29</title>
<path fill="none" stroke="midnightblue" d="M1087.68,-112.47C1125.42,-102.03 1176.27,-87.96 1211.36,-78.25"/>
<polygon fill="midnightblue" stroke="midnightblue" points="1212.56,-81.55 1221.26,-75.51 1210.69,-74.8 1212.56,-81.55"/>
</g>
</g>
</svg>
