<?xml version="1.0" encoding="UTF-8" standalone="no"?>
<!DOCTYPE svg PUBLIC "-//W3C//DTD SVG 1.1//EN"
 "http://www.w3.org/Graphics/SVG/1.1/DTD/svg11.dtd">
<!-- Generated by graphviz version 2.43.0 (0)
 -->
<!-- Title: src/gui/screen_game/screen_game.cpp Pages: 1 -->
<svg width="1899pt" height="274pt"
 viewBox="0.00 0.00 1898.50 274.00" xmlns="http://www.w3.org/2000/svg" xmlns:xlink="http://www.w3.org/1999/xlink">
<g id="graph0" class="graph" transform="scale(1 1) rotate(0) translate(4 270)">
<title>src/gui/screen_game/screen_game.cpp</title>
<!-- Node1 -->
<g id="node1" class="node">
<title>Node1</title>
<g id="a_node1"><a xlink:title=" ">
<polygon fill="#bfbfbf" stroke="black" points="878.5,-235.5 878.5,-265.5 995.5,-265.5 995.5,-235.5 878.5,-235.5"/>
<text text-anchor="start" x="886.5" y="-253.5" font-family="Helvetica,sans-Serif" font-size="10.00">src/gui/screen_game</text>
<text text-anchor="middle" x="937" y="-242.5" font-family="Helvetica,sans-Serif" font-size="10.00">/screen_game.cpp</text>
</a>
</g>
</g>
<!-- Node2 -->
<g id="node2" class="node">
<title>Node2</title>
<g id="a_node2"><a xlink:href="screen__game_8h.html" target="_top" xlink:title=" ">
<polygon fill="none" stroke="black" points="775.5,-179.5 775.5,-198.5 866.5,-198.5 866.5,-179.5 775.5,-179.5"/>
<text text-anchor="middle" x="821" y="-186.5" font-family="Helvetica,sans-Serif" font-size="10.00">screen_game.h</text>
</a>
</g>
</g>
<!-- Node1&#45;&gt;Node2 -->
<g id="edge1" class="edge">
<title>Node1&#45;&gt;Node2</title>
<path fill="none" stroke="midnightblue" d="M909.51,-235.4C890.57,-225.68 865.56,-212.86 846.96,-203.31"/>
<polygon fill="midnightblue" stroke="midnightblue" points="848.37,-200.11 837.88,-198.66 845.18,-206.34 848.37,-200.11"/>
</g>
<!-- Node31 -->
<g id="node31" class="node">
<title>Node31</title>
<g id="a_node31"><a xlink:title=" ">
<polygon fill="none" stroke="#bfbfbf" points="884.5,-179.5 884.5,-198.5 989.5,-198.5 989.5,-179.5 884.5,-179.5"/>
<text text-anchor="middle" x="937" y="-186.5" font-family="Helvetica,sans-Serif" font-size="10.00">ui_screen_game.h</text>
</a>
</g>
</g>
<!-- Node1&#45;&gt;Node31 -->
<g id="edge42" class="edge">
<title>Node1&#45;&gt;Node31</title>
<path fill="none" stroke="midnightblue" d="M937,-235.4C937,-227.47 937,-217.46 937,-208.86"/>
<polygon fill="midnightblue" stroke="midnightblue" points="940.5,-208.66 937,-198.66 933.5,-208.66 940.5,-208.66"/>
</g>
<!-- Node32 -->
<g id="node32" class="node">
<title>Node32</title>
<g id="a_node32"><a xlink:title=" ">
<polygon fill="none" stroke="#bfbfbf" points="1008,-179.5 1008,-198.5 1068,-198.5 1068,-179.5 1008,-179.5"/>
<text text-anchor="middle" x="1038" y="-186.5" font-family="Helvetica,sans-Serif" font-size="10.00">iostream</text>
</a>
</g>
</g>
<!-- Node1&#45;&gt;Node32 -->
<g id="edge43" class="edge">
<title>Node1&#45;&gt;Node32</title>
<path fill="none" stroke="midnightblue" d="M960.94,-235.4C977.13,-225.86 998.41,-213.32 1014.5,-203.84"/>
<polygon fill="midnightblue" stroke="midnightblue" points="1016.46,-206.75 1023.3,-198.66 1012.91,-200.72 1016.46,-206.75"/>
</g>
<!-- Node3 -->
<g id="node3" class="node">
<title>Node3</title>
<g id="a_node3"><a xlink:title=" ">
<polygon fill="none" stroke="#bfbfbf" points="0,-118 0,-137 38,-137 38,-118 0,-118"/>
<text text-anchor="middle" x="19" y="-125" font-family="Helvetica,sans-Serif" font-size="10.00">QDir</text>
</a>
</g>
</g>
<!-- Node2&#45;&gt;Node3 -->
<g id="edge2" class="edge">
<title>Node2&#45;&gt;Node3</title>
<path fill="none" stroke="midnightblue" d="M775.29,-187.83C630.82,-186.92 185.48,-181.02 47,-143 45.33,-142.54 43.65,-141.98 41.98,-141.33"/>
<polygon fill="midnightblue" stroke="midnightblue" points="43.32,-138.1 32.77,-137.09 40.38,-144.45 43.32,-138.1"/>
</g>
<!-- Node4 -->
<g id="node4" class="node">
<title>Node4</title>
<g id="a_node4"><a xlink:title=" ">
<polygon fill="none" stroke="#bfbfbf" points="56,-118 56,-137 190,-137 190,-118 56,-118"/>
<text text-anchor="middle" x="123" y="-125" font-family="Helvetica,sans-Serif" font-size="10.00">QGraphicsColorizeEffect</text>
</a>
</g>
</g>
<!-- Node2&#45;&gt;Node4 -->
<g id="edge3" class="edge">
<title>Node2&#45;&gt;Node4</title>
<path fill="none" stroke="midnightblue" d="M775.16,-186.51C671.92,-182.75 413.43,-171.12 199,-143 190.58,-141.9 181.68,-140.45 173.05,-138.9"/>
<polygon fill="midnightblue" stroke="midnightblue" points="173.56,-135.44 163.09,-137.05 172.28,-142.32 173.56,-135.44"/>
</g>
<!-- Node5 -->
<g id="node5" class="node">
<title>Node5</title>
<g id="a_node5"><a xlink:title=" ">
<polygon fill="none" stroke="#bfbfbf" points="208,-118 208,-137 330,-137 330,-118 208,-118"/>
<text text-anchor="middle" x="269" y="-125" font-family="Helvetica,sans-Serif" font-size="10.00">QGraphicsEllipseItem</text>
</a>
</g>
</g>
<!-- Node2&#45;&gt;Node5 -->
<g id="edge4" class="edge">
<title>Node2&#45;&gt;Node5</title>
<path fill="none" stroke="midnightblue" d="M775.27,-185.43C689.42,-180.23 498.38,-166.87 339,-143 331.58,-141.89 323.75,-140.49 316.13,-139.01"/>
<polygon fill="midnightblue" stroke="midnightblue" points="316.77,-135.57 306.28,-137.02 315.39,-142.43 316.77,-135.57"/>
</g>
<!-- Node6 -->
<g id="node6" class="node">
<title>Node6</title>
<g id="a_node6"><a xlink:title=" ">
<polygon fill="none" stroke="#bfbfbf" points="348,-118 348,-137 488,-137 488,-118 348,-118"/>
<text text-anchor="middle" x="418" y="-125" font-family="Helvetica,sans-Serif" font-size="10.00">QGraphicsItemAnimation</text>
</a>
</g>
</g>
<!-- Node2&#45;&gt;Node6 -->
<g id="edge5" class="edge">
<title>Node2&#45;&gt;Node6</title>
<path fill="none" stroke="midnightblue" d="M775.24,-182C713.23,-173.76 599.11,-158.23 502,-143 493.59,-141.68 484.73,-140.22 476.03,-138.76"/>
<polygon fill="midnightblue" stroke="midnightblue" points="476.38,-135.27 465.93,-137.04 475.2,-142.17 476.38,-135.27"/>
</g>
<!-- Node7 -->
<g id="node7" class="node">
<title>Node7</title>
<g id="a_node7"><a xlink:title=" ">
<polygon fill="none" stroke="#bfbfbf" points="434,-56.5 434,-75.5 530,-75.5 530,-56.5 434,-56.5"/>
<text text-anchor="middle" x="482" y="-63.5" font-family="Helvetica,sans-Serif" font-size="10.00">QGraphicsScene</text>
</a>
</g>
</g>
<!-- Node2&#45;&gt;Node7 -->
<g id="edge6" class="edge">
<title>Node2&#45;&gt;Node7</title>
<path fill="none" stroke="midnightblue" d="M775.45,-185.16C705.16,-180.07 574.26,-167.56 535,-143 513.11,-129.31 497.84,-102.91 489.49,-85.12"/>
<polygon fill="midnightblue" stroke="midnightblue" points="492.61,-83.54 485.37,-75.8 486.21,-86.37 492.61,-83.54"/>
</g>
<!-- Node8 -->
<g id="node8" class="node">
<title>Node8</title>
<g id="a_node8"><a xlink:title=" ">
<polygon fill="none" stroke="#bfbfbf" points="825.5,-56.5 825.5,-75.5 932.5,-75.5 932.5,-56.5 825.5,-56.5"/>
<text text-anchor="middle" x="879" y="-63.5" font-family="Helvetica,sans-Serif" font-size="10.00">QGraphicsSvgItem</text>
</a>
</g>
</g>
<!-- Node2&#45;&gt;Node8 -->
<g id="edge7" class="edge">
<title>Node2&#45;&gt;Node8</title>
<path fill="none" stroke="midnightblue" d="M858.19,-179.44C900.89,-169.24 965.98,-152.4 973,-143 981.24,-131.96 980.34,-123.66 973,-112 962.99,-96.11 945.65,-85.71 928.56,-78.96"/>
<polygon fill="midnightblue" stroke="midnightblue" points="929.74,-75.66 919.15,-75.57 927.37,-82.25 929.74,-75.66"/>
</g>
<!-- Node9 -->
<g id="node9" class="node">
<title>Node9</title>
<g id="a_node9"><a xlink:title=" ">
<polygon fill="none" stroke="#bfbfbf" points="682,-118 682,-137 762,-137 762,-118 682,-118"/>
<text text-anchor="middle" x="722" y="-125" font-family="Helvetica,sans-Serif" font-size="10.00">QInputDialog</text>
</a>
</g>
</g>
<!-- Node2&#45;&gt;Node9 -->
<g id="edge8" class="edge">
<title>Node2&#45;&gt;Node9</title>
<path fill="none" stroke="midnightblue" d="M806.82,-179.48C790.64,-169.75 763.97,-153.73 744.86,-142.24"/>
<polygon fill="midnightblue" stroke="midnightblue" points="746.53,-139.16 736.16,-137.01 742.93,-145.16 746.53,-139.16"/>
</g>
<!-- Node10 -->
<g id="node10" class="node">
<title>Node10</title>
<g id="a_node10"><a xlink:title=" ">
<polygon fill="none" stroke="#bfbfbf" points="1294.5,-0.5 1294.5,-19.5 1347.5,-19.5 1347.5,-0.5 1294.5,-0.5"/>
<text text-anchor="middle" x="1321" y="-7.5" font-family="Helvetica,sans-Serif" font-size="10.00">QString</text>
</a>
</g>
</g>
<!-- Node2&#45;&gt;Node10 -->
<g id="edge9" class="edge">
<title>Node2&#45;&gt;Node10</title>
<path fill="none" stroke="midnightblue" d="M866.62,-180.05C869.45,-179.66 872.26,-179.31 875,-179 1141.34,-148.93 1213.98,-194.61 1477,-143 1567.75,-125.19 1620.15,-151.19 1674,-76 1679.18,-68.77 1679.87,-62.67 1674,-56 1653.3,-32.49 1443.88,-17.99 1357.73,-12.98"/>
<polygon fill="midnightblue" stroke="midnightblue" points="1357.8,-9.48 1347.61,-12.4 1357.4,-16.46 1357.8,-9.48"/>
</g>
<!-- Node11 -->
<g id="node11" class="node">
<title>Node11</title>
<g id="a_node11"><a xlink:title=" ">
<polygon fill="none" stroke="#bfbfbf" points="818.5,-118 818.5,-137 887.5,-137 887.5,-118 818.5,-118"/>
<text text-anchor="middle" x="853" y="-125" font-family="Helvetica,sans-Serif" font-size="10.00">QTimeLine</text>
</a>
</g>
</g>
<!-- Node2&#45;&gt;Node11 -->
<g id="edge10" class="edge">
<title>Node2&#45;&gt;Node11</title>
<path fill="none" stroke="midnightblue" d="M825.58,-179.48C830.24,-170.82 837.59,-157.15 843.51,-146.15"/>
<polygon fill="midnightblue" stroke="midnightblue" points="846.77,-147.47 848.42,-137.01 840.6,-144.16 846.77,-147.47"/>
</g>
<!-- Node12 -->
<g id="node12" class="node">
<title>Node12</title>
<g id="a_node12"><a xlink:title=" ">
<polygon fill="none" stroke="#bfbfbf" points="905.5,-118 905.5,-137 964.5,-137 964.5,-118 905.5,-118"/>
<text text-anchor="middle" x="935" y="-125" font-family="Helvetica,sans-Serif" font-size="10.00">QWidget</text>
</a>
</g>
</g>
<!-- Node2&#45;&gt;Node12 -->
<g id="edge11" class="edge">
<title>Node2&#45;&gt;Node12</title>
<path fill="none" stroke="midnightblue" d="M837.33,-179.48C856.21,-169.62 887.51,-153.29 909.58,-141.77"/>
<polygon fill="midnightblue" stroke="midnightblue" points="911.45,-144.74 918.7,-137.01 908.21,-138.53 911.45,-144.74"/>
</g>
<!-- Node13 -->
<g id="node13" class="node">
<title>Node13</title>
<g id="a_node13"><a xlink:href="constants_8h.html" target="_top" xlink:title=" ">
<polygon fill="none" stroke="black" points="717,-56.5 717,-75.5 807,-75.5 807,-56.5 717,-56.5"/>
<text text-anchor="middle" x="762" y="-63.5" font-family="Helvetica,sans-Serif" font-size="10.00">src/constants.h</text>
</a>
</g>
</g>
<!-- Node2&#45;&gt;Node13 -->
<g id="edge12" class="edge">
<title>Node2&#45;&gt;Node13</title>
<path fill="none" stroke="midnightblue" d="M816.76,-179.3C807.15,-159.59 783.56,-111.21 770.7,-84.84"/>
<polygon fill="midnightblue" stroke="midnightblue" points="773.73,-83.08 766.2,-75.62 767.44,-86.15 773.73,-83.08"/>
</g>
<!-- Node15 -->
<g id="node15" class="node">
<title>Node15</title>
<g id="a_node15"><a xlink:href="gui__point_8h.html" target="_top" xlink:title=" ">
<polygon fill="none" stroke="black" points="1353.5,-112.5 1353.5,-142.5 1468.5,-142.5 1468.5,-112.5 1353.5,-112.5"/>
<text text-anchor="start" x="1361.5" y="-130.5" font-family="Helvetica,sans-Serif" font-size="10.00">src/gui/gui_point/gui</text>
<text text-anchor="middle" x="1411" y="-119.5" font-family="Helvetica,sans-Serif" font-size="10.00">_point.h</text>
</a>
</g>
</g>
<!-- Node2&#45;&gt;Node15 -->
<g id="edge14" class="edge">
<title>Node2&#45;&gt;Node15</title>
<path fill="none" stroke="midnightblue" d="M866.63,-180.13C869.46,-179.72 872.27,-179.34 875,-179 1062.65,-155.44 1110.95,-163.15 1299,-143 1313.34,-141.46 1328.68,-139.61 1343.26,-137.76"/>
<polygon fill="midnightblue" stroke="midnightblue" points="1343.75,-141.22 1353.22,-136.47 1342.85,-134.28 1343.75,-141.22"/>
</g>
<!-- Node21 -->
<g id="node21" class="node">
<title>Node21</title>
<g id="a_node21"><a xlink:href="gui__scene_8h.html" target="_top" xlink:title=" ">
<polygon fill="none" stroke="black" points="544.5,-112.5 544.5,-142.5 663.5,-142.5 663.5,-112.5 544.5,-112.5"/>
<text text-anchor="start" x="552.5" y="-130.5" font-family="Helvetica,sans-Serif" font-size="10.00">src/gui/gui_scene/gui</text>
<text text-anchor="middle" x="604" y="-119.5" font-family="Helvetica,sans-Serif" font-size="10.00">_scene.h</text>
</a>
</g>
</g>
<!-- Node2&#45;&gt;Node21 -->
<g id="edge21" class="edge">
<title>Node2&#45;&gt;Node21</title>
<path fill="none" stroke="midnightblue" d="M789.91,-179.48C757.43,-170.57 705.64,-156.37 664.96,-145.22"/>
<polygon fill="midnightblue" stroke="midnightblue" points="665.71,-141.79 655.14,-142.52 663.86,-148.54 665.71,-141.79"/>
</g>
<!-- Node24 -->
<g id="node24" class="node">
<title>Node24</title>
<g id="a_node24"><a xlink:href="gui__win_8h.html" target="_top" xlink:title=" ">
<polygon fill="none" stroke="black" points="1183.5,-112.5 1183.5,-142.5 1290.5,-142.5 1290.5,-112.5 1183.5,-112.5"/>
<text text-anchor="start" x="1191.5" y="-130.5" font-family="Helvetica,sans-Serif" font-size="10.00">src/gui/gui_win/gui</text>
<text text-anchor="middle" x="1237" y="-119.5" font-family="Helvetica,sans-Serif" font-size="10.00">_win.h</text>
</a>
</g>
</g>
<!-- Node2&#45;&gt;Node24 -->
<g id="edge26" class="edge">
<title>Node2&#45;&gt;Node24</title>
<path fill="none" stroke="midnightblue" d="M866.65,-180.28C869.47,-179.84 872.27,-179.41 875,-179 995.6,-160.97 1026.35,-160.7 1147,-143 1155.53,-141.75 1164.51,-140.37 1173.36,-138.98"/>
<polygon fill="midnightblue" stroke="midnightblue" points="1173.93,-142.43 1183.26,-137.41 1172.84,-135.52 1173.93,-142.43"/>
</g>
<!-- Node26 -->
<g id="node26" class="node">
<title>Node26</title>
<g id="a_node26"><a xlink:href="gui__advantage__bar_8h.html" target="_top" xlink:title=" ">
<polygon fill="none" stroke="black" points="1721.5,-112.5 1721.5,-142.5 1842.5,-142.5 1842.5,-112.5 1721.5,-112.5"/>
<text text-anchor="start" x="1729.5" y="-130.5" font-family="Helvetica,sans-Serif" font-size="10.00">src/gui/screen_game</text>
<text text-anchor="middle" x="1782" y="-119.5" font-family="Helvetica,sans-Serif" font-size="10.00">/gui_advantage_bar.h</text>
</a>
</g>
</g>
<!-- Node2&#45;&gt;Node26 -->
<g id="edge32" class="edge">
<title>Node2&#45;&gt;Node26</title>
<path fill="none" stroke="midnightblue" d="M866.61,-180C869.45,-179.62 872.26,-179.29 875,-179 1243.12,-140.5 1339.41,-186.25 1707,-143 1708.3,-142.85 1709.6,-142.69 1710.92,-142.51"/>
<polygon fill="midnightblue" stroke="midnightblue" points="1711.73,-145.93 1721.13,-141.05 1710.73,-139.01 1711.73,-145.93"/>
</g>
<!-- Node29 -->
<g id="node29" class="node">
<title>Node29</title>
<g id="a_node29"><a xlink:href="gui__figure_8h.html" target="_top" xlink:title=" ">
<polygon fill="none" stroke="black" points="1021.5,-112.5 1021.5,-142.5 1138.5,-142.5 1138.5,-112.5 1021.5,-112.5"/>
<text text-anchor="start" x="1029.5" y="-130.5" font-family="Helvetica,sans-Serif" font-size="10.00">src/gui/screen_game</text>
<text text-anchor="middle" x="1080" y="-119.5" font-family="Helvetica,sans-Serif" font-size="10.00">/gui_figure.h</text>
</a>
</g>
</g>
<!-- Node2&#45;&gt;Node29 -->
<g id="edge36" class="edge">
<title>Node2&#45;&gt;Node29</title>
<path fill="none" stroke="midnightblue" d="M858.11,-179.48C898.02,-170.31 962.36,-155.52 1011.51,-144.23"/>
<polygon fill="midnightblue" stroke="midnightblue" points="1012.48,-147.6 1021.44,-141.95 1010.91,-140.78 1012.48,-147.6"/>
</g>
<!-- Node14 -->
<g id="node14" class="node">
<title>Node14</title>
<g id="a_node14"><a xlink:title=" ">
<polygon fill="none" stroke="#bfbfbf" points="734.5,-0.5 734.5,-19.5 789.5,-19.5 789.5,-0.5 734.5,-0.5"/>
<text text-anchor="middle" x="762" y="-7.5" font-family="Helvetica,sans-Serif" font-size="10.00">QVector</text>
</a>
</g>
</g>
<!-- Node13&#45;&gt;Node14 -->
<g id="edge13" class="edge">
<title>Node13&#45;&gt;Node14</title>
<path fill="none" stroke="midnightblue" d="M762,-56.08C762,-49.01 762,-38.86 762,-29.99"/>
<polygon fill="midnightblue" stroke="midnightblue" points="765.5,-29.75 762,-19.75 758.5,-29.75 765.5,-29.75"/>
</g>
<!-- Node16 -->
<g id="node16" class="node">
<title>Node16</title>
<g id="a_node16"><a xlink:title=" ">
<polygon fill="none" stroke="#bfbfbf" points="1491,-56.5 1491,-75.5 1589,-75.5 1589,-56.5 1491,-56.5"/>
<text text-anchor="middle" x="1540" y="-63.5" font-family="Helvetica,sans-Serif" font-size="10.00">QGraphicsObject</text>
</a>
</g>
</g>
<!-- Node15&#45;&gt;Node16 -->
<g id="edge15" class="edge">
<title>Node15&#45;&gt;Node16</title>
<path fill="none" stroke="midnightblue" d="M1441.57,-112.4C1462.93,-102.55 1491.22,-89.5 1511.98,-79.92"/>
<polygon fill="midnightblue" stroke="midnightblue" points="1513.61,-83.02 1521.23,-75.66 1510.68,-76.67 1513.61,-83.02"/>
</g>
<!-- Node17 -->
<g id="node17" class="node">
<title>Node17</title>
<g id="a_node17"><a xlink:title=" ">
<polygon fill="none" stroke="#bfbfbf" points="1349,-56.5 1349,-75.5 1473,-75.5 1473,-56.5 1349,-56.5"/>
<text text-anchor="middle" x="1411" y="-63.5" font-family="Helvetica,sans-Serif" font-size="10.00">QGraphicsSceneEvent</text>
</a>
</g>
</g>
<!-- Node15&#45;&gt;Node17 -->
<g id="edge16" class="edge">
<title>Node15&#45;&gt;Node17</title>
<path fill="none" stroke="midnightblue" d="M1411,-112.4C1411,-104.47 1411,-94.46 1411,-85.86"/>
<polygon fill="midnightblue" stroke="midnightblue" points="1414.5,-85.66 1411,-75.66 1407.5,-85.66 1414.5,-85.66"/>
</g>
<!-- Node18 -->
<g id="node18" class="node">
<title>Node18</title>
<g id="a_node18"><a xlink:title=" ">
<polygon fill="none" stroke="#bfbfbf" points="1607,-56.5 1607,-75.5 1665,-75.5 1665,-56.5 1607,-56.5"/>
<text text-anchor="middle" x="1636" y="-63.5" font-family="Helvetica,sans-Serif" font-size="10.00">QPainter</text>
</a>
</g>
</g>
<!-- Node15&#45;&gt;Node18 -->
<g id="edge17" class="edge">
<title>Node15&#45;&gt;Node18</title>
<path fill="none" stroke="midnightblue" d="M1464.04,-112.47C1504.77,-101.7 1560.1,-87.07 1596.87,-77.35"/>
<polygon fill="midnightblue" stroke="midnightblue" points="1597.95,-80.68 1606.73,-74.74 1596.16,-73.91 1597.95,-80.68"/>
</g>
<!-- Node19 -->
<g id="node19" class="node">
<title>Node19</title>
<g id="a_node19"><a xlink:href="utils_8h.html" target="_top" xlink:title=" ">
<polygon fill="none" stroke="black" points="1125,-56.5 1125,-75.5 1189,-75.5 1189,-56.5 1125,-56.5"/>
<text text-anchor="middle" x="1157" y="-63.5" font-family="Helvetica,sans-Serif" font-size="10.00">src/utils.h</text>
</a>
</g>
</g>
<!-- Node15&#45;&gt;Node19 -->
<g id="edge18" class="edge">
<title>Node15&#45;&gt;Node19</title>
<path fill="none" stroke="midnightblue" d="M1353.36,-113C1306.44,-102.01 1241.3,-86.75 1199.15,-76.87"/>
<polygon fill="midnightblue" stroke="midnightblue" points="1199.75,-73.42 1189.21,-74.55 1198.15,-80.23 1199.75,-73.42"/>
</g>
<!-- Node19&#45;&gt;Node10 -->
<g id="edge19" class="edge">
<title>Node19&#45;&gt;Node10</title>
<path fill="none" stroke="midnightblue" d="M1182.99,-56.44C1210.7,-47.32 1254.75,-32.81 1285.62,-22.65"/>
<polygon fill="midnightblue" stroke="midnightblue" points="1286.73,-25.97 1295.14,-19.52 1284.54,-19.32 1286.73,-25.97"/>
</g>
<!-- Node20 -->
<g id="node20" class="node">
<title>Node20</title>
<g id="a_node20"><a xlink:title=" ">
<polygon fill="none" stroke="#bfbfbf" points="1134.5,-0.5 1134.5,-19.5 1179.5,-19.5 1179.5,-0.5 1134.5,-0.5"/>
<text text-anchor="middle" x="1157" y="-7.5" font-family="Helvetica,sans-Serif" font-size="10.00">utility</text>
</a>
</g>
</g>
<!-- Node19&#45;&gt;Node20 -->
<g id="edge20" class="edge">
<title>Node19&#45;&gt;Node20</title>
<path fill="none" stroke="midnightblue" d="M1157,-56.08C1157,-49.01 1157,-38.86 1157,-29.99"/>
<polygon fill="midnightblue" stroke="midnightblue" points="1160.5,-29.75 1157,-19.75 1153.5,-29.75 1160.5,-29.75"/>
</g>
<!-- Node21&#45;&gt;Node7 -->
<g id="edge22" class="edge">
<title>Node21&#45;&gt;Node7</title>
<path fill="none" stroke="midnightblue" d="M575.09,-112.4C554.98,-102.59 528.38,-89.62 508.76,-80.05"/>
<polygon fill="midnightblue" stroke="midnightblue" points="510.27,-76.9 499.75,-75.66 507.21,-83.19 510.27,-76.9"/>
</g>
<!-- Node21&#45;&gt;Node19 -->
<g id="edge25" class="edge">
<title>Node21&#45;&gt;Node19</title>
<path fill="none" stroke="midnightblue" d="M663.76,-113.46C666.88,-112.93 669.97,-112.44 673,-112 865.24,-84.1 918.87,-104.54 1114.8,-75.98"/>
<polygon fill="midnightblue" stroke="midnightblue" points="1115.47,-79.42 1124.85,-74.49 1114.44,-72.49 1115.47,-79.42"/>
</g>
<!-- Node22 -->
<g id="node22" class="node">
<title>Node22</title>
<g id="a_node22"><a xlink:title=" ">
<polygon fill="none" stroke="#bfbfbf" points="548,-56.5 548,-75.5 632,-75.5 632,-56.5 548,-56.5"/>
<text text-anchor="middle" x="590" y="-63.5" font-family="Helvetica,sans-Serif" font-size="10.00">QMouseEvent</text>
</a>
</g>
</g>
<!-- Node21&#45;&gt;Node22 -->
<g id="edge23" class="edge">
<title>Node21&#45;&gt;Node22</title>
<path fill="none" stroke="midnightblue" d="M600.68,-112.4C598.79,-104.38 596.41,-94.23 594.37,-85.57"/>
<polygon fill="midnightblue" stroke="midnightblue" points="597.73,-84.59 592.04,-75.66 590.92,-86.19 597.73,-84.59"/>
</g>
<!-- Node23 -->
<g id="node23" class="node">
<title>Node23</title>
<g id="a_node23"><a xlink:title=" ">
<polygon fill="none" stroke="#bfbfbf" points="649.5,-56.5 649.5,-75.5 698.5,-75.5 698.5,-56.5 649.5,-56.5"/>
<text text-anchor="middle" x="674" y="-63.5" font-family="Helvetica,sans-Serif" font-size="10.00">QPoint</text>
</a>
</g>
</g>
<!-- Node21&#45;&gt;Node23 -->
<g id="edge24" class="edge">
<title>Node21&#45;&gt;Node23</title>
<path fill="none" stroke="midnightblue" d="M620.59,-112.4C631.29,-103.31 645.19,-91.49 656.13,-82.19"/>
<polygon fill="midnightblue" stroke="midnightblue" points="658.46,-84.8 663.81,-75.66 653.93,-79.47 658.46,-84.8"/>
</g>
<!-- Node24&#45;&gt;Node8 -->
<g id="edge28" class="edge">
<title>Node24&#45;&gt;Node8</title>
<path fill="none" stroke="midnightblue" d="M1183.4,-117.59C1118.37,-106.78 1008.97,-88.6 940.55,-77.23"/>
<polygon fill="midnightblue" stroke="midnightblue" points="940.79,-73.72 930.35,-75.53 939.64,-80.63 940.79,-73.72"/>
</g>
<!-- Node24&#45;&gt;Node10 -->
<g id="edge29" class="edge">
<title>Node24&#45;&gt;Node10</title>
<path fill="none" stroke="midnightblue" d="M1262.11,-112.39C1275.72,-103.55 1291.79,-91.01 1302,-76 1311.4,-62.18 1316.22,-43.66 1318.65,-29.92"/>
<polygon fill="midnightblue" stroke="midnightblue" points="1322.16,-30.13 1320.17,-19.72 1315.23,-29.09 1322.16,-30.13"/>
</g>
<!-- Node24&#45;&gt;Node17 -->
<g id="edge27" class="edge">
<title>Node24&#45;&gt;Node17</title>
<path fill="none" stroke="midnightblue" d="M1278.24,-112.4C1308.17,-102.16 1348.21,-88.47 1376.47,-78.81"/>
<polygon fill="midnightblue" stroke="midnightblue" points="1377.61,-82.12 1385.94,-75.57 1375.34,-75.49 1377.61,-82.12"/>
</g>
<!-- Node24&#45;&gt;Node19 -->
<g id="edge31" class="edge">
<title>Node24&#45;&gt;Node19</title>
<path fill="none" stroke="midnightblue" d="M1218.04,-112.4C1205.58,-103.13 1189.3,-91.03 1176.69,-81.65"/>
<polygon fill="midnightblue" stroke="midnightblue" points="1178.75,-78.82 1168.64,-75.66 1174.58,-84.43 1178.75,-78.82"/>
</g>
<!-- Node25 -->
<g id="node25" class="node">
<title>Node25</title>
<g id="a_node25"><a xlink:title=" ">
<polygon fill="none" stroke="#bfbfbf" points="1207,-56.5 1207,-75.5 1293,-75.5 1293,-56.5 1207,-56.5"/>
<text text-anchor="middle" x="1250" y="-63.5" font-family="Helvetica,sans-Serif" font-size="10.00">QSvgRenderer</text>
</a>
</g>
</g>
<!-- Node24&#45;&gt;Node25 -->
<g id="edge30" class="edge">
<title>Node24&#45;&gt;Node25</title>
<path fill="none" stroke="midnightblue" d="M1240.08,-112.4C1241.83,-104.38 1244.05,-94.23 1245.94,-85.57"/>
<polygon fill="midnightblue" stroke="midnightblue" points="1249.39,-86.17 1248.11,-75.66 1242.55,-84.68 1249.39,-86.17"/>
</g>
<!-- Node26&#45;&gt;Node18 -->
<g id="edge34" class="edge">
<title>Node26&#45;&gt;Node18</title>
<path fill="none" stroke="midnightblue" d="M1747.4,-112.4C1722.9,-102.42 1690.34,-89.15 1666.75,-79.53"/>
<polygon fill="midnightblue" stroke="midnightblue" points="1667.83,-76.19 1657.24,-75.66 1665.18,-82.67 1667.83,-76.19"/>
</g>
<!-- Node27 -->
<g id="node27" class="node">
<title>Node27</title>
<g id="a_node27"><a xlink:title=" ">
<polygon fill="none" stroke="#bfbfbf" points="1801.5,-56.5 1801.5,-75.5 1890.5,-75.5 1890.5,-56.5 1801.5,-56.5"/>
<text text-anchor="middle" x="1846" y="-63.5" font-family="Helvetica,sans-Serif" font-size="10.00">QGraphicsItem</text>
</a>
</g>
</g>
<!-- Node26&#45;&gt;Node27 -->
<g id="edge33" class="edge">
<title>Node26&#45;&gt;Node27</title>
<path fill="none" stroke="midnightblue" d="M1797.17,-112.4C1806.75,-103.49 1819.16,-91.95 1829.07,-82.74"/>
<polygon fill="midnightblue" stroke="midnightblue" points="1831.75,-85.03 1836.69,-75.66 1826.98,-79.9 1831.75,-85.03"/>
</g>
<!-- Node28 -->
<g id="node28" class="node">
<title>Node28</title>
<g id="a_node28"><a xlink:title=" ">
<polygon fill="none" stroke="#bfbfbf" points="1741,-56.5 1741,-75.5 1783,-75.5 1783,-56.5 1741,-56.5"/>
<text text-anchor="middle" x="1762" y="-63.5" font-family="Helvetica,sans-Serif" font-size="10.00">QPen</text>
</a>
</g>
</g>
<!-- Node26&#45;&gt;Node28 -->
<g id="edge35" class="edge">
<title>Node26&#45;&gt;Node28</title>
<path fill="none" stroke="midnightblue" d="M1777.26,-112.4C1774.53,-104.29 1771.08,-94.01 1768.14,-85.28"/>
<polygon fill="midnightblue" stroke="midnightblue" points="1771.41,-84.02 1764.91,-75.66 1764.78,-86.25 1771.41,-84.02"/>
</g>
<!-- Node29&#45;&gt;Node8 -->
<g id="edge38" class="edge">
<title>Node29&#45;&gt;Node8</title>
<path fill="none" stroke="midnightblue" d="M1032.62,-112.47C997.49,-102.08 950.21,-88.08 917.42,-78.37"/>
<polygon fill="midnightblue" stroke="midnightblue" points="918.32,-74.99 907.74,-75.51 916.33,-81.7 918.32,-74.99"/>
</g>
<!-- Node29&#45;&gt;Node13 -->
<g id="edge40" class="edge">
<title>Node29&#45;&gt;Node13</title>
<path fill="none" stroke="midnightblue" d="M1021.3,-115.52C962.9,-104.59 873.97,-87.95 816.92,-77.28"/>
<polygon fill="midnightblue" stroke="midnightblue" points="817.48,-73.82 807,-75.42 816.19,-80.7 817.48,-73.82"/>
</g>
<!-- Node29&#45;&gt;Node19 -->
<g id="edge41" class="edge">
<title>Node29&#45;&gt;Node19</title>
<path fill="none" stroke="midnightblue" d="M1098.25,-112.4C1110.13,-103.22 1125.61,-91.26 1137.69,-81.92"/>
<polygon fill="midnightblue" stroke="midnightblue" points="1140.02,-84.54 1145.8,-75.66 1135.74,-79 1140.02,-84.54"/>
</g>
<!-- Node29&#45;&gt;Node25 -->
<g id="edge39" class="edge">
<title>Node29&#45;&gt;Node25</title>
<path fill="none" stroke="midnightblue" d="M1120.29,-112.4C1149.32,-102.24 1188.08,-88.67 1215.65,-79.02"/>
<polygon fill="midnightblue" stroke="midnightblue" points="1216.98,-82.26 1225.26,-75.66 1214.67,-75.66 1216.98,-82.26"/>
</g>
<!-- Node30 -->
<g id="node30" class="node">
<title>Node30</title>
<g id="a_node30"><a xlink:title=" ">
<polygon fill="none" stroke="#bfbfbf" points="951,-56.5 951,-75.5 1107,-75.5 1107,-56.5 951,-56.5"/>
<text text-anchor="middle" x="1029" y="-63.5" font-family="Helvetica,sans-Serif" font-size="10.00">QGraphicsSceneMouseEvent</text>
</a>
</g>
</g>
<!-- Node29&#45;&gt;Node30 -->
<g id="edge37" class="edge">
<title>Node29&#45;&gt;Node30</title>
<path fill="none" stroke="midnightblue" d="M1067.91,-112.4C1060.43,-103.66 1050.78,-92.41 1042.97,-83.3"/>
<polygon fill="midnightblue" stroke="midnightblue" points="1045.59,-80.97 1036.42,-75.66 1040.27,-85.53 1045.59,-80.97"/>
</g>
</g>
</svg>
