<?xml version="1.0" encoding="UTF-8" standalone="no"?>
<!DOCTYPE svg PUBLIC "-//W3C//DTD SVG 1.1//EN"
 "http://www.w3.org/Graphics/SVG/1.1/DTD/svg11.dtd">
<!-- Generated by graphviz version 2.43.0 (0)
 -->
<!-- Title: src/gui/screen_game/screen_game.cpp Pages: 1 -->
<!--zoomable 274 -->
<svg id="main" version="1.1" xmlns="http://www.w3.org/2000/svg" xmlns:xlink="http://www.w3.org/1999/xlink" xml:space="preserve" onload="init(evt)">
<style type="text/css"><![CDATA[
.edge:hover path { stroke: red; }
.edge:hover polygon { stroke: red; fill: red; }
]]></style>
<script type="text/javascript"><![CDATA[
var edges = document.getElementsByTagName('g');
if (edges && edges.length) {
  for (var i=0;i<edges.length;i++) {
    if (edges[i].id.substr(0,4)=='edge') {
      edges[i].setAttribute('class','edge');
    }
  }
}
]]></script>
        <defs>
                <circle id="rim" cx="0" cy="0" r="7"/>
                <circle id="rim2" cx="0" cy="0" r="3.5"/>
                <g id="zoomPlus">
                        <use xlink:href="#rim" fill="#404040">
                                <set attributeName="fill" to="#808080" begin="zoomplus.mouseover" end="zoomplus.mouseout"/>
                        </use>
                        <path d="M-4,0h8M0,-4v8" fill="none" stroke="white" stroke-width="1.5" pointer-events="none"/>
                </g>
                <g id="zoomMin">
                        <use xlink:href="#rim" fill="#404040">
                                <set attributeName="fill" to="#808080" begin="zoomminus.mouseover" end="zoomminus.mouseout"/>
                        </use>
                        <path d="M-4,0h8" fill="none" stroke="white" stroke-width="1.5" pointer-events="none"/>
                </g>
                <g id="dirArrow">
                        <path fill="none" stroke="white" stroke-width="1.5" d="M0,-3.0v7 M-2.5,-0.5L0,-3.0L2.5,-0.5"/>
                </g>
               <g id="resetDef">
                       <use xlink:href="#rim2" fill="#404040">
                               <set attributeName="fill" to="#808080" begin="reset.mouseover" end="reset.mouseout"/>
                       </use>
               </g>
        </defs>

<script type="text/javascript">
var viewWidth = 1775;
var viewHeight = 274;
var sectionId = 'dynsection-0';
</script>
<script xlink:href="svgpan.js"/>
<svg id="graph" class="graph">
<g id="viewport">
<title>src/gui/screen_game/screen_game.cpp</title>
<!-- Node1 -->
<g id="node1" class="node">
<title>Node1</title>
<g id="a_node1"><a xlink:title=" ">
<polygon fill="#bfbfbf" stroke="black" points="788.5,-235.5 788.5,-265.5 905.5,-265.5 905.5,-235.5 788.5,-235.5"/>
<text text-anchor="start" x="796.5" y="-253.5" font-family="Helvetica,sans-Serif" font-size="10.00">src/gui/screen_game</text>
<text text-anchor="middle" x="847" y="-242.5" font-family="Helvetica,sans-Serif" font-size="10.00">/screen_game.cpp</text>
</a>
</g>
</g>
<!-- Node2 -->
<g id="node2" class="node">
<title>Node2</title>
<g id="a_node2"><a xlink:href="screen__game_8h.html" target="_top" xlink:title=" ">
<polygon fill="none" stroke="black" points="685.5,-179.5 685.5,-198.5 776.5,-198.5 776.5,-179.5 685.5,-179.5"/>
<text text-anchor="middle" x="731" y="-186.5" font-family="Helvetica,sans-Serif" font-size="10.00">screen_game.h</text>
</a>
</g>
</g>
<!-- Node1&#45;&gt;Node2 -->
<g id="edge1" class="edge">
<title>Node1&#45;&gt;Node2</title>
<path fill="none" stroke="midnightblue" d="M819.51,-235.4C800.57,-225.68 775.56,-212.86 756.96,-203.31"/>
<polygon fill="midnightblue" stroke="midnightblue" points="758.37,-200.11 747.88,-198.66 755.18,-206.34 758.37,-200.11"/>
</g>
<!-- Node28 -->
<g id="node28" class="node">
<title>Node28</title>
<g id="a_node28"><a xlink:title=" ">
<polygon fill="none" stroke="#bfbfbf" points="794.5,-179.5 794.5,-198.5 899.5,-198.5 899.5,-179.5 794.5,-179.5"/>
<text text-anchor="middle" x="847" y="-186.5" font-family="Helvetica,sans-Serif" font-size="10.00">ui_screen_game.h</text>
</a>
</g>
</g>
<!-- Node1&#45;&gt;Node28 -->
<g id="edge33" class="edge">
<title>Node1&#45;&gt;Node28</title>
<path fill="none" stroke="midnightblue" d="M847,-235.4C847,-227.47 847,-217.46 847,-208.86"/>
<polygon fill="midnightblue" stroke="midnightblue" points="850.5,-208.66 847,-198.66 843.5,-208.66 850.5,-208.66"/>
</g>
<!-- Node29 -->
<g id="node29" class="node">
<title>Node29</title>
<g id="a_node29"><a xlink:title=" ">
<polygon fill="none" stroke="#bfbfbf" points="918,-179.5 918,-198.5 978,-198.5 978,-179.5 918,-179.5"/>
<text text-anchor="middle" x="948" y="-186.5" font-family="Helvetica,sans-Serif" font-size="10.00">iostream</text>
</a>
</g>
</g>
<!-- Node1&#45;&gt;Node29 -->
<g id="edge34" class="edge">
<title>Node1&#45;&gt;Node29</title>
<path fill="none" stroke="midnightblue" d="M870.94,-235.4C887.13,-225.86 908.41,-213.32 924.5,-203.84"/>
<polygon fill="midnightblue" stroke="midnightblue" points="926.46,-206.75 933.3,-198.66 922.91,-200.72 926.46,-206.75"/>
</g>
<!-- Node3 -->
<g id="node3" class="node">
<title>Node3</title>
<g id="a_node3"><a xlink:title=" ">
<polygon fill="none" stroke="#bfbfbf" points="0,-118 0,-137 134,-137 134,-118 0,-118"/>
<text text-anchor="middle" x="67" y="-125" font-family="Helvetica,sans-Serif" font-size="10.00">QGraphicsColorizeEffect</text>
</a>
</g>
</g>
<!-- Node2&#45;&gt;Node3 -->
<g id="edge2" class="edge">
<title>Node2&#45;&gt;Node3</title>
<path fill="none" stroke="midnightblue" d="M685.45,-186.26C586.41,-182.08 344.19,-169.81 143,-143 134.58,-141.88 125.68,-140.43 117.05,-138.87"/>
<polygon fill="midnightblue" stroke="midnightblue" points="117.57,-135.41 107.09,-137.02 116.29,-142.29 117.57,-135.41"/>
</g>
<!-- Node4 -->
<g id="node4" class="node">
<title>Node4</title>
<g id="a_node4"><a xlink:title=" ">
<polygon fill="none" stroke="#bfbfbf" points="152,-118 152,-137 274,-137 274,-118 152,-118"/>
<text text-anchor="middle" x="213" y="-125" font-family="Helvetica,sans-Serif" font-size="10.00">QGraphicsEllipseItem</text>
</a>
</g>
</g>
<!-- Node2&#45;&gt;Node4 -->
<g id="edge3" class="edge">
<title>Node2&#45;&gt;Node4</title>
<path fill="none" stroke="midnightblue" d="M685.33,-184.99C604.09,-179.29 429.23,-165.43 283,-143 275.75,-141.89 268.11,-140.52 260.65,-139.06"/>
<polygon fill="midnightblue" stroke="midnightblue" points="261.15,-135.59 250.65,-137.05 259.76,-142.45 261.15,-135.59"/>
</g>
<!-- Node5 -->
<g id="node5" class="node">
<title>Node5</title>
<g id="a_node5"><a xlink:title=" ">
<polygon fill="none" stroke="#bfbfbf" points="292,-118 292,-137 432,-137 432,-118 292,-118"/>
<text text-anchor="middle" x="362" y="-125" font-family="Helvetica,sans-Serif" font-size="10.00">QGraphicsItemAnimation</text>
</a>
</g>
</g>
<!-- Node2&#45;&gt;Node5 -->
<g id="edge4" class="edge">
<title>Node2&#45;&gt;Node5</title>
<path fill="none" stroke="midnightblue" d="M685.06,-180.95C628.71,-172.26 530.26,-156.92 446,-143 437.81,-141.65 429.19,-140.19 420.7,-138.74"/>
<polygon fill="midnightblue" stroke="midnightblue" points="421.29,-135.29 410.84,-137.05 420.1,-142.19 421.29,-135.29"/>
</g>
<!-- Node6 -->
<g id="node6" class="node">
<title>Node6</title>
<g id="a_node6"><a xlink:title=" ">
<polygon fill="none" stroke="#bfbfbf" points="407,-56.5 407,-75.5 503,-75.5 503,-56.5 407,-56.5"/>
<text text-anchor="middle" x="455" y="-63.5" font-family="Helvetica,sans-Serif" font-size="10.00">QGraphicsScene</text>
</a>
</g>
</g>
<!-- Node2&#45;&gt;Node6 -->
<g id="edge5" class="edge">
<title>Node2&#45;&gt;Node6</title>
<path fill="none" stroke="midnightblue" d="M685.24,-185.42C621.11,-180.89 509.01,-169.36 479,-143 462.63,-128.62 457.32,-103.16 455.65,-85.71"/>
<polygon fill="midnightblue" stroke="midnightblue" points="459.14,-85.34 455.01,-75.59 452.15,-85.79 459.14,-85.34"/>
</g>
<!-- Node7 -->
<g id="node7" class="node">
<title>Node7</title>
<g id="a_node7"><a xlink:title=" ">
<polygon fill="none" stroke="#bfbfbf" points="690.5,-56.5 690.5,-75.5 797.5,-75.5 797.5,-56.5 690.5,-56.5"/>
<text text-anchor="middle" x="744" y="-63.5" font-family="Helvetica,sans-Serif" font-size="10.00">QGraphicsSvgItem</text>
</a>
</g>
</g>
<!-- Node2&#45;&gt;Node7 -->
<g id="edge6" class="edge">
<title>Node2&#45;&gt;Node7</title>
<path fill="none" stroke="midnightblue" d="M766.49,-179.46C798.17,-171.03 841.05,-157.36 851,-143 858.85,-131.68 858.62,-123.48 851,-112 840.22,-95.78 822.34,-85.39 804.24,-78.75"/>
<polygon fill="midnightblue" stroke="midnightblue" points="805.1,-75.34 794.51,-75.51 802.9,-81.99 805.1,-75.34"/>
</g>
<!-- Node8 -->
<g id="node8" class="node">
<title>Node8</title>
<g id="a_node8"><a xlink:title=" ">
<polygon fill="none" stroke="#bfbfbf" points="625.5,-118 625.5,-137 678.5,-137 678.5,-118 625.5,-118"/>
<text text-anchor="middle" x="652" y="-125" font-family="Helvetica,sans-Serif" font-size="10.00">QString</text>
</a>
</g>
</g>
<!-- Node2&#45;&gt;Node8 -->
<g id="edge7" class="edge">
<title>Node2&#45;&gt;Node8</title>
<path fill="none" stroke="midnightblue" d="M719.68,-179.48C707.13,-170.02 686.65,-154.6 671.5,-143.19"/>
<polygon fill="midnightblue" stroke="midnightblue" points="673.39,-140.23 663.3,-137.01 669.18,-145.82 673.39,-140.23"/>
</g>
<!-- Node9 -->
<g id="node9" class="node">
<title>Node9</title>
<g id="a_node9"><a xlink:title=" ">
<polygon fill="none" stroke="#bfbfbf" points="696.5,-118 696.5,-137 765.5,-137 765.5,-118 696.5,-118"/>
<text text-anchor="middle" x="731" y="-125" font-family="Helvetica,sans-Serif" font-size="10.00">QTimeLine</text>
</a>
</g>
</g>
<!-- Node2&#45;&gt;Node9 -->
<g id="edge8" class="edge">
<title>Node2&#45;&gt;Node9</title>
<path fill="none" stroke="midnightblue" d="M731,-179.48C731,-171.08 731,-157.98 731,-147.16"/>
<polygon fill="midnightblue" stroke="midnightblue" points="734.5,-147.01 731,-137.01 727.5,-147.01 734.5,-147.01"/>
</g>
<!-- Node10 -->
<g id="node10" class="node">
<title>Node10</title>
<g id="a_node10"><a xlink:title=" ">
<polygon fill="none" stroke="#bfbfbf" points="783.5,-118 783.5,-137 842.5,-137 842.5,-118 783.5,-118"/>
<text text-anchor="middle" x="813" y="-125" font-family="Helvetica,sans-Serif" font-size="10.00">QWidget</text>
</a>
</g>
</g>
<!-- Node2&#45;&gt;Node10 -->
<g id="edge9" class="edge">
<title>Node2&#45;&gt;Node10</title>
<path fill="none" stroke="midnightblue" d="M742.75,-179.48C755.78,-170.02 777.04,-154.6 792.76,-143.19"/>
<polygon fill="midnightblue" stroke="midnightblue" points="795.23,-145.71 801.27,-137.01 791.12,-140.05 795.23,-145.71"/>
</g>
<!-- Node11 -->
<g id="node11" class="node">
<title>Node11</title>
<g id="a_node11"><a xlink:href="constants_8h.html" target="_top" xlink:title=" ">
<polygon fill="none" stroke="black" points="816,-56.5 816,-75.5 906,-75.5 906,-56.5 816,-56.5"/>
<text text-anchor="middle" x="861" y="-63.5" font-family="Helvetica,sans-Serif" font-size="10.00">src/constants.h</text>
</a>
</g>
</g>
<!-- Node2&#45;&gt;Node11 -->
<g id="edge10" class="edge">
<title>Node2&#45;&gt;Node11</title>
<path fill="none" stroke="midnightblue" d="M774.58,-179.46C810.33,-171.47 856.8,-158.46 868,-143 879.98,-126.45 874.99,-102.26 869.12,-85.64"/>
<polygon fill="midnightblue" stroke="midnightblue" points="872.23,-83.99 865.31,-75.97 865.72,-86.55 872.23,-83.99"/>
</g>
<!-- Node13 -->
<g id="node13" class="node">
<title>Node13</title>
<g id="a_node13"><a xlink:href="gui__point_8h.html" target="_top" xlink:title=" ">
<polygon fill="none" stroke="black" points="1288.5,-112.5 1288.5,-142.5 1403.5,-142.5 1403.5,-112.5 1288.5,-112.5"/>
<text text-anchor="start" x="1296.5" y="-130.5" font-family="Helvetica,sans-Serif" font-size="10.00">src/gui/gui_point/gui</text>
<text text-anchor="middle" x="1346" y="-119.5" font-family="Helvetica,sans-Serif" font-size="10.00">_point.h</text>
</a>
</g>
</g>
<!-- Node2&#45;&gt;Node13 -->
<g id="edge12" class="edge">
<title>Node2&#45;&gt;Node13</title>
<path fill="none" stroke="midnightblue" d="M776.63,-180.15C779.46,-179.74 782.27,-179.35 785,-179 962.18,-156.29 1172.14,-140.28 1277.89,-132.97"/>
<polygon fill="midnightblue" stroke="midnightblue" points="1278.36,-136.44 1288.1,-132.27 1277.88,-129.46 1278.36,-136.44"/>
</g>
<!-- Node19 -->
<g id="node19" class="node">
<title>Node19</title>
<g id="a_node19"><a xlink:href="gui__scene_8h.html" target="_top" xlink:title=" ">
<polygon fill="none" stroke="black" points="488.5,-112.5 488.5,-142.5 607.5,-142.5 607.5,-112.5 488.5,-112.5"/>
<text text-anchor="start" x="496.5" y="-130.5" font-family="Helvetica,sans-Serif" font-size="10.00">src/gui/gui_scene/gui</text>
<text text-anchor="middle" x="548" y="-119.5" font-family="Helvetica,sans-Serif" font-size="10.00">_scene.h</text>
</a>
</g>
</g>
<!-- Node2&#45;&gt;Node19 -->
<g id="edge18" class="edge">
<title>Node2&#45;&gt;Node19</title>
<path fill="none" stroke="midnightblue" d="M704.78,-179.48C677.8,-170.7 635,-156.79 600.94,-145.71"/>
<polygon fill="midnightblue" stroke="midnightblue" points="601.72,-142.29 591.13,-142.52 599.56,-148.94 601.72,-142.29"/>
</g>
<!-- Node22 -->
<g id="node22" class="node">
<title>Node22</title>
<g id="a_node22"><a xlink:href="gui__advantage__bar_8h.html" target="_top" xlink:title=" ">
<polygon fill="none" stroke="black" points="1556.5,-112.5 1556.5,-142.5 1677.5,-142.5 1677.5,-112.5 1556.5,-112.5"/>
<text text-anchor="start" x="1564.5" y="-130.5" font-family="Helvetica,sans-Serif" font-size="10.00">src/gui/screen_game</text>
<text text-anchor="middle" x="1617" y="-119.5" font-family="Helvetica,sans-Serif" font-size="10.00">/gui_advantage_bar.h</text>
</a>
</g>
</g>
<!-- Node2&#45;&gt;Node22 -->
<g id="edge23" class="edge">
<title>Node2&#45;&gt;Node22</title>
<path fill="none" stroke="midnightblue" d="M776.62,-180.04C779.45,-179.66 782.26,-179.31 785,-179 1062.84,-147.97 1134.01,-160.91 1413,-143 1457.33,-140.15 1507.05,-136.63 1546.31,-133.76"/>
<polygon fill="midnightblue" stroke="midnightblue" points="1546.6,-137.25 1556.32,-133.03 1546.09,-130.27 1546.6,-137.25"/>
</g>
<!-- Node25 -->
<g id="node25" class="node">
<title>Node25</title>
<g id="a_node25"><a xlink:href="gui__figure_8h.html" target="_top" xlink:title=" ">
<polygon fill="none" stroke="black" points="941.5,-112.5 941.5,-142.5 1058.5,-142.5 1058.5,-112.5 941.5,-112.5"/>
<text text-anchor="start" x="949.5" y="-130.5" font-family="Helvetica,sans-Serif" font-size="10.00">src/gui/screen_game</text>
<text text-anchor="middle" x="1000" y="-119.5" font-family="Helvetica,sans-Serif" font-size="10.00">/gui_figure.h</text>
</a>
</g>
</g>
<!-- Node2&#45;&gt;Node25 -->
<g id="edge27" class="edge">
<title>Node2&#45;&gt;Node25</title>
<path fill="none" stroke="midnightblue" d="M769.54,-179.48C811.69,-170.15 880.08,-155.02 931.44,-143.67"/>
<polygon fill="midnightblue" stroke="midnightblue" points="932.46,-147.02 941.47,-141.45 930.95,-140.19 932.46,-147.02"/>
</g>
<!-- Node12 -->
<g id="node12" class="node">
<title>Node12</title>
<g id="a_node12"><a xlink:title=" ">
<polygon fill="none" stroke="#bfbfbf" points="833.5,-0.5 833.5,-19.5 888.5,-19.5 888.5,-0.5 833.5,-0.5"/>
<text text-anchor="middle" x="861" y="-7.5" font-family="Helvetica,sans-Serif" font-size="10.00">QVector</text>
</a>
</g>
</g>
<!-- Node11&#45;&gt;Node12 -->
<g id="edge11" class="edge">
<title>Node11&#45;&gt;Node12</title>
<path fill="none" stroke="midnightblue" d="M861,-56.08C861,-49.01 861,-38.86 861,-29.99"/>
<polygon fill="midnightblue" stroke="midnightblue" points="864.5,-29.75 861,-19.75 857.5,-29.75 864.5,-29.75"/>
</g>
<!-- Node14 -->
<g id="node14" class="node">
<title>Node14</title>
<g id="a_node14"><a xlink:title=" ">
<polygon fill="none" stroke="#bfbfbf" points="1426,-56.5 1426,-75.5 1524,-75.5 1524,-56.5 1426,-56.5"/>
<text text-anchor="middle" x="1475" y="-63.5" font-family="Helvetica,sans-Serif" font-size="10.00">QGraphicsObject</text>
</a>
</g>
</g>
<!-- Node13&#45;&gt;Node14 -->
<g id="edge13" class="edge">
<title>Node13&#45;&gt;Node14</title>
<path fill="none" stroke="midnightblue" d="M1376.57,-112.4C1397.93,-102.55 1426.22,-89.5 1446.98,-79.92"/>
<polygon fill="midnightblue" stroke="midnightblue" points="1448.61,-83.02 1456.23,-75.66 1445.68,-76.67 1448.61,-83.02"/>
</g>
<!-- Node15 -->
<g id="node15" class="node">
<title>Node15</title>
<g id="a_node15"><a xlink:title=" ">
<polygon fill="none" stroke="#bfbfbf" points="1284,-56.5 1284,-75.5 1408,-75.5 1408,-56.5 1284,-56.5"/>
<text text-anchor="middle" x="1346" y="-63.5" font-family="Helvetica,sans-Serif" font-size="10.00">QGraphicsSceneEvent</text>
</a>
</g>
</g>
<!-- Node13&#45;&gt;Node15 -->
<g id="edge14" class="edge">
<title>Node13&#45;&gt;Node15</title>
<path fill="none" stroke="midnightblue" d="M1346,-112.4C1346,-104.47 1346,-94.46 1346,-85.86"/>
<polygon fill="midnightblue" stroke="midnightblue" points="1349.5,-85.66 1346,-75.66 1342.5,-85.66 1349.5,-85.66"/>
</g>
<!-- Node16 -->
<g id="node16" class="node">
<title>Node16</title>
<g id="a_node16"><a xlink:title=" ">
<polygon fill="none" stroke="#bfbfbf" points="1542,-56.5 1542,-75.5 1600,-75.5 1600,-56.5 1542,-56.5"/>
<text text-anchor="middle" x="1571" y="-63.5" font-family="Helvetica,sans-Serif" font-size="10.00">QPainter</text>
</a>
</g>
</g>
<!-- Node13&#45;&gt;Node16 -->
<g id="edge15" class="edge">
<title>Node13&#45;&gt;Node16</title>
<path fill="none" stroke="midnightblue" d="M1399.04,-112.47C1439.77,-101.7 1495.1,-87.07 1531.87,-77.35"/>
<polygon fill="midnightblue" stroke="midnightblue" points="1532.95,-80.68 1541.73,-74.74 1531.16,-73.91 1532.95,-80.68"/>
</g>
<!-- Node17 -->
<g id="node17" class="node">
<title>Node17</title>
<g id="a_node17"><a xlink:href="utils_8h.html" target="_top" xlink:title=" ">
<polygon fill="none" stroke="black" points="1202,-56.5 1202,-75.5 1266,-75.5 1266,-56.5 1202,-56.5"/>
<text text-anchor="middle" x="1234" y="-63.5" font-family="Helvetica,sans-Serif" font-size="10.00">src/utils.h</text>
</a>
</g>
</g>
<!-- Node13&#45;&gt;Node17 -->
<g id="edge16" class="edge">
<title>Node13&#45;&gt;Node17</title>
<path fill="none" stroke="midnightblue" d="M1319.46,-112.4C1301.34,-102.77 1277.46,-90.09 1259.56,-80.58"/>
<polygon fill="midnightblue" stroke="midnightblue" points="1260.77,-77.26 1250.3,-75.66 1257.49,-83.44 1260.77,-77.26"/>
</g>
<!-- Node18 -->
<g id="node18" class="node">
<title>Node18</title>
<g id="a_node18"><a xlink:title=" ">
<polygon fill="none" stroke="#bfbfbf" points="1211.5,-0.5 1211.5,-19.5 1256.5,-19.5 1256.5,-0.5 1211.5,-0.5"/>
<text text-anchor="middle" x="1234" y="-7.5" font-family="Helvetica,sans-Serif" font-size="10.00">utility</text>
</a>
</g>
</g>
<!-- Node17&#45;&gt;Node18 -->
<g id="edge17" class="edge">
<title>Node17&#45;&gt;Node18</title>
<path fill="none" stroke="midnightblue" d="M1234,-56.08C1234,-49.01 1234,-38.86 1234,-29.99"/>
<polygon fill="midnightblue" stroke="midnightblue" points="1237.5,-29.75 1234,-19.75 1230.5,-29.75 1237.5,-29.75"/>
</g>
<!-- Node19&#45;&gt;Node6 -->
<g id="edge19" class="edge">
<title>Node19&#45;&gt;Node6</title>
<path fill="none" stroke="midnightblue" d="M525.96,-112.4C511.19,-102.95 491.82,-90.56 477.05,-81.11"/>
<polygon fill="midnightblue" stroke="midnightblue" points="478.84,-78.1 468.53,-75.66 475.07,-84 478.84,-78.1"/>
</g>
<!-- Node19&#45;&gt;Node17 -->
<g id="edge22" class="edge">
<title>Node19&#45;&gt;Node17</title>
<path fill="none" stroke="midnightblue" d="M607.62,-113.27C610.44,-112.8 613.25,-112.38 616,-112 867.33,-77.56 936.79,-110.78 1191.92,-75.92"/>
<polygon fill="midnightblue" stroke="midnightblue" points="1192.43,-79.39 1201.86,-74.55 1191.47,-72.45 1192.43,-79.39"/>
</g>
<!-- Node20 -->
<g id="node20" class="node">
<title>Node20</title>
<g id="a_node20"><a xlink:title=" ">
<polygon fill="none" stroke="#bfbfbf" points="589,-56.5 589,-75.5 673,-75.5 673,-56.5 589,-56.5"/>
<text text-anchor="middle" x="631" y="-63.5" font-family="Helvetica,sans-Serif" font-size="10.00">QMouseEvent</text>
</a>
</g>
</g>
<!-- Node19&#45;&gt;Node20 -->
<g id="edge20" class="edge">
<title>Node19&#45;&gt;Node20</title>
<path fill="none" stroke="midnightblue" d="M567.67,-112.4C580.6,-103.13 597.49,-91.03 610.57,-81.65"/>
<polygon fill="midnightblue" stroke="midnightblue" points="612.83,-84.33 618.92,-75.66 608.76,-78.64 612.83,-84.33"/>
</g>
<!-- Node21 -->
<g id="node21" class="node">
<title>Node21</title>
<g id="a_node21"><a xlink:title=" ">
<polygon fill="none" stroke="#bfbfbf" points="521.5,-56.5 521.5,-75.5 570.5,-75.5 570.5,-56.5 521.5,-56.5"/>
<text text-anchor="middle" x="546" y="-63.5" font-family="Helvetica,sans-Serif" font-size="10.00">QPoint</text>
</a>
</g>
</g>
<!-- Node19&#45;&gt;Node21 -->
<g id="edge21" class="edge">
<title>Node19&#45;&gt;Node21</title>
<path fill="none" stroke="midnightblue" d="M547.53,-112.4C547.26,-104.47 546.92,-94.46 546.63,-85.86"/>
<polygon fill="midnightblue" stroke="midnightblue" points="550.13,-85.53 546.29,-75.66 543.13,-85.77 550.13,-85.53"/>
</g>
<!-- Node22&#45;&gt;Node16 -->
<g id="edge25" class="edge">
<title>Node22&#45;&gt;Node16</title>
<path fill="none" stroke="midnightblue" d="M1606.1,-112.4C1599.41,-103.75 1590.82,-92.64 1583.82,-83.58"/>
<polygon fill="midnightblue" stroke="midnightblue" points="1586.58,-81.43 1577.69,-75.66 1581.04,-85.71 1586.58,-81.43"/>
</g>
<!-- Node23 -->
<g id="node23" class="node">
<title>Node23</title>
<g id="a_node23"><a xlink:title=" ">
<polygon fill="none" stroke="#bfbfbf" points="1618.5,-56.5 1618.5,-75.5 1707.5,-75.5 1707.5,-56.5 1618.5,-56.5"/>
<text text-anchor="middle" x="1663" y="-63.5" font-family="Helvetica,sans-Serif" font-size="10.00">QGraphicsItem</text>
</a>
</g>
</g>
<!-- Node22&#45;&gt;Node23 -->
<g id="edge24" class="edge">
<title>Node22&#45;&gt;Node23</title>
<path fill="none" stroke="midnightblue" d="M1627.9,-112.4C1634.59,-103.75 1643.18,-92.64 1650.18,-83.58"/>
<polygon fill="midnightblue" stroke="midnightblue" points="1652.96,-85.71 1656.31,-75.66 1647.42,-81.43 1652.96,-85.71"/>
</g>
<!-- Node24 -->
<g id="node24" class="node">
<title>Node24</title>
<g id="a_node24"><a xlink:title=" ">
<polygon fill="none" stroke="#bfbfbf" points="1725,-56.5 1725,-75.5 1767,-75.5 1767,-56.5 1725,-56.5"/>
<text text-anchor="middle" x="1746" y="-63.5" font-family="Helvetica,sans-Serif" font-size="10.00">QPen</text>
</a>
</g>
</g>
<!-- Node22&#45;&gt;Node24 -->
<g id="edge26" class="edge">
<title>Node22&#45;&gt;Node24</title>
<path fill="none" stroke="midnightblue" d="M1647.57,-112.4C1668.93,-102.55 1697.22,-89.5 1717.98,-79.92"/>
<polygon fill="midnightblue" stroke="midnightblue" points="1719.61,-83.02 1727.23,-75.66 1716.68,-76.67 1719.61,-83.02"/>
</g>
<!-- Node25&#45;&gt;Node7 -->
<g id="edge29" class="edge">
<title>Node25&#45;&gt;Node7</title>
<path fill="none" stroke="midnightblue" d="M941.27,-112.85C895.49,-102.21 832.79,-87.64 790.46,-77.8"/>
<polygon fill="midnightblue" stroke="midnightblue" points="791.23,-74.38 780.7,-75.53 789.64,-81.2 791.23,-74.38"/>
</g>
<!-- Node25&#45;&gt;Node11 -->
<g id="edge31" class="edge">
<title>Node25&#45;&gt;Node11</title>
<path fill="none" stroke="midnightblue" d="M967.06,-112.4C943.84,-102.46 913.01,-89.26 890.58,-79.66"/>
<polygon fill="midnightblue" stroke="midnightblue" points="891.8,-76.38 881.23,-75.66 889.04,-82.81 891.8,-76.38"/>
</g>
<!-- Node25&#45;&gt;Node17 -->
<g id="edge32" class="edge">
<title>Node25&#45;&gt;Node17</title>
<path fill="none" stroke="midnightblue" d="M1055.16,-112.47C1097.08,-101.81 1153.87,-87.37 1192.11,-77.65"/>
<polygon fill="midnightblue" stroke="midnightblue" points="1193.07,-81.02 1201.9,-75.16 1191.34,-74.24 1193.07,-81.02"/>
</g>
<!-- Node26 -->
<g id="node26" class="node">
<title>Node26</title>
<g id="a_node26"><a xlink:title=" ">
<polygon fill="none" stroke="#bfbfbf" points="924,-56.5 924,-75.5 1080,-75.5 1080,-56.5 924,-56.5"/>
<text text-anchor="middle" x="1002" y="-63.5" font-family="Helvetica,sans-Serif" font-size="10.00">QGraphicsSceneMouseEvent</text>
</a>
</g>
</g>
<!-- Node25&#45;&gt;Node26 -->
<g id="edge28" class="edge">
<title>Node25&#45;&gt;Node26</title>
<path fill="none" stroke="midnightblue" d="M1000.47,-112.4C1000.74,-104.47 1001.08,-94.46 1001.37,-85.86"/>
<polygon fill="midnightblue" stroke="midnightblue" points="1004.87,-85.77 1001.71,-75.66 997.87,-85.53 1004.87,-85.77"/>
</g>
<!-- Node27 -->
<g id="node27" class="node">
<title>Node27</title>
<g id="a_node27"><a xlink:title=" ">
<polygon fill="none" stroke="#bfbfbf" points="1098,-56.5 1098,-75.5 1184,-75.5 1184,-56.5 1098,-56.5"/>
<text text-anchor="middle" x="1141" y="-63.5" font-family="Helvetica,sans-Serif" font-size="10.00">QSvgRenderer</text>
</a>
</g>
</g>
<!-- Node25&#45;&gt;Node27 -->
<g id="edge30" class="edge">
<title>Node25&#45;&gt;Node27</title>
<path fill="none" stroke="midnightblue" d="M1033.42,-112.4C1056.97,-102.46 1088.24,-89.26 1110.99,-79.66"/>
<polygon fill="midnightblue" stroke="midnightblue" points="1112.63,-82.77 1120.48,-75.66 1109.91,-76.32 1112.63,-82.77"/>
</g>
</g>
</svg>
        <g id="navigator" transform="translate(0 0)" fill="#404254">
                <rect fill="#f2f5e9" fill-opacity="0.5" stroke="#606060" stroke-width=".5" x="0" y="0" width="60" height="60"/>
                <use id="zoomplus" xlink:href="#zoomPlus" x="17" y="9" onmousedown="handleZoom(evt,'in')"/>
                <use id="zoomminus" xlink:href="#zoomMin" x="42" y="9" onmousedown="handleZoom(evt,'out')"/>
                <use id="reset" xlink:href="#resetDef" x="30" y="36" onmousedown="handleReset()"/>
                <g id="arrowUp" xlink:href="#dirArrow" transform="translate(30 24)" onmousedown="handlePan(0,-1)">
                  <use xlink:href="#rim" fill="#404040">
                        <set attributeName="fill" to="#808080" begin="arrowUp.mouseover" end="arrowUp.mouseout"/>
                  </use>
                  <path fill="none" stroke="white" stroke-width="1.5" d="M0,-3.0v7 M-2.5,-0.5L0,-3.0L2.5,-0.5"/>
                </g>
                <g id="arrowRight" xlink:href="#dirArrow" transform="rotate(90) translate(36 -43)" onmousedown="handlePan(1,0)">
                  <use xlink:href="#rim" fill="#404040">
                        <set attributeName="fill" to="#808080" begin="arrowRight.mouseover" end="arrowRight.mouseout"/>
                  </use>
                  <path fill="none" stroke="white" stroke-width="1.5" d="M0,-3.0v7 M-2.5,-0.5L0,-3.0L2.5,-0.5"/>
                </g>
                <g id="arrowDown" xlink:href="#dirArrow" transform="rotate(180) translate(-30 -48)" onmousedown="handlePan(0,1)">
                  <use xlink:href="#rim" fill="#404040">
                        <set attributeName="fill" to="#808080" begin="arrowDown.mouseover" end="arrowDown.mouseout"/>
                  </use>
                  <path fill="none" stroke="white" stroke-width="1.5" d="M0,-3.0v7 M-2.5,-0.5L0,-3.0L2.5,-0.5"/>
                </g>
                <g id="arrowLeft" xlink:href="#dirArrow" transform="rotate(270) translate(-36 17)" onmousedown="handlePan(-1,0)">
                  <use xlink:href="#rim" fill="#404040">
                        <set attributeName="fill" to="#808080" begin="arrowLeft.mouseover" end="arrowLeft.mouseout"/>
                  </use>
                  <path fill="none" stroke="white" stroke-width="1.5" d="M0,-3.0v7 M-2.5,-0.5L0,-3.0L2.5,-0.5"/>
                </g>
        </g>
        <svg viewBox="0 0 15 15" width="100%" height="30px" preserveAspectRatio="xMaxYMin meet">
         <g id="arrow_out" transform="scale(0.3 0.3)">
          <a xlink:href="screen__game_8cpp__incl_org.svg" target="_base">
           <rect id="button" ry="5" rx="5" y="6" x="6" height="38" width="38"
                fill="#f2f5e9" fill-opacity="0.5" stroke="#606060" stroke-width="1.0"/>
           <path id="arrow"
             d="M 11.500037,31.436501 C 11.940474,20.09759 22.043105,11.32322 32.158766,21.979434 L 37.068811,17.246167 C 37.068811,17.246167 37.088388,32 37.088388,32 L 22.160133,31.978069 C 22.160133,31.978069 26.997745,27.140456 26.997745,27.140456 C 18.528582,18.264221 13.291696,25.230495 11.500037,31.436501 z"
             style="fill:#404040;"/>
          </a>
         </g>
        </svg>
</svg>
