<?xml version="1.0" encoding="UTF-8" standalone="no"?>
<!DOCTYPE svg PUBLIC "-//W3C//DTD SVG 1.1//EN"
 "http://www.w3.org/Graphics/SVG/1.1/DTD/svg11.dtd">
<!-- Generated by graphviz version 2.43.0 (0)
 -->
<!-- Title: src/gui/screen_game/screen_game.h Pages: 1 -->
<!--zoomable 218 -->
<svg id="main" version="1.1" xmlns="http://www.w3.org/2000/svg" xmlns:xlink="http://www.w3.org/1999/xlink" xml:space="preserve" onload="init(evt)">
<style type="text/css"><![CDATA[
.edge:hover path { stroke: red; }
.edge:hover polygon { stroke: red; fill: red; }
]]></style>
<script type="text/javascript"><![CDATA[
var edges = document.getElementsByTagName('g');
if (edges && edges.length) {
  for (var i=0;i<edges.length;i++) {
    if (edges[i].id.substr(0,4)=='edge') {
      edges[i].setAttribute('class','edge');
    }
  }
}
]]></script>
        <defs>
                <circle id="rim" cx="0" cy="0" r="7"/>
                <circle id="rim2" cx="0" cy="0" r="3.5"/>
                <g id="zoomPlus">
                        <use xlink:href="#rim" fill="#404040">
                                <set attributeName="fill" to="#808080" begin="zoomplus.mouseover" end="zoomplus.mouseout"/>
                        </use>
                        <path d="M-4,0h8M0,-4v8" fill="none" stroke="white" stroke-width="1.5" pointer-events="none"/>
                </g>
                <g id="zoomMin">
                        <use xlink:href="#rim" fill="#404040">
                                <set attributeName="fill" to="#808080" begin="zoomminus.mouseover" end="zoomminus.mouseout"/>
                        </use>
                        <path d="M-4,0h8" fill="none" stroke="white" stroke-width="1.5" pointer-events="none"/>
                </g>
                <g id="dirArrow">
                        <path fill="none" stroke="white" stroke-width="1.5" d="M0,-3.0v7 M-2.5,-0.5L0,-3.0L2.5,-0.5"/>
                </g>
               <g id="resetDef">
                       <use xlink:href="#rim2" fill="#404040">
                               <set attributeName="fill" to="#808080" begin="reset.mouseover" end="reset.mouseout"/>
                       </use>
               </g>
        </defs>

<script type="text/javascript">
var viewWidth = 1191;
var viewHeight = 218;
var sectionId = 'dynsection-0';
</script>
<script xlink:href="svgpan.js"/>
<svg id="graph" class="graph">
<g id="viewport">
<title>src/gui/screen_game/screen_game.h</title>
<!-- Node1 -->
<g id="node1" class="node">
<title>Node1</title>
<g id="a_node1"><a xlink:title=" ">
<polygon fill="#bfbfbf" stroke="black" points="520.5,-179.5 520.5,-209.5 637.5,-209.5 637.5,-179.5 520.5,-179.5"/>
<text text-anchor="start" x="528.5" y="-197.5" font-family="Helvetica,sans-Serif" font-size="10.00">src/gui/screen_game</text>
<text text-anchor="middle" x="579" y="-186.5" font-family="Helvetica,sans-Serif" font-size="10.00">/screen_game.h</text>
</a>
</g>
</g>
<!-- Node2 -->
<g id="node2" class="node">
<title>Node2</title>
<g id="a_node2"><a xlink:title=" ">
<polygon fill="none" stroke="#bfbfbf" points="0,-118 0,-137 122,-137 122,-118 0,-118"/>
<text text-anchor="middle" x="61" y="-125" font-family="Helvetica,sans-Serif" font-size="10.00">QGraphicsEllipseItem</text>
</a>
</g>
</g>
<!-- Node1&#45;&gt;Node2 -->
<g id="edge1" class="edge">
<title>Node1&#45;&gt;Node2</title>
<path fill="none" stroke="midnightblue" d="M520.42,-188.63C434.63,-181.1 269.93,-165.17 131,-143 123.84,-141.86 116.3,-140.48 108.93,-139.04"/>
<polygon fill="midnightblue" stroke="midnightblue" points="109.52,-135.59 99.03,-137.04 108.14,-142.45 109.52,-135.59"/>
</g>
<!-- Node3 -->
<g id="node3" class="node">
<title>Node3</title>
<g id="a_node3"><a xlink:title=" ">
<polygon fill="none" stroke="#bfbfbf" points="140,-118 140,-137 280,-137 280,-118 140,-118"/>
<text text-anchor="middle" x="210" y="-125" font-family="Helvetica,sans-Serif" font-size="10.00">QGraphicsItemAnimation</text>
</a>
</g>
</g>
<!-- Node1&#45;&gt;Node3 -->
<g id="edge2" class="edge">
<title>Node1&#45;&gt;Node3</title>
<path fill="none" stroke="midnightblue" d="M520.12,-183.13C451.13,-170.97 337.49,-150.96 268.61,-138.82"/>
<polygon fill="midnightblue" stroke="midnightblue" points="268.82,-135.31 258.37,-137.02 267.61,-142.2 268.82,-135.31"/>
</g>
<!-- Node4 -->
<g id="node4" class="node">
<title>Node4</title>
<g id="a_node4"><a xlink:title=" ">
<polygon fill="none" stroke="#bfbfbf" points="80,-56.5 80,-75.5 176,-75.5 176,-56.5 80,-56.5"/>
<text text-anchor="middle" x="128" y="-63.5" font-family="Helvetica,sans-Serif" font-size="10.00">QGraphicsScene</text>
</a>
</g>
</g>
<!-- Node1&#45;&gt;Node4 -->
<g id="edge3" class="edge">
<title>Node1&#45;&gt;Node4</title>
<path fill="none" stroke="midnightblue" d="M520.46,-189.81C467.71,-184.65 389.14,-172.33 327,-143 307.29,-133.7 308.35,-122.03 289,-112 256.8,-95.3 217.67,-84.18 186.05,-77.17"/>
<polygon fill="midnightblue" stroke="midnightblue" points="186.58,-73.71 176.07,-75.04 185.11,-80.55 186.58,-73.71"/>
</g>
<!-- Node5 -->
<g id="node5" class="node">
<title>Node5</title>
<g id="a_node5"><a xlink:title=" ">
<polygon fill="none" stroke="#bfbfbf" points="446.5,-56.5 446.5,-75.5 553.5,-75.5 553.5,-56.5 446.5,-56.5"/>
<text text-anchor="middle" x="500" y="-63.5" font-family="Helvetica,sans-Serif" font-size="10.00">QGraphicsSvgItem</text>
</a>
</g>
</g>
<!-- Node1&#45;&gt;Node5 -->
<g id="edge4" class="edge">
<title>Node1&#45;&gt;Node5</title>
<path fill="none" stroke="midnightblue" d="M550.51,-179.35C536.33,-170.8 520.27,-158.53 511,-143 500.67,-125.68 498.71,-102.29 498.83,-86.05"/>
<polygon fill="midnightblue" stroke="midnightblue" points="502.34,-85.8 499.2,-75.68 495.34,-85.55 502.34,-85.8"/>
</g>
<!-- Node6 -->
<g id="node6" class="node">
<title>Node6</title>
<g id="a_node6"><a xlink:title=" ">
<polygon fill="none" stroke="#bfbfbf" points="694.5,-118 694.5,-137 747.5,-137 747.5,-118 694.5,-118"/>
<text text-anchor="middle" x="721" y="-125" font-family="Helvetica,sans-Serif" font-size="10.00">QString</text>
</a>
</g>
</g>
<!-- Node1&#45;&gt;Node6 -->
<g id="edge5" class="edge">
<title>Node1&#45;&gt;Node6</title>
<path fill="none" stroke="midnightblue" d="M609.81,-179.4C634.62,-168.04 669.18,-152.22 693.16,-141.24"/>
<polygon fill="midnightblue" stroke="midnightblue" points="694.78,-144.35 702.42,-137.01 691.87,-137.99 694.78,-144.35"/>
</g>
<!-- Node7 -->
<g id="node7" class="node">
<title>Node7</title>
<g id="a_node7"><a xlink:title=" ">
<polygon fill="none" stroke="#bfbfbf" points="765.5,-118 765.5,-137 834.5,-137 834.5,-118 765.5,-118"/>
<text text-anchor="middle" x="800" y="-125" font-family="Helvetica,sans-Serif" font-size="10.00">QTimeLine</text>
</a>
</g>
</g>
<!-- Node1&#45;&gt;Node7 -->
<g id="edge6" class="edge">
<title>Node1&#45;&gt;Node7</title>
<path fill="none" stroke="midnightblue" d="M630.28,-179.46C665.71,-169.62 713.85,-155.95 756,-143 758.9,-142.11 761.91,-141.16 764.92,-140.2"/>
<polygon fill="midnightblue" stroke="midnightblue" points="766.03,-143.52 774.46,-137.11 763.87,-136.86 766.03,-143.52"/>
</g>
<!-- Node8 -->
<g id="node8" class="node">
<title>Node8</title>
<g id="a_node8"><a xlink:title=" ">
<polygon fill="none" stroke="#bfbfbf" points="852.5,-118 852.5,-137 911.5,-137 911.5,-118 852.5,-118"/>
<text text-anchor="middle" x="882" y="-125" font-family="Helvetica,sans-Serif" font-size="10.00">QWidget</text>
</a>
</g>
</g>
<!-- Node1&#45;&gt;Node8 -->
<g id="edge7" class="edge">
<title>Node1&#45;&gt;Node8</title>
<path fill="none" stroke="midnightblue" d="M637.59,-185.17C691.52,-176.83 773.45,-162.43 843,-143 845.65,-142.26 848.37,-141.42 851.09,-140.52"/>
<polygon fill="midnightblue" stroke="midnightblue" points="852.48,-143.75 860.76,-137.13 850.16,-137.14 852.48,-143.75"/>
</g>
<!-- Node9 -->
<g id="node9" class="node">
<title>Node9</title>
<g id="a_node9"><a xlink:href="constants_8h.html" target="_top" xlink:title=" ">
<polygon fill="none" stroke="black" points="850,-56.5 850,-75.5 940,-75.5 940,-56.5 850,-56.5"/>
<text text-anchor="middle" x="895" y="-63.5" font-family="Helvetica,sans-Serif" font-size="10.00">src/constants.h</text>
</a>
</g>
</g>
<!-- Node1&#45;&gt;Node9 -->
<g id="edge8" class="edge">
<title>Node1&#45;&gt;Node9</title>
<path fill="none" stroke="midnightblue" d="M597.87,-179.48C611.35,-169.42 629.87,-155.48 646,-143 663.51,-129.45 664.98,-121.46 685,-112 698.91,-105.43 782.21,-88.62 839.62,-77.51"/>
<polygon fill="midnightblue" stroke="midnightblue" points="840.51,-80.9 849.66,-75.57 839.18,-74.03 840.51,-80.9"/>
</g>
<!-- Node11 -->
<g id="node11" class="node">
<title>Node11</title>
<g id="a_node11"><a xlink:href="gui__scene_8h.html" target="_top" xlink:title=" ">
<polygon fill="none" stroke="black" points="336.5,-112.5 336.5,-142.5 455.5,-142.5 455.5,-112.5 336.5,-112.5"/>
<text text-anchor="start" x="344.5" y="-130.5" font-family="Helvetica,sans-Serif" font-size="10.00">src/gui/gui_scene/gui</text>
<text text-anchor="middle" x="396" y="-119.5" font-family="Helvetica,sans-Serif" font-size="10.00">_scene.h</text>
</a>
</g>
</g>
<!-- Node1&#45;&gt;Node11 -->
<g id="edge10" class="edge">
<title>Node1&#45;&gt;Node11</title>
<path fill="none" stroke="midnightblue" d="M539.29,-179.4C511.71,-169.6 474.78,-156.48 445.31,-146.02"/>
<polygon fill="midnightblue" stroke="midnightblue" points="446.23,-142.63 435.63,-142.58 443.88,-149.22 446.23,-142.63"/>
</g>
<!-- Node16 -->
<g id="node16" class="node">
<title>Node16</title>
<g id="a_node16"><a xlink:href="gui__advantage__bar_8h.html" target="_top" xlink:title=" ">
<polygon fill="none" stroke="black" points="988.5,-112.5 988.5,-142.5 1109.5,-142.5 1109.5,-112.5 988.5,-112.5"/>
<text text-anchor="start" x="996.5" y="-130.5" font-family="Helvetica,sans-Serif" font-size="10.00">src/gui/screen_game</text>
<text text-anchor="middle" x="1049" y="-119.5" font-family="Helvetica,sans-Serif" font-size="10.00">/gui_advantage_bar.h</text>
</a>
</g>
</g>
<!-- Node1&#45;&gt;Node16 -->
<g id="edge16" class="edge">
<title>Node1&#45;&gt;Node16</title>
<path fill="none" stroke="midnightblue" d="M637.58,-185.4C723.91,-173.46 885.12,-151.16 978.04,-138.31"/>
<polygon fill="midnightblue" stroke="midnightblue" points="978.77,-141.75 988.2,-136.91 977.81,-134.81 978.77,-141.75"/>
</g>
<!-- Node20 -->
<g id="node20" class="node">
<title>Node20</title>
<g id="a_node20"><a xlink:href="gui__figure_8h.html" target="_top" xlink:title=" ">
<polygon fill="none" stroke="black" points="520.5,-112.5 520.5,-142.5 637.5,-142.5 637.5,-112.5 520.5,-112.5"/>
<text text-anchor="start" x="528.5" y="-130.5" font-family="Helvetica,sans-Serif" font-size="10.00">src/gui/screen_game</text>
<text text-anchor="middle" x="579" y="-119.5" font-family="Helvetica,sans-Serif" font-size="10.00">/gui_figure.h</text>
</a>
</g>
</g>
<!-- Node1&#45;&gt;Node20 -->
<g id="edge20" class="edge">
<title>Node1&#45;&gt;Node20</title>
<path fill="none" stroke="midnightblue" d="M579,-179.4C579,-171.64 579,-161.81 579,-152.86"/>
<polygon fill="midnightblue" stroke="midnightblue" points="582.5,-152.58 579,-142.58 575.5,-152.58 582.5,-152.58"/>
</g>
<!-- Node10 -->
<g id="node10" class="node">
<title>Node10</title>
<g id="a_node10"><a xlink:title=" ">
<polygon fill="none" stroke="#bfbfbf" points="867.5,-0.5 867.5,-19.5 922.5,-19.5 922.5,-0.5 867.5,-0.5"/>
<text text-anchor="middle" x="895" y="-7.5" font-family="Helvetica,sans-Serif" font-size="10.00">QVector</text>
</a>
</g>
</g>
<!-- Node9&#45;&gt;Node10 -->
<g id="edge9" class="edge">
<title>Node9&#45;&gt;Node10</title>
<path fill="none" stroke="midnightblue" d="M895,-56.08C895,-49.01 895,-38.86 895,-29.99"/>
<polygon fill="midnightblue" stroke="midnightblue" points="898.5,-29.75 895,-19.75 891.5,-29.75 898.5,-29.75"/>
</g>
<!-- Node11&#45;&gt;Node4 -->
<g id="edge11" class="edge">
<title>Node11&#45;&gt;Node4</title>
<path fill="none" stroke="midnightblue" d="M336.19,-113.22C288,-102.52 221.12,-87.67 176.29,-77.72"/>
<polygon fill="midnightblue" stroke="midnightblue" points="177.03,-74.3 166.51,-75.55 175.52,-81.13 177.03,-74.3"/>
</g>
<!-- Node12 -->
<g id="node12" class="node">
<title>Node12</title>
<g id="a_node12"><a xlink:title=" ">
<polygon fill="none" stroke="#bfbfbf" points="262,-56.5 262,-75.5 346,-75.5 346,-56.5 262,-56.5"/>
<text text-anchor="middle" x="304" y="-63.5" font-family="Helvetica,sans-Serif" font-size="10.00">QMouseEvent</text>
</a>
</g>
</g>
<!-- Node11&#45;&gt;Node12 -->
<g id="edge12" class="edge">
<title>Node11&#45;&gt;Node12</title>
<path fill="none" stroke="midnightblue" d="M374.2,-112.4C359.59,-102.95 340.43,-90.56 325.82,-81.11"/>
<polygon fill="midnightblue" stroke="midnightblue" points="327.68,-78.15 317.39,-75.66 323.88,-84.03 327.68,-78.15"/>
</g>
<!-- Node13 -->
<g id="node13" class="node">
<title>Node13</title>
<g id="a_node13"><a xlink:title=" ">
<polygon fill="none" stroke="#bfbfbf" points="194.5,-56.5 194.5,-75.5 243.5,-75.5 243.5,-56.5 194.5,-56.5"/>
<text text-anchor="middle" x="219" y="-63.5" font-family="Helvetica,sans-Serif" font-size="10.00">QPoint</text>
</a>
</g>
</g>
<!-- Node11&#45;&gt;Node13 -->
<g id="edge13" class="edge">
<title>Node11&#45;&gt;Node13</title>
<path fill="none" stroke="midnightblue" d="M354.05,-112.4C323.33,-102.07 282.13,-88.22 253.35,-78.55"/>
<polygon fill="midnightblue" stroke="midnightblue" points="254.32,-75.18 243.73,-75.31 252.09,-81.82 254.32,-75.18"/>
</g>
<!-- Node14 -->
<g id="node14" class="node">
<title>Node14</title>
<g id="a_node14"><a xlink:href="utils_8h.html" target="_top" xlink:title=" ">
<polygon fill="none" stroke="black" points="364,-56.5 364,-75.5 428,-75.5 428,-56.5 364,-56.5"/>
<text text-anchor="middle" x="396" y="-63.5" font-family="Helvetica,sans-Serif" font-size="10.00">src/utils.h</text>
</a>
</g>
</g>
<!-- Node11&#45;&gt;Node14 -->
<g id="edge14" class="edge">
<title>Node11&#45;&gt;Node14</title>
<path fill="none" stroke="midnightblue" d="M396,-112.4C396,-104.47 396,-94.46 396,-85.86"/>
<polygon fill="midnightblue" stroke="midnightblue" points="399.5,-85.66 396,-75.66 392.5,-85.66 399.5,-85.66"/>
</g>
<!-- Node15 -->
<g id="node15" class="node">
<title>Node15</title>
<g id="a_node15"><a xlink:title=" ">
<polygon fill="none" stroke="#bfbfbf" points="373.5,-0.5 373.5,-19.5 418.5,-19.5 418.5,-0.5 373.5,-0.5"/>
<text text-anchor="middle" x="396" y="-7.5" font-family="Helvetica,sans-Serif" font-size="10.00">utility</text>
</a>
</g>
</g>
<!-- Node14&#45;&gt;Node15 -->
<g id="edge15" class="edge">
<title>Node14&#45;&gt;Node15</title>
<path fill="none" stroke="midnightblue" d="M396,-56.08C396,-49.01 396,-38.86 396,-29.99"/>
<polygon fill="midnightblue" stroke="midnightblue" points="399.5,-29.75 396,-19.75 392.5,-29.75 399.5,-29.75"/>
</g>
<!-- Node17 -->
<g id="node17" class="node">
<title>Node17</title>
<g id="a_node17"><a xlink:title=" ">
<polygon fill="none" stroke="#bfbfbf" points="958.5,-56.5 958.5,-75.5 1047.5,-75.5 1047.5,-56.5 958.5,-56.5"/>
<text text-anchor="middle" x="1003" y="-63.5" font-family="Helvetica,sans-Serif" font-size="10.00">QGraphicsItem</text>
</a>
</g>
</g>
<!-- Node16&#45;&gt;Node17 -->
<g id="edge17" class="edge">
<title>Node16&#45;&gt;Node17</title>
<path fill="none" stroke="midnightblue" d="M1038.1,-112.4C1031.41,-103.75 1022.82,-92.64 1015.82,-83.58"/>
<polygon fill="midnightblue" stroke="midnightblue" points="1018.58,-81.43 1009.69,-75.66 1013.04,-85.71 1018.58,-81.43"/>
</g>
<!-- Node18 -->
<g id="node18" class="node">
<title>Node18</title>
<g id="a_node18"><a xlink:title=" ">
<polygon fill="none" stroke="#bfbfbf" points="1065,-56.5 1065,-75.5 1123,-75.5 1123,-56.5 1065,-56.5"/>
<text text-anchor="middle" x="1094" y="-63.5" font-family="Helvetica,sans-Serif" font-size="10.00">QPainter</text>
</a>
</g>
</g>
<!-- Node16&#45;&gt;Node18 -->
<g id="edge18" class="edge">
<title>Node16&#45;&gt;Node18</title>
<path fill="none" stroke="midnightblue" d="M1059.66,-112.4C1066.14,-103.84 1074.43,-92.87 1081.25,-83.86"/>
<polygon fill="midnightblue" stroke="midnightblue" points="1084.21,-85.74 1087.45,-75.66 1078.63,-81.52 1084.21,-85.74"/>
</g>
<!-- Node19 -->
<g id="node19" class="node">
<title>Node19</title>
<g id="a_node19"><a xlink:title=" ">
<polygon fill="none" stroke="#bfbfbf" points="1141,-56.5 1141,-75.5 1183,-75.5 1183,-56.5 1141,-56.5"/>
<text text-anchor="middle" x="1162" y="-63.5" font-family="Helvetica,sans-Serif" font-size="10.00">QPen</text>
</a>
</g>
</g>
<!-- Node16&#45;&gt;Node19 -->
<g id="edge19" class="edge">
<title>Node16&#45;&gt;Node19</title>
<path fill="none" stroke="midnightblue" d="M1075.78,-112.4C1094.06,-102.77 1118.15,-90.09 1136.21,-80.58"/>
<polygon fill="midnightblue" stroke="midnightblue" points="1138.34,-83.41 1145.56,-75.66 1135.08,-77.22 1138.34,-83.41"/>
</g>
<!-- Node20&#45;&gt;Node5 -->
<g id="edge22" class="edge">
<title>Node20&#45;&gt;Node5</title>
<path fill="none" stroke="midnightblue" d="M560.28,-112.4C548.09,-103.22 532.21,-91.26 519.81,-81.92"/>
<polygon fill="midnightblue" stroke="midnightblue" points="521.59,-78.88 511.5,-75.66 517.38,-84.47 521.59,-78.88"/>
</g>
<!-- Node20&#45;&gt;Node9 -->
<g id="edge24" class="edge">
<title>Node20&#45;&gt;Node9</title>
<path fill="none" stroke="midnightblue" d="M637.56,-114.8C642.44,-113.84 647.3,-112.9 652,-112 716.32,-99.66 790.33,-86.04 839.61,-77.05"/>
<polygon fill="midnightblue" stroke="midnightblue" points="840.52,-80.44 849.73,-75.2 839.27,-73.55 840.52,-80.44"/>
</g>
<!-- Node20&#45;&gt;Node14 -->
<g id="edge25" class="edge">
<title>Node20&#45;&gt;Node14</title>
<path fill="none" stroke="midnightblue" d="M535.63,-112.4C504.01,-102.12 461.67,-88.35 431.93,-78.68"/>
<polygon fill="midnightblue" stroke="midnightblue" points="432.95,-75.33 422.36,-75.57 430.79,-81.99 432.95,-75.33"/>
</g>
<!-- Node21 -->
<g id="node21" class="node">
<title>Node21</title>
<g id="a_node21"><a xlink:title=" ">
<polygon fill="none" stroke="#bfbfbf" points="676,-56.5 676,-75.5 832,-75.5 832,-56.5 676,-56.5"/>
<text text-anchor="middle" x="754" y="-63.5" font-family="Helvetica,sans-Serif" font-size="10.00">QGraphicsSceneMouseEvent</text>
</a>
</g>
</g>
<!-- Node20&#45;&gt;Node21 -->
<g id="edge21" class="edge">
<title>Node20&#45;&gt;Node21</title>
<path fill="none" stroke="midnightblue" d="M620.47,-112.4C650.58,-102.16 690.85,-88.47 719.27,-78.81"/>
<polygon fill="midnightblue" stroke="midnightblue" points="720.45,-82.1 728.79,-75.57 718.2,-75.48 720.45,-82.1"/>
</g>
<!-- Node22 -->
<g id="node22" class="node">
<title>Node22</title>
<g id="a_node22"><a xlink:title=" ">
<polygon fill="none" stroke="#bfbfbf" points="572,-56.5 572,-75.5 658,-75.5 658,-56.5 572,-56.5"/>
<text text-anchor="middle" x="615" y="-63.5" font-family="Helvetica,sans-Serif" font-size="10.00">QSvgRenderer</text>
</a>
</g>
</g>
<!-- Node20&#45;&gt;Node22 -->
<g id="edge23" class="edge">
<title>Node20&#45;&gt;Node22</title>
<path fill="none" stroke="midnightblue" d="M587.53,-112.4C592.6,-104.02 599.07,-93.33 604.46,-84.42"/>
<polygon fill="midnightblue" stroke="midnightblue" points="607.58,-86.03 609.76,-75.66 601.59,-82.4 607.58,-86.03"/>
</g>
</g>
</svg>
        <g id="navigator" transform="translate(0 0)" fill="#404254">
                <rect fill="#f2f5e9" fill-opacity="0.5" stroke="#606060" stroke-width=".5" x="0" y="0" width="60" height="60"/>
                <use id="zoomplus" xlink:href="#zoomPlus" x="17" y="9" onmousedown="handleZoom(evt,'in')"/>
                <use id="zoomminus" xlink:href="#zoomMin" x="42" y="9" onmousedown="handleZoom(evt,'out')"/>
                <use id="reset" xlink:href="#resetDef" x="30" y="36" onmousedown="handleReset()"/>
                <g id="arrowUp" xlink:href="#dirArrow" transform="translate(30 24)" onmousedown="handlePan(0,-1)">
                  <use xlink:href="#rim" fill="#404040">
                        <set attributeName="fill" to="#808080" begin="arrowUp.mouseover" end="arrowUp.mouseout"/>
                  </use>
                  <path fill="none" stroke="white" stroke-width="1.5" d="M0,-3.0v7 M-2.5,-0.5L0,-3.0L2.5,-0.5"/>
                </g>
                <g id="arrowRight" xlink:href="#dirArrow" transform="rotate(90) translate(36 -43)" onmousedown="handlePan(1,0)">
                  <use xlink:href="#rim" fill="#404040">
                        <set attributeName="fill" to="#808080" begin="arrowRight.mouseover" end="arrowRight.mouseout"/>
                  </use>
                  <path fill="none" stroke="white" stroke-width="1.5" d="M0,-3.0v7 M-2.5,-0.5L0,-3.0L2.5,-0.5"/>
                </g>
                <g id="arrowDown" xlink:href="#dirArrow" transform="rotate(180) translate(-30 -48)" onmousedown="handlePan(0,1)">
                  <use xlink:href="#rim" fill="#404040">
                        <set attributeName="fill" to="#808080" begin="arrowDown.mouseover" end="arrowDown.mouseout"/>
                  </use>
                  <path fill="none" stroke="white" stroke-width="1.5" d="M0,-3.0v7 M-2.5,-0.5L0,-3.0L2.5,-0.5"/>
                </g>
                <g id="arrowLeft" xlink:href="#dirArrow" transform="rotate(270) translate(-36 17)" onmousedown="handlePan(-1,0)">
                  <use xlink:href="#rim" fill="#404040">
                        <set attributeName="fill" to="#808080" begin="arrowLeft.mouseover" end="arrowLeft.mouseout"/>
                  </use>
                  <path fill="none" stroke="white" stroke-width="1.5" d="M0,-3.0v7 M-2.5,-0.5L0,-3.0L2.5,-0.5"/>
                </g>
        </g>
        <svg viewBox="0 0 15 15" width="100%" height="30px" preserveAspectRatio="xMaxYMin meet">
         <g id="arrow_out" transform="scale(0.3 0.3)">
          <a xlink:href="screen__game_8h__incl_org.svg" target="_base">
           <rect id="button" ry="5" rx="5" y="6" x="6" height="38" width="38"
                fill="#f2f5e9" fill-opacity="0.5" stroke="#606060" stroke-width="1.0"/>
           <path id="arrow"
             d="M 11.500037,31.436501 C 11.940474,20.09759 22.043105,11.32322 32.158766,21.979434 L 37.068811,17.246167 C 37.068811,17.246167 37.088388,32 37.088388,32 L 22.160133,31.978069 C 22.160133,31.978069 26.997745,27.140456 26.997745,27.140456 C 18.528582,18.264221 13.291696,25.230495 11.500037,31.436501 z"
             style="fill:#404040;"/>
          </a>
         </g>
        </svg>
</svg>
