<?xml version="1.0" encoding="UTF-8" standalone="no"?>
<!DOCTYPE svg PUBLIC "-//W3C//DTD SVG 1.1//EN"
 "http://www.w3.org/Graphics/SVG/1.1/DTD/svg11.dtd">
<!-- Generated by graphviz version 2.43.0 (0)
 -->
<!-- Title: src/gui/screen_game/screen_game.cpp Pages: 1 -->
<!--zoomable 274 -->
<svg id="main" version="1.1" xmlns="http://www.w3.org/2000/svg" xmlns:xlink="http://www.w3.org/1999/xlink" xml:space="preserve" onload="init(evt)">
<style type="text/css"><![CDATA[
.edge:hover path { stroke: red; }
.edge:hover polygon { stroke: red; fill: red; }
]]></style>
<script type="text/javascript"><![CDATA[
var edges = document.getElementsByTagName('g');
if (edges && edges.length) {
  for (var i=0;i<edges.length;i++) {
    if (edges[i].id.substr(0,4)=='edge') {
      edges[i].setAttribute('class','edge');
    }
  }
}
]]></script>
        <defs>
                <circle id="rim" cx="0" cy="0" r="7"/>
                <circle id="rim2" cx="0" cy="0" r="3.5"/>
                <g id="zoomPlus">
                        <use xlink:href="#rim" fill="#404040">
                                <set attributeName="fill" to="#808080" begin="zoomplus.mouseover" end="zoomplus.mouseout"/>
                        </use>
                        <path d="M-4,0h8M0,-4v8" fill="none" stroke="white" stroke-width="1.5" pointer-events="none"/>
                </g>
                <g id="zoomMin">
                        <use xlink:href="#rim" fill="#404040">
                                <set attributeName="fill" to="#808080" begin="zoomminus.mouseover" end="zoomminus.mouseout"/>
                        </use>
                        <path d="M-4,0h8" fill="none" stroke="white" stroke-width="1.5" pointer-events="none"/>
                </g>
                <g id="dirArrow">
                        <path fill="none" stroke="white" stroke-width="1.5" d="M0,-3.0v7 M-2.5,-0.5L0,-3.0L2.5,-0.5"/>
                </g>
               <g id="resetDef">
                       <use xlink:href="#rim2" fill="#404040">
                               <set attributeName="fill" to="#808080" begin="reset.mouseover" end="reset.mouseout"/>
                       </use>
               </g>
        </defs>

<script type="text/javascript">
var viewWidth = 1739;
var viewHeight = 274;
var sectionId = 'dynsection-0';
</script>
<script xlink:href="svgpan.js"/>
<svg id="graph" class="graph">
<g id="viewport">
<title>src/gui/screen_game/screen_game.cpp</title>
<!-- Node1 -->
<g id="node1" class="node">
<title>Node1</title>
<g id="a_node1"><a xlink:title=" ">
<polygon fill="#bfbfbf" stroke="black" points="784.5,-235.5 784.5,-265.5 901.5,-265.5 901.5,-235.5 784.5,-235.5"/>
<text text-anchor="start" x="792.5" y="-253.5" font-family="Helvetica,sans-Serif" font-size="10.00">src/gui/screen_game</text>
<text text-anchor="middle" x="843" y="-242.5" font-family="Helvetica,sans-Serif" font-size="10.00">/screen_game.cpp</text>
</a>
</g>
</g>
<!-- Node2 -->
<g id="node2" class="node">
<title>Node2</title>
<g id="a_node2"><a xlink:href="screen__game_8h.html" target="_top" xlink:title=" ">
<polygon fill="none" stroke="black" points="681.5,-179.5 681.5,-198.5 772.5,-198.5 772.5,-179.5 681.5,-179.5"/>
<text text-anchor="middle" x="727" y="-186.5" font-family="Helvetica,sans-Serif" font-size="10.00">screen_game.h</text>
</a>
</g>
</g>
<!-- Node1&#45;&gt;Node2 -->
<g id="edge1" class="edge">
<title>Node1&#45;&gt;Node2</title>
<path fill="none" stroke="midnightblue" d="M815.51,-235.4C796.57,-225.68 771.56,-212.86 752.96,-203.31"/>
<polygon fill="midnightblue" stroke="midnightblue" points="754.37,-200.11 743.88,-198.66 751.18,-206.34 754.37,-200.11"/>
</g>
<!-- Node29 -->
<g id="node29" class="node">
<title>Node29</title>
<g id="a_node29"><a xlink:title=" ">
<polygon fill="none" stroke="#bfbfbf" points="790.5,-179.5 790.5,-198.5 895.5,-198.5 895.5,-179.5 790.5,-179.5"/>
<text text-anchor="middle" x="843" y="-186.5" font-family="Helvetica,sans-Serif" font-size="10.00">ui_screen_game.h</text>
</a>
</g>
</g>
<!-- Node1&#45;&gt;Node29 -->
<g id="edge39" class="edge">
<title>Node1&#45;&gt;Node29</title>
<path fill="none" stroke="midnightblue" d="M843,-235.4C843,-227.47 843,-217.46 843,-208.86"/>
<polygon fill="midnightblue" stroke="midnightblue" points="846.5,-208.66 843,-198.66 839.5,-208.66 846.5,-208.66"/>
</g>
<!-- Node30 -->
<g id="node30" class="node">
<title>Node30</title>
<g id="a_node30"><a xlink:title=" ">
<polygon fill="none" stroke="#bfbfbf" points="914,-179.5 914,-198.5 974,-198.5 974,-179.5 914,-179.5"/>
<text text-anchor="middle" x="944" y="-186.5" font-family="Helvetica,sans-Serif" font-size="10.00">iostream</text>
</a>
</g>
</g>
<!-- Node1&#45;&gt;Node30 -->
<g id="edge40" class="edge">
<title>Node1&#45;&gt;Node30</title>
<path fill="none" stroke="midnightblue" d="M866.94,-235.4C883.13,-225.86 904.41,-213.32 920.5,-203.84"/>
<polygon fill="midnightblue" stroke="midnightblue" points="922.46,-206.75 929.3,-198.66 918.91,-200.72 922.46,-206.75"/>
</g>
<!-- Node3 -->
<g id="node3" class="node">
<title>Node3</title>
<g id="a_node3"><a xlink:title=" ">
<polygon fill="none" stroke="#bfbfbf" points="0,-118 0,-137 134,-137 134,-118 0,-118"/>
<text text-anchor="middle" x="67" y="-125" font-family="Helvetica,sans-Serif" font-size="10.00">QGraphicsColorizeEffect</text>
</a>
</g>
</g>
<!-- Node2&#45;&gt;Node3 -->
<g id="edge2" class="edge">
<title>Node2&#45;&gt;Node3</title>
<path fill="none" stroke="midnightblue" d="M681.39,-186.22C582.78,-181.99 342.57,-169.64 143,-143 134.58,-141.88 125.68,-140.42 117.05,-138.87"/>
<polygon fill="midnightblue" stroke="midnightblue" points="117.57,-135.41 107.09,-137.02 116.29,-142.29 117.57,-135.41"/>
</g>
<!-- Node4 -->
<g id="node4" class="node">
<title>Node4</title>
<g id="a_node4"><a xlink:title=" ">
<polygon fill="none" stroke="#bfbfbf" points="152,-118 152,-137 274,-137 274,-118 152,-118"/>
<text text-anchor="middle" x="213" y="-125" font-family="Helvetica,sans-Serif" font-size="10.00">QGraphicsEllipseItem</text>
</a>
</g>
</g>
<!-- Node2&#45;&gt;Node4 -->
<g id="edge3" class="edge">
<title>Node2&#45;&gt;Node4</title>
<path fill="none" stroke="midnightblue" d="M681.42,-184.94C600.76,-179.18 427.73,-165.26 283,-143 275.75,-141.88 268.11,-140.51 260.66,-139.06"/>
<polygon fill="midnightblue" stroke="midnightblue" points="261.15,-135.59 250.65,-137.04 259.76,-142.45 261.15,-135.59"/>
</g>
<!-- Node5 -->
<g id="node5" class="node">
<title>Node5</title>
<g id="a_node5"><a xlink:title=" ">
<polygon fill="none" stroke="#bfbfbf" points="292,-118 292,-137 432,-137 432,-118 292,-118"/>
<text text-anchor="middle" x="362" y="-125" font-family="Helvetica,sans-Serif" font-size="10.00">QGraphicsItemAnimation</text>
</a>
</g>
</g>
<!-- Node2&#45;&gt;Node5 -->
<g id="edge4" class="edge">
<title>Node2&#45;&gt;Node5</title>
<path fill="none" stroke="midnightblue" d="M681.22,-180.84C625.58,-172.11 528.85,-156.78 446,-143 437.82,-141.64 429.19,-140.18 420.7,-138.73"/>
<polygon fill="midnightblue" stroke="midnightblue" points="421.29,-135.28 410.84,-137.03 420.11,-142.18 421.29,-135.28"/>
</g>
<!-- Node6 -->
<g id="node6" class="node">
<title>Node6</title>
<g id="a_node6"><a xlink:title=" ">
<polygon fill="none" stroke="#bfbfbf" points="1106,-56.5 1106,-75.5 1202,-75.5 1202,-56.5 1106,-56.5"/>
<text text-anchor="middle" x="1154" y="-63.5" font-family="Helvetica,sans-Serif" font-size="10.00">QGraphicsScene</text>
</a>
</g>
</g>
<!-- Node2&#45;&gt;Node6 -->
<g id="edge5" class="edge">
<title>Node2&#45;&gt;Node6</title>
<path fill="none" stroke="midnightblue" d="M772.6,-180.42C830.99,-170.53 928.82,-153.27 964,-143 1023.54,-125.62 1090.24,-96.6 1126.64,-79.9"/>
<polygon fill="midnightblue" stroke="midnightblue" points="1128.46,-82.91 1136.07,-75.53 1125.53,-76.55 1128.46,-82.91"/>
</g>
<!-- Node7 -->
<g id="node7" class="node">
<title>Node7</title>
<g id="a_node7"><a xlink:title=" ">
<polygon fill="none" stroke="#bfbfbf" points="370.5,-56.5 370.5,-75.5 477.5,-75.5 477.5,-56.5 370.5,-56.5"/>
<text text-anchor="middle" x="424" y="-63.5" font-family="Helvetica,sans-Serif" font-size="10.00">QGraphicsSvgItem</text>
</a>
</g>
</g>
<!-- Node2&#45;&gt;Node7 -->
<g id="edge6" class="edge">
<title>Node2&#45;&gt;Node7</title>
<path fill="none" stroke="midnightblue" d="M681.16,-184.44C637.22,-179.61 569.93,-168.44 517,-143 500.5,-135.07 462.89,-102.27 440.89,-82.44"/>
<polygon fill="midnightblue" stroke="midnightblue" points="443.05,-79.68 433.29,-75.56 438.35,-84.87 443.05,-79.68"/>
</g>
<!-- Node8 -->
<g id="node8" class="node">
<title>Node8</title>
<g id="a_node8"><a xlink:title=" ">
<polygon fill="none" stroke="#bfbfbf" points="299.5,-56.5 299.5,-75.5 352.5,-75.5 352.5,-56.5 299.5,-56.5"/>
<text text-anchor="middle" x="326" y="-63.5" font-family="Helvetica,sans-Serif" font-size="10.00">QString</text>
</a>
</g>
</g>
<!-- Node2&#45;&gt;Node8 -->
<g id="edge7" class="edge">
<title>Node2&#45;&gt;Node8</title>
<path fill="none" stroke="midnightblue" d="M681.14,-187.6C628.49,-185.44 540.79,-176.52 474,-143 456.01,-133.97 458.01,-122.75 441,-112 416.58,-96.57 386,-84.91 362.52,-77.34"/>
<polygon fill="midnightblue" stroke="midnightblue" points="363.52,-73.98 352.93,-74.34 361.43,-80.66 363.52,-73.98"/>
</g>
<!-- Node9 -->
<g id="node9" class="node">
<title>Node9</title>
<g id="a_node9"><a xlink:title=" ">
<polygon fill="none" stroke="#bfbfbf" points="651.5,-118 651.5,-137 720.5,-137 720.5,-118 651.5,-118"/>
<text text-anchor="middle" x="686" y="-125" font-family="Helvetica,sans-Serif" font-size="10.00">QTimeLine</text>
</a>
</g>
</g>
<!-- Node2&#45;&gt;Node9 -->
<g id="edge8" class="edge">
<title>Node2&#45;&gt;Node9</title>
<path fill="none" stroke="midnightblue" d="M721.13,-179.48C715.04,-170.64 705.36,-156.59 697.7,-145.48"/>
<polygon fill="midnightblue" stroke="midnightblue" points="700.42,-143.26 691.86,-137.01 694.66,-147.23 700.42,-143.26"/>
</g>
<!-- Node10 -->
<g id="node10" class="node">
<title>Node10</title>
<g id="a_node10"><a xlink:title=" ">
<polygon fill="none" stroke="#bfbfbf" points="738.5,-118 738.5,-137 797.5,-137 797.5,-118 738.5,-118"/>
<text text-anchor="middle" x="768" y="-125" font-family="Helvetica,sans-Serif" font-size="10.00">QWidget</text>
</a>
</g>
</g>
<!-- Node2&#45;&gt;Node10 -->
<g id="edge9" class="edge">
<title>Node2&#45;&gt;Node10</title>
<path fill="none" stroke="midnightblue" d="M732.87,-179.48C738.96,-170.64 748.64,-156.59 756.3,-145.48"/>
<polygon fill="midnightblue" stroke="midnightblue" points="759.34,-147.23 762.14,-137.01 753.58,-143.26 759.34,-147.23"/>
</g>
<!-- Node11 -->
<g id="node11" class="node">
<title>Node11</title>
<g id="a_node11"><a xlink:href="constants_8h.html" target="_top" xlink:title=" ">
<polygon fill="none" stroke="black" points="916,-56.5 916,-75.5 1006,-75.5 1006,-56.5 916,-56.5"/>
<text text-anchor="middle" x="961" y="-63.5" font-family="Helvetica,sans-Serif" font-size="10.00">src/constants.h</text>
</a>
</g>
</g>
<!-- Node2&#45;&gt;Node11 -->
<g id="edge10" class="edge">
<title>Node2&#45;&gt;Node11</title>
<path fill="none" stroke="midnightblue" d="M772.53,-179.68C833.53,-168.36 934.87,-148.83 941,-143 956.49,-128.27 960.51,-103.1 961.3,-85.79"/>
<polygon fill="midnightblue" stroke="midnightblue" points="964.8,-85.78 961.44,-75.74 957.8,-85.69 964.8,-85.78"/>
</g>
<!-- Node13 -->
<g id="node13" class="node">
<title>Node13</title>
<g id="a_node13"><a xlink:href="gui__point_8h.html" target="_top" xlink:title=" ">
<polygon fill="none" stroke="black" points="1214.5,-112.5 1214.5,-142.5 1329.5,-142.5 1329.5,-112.5 1214.5,-112.5"/>
<text text-anchor="start" x="1222.5" y="-130.5" font-family="Helvetica,sans-Serif" font-size="10.00">src/gui/gui_point/gui</text>
<text text-anchor="middle" x="1272" y="-119.5" font-family="Helvetica,sans-Serif" font-size="10.00">_point.h</text>
</a>
</g>
</g>
<!-- Node2&#45;&gt;Node13 -->
<g id="edge12" class="edge">
<title>Node2&#45;&gt;Node13</title>
<path fill="none" stroke="midnightblue" d="M772.63,-180.13C775.46,-179.72 778.27,-179.34 781,-179 965.44,-155.84 1016.24,-170.54 1204.4,-142.95"/>
<polygon fill="midnightblue" stroke="midnightblue" points="1204.97,-146.4 1214.34,-141.47 1203.94,-139.48 1204.97,-146.4"/>
</g>
<!-- Node19 -->
<g id="node19" class="node">
<title>Node19</title>
<g id="a_node19"><a xlink:href="gui__scene_8h.html" target="_top" xlink:title=" ">
<polygon fill="none" stroke="black" points="1077.5,-112.5 1077.5,-142.5 1196.5,-142.5 1196.5,-112.5 1077.5,-112.5"/>
<text text-anchor="start" x="1085.5" y="-130.5" font-family="Helvetica,sans-Serif" font-size="10.00">src/gui/gui_scene/gui</text>
<text text-anchor="middle" x="1137" y="-119.5" font-family="Helvetica,sans-Serif" font-size="10.00">_scene.h</text>
</a>
</g>
</g>
<!-- Node2&#45;&gt;Node19 -->
<g id="edge18" class="edge">
<title>Node2&#45;&gt;Node19</title>
<path fill="none" stroke="midnightblue" d="M772.65,-180.31C775.48,-179.86 778.28,-179.42 781,-179 834.63,-170.73 979.62,-150.4 1067.14,-138.2"/>
<polygon fill="midnightblue" stroke="midnightblue" points="1067.84,-141.64 1077.26,-136.8 1066.87,-134.71 1067.84,-141.64"/>
</g>
<!-- Node22 -->
<g id="node22" class="node">
<title>Node22</title>
<g id="a_node22"><a xlink:href="gui__win_8h.html" target="_top" xlink:title=" ">
<polygon fill="none" stroke="black" points="526.5,-112.5 526.5,-142.5 633.5,-142.5 633.5,-112.5 526.5,-112.5"/>
<text text-anchor="start" x="534.5" y="-130.5" font-family="Helvetica,sans-Serif" font-size="10.00">src/gui/gui_win/gui</text>
<text text-anchor="middle" x="580" y="-119.5" font-family="Helvetica,sans-Serif" font-size="10.00">_win.h</text>
</a>
</g>
</g>
<!-- Node2&#45;&gt;Node22 -->
<g id="edge23" class="edge">
<title>Node2&#45;&gt;Node22</title>
<path fill="none" stroke="midnightblue" d="M705.94,-179.48C684.63,-170.85 651.06,-157.26 623.94,-146.29"/>
<polygon fill="midnightblue" stroke="midnightblue" points="625.23,-143.03 614.64,-142.52 622.6,-149.52 625.23,-143.03"/>
</g>
<!-- Node24 -->
<g id="node24" class="node">
<title>Node24</title>
<g id="a_node24"><a xlink:href="gui__advantage__bar_8h.html" target="_top" xlink:title=" ">
<polygon fill="none" stroke="black" points="1520.5,-112.5 1520.5,-142.5 1641.5,-142.5 1641.5,-112.5 1520.5,-112.5"/>
<text text-anchor="start" x="1528.5" y="-130.5" font-family="Helvetica,sans-Serif" font-size="10.00">src/gui/screen_game</text>
<text text-anchor="middle" x="1581" y="-119.5" font-family="Helvetica,sans-Serif" font-size="10.00">/gui_advantage_bar.h</text>
</a>
</g>
</g>
<!-- Node2&#45;&gt;Node24 -->
<g id="edge29" class="edge">
<title>Node2&#45;&gt;Node24</title>
<path fill="none" stroke="midnightblue" d="M772.62,-180.06C775.45,-179.67 778.26,-179.31 781,-179 816.89,-174.89 1321.05,-144.21 1510.09,-132.78"/>
<polygon fill="midnightblue" stroke="midnightblue" points="1510.43,-136.26 1520.2,-132.17 1510.01,-129.28 1510.43,-136.26"/>
</g>
<!-- Node27 -->
<g id="node27" class="node">
<title>Node27</title>
<g id="a_node27"><a xlink:href="gui__figure_8h.html" target="_top" xlink:title=" ">
<polygon fill="none" stroke="black" points="815.5,-112.5 815.5,-142.5 932.5,-142.5 932.5,-112.5 815.5,-112.5"/>
<text text-anchor="start" x="823.5" y="-130.5" font-family="Helvetica,sans-Serif" font-size="10.00">src/gui/screen_game</text>
<text text-anchor="middle" x="874" y="-119.5" font-family="Helvetica,sans-Serif" font-size="10.00">/gui_figure.h</text>
</a>
</g>
</g>
<!-- Node2&#45;&gt;Node27 -->
<g id="edge33" class="edge">
<title>Node2&#45;&gt;Node27</title>
<path fill="none" stroke="midnightblue" d="M748.06,-179.48C769.37,-170.85 802.94,-157.26 830.06,-146.29"/>
<polygon fill="midnightblue" stroke="midnightblue" points="831.4,-149.52 839.36,-142.52 828.77,-143.03 831.4,-149.52"/>
</g>
<!-- Node12 -->
<g id="node12" class="node">
<title>Node12</title>
<g id="a_node12"><a xlink:title=" ">
<polygon fill="none" stroke="#bfbfbf" points="933.5,-0.5 933.5,-19.5 988.5,-19.5 988.5,-0.5 933.5,-0.5"/>
<text text-anchor="middle" x="961" y="-7.5" font-family="Helvetica,sans-Serif" font-size="10.00">QVector</text>
</a>
</g>
</g>
<!-- Node11&#45;&gt;Node12 -->
<g id="edge11" class="edge">
<title>Node11&#45;&gt;Node12</title>
<path fill="none" stroke="midnightblue" d="M961,-56.08C961,-49.01 961,-38.86 961,-29.99"/>
<polygon fill="midnightblue" stroke="midnightblue" points="964.5,-29.75 961,-19.75 957.5,-29.75 964.5,-29.75"/>
</g>
<!-- Node14 -->
<g id="node14" class="node">
<title>Node14</title>
<g id="a_node14"><a xlink:title=" ">
<polygon fill="none" stroke="#bfbfbf" points="1390,-56.5 1390,-75.5 1488,-75.5 1488,-56.5 1390,-56.5"/>
<text text-anchor="middle" x="1439" y="-63.5" font-family="Helvetica,sans-Serif" font-size="10.00">QGraphicsObject</text>
</a>
</g>
</g>
<!-- Node13&#45;&gt;Node14 -->
<g id="edge13" class="edge">
<title>Node13&#45;&gt;Node14</title>
<path fill="none" stroke="midnightblue" d="M1311.58,-112.4C1340.1,-102.24 1378.17,-88.67 1405.26,-79.02"/>
<polygon fill="midnightblue" stroke="midnightblue" points="1406.45,-82.31 1414.7,-75.66 1404.11,-75.72 1406.45,-82.31"/>
</g>
<!-- Node15 -->
<g id="node15" class="node">
<title>Node15</title>
<g id="a_node15"><a xlink:title=" ">
<polygon fill="none" stroke="#bfbfbf" points="600,-56.5 600,-75.5 724,-75.5 724,-56.5 600,-56.5"/>
<text text-anchor="middle" x="662" y="-63.5" font-family="Helvetica,sans-Serif" font-size="10.00">QGraphicsSceneEvent</text>
</a>
</g>
</g>
<!-- Node13&#45;&gt;Node15 -->
<g id="edge14" class="edge">
<title>Node13&#45;&gt;Node15</title>
<path fill="none" stroke="midnightblue" d="M1214.35,-113.5C1211.19,-112.95 1208.06,-112.45 1205,-112 1000.06,-82.15 944.05,-96.76 734.42,-76.09"/>
<polygon fill="midnightblue" stroke="midnightblue" points="734.62,-72.59 724.32,-75.08 733.92,-79.56 734.62,-72.59"/>
</g>
<!-- Node16 -->
<g id="node16" class="node">
<title>Node16</title>
<g id="a_node16"><a xlink:title=" ">
<polygon fill="none" stroke="#bfbfbf" points="1506,-56.5 1506,-75.5 1564,-75.5 1564,-56.5 1506,-56.5"/>
<text text-anchor="middle" x="1535" y="-63.5" font-family="Helvetica,sans-Serif" font-size="10.00">QPainter</text>
</a>
</g>
</g>
<!-- Node13&#45;&gt;Node16 -->
<g id="edge15" class="edge">
<title>Node13&#45;&gt;Node16</title>
<path fill="none" stroke="midnightblue" d="M1329.85,-113.71C1373.01,-104.13 1433.7,-90.55 1495.96,-76.22"/>
<polygon fill="midnightblue" stroke="midnightblue" points="1497,-79.57 1505.96,-73.91 1495.43,-72.75 1497,-79.57"/>
</g>
<!-- Node17 -->
<g id="node17" class="node">
<title>Node17</title>
<g id="a_node17"><a xlink:href="utils_8h.html" target="_top" xlink:title=" ">
<polygon fill="none" stroke="black" points="1024,-56.5 1024,-75.5 1088,-75.5 1088,-56.5 1024,-56.5"/>
<text text-anchor="middle" x="1056" y="-63.5" font-family="Helvetica,sans-Serif" font-size="10.00">src/utils.h</text>
</a>
</g>
</g>
<!-- Node13&#45;&gt;Node17 -->
<g id="edge16" class="edge">
<title>Node13&#45;&gt;Node17</title>
<path fill="none" stroke="midnightblue" d="M1221.08,-112.47C1183.17,-102.03 1132.08,-87.96 1096.83,-78.25"/>
<polygon fill="midnightblue" stroke="midnightblue" points="1097.45,-74.79 1086.88,-75.51 1095.59,-81.54 1097.45,-74.79"/>
</g>
<!-- Node18 -->
<g id="node18" class="node">
<title>Node18</title>
<g id="a_node18"><a xlink:title=" ">
<polygon fill="none" stroke="#bfbfbf" points="1033.5,-0.5 1033.5,-19.5 1078.5,-19.5 1078.5,-0.5 1033.5,-0.5"/>
<text text-anchor="middle" x="1056" y="-7.5" font-family="Helvetica,sans-Serif" font-size="10.00">utility</text>
</a>
</g>
</g>
<!-- Node17&#45;&gt;Node18 -->
<g id="edge17" class="edge">
<title>Node17&#45;&gt;Node18</title>
<path fill="none" stroke="midnightblue" d="M1056,-56.08C1056,-49.01 1056,-38.86 1056,-29.99"/>
<polygon fill="midnightblue" stroke="midnightblue" points="1059.5,-29.75 1056,-19.75 1052.5,-29.75 1059.5,-29.75"/>
</g>
<!-- Node19&#45;&gt;Node6 -->
<g id="edge19" class="edge">
<title>Node19&#45;&gt;Node6</title>
<path fill="none" stroke="midnightblue" d="M1141.03,-112.4C1143.35,-104.29 1146.28,-94.01 1148.78,-85.28"/>
<polygon fill="midnightblue" stroke="midnightblue" points="1152.14,-86.23 1151.53,-75.66 1145.41,-84.31 1152.14,-86.23"/>
</g>
<!-- Node19&#45;&gt;Node17 -->
<g id="edge22" class="edge">
<title>Node19&#45;&gt;Node17</title>
<path fill="none" stroke="midnightblue" d="M1117.8,-112.4C1105.18,-103.13 1088.71,-91.03 1075.94,-81.65"/>
<polygon fill="midnightblue" stroke="midnightblue" points="1077.92,-78.76 1067.79,-75.66 1073.77,-84.4 1077.92,-78.76"/>
</g>
<!-- Node20 -->
<g id="node20" class="node">
<title>Node20</title>
<g id="a_node20"><a xlink:title=" ">
<polygon fill="none" stroke="#bfbfbf" points="1288,-56.5 1288,-75.5 1372,-75.5 1372,-56.5 1288,-56.5"/>
<text text-anchor="middle" x="1330" y="-63.5" font-family="Helvetica,sans-Serif" font-size="10.00">QMouseEvent</text>
</a>
</g>
</g>
<!-- Node19&#45;&gt;Node20 -->
<g id="edge20" class="edge">
<title>Node19&#45;&gt;Node20</title>
<path fill="none" stroke="midnightblue" d="M1182.74,-112.4C1216.23,-102.07 1261.13,-88.23 1292.52,-78.56"/>
<polygon fill="midnightblue" stroke="midnightblue" points="1293.67,-81.86 1302.2,-75.57 1291.61,-75.17 1293.67,-81.86"/>
</g>
<!-- Node21 -->
<g id="node21" class="node">
<title>Node21</title>
<g id="a_node21"><a xlink:title=" ">
<polygon fill="none" stroke="#bfbfbf" points="1220.5,-56.5 1220.5,-75.5 1269.5,-75.5 1269.5,-56.5 1220.5,-56.5"/>
<text text-anchor="middle" x="1245" y="-63.5" font-family="Helvetica,sans-Serif" font-size="10.00">QPoint</text>
</a>
</g>
</g>
<!-- Node19&#45;&gt;Node21 -->
<g id="edge21" class="edge">
<title>Node19&#45;&gt;Node21</title>
<path fill="none" stroke="midnightblue" d="M1162.59,-112.4C1180.07,-102.77 1203.09,-90.09 1220.36,-80.58"/>
<polygon fill="midnightblue" stroke="midnightblue" points="1222.22,-83.55 1229.29,-75.66 1218.84,-77.42 1222.22,-83.55"/>
</g>
<!-- Node22&#45;&gt;Node7 -->
<g id="edge25" class="edge">
<title>Node22&#45;&gt;Node7</title>
<path fill="none" stroke="midnightblue" d="M543.03,-112.4C516.62,-102.33 481.44,-88.91 456.19,-79.28"/>
<polygon fill="midnightblue" stroke="midnightblue" points="457.29,-75.95 446.7,-75.66 454.8,-82.49 457.29,-75.95"/>
</g>
<!-- Node22&#45;&gt;Node8 -->
<g id="edge26" class="edge">
<title>Node22&#45;&gt;Node8</title>
<path fill="none" stroke="midnightblue" d="M526.36,-114.53C484.22,-105.03 423.81,-91.22 362.57,-76.34"/>
<polygon fill="midnightblue" stroke="midnightblue" points="363.28,-72.91 352.74,-73.95 361.62,-79.72 363.28,-72.91"/>
</g>
<!-- Node22&#45;&gt;Node15 -->
<g id="edge24" class="edge">
<title>Node22&#45;&gt;Node15</title>
<path fill="none" stroke="midnightblue" d="M599.43,-112.4C612.21,-103.13 628.89,-91.03 641.81,-81.65"/>
<polygon fill="midnightblue" stroke="midnightblue" points="644.03,-84.36 650.07,-75.66 639.92,-78.7 644.03,-84.36"/>
</g>
<!-- Node22&#45;&gt;Node17 -->
<g id="edge28" class="edge">
<title>Node22&#45;&gt;Node17</title>
<path fill="none" stroke="midnightblue" d="M633.68,-113.48C636.49,-112.95 639.27,-112.45 642,-112 803.13,-85.5 848.71,-101.26 1013.83,-76"/>
<polygon fill="midnightblue" stroke="midnightblue" points="1014.5,-79.44 1023.84,-74.44 1013.42,-72.52 1014.5,-79.44"/>
</g>
<!-- Node23 -->
<g id="node23" class="node">
<title>Node23</title>
<g id="a_node23"><a xlink:title=" ">
<polygon fill="none" stroke="#bfbfbf" points="496,-56.5 496,-75.5 582,-75.5 582,-56.5 496,-56.5"/>
<text text-anchor="middle" x="539" y="-63.5" font-family="Helvetica,sans-Serif" font-size="10.00">QSvgRenderer</text>
</a>
</g>
</g>
<!-- Node22&#45;&gt;Node23 -->
<g id="edge27" class="edge">
<title>Node22&#45;&gt;Node23</title>
<path fill="none" stroke="midnightblue" d="M570.28,-112.4C564.45,-103.93 556.98,-93.1 550.81,-84.14"/>
<polygon fill="midnightblue" stroke="midnightblue" points="553.52,-81.91 544.97,-75.66 547.76,-85.88 553.52,-81.91"/>
</g>
<!-- Node24&#45;&gt;Node16 -->
<g id="edge31" class="edge">
<title>Node24&#45;&gt;Node16</title>
<path fill="none" stroke="midnightblue" d="M1570.1,-112.4C1563.41,-103.75 1554.82,-92.64 1547.82,-83.58"/>
<polygon fill="midnightblue" stroke="midnightblue" points="1550.58,-81.43 1541.69,-75.66 1545.04,-85.71 1550.58,-81.43"/>
</g>
<!-- Node25 -->
<g id="node25" class="node">
<title>Node25</title>
<g id="a_node25"><a xlink:title=" ">
<polygon fill="none" stroke="#bfbfbf" points="1582.5,-56.5 1582.5,-75.5 1671.5,-75.5 1671.5,-56.5 1582.5,-56.5"/>
<text text-anchor="middle" x="1627" y="-63.5" font-family="Helvetica,sans-Serif" font-size="10.00">QGraphicsItem</text>
</a>
</g>
</g>
<!-- Node24&#45;&gt;Node25 -->
<g id="edge30" class="edge">
<title>Node24&#45;&gt;Node25</title>
<path fill="none" stroke="midnightblue" d="M1591.9,-112.4C1598.59,-103.75 1607.18,-92.64 1614.18,-83.58"/>
<polygon fill="midnightblue" stroke="midnightblue" points="1616.96,-85.71 1620.31,-75.66 1611.42,-81.43 1616.96,-85.71"/>
</g>
<!-- Node26 -->
<g id="node26" class="node">
<title>Node26</title>
<g id="a_node26"><a xlink:title=" ">
<polygon fill="none" stroke="#bfbfbf" points="1689,-56.5 1689,-75.5 1731,-75.5 1731,-56.5 1689,-56.5"/>
<text text-anchor="middle" x="1710" y="-63.5" font-family="Helvetica,sans-Serif" font-size="10.00">QPen</text>
</a>
</g>
</g>
<!-- Node24&#45;&gt;Node26 -->
<g id="edge32" class="edge">
<title>Node24&#45;&gt;Node26</title>
<path fill="none" stroke="midnightblue" d="M1611.57,-112.4C1632.93,-102.55 1661.22,-89.5 1681.98,-79.92"/>
<polygon fill="midnightblue" stroke="midnightblue" points="1683.61,-83.02 1691.23,-75.66 1680.68,-76.67 1683.61,-83.02"/>
</g>
<!-- Node27&#45;&gt;Node7 -->
<g id="edge35" class="edge">
<title>Node27&#45;&gt;Node7</title>
<path fill="none" stroke="midnightblue" d="M815.46,-113.64C812.27,-113.05 809.1,-112.5 806,-112 668.34,-89.61 630.22,-93.88 487.6,-76.03"/>
<polygon fill="midnightblue" stroke="midnightblue" points="487.96,-72.55 477.6,-74.77 487.08,-79.5 487.96,-72.55"/>
</g>
<!-- Node27&#45;&gt;Node11 -->
<g id="edge37" class="edge">
<title>Node27&#45;&gt;Node11</title>
<path fill="none" stroke="midnightblue" d="M894.62,-112.4C908.3,-103.04 926.21,-90.79 939.98,-81.38"/>
<polygon fill="midnightblue" stroke="midnightblue" points="942.06,-84.19 948.34,-75.66 938.11,-78.41 942.06,-84.19"/>
</g>
<!-- Node27&#45;&gt;Node17 -->
<g id="edge38" class="edge">
<title>Node27&#45;&gt;Node17</title>
<path fill="none" stroke="midnightblue" d="M917.13,-112.4C948.58,-102.12 990.69,-88.35 1020.27,-78.68"/>
<polygon fill="midnightblue" stroke="midnightblue" points="1021.37,-82.01 1029.78,-75.57 1019.19,-75.35 1021.37,-82.01"/>
</g>
<!-- Node27&#45;&gt;Node23 -->
<g id="edge36" class="edge">
<title>Node27&#45;&gt;Node23</title>
<path fill="none" stroke="midnightblue" d="M815.43,-113.84C812.24,-113.2 809.08,-112.59 806,-112 713.98,-94.49 688.2,-92.39 592.27,-76.2"/>
<polygon fill="midnightblue" stroke="midnightblue" points="592.57,-72.7 582.13,-74.48 591.4,-79.61 592.57,-72.7"/>
</g>
<!-- Node28 -->
<g id="node28" class="node">
<title>Node28</title>
<g id="a_node28"><a xlink:title=" ">
<polygon fill="none" stroke="#bfbfbf" points="742,-56.5 742,-75.5 898,-75.5 898,-56.5 742,-56.5"/>
<text text-anchor="middle" x="820" y="-63.5" font-family="Helvetica,sans-Serif" font-size="10.00">QGraphicsSceneMouseEvent</text>
</a>
</g>
</g>
<!-- Node27&#45;&gt;Node28 -->
<g id="edge34" class="edge">
<title>Node27&#45;&gt;Node28</title>
<path fill="none" stroke="midnightblue" d="M861.2,-112.4C853.28,-103.66 843.06,-92.41 834.79,-83.3"/>
<polygon fill="midnightblue" stroke="midnightblue" points="837.17,-80.71 827.86,-75.66 831.99,-85.42 837.17,-80.71"/>
</g>
</g>
</svg>
        <g id="navigator" transform="translate(0 0)" fill="#404254">
                <rect fill="#f2f5e9" fill-opacity="0.5" stroke="#606060" stroke-width=".5" x="0" y="0" width="60" height="60"/>
                <use id="zoomplus" xlink:href="#zoomPlus" x="17" y="9" onmousedown="handleZoom(evt,'in')"/>
                <use id="zoomminus" xlink:href="#zoomMin" x="42" y="9" onmousedown="handleZoom(evt,'out')"/>
                <use id="reset" xlink:href="#resetDef" x="30" y="36" onmousedown="handleReset()"/>
                <g id="arrowUp" xlink:href="#dirArrow" transform="translate(30 24)" onmousedown="handlePan(0,-1)">
                  <use xlink:href="#rim" fill="#404040">
                        <set attributeName="fill" to="#808080" begin="arrowUp.mouseover" end="arrowUp.mouseout"/>
                  </use>
                  <path fill="none" stroke="white" stroke-width="1.5" d="M0,-3.0v7 M-2.5,-0.5L0,-3.0L2.5,-0.5"/>
                </g>
                <g id="arrowRight" xlink:href="#dirArrow" transform="rotate(90) translate(36 -43)" onmousedown="handlePan(1,0)">
                  <use xlink:href="#rim" fill="#404040">
                        <set attributeName="fill" to="#808080" begin="arrowRight.mouseover" end="arrowRight.mouseout"/>
                  </use>
                  <path fill="none" stroke="white" stroke-width="1.5" d="M0,-3.0v7 M-2.5,-0.5L0,-3.0L2.5,-0.5"/>
                </g>
                <g id="arrowDown" xlink:href="#dirArrow" transform="rotate(180) translate(-30 -48)" onmousedown="handlePan(0,1)">
                  <use xlink:href="#rim" fill="#404040">
                        <set attributeName="fill" to="#808080" begin="arrowDown.mouseover" end="arrowDown.mouseout"/>
                  </use>
                  <path fill="none" stroke="white" stroke-width="1.5" d="M0,-3.0v7 M-2.5,-0.5L0,-3.0L2.5,-0.5"/>
                </g>
                <g id="arrowLeft" xlink:href="#dirArrow" transform="rotate(270) translate(-36 17)" onmousedown="handlePan(-1,0)">
                  <use xlink:href="#rim" fill="#404040">
                        <set attributeName="fill" to="#808080" begin="arrowLeft.mouseover" end="arrowLeft.mouseout"/>
                  </use>
                  <path fill="none" stroke="white" stroke-width="1.5" d="M0,-3.0v7 M-2.5,-0.5L0,-3.0L2.5,-0.5"/>
                </g>
        </g>
        <svg viewBox="0 0 15 15" width="100%" height="30px" preserveAspectRatio="xMaxYMin meet">
         <g id="arrow_out" transform="scale(0.3 0.3)">
          <a xlink:href="screen__game_8cpp__incl_org.svg" target="_base">
           <rect id="button" ry="5" rx="5" y="6" x="6" height="38" width="38"
                fill="#f2f5e9" fill-opacity="0.5" stroke="#606060" stroke-width="1.0"/>
           <path id="arrow"
             d="M 11.500037,31.436501 C 11.940474,20.09759 22.043105,11.32322 32.158766,21.979434 L 37.068811,17.246167 C 37.068811,17.246167 37.088388,32 37.088388,32 L 22.160133,31.978069 C 22.160133,31.978069 26.997745,27.140456 26.997745,27.140456 C 18.528582,18.264221 13.291696,25.230495 11.500037,31.436501 z"
             style="fill:#404040;"/>
          </a>
         </g>
        </svg>
</svg>
