<?xml version="1.0" encoding="UTF-8" standalone="no"?>
<!DOCTYPE svg PUBLIC "-//W3C//DTD SVG 1.1//EN"
 "http://www.w3.org/Graphics/SVG/1.1/DTD/svg11.dtd">
<!-- Generated by graphviz version 2.43.0 (0)
 -->
<!-- Title: src/gui/screen_liderboard/screen_liderboard.h Pages: 1 -->
<svg width="176pt" height="151pt"
 viewBox="0.00 0.00 175.50 151.00" xmlns="http://www.w3.org/2000/svg" xmlns:xlink="http://www.w3.org/1999/xlink">
<g id="graph0" class="graph" transform="scale(1 1) rotate(0) translate(4 147)">
<title>src/gui/screen_liderboard/screen_liderboard.h</title>
<!-- Node1 -->
<g id="node1" class="node">
<title>Node1</title>
<g id="a_node1"><a xlink:title=" ">
<polygon fill="#bfbfbf" stroke="black" points="6,-112.5 6,-142.5 145,-142.5 145,-112.5 6,-112.5"/>
<text text-anchor="start" x="14" y="-130.5" font-family="Helvetica,sans-Serif" font-size="10.00">src/gui/screen_liderboard</text>
<text text-anchor="middle" x="75.5" y="-119.5" font-family="Helvetica,sans-Serif" font-size="10.00">/screen_liderboard.h</text>
</a>
</g>
</g>
<!-- Node2 -->
<g id="node2" class="node">
<title>Node2</title>
<g id="a_node2"><a xlink:title=" ">
<polygon fill="none" stroke="#bfbfbf" points="0,-56.5 0,-75.5 59,-75.5 59,-56.5 0,-56.5"/>
<text text-anchor="middle" x="29.5" y="-63.5" font-family="Helvetica,sans-Serif" font-size="10.00">QWidget</text>
</a>
</g>
</g>
<!-- Node1&#45;&gt;Node2 -->
<g id="edge1" class="edge">
<title>Node1&#45;&gt;Node2</title>
<path fill="none" stroke="midnightblue" d="M64.6,-112.4C57.91,-103.75 49.32,-92.64 42.32,-83.58"/>
<polygon fill="midnightblue" stroke="midnightblue" points="45.08,-81.43 36.19,-75.66 39.54,-85.71 45.08,-81.43"/>
</g>
<!-- Node3 -->
<g id="node3" class="node">
<title>Node3</title>
<g id="a_node3"><a xlink:href="constants_8h.html" target="_top" xlink:title=" ">
<polygon fill="none" stroke="black" points="77.5,-56.5 77.5,-75.5 167.5,-75.5 167.5,-56.5 77.5,-56.5"/>
<text text-anchor="middle" x="122.5" y="-63.5" font-family="Helvetica,sans-Serif" font-size="10.00">src/constants.h</text>
</a>
</g>
</g>
<!-- Node1&#45;&gt;Node3 -->
<g id="edge2" class="edge">
<title>Node1&#45;&gt;Node3</title>
<path fill="none" stroke="midnightblue" d="M86.64,-112.4C93.47,-103.75 102.24,-92.64 109.41,-83.58"/>
<polygon fill="midnightblue" stroke="midnightblue" points="112.21,-85.67 115.66,-75.66 106.72,-81.34 112.21,-85.67"/>
</g>
<!-- Node4 -->
<g id="node4" class="node">
<title>Node4</title>
<g id="a_node4"><a xlink:title=" ">
<polygon fill="none" stroke="#bfbfbf" points="95,-0.5 95,-19.5 150,-19.5 150,-0.5 95,-0.5"/>
<text text-anchor="middle" x="122.5" y="-7.5" font-family="Helvetica,sans-Serif" font-size="10.00">QVector</text>
</a>
</g>
</g>
<!-- Node3&#45;&gt;Node4 -->
<g id="edge3" class="edge">
<title>Node3&#45;&gt;Node4</title>
<path fill="none" stroke="midnightblue" d="M122.5,-56.08C122.5,-49.01 122.5,-38.86 122.5,-29.99"/>
<polygon fill="midnightblue" stroke="midnightblue" points="126,-29.75 122.5,-19.75 119,-29.75 126,-29.75"/>
</g>
</g>
</svg>
