<?xml version="1.0" encoding="UTF-8" standalone="no"?>
<!DOCTYPE svg PUBLIC "-//W3C//DTD SVG 1.1//EN"
 "http://www.w3.org/Graphics/SVG/1.1/DTD/svg11.dtd">
<!-- Generated by graphviz version 2.50.0 (0)
 -->
<!-- Title: src/gui/screen_game/screen_game.cpp Pages: 1 -->
<svg width="437pt" height="218pt"
 viewBox="0.00 0.00 436.50 218.00" xmlns="http://www.w3.org/2000/svg" xmlns:xlink="http://www.w3.org/1999/xlink">
<g id="graph0" class="graph" transform="scale(1 1) rotate(0) translate(4 214)">
<title>src/gui/screen_game/screen_game.cpp</title>
<!-- Node1 -->
<g id="node1" class="node">
<title>Node1</title>
<g id="a_node1"><a xlink:title=" ">
<polygon fill="#bfbfbf" stroke="black" points="263,-179.5 263,-209.5 370,-209.5 370,-179.5 263,-179.5"/>
<text text-anchor="start" x="271" y="-197.5" font-family="Helvetica,sans-Serif" font-size="10.00">src/gui/screen_game</text>
<text text-anchor="middle" x="316.5" y="-186.5" font-family="Helvetica,sans-Serif" font-size="10.00">/screen_game.cpp</text>
</a>
</g>
</g>
<!-- Node2 -->
<g id="node2" class="node">
<title>Node2</title>
<g id="a_node2"><a xlink:href="screen__game_8h.html" target="_top" xlink:title=" ">
<polygon fill="none" stroke="black" points="221,-123.5 221,-142.5 304,-142.5 304,-123.5 221,-123.5"/>
<text text-anchor="middle" x="262.5" y="-130.5" font-family="Helvetica,sans-Serif" font-size="10.00">screen_game.h</text>
</a>
</g>
</g>
<!-- Node1&#45;&gt;Node2 -->
<g id="edge1" class="edge">
<title>Node1&#45;&gt;Node2</title>
<path fill="none" stroke="midnightblue" d="M303.7,-179.4C295.78,-170.66 285.56,-159.41 277.29,-150.3"/>
<polygon fill="midnightblue" stroke="midnightblue" points="279.67,-147.71 270.36,-142.66 274.49,-152.42 279.67,-147.71"/>
</g>
<!-- Node10 -->
<g id="node10" class="node">
<title>Node10</title>
<g id="a_node10"><a xlink:title=" ">
<polygon fill="none" stroke="#bfbfbf" points="322.5,-123.5 322.5,-142.5 418.5,-142.5 418.5,-123.5 322.5,-123.5"/>
<text text-anchor="middle" x="370.5" y="-130.5" font-family="Helvetica,sans-Serif" font-size="10.00">ui_screen_game.h</text>
</a>
</g>
</g>
<!-- Node1&#45;&gt;Node10 -->
<g id="edge9" class="edge">
<title>Node1&#45;&gt;Node10</title>
<path fill="none" stroke="midnightblue" d="M329.3,-179.4C337.22,-170.66 347.44,-159.41 355.71,-150.3"/>
<polygon fill="midnightblue" stroke="midnightblue" points="358.51,-152.42 362.64,-142.66 353.33,-147.71 358.51,-152.42"/>
</g>
<!-- Node3 -->
<g id="node3" class="node">
<title>Node3</title>
<g id="a_node3"><a xlink:href="scene__game_8h.html" target="_top" xlink:title=" ">
<polygon fill="none" stroke="black" points="74.5,-56.5 74.5,-86.5 184.5,-86.5 184.5,-56.5 74.5,-56.5"/>
<text text-anchor="start" x="82.5" y="-74.5" font-family="Helvetica,sans-Serif" font-size="10.00">../scene_game/scene</text>
<text text-anchor="middle" x="129.5" y="-63.5" font-family="Helvetica,sans-Serif" font-size="10.00">_game.h</text>
</a>
</g>
</g>
<!-- Node2&#45;&gt;Node3 -->
<g id="edge2" class="edge">
<title>Node2&#45;&gt;Node3</title>
<path fill="none" stroke="midnightblue" d="M243.44,-123.48C224.42,-114.96 194.59,-101.62 170.22,-90.72"/>
<polygon fill="midnightblue" stroke="midnightblue" points="171.4,-87.41 160.85,-86.52 168.54,-93.8 171.4,-87.41"/>
</g>
<!-- Node7 -->
<g id="node7" class="node">
<title>Node7</title>
<g id="a_node7"><a xlink:title=" ">
<polygon fill="none" stroke="#bfbfbf" points="202.5,-62 202.5,-81 252.5,-81 252.5,-62 202.5,-62"/>
<text text-anchor="middle" x="227.5" y="-69" font-family="Helvetica,sans-Serif" font-size="10.00">QString</text>
</a>
</g>
</g>
<!-- Node2&#45;&gt;Node7 -->
<g id="edge6" class="edge">
<title>Node2&#45;&gt;Node7</title>
<path fill="none" stroke="midnightblue" d="M257.49,-123.48C252.34,-114.73 244.19,-100.87 237.68,-89.81"/>
<polygon fill="midnightblue" stroke="midnightblue" points="240.59,-87.85 232.51,-81.01 234.56,-91.4 240.59,-87.85"/>
</g>
<!-- Node8 -->
<g id="node8" class="node">
<title>Node8</title>
<g id="a_node8"><a xlink:title=" ">
<polygon fill="none" stroke="#bfbfbf" points="271,-62 271,-81 326,-81 326,-62 271,-62"/>
<text text-anchor="middle" x="298.5" y="-69" font-family="Helvetica,sans-Serif" font-size="10.00">QWidget</text>
</a>
</g>
</g>
<!-- Node2&#45;&gt;Node8 -->
<g id="edge7" class="edge">
<title>Node2&#45;&gt;Node8</title>
<path fill="none" stroke="midnightblue" d="M267.66,-123.48C272.95,-114.73 281.34,-100.87 288.03,-89.81"/>
<polygon fill="midnightblue" stroke="midnightblue" points="291.17,-91.38 293.35,-81.01 285.18,-87.75 291.17,-91.38"/>
</g>
<!-- Node9 -->
<g id="node9" class="node">
<title>Node9</title>
<g id="a_node9"><a xlink:href="constants_8h.html" target="_top" xlink:title=" ">
<polygon fill="none" stroke="black" points="344.5,-62 344.5,-81 428.5,-81 428.5,-62 344.5,-62"/>
<text text-anchor="middle" x="386.5" y="-69" font-family="Helvetica,sans-Serif" font-size="10.00">src/constants.h</text>
</a>
</g>
</g>
<!-- Node2&#45;&gt;Node9 -->
<g id="edge8" class="edge">
<title>Node2&#45;&gt;Node9</title>
<path fill="none" stroke="midnightblue" d="M280.27,-123.48C300.98,-113.53 335.45,-96.99 359.49,-85.46"/>
<polygon fill="midnightblue" stroke="midnightblue" points="361.27,-88.49 368.77,-81.01 358.24,-82.18 361.27,-88.49"/>
</g>
<!-- Node4 -->
<g id="node4" class="node">
<title>Node4</title>
<g id="a_node4"><a xlink:title=" ">
<polygon fill="none" stroke="#bfbfbf" points="0,-0.5 0,-19.5 91,-19.5 91,-0.5 0,-0.5"/>
<text text-anchor="middle" x="45.5" y="-7.5" font-family="Helvetica,sans-Serif" font-size="10.00">QGraphicsScene</text>
</a>
</g>
</g>
<!-- Node3&#45;&gt;Node4 -->
<g id="edge3" class="edge">
<title>Node3&#45;&gt;Node4</title>
<path fill="none" stroke="midnightblue" d="M109.59,-56.4C96.51,-47.13 79.42,-35.03 66.18,-25.65"/>
<polygon fill="midnightblue" stroke="midnightblue" points="67.91,-22.58 57.72,-19.66 63.86,-28.29 67.91,-22.58"/>
</g>
<!-- Node5 -->
<g id="node5" class="node">
<title>Node5</title>
<g id="a_node5"><a xlink:title=" ">
<polygon fill="none" stroke="#bfbfbf" points="109.5,-0.5 109.5,-19.5 149.5,-19.5 149.5,-0.5 109.5,-0.5"/>
<text text-anchor="middle" x="129.5" y="-7.5" font-family="Helvetica,sans-Serif" font-size="10.00">QList</text>
</a>
</g>
</g>
<!-- Node3&#45;&gt;Node5 -->
<g id="edge4" class="edge">
<title>Node3&#45;&gt;Node5</title>
<path fill="none" stroke="midnightblue" d="M129.5,-56.4C129.5,-48.47 129.5,-38.46 129.5,-29.86"/>
<polygon fill="midnightblue" stroke="midnightblue" points="133,-29.66 129.5,-19.66 126,-29.66 133,-29.66"/>
</g>
<!-- Node6 -->
<g id="node6" class="node">
<title>Node6</title>
<g id="a_node6"><a xlink:title=" ">
<polygon fill="none" stroke="#bfbfbf" points="167.5,-0.5 167.5,-19.5 219.5,-19.5 219.5,-0.5 167.5,-0.5"/>
<text text-anchor="middle" x="193.5" y="-7.5" font-family="Helvetica,sans-Serif" font-size="10.00">QVector</text>
</a>
</g>
</g>
<!-- Node3&#45;&gt;Node6 -->
<g id="edge5" class="edge">
<title>Node3&#45;&gt;Node6</title>
<path fill="none" stroke="midnightblue" d="M144.67,-56.4C154.25,-47.49 166.66,-35.95 176.57,-26.74"/>
<polygon fill="midnightblue" stroke="midnightblue" points="179.25,-29.03 184.19,-19.66 174.48,-23.9 179.25,-29.03"/>
</g>
</g>
</svg>
