<?xml version="1.0" encoding="UTF-8" standalone="no"?>
<!DOCTYPE svg PUBLIC "-//W3C//DTD SVG 1.1//EN"
 "http://www.w3.org/Graphics/SVG/1.1/DTD/svg11.dtd">
<!-- Generated by graphviz version 2.43.0 (0)
 -->
<!-- Title: src/gui/screen_settings/screen_settings.cpp Pages: 1 -->
<svg width="269pt" height="207pt"
 viewBox="0.00 0.00 268.50 207.00" xmlns="http://www.w3.org/2000/svg" xmlns:xlink="http://www.w3.org/1999/xlink">
<g id="graph0" class="graph" transform="scale(1 1) rotate(0) translate(4 203)">
<title>src/gui/screen_settings/screen_settings.cpp</title>
<!-- Node1 -->
<g id="node1" class="node">
<title>Node1</title>
<g id="a_node1"><a xlink:title=" ">
<polygon fill="#bfbfbf" stroke="black" points="74.5,-168.5 74.5,-198.5 202.5,-198.5 202.5,-168.5 74.5,-168.5"/>
<text text-anchor="start" x="82.5" y="-186.5" font-family="Helvetica,sans-Serif" font-size="10.00">src/gui/screen_settings</text>
<text text-anchor="middle" x="138.5" y="-175.5" font-family="Helvetica,sans-Serif" font-size="10.00">/screen_settings.cpp</text>
</a>
</g>
</g>
<!-- Node2 -->
<g id="node2" class="node">
<title>Node2</title>
<g id="a_node2"><a xlink:href="screen__settings_8h.html" target="_top" xlink:title=" ">
<polygon fill="none" stroke="black" points="24.5,-112.5 24.5,-131.5 126.5,-131.5 126.5,-112.5 24.5,-112.5"/>
<text text-anchor="middle" x="75.5" y="-119.5" font-family="Helvetica,sans-Serif" font-size="10.00">screen_settings.h</text>
</a>
</g>
</g>
<!-- Node1&#45;&gt;Node2 -->
<g id="edge1" class="edge">
<title>Node1&#45;&gt;Node2</title>
<path fill="none" stroke="midnightblue" d="M123.57,-168.4C114.13,-159.49 101.92,-147.95 92.17,-138.74"/>
<polygon fill="midnightblue" stroke="midnightblue" points="94.34,-135.98 84.67,-131.66 89.53,-141.07 94.34,-135.98"/>
</g>
<!-- Node6 -->
<g id="node6" class="node">
<title>Node6</title>
<g id="a_node6"><a xlink:title=" ">
<polygon fill="none" stroke="#bfbfbf" points="144.5,-112.5 144.5,-131.5 260.5,-131.5 260.5,-112.5 144.5,-112.5"/>
<text text-anchor="middle" x="202.5" y="-119.5" font-family="Helvetica,sans-Serif" font-size="10.00">ui_screen_settings.h</text>
</a>
</g>
</g>
<!-- Node1&#45;&gt;Node6 -->
<g id="edge5" class="edge">
<title>Node1&#45;&gt;Node6</title>
<path fill="none" stroke="midnightblue" d="M153.67,-168.4C163.25,-159.49 175.66,-147.95 185.57,-138.74"/>
<polygon fill="midnightblue" stroke="midnightblue" points="188.25,-141.03 193.19,-131.66 183.48,-135.9 188.25,-141.03"/>
</g>
<!-- Node3 -->
<g id="node3" class="node">
<title>Node3</title>
<g id="a_node3"><a xlink:title=" ">
<polygon fill="none" stroke="#bfbfbf" points="0,-56.5 0,-75.5 59,-75.5 59,-56.5 0,-56.5"/>
<text text-anchor="middle" x="29.5" y="-63.5" font-family="Helvetica,sans-Serif" font-size="10.00">QWidget</text>
</a>
</g>
</g>
<!-- Node2&#45;&gt;Node3 -->
<g id="edge2" class="edge">
<title>Node2&#45;&gt;Node3</title>
<path fill="none" stroke="midnightblue" d="M67.9,-112.08C61.27,-104.3 51.48,-92.8 43.44,-83.37"/>
<polygon fill="midnightblue" stroke="midnightblue" points="46.1,-81.09 36.95,-75.75 40.77,-85.63 46.1,-81.09"/>
</g>
<!-- Node4 -->
<g id="node4" class="node">
<title>Node4</title>
<g id="a_node4"><a xlink:href="constants_8h.html" target="_top" xlink:title=" ">
<polygon fill="none" stroke="black" points="77.5,-56.5 77.5,-75.5 167.5,-75.5 167.5,-56.5 77.5,-56.5"/>
<text text-anchor="middle" x="122.5" y="-63.5" font-family="Helvetica,sans-Serif" font-size="10.00">src/constants.h</text>
</a>
</g>
</g>
<!-- Node2&#45;&gt;Node4 -->
<g id="edge3" class="edge">
<title>Node2&#45;&gt;Node4</title>
<path fill="none" stroke="midnightblue" d="M83.26,-112.08C90.04,-104.3 100.04,-92.8 108.26,-83.37"/>
<polygon fill="midnightblue" stroke="midnightblue" points="110.96,-85.59 114.88,-75.75 105.68,-81 110.96,-85.59"/>
</g>
<!-- Node5 -->
<g id="node5" class="node">
<title>Node5</title>
<g id="a_node5"><a xlink:title=" ">
<polygon fill="none" stroke="#bfbfbf" points="95,-0.5 95,-19.5 150,-19.5 150,-0.5 95,-0.5"/>
<text text-anchor="middle" x="122.5" y="-7.5" font-family="Helvetica,sans-Serif" font-size="10.00">QVector</text>
</a>
</g>
</g>
<!-- Node4&#45;&gt;Node5 -->
<g id="edge4" class="edge">
<title>Node4&#45;&gt;Node5</title>
<path fill="none" stroke="midnightblue" d="M122.5,-56.08C122.5,-49.01 122.5,-38.86 122.5,-29.99"/>
<polygon fill="midnightblue" stroke="midnightblue" points="126,-29.75 122.5,-19.75 119,-29.75 126,-29.75"/>
</g>
</g>
</svg>
