<?xml version="1.0" encoding="UTF-8" standalone="no"?>
<!DOCTYPE svg PUBLIC "-//W3C//DTD SVG 1.1//EN"
 "http://www.w3.org/Graphics/SVG/1.1/DTD/svg11.dtd">
<!-- Generated by graphviz version 2.43.0 (0)
 -->
<!-- Title: src/gui/screen_game/screen_game.h Pages: 1 -->
<svg width="1343pt" height="218pt"
 viewBox="0.00 0.00 1343.00 218.00" xmlns="http://www.w3.org/2000/svg" xmlns:xlink="http://www.w3.org/1999/xlink">
<g id="graph0" class="graph" transform="scale(1 1) rotate(0) translate(4 214)">
<title>src/gui/screen_game/screen_game.h</title>
<!-- Node1 -->
<g id="node1" class="node">
<title>Node1</title>
<g id="a_node1"><a xlink:title=" ">
<polygon fill="#bfbfbf" stroke="black" points="620.5,-179.5 620.5,-209.5 737.5,-209.5 737.5,-179.5 620.5,-179.5"/>
<text text-anchor="start" x="628.5" y="-197.5" font-family="Helvetica,sans-Serif" font-size="10.00">src/gui/screen_game</text>
<text text-anchor="middle" x="679" y="-186.5" font-family="Helvetica,sans-Serif" font-size="10.00">/screen_game.h</text>
</a>
</g>
</g>
<!-- Node2 -->
<g id="node2" class="node">
<title>Node2</title>
<g id="a_node2"><a xlink:title=" ">
<polygon fill="none" stroke="#bfbfbf" points="0,-118 0,-137 134,-137 134,-118 0,-118"/>
<text text-anchor="middle" x="67" y="-125" font-family="Helvetica,sans-Serif" font-size="10.00">QGraphicsColorizeEffect</text>
</a>
</g>
</g>
<!-- Node1&#45;&gt;Node2 -->
<g id="edge1" class="edge">
<title>Node1&#45;&gt;Node2</title>
<path fill="none" stroke="midnightblue" d="M620.49,-189.81C521.73,-183.17 315.81,-167.57 143,-143 134.87,-141.84 126.29,-140.41 117.93,-138.9"/>
<polygon fill="midnightblue" stroke="midnightblue" points="118.37,-135.43 107.9,-137.04 117.09,-142.31 118.37,-135.43"/>
</g>
<!-- Node3 -->
<g id="node3" class="node">
<title>Node3</title>
<g id="a_node3"><a xlink:title=" ">
<polygon fill="none" stroke="#bfbfbf" points="152,-118 152,-137 274,-137 274,-118 152,-118"/>
<text text-anchor="middle" x="213" y="-125" font-family="Helvetica,sans-Serif" font-size="10.00">QGraphicsEllipseItem</text>
</a>
</g>
</g>
<!-- Node1&#45;&gt;Node3 -->
<g id="edge2" class="edge">
<title>Node1&#45;&gt;Node3</title>
<path fill="none" stroke="midnightblue" d="M620.42,-187.46C542.95,-179.15 402.29,-162.93 283,-143 276.09,-141.85 268.83,-140.5 261.7,-139.09"/>
<polygon fill="midnightblue" stroke="midnightblue" points="261.91,-135.56 251.41,-137.01 260.52,-142.42 261.91,-135.56"/>
</g>
<!-- Node4 -->
<g id="node4" class="node">
<title>Node4</title>
<g id="a_node4"><a xlink:title=" ">
<polygon fill="none" stroke="#bfbfbf" points="292,-118 292,-137 432,-137 432,-118 292,-118"/>
<text text-anchor="middle" x="362" y="-125" font-family="Helvetica,sans-Serif" font-size="10.00">QGraphicsItemAnimation</text>
</a>
</g>
</g>
<!-- Node1&#45;&gt;Node4 -->
<g id="edge3" class="edge">
<title>Node1&#45;&gt;Node4</title>
<path fill="none" stroke="midnightblue" d="M620.49,-181.5C561.08,-169.32 470.01,-150.65 413.33,-139.02"/>
<polygon fill="midnightblue" stroke="midnightblue" points="414,-135.59 403.5,-137.01 412.6,-142.45 414,-135.59"/>
</g>
<!-- Node5 -->
<g id="node5" class="node">
<title>Node5</title>
<g id="a_node5"><a xlink:title=" ">
<polygon fill="none" stroke="#bfbfbf" points="232,-56.5 232,-75.5 328,-75.5 328,-56.5 232,-56.5"/>
<text text-anchor="middle" x="280" y="-63.5" font-family="Helvetica,sans-Serif" font-size="10.00">QGraphicsScene</text>
</a>
</g>
</g>
<!-- Node1&#45;&gt;Node5 -->
<g id="edge4" class="edge">
<title>Node1&#45;&gt;Node5</title>
<path fill="none" stroke="midnightblue" d="M620.17,-185.58C579.01,-178.42 523.64,-165.44 479,-143 459.53,-133.21 460.35,-122.03 441,-112 408.8,-95.3 369.67,-84.18 338.05,-77.17"/>
<polygon fill="midnightblue" stroke="midnightblue" points="338.58,-73.71 328.07,-75.04 337.11,-80.55 338.58,-73.71"/>
</g>
<!-- Node6 -->
<g id="node6" class="node">
<title>Node6</title>
<g id="a_node6"><a xlink:title=" ">
<polygon fill="none" stroke="#bfbfbf" points="598.5,-56.5 598.5,-75.5 705.5,-75.5 705.5,-56.5 598.5,-56.5"/>
<text text-anchor="middle" x="652" y="-63.5" font-family="Helvetica,sans-Serif" font-size="10.00">QGraphicsSvgItem</text>
</a>
</g>
</g>
<!-- Node1&#45;&gt;Node6 -->
<g id="edge5" class="edge">
<title>Node1&#45;&gt;Node6</title>
<path fill="none" stroke="midnightblue" d="M670.45,-179.49C664.93,-169.67 658.2,-156.01 655,-143 650.32,-124 650.05,-101.52 650.66,-85.97"/>
<polygon fill="midnightblue" stroke="midnightblue" points="654.17,-85.77 651.23,-75.59 647.18,-85.38 654.17,-85.77"/>
</g>
<!-- Node7 -->
<g id="node7" class="node">
<title>Node7</title>
<g id="a_node7"><a xlink:title=" ">
<polygon fill="none" stroke="#bfbfbf" points="838.5,-118 838.5,-137 891.5,-137 891.5,-118 838.5,-118"/>
<text text-anchor="middle" x="865" y="-125" font-family="Helvetica,sans-Serif" font-size="10.00">QString</text>
</a>
</g>
</g>
<!-- Node1&#45;&gt;Node7 -->
<g id="edge6" class="edge">
<title>Node1&#45;&gt;Node7</title>
<path fill="none" stroke="midnightblue" d="M719.64,-179.4C748.72,-169.3 788.79,-155.36 824,-143 826.37,-142.17 828.81,-141.31 831.28,-140.44"/>
<polygon fill="midnightblue" stroke="midnightblue" points="832.46,-143.74 840.73,-137.11 830.13,-137.13 832.46,-143.74"/>
</g>
<!-- Node8 -->
<g id="node8" class="node">
<title>Node8</title>
<g id="a_node8"><a xlink:title=" ">
<polygon fill="none" stroke="#bfbfbf" points="909.5,-118 909.5,-137 978.5,-137 978.5,-118 909.5,-118"/>
<text text-anchor="middle" x="944" y="-125" font-family="Helvetica,sans-Serif" font-size="10.00">QTimeLine</text>
</a>
</g>
</g>
<!-- Node1&#45;&gt;Node8 -->
<g id="edge7" class="edge">
<title>Node1&#45;&gt;Node8</title>
<path fill="none" stroke="midnightblue" d="M737.54,-181.69C782.3,-172.28 845.4,-158.2 900,-143 903.18,-142.12 906.46,-141.14 909.75,-140.13"/>
<polygon fill="midnightblue" stroke="midnightblue" points="910.99,-143.41 919.46,-137.04 908.87,-136.74 910.99,-143.41"/>
</g>
<!-- Node9 -->
<g id="node9" class="node">
<title>Node9</title>
<g id="a_node9"><a xlink:title=" ">
<polygon fill="none" stroke="#bfbfbf" points="996.5,-118 996.5,-137 1055.5,-137 1055.5,-118 996.5,-118"/>
<text text-anchor="middle" x="1026" y="-125" font-family="Helvetica,sans-Serif" font-size="10.00">QWidget</text>
</a>
</g>
</g>
<!-- Node1&#45;&gt;Node9 -->
<g id="edge8" class="edge">
<title>Node1&#45;&gt;Node9</title>
<path fill="none" stroke="midnightblue" d="M737.61,-187.31C800.11,-179.92 901.63,-165.64 987,-143 989.81,-142.25 992.71,-141.38 995.59,-140.44"/>
<polygon fill="midnightblue" stroke="midnightblue" points="996.91,-143.69 1005.19,-137.08 994.6,-137.08 996.91,-143.69"/>
</g>
<!-- Node10 -->
<g id="node10" class="node">
<title>Node10</title>
<g id="a_node10"><a xlink:href="constants_8h.html" target="_top" xlink:title=" ">
<polygon fill="none" stroke="black" points="1002,-56.5 1002,-75.5 1092,-75.5 1092,-56.5 1002,-56.5"/>
<text text-anchor="middle" x="1047" y="-63.5" font-family="Helvetica,sans-Serif" font-size="10.00">src/constants.h</text>
</a>
</g>
</g>
<!-- Node1&#45;&gt;Node10 -->
<g id="edge9" class="edge">
<title>Node1&#45;&gt;Node10</title>
<path fill="none" stroke="midnightblue" d="M715.63,-179.49C737.83,-170.36 766.35,-157.48 790,-143 808.88,-131.44 808.94,-121.38 829,-112 843.64,-105.15 932.27,-88.03 991.92,-76.99"/>
<polygon fill="midnightblue" stroke="midnightblue" points="992.76,-80.4 1001.96,-75.14 991.49,-73.51 992.76,-80.4"/>
</g>
<!-- Node12 -->
<g id="node12" class="node">
<title>Node12</title>
<g id="a_node12"><a xlink:href="gui__scene_8h.html" target="_top" xlink:title=" ">
<polygon fill="none" stroke="black" points="488.5,-112.5 488.5,-142.5 607.5,-142.5 607.5,-112.5 488.5,-112.5"/>
<text text-anchor="start" x="496.5" y="-130.5" font-family="Helvetica,sans-Serif" font-size="10.00">src/gui/gui_scene/gui</text>
<text text-anchor="middle" x="548" y="-119.5" font-family="Helvetica,sans-Serif" font-size="10.00">_scene.h</text>
</a>
</g>
</g>
<!-- Node1&#45;&gt;Node12 -->
<g id="edge11" class="edge">
<title>Node1&#45;&gt;Node12</title>
<path fill="none" stroke="midnightblue" d="M650.57,-179.4C631.52,-169.94 606.22,-157.39 585.52,-147.12"/>
<polygon fill="midnightblue" stroke="midnightblue" points="586.88,-143.89 576.37,-142.58 583.77,-150.16 586.88,-143.89"/>
</g>
<!-- Node17 -->
<g id="node17" class="node">
<title>Node17</title>
<g id="a_node17"><a xlink:href="gui__advantage__bar_8h.html" target="_top" xlink:title=" ">
<polygon fill="none" stroke="black" points="1140.5,-112.5 1140.5,-142.5 1261.5,-142.5 1261.5,-112.5 1140.5,-112.5"/>
<text text-anchor="start" x="1148.5" y="-130.5" font-family="Helvetica,sans-Serif" font-size="10.00">src/gui/screen_game</text>
<text text-anchor="middle" x="1201" y="-119.5" font-family="Helvetica,sans-Serif" font-size="10.00">/gui_advantage_bar.h</text>
</a>
</g>
</g>
<!-- Node1&#45;&gt;Node17 -->
<g id="edge17" class="edge">
<title>Node1&#45;&gt;Node17</title>
<path fill="none" stroke="midnightblue" d="M737.61,-186.2C834.14,-174.18 1026.21,-150.27 1130.18,-137.32"/>
<polygon fill="midnightblue" stroke="midnightblue" points="1130.78,-140.77 1140.27,-136.06 1129.91,-133.82 1130.78,-140.77"/>
</g>
<!-- Node21 -->
<g id="node21" class="node">
<title>Node21</title>
<g id="a_node21"><a xlink:href="gui__figure_8h.html" target="_top" xlink:title=" ">
<polygon fill="none" stroke="black" points="664.5,-112.5 664.5,-142.5 781.5,-142.5 781.5,-112.5 664.5,-112.5"/>
<text text-anchor="start" x="672.5" y="-130.5" font-family="Helvetica,sans-Serif" font-size="10.00">src/gui/screen_game</text>
<text text-anchor="middle" x="723" y="-119.5" font-family="Helvetica,sans-Serif" font-size="10.00">/gui_figure.h</text>
</a>
</g>
</g>
<!-- Node1&#45;&gt;Node21 -->
<g id="edge21" class="edge">
<title>Node1&#45;&gt;Node21</title>
<path fill="none" stroke="midnightblue" d="M688.55,-179.4C694.14,-171.13 701.33,-160.51 707.7,-151.1"/>
<polygon fill="midnightblue" stroke="midnightblue" points="710.76,-152.82 713.47,-142.58 704.97,-148.9 710.76,-152.82"/>
</g>
<!-- Node11 -->
<g id="node11" class="node">
<title>Node11</title>
<g id="a_node11"><a xlink:title=" ">
<polygon fill="none" stroke="#bfbfbf" points="1019.5,-0.5 1019.5,-19.5 1074.5,-19.5 1074.5,-0.5 1019.5,-0.5"/>
<text text-anchor="middle" x="1047" y="-7.5" font-family="Helvetica,sans-Serif" font-size="10.00">QVector</text>
</a>
</g>
</g>
<!-- Node10&#45;&gt;Node11 -->
<g id="edge10" class="edge">
<title>Node10&#45;&gt;Node11</title>
<path fill="none" stroke="midnightblue" d="M1047,-56.08C1047,-49.01 1047,-38.86 1047,-29.99"/>
<polygon fill="midnightblue" stroke="midnightblue" points="1050.5,-29.75 1047,-19.75 1043.5,-29.75 1050.5,-29.75"/>
</g>
<!-- Node12&#45;&gt;Node5 -->
<g id="edge12" class="edge">
<title>Node12&#45;&gt;Node5</title>
<path fill="none" stroke="midnightblue" d="M488.19,-113.22C440,-102.52 373.12,-87.67 328.29,-77.72"/>
<polygon fill="midnightblue" stroke="midnightblue" points="329.03,-74.3 318.51,-75.55 327.52,-81.13 329.03,-74.3"/>
</g>
<!-- Node13 -->
<g id="node13" class="node">
<title>Node13</title>
<g id="a_node13"><a xlink:title=" ">
<polygon fill="none" stroke="#bfbfbf" points="414,-56.5 414,-75.5 498,-75.5 498,-56.5 414,-56.5"/>
<text text-anchor="middle" x="456" y="-63.5" font-family="Helvetica,sans-Serif" font-size="10.00">QMouseEvent</text>
</a>
</g>
</g>
<!-- Node12&#45;&gt;Node13 -->
<g id="edge13" class="edge">
<title>Node12&#45;&gt;Node13</title>
<path fill="none" stroke="midnightblue" d="M526.2,-112.4C511.59,-102.95 492.43,-90.56 477.82,-81.11"/>
<polygon fill="midnightblue" stroke="midnightblue" points="479.68,-78.15 469.39,-75.66 475.88,-84.03 479.68,-78.15"/>
</g>
<!-- Node14 -->
<g id="node14" class="node">
<title>Node14</title>
<g id="a_node14"><a xlink:title=" ">
<polygon fill="none" stroke="#bfbfbf" points="346.5,-56.5 346.5,-75.5 395.5,-75.5 395.5,-56.5 346.5,-56.5"/>
<text text-anchor="middle" x="371" y="-63.5" font-family="Helvetica,sans-Serif" font-size="10.00">QPoint</text>
</a>
</g>
</g>
<!-- Node12&#45;&gt;Node14 -->
<g id="edge14" class="edge">
<title>Node12&#45;&gt;Node14</title>
<path fill="none" stroke="midnightblue" d="M506.05,-112.4C475.33,-102.07 434.13,-88.22 405.35,-78.55"/>
<polygon fill="midnightblue" stroke="midnightblue" points="406.32,-75.18 395.73,-75.31 404.09,-81.82 406.32,-75.18"/>
</g>
<!-- Node15 -->
<g id="node15" class="node">
<title>Node15</title>
<g id="a_node15"><a xlink:href="utils_8h.html" target="_top" xlink:title=" ">
<polygon fill="none" stroke="black" points="516,-56.5 516,-75.5 580,-75.5 580,-56.5 516,-56.5"/>
<text text-anchor="middle" x="548" y="-63.5" font-family="Helvetica,sans-Serif" font-size="10.00">src/utils.h</text>
</a>
</g>
</g>
<!-- Node12&#45;&gt;Node15 -->
<g id="edge15" class="edge">
<title>Node12&#45;&gt;Node15</title>
<path fill="none" stroke="midnightblue" d="M548,-112.4C548,-104.47 548,-94.46 548,-85.86"/>
<polygon fill="midnightblue" stroke="midnightblue" points="551.5,-85.66 548,-75.66 544.5,-85.66 551.5,-85.66"/>
</g>
<!-- Node16 -->
<g id="node16" class="node">
<title>Node16</title>
<g id="a_node16"><a xlink:title=" ">
<polygon fill="none" stroke="#bfbfbf" points="525.5,-0.5 525.5,-19.5 570.5,-19.5 570.5,-0.5 525.5,-0.5"/>
<text text-anchor="middle" x="548" y="-7.5" font-family="Helvetica,sans-Serif" font-size="10.00">utility</text>
</a>
</g>
</g>
<!-- Node15&#45;&gt;Node16 -->
<g id="edge16" class="edge">
<title>Node15&#45;&gt;Node16</title>
<path fill="none" stroke="midnightblue" d="M548,-56.08C548,-49.01 548,-38.86 548,-29.99"/>
<polygon fill="midnightblue" stroke="midnightblue" points="551.5,-29.75 548,-19.75 544.5,-29.75 551.5,-29.75"/>
</g>
<!-- Node18 -->
<g id="node18" class="node">
<title>Node18</title>
<g id="a_node18"><a xlink:title=" ">
<polygon fill="none" stroke="#bfbfbf" points="1110.5,-56.5 1110.5,-75.5 1199.5,-75.5 1199.5,-56.5 1110.5,-56.5"/>
<text text-anchor="middle" x="1155" y="-63.5" font-family="Helvetica,sans-Serif" font-size="10.00">QGraphicsItem</text>
</a>
</g>
</g>
<!-- Node17&#45;&gt;Node18 -->
<g id="edge18" class="edge">
<title>Node17&#45;&gt;Node18</title>
<path fill="none" stroke="midnightblue" d="M1190.1,-112.4C1183.41,-103.75 1174.82,-92.64 1167.82,-83.58"/>
<polygon fill="midnightblue" stroke="midnightblue" points="1170.58,-81.43 1161.69,-75.66 1165.04,-85.71 1170.58,-81.43"/>
</g>
<!-- Node19 -->
<g id="node19" class="node">
<title>Node19</title>
<g id="a_node19"><a xlink:title=" ">
<polygon fill="none" stroke="#bfbfbf" points="1217,-56.5 1217,-75.5 1275,-75.5 1275,-56.5 1217,-56.5"/>
<text text-anchor="middle" x="1246" y="-63.5" font-family="Helvetica,sans-Serif" font-size="10.00">QPainter</text>
</a>
</g>
</g>
<!-- Node17&#45;&gt;Node19 -->
<g id="edge19" class="edge">
<title>Node17&#45;&gt;Node19</title>
<path fill="none" stroke="midnightblue" d="M1211.66,-112.4C1218.14,-103.84 1226.43,-92.87 1233.25,-83.86"/>
<polygon fill="midnightblue" stroke="midnightblue" points="1236.21,-85.74 1239.45,-75.66 1230.63,-81.52 1236.21,-85.74"/>
</g>
<!-- Node20 -->
<g id="node20" class="node">
<title>Node20</title>
<g id="a_node20"><a xlink:title=" ">
<polygon fill="none" stroke="#bfbfbf" points="1293,-56.5 1293,-75.5 1335,-75.5 1335,-56.5 1293,-56.5"/>
<text text-anchor="middle" x="1314" y="-63.5" font-family="Helvetica,sans-Serif" font-size="10.00">QPen</text>
</a>
</g>
</g>
<!-- Node17&#45;&gt;Node20 -->
<g id="edge20" class="edge">
<title>Node17&#45;&gt;Node20</title>
<path fill="none" stroke="midnightblue" d="M1227.78,-112.4C1246.06,-102.77 1270.15,-90.09 1288.21,-80.58"/>
<polygon fill="midnightblue" stroke="midnightblue" points="1290.34,-83.41 1297.56,-75.66 1287.08,-77.22 1290.34,-83.41"/>
</g>
<!-- Node21&#45;&gt;Node6 -->
<g id="edge23" class="edge">
<title>Node21&#45;&gt;Node6</title>
<path fill="none" stroke="midnightblue" d="M706.17,-112.4C695.33,-103.31 681.22,-91.49 670.13,-82.19"/>
<polygon fill="midnightblue" stroke="midnightblue" points="672.24,-79.4 662.33,-75.66 667.75,-84.76 672.24,-79.4"/>
</g>
<!-- Node21&#45;&gt;Node10 -->
<g id="edge25" class="edge">
<title>Node21&#45;&gt;Node10</title>
<path fill="none" stroke="midnightblue" d="M781.55,-114.77C786.44,-113.82 791.3,-112.89 796,-112 863.15,-99.31 940.58,-85.56 991.48,-76.65"/>
<polygon fill="midnightblue" stroke="midnightblue" points="992.36,-80.05 1001.61,-74.88 991.16,-73.15 992.36,-80.05"/>
</g>
<!-- Node21&#45;&gt;Node15 -->
<g id="edge26" class="edge">
<title>Node21&#45;&gt;Node15</title>
<path fill="none" stroke="midnightblue" d="M681.53,-112.4C651.42,-102.16 611.15,-88.47 582.73,-78.81"/>
<polygon fill="midnightblue" stroke="midnightblue" points="583.8,-75.48 573.21,-75.57 581.55,-82.1 583.8,-75.48"/>
</g>
<!-- Node22 -->
<g id="node22" class="node">
<title>Node22</title>
<g id="a_node22"><a xlink:title=" ">
<polygon fill="none" stroke="#bfbfbf" points="828,-56.5 828,-75.5 984,-75.5 984,-56.5 828,-56.5"/>
<text text-anchor="middle" x="906" y="-63.5" font-family="Helvetica,sans-Serif" font-size="10.00">QGraphicsSceneMouseEvent</text>
</a>
</g>
</g>
<!-- Node21&#45;&gt;Node22 -->
<g id="edge22" class="edge">
<title>Node21&#45;&gt;Node22</title>
<path fill="none" stroke="midnightblue" d="M766.37,-112.4C797.99,-102.12 840.33,-88.35 870.07,-78.68"/>
<polygon fill="midnightblue" stroke="midnightblue" points="871.21,-81.99 879.64,-75.57 869.05,-75.33 871.21,-81.99"/>
</g>
<!-- Node23 -->
<g id="node23" class="node">
<title>Node23</title>
<g id="a_node23"><a xlink:title=" ">
<polygon fill="none" stroke="#bfbfbf" points="724,-56.5 724,-75.5 810,-75.5 810,-56.5 724,-56.5"/>
<text text-anchor="middle" x="767" y="-63.5" font-family="Helvetica,sans-Serif" font-size="10.00">QSvgRenderer</text>
</a>
</g>
</g>
<!-- Node21&#45;&gt;Node23 -->
<g id="edge24" class="edge">
<title>Node21&#45;&gt;Node23</title>
<path fill="none" stroke="midnightblue" d="M733.43,-112.4C739.76,-103.84 747.87,-92.87 754.53,-83.86"/>
<polygon fill="midnightblue" stroke="midnightblue" points="757.47,-85.78 760.6,-75.66 751.84,-81.62 757.47,-85.78"/>
</g>
</g>
</svg>
