<?xml version="1.0" encoding="UTF-8" standalone="no"?>
<!DOCTYPE svg PUBLIC "-//W3C//DTD SVG 1.1//EN"
 "http://www.w3.org/Graphics/SVG/1.1/DTD/svg11.dtd">
<!-- Generated by graphviz version 2.43.0 (0)
 -->
<!-- Title: src/gui/screen_game/screen_game.h Pages: 1 -->
<!--zoomable 218 -->
<svg id="main" version="1.1" xmlns="http://www.w3.org/2000/svg" xmlns:xlink="http://www.w3.org/1999/xlink" xml:space="preserve" onload="init(evt)">
<style type="text/css"><![CDATA[
.edge:hover path { stroke: red; }
.edge:hover polygon { stroke: red; fill: red; }
]]></style>
<script type="text/javascript"><![CDATA[
var edges = document.getElementsByTagName('g');
if (edges && edges.length) {
  for (var i=0;i<edges.length;i++) {
    if (edges[i].id.substr(0,4)=='edge') {
      edges[i].setAttribute('class','edge');
    }
  }
}
]]></script>
        <defs>
                <circle id="rim" cx="0" cy="0" r="7"/>
                <circle id="rim2" cx="0" cy="0" r="3.5"/>
                <g id="zoomPlus">
                        <use xlink:href="#rim" fill="#404040">
                                <set attributeName="fill" to="#808080" begin="zoomplus.mouseover" end="zoomplus.mouseout"/>
                        </use>
                        <path d="M-4,0h8M0,-4v8" fill="none" stroke="white" stroke-width="1.5" pointer-events="none"/>
                </g>
                <g id="zoomMin">
                        <use xlink:href="#rim" fill="#404040">
                                <set attributeName="fill" to="#808080" begin="zoomminus.mouseover" end="zoomminus.mouseout"/>
                        </use>
                        <path d="M-4,0h8" fill="none" stroke="white" stroke-width="1.5" pointer-events="none"/>
                </g>
                <g id="dirArrow">
                        <path fill="none" stroke="white" stroke-width="1.5" d="M0,-3.0v7 M-2.5,-0.5L0,-3.0L2.5,-0.5"/>
                </g>
               <g id="resetDef">
                       <use xlink:href="#rim2" fill="#404040">
                               <set attributeName="fill" to="#808080" begin="reset.mouseover" end="reset.mouseout"/>
                       </use>
               </g>
        </defs>

<script type="text/javascript">
var viewWidth = 1899;
var viewHeight = 218;
var sectionId = 'dynsection-0';
</script>
<script xlink:href="svgpan.js"/>
<svg id="graph" class="graph">
<g id="viewport">
<title>src/gui/screen_game/screen_game.h</title>
<!-- Node1 -->
<g id="node1" class="node">
<title>Node1</title>
<g id="a_node1"><a xlink:title=" ">
<polygon fill="#bfbfbf" stroke="black" points="762.5,-179.5 762.5,-209.5 879.5,-209.5 879.5,-179.5 762.5,-179.5"/>
<text text-anchor="start" x="770.5" y="-197.5" font-family="Helvetica,sans-Serif" font-size="10.00">src/gui/screen_game</text>
<text text-anchor="middle" x="821" y="-186.5" font-family="Helvetica,sans-Serif" font-size="10.00">/screen_game.h</text>
</a>
</g>
</g>
<!-- Node2 -->
<g id="node2" class="node">
<title>Node2</title>
<g id="a_node2"><a xlink:title=" ">
<polygon fill="none" stroke="#bfbfbf" points="0,-118 0,-137 38,-137 38,-118 0,-118"/>
<text text-anchor="middle" x="19" y="-125" font-family="Helvetica,sans-Serif" font-size="10.00">QDir</text>
</a>
</g>
</g>
<!-- Node1&#45;&gt;Node2 -->
<g id="edge1" class="edge">
<title>Node1&#45;&gt;Node2</title>
<path fill="none" stroke="midnightblue" d="M762.39,-192.78C605.99,-190.36 181.51,-180.44 47,-143 45.33,-142.54 43.65,-141.96 41.98,-141.32"/>
<polygon fill="midnightblue" stroke="midnightblue" points="43.32,-138.09 32.78,-137.07 40.38,-144.44 43.32,-138.09"/>
</g>
<!-- Node3 -->
<g id="node3" class="node">
<title>Node3</title>
<g id="a_node3"><a xlink:title=" ">
<polygon fill="none" stroke="#bfbfbf" points="56,-118 56,-137 190,-137 190,-118 56,-118"/>
<text text-anchor="middle" x="123" y="-125" font-family="Helvetica,sans-Serif" font-size="10.00">QGraphicsColorizeEffect</text>
</a>
</g>
</g>
<!-- Node1&#45;&gt;Node3 -->
<g id="edge2" class="edge">
<title>Node1&#45;&gt;Node3</title>
<path fill="none" stroke="midnightblue" d="M762.46,-190.85C651.94,-185.38 405.13,-170.95 199,-143 190.68,-141.87 181.89,-140.43 173.35,-138.89"/>
<polygon fill="midnightblue" stroke="midnightblue" points="173.96,-135.45 163.49,-137.06 172.69,-142.33 173.96,-135.45"/>
</g>
<!-- Node4 -->
<g id="node4" class="node">
<title>Node4</title>
<g id="a_node4"><a xlink:title=" ">
<polygon fill="none" stroke="#bfbfbf" points="208,-118 208,-137 330,-137 330,-118 208,-118"/>
<text text-anchor="middle" x="269" y="-125" font-family="Helvetica,sans-Serif" font-size="10.00">QGraphicsEllipseItem</text>
</a>
</g>
</g>
<!-- Node1&#45;&gt;Node4 -->
<g id="edge3" class="edge">
<title>Node1&#45;&gt;Node4</title>
<path fill="none" stroke="midnightblue" d="M762.14,-189.24C671.08,-182.22 490.73,-166.6 339,-143 331.75,-141.87 324.11,-140.49 316.66,-139.04"/>
<polygon fill="midnightblue" stroke="midnightblue" points="317.15,-135.56 306.66,-137.02 315.77,-142.43 317.15,-135.56"/>
</g>
<!-- Node5 -->
<g id="node5" class="node">
<title>Node5</title>
<g id="a_node5"><a xlink:title=" ">
<polygon fill="none" stroke="#bfbfbf" points="348,-118 348,-137 488,-137 488,-118 348,-118"/>
<text text-anchor="middle" x="418" y="-125" font-family="Helvetica,sans-Serif" font-size="10.00">QGraphicsItemAnimation</text>
</a>
</g>
</g>
<!-- Node1&#45;&gt;Node5 -->
<g id="edge4" class="edge">
<title>Node1&#45;&gt;Node5</title>
<path fill="none" stroke="midnightblue" d="M762.46,-184.48C698.45,-174.56 592.86,-158.03 502,-143 493.81,-141.65 485.19,-140.19 476.7,-138.74"/>
<polygon fill="midnightblue" stroke="midnightblue" points="477.29,-135.29 466.84,-137.05 476.1,-142.19 477.29,-135.29"/>
</g>
<!-- Node6 -->
<g id="node6" class="node">
<title>Node6</title>
<g id="a_node6"><a xlink:title=" ">
<polygon fill="none" stroke="#bfbfbf" points="434,-56.5 434,-75.5 530,-75.5 530,-56.5 434,-56.5"/>
<text text-anchor="middle" x="482" y="-63.5" font-family="Helvetica,sans-Serif" font-size="10.00">QGraphicsScene</text>
</a>
</g>
</g>
<!-- Node1&#45;&gt;Node6 -->
<g id="edge5" class="edge">
<title>Node1&#45;&gt;Node6</title>
<path fill="none" stroke="midnightblue" d="M762.21,-188.45C689.79,-181.33 571.81,-166.51 535,-143 513.24,-129.1 497.93,-102.76 489.54,-85.04"/>
<polygon fill="midnightblue" stroke="midnightblue" points="492.67,-83.47 485.4,-75.76 486.28,-86.32 492.67,-83.47"/>
</g>
<!-- Node7 -->
<g id="node7" class="node">
<title>Node7</title>
<g id="a_node7"><a xlink:title=" ">
<polygon fill="none" stroke="#bfbfbf" points="825.5,-56.5 825.5,-75.5 932.5,-75.5 932.5,-56.5 825.5,-56.5"/>
<text text-anchor="middle" x="879" y="-63.5" font-family="Helvetica,sans-Serif" font-size="10.00">QGraphicsSvgItem</text>
</a>
</g>
</g>
<!-- Node1&#45;&gt;Node7 -->
<g id="edge6" class="edge">
<title>Node1&#45;&gt;Node7</title>
<path fill="none" stroke="midnightblue" d="M879.85,-190.15C912.98,-184.88 951.85,-172.32 973,-143 981.06,-131.83 980.34,-123.66 973,-112 962.99,-96.11 945.65,-85.71 928.56,-78.96"/>
<polygon fill="midnightblue" stroke="midnightblue" points="929.74,-75.66 919.15,-75.57 927.37,-82.25 929.74,-75.66"/>
</g>
<!-- Node8 -->
<g id="node8" class="node">
<title>Node8</title>
<g id="a_node8"><a xlink:title=" ">
<polygon fill="none" stroke="#bfbfbf" points="682,-118 682,-137 762,-137 762,-118 682,-118"/>
<text text-anchor="middle" x="722" y="-125" font-family="Helvetica,sans-Serif" font-size="10.00">QInputDialog</text>
</a>
</g>
</g>
<!-- Node1&#45;&gt;Node8 -->
<g id="edge7" class="edge">
<title>Node1&#45;&gt;Node8</title>
<path fill="none" stroke="midnightblue" d="M799.52,-179.4C782.92,-168.5 760.04,-153.48 743.45,-142.58"/>
<polygon fill="midnightblue" stroke="midnightblue" points="745.24,-139.57 734.96,-137.01 741.4,-145.42 745.24,-139.57"/>
</g>
<!-- Node9 -->
<g id="node9" class="node">
<title>Node9</title>
<g id="a_node9"><a xlink:title=" ">
<polygon fill="none" stroke="#bfbfbf" points="1294.5,-0.5 1294.5,-19.5 1347.5,-19.5 1347.5,-0.5 1294.5,-0.5"/>
<text text-anchor="middle" x="1321" y="-7.5" font-family="Helvetica,sans-Serif" font-size="10.00">QString</text>
</a>
</g>
</g>
<!-- Node1&#45;&gt;Node9 -->
<g id="edge8" class="edge">
<title>Node1&#45;&gt;Node9</title>
<path fill="none" stroke="midnightblue" d="M879.6,-193.88C995.13,-193.57 1259.92,-187.53 1477,-143 1567.59,-124.42 1620.15,-151.19 1674,-76 1679.18,-68.77 1679.87,-62.67 1674,-56 1653.3,-32.49 1443.88,-17.99 1357.73,-12.98"/>
<polygon fill="midnightblue" stroke="midnightblue" points="1357.8,-9.48 1347.61,-12.4 1357.4,-16.46 1357.8,-9.48"/>
</g>
<!-- Node10 -->
<g id="node10" class="node">
<title>Node10</title>
<g id="a_node10"><a xlink:title=" ">
<polygon fill="none" stroke="#bfbfbf" points="818.5,-118 818.5,-137 887.5,-137 887.5,-118 818.5,-118"/>
<text text-anchor="middle" x="853" y="-125" font-family="Helvetica,sans-Serif" font-size="10.00">QTimeLine</text>
</a>
</g>
</g>
<!-- Node1&#45;&gt;Node10 -->
<g id="edge9" class="edge">
<title>Node1&#45;&gt;Node10</title>
<path fill="none" stroke="midnightblue" d="M827.94,-179.4C832.74,-169.66 839.14,-156.65 844.28,-146.21"/>
<polygon fill="midnightblue" stroke="midnightblue" points="847.44,-147.71 848.72,-137.19 841.16,-144.62 847.44,-147.71"/>
</g>
<!-- Node11 -->
<g id="node11" class="node">
<title>Node11</title>
<g id="a_node11"><a xlink:title=" ">
<polygon fill="none" stroke="#bfbfbf" points="905.5,-118 905.5,-137 964.5,-137 964.5,-118 905.5,-118"/>
<text text-anchor="middle" x="935" y="-125" font-family="Helvetica,sans-Serif" font-size="10.00">QWidget</text>
</a>
</g>
</g>
<!-- Node1&#45;&gt;Node11 -->
<g id="edge10" class="edge">
<title>Node1&#45;&gt;Node11</title>
<path fill="none" stroke="midnightblue" d="M845.74,-179.4C865.21,-168.29 892.17,-152.92 911.35,-141.98"/>
<polygon fill="midnightblue" stroke="midnightblue" points="913.13,-145 920.08,-137.01 909.66,-138.92 913.13,-145"/>
</g>
<!-- Node12 -->
<g id="node12" class="node">
<title>Node12</title>
<g id="a_node12"><a xlink:href="constants_8h.html" target="_top" xlink:title=" ">
<polygon fill="none" stroke="black" points="717,-56.5 717,-75.5 807,-75.5 807,-56.5 717,-56.5"/>
<text text-anchor="middle" x="762" y="-63.5" font-family="Helvetica,sans-Serif" font-size="10.00">src/constants.h</text>
</a>
</g>
</g>
<!-- Node1&#45;&gt;Node12 -->
<g id="edge11" class="edge">
<title>Node1&#45;&gt;Node12</title>
<path fill="none" stroke="midnightblue" d="M814.46,-179.48C803.7,-156.41 782.28,-110.48 770.41,-85.03"/>
<polygon fill="midnightblue" stroke="midnightblue" points="773.5,-83.37 766.1,-75.79 767.15,-86.33 773.5,-83.37"/>
</g>
<!-- Node14 -->
<g id="node14" class="node">
<title>Node14</title>
<g id="a_node14"><a xlink:href="gui__point_8h.html" target="_top" xlink:title=" ">
<polygon fill="none" stroke="black" points="1353.5,-112.5 1353.5,-142.5 1468.5,-142.5 1468.5,-112.5 1353.5,-112.5"/>
<text text-anchor="start" x="1361.5" y="-130.5" font-family="Helvetica,sans-Serif" font-size="10.00">src/gui/gui_point/gui</text>
<text text-anchor="middle" x="1411" y="-119.5" font-family="Helvetica,sans-Serif" font-size="10.00">_point.h</text>
</a>
</g>
</g>
<!-- Node1&#45;&gt;Node14 -->
<g id="edge13" class="edge">
<title>Node1&#45;&gt;Node14</title>
<path fill="none" stroke="midnightblue" d="M879.55,-187.76C969.71,-178.82 1147.96,-160.75 1299,-143 1313.4,-141.31 1328.82,-139.38 1343.48,-137.5"/>
<polygon fill="midnightblue" stroke="midnightblue" points="1344.01,-140.96 1353.48,-136.21 1343.11,-134.02 1344.01,-140.96"/>
</g>
<!-- Node20 -->
<g id="node20" class="node">
<title>Node20</title>
<g id="a_node20"><a xlink:href="gui__scene_8h.html" target="_top" xlink:title=" ">
<polygon fill="none" stroke="black" points="544.5,-112.5 544.5,-142.5 663.5,-142.5 663.5,-112.5 544.5,-112.5"/>
<text text-anchor="start" x="552.5" y="-130.5" font-family="Helvetica,sans-Serif" font-size="10.00">src/gui/gui_scene/gui</text>
<text text-anchor="middle" x="604" y="-119.5" font-family="Helvetica,sans-Serif" font-size="10.00">_scene.h</text>
</a>
</g>
</g>
<!-- Node1&#45;&gt;Node20 -->
<g id="edge20" class="edge">
<title>Node1&#45;&gt;Node20</title>
<path fill="none" stroke="midnightblue" d="M774.18,-179.48C740.93,-169.51 696.1,-156.09 660.8,-145.51"/>
<polygon fill="midnightblue" stroke="midnightblue" points="661.69,-142.13 651.11,-142.61 659.68,-148.83 661.69,-142.13"/>
</g>
<!-- Node23 -->
<g id="node23" class="node">
<title>Node23</title>
<g id="a_node23"><a xlink:href="gui__win_8h.html" target="_top" xlink:title=" ">
<polygon fill="none" stroke="black" points="1183.5,-112.5 1183.5,-142.5 1290.5,-142.5 1290.5,-112.5 1183.5,-112.5"/>
<text text-anchor="start" x="1191.5" y="-130.5" font-family="Helvetica,sans-Serif" font-size="10.00">src/gui/gui_win/gui</text>
<text text-anchor="middle" x="1237" y="-119.5" font-family="Helvetica,sans-Serif" font-size="10.00">_win.h</text>
</a>
</g>
</g>
<!-- Node1&#45;&gt;Node23 -->
<g id="edge25" class="edge">
<title>Node1&#45;&gt;Node23</title>
<path fill="none" stroke="midnightblue" d="M879.61,-184.53C944.88,-174.51 1053.52,-157.77 1147,-143 1155.52,-141.65 1164.49,-140.22 1173.33,-138.81"/>
<polygon fill="midnightblue" stroke="midnightblue" points="1173.91,-142.26 1183.23,-137.22 1172.8,-135.35 1173.91,-142.26"/>
</g>
<!-- Node25 -->
<g id="node25" class="node">
<title>Node25</title>
<g id="a_node25"><a xlink:href="gui__advantage__bar_8h.html" target="_top" xlink:title=" ">
<polygon fill="none" stroke="black" points="1721.5,-112.5 1721.5,-142.5 1842.5,-142.5 1842.5,-112.5 1721.5,-112.5"/>
<text text-anchor="start" x="1729.5" y="-130.5" font-family="Helvetica,sans-Serif" font-size="10.00">src/gui/screen_game</text>
<text text-anchor="middle" x="1782" y="-119.5" font-family="Helvetica,sans-Serif" font-size="10.00">/gui_advantage_bar.h</text>
</a>
</g>
</g>
<!-- Node1&#45;&gt;Node25 -->
<g id="edge31" class="edge">
<title>Node1&#45;&gt;Node25</title>
<path fill="none" stroke="midnightblue" d="M879.56,-192.87C1021.84,-190.75 1396.83,-181.65 1707,-143 1708.3,-142.84 1709.6,-142.67 1710.92,-142.49"/>
<polygon fill="midnightblue" stroke="midnightblue" points="1711.74,-145.91 1721.12,-140.98 1710.72,-138.98 1711.74,-145.91"/>
</g>
<!-- Node28 -->
<g id="node28" class="node">
<title>Node28</title>
<g id="a_node28"><a xlink:href="gui__figure_8h.html" target="_top" xlink:title=" ">
<polygon fill="none" stroke="black" points="1021.5,-112.5 1021.5,-142.5 1138.5,-142.5 1138.5,-112.5 1021.5,-112.5"/>
<text text-anchor="start" x="1029.5" y="-130.5" font-family="Helvetica,sans-Serif" font-size="10.00">src/gui/screen_game</text>
<text text-anchor="middle" x="1080" y="-119.5" font-family="Helvetica,sans-Serif" font-size="10.00">/gui_figure.h</text>
</a>
</g>
</g>
<!-- Node1&#45;&gt;Node28 -->
<g id="edge35" class="edge">
<title>Node1&#45;&gt;Node28</title>
<path fill="none" stroke="midnightblue" d="M876.88,-179.48C917.08,-169.39 971.45,-155.74 1013.83,-145.11"/>
<polygon fill="midnightblue" stroke="midnightblue" points="1014.93,-148.44 1023.77,-142.61 1013.22,-141.65 1014.93,-148.44"/>
</g>
<!-- Node13 -->
<g id="node13" class="node">
<title>Node13</title>
<g id="a_node13"><a xlink:title=" ">
<polygon fill="none" stroke="#bfbfbf" points="734.5,-0.5 734.5,-19.5 789.5,-19.5 789.5,-0.5 734.5,-0.5"/>
<text text-anchor="middle" x="762" y="-7.5" font-family="Helvetica,sans-Serif" font-size="10.00">QVector</text>
</a>
</g>
</g>
<!-- Node12&#45;&gt;Node13 -->
<g id="edge12" class="edge">
<title>Node12&#45;&gt;Node13</title>
<path fill="none" stroke="midnightblue" d="M762,-56.08C762,-49.01 762,-38.86 762,-29.99"/>
<polygon fill="midnightblue" stroke="midnightblue" points="765.5,-29.75 762,-19.75 758.5,-29.75 765.5,-29.75"/>
</g>
<!-- Node15 -->
<g id="node15" class="node">
<title>Node15</title>
<g id="a_node15"><a xlink:title=" ">
<polygon fill="none" stroke="#bfbfbf" points="1491,-56.5 1491,-75.5 1589,-75.5 1589,-56.5 1491,-56.5"/>
<text text-anchor="middle" x="1540" y="-63.5" font-family="Helvetica,sans-Serif" font-size="10.00">QGraphicsObject</text>
</a>
</g>
</g>
<!-- Node14&#45;&gt;Node15 -->
<g id="edge14" class="edge">
<title>Node14&#45;&gt;Node15</title>
<path fill="none" stroke="midnightblue" d="M1441.57,-112.4C1462.93,-102.55 1491.22,-89.5 1511.98,-79.92"/>
<polygon fill="midnightblue" stroke="midnightblue" points="1513.61,-83.02 1521.23,-75.66 1510.68,-76.67 1513.61,-83.02"/>
</g>
<!-- Node16 -->
<g id="node16" class="node">
<title>Node16</title>
<g id="a_node16"><a xlink:title=" ">
<polygon fill="none" stroke="#bfbfbf" points="1349,-56.5 1349,-75.5 1473,-75.5 1473,-56.5 1349,-56.5"/>
<text text-anchor="middle" x="1411" y="-63.5" font-family="Helvetica,sans-Serif" font-size="10.00">QGraphicsSceneEvent</text>
</a>
</g>
</g>
<!-- Node14&#45;&gt;Node16 -->
<g id="edge15" class="edge">
<title>Node14&#45;&gt;Node16</title>
<path fill="none" stroke="midnightblue" d="M1411,-112.4C1411,-104.47 1411,-94.46 1411,-85.86"/>
<polygon fill="midnightblue" stroke="midnightblue" points="1414.5,-85.66 1411,-75.66 1407.5,-85.66 1414.5,-85.66"/>
</g>
<!-- Node17 -->
<g id="node17" class="node">
<title>Node17</title>
<g id="a_node17"><a xlink:title=" ">
<polygon fill="none" stroke="#bfbfbf" points="1607,-56.5 1607,-75.5 1665,-75.5 1665,-56.5 1607,-56.5"/>
<text text-anchor="middle" x="1636" y="-63.5" font-family="Helvetica,sans-Serif" font-size="10.00">QPainter</text>
</a>
</g>
</g>
<!-- Node14&#45;&gt;Node17 -->
<g id="edge16" class="edge">
<title>Node14&#45;&gt;Node17</title>
<path fill="none" stroke="midnightblue" d="M1464.04,-112.47C1504.77,-101.7 1560.1,-87.07 1596.87,-77.35"/>
<polygon fill="midnightblue" stroke="midnightblue" points="1597.95,-80.68 1606.73,-74.74 1596.16,-73.91 1597.95,-80.68"/>
</g>
<!-- Node18 -->
<g id="node18" class="node">
<title>Node18</title>
<g id="a_node18"><a xlink:href="utils_8h.html" target="_top" xlink:title=" ">
<polygon fill="none" stroke="black" points="1125,-56.5 1125,-75.5 1189,-75.5 1189,-56.5 1125,-56.5"/>
<text text-anchor="middle" x="1157" y="-63.5" font-family="Helvetica,sans-Serif" font-size="10.00">src/utils.h</text>
</a>
</g>
</g>
<!-- Node14&#45;&gt;Node18 -->
<g id="edge17" class="edge">
<title>Node14&#45;&gt;Node18</title>
<path fill="none" stroke="midnightblue" d="M1353.36,-113C1306.44,-102.01 1241.3,-86.75 1199.15,-76.87"/>
<polygon fill="midnightblue" stroke="midnightblue" points="1199.75,-73.42 1189.21,-74.55 1198.15,-80.23 1199.75,-73.42"/>
</g>
<!-- Node18&#45;&gt;Node9 -->
<g id="edge18" class="edge">
<title>Node18&#45;&gt;Node9</title>
<path fill="none" stroke="midnightblue" d="M1182.99,-56.44C1210.7,-47.32 1254.75,-32.81 1285.62,-22.65"/>
<polygon fill="midnightblue" stroke="midnightblue" points="1286.73,-25.97 1295.14,-19.52 1284.54,-19.32 1286.73,-25.97"/>
</g>
<!-- Node19 -->
<g id="node19" class="node">
<title>Node19</title>
<g id="a_node19"><a xlink:title=" ">
<polygon fill="none" stroke="#bfbfbf" points="1134.5,-0.5 1134.5,-19.5 1179.5,-19.5 1179.5,-0.5 1134.5,-0.5"/>
<text text-anchor="middle" x="1157" y="-7.5" font-family="Helvetica,sans-Serif" font-size="10.00">utility</text>
</a>
</g>
</g>
<!-- Node18&#45;&gt;Node19 -->
<g id="edge19" class="edge">
<title>Node18&#45;&gt;Node19</title>
<path fill="none" stroke="midnightblue" d="M1157,-56.08C1157,-49.01 1157,-38.86 1157,-29.99"/>
<polygon fill="midnightblue" stroke="midnightblue" points="1160.5,-29.75 1157,-19.75 1153.5,-29.75 1160.5,-29.75"/>
</g>
<!-- Node20&#45;&gt;Node6 -->
<g id="edge21" class="edge">
<title>Node20&#45;&gt;Node6</title>
<path fill="none" stroke="midnightblue" d="M575.09,-112.4C554.98,-102.59 528.38,-89.62 508.76,-80.05"/>
<polygon fill="midnightblue" stroke="midnightblue" points="510.27,-76.9 499.75,-75.66 507.21,-83.19 510.27,-76.9"/>
</g>
<!-- Node20&#45;&gt;Node18 -->
<g id="edge24" class="edge">
<title>Node20&#45;&gt;Node18</title>
<path fill="none" stroke="midnightblue" d="M663.76,-113.46C666.88,-112.93 669.97,-112.44 673,-112 865.24,-84.1 918.87,-104.54 1114.8,-75.98"/>
<polygon fill="midnightblue" stroke="midnightblue" points="1115.47,-79.42 1124.85,-74.49 1114.44,-72.49 1115.47,-79.42"/>
</g>
<!-- Node21 -->
<g id="node21" class="node">
<title>Node21</title>
<g id="a_node21"><a xlink:title=" ">
<polygon fill="none" stroke="#bfbfbf" points="548,-56.5 548,-75.5 632,-75.5 632,-56.5 548,-56.5"/>
<text text-anchor="middle" x="590" y="-63.5" font-family="Helvetica,sans-Serif" font-size="10.00">QMouseEvent</text>
</a>
</g>
</g>
<!-- Node20&#45;&gt;Node21 -->
<g id="edge22" class="edge">
<title>Node20&#45;&gt;Node21</title>
<path fill="none" stroke="midnightblue" d="M600.68,-112.4C598.79,-104.38 596.41,-94.23 594.37,-85.57"/>
<polygon fill="midnightblue" stroke="midnightblue" points="597.73,-84.59 592.04,-75.66 590.92,-86.19 597.73,-84.59"/>
</g>
<!-- Node22 -->
<g id="node22" class="node">
<title>Node22</title>
<g id="a_node22"><a xlink:title=" ">
<polygon fill="none" stroke="#bfbfbf" points="649.5,-56.5 649.5,-75.5 698.5,-75.5 698.5,-56.5 649.5,-56.5"/>
<text text-anchor="middle" x="674" y="-63.5" font-family="Helvetica,sans-Serif" font-size="10.00">QPoint</text>
</a>
</g>
</g>
<!-- Node20&#45;&gt;Node22 -->
<g id="edge23" class="edge">
<title>Node20&#45;&gt;Node22</title>
<path fill="none" stroke="midnightblue" d="M620.59,-112.4C631.29,-103.31 645.19,-91.49 656.13,-82.19"/>
<polygon fill="midnightblue" stroke="midnightblue" points="658.46,-84.8 663.81,-75.66 653.93,-79.47 658.46,-84.8"/>
</g>
<!-- Node23&#45;&gt;Node7 -->
<g id="edge27" class="edge">
<title>Node23&#45;&gt;Node7</title>
<path fill="none" stroke="midnightblue" d="M1183.4,-117.59C1118.37,-106.78 1008.97,-88.6 940.55,-77.23"/>
<polygon fill="midnightblue" stroke="midnightblue" points="940.79,-73.72 930.35,-75.53 939.64,-80.63 940.79,-73.72"/>
</g>
<!-- Node23&#45;&gt;Node9 -->
<g id="edge28" class="edge">
<title>Node23&#45;&gt;Node9</title>
<path fill="none" stroke="midnightblue" d="M1262.11,-112.39C1275.72,-103.55 1291.79,-91.01 1302,-76 1311.4,-62.18 1316.22,-43.66 1318.65,-29.92"/>
<polygon fill="midnightblue" stroke="midnightblue" points="1322.16,-30.13 1320.17,-19.72 1315.23,-29.09 1322.16,-30.13"/>
</g>
<!-- Node23&#45;&gt;Node16 -->
<g id="edge26" class="edge">
<title>Node23&#45;&gt;Node16</title>
<path fill="none" stroke="midnightblue" d="M1278.24,-112.4C1308.17,-102.16 1348.21,-88.47 1376.47,-78.81"/>
<polygon fill="midnightblue" stroke="midnightblue" points="1377.61,-82.12 1385.94,-75.57 1375.34,-75.49 1377.61,-82.12"/>
</g>
<!-- Node23&#45;&gt;Node18 -->
<g id="edge30" class="edge">
<title>Node23&#45;&gt;Node18</title>
<path fill="none" stroke="midnightblue" d="M1218.04,-112.4C1205.58,-103.13 1189.3,-91.03 1176.69,-81.65"/>
<polygon fill="midnightblue" stroke="midnightblue" points="1178.75,-78.82 1168.64,-75.66 1174.58,-84.43 1178.75,-78.82"/>
</g>
<!-- Node24 -->
<g id="node24" class="node">
<title>Node24</title>
<g id="a_node24"><a xlink:title=" ">
<polygon fill="none" stroke="#bfbfbf" points="1207,-56.5 1207,-75.5 1293,-75.5 1293,-56.5 1207,-56.5"/>
<text text-anchor="middle" x="1250" y="-63.5" font-family="Helvetica,sans-Serif" font-size="10.00">QSvgRenderer</text>
</a>
</g>
</g>
<!-- Node23&#45;&gt;Node24 -->
<g id="edge29" class="edge">
<title>Node23&#45;&gt;Node24</title>
<path fill="none" stroke="midnightblue" d="M1240.08,-112.4C1241.83,-104.38 1244.05,-94.23 1245.94,-85.57"/>
<polygon fill="midnightblue" stroke="midnightblue" points="1249.39,-86.17 1248.11,-75.66 1242.55,-84.68 1249.39,-86.17"/>
</g>
<!-- Node25&#45;&gt;Node17 -->
<g id="edge33" class="edge">
<title>Node25&#45;&gt;Node17</title>
<path fill="none" stroke="midnightblue" d="M1747.4,-112.4C1722.9,-102.42 1690.34,-89.15 1666.75,-79.53"/>
<polygon fill="midnightblue" stroke="midnightblue" points="1667.83,-76.19 1657.24,-75.66 1665.18,-82.67 1667.83,-76.19"/>
</g>
<!-- Node26 -->
<g id="node26" class="node">
<title>Node26</title>
<g id="a_node26"><a xlink:title=" ">
<polygon fill="none" stroke="#bfbfbf" points="1801.5,-56.5 1801.5,-75.5 1890.5,-75.5 1890.5,-56.5 1801.5,-56.5"/>
<text text-anchor="middle" x="1846" y="-63.5" font-family="Helvetica,sans-Serif" font-size="10.00">QGraphicsItem</text>
</a>
</g>
</g>
<!-- Node25&#45;&gt;Node26 -->
<g id="edge32" class="edge">
<title>Node25&#45;&gt;Node26</title>
<path fill="none" stroke="midnightblue" d="M1797.17,-112.4C1806.75,-103.49 1819.16,-91.95 1829.07,-82.74"/>
<polygon fill="midnightblue" stroke="midnightblue" points="1831.75,-85.03 1836.69,-75.66 1826.98,-79.9 1831.75,-85.03"/>
</g>
<!-- Node27 -->
<g id="node27" class="node">
<title>Node27</title>
<g id="a_node27"><a xlink:title=" ">
<polygon fill="none" stroke="#bfbfbf" points="1741,-56.5 1741,-75.5 1783,-75.5 1783,-56.5 1741,-56.5"/>
<text text-anchor="middle" x="1762" y="-63.5" font-family="Helvetica,sans-Serif" font-size="10.00">QPen</text>
</a>
</g>
</g>
<!-- Node25&#45;&gt;Node27 -->
<g id="edge34" class="edge">
<title>Node25&#45;&gt;Node27</title>
<path fill="none" stroke="midnightblue" d="M1777.26,-112.4C1774.53,-104.29 1771.08,-94.01 1768.14,-85.28"/>
<polygon fill="midnightblue" stroke="midnightblue" points="1771.41,-84.02 1764.91,-75.66 1764.78,-86.25 1771.41,-84.02"/>
</g>
<!-- Node28&#45;&gt;Node7 -->
<g id="edge37" class="edge">
<title>Node28&#45;&gt;Node7</title>
<path fill="none" stroke="midnightblue" d="M1032.62,-112.47C997.49,-102.08 950.21,-88.08 917.42,-78.37"/>
<polygon fill="midnightblue" stroke="midnightblue" points="918.32,-74.99 907.74,-75.51 916.33,-81.7 918.32,-74.99"/>
</g>
<!-- Node28&#45;&gt;Node12 -->
<g id="edge39" class="edge">
<title>Node28&#45;&gt;Node12</title>
<path fill="none" stroke="midnightblue" d="M1021.3,-115.52C962.9,-104.59 873.97,-87.95 816.92,-77.28"/>
<polygon fill="midnightblue" stroke="midnightblue" points="817.48,-73.82 807,-75.42 816.19,-80.7 817.48,-73.82"/>
</g>
<!-- Node28&#45;&gt;Node18 -->
<g id="edge40" class="edge">
<title>Node28&#45;&gt;Node18</title>
<path fill="none" stroke="midnightblue" d="M1098.25,-112.4C1110.13,-103.22 1125.61,-91.26 1137.69,-81.92"/>
<polygon fill="midnightblue" stroke="midnightblue" points="1140.02,-84.54 1145.8,-75.66 1135.74,-79 1140.02,-84.54"/>
</g>
<!-- Node28&#45;&gt;Node24 -->
<g id="edge38" class="edge">
<title>Node28&#45;&gt;Node24</title>
<path fill="none" stroke="midnightblue" d="M1120.29,-112.4C1149.32,-102.24 1188.08,-88.67 1215.65,-79.02"/>
<polygon fill="midnightblue" stroke="midnightblue" points="1216.98,-82.26 1225.26,-75.66 1214.67,-75.66 1216.98,-82.26"/>
</g>
<!-- Node29 -->
<g id="node29" class="node">
<title>Node29</title>
<g id="a_node29"><a xlink:title=" ">
<polygon fill="none" stroke="#bfbfbf" points="951,-56.5 951,-75.5 1107,-75.5 1107,-56.5 951,-56.5"/>
<text text-anchor="middle" x="1029" y="-63.5" font-family="Helvetica,sans-Serif" font-size="10.00">QGraphicsSceneMouseEvent</text>
</a>
</g>
</g>
<!-- Node28&#45;&gt;Node29 -->
<g id="edge36" class="edge">
<title>Node28&#45;&gt;Node29</title>
<path fill="none" stroke="midnightblue" d="M1067.91,-112.4C1060.43,-103.66 1050.78,-92.41 1042.97,-83.3"/>
<polygon fill="midnightblue" stroke="midnightblue" points="1045.59,-80.97 1036.42,-75.66 1040.27,-85.53 1045.59,-80.97"/>
</g>
</g>
</svg>
        <g id="navigator" transform="translate(0 0)" fill="#404254">
                <rect fill="#f2f5e9" fill-opacity="0.5" stroke="#606060" stroke-width=".5" x="0" y="0" width="60" height="60"/>
                <use id="zoomplus" xlink:href="#zoomPlus" x="17" y="9" onmousedown="handleZoom(evt,'in')"/>
                <use id="zoomminus" xlink:href="#zoomMin" x="42" y="9" onmousedown="handleZoom(evt,'out')"/>
                <use id="reset" xlink:href="#resetDef" x="30" y="36" onmousedown="handleReset()"/>
                <g id="arrowUp" xlink:href="#dirArrow" transform="translate(30 24)" onmousedown="handlePan(0,-1)">
                  <use xlink:href="#rim" fill="#404040">
                        <set attributeName="fill" to="#808080" begin="arrowUp.mouseover" end="arrowUp.mouseout"/>
                  </use>
                  <path fill="none" stroke="white" stroke-width="1.5" d="M0,-3.0v7 M-2.5,-0.5L0,-3.0L2.5,-0.5"/>
                </g>
                <g id="arrowRight" xlink:href="#dirArrow" transform="rotate(90) translate(36 -43)" onmousedown="handlePan(1,0)">
                  <use xlink:href="#rim" fill="#404040">
                        <set attributeName="fill" to="#808080" begin="arrowRight.mouseover" end="arrowRight.mouseout"/>
                  </use>
                  <path fill="none" stroke="white" stroke-width="1.5" d="M0,-3.0v7 M-2.5,-0.5L0,-3.0L2.5,-0.5"/>
                </g>
                <g id="arrowDown" xlink:href="#dirArrow" transform="rotate(180) translate(-30 -48)" onmousedown="handlePan(0,1)">
                  <use xlink:href="#rim" fill="#404040">
                        <set attributeName="fill" to="#808080" begin="arrowDown.mouseover" end="arrowDown.mouseout"/>
                  </use>
                  <path fill="none" stroke="white" stroke-width="1.5" d="M0,-3.0v7 M-2.5,-0.5L0,-3.0L2.5,-0.5"/>
                </g>
                <g id="arrowLeft" xlink:href="#dirArrow" transform="rotate(270) translate(-36 17)" onmousedown="handlePan(-1,0)">
                  <use xlink:href="#rim" fill="#404040">
                        <set attributeName="fill" to="#808080" begin="arrowLeft.mouseover" end="arrowLeft.mouseout"/>
                  </use>
                  <path fill="none" stroke="white" stroke-width="1.5" d="M0,-3.0v7 M-2.5,-0.5L0,-3.0L2.5,-0.5"/>
                </g>
        </g>
        <svg viewBox="0 0 15 15" width="100%" height="30px" preserveAspectRatio="xMaxYMin meet">
         <g id="arrow_out" transform="scale(0.3 0.3)">
          <a xlink:href="screen__game_8h__incl_org.svg" target="_base">
           <rect id="button" ry="5" rx="5" y="6" x="6" height="38" width="38"
                fill="#f2f5e9" fill-opacity="0.5" stroke="#606060" stroke-width="1.0"/>
           <path id="arrow"
             d="M 11.500037,31.436501 C 11.940474,20.09759 22.043105,11.32322 32.158766,21.979434 L 37.068811,17.246167 C 37.068811,17.246167 37.088388,32 37.088388,32 L 22.160133,31.978069 C 22.160133,31.978069 26.997745,27.140456 26.997745,27.140456 C 18.528582,18.264221 13.291696,25.230495 11.500037,31.436501 z"
             style="fill:#404040;"/>
          </a>
         </g>
        </svg>
</svg>
