<?xml version="1.0" encoding="UTF-8" standalone="no"?>
<!DOCTYPE svg PUBLIC "-//W3C//DTD SVG 1.1//EN"
 "http://www.w3.org/Graphics/SVG/1.1/DTD/svg11.dtd">
<!-- Generated by graphviz version 2.50.0 (0)
 -->
<!-- Title: src/gui/screen_settings/screen_settings.h Pages: 1 -->
<svg width="166pt" height="95pt"
 viewBox="0.00 0.00 165.50 95.00" xmlns="http://www.w3.org/2000/svg" xmlns:xlink="http://www.w3.org/1999/xlink">
<g id="graph0" class="graph" transform="scale(1 1) rotate(0) translate(4 91)">
<title>src/gui/screen_settings/screen_settings.h</title>
<!-- Node1 -->
<g id="node1" class="node">
<title>Node1</title>
<g id="a_node1"><a xlink:title=" ">
<polygon fill="#bfbfbf" stroke="black" points="12.5,-56.5 12.5,-86.5 130.5,-86.5 130.5,-56.5 12.5,-56.5"/>
<text text-anchor="start" x="20.5" y="-74.5" font-family="Helvetica,sans-Serif" font-size="10.00">src/gui/screen_settings</text>
<text text-anchor="middle" x="71.5" y="-63.5" font-family="Helvetica,sans-Serif" font-size="10.00">/screen_settings.h</text>
</a>
</g>
</g>
<!-- Node2 -->
<g id="node2" class="node">
<title>Node2</title>
<g id="a_node2"><a xlink:title=" ">
<polygon fill="none" stroke="#bfbfbf" points="0,-0.5 0,-19.5 55,-19.5 55,-0.5 0,-0.5"/>
<text text-anchor="middle" x="27.5" y="-7.5" font-family="Helvetica,sans-Serif" font-size="10.00">QWidget</text>
</a>
</g>
</g>
<!-- Node1&#45;&gt;Node2 -->
<g id="edge1" class="edge">
<title>Node1&#45;&gt;Node2</title>
<path fill="none" stroke="midnightblue" d="M61.07,-56.4C54.74,-47.84 46.63,-36.87 39.97,-27.86"/>
<polygon fill="midnightblue" stroke="midnightblue" points="42.66,-25.62 33.9,-19.66 37.03,-29.78 42.66,-25.62"/>
</g>
<!-- Node3 -->
<g id="node3" class="node">
<title>Node3</title>
<g id="a_node3"><a xlink:href="constants_8h.html" target="_top" xlink:title=" ">
<polygon fill="none" stroke="black" points="73.5,-0.5 73.5,-19.5 157.5,-19.5 157.5,-0.5 73.5,-0.5"/>
<text text-anchor="middle" x="115.5" y="-7.5" font-family="Helvetica,sans-Serif" font-size="10.00">src/constants.h</text>
</a>
</g>
</g>
<!-- Node1&#45;&gt;Node3 -->
<g id="edge2" class="edge">
<title>Node1&#45;&gt;Node3</title>
<path fill="none" stroke="midnightblue" d="M81.93,-56.4C88.26,-47.84 96.37,-36.87 103.03,-27.86"/>
<polygon fill="midnightblue" stroke="midnightblue" points="105.97,-29.78 109.1,-19.66 100.34,-25.62 105.97,-29.78"/>
</g>
</g>
</svg>
