<?xml version="1.0" encoding="UTF-8" standalone="no"?>
<!DOCTYPE svg PUBLIC "-//W3C//DTD SVG 1.1//EN"
 "http://www.w3.org/Graphics/SVG/1.1/DTD/svg11.dtd">
<!-- Generated by graphviz version 2.43.0 (0)
 -->
<!-- Title: src/gui/screen_game/screen_game.cpp Pages: 1 -->
<svg width="949pt" height="274pt"
 viewBox="0.00 0.00 949.00 274.00" xmlns="http://www.w3.org/2000/svg" xmlns:xlink="http://www.w3.org/1999/xlink">
<g id="graph0" class="graph" transform="scale(1 1) rotate(0) translate(4 270)">
<title>src/gui/screen_game/screen_game.cpp</title>
<!-- Node1 -->
<g id="node1" class="node">
<title>Node1</title>
<g id="a_node1"><a xlink:title=" ">
<polygon fill="#bfbfbf" stroke="black" points="406.5,-235.5 406.5,-265.5 523.5,-265.5 523.5,-235.5 406.5,-235.5"/>
<text text-anchor="start" x="414.5" y="-253.5" font-family="Helvetica,sans-Serif" font-size="10.00">src/gui/screen_game</text>
<text text-anchor="middle" x="465" y="-242.5" font-family="Helvetica,sans-Serif" font-size="10.00">/screen_game.cpp</text>
</a>
</g>
</g>
<!-- Node2 -->
<g id="node2" class="node">
<title>Node2</title>
<g id="a_node2"><a xlink:href="screen__game_8h.html" target="_top" xlink:title=" ">
<polygon fill="none" stroke="black" points="361.5,-179.5 361.5,-198.5 452.5,-198.5 452.5,-179.5 361.5,-179.5"/>
<text text-anchor="middle" x="407" y="-186.5" font-family="Helvetica,sans-Serif" font-size="10.00">screen_game.h</text>
</a>
</g>
</g>
<!-- Node1&#45;&gt;Node2 -->
<g id="edge1" class="edge">
<title>Node1&#45;&gt;Node2</title>
<path fill="none" stroke="midnightblue" d="M451.25,-235.4C442.65,-226.58 431.55,-215.18 422.61,-206.02"/>
<polygon fill="midnightblue" stroke="midnightblue" points="424.93,-203.38 415.44,-198.66 419.91,-208.26 424.93,-203.38"/>
</g>
<!-- Node20 -->
<g id="node20" class="node">
<title>Node20</title>
<g id="a_node20"><a xlink:title=" ">
<polygon fill="none" stroke="#bfbfbf" points="470.5,-179.5 470.5,-198.5 575.5,-198.5 575.5,-179.5 470.5,-179.5"/>
<text text-anchor="middle" x="523" y="-186.5" font-family="Helvetica,sans-Serif" font-size="10.00">ui_screen_game.h</text>
</a>
</g>
</g>
<!-- Node1&#45;&gt;Node20 -->
<g id="edge21" class="edge">
<title>Node1&#45;&gt;Node20</title>
<path fill="none" stroke="midnightblue" d="M478.75,-235.4C487.35,-226.58 498.45,-215.18 507.39,-206.02"/>
<polygon fill="midnightblue" stroke="midnightblue" points="510.09,-208.26 514.56,-198.66 505.07,-203.38 510.09,-208.26"/>
</g>
<!-- Node3 -->
<g id="node3" class="node">
<title>Node3</title>
<g id="a_node3"><a xlink:title=" ">
<polygon fill="none" stroke="#bfbfbf" points="0,-118 0,-137 140,-137 140,-118 0,-118"/>
<text text-anchor="middle" x="70" y="-125" font-family="Helvetica,sans-Serif" font-size="10.00">QGraphicsItemAnimation</text>
</a>
</g>
</g>
<!-- Node2&#45;&gt;Node3 -->
<g id="edge2" class="edge">
<title>Node2&#45;&gt;Node3</title>
<path fill="none" stroke="midnightblue" d="M361.31,-180.16C309.72,-171.27 223.3,-156.3 149,-143 141.56,-141.67 133.72,-140.25 125.99,-138.84"/>
<polygon fill="midnightblue" stroke="midnightblue" points="126.41,-135.36 115.94,-137 125.15,-142.24 126.41,-135.36"/>
</g>
<!-- Node4 -->
<g id="node4" class="node">
<title>Node4</title>
<g id="a_node4"><a xlink:title=" ">
<polygon fill="none" stroke="#bfbfbf" points="158,-118 158,-137 254,-137 254,-118 158,-118"/>
<text text-anchor="middle" x="206" y="-125" font-family="Helvetica,sans-Serif" font-size="10.00">QGraphicsScene</text>
</a>
</g>
</g>
<!-- Node2&#45;&gt;Node4 -->
<g id="edge3" class="edge">
<title>Node2&#45;&gt;Node4</title>
<path fill="none" stroke="midnightblue" d="M378.2,-179.48C343.13,-169.09 283.74,-151.51 244.69,-139.95"/>
<polygon fill="midnightblue" stroke="midnightblue" points="245.33,-136.49 234.74,-137.01 243.34,-143.2 245.33,-136.49"/>
</g>
<!-- Node5 -->
<g id="node5" class="node">
<title>Node5</title>
<g id="a_node5"><a xlink:title=" ">
<polygon fill="none" stroke="#bfbfbf" points="122.5,-56.5 122.5,-75.5 229.5,-75.5 229.5,-56.5 122.5,-56.5"/>
<text text-anchor="middle" x="176" y="-63.5" font-family="Helvetica,sans-Serif" font-size="10.00">QGraphicsSvgItem</text>
</a>
</g>
</g>
<!-- Node2&#45;&gt;Node5 -->
<g id="edge4" class="edge">
<title>Node2&#45;&gt;Node5</title>
<path fill="none" stroke="midnightblue" d="M387.85,-179.39C368.86,-170.69 339.05,-156.63 314,-143 290.7,-130.32 286.13,-124.99 263,-112 242.98,-100.76 219.88,-88.86 202.52,-80.12"/>
<polygon fill="midnightblue" stroke="midnightblue" points="204.03,-76.96 193.52,-75.62 200.9,-83.22 204.03,-76.96"/>
</g>
<!-- Node6 -->
<g id="node6" class="node">
<title>Node6</title>
<g id="a_node6"><a xlink:title=" ">
<polygon fill="none" stroke="#bfbfbf" points="483.5,-118 483.5,-137 536.5,-137 536.5,-118 483.5,-118"/>
<text text-anchor="middle" x="510" y="-125" font-family="Helvetica,sans-Serif" font-size="10.00">QString</text>
</a>
</g>
</g>
<!-- Node2&#45;&gt;Node6 -->
<g id="edge5" class="edge">
<title>Node2&#45;&gt;Node6</title>
<path fill="none" stroke="midnightblue" d="M421.76,-179.48C438.66,-169.71 466.58,-153.58 486.49,-142.08"/>
<polygon fill="midnightblue" stroke="midnightblue" points="488.36,-145.04 495.27,-137.01 484.86,-138.98 488.36,-145.04"/>
</g>
<!-- Node7 -->
<g id="node7" class="node">
<title>Node7</title>
<g id="a_node7"><a xlink:title=" ">
<polygon fill="none" stroke="#bfbfbf" points="554.5,-118 554.5,-137 623.5,-137 623.5,-118 554.5,-118"/>
<text text-anchor="middle" x="589" y="-125" font-family="Helvetica,sans-Serif" font-size="10.00">QTimeLine</text>
</a>
</g>
</g>
<!-- Node2&#45;&gt;Node7 -->
<g id="edge6" class="edge">
<title>Node2&#45;&gt;Node7</title>
<path fill="none" stroke="midnightblue" d="M433.21,-179.48C460.97,-170.45 506.09,-155.76 545,-143 547.72,-142.11 550.54,-141.18 553.37,-140.25"/>
<polygon fill="midnightblue" stroke="midnightblue" points="554.54,-143.55 562.95,-137.1 552.35,-136.9 554.54,-143.55"/>
</g>
<!-- Node8 -->
<g id="node8" class="node">
<title>Node8</title>
<g id="a_node8"><a xlink:title=" ">
<polygon fill="none" stroke="#bfbfbf" points="641.5,-118 641.5,-137 700.5,-137 700.5,-118 641.5,-118"/>
<text text-anchor="middle" x="671" y="-125" font-family="Helvetica,sans-Serif" font-size="10.00">QWidget</text>
</a>
</g>
</g>
<!-- Node2&#45;&gt;Node8 -->
<g id="edge7" class="edge">
<title>Node2&#45;&gt;Node8</title>
<path fill="none" stroke="midnightblue" d="M452.65,-179.76C508.28,-169.55 598.95,-152.39 632,-143 634.64,-142.25 637.37,-141.4 640.08,-140.5"/>
<polygon fill="midnightblue" stroke="midnightblue" points="641.48,-143.72 649.75,-137.1 639.15,-137.12 641.48,-143.72"/>
</g>
<!-- Node9 -->
<g id="node9" class="node">
<title>Node9</title>
<g id="a_node9"><a xlink:href="constants_8h.html" target="_top" xlink:title=" ">
<polygon fill="none" stroke="black" points="248,-56.5 248,-75.5 338,-75.5 338,-56.5 248,-56.5"/>
<text text-anchor="middle" x="293" y="-63.5" font-family="Helvetica,sans-Serif" font-size="10.00">src/constants.h</text>
</a>
</g>
</g>
<!-- Node2&#45;&gt;Node9 -->
<g id="edge8" class="edge">
<title>Node2&#45;&gt;Node9</title>
<path fill="none" stroke="midnightblue" d="M389.83,-179.44C375.08,-171.47 353.91,-158.52 339,-143 322.37,-125.68 308.95,-101.32 300.99,-84.89"/>
<polygon fill="midnightblue" stroke="midnightblue" points="304.16,-83.4 296.76,-75.81 297.81,-86.35 304.16,-83.4"/>
</g>
<!-- Node11 -->
<g id="node11" class="node">
<title>Node11</title>
<g id="a_node11"><a xlink:href="gui__advantage__bar_8h.html" target="_top" xlink:title=" ">
<polygon fill="none" stroke="black" points="755.5,-112.5 755.5,-142.5 876.5,-142.5 876.5,-112.5 755.5,-112.5"/>
<text text-anchor="start" x="763.5" y="-130.5" font-family="Helvetica,sans-Serif" font-size="10.00">src/gui/screen_game</text>
<text text-anchor="middle" x="816" y="-119.5" font-family="Helvetica,sans-Serif" font-size="10.00">/gui_advantage_bar.h</text>
</a>
</g>
</g>
<!-- Node2&#45;&gt;Node11 -->
<g id="edge10" class="edge">
<title>Node2&#45;&gt;Node11</title>
<path fill="none" stroke="midnightblue" d="M452.65,-180.31C455.48,-179.86 458.28,-179.42 461,-179 559.37,-163.81 673.34,-147.89 745.05,-138.09"/>
<polygon fill="midnightblue" stroke="midnightblue" points="745.88,-141.5 755.32,-136.68 744.94,-134.57 745.88,-141.5"/>
</g>
<!-- Node15 -->
<g id="node15" class="node">
<title>Node15</title>
<g id="a_node15"><a xlink:href="gui__figure_8h.html" target="_top" xlink:title=" ">
<polygon fill="none" stroke="black" points="348.5,-112.5 348.5,-142.5 465.5,-142.5 465.5,-112.5 348.5,-112.5"/>
<text text-anchor="start" x="356.5" y="-130.5" font-family="Helvetica,sans-Serif" font-size="10.00">src/gui/screen_game</text>
<text text-anchor="middle" x="407" y="-119.5" font-family="Helvetica,sans-Serif" font-size="10.00">/gui_figure.h</text>
</a>
</g>
</g>
<!-- Node2&#45;&gt;Node15 -->
<g id="edge14" class="edge">
<title>Node2&#45;&gt;Node15</title>
<path fill="none" stroke="midnightblue" d="M407,-179.48C407,-172.47 407,-162.19 407,-152.7"/>
<polygon fill="midnightblue" stroke="midnightblue" points="410.5,-152.52 407,-142.52 403.5,-152.52 410.5,-152.52"/>
</g>
<!-- Node10 -->
<g id="node10" class="node">
<title>Node10</title>
<g id="a_node10"><a xlink:title=" ">
<polygon fill="none" stroke="#bfbfbf" points="265.5,-0.5 265.5,-19.5 320.5,-19.5 320.5,-0.5 265.5,-0.5"/>
<text text-anchor="middle" x="293" y="-7.5" font-family="Helvetica,sans-Serif" font-size="10.00">QVector</text>
</a>
</g>
</g>
<!-- Node9&#45;&gt;Node10 -->
<g id="edge9" class="edge">
<title>Node9&#45;&gt;Node10</title>
<path fill="none" stroke="midnightblue" d="M293,-56.08C293,-49.01 293,-38.86 293,-29.99"/>
<polygon fill="midnightblue" stroke="midnightblue" points="296.5,-29.75 293,-19.75 289.5,-29.75 296.5,-29.75"/>
</g>
<!-- Node12 -->
<g id="node12" class="node">
<title>Node12</title>
<g id="a_node12"><a xlink:title=" ">
<polygon fill="none" stroke="#bfbfbf" points="716.5,-56.5 716.5,-75.5 805.5,-75.5 805.5,-56.5 716.5,-56.5"/>
<text text-anchor="middle" x="761" y="-63.5" font-family="Helvetica,sans-Serif" font-size="10.00">QGraphicsItem</text>
</a>
</g>
</g>
<!-- Node11&#45;&gt;Node12 -->
<g id="edge11" class="edge">
<title>Node11&#45;&gt;Node12</title>
<path fill="none" stroke="midnightblue" d="M802.97,-112.4C794.81,-103.58 784.28,-92.18 775.81,-83.02"/>
<polygon fill="midnightblue" stroke="midnightblue" points="778.36,-80.63 769,-75.66 773.22,-85.38 778.36,-80.63"/>
</g>
<!-- Node13 -->
<g id="node13" class="node">
<title>Node13</title>
<g id="a_node13"><a xlink:title=" ">
<polygon fill="none" stroke="#bfbfbf" points="823,-56.5 823,-75.5 881,-75.5 881,-56.5 823,-56.5"/>
<text text-anchor="middle" x="852" y="-63.5" font-family="Helvetica,sans-Serif" font-size="10.00">QPainter</text>
</a>
</g>
</g>
<!-- Node11&#45;&gt;Node13 -->
<g id="edge12" class="edge">
<title>Node11&#45;&gt;Node13</title>
<path fill="none" stroke="midnightblue" d="M824.53,-112.4C829.6,-104.02 836.07,-93.33 841.46,-84.42"/>
<polygon fill="midnightblue" stroke="midnightblue" points="844.58,-86.03 846.76,-75.66 838.59,-82.4 844.58,-86.03"/>
</g>
<!-- Node14 -->
<g id="node14" class="node">
<title>Node14</title>
<g id="a_node14"><a xlink:title=" ">
<polygon fill="none" stroke="#bfbfbf" points="899,-56.5 899,-75.5 941,-75.5 941,-56.5 899,-56.5"/>
<text text-anchor="middle" x="920" y="-63.5" font-family="Helvetica,sans-Serif" font-size="10.00">QPen</text>
</a>
</g>
</g>
<!-- Node11&#45;&gt;Node14 -->
<g id="edge13" class="edge">
<title>Node11&#45;&gt;Node14</title>
<path fill="none" stroke="midnightblue" d="M840.65,-112.4C857.32,-102.86 879.23,-90.32 895.81,-80.84"/>
<polygon fill="midnightblue" stroke="midnightblue" points="897.93,-83.66 904.87,-75.66 894.45,-77.59 897.93,-83.66"/>
</g>
<!-- Node15&#45;&gt;Node5 -->
<g id="edge16" class="edge">
<title>Node15&#45;&gt;Node5</title>
<path fill="none" stroke="midnightblue" d="M352.55,-112.47C311.83,-101.99 256.9,-87.84 219.18,-78.12"/>
<polygon fill="midnightblue" stroke="midnightblue" points="219.58,-74.61 209.02,-75.51 217.84,-81.39 219.58,-74.61"/>
</g>
<!-- Node15&#45;&gt;Node9 -->
<g id="edge18" class="edge">
<title>Node15&#45;&gt;Node9</title>
<path fill="none" stroke="midnightblue" d="M379.98,-112.4C361.37,-102.68 336.79,-89.86 318.51,-80.31"/>
<polygon fill="midnightblue" stroke="midnightblue" points="320.07,-77.18 309.59,-75.66 316.83,-83.39 320.07,-77.18"/>
</g>
<!-- Node16 -->
<g id="node16" class="node">
<title>Node16</title>
<g id="a_node16"><a xlink:title=" ">
<polygon fill="none" stroke="#bfbfbf" points="356,-56.5 356,-75.5 512,-75.5 512,-56.5 356,-56.5"/>
<text text-anchor="middle" x="434" y="-63.5" font-family="Helvetica,sans-Serif" font-size="10.00">QGraphicsSceneMouseEvent</text>
</a>
</g>
</g>
<!-- Node15&#45;&gt;Node16 -->
<g id="edge15" class="edge">
<title>Node15&#45;&gt;Node16</title>
<path fill="none" stroke="midnightblue" d="M413.4,-112.4C417.12,-104.2 421.85,-93.78 425.83,-84.99"/>
<polygon fill="midnightblue" stroke="midnightblue" points="429.13,-86.21 430.07,-75.66 422.75,-83.32 429.13,-86.21"/>
</g>
<!-- Node17 -->
<g id="node17" class="node">
<title>Node17</title>
<g id="a_node17"><a xlink:title=" ">
<polygon fill="none" stroke="#bfbfbf" points="530,-56.5 530,-75.5 616,-75.5 616,-56.5 530,-56.5"/>
<text text-anchor="middle" x="573" y="-63.5" font-family="Helvetica,sans-Serif" font-size="10.00">QSvgRenderer</text>
</a>
</g>
</g>
<!-- Node15&#45;&gt;Node17 -->
<g id="edge17" class="edge">
<title>Node15&#45;&gt;Node17</title>
<path fill="none" stroke="midnightblue" d="M446.34,-112.4C474.56,-102.28 512.21,-88.79 539.1,-79.15"/>
<polygon fill="midnightblue" stroke="midnightblue" points="540.61,-82.33 548.85,-75.66 538.25,-75.74 540.61,-82.33"/>
</g>
<!-- Node18 -->
<g id="node18" class="node">
<title>Node18</title>
<g id="a_node18"><a xlink:href="utils_8h.html" target="_top" xlink:title=" ">
<polygon fill="none" stroke="black" points="634,-56.5 634,-75.5 698,-75.5 698,-56.5 634,-56.5"/>
<text text-anchor="middle" x="666" y="-63.5" font-family="Helvetica,sans-Serif" font-size="10.00">src/utils.h</text>
</a>
</g>
</g>
<!-- Node15&#45;&gt;Node18 -->
<g id="edge19" class="edge">
<title>Node15&#45;&gt;Node18</title>
<path fill="none" stroke="midnightblue" d="M465.77,-113C513.99,-101.92 581.09,-86.51 624.04,-76.64"/>
<polygon fill="midnightblue" stroke="midnightblue" points="624.92,-80.03 633.88,-74.38 623.35,-73.21 624.92,-80.03"/>
</g>
<!-- Node19 -->
<g id="node19" class="node">
<title>Node19</title>
<g id="a_node19"><a xlink:title=" ">
<polygon fill="none" stroke="#bfbfbf" points="643.5,-0.5 643.5,-19.5 688.5,-19.5 688.5,-0.5 643.5,-0.5"/>
<text text-anchor="middle" x="666" y="-7.5" font-family="Helvetica,sans-Serif" font-size="10.00">utility</text>
</a>
</g>
</g>
<!-- Node18&#45;&gt;Node19 -->
<g id="edge20" class="edge">
<title>Node18&#45;&gt;Node19</title>
<path fill="none" stroke="midnightblue" d="M666,-56.08C666,-49.01 666,-38.86 666,-29.99"/>
<polygon fill="midnightblue" stroke="midnightblue" points="669.5,-29.75 666,-19.75 662.5,-29.75 669.5,-29.75"/>
</g>
</g>
</svg>
