<?xml version="1.0" encoding="UTF-8" standalone="no"?>
<!DOCTYPE svg PUBLIC "-//W3C//DTD SVG 1.1//EN"
 "http://www.w3.org/Graphics/SVG/1.1/DTD/svg11.dtd">
<!-- Generated by graphviz version 2.50.0 (0)
 -->
<!-- Title: src/gui/screen_game/screen_game.h Pages: 1 -->
<svg width="296pt" height="173pt"
 viewBox="0.00 0.00 295.50 173.00" xmlns="http://www.w3.org/2000/svg" xmlns:xlink="http://www.w3.org/1999/xlink">
<g id="graph0" class="graph" transform="scale(1 1) rotate(0) translate(4 169)">
<title>src/gui/screen_game/screen_game.h</title>
<!-- Node1 -->
<g id="node1" class="node">
<title>Node1</title>
<g id="a_node1"><a xlink:title=" ">
<polygon fill="#bfbfbf" stroke="black" points="117.5,-134.5 117.5,-164.5 224.5,-164.5 224.5,-134.5 117.5,-134.5"/>
<text text-anchor="start" x="125.5" y="-152.5" font-family="Helvetica,sans-Serif" font-size="10.00">src/gui/screen_game</text>
<text text-anchor="middle" x="171" y="-141.5" font-family="Helvetica,sans-Serif" font-size="10.00">/screen_game.h</text>
</a>
</g>
</g>
<!-- Node2 -->
<g id="node2" class="node">
<title>Node2</title>
<g id="a_node2"><a xlink:href="main__window_8h.html" target="_top" xlink:title=" ">
<polygon fill="none" stroke="black" points="54,-67.5 54,-97.5 162,-97.5 162,-67.5 54,-67.5"/>
<text text-anchor="start" x="62" y="-85.5" font-family="Helvetica,sans-Serif" font-size="10.00">src/gui/main_window</text>
<text text-anchor="middle" x="108" y="-74.5" font-family="Helvetica,sans-Serif" font-size="10.00">/main_window.h</text>
</a>
</g>
</g>
<!-- Node1&#45;&gt;Node2 -->
<g id="edge1" class="edge">
<title>Node1&#45;&gt;Node2</title>
<path fill="none" stroke="midnightblue" d="M150.19,-127.02C140.8,-117.34 129.98,-106.17 121.64,-97.58"/>
<polygon fill="midnightblue" stroke="midnightblue" points="147.86,-129.65 157.33,-134.4 152.88,-124.78 147.86,-129.65"/>
</g>
<!-- Node5 -->
<g id="node5" class="node">
<title>Node5</title>
<g id="a_node5"><a xlink:href="screen__game_8cpp.html" target="_top" xlink:title=" ">
<polygon fill="none" stroke="black" points="180.5,-67.5 180.5,-97.5 287.5,-97.5 287.5,-67.5 180.5,-67.5"/>
<text text-anchor="start" x="188.5" y="-85.5" font-family="Helvetica,sans-Serif" font-size="10.00">src/gui/screen_game</text>
<text text-anchor="middle" x="234" y="-74.5" font-family="Helvetica,sans-Serif" font-size="10.00">/screen_game.cpp</text>
</a>
</g>
</g>
<!-- Node1&#45;&gt;Node5 -->
<g id="edge4" class="edge">
<title>Node1&#45;&gt;Node5</title>
<path fill="none" stroke="midnightblue" d="M191.81,-127.02C201.2,-117.34 212.02,-106.17 220.36,-97.58"/>
<polygon fill="midnightblue" stroke="midnightblue" points="189.12,-124.78 184.67,-134.4 194.14,-129.65 189.12,-124.78"/>
</g>
<!-- Node3 -->
<g id="node3" class="node">
<title>Node3</title>
<g id="a_node3"><a xlink:href="main__window_8cpp.html" target="_top" xlink:title=" ">
<polygon fill="none" stroke="black" points="0,-0.5 0,-30.5 108,-30.5 108,-0.5 0,-0.5"/>
<text text-anchor="start" x="8" y="-18.5" font-family="Helvetica,sans-Serif" font-size="10.00">src/gui/main_window</text>
<text text-anchor="middle" x="54" y="-7.5" font-family="Helvetica,sans-Serif" font-size="10.00">/main_window.cpp</text>
</a>
</g>
</g>
<!-- Node2&#45;&gt;Node3 -->
<g id="edge2" class="edge">
<title>Node2&#45;&gt;Node3</title>
<path fill="none" stroke="midnightblue" d="M89.68,-59.45C81.75,-49.9 72.7,-39 65.69,-30.58"/>
<polygon fill="midnightblue" stroke="midnightblue" points="87.2,-61.94 96.28,-67.4 92.58,-57.47 87.2,-61.94"/>
</g>
<!-- Node4 -->
<g id="node4" class="node">
<title>Node4</title>
<g id="a_node4"><a xlink:href="main_8cpp.html" target="_top" xlink:title=" ">
<polygon fill="none" stroke="black" points="126.5,-6 126.5,-25 199.5,-25 199.5,-6 126.5,-6"/>
<text text-anchor="middle" x="163" y="-13" font-family="Helvetica,sans-Serif" font-size="10.00">src/main.cpp</text>
</a>
</g>
</g>
<!-- Node2&#45;&gt;Node4 -->
<g id="edge3" class="edge">
<title>Node2&#45;&gt;Node4</title>
<path fill="none" stroke="midnightblue" d="M126.48,-59.66C136.46,-47.86 148.22,-33.97 155.64,-25.19"/>
<polygon fill="midnightblue" stroke="midnightblue" points="123.72,-57.5 119.93,-67.4 129.07,-62.02 123.72,-57.5"/>
</g>
</g>
</svg>
