<?xml version="1.0" encoding="UTF-8" standalone="no"?>
<!DOCTYPE svg PUBLIC "-//W3C//DTD SVG 1.1//EN"
 "http://www.w3.org/Graphics/SVG/1.1/DTD/svg11.dtd">
<!-- Generated by graphviz version 2.43.0 (0)
 -->
<!-- Title: src/gui/screen_game/screen_game.h Pages: 1 -->
<svg width="1739pt" height="218pt"
 viewBox="0.00 0.00 1739.00 218.00" xmlns="http://www.w3.org/2000/svg" xmlns:xlink="http://www.w3.org/1999/xlink">
<g id="graph0" class="graph" transform="scale(1 1) rotate(0) translate(4 214)">
<title>src/gui/screen_game/screen_game.h</title>
<!-- Node1 -->
<g id="node1" class="node">
<title>Node1</title>
<g id="a_node1"><a xlink:title=" ">
<polygon fill="#bfbfbf" stroke="black" points="668.5,-179.5 668.5,-209.5 785.5,-209.5 785.5,-179.5 668.5,-179.5"/>
<text text-anchor="start" x="676.5" y="-197.5" font-family="Helvetica,sans-Serif" font-size="10.00">src/gui/screen_game</text>
<text text-anchor="middle" x="727" y="-186.5" font-family="Helvetica,sans-Serif" font-size="10.00">/screen_game.h</text>
</a>
</g>
</g>
<!-- Node2 -->
<g id="node2" class="node">
<title>Node2</title>
<g id="a_node2"><a xlink:title=" ">
<polygon fill="none" stroke="#bfbfbf" points="0,-118 0,-137 134,-137 134,-118 0,-118"/>
<text text-anchor="middle" x="67" y="-125" font-family="Helvetica,sans-Serif" font-size="10.00">QGraphicsColorizeEffect</text>
</a>
</g>
</g>
<!-- Node1&#45;&gt;Node2 -->
<g id="edge1" class="edge">
<title>Node1&#45;&gt;Node2</title>
<path fill="none" stroke="midnightblue" d="M668.34,-190.42C562.85,-184.43 334.28,-169.45 143,-143 134.68,-141.85 125.89,-140.4 117.36,-138.86"/>
<polygon fill="midnightblue" stroke="midnightblue" points="117.97,-135.41 107.5,-137.02 116.69,-142.29 117.97,-135.41"/>
</g>
<!-- Node3 -->
<g id="node3" class="node">
<title>Node3</title>
<g id="a_node3"><a xlink:title=" ">
<polygon fill="none" stroke="#bfbfbf" points="152,-118 152,-137 274,-137 274,-118 152,-118"/>
<text text-anchor="middle" x="213" y="-125" font-family="Helvetica,sans-Serif" font-size="10.00">QGraphicsEllipseItem</text>
</a>
</g>
</g>
<!-- Node1&#45;&gt;Node3 -->
<g id="edge2" class="edge">
<title>Node1&#45;&gt;Node3</title>
<path fill="none" stroke="midnightblue" d="M668.23,-188.53C583.02,-180.94 420.31,-164.98 283,-143 275.84,-141.85 268.3,-140.47 260.93,-139.03"/>
<polygon fill="midnightblue" stroke="midnightblue" points="261.52,-135.58 251.03,-137.03 260.14,-142.44 261.52,-135.58"/>
</g>
<!-- Node4 -->
<g id="node4" class="node">
<title>Node4</title>
<g id="a_node4"><a xlink:title=" ">
<polygon fill="none" stroke="#bfbfbf" points="292,-118 292,-137 432,-137 432,-118 292,-118"/>
<text text-anchor="middle" x="362" y="-125" font-family="Helvetica,sans-Serif" font-size="10.00">QGraphicsItemAnimation</text>
</a>
</g>
</g>
<!-- Node1&#45;&gt;Node4 -->
<g id="edge3" class="edge">
<title>Node1&#45;&gt;Node4</title>
<path fill="none" stroke="midnightblue" d="M668.36,-183.06C600.12,-170.9 488.14,-150.96 420.13,-138.85"/>
<polygon fill="midnightblue" stroke="midnightblue" points="420.47,-135.36 410.01,-137.05 419.24,-142.25 420.47,-135.36"/>
</g>
<!-- Node5 -->
<g id="node5" class="node">
<title>Node5</title>
<g id="a_node5"><a xlink:title=" ">
<polygon fill="none" stroke="#bfbfbf" points="1106,-56.5 1106,-75.5 1202,-75.5 1202,-56.5 1106,-56.5"/>
<text text-anchor="middle" x="1154" y="-63.5" font-family="Helvetica,sans-Serif" font-size="10.00">QGraphicsScene</text>
</a>
</g>
</g>
<!-- Node1&#45;&gt;Node5 -->
<g id="edge4" class="edge">
<title>Node1&#45;&gt;Node5</title>
<path fill="none" stroke="midnightblue" d="M785.89,-183.74C834.06,-175.08 903.66,-161.01 963,-143 1022.46,-124.95 1089.4,-96.29 1126.14,-79.81"/>
<polygon fill="midnightblue" stroke="midnightblue" points="1127.99,-82.81 1135.66,-75.5 1125.11,-76.43 1127.99,-82.81"/>
</g>
<!-- Node6 -->
<g id="node6" class="node">
<title>Node6</title>
<g id="a_node6"><a xlink:title=" ">
<polygon fill="none" stroke="#bfbfbf" points="370.5,-56.5 370.5,-75.5 477.5,-75.5 477.5,-56.5 370.5,-56.5"/>
<text text-anchor="middle" x="424" y="-63.5" font-family="Helvetica,sans-Serif" font-size="10.00">QGraphicsSvgItem</text>
</a>
</g>
</g>
<!-- Node1&#45;&gt;Node6 -->
<g id="edge5" class="edge">
<title>Node1&#45;&gt;Node6</title>
<path fill="none" stroke="midnightblue" d="M668.45,-186.6C624.93,-179.8 565.03,-166.83 517,-143 500.6,-134.86 462.95,-102.14 440.92,-82.38"/>
<polygon fill="midnightblue" stroke="midnightblue" points="443.08,-79.62 433.31,-75.52 438.39,-84.82 443.08,-79.62"/>
</g>
<!-- Node7 -->
<g id="node7" class="node">
<title>Node7</title>
<g id="a_node7"><a xlink:title=" ">
<polygon fill="none" stroke="#bfbfbf" points="299.5,-56.5 299.5,-75.5 352.5,-75.5 352.5,-56.5 299.5,-56.5"/>
<text text-anchor="middle" x="326" y="-63.5" font-family="Helvetica,sans-Serif" font-size="10.00">QString</text>
</a>
</g>
</g>
<!-- Node1&#45;&gt;Node7 -->
<g id="edge6" class="edge">
<title>Node1&#45;&gt;Node7</title>
<path fill="none" stroke="midnightblue" d="M668.49,-190.94C615.19,-186.56 535.62,-174.74 474,-143 456.11,-133.79 458.01,-122.75 441,-112 416.58,-96.57 386,-84.91 362.52,-77.34"/>
<polygon fill="midnightblue" stroke="midnightblue" points="363.52,-73.98 352.93,-74.34 361.43,-80.66 363.52,-73.98"/>
</g>
<!-- Node8 -->
<g id="node8" class="node">
<title>Node8</title>
<g id="a_node8"><a xlink:title=" ">
<polygon fill="none" stroke="#bfbfbf" points="651.5,-118 651.5,-137 720.5,-137 720.5,-118 651.5,-118"/>
<text text-anchor="middle" x="686" y="-125" font-family="Helvetica,sans-Serif" font-size="10.00">QTimeLine</text>
</a>
</g>
</g>
<!-- Node1&#45;&gt;Node8 -->
<g id="edge7" class="edge">
<title>Node1&#45;&gt;Node8</title>
<path fill="none" stroke="midnightblue" d="M718.1,-179.4C711.9,-169.56 703.58,-156.38 696.97,-145.89"/>
<polygon fill="midnightblue" stroke="midnightblue" points="699.78,-143.79 691.48,-137.19 693.86,-147.52 699.78,-143.79"/>
</g>
<!-- Node9 -->
<g id="node9" class="node">
<title>Node9</title>
<g id="a_node9"><a xlink:title=" ">
<polygon fill="none" stroke="#bfbfbf" points="738.5,-118 738.5,-137 797.5,-137 797.5,-118 738.5,-118"/>
<text text-anchor="middle" x="768" y="-125" font-family="Helvetica,sans-Serif" font-size="10.00">QWidget</text>
</a>
</g>
</g>
<!-- Node1&#45;&gt;Node9 -->
<g id="edge8" class="edge">
<title>Node1&#45;&gt;Node9</title>
<path fill="none" stroke="midnightblue" d="M735.9,-179.4C742.1,-169.56 750.42,-156.38 757.03,-145.89"/>
<polygon fill="midnightblue" stroke="midnightblue" points="760.14,-147.52 762.52,-137.19 754.22,-143.79 760.14,-147.52"/>
</g>
<!-- Node10 -->
<g id="node10" class="node">
<title>Node10</title>
<g id="a_node10"><a xlink:href="constants_8h.html" target="_top" xlink:title=" ">
<polygon fill="none" stroke="black" points="916,-56.5 916,-75.5 1006,-75.5 1006,-56.5 916,-56.5"/>
<text text-anchor="middle" x="961" y="-63.5" font-family="Helvetica,sans-Serif" font-size="10.00">src/constants.h</text>
</a>
</g>
</g>
<!-- Node1&#45;&gt;Node10 -->
<g id="edge9" class="edge">
<title>Node1&#45;&gt;Node10</title>
<path fill="none" stroke="midnightblue" d="M785.75,-186.48C841.25,-178.67 919.17,-164.28 941,-143 956.31,-128.08 960.37,-102.95 961.22,-85.7"/>
<polygon fill="midnightblue" stroke="midnightblue" points="964.72,-85.75 961.4,-75.69 957.72,-85.63 964.72,-85.75"/>
</g>
<!-- Node12 -->
<g id="node12" class="node">
<title>Node12</title>
<g id="a_node12"><a xlink:href="gui__point_8h.html" target="_top" xlink:title=" ">
<polygon fill="none" stroke="black" points="1214.5,-112.5 1214.5,-142.5 1329.5,-142.5 1329.5,-112.5 1214.5,-112.5"/>
<text text-anchor="start" x="1222.5" y="-130.5" font-family="Helvetica,sans-Serif" font-size="10.00">src/gui/gui_point/gui</text>
<text text-anchor="middle" x="1272" y="-119.5" font-family="Helvetica,sans-Serif" font-size="10.00">_point.h</text>
</a>
</g>
</g>
<!-- Node1&#45;&gt;Node12 -->
<g id="edge11" class="edge">
<title>Node1&#45;&gt;Node12</title>
<path fill="none" stroke="midnightblue" d="M785.77,-189.34C874.28,-182.63 1047.2,-167.77 1204.03,-143.04"/>
<polygon fill="midnightblue" stroke="midnightblue" points="1205.01,-146.42 1214.33,-141.39 1203.9,-139.51 1205.01,-146.42"/>
</g>
<!-- Node18 -->
<g id="node18" class="node">
<title>Node18</title>
<g id="a_node18"><a xlink:href="gui__scene_8h.html" target="_top" xlink:title=" ">
<polygon fill="none" stroke="black" points="1077.5,-112.5 1077.5,-142.5 1196.5,-142.5 1196.5,-112.5 1077.5,-112.5"/>
<text text-anchor="start" x="1085.5" y="-130.5" font-family="Helvetica,sans-Serif" font-size="10.00">src/gui/gui_scene/gui</text>
<text text-anchor="middle" x="1137" y="-119.5" font-family="Helvetica,sans-Serif" font-size="10.00">_scene.h</text>
</a>
</g>
</g>
<!-- Node1&#45;&gt;Node18 -->
<g id="edge17" class="edge">
<title>Node1&#45;&gt;Node18</title>
<path fill="none" stroke="midnightblue" d="M785.74,-184.19C860.17,-172.39 988.26,-152.08 1067.48,-139.52"/>
<polygon fill="midnightblue" stroke="midnightblue" points="1068.04,-142.98 1077.37,-137.95 1066.94,-136.06 1068.04,-142.98"/>
</g>
<!-- Node21 -->
<g id="node21" class="node">
<title>Node21</title>
<g id="a_node21"><a xlink:href="gui__win_8h.html" target="_top" xlink:title=" ">
<polygon fill="none" stroke="black" points="526.5,-112.5 526.5,-142.5 633.5,-142.5 633.5,-112.5 526.5,-112.5"/>
<text text-anchor="start" x="534.5" y="-130.5" font-family="Helvetica,sans-Serif" font-size="10.00">src/gui/gui_win/gui</text>
<text text-anchor="middle" x="580" y="-119.5" font-family="Helvetica,sans-Serif" font-size="10.00">_win.h</text>
</a>
</g>
</g>
<!-- Node1&#45;&gt;Node21 -->
<g id="edge22" class="edge">
<title>Node1&#45;&gt;Node21</title>
<path fill="none" stroke="midnightblue" d="M695.1,-179.4C673.43,-169.81 644.57,-157.05 621.16,-146.7"/>
<polygon fill="midnightblue" stroke="midnightblue" points="622.4,-143.42 611.83,-142.58 619.56,-149.82 622.4,-143.42"/>
</g>
<!-- Node23 -->
<g id="node23" class="node">
<title>Node23</title>
<g id="a_node23"><a xlink:href="gui__advantage__bar_8h.html" target="_top" xlink:title=" ">
<polygon fill="none" stroke="black" points="1520.5,-112.5 1520.5,-142.5 1641.5,-142.5 1641.5,-112.5 1520.5,-112.5"/>
<text text-anchor="start" x="1528.5" y="-130.5" font-family="Helvetica,sans-Serif" font-size="10.00">src/gui/screen_game</text>
<text text-anchor="middle" x="1581" y="-119.5" font-family="Helvetica,sans-Serif" font-size="10.00">/gui_advantage_bar.h</text>
</a>
</g>
</g>
<!-- Node1&#45;&gt;Node23 -->
<g id="edge28" class="edge">
<title>Node1&#45;&gt;Node23</title>
<path fill="none" stroke="midnightblue" d="M785.7,-189.03C938.05,-177.44 1345.67,-146.41 1510.44,-133.87"/>
<polygon fill="midnightblue" stroke="midnightblue" points="1510.76,-137.36 1520.47,-133.11 1510.23,-130.38 1510.76,-137.36"/>
</g>
<!-- Node26 -->
<g id="node26" class="node">
<title>Node26</title>
<g id="a_node26"><a xlink:href="gui__figure_8h.html" target="_top" xlink:title=" ">
<polygon fill="none" stroke="black" points="815.5,-112.5 815.5,-142.5 932.5,-142.5 932.5,-112.5 815.5,-112.5"/>
<text text-anchor="start" x="823.5" y="-130.5" font-family="Helvetica,sans-Serif" font-size="10.00">src/gui/screen_game</text>
<text text-anchor="middle" x="874" y="-119.5" font-family="Helvetica,sans-Serif" font-size="10.00">/gui_figure.h</text>
</a>
</g>
</g>
<!-- Node1&#45;&gt;Node26 -->
<g id="edge32" class="edge">
<title>Node1&#45;&gt;Node26</title>
<path fill="none" stroke="midnightblue" d="M758.9,-179.4C780.57,-169.81 809.43,-157.05 832.84,-146.7"/>
<polygon fill="midnightblue" stroke="midnightblue" points="834.44,-149.82 842.17,-142.58 831.6,-143.42 834.44,-149.82"/>
</g>
<!-- Node11 -->
<g id="node11" class="node">
<title>Node11</title>
<g id="a_node11"><a xlink:title=" ">
<polygon fill="none" stroke="#bfbfbf" points="933.5,-0.5 933.5,-19.5 988.5,-19.5 988.5,-0.5 933.5,-0.5"/>
<text text-anchor="middle" x="961" y="-7.5" font-family="Helvetica,sans-Serif" font-size="10.00">QVector</text>
</a>
</g>
</g>
<!-- Node10&#45;&gt;Node11 -->
<g id="edge10" class="edge">
<title>Node10&#45;&gt;Node11</title>
<path fill="none" stroke="midnightblue" d="M961,-56.08C961,-49.01 961,-38.86 961,-29.99"/>
<polygon fill="midnightblue" stroke="midnightblue" points="964.5,-29.75 961,-19.75 957.5,-29.75 964.5,-29.75"/>
</g>
<!-- Node13 -->
<g id="node13" class="node">
<title>Node13</title>
<g id="a_node13"><a xlink:title=" ">
<polygon fill="none" stroke="#bfbfbf" points="1390,-56.5 1390,-75.5 1488,-75.5 1488,-56.5 1390,-56.5"/>
<text text-anchor="middle" x="1439" y="-63.5" font-family="Helvetica,sans-Serif" font-size="10.00">QGraphicsObject</text>
</a>
</g>
</g>
<!-- Node12&#45;&gt;Node13 -->
<g id="edge12" class="edge">
<title>Node12&#45;&gt;Node13</title>
<path fill="none" stroke="midnightblue" d="M1311.58,-112.4C1340.1,-102.24 1378.17,-88.67 1405.26,-79.02"/>
<polygon fill="midnightblue" stroke="midnightblue" points="1406.45,-82.31 1414.7,-75.66 1404.11,-75.72 1406.45,-82.31"/>
</g>
<!-- Node14 -->
<g id="node14" class="node">
<title>Node14</title>
<g id="a_node14"><a xlink:title=" ">
<polygon fill="none" stroke="#bfbfbf" points="600,-56.5 600,-75.5 724,-75.5 724,-56.5 600,-56.5"/>
<text text-anchor="middle" x="662" y="-63.5" font-family="Helvetica,sans-Serif" font-size="10.00">QGraphicsSceneEvent</text>
</a>
</g>
</g>
<!-- Node12&#45;&gt;Node14 -->
<g id="edge13" class="edge">
<title>Node12&#45;&gt;Node14</title>
<path fill="none" stroke="midnightblue" d="M1214.35,-113.5C1211.19,-112.95 1208.06,-112.45 1205,-112 1000.06,-82.15 944.05,-96.76 734.42,-76.09"/>
<polygon fill="midnightblue" stroke="midnightblue" points="734.62,-72.59 724.32,-75.08 733.92,-79.56 734.62,-72.59"/>
</g>
<!-- Node15 -->
<g id="node15" class="node">
<title>Node15</title>
<g id="a_node15"><a xlink:title=" ">
<polygon fill="none" stroke="#bfbfbf" points="1506,-56.5 1506,-75.5 1564,-75.5 1564,-56.5 1506,-56.5"/>
<text text-anchor="middle" x="1535" y="-63.5" font-family="Helvetica,sans-Serif" font-size="10.00">QPainter</text>
</a>
</g>
</g>
<!-- Node12&#45;&gt;Node15 -->
<g id="edge14" class="edge">
<title>Node12&#45;&gt;Node15</title>
<path fill="none" stroke="midnightblue" d="M1329.85,-113.71C1373.01,-104.13 1433.7,-90.55 1495.96,-76.22"/>
<polygon fill="midnightblue" stroke="midnightblue" points="1497,-79.57 1505.96,-73.91 1495.43,-72.75 1497,-79.57"/>
</g>
<!-- Node16 -->
<g id="node16" class="node">
<title>Node16</title>
<g id="a_node16"><a xlink:href="utils_8h.html" target="_top" xlink:title=" ">
<polygon fill="none" stroke="black" points="1024,-56.5 1024,-75.5 1088,-75.5 1088,-56.5 1024,-56.5"/>
<text text-anchor="middle" x="1056" y="-63.5" font-family="Helvetica,sans-Serif" font-size="10.00">src/utils.h</text>
</a>
</g>
</g>
<!-- Node12&#45;&gt;Node16 -->
<g id="edge15" class="edge">
<title>Node12&#45;&gt;Node16</title>
<path fill="none" stroke="midnightblue" d="M1221.08,-112.47C1183.17,-102.03 1132.08,-87.96 1096.83,-78.25"/>
<polygon fill="midnightblue" stroke="midnightblue" points="1097.45,-74.79 1086.88,-75.51 1095.59,-81.54 1097.45,-74.79"/>
</g>
<!-- Node17 -->
<g id="node17" class="node">
<title>Node17</title>
<g id="a_node17"><a xlink:title=" ">
<polygon fill="none" stroke="#bfbfbf" points="1033.5,-0.5 1033.5,-19.5 1078.5,-19.5 1078.5,-0.5 1033.5,-0.5"/>
<text text-anchor="middle" x="1056" y="-7.5" font-family="Helvetica,sans-Serif" font-size="10.00">utility</text>
</a>
</g>
</g>
<!-- Node16&#45;&gt;Node17 -->
<g id="edge16" class="edge">
<title>Node16&#45;&gt;Node17</title>
<path fill="none" stroke="midnightblue" d="M1056,-56.08C1056,-49.01 1056,-38.86 1056,-29.99"/>
<polygon fill="midnightblue" stroke="midnightblue" points="1059.5,-29.75 1056,-19.75 1052.5,-29.75 1059.5,-29.75"/>
</g>
<!-- Node18&#45;&gt;Node5 -->
<g id="edge18" class="edge">
<title>Node18&#45;&gt;Node5</title>
<path fill="none" stroke="midnightblue" d="M1141.03,-112.4C1143.35,-104.29 1146.28,-94.01 1148.78,-85.28"/>
<polygon fill="midnightblue" stroke="midnightblue" points="1152.14,-86.23 1151.53,-75.66 1145.41,-84.31 1152.14,-86.23"/>
</g>
<!-- Node18&#45;&gt;Node16 -->
<g id="edge21" class="edge">
<title>Node18&#45;&gt;Node16</title>
<path fill="none" stroke="midnightblue" d="M1117.8,-112.4C1105.18,-103.13 1088.71,-91.03 1075.94,-81.65"/>
<polygon fill="midnightblue" stroke="midnightblue" points="1077.92,-78.76 1067.79,-75.66 1073.77,-84.4 1077.92,-78.76"/>
</g>
<!-- Node19 -->
<g id="node19" class="node">
<title>Node19</title>
<g id="a_node19"><a xlink:title=" ">
<polygon fill="none" stroke="#bfbfbf" points="1288,-56.5 1288,-75.5 1372,-75.5 1372,-56.5 1288,-56.5"/>
<text text-anchor="middle" x="1330" y="-63.5" font-family="Helvetica,sans-Serif" font-size="10.00">QMouseEvent</text>
</a>
</g>
</g>
<!-- Node18&#45;&gt;Node19 -->
<g id="edge19" class="edge">
<title>Node18&#45;&gt;Node19</title>
<path fill="none" stroke="midnightblue" d="M1182.74,-112.4C1216.23,-102.07 1261.13,-88.23 1292.52,-78.56"/>
<polygon fill="midnightblue" stroke="midnightblue" points="1293.67,-81.86 1302.2,-75.57 1291.61,-75.17 1293.67,-81.86"/>
</g>
<!-- Node20 -->
<g id="node20" class="node">
<title>Node20</title>
<g id="a_node20"><a xlink:title=" ">
<polygon fill="none" stroke="#bfbfbf" points="1220.5,-56.5 1220.5,-75.5 1269.5,-75.5 1269.5,-56.5 1220.5,-56.5"/>
<text text-anchor="middle" x="1245" y="-63.5" font-family="Helvetica,sans-Serif" font-size="10.00">QPoint</text>
</a>
</g>
</g>
<!-- Node18&#45;&gt;Node20 -->
<g id="edge20" class="edge">
<title>Node18&#45;&gt;Node20</title>
<path fill="none" stroke="midnightblue" d="M1162.59,-112.4C1180.07,-102.77 1203.09,-90.09 1220.36,-80.58"/>
<polygon fill="midnightblue" stroke="midnightblue" points="1222.22,-83.55 1229.29,-75.66 1218.84,-77.42 1222.22,-83.55"/>
</g>
<!-- Node21&#45;&gt;Node6 -->
<g id="edge24" class="edge">
<title>Node21&#45;&gt;Node6</title>
<path fill="none" stroke="midnightblue" d="M543.03,-112.4C516.62,-102.33 481.44,-88.91 456.19,-79.28"/>
<polygon fill="midnightblue" stroke="midnightblue" points="457.29,-75.95 446.7,-75.66 454.8,-82.49 457.29,-75.95"/>
</g>
<!-- Node21&#45;&gt;Node7 -->
<g id="edge25" class="edge">
<title>Node21&#45;&gt;Node7</title>
<path fill="none" stroke="midnightblue" d="M526.36,-114.53C484.22,-105.03 423.81,-91.22 362.57,-76.34"/>
<polygon fill="midnightblue" stroke="midnightblue" points="363.28,-72.91 352.74,-73.95 361.62,-79.72 363.28,-72.91"/>
</g>
<!-- Node21&#45;&gt;Node14 -->
<g id="edge23" class="edge">
<title>Node21&#45;&gt;Node14</title>
<path fill="none" stroke="midnightblue" d="M599.43,-112.4C612.21,-103.13 628.89,-91.03 641.81,-81.65"/>
<polygon fill="midnightblue" stroke="midnightblue" points="644.03,-84.36 650.07,-75.66 639.92,-78.7 644.03,-84.36"/>
</g>
<!-- Node21&#45;&gt;Node16 -->
<g id="edge27" class="edge">
<title>Node21&#45;&gt;Node16</title>
<path fill="none" stroke="midnightblue" d="M633.68,-113.48C636.49,-112.95 639.27,-112.45 642,-112 803.13,-85.5 848.71,-101.26 1013.83,-76"/>
<polygon fill="midnightblue" stroke="midnightblue" points="1014.5,-79.44 1023.84,-74.44 1013.42,-72.52 1014.5,-79.44"/>
</g>
<!-- Node22 -->
<g id="node22" class="node">
<title>Node22</title>
<g id="a_node22"><a xlink:title=" ">
<polygon fill="none" stroke="#bfbfbf" points="496,-56.5 496,-75.5 582,-75.5 582,-56.5 496,-56.5"/>
<text text-anchor="middle" x="539" y="-63.5" font-family="Helvetica,sans-Serif" font-size="10.00">QSvgRenderer</text>
</a>
</g>
</g>
<!-- Node21&#45;&gt;Node22 -->
<g id="edge26" class="edge">
<title>Node21&#45;&gt;Node22</title>
<path fill="none" stroke="midnightblue" d="M570.28,-112.4C564.45,-103.93 556.98,-93.1 550.81,-84.14"/>
<polygon fill="midnightblue" stroke="midnightblue" points="553.52,-81.91 544.97,-75.66 547.76,-85.88 553.52,-81.91"/>
</g>
<!-- Node23&#45;&gt;Node15 -->
<g id="edge30" class="edge">
<title>Node23&#45;&gt;Node15</title>
<path fill="none" stroke="midnightblue" d="M1570.1,-112.4C1563.41,-103.75 1554.82,-92.64 1547.82,-83.58"/>
<polygon fill="midnightblue" stroke="midnightblue" points="1550.58,-81.43 1541.69,-75.66 1545.04,-85.71 1550.58,-81.43"/>
</g>
<!-- Node24 -->
<g id="node24" class="node">
<title>Node24</title>
<g id="a_node24"><a xlink:title=" ">
<polygon fill="none" stroke="#bfbfbf" points="1582.5,-56.5 1582.5,-75.5 1671.5,-75.5 1671.5,-56.5 1582.5,-56.5"/>
<text text-anchor="middle" x="1627" y="-63.5" font-family="Helvetica,sans-Serif" font-size="10.00">QGraphicsItem</text>
</a>
</g>
</g>
<!-- Node23&#45;&gt;Node24 -->
<g id="edge29" class="edge">
<title>Node23&#45;&gt;Node24</title>
<path fill="none" stroke="midnightblue" d="M1591.9,-112.4C1598.59,-103.75 1607.18,-92.64 1614.18,-83.58"/>
<polygon fill="midnightblue" stroke="midnightblue" points="1616.96,-85.71 1620.31,-75.66 1611.42,-81.43 1616.96,-85.71"/>
</g>
<!-- Node25 -->
<g id="node25" class="node">
<title>Node25</title>
<g id="a_node25"><a xlink:title=" ">
<polygon fill="none" stroke="#bfbfbf" points="1689,-56.5 1689,-75.5 1731,-75.5 1731,-56.5 1689,-56.5"/>
<text text-anchor="middle" x="1710" y="-63.5" font-family="Helvetica,sans-Serif" font-size="10.00">QPen</text>
</a>
</g>
</g>
<!-- Node23&#45;&gt;Node25 -->
<g id="edge31" class="edge">
<title>Node23&#45;&gt;Node25</title>
<path fill="none" stroke="midnightblue" d="M1611.57,-112.4C1632.93,-102.55 1661.22,-89.5 1681.98,-79.92"/>
<polygon fill="midnightblue" stroke="midnightblue" points="1683.61,-83.02 1691.23,-75.66 1680.68,-76.67 1683.61,-83.02"/>
</g>
<!-- Node26&#45;&gt;Node6 -->
<g id="edge34" class="edge">
<title>Node26&#45;&gt;Node6</title>
<path fill="none" stroke="midnightblue" d="M815.46,-113.64C812.27,-113.05 809.1,-112.5 806,-112 668.34,-89.61 630.22,-93.88 487.6,-76.03"/>
<polygon fill="midnightblue" stroke="midnightblue" points="487.96,-72.55 477.6,-74.77 487.08,-79.5 487.96,-72.55"/>
</g>
<!-- Node26&#45;&gt;Node10 -->
<g id="edge36" class="edge">
<title>Node26&#45;&gt;Node10</title>
<path fill="none" stroke="midnightblue" d="M894.62,-112.4C908.3,-103.04 926.21,-90.79 939.98,-81.38"/>
<polygon fill="midnightblue" stroke="midnightblue" points="942.06,-84.19 948.34,-75.66 938.11,-78.41 942.06,-84.19"/>
</g>
<!-- Node26&#45;&gt;Node16 -->
<g id="edge37" class="edge">
<title>Node26&#45;&gt;Node16</title>
<path fill="none" stroke="midnightblue" d="M917.13,-112.4C948.58,-102.12 990.69,-88.35 1020.27,-78.68"/>
<polygon fill="midnightblue" stroke="midnightblue" points="1021.37,-82.01 1029.78,-75.57 1019.19,-75.35 1021.37,-82.01"/>
</g>
<!-- Node26&#45;&gt;Node22 -->
<g id="edge35" class="edge">
<title>Node26&#45;&gt;Node22</title>
<path fill="none" stroke="midnightblue" d="M815.43,-113.84C812.24,-113.2 809.08,-112.59 806,-112 713.98,-94.49 688.2,-92.39 592.27,-76.2"/>
<polygon fill="midnightblue" stroke="midnightblue" points="592.57,-72.7 582.13,-74.48 591.4,-79.61 592.57,-72.7"/>
</g>
<!-- Node27 -->
<g id="node27" class="node">
<title>Node27</title>
<g id="a_node27"><a xlink:title=" ">
<polygon fill="none" stroke="#bfbfbf" points="742,-56.5 742,-75.5 898,-75.5 898,-56.5 742,-56.5"/>
<text text-anchor="middle" x="820" y="-63.5" font-family="Helvetica,sans-Serif" font-size="10.00">QGraphicsSceneMouseEvent</text>
</a>
</g>
</g>
<!-- Node26&#45;&gt;Node27 -->
<g id="edge33" class="edge">
<title>Node26&#45;&gt;Node27</title>
<path fill="none" stroke="midnightblue" d="M861.2,-112.4C853.28,-103.66 843.06,-92.41 834.79,-83.3"/>
<polygon fill="midnightblue" stroke="midnightblue" points="837.17,-80.71 827.86,-75.66 831.99,-85.42 837.17,-80.71"/>
</g>
</g>
</svg>
