<?xml version="1.0" encoding="UTF-8" standalone="no"?>
<!DOCTYPE svg PUBLIC "-//W3C//DTD SVG 1.1//EN"
 "http://www.w3.org/Graphics/SVG/1.1/DTD/svg11.dtd">
<!-- Generated by graphviz version 2.43.0 (0)
 -->
<!-- Title: src/gui/screen_game/screen_game.cpp Pages: 1 -->
<!--zoomable 274 -->
<svg id="main" version="1.1" xmlns="http://www.w3.org/2000/svg" xmlns:xlink="http://www.w3.org/1999/xlink" xml:space="preserve" onload="init(evt)">
<style type="text/css"><![CDATA[
.edge:hover path { stroke: red; }
.edge:hover polygon { stroke: red; fill: red; }
]]></style>
<script type="text/javascript"><![CDATA[
var edges = document.getElementsByTagName('g');
if (edges && edges.length) {
  for (var i=0;i<edges.length;i++) {
    if (edges[i].id.substr(0,4)=='edge') {
      edges[i].setAttribute('class','edge');
    }
  }
}
]]></script>
        <defs>
                <circle id="rim" cx="0" cy="0" r="7"/>
                <circle id="rim2" cx="0" cy="0" r="3.5"/>
                <g id="zoomPlus">
                        <use xlink:href="#rim" fill="#404040">
                                <set attributeName="fill" to="#808080" begin="zoomplus.mouseover" end="zoomplus.mouseout"/>
                        </use>
                        <path d="M-4,0h8M0,-4v8" fill="none" stroke="white" stroke-width="1.5" pointer-events="none"/>
                </g>
                <g id="zoomMin">
                        <use xlink:href="#rim" fill="#404040">
                                <set attributeName="fill" to="#808080" begin="zoomminus.mouseover" end="zoomminus.mouseout"/>
                        </use>
                        <path d="M-4,0h8" fill="none" stroke="white" stroke-width="1.5" pointer-events="none"/>
                </g>
                <g id="dirArrow">
                        <path fill="none" stroke="white" stroke-width="1.5" d="M0,-3.0v7 M-2.5,-0.5L0,-3.0L2.5,-0.5"/>
                </g>
               <g id="resetDef">
                       <use xlink:href="#rim2" fill="#404040">
                               <set attributeName="fill" to="#808080" begin="reset.mouseover" end="reset.mouseout"/>
                       </use>
               </g>
        </defs>

<script type="text/javascript">
var viewWidth = 1343;
var viewHeight = 274;
var sectionId = 'dynsection-0';
</script>
<script xlink:href="svgpan.js"/>
<svg id="graph" class="graph">
<g id="viewport">
<title>src/gui/screen_game/screen_game.cpp</title>
<!-- Node1 -->
<g id="node1" class="node">
<title>Node1</title>
<g id="a_node1"><a xlink:title=" ">
<polygon fill="#bfbfbf" stroke="black" points="736.5,-235.5 736.5,-265.5 853.5,-265.5 853.5,-235.5 736.5,-235.5"/>
<text text-anchor="start" x="744.5" y="-253.5" font-family="Helvetica,sans-Serif" font-size="10.00">src/gui/screen_game</text>
<text text-anchor="middle" x="795" y="-242.5" font-family="Helvetica,sans-Serif" font-size="10.00">/screen_game.cpp</text>
</a>
</g>
</g>
<!-- Node2 -->
<g id="node2" class="node">
<title>Node2</title>
<g id="a_node2"><a xlink:href="screen__game_8h.html" target="_top" xlink:title=" ">
<polygon fill="none" stroke="black" points="633.5,-179.5 633.5,-198.5 724.5,-198.5 724.5,-179.5 633.5,-179.5"/>
<text text-anchor="middle" x="679" y="-186.5" font-family="Helvetica,sans-Serif" font-size="10.00">screen_game.h</text>
</a>
</g>
</g>
<!-- Node1&#45;&gt;Node2 -->
<g id="edge1" class="edge">
<title>Node1&#45;&gt;Node2</title>
<path fill="none" stroke="midnightblue" d="M767.51,-235.4C748.57,-225.68 723.56,-212.86 704.96,-203.31"/>
<polygon fill="midnightblue" stroke="midnightblue" points="706.37,-200.11 695.88,-198.66 703.18,-206.34 706.37,-200.11"/>
</g>
<!-- Node25 -->
<g id="node25" class="node">
<title>Node25</title>
<g id="a_node25"><a xlink:title=" ">
<polygon fill="none" stroke="#bfbfbf" points="742.5,-179.5 742.5,-198.5 847.5,-198.5 847.5,-179.5 742.5,-179.5"/>
<text text-anchor="middle" x="795" y="-186.5" font-family="Helvetica,sans-Serif" font-size="10.00">ui_screen_game.h</text>
</a>
</g>
</g>
<!-- Node1&#45;&gt;Node25 -->
<g id="edge28" class="edge">
<title>Node1&#45;&gt;Node25</title>
<path fill="none" stroke="midnightblue" d="M795,-235.4C795,-227.47 795,-217.46 795,-208.86"/>
<polygon fill="midnightblue" stroke="midnightblue" points="798.5,-208.66 795,-198.66 791.5,-208.66 798.5,-208.66"/>
</g>
<!-- Node26 -->
<g id="node26" class="node">
<title>Node26</title>
<g id="a_node26"><a xlink:title=" ">
<polygon fill="none" stroke="#bfbfbf" points="866,-179.5 866,-198.5 926,-198.5 926,-179.5 866,-179.5"/>
<text text-anchor="middle" x="896" y="-186.5" font-family="Helvetica,sans-Serif" font-size="10.00">iostream</text>
</a>
</g>
</g>
<!-- Node1&#45;&gt;Node26 -->
<g id="edge29" class="edge">
<title>Node1&#45;&gt;Node26</title>
<path fill="none" stroke="midnightblue" d="M818.94,-235.4C835.13,-225.86 856.41,-213.32 872.5,-203.84"/>
<polygon fill="midnightblue" stroke="midnightblue" points="874.46,-206.75 881.3,-198.66 870.91,-200.72 874.46,-206.75"/>
</g>
<!-- Node3 -->
<g id="node3" class="node">
<title>Node3</title>
<g id="a_node3"><a xlink:title=" ">
<polygon fill="none" stroke="#bfbfbf" points="0,-118 0,-137 134,-137 134,-118 0,-118"/>
<text text-anchor="middle" x="67" y="-125" font-family="Helvetica,sans-Serif" font-size="10.00">QGraphicsColorizeEffect</text>
</a>
</g>
</g>
<!-- Node2&#45;&gt;Node3 -->
<g id="edge2" class="edge">
<title>Node2&#45;&gt;Node3</title>
<path fill="none" stroke="midnightblue" d="M633.29,-185.78C540.53,-180.92 323.64,-167.75 143,-143 134.68,-141.86 125.89,-140.41 117.35,-138.87"/>
<polygon fill="midnightblue" stroke="midnightblue" points="117.97,-135.43 107.5,-137.04 116.69,-142.31 117.97,-135.43"/>
</g>
<!-- Node4 -->
<g id="node4" class="node">
<title>Node4</title>
<g id="a_node4"><a xlink:title=" ">
<polygon fill="none" stroke="#bfbfbf" points="152,-118 152,-137 274,-137 274,-118 152,-118"/>
<text text-anchor="middle" x="213" y="-125" font-family="Helvetica,sans-Serif" font-size="10.00">QGraphicsEllipseItem</text>
</a>
</g>
</g>
<!-- Node2&#45;&gt;Node4 -->
<g id="edge3" class="edge">
<title>Node2&#45;&gt;Node4</title>
<path fill="none" stroke="midnightblue" d="M633.38,-184.18C559.51,-177.68 409.23,-163.2 283,-143 275.84,-141.85 268.3,-140.48 260.93,-139.03"/>
<polygon fill="midnightblue" stroke="midnightblue" points="261.52,-135.58 251.03,-137.03 260.14,-142.44 261.52,-135.58"/>
</g>
<!-- Node5 -->
<g id="node5" class="node">
<title>Node5</title>
<g id="a_node5"><a xlink:title=" ">
<polygon fill="none" stroke="#bfbfbf" points="292,-118 292,-137 432,-137 432,-118 292,-118"/>
<text text-anchor="middle" x="362" y="-125" font-family="Helvetica,sans-Serif" font-size="10.00">QGraphicsItemAnimation</text>
</a>
</g>
</g>
<!-- Node2&#45;&gt;Node5 -->
<g id="edge4" class="edge">
<title>Node2&#45;&gt;Node5</title>
<path fill="none" stroke="midnightblue" d="M633.58,-179.48C576.5,-168.76 478.58,-150.38 417.23,-138.87"/>
<polygon fill="midnightblue" stroke="midnightblue" points="417.81,-135.41 407.33,-137.01 416.52,-142.29 417.81,-135.41"/>
</g>
<!-- Node6 -->
<g id="node6" class="node">
<title>Node6</title>
<g id="a_node6"><a xlink:title=" ">
<polygon fill="none" stroke="#bfbfbf" points="232,-56.5 232,-75.5 328,-75.5 328,-56.5 232,-56.5"/>
<text text-anchor="middle" x="280" y="-63.5" font-family="Helvetica,sans-Serif" font-size="10.00">QGraphicsScene</text>
</a>
</g>
</g>
<!-- Node2&#45;&gt;Node6 -->
<g id="edge5" class="edge">
<title>Node2&#45;&gt;Node6</title>
<path fill="none" stroke="midnightblue" d="M633.34,-183.78C591.46,-178.54 528.61,-167.13 479,-143 459.4,-133.46 460.35,-122.03 441,-112 408.8,-95.3 369.67,-84.18 338.05,-77.17"/>
<polygon fill="midnightblue" stroke="midnightblue" points="338.58,-73.71 328.07,-75.04 337.11,-80.55 338.58,-73.71"/>
</g>
<!-- Node7 -->
<g id="node7" class="node">
<title>Node7</title>
<g id="a_node7"><a xlink:title=" ">
<polygon fill="none" stroke="#bfbfbf" points="598.5,-56.5 598.5,-75.5 705.5,-75.5 705.5,-56.5 598.5,-56.5"/>
<text text-anchor="middle" x="652" y="-63.5" font-family="Helvetica,sans-Serif" font-size="10.00">QGraphicsSvgItem</text>
</a>
</g>
</g>
<!-- Node2&#45;&gt;Node7 -->
<g id="edge6" class="edge">
<title>Node2&#45;&gt;Node7</title>
<path fill="none" stroke="midnightblue" d="M672.75,-179.2C666.94,-170.48 658.66,-156.5 655,-143 649.88,-124.11 649.68,-101.62 650.42,-86.03"/>
<polygon fill="midnightblue" stroke="midnightblue" points="653.94,-85.83 651.11,-75.62 646.96,-85.37 653.94,-85.83"/>
</g>
<!-- Node8 -->
<g id="node8" class="node">
<title>Node8</title>
<g id="a_node8"><a xlink:title=" ">
<polygon fill="none" stroke="#bfbfbf" points="838.5,-118 838.5,-137 891.5,-137 891.5,-118 838.5,-118"/>
<text text-anchor="middle" x="865" y="-125" font-family="Helvetica,sans-Serif" font-size="10.00">QString</text>
</a>
</g>
</g>
<!-- Node2&#45;&gt;Node8 -->
<g id="edge7" class="edge">
<title>Node2&#45;&gt;Node8</title>
<path fill="none" stroke="midnightblue" d="M707.72,-179.45C737.05,-170.63 783.85,-156.32 824,-143 826.45,-142.19 828.97,-141.34 831.5,-140.47"/>
<polygon fill="midnightblue" stroke="midnightblue" points="832.91,-143.68 841.21,-137.09 830.61,-137.07 832.91,-143.68"/>
</g>
<!-- Node9 -->
<g id="node9" class="node">
<title>Node9</title>
<g id="a_node9"><a xlink:title=" ">
<polygon fill="none" stroke="#bfbfbf" points="909.5,-118 909.5,-137 978.5,-137 978.5,-118 909.5,-118"/>
<text text-anchor="middle" x="944" y="-125" font-family="Helvetica,sans-Serif" font-size="10.00">QTimeLine</text>
</a>
</g>
</g>
<!-- Node2&#45;&gt;Node9 -->
<g id="edge8" class="edge">
<title>Node2&#45;&gt;Node9</title>
<path fill="none" stroke="midnightblue" d="M724.65,-180.32C769.59,-172.39 840.02,-158.93 900,-143 903.19,-142.15 906.48,-141.21 909.77,-140.21"/>
<polygon fill="midnightblue" stroke="midnightblue" points="911,-143.49 919.49,-137.14 908.9,-136.82 911,-143.49"/>
</g>
<!-- Node10 -->
<g id="node10" class="node">
<title>Node10</title>
<g id="a_node10"><a xlink:title=" ">
<polygon fill="none" stroke="#bfbfbf" points="996.5,-118 996.5,-137 1055.5,-137 1055.5,-118 996.5,-118"/>
<text text-anchor="middle" x="1026" y="-125" font-family="Helvetica,sans-Serif" font-size="10.00">QWidget</text>
</a>
</g>
</g>
<!-- Node2&#45;&gt;Node10 -->
<g id="edge9" class="edge">
<title>Node2&#45;&gt;Node10</title>
<path fill="none" stroke="midnightblue" d="M724.65,-180.31C727.48,-179.86 730.28,-179.42 733,-179 845.69,-161.63 876.48,-171.03 987,-143 989.98,-142.24 993.06,-141.34 996.1,-140.35"/>
<polygon fill="midnightblue" stroke="midnightblue" points="997.34,-143.63 1005.62,-137.02 995.02,-137.02 997.34,-143.63"/>
</g>
<!-- Node11 -->
<g id="node11" class="node">
<title>Node11</title>
<g id="a_node11"><a xlink:href="constants_8h.html" target="_top" xlink:title=" ">
<polygon fill="none" stroke="black" points="1002,-56.5 1002,-75.5 1092,-75.5 1092,-56.5 1002,-56.5"/>
<text text-anchor="middle" x="1047" y="-63.5" font-family="Helvetica,sans-Serif" font-size="10.00">src/constants.h</text>
</a>
</g>
</g>
<!-- Node2&#45;&gt;Node11 -->
<g id="edge10" class="edge">
<title>Node2&#45;&gt;Node11</title>
<path fill="none" stroke="midnightblue" d="M706.02,-179.49C729.14,-171.64 762.88,-158.83 790,-143 809.12,-131.84 808.94,-121.38 829,-112 843.64,-105.15 932.27,-88.03 991.92,-76.99"/>
<polygon fill="midnightblue" stroke="midnightblue" points="992.76,-80.4 1001.96,-75.14 991.49,-73.51 992.76,-80.4"/>
</g>
<!-- Node13 -->
<g id="node13" class="node">
<title>Node13</title>
<g id="a_node13"><a xlink:href="gui__scene_8h.html" target="_top" xlink:title=" ">
<polygon fill="none" stroke="black" points="488.5,-112.5 488.5,-142.5 607.5,-142.5 607.5,-112.5 488.5,-112.5"/>
<text text-anchor="start" x="496.5" y="-130.5" font-family="Helvetica,sans-Serif" font-size="10.00">src/gui/gui_scene/gui</text>
<text text-anchor="middle" x="548" y="-119.5" font-family="Helvetica,sans-Serif" font-size="10.00">_scene.h</text>
</a>
</g>
</g>
<!-- Node2&#45;&gt;Node13 -->
<g id="edge12" class="edge">
<title>Node2&#45;&gt;Node13</title>
<path fill="none" stroke="midnightblue" d="M660.23,-179.48C641.49,-170.96 612.11,-157.62 588.11,-146.72"/>
<polygon fill="midnightblue" stroke="midnightblue" points="589.43,-143.47 578.87,-142.52 586.53,-149.85 589.43,-143.47"/>
</g>
<!-- Node18 -->
<g id="node18" class="node">
<title>Node18</title>
<g id="a_node18"><a xlink:href="gui__advantage__bar_8h.html" target="_top" xlink:title=" ">
<polygon fill="none" stroke="black" points="1140.5,-112.5 1140.5,-142.5 1261.5,-142.5 1261.5,-112.5 1140.5,-112.5"/>
<text text-anchor="start" x="1148.5" y="-130.5" font-family="Helvetica,sans-Serif" font-size="10.00">src/gui/screen_game</text>
<text text-anchor="middle" x="1201" y="-119.5" font-family="Helvetica,sans-Serif" font-size="10.00">/gui_advantage_bar.h</text>
</a>
</g>
</g>
<!-- Node2&#45;&gt;Node18 -->
<g id="edge18" class="edge">
<title>Node2&#45;&gt;Node18</title>
<path fill="none" stroke="midnightblue" d="M724.64,-180.2C727.46,-179.78 730.27,-179.37 733,-179 752.36,-176.34 1004.17,-149.45 1130.18,-136.03"/>
<polygon fill="midnightblue" stroke="midnightblue" points="1130.56,-139.51 1140.13,-134.97 1129.82,-132.55 1130.56,-139.51"/>
</g>
<!-- Node22 -->
<g id="node22" class="node">
<title>Node22</title>
<g id="a_node22"><a xlink:href="gui__figure_8h.html" target="_top" xlink:title=" ">
<polygon fill="none" stroke="black" points="664.5,-112.5 664.5,-142.5 781.5,-142.5 781.5,-112.5 664.5,-112.5"/>
<text text-anchor="start" x="672.5" y="-130.5" font-family="Helvetica,sans-Serif" font-size="10.00">src/gui/screen_game</text>
<text text-anchor="middle" x="723" y="-119.5" font-family="Helvetica,sans-Serif" font-size="10.00">/gui_figure.h</text>
</a>
</g>
</g>
<!-- Node2&#45;&gt;Node22 -->
<g id="edge22" class="edge">
<title>Node2&#45;&gt;Node22</title>
<path fill="none" stroke="midnightblue" d="M685.3,-179.48C690.87,-171.94 699.24,-160.63 706.68,-150.57"/>
<polygon fill="midnightblue" stroke="midnightblue" points="709.5,-152.64 712.63,-142.52 703.87,-148.48 709.5,-152.64"/>
</g>
<!-- Node12 -->
<g id="node12" class="node">
<title>Node12</title>
<g id="a_node12"><a xlink:title=" ">
<polygon fill="none" stroke="#bfbfbf" points="1019.5,-0.5 1019.5,-19.5 1074.5,-19.5 1074.5,-0.5 1019.5,-0.5"/>
<text text-anchor="middle" x="1047" y="-7.5" font-family="Helvetica,sans-Serif" font-size="10.00">QVector</text>
</a>
</g>
</g>
<!-- Node11&#45;&gt;Node12 -->
<g id="edge11" class="edge">
<title>Node11&#45;&gt;Node12</title>
<path fill="none" stroke="midnightblue" d="M1047,-56.08C1047,-49.01 1047,-38.86 1047,-29.99"/>
<polygon fill="midnightblue" stroke="midnightblue" points="1050.5,-29.75 1047,-19.75 1043.5,-29.75 1050.5,-29.75"/>
</g>
<!-- Node13&#45;&gt;Node6 -->
<g id="edge13" class="edge">
<title>Node13&#45;&gt;Node6</title>
<path fill="none" stroke="midnightblue" d="M488.19,-113.22C440,-102.52 373.12,-87.67 328.29,-77.72"/>
<polygon fill="midnightblue" stroke="midnightblue" points="329.03,-74.3 318.51,-75.55 327.52,-81.13 329.03,-74.3"/>
</g>
<!-- Node14 -->
<g id="node14" class="node">
<title>Node14</title>
<g id="a_node14"><a xlink:title=" ">
<polygon fill="none" stroke="#bfbfbf" points="414,-56.5 414,-75.5 498,-75.5 498,-56.5 414,-56.5"/>
<text text-anchor="middle" x="456" y="-63.5" font-family="Helvetica,sans-Serif" font-size="10.00">QMouseEvent</text>
</a>
</g>
</g>
<!-- Node13&#45;&gt;Node14 -->
<g id="edge14" class="edge">
<title>Node13&#45;&gt;Node14</title>
<path fill="none" stroke="midnightblue" d="M526.2,-112.4C511.59,-102.95 492.43,-90.56 477.82,-81.11"/>
<polygon fill="midnightblue" stroke="midnightblue" points="479.68,-78.15 469.39,-75.66 475.88,-84.03 479.68,-78.15"/>
</g>
<!-- Node15 -->
<g id="node15" class="node">
<title>Node15</title>
<g id="a_node15"><a xlink:title=" ">
<polygon fill="none" stroke="#bfbfbf" points="346.5,-56.5 346.5,-75.5 395.5,-75.5 395.5,-56.5 346.5,-56.5"/>
<text text-anchor="middle" x="371" y="-63.5" font-family="Helvetica,sans-Serif" font-size="10.00">QPoint</text>
</a>
</g>
</g>
<!-- Node13&#45;&gt;Node15 -->
<g id="edge15" class="edge">
<title>Node13&#45;&gt;Node15</title>
<path fill="none" stroke="midnightblue" d="M506.05,-112.4C475.33,-102.07 434.13,-88.22 405.35,-78.55"/>
<polygon fill="midnightblue" stroke="midnightblue" points="406.32,-75.18 395.73,-75.31 404.09,-81.82 406.32,-75.18"/>
</g>
<!-- Node16 -->
<g id="node16" class="node">
<title>Node16</title>
<g id="a_node16"><a xlink:href="utils_8h.html" target="_top" xlink:title=" ">
<polygon fill="none" stroke="black" points="516,-56.5 516,-75.5 580,-75.5 580,-56.5 516,-56.5"/>
<text text-anchor="middle" x="548" y="-63.5" font-family="Helvetica,sans-Serif" font-size="10.00">src/utils.h</text>
</a>
</g>
</g>
<!-- Node13&#45;&gt;Node16 -->
<g id="edge16" class="edge">
<title>Node13&#45;&gt;Node16</title>
<path fill="none" stroke="midnightblue" d="M548,-112.4C548,-104.47 548,-94.46 548,-85.86"/>
<polygon fill="midnightblue" stroke="midnightblue" points="551.5,-85.66 548,-75.66 544.5,-85.66 551.5,-85.66"/>
</g>
<!-- Node17 -->
<g id="node17" class="node">
<title>Node17</title>
<g id="a_node17"><a xlink:title=" ">
<polygon fill="none" stroke="#bfbfbf" points="525.5,-0.5 525.5,-19.5 570.5,-19.5 570.5,-0.5 525.5,-0.5"/>
<text text-anchor="middle" x="548" y="-7.5" font-family="Helvetica,sans-Serif" font-size="10.00">utility</text>
</a>
</g>
</g>
<!-- Node16&#45;&gt;Node17 -->
<g id="edge17" class="edge">
<title>Node16&#45;&gt;Node17</title>
<path fill="none" stroke="midnightblue" d="M548,-56.08C548,-49.01 548,-38.86 548,-29.99"/>
<polygon fill="midnightblue" stroke="midnightblue" points="551.5,-29.75 548,-19.75 544.5,-29.75 551.5,-29.75"/>
</g>
<!-- Node19 -->
<g id="node19" class="node">
<title>Node19</title>
<g id="a_node19"><a xlink:title=" ">
<polygon fill="none" stroke="#bfbfbf" points="1110.5,-56.5 1110.5,-75.5 1199.5,-75.5 1199.5,-56.5 1110.5,-56.5"/>
<text text-anchor="middle" x="1155" y="-63.5" font-family="Helvetica,sans-Serif" font-size="10.00">QGraphicsItem</text>
</a>
</g>
</g>
<!-- Node18&#45;&gt;Node19 -->
<g id="edge19" class="edge">
<title>Node18&#45;&gt;Node19</title>
<path fill="none" stroke="midnightblue" d="M1190.1,-112.4C1183.41,-103.75 1174.82,-92.64 1167.82,-83.58"/>
<polygon fill="midnightblue" stroke="midnightblue" points="1170.58,-81.43 1161.69,-75.66 1165.04,-85.71 1170.58,-81.43"/>
</g>
<!-- Node20 -->
<g id="node20" class="node">
<title>Node20</title>
<g id="a_node20"><a xlink:title=" ">
<polygon fill="none" stroke="#bfbfbf" points="1217,-56.5 1217,-75.5 1275,-75.5 1275,-56.5 1217,-56.5"/>
<text text-anchor="middle" x="1246" y="-63.5" font-family="Helvetica,sans-Serif" font-size="10.00">QPainter</text>
</a>
</g>
</g>
<!-- Node18&#45;&gt;Node20 -->
<g id="edge20" class="edge">
<title>Node18&#45;&gt;Node20</title>
<path fill="none" stroke="midnightblue" d="M1211.66,-112.4C1218.14,-103.84 1226.43,-92.87 1233.25,-83.86"/>
<polygon fill="midnightblue" stroke="midnightblue" points="1236.21,-85.74 1239.45,-75.66 1230.63,-81.52 1236.21,-85.74"/>
</g>
<!-- Node21 -->
<g id="node21" class="node">
<title>Node21</title>
<g id="a_node21"><a xlink:title=" ">
<polygon fill="none" stroke="#bfbfbf" points="1293,-56.5 1293,-75.5 1335,-75.5 1335,-56.5 1293,-56.5"/>
<text text-anchor="middle" x="1314" y="-63.5" font-family="Helvetica,sans-Serif" font-size="10.00">QPen</text>
</a>
</g>
</g>
<!-- Node18&#45;&gt;Node21 -->
<g id="edge21" class="edge">
<title>Node18&#45;&gt;Node21</title>
<path fill="none" stroke="midnightblue" d="M1227.78,-112.4C1246.06,-102.77 1270.15,-90.09 1288.21,-80.58"/>
<polygon fill="midnightblue" stroke="midnightblue" points="1290.34,-83.41 1297.56,-75.66 1287.08,-77.22 1290.34,-83.41"/>
</g>
<!-- Node22&#45;&gt;Node7 -->
<g id="edge24" class="edge">
<title>Node22&#45;&gt;Node7</title>
<path fill="none" stroke="midnightblue" d="M706.17,-112.4C695.33,-103.31 681.22,-91.49 670.13,-82.19"/>
<polygon fill="midnightblue" stroke="midnightblue" points="672.24,-79.4 662.33,-75.66 667.75,-84.76 672.24,-79.4"/>
</g>
<!-- Node22&#45;&gt;Node11 -->
<g id="edge26" class="edge">
<title>Node22&#45;&gt;Node11</title>
<path fill="none" stroke="midnightblue" d="M781.55,-114.77C786.44,-113.82 791.3,-112.89 796,-112 863.15,-99.31 940.58,-85.56 991.48,-76.65"/>
<polygon fill="midnightblue" stroke="midnightblue" points="992.36,-80.05 1001.61,-74.88 991.16,-73.15 992.36,-80.05"/>
</g>
<!-- Node22&#45;&gt;Node16 -->
<g id="edge27" class="edge">
<title>Node22&#45;&gt;Node16</title>
<path fill="none" stroke="midnightblue" d="M681.53,-112.4C651.42,-102.16 611.15,-88.47 582.73,-78.81"/>
<polygon fill="midnightblue" stroke="midnightblue" points="583.8,-75.48 573.21,-75.57 581.55,-82.1 583.8,-75.48"/>
</g>
<!-- Node23 -->
<g id="node23" class="node">
<title>Node23</title>
<g id="a_node23"><a xlink:title=" ">
<polygon fill="none" stroke="#bfbfbf" points="828,-56.5 828,-75.5 984,-75.5 984,-56.5 828,-56.5"/>
<text text-anchor="middle" x="906" y="-63.5" font-family="Helvetica,sans-Serif" font-size="10.00">QGraphicsSceneMouseEvent</text>
</a>
</g>
</g>
<!-- Node22&#45;&gt;Node23 -->
<g id="edge23" class="edge">
<title>Node22&#45;&gt;Node23</title>
<path fill="none" stroke="midnightblue" d="M766.37,-112.4C797.99,-102.12 840.33,-88.35 870.07,-78.68"/>
<polygon fill="midnightblue" stroke="midnightblue" points="871.21,-81.99 879.64,-75.57 869.05,-75.33 871.21,-81.99"/>
</g>
<!-- Node24 -->
<g id="node24" class="node">
<title>Node24</title>
<g id="a_node24"><a xlink:title=" ">
<polygon fill="none" stroke="#bfbfbf" points="724,-56.5 724,-75.5 810,-75.5 810,-56.5 724,-56.5"/>
<text text-anchor="middle" x="767" y="-63.5" font-family="Helvetica,sans-Serif" font-size="10.00">QSvgRenderer</text>
</a>
</g>
</g>
<!-- Node22&#45;&gt;Node24 -->
<g id="edge25" class="edge">
<title>Node22&#45;&gt;Node24</title>
<path fill="none" stroke="midnightblue" d="M733.43,-112.4C739.76,-103.84 747.87,-92.87 754.53,-83.86"/>
<polygon fill="midnightblue" stroke="midnightblue" points="757.47,-85.78 760.6,-75.66 751.84,-81.62 757.47,-85.78"/>
</g>
</g>
</svg>
        <g id="navigator" transform="translate(0 0)" fill="#404254">
                <rect fill="#f2f5e9" fill-opacity="0.5" stroke="#606060" stroke-width=".5" x="0" y="0" width="60" height="60"/>
                <use id="zoomplus" xlink:href="#zoomPlus" x="17" y="9" onmousedown="handleZoom(evt,'in')"/>
                <use id="zoomminus" xlink:href="#zoomMin" x="42" y="9" onmousedown="handleZoom(evt,'out')"/>
                <use id="reset" xlink:href="#resetDef" x="30" y="36" onmousedown="handleReset()"/>
                <g id="arrowUp" xlink:href="#dirArrow" transform="translate(30 24)" onmousedown="handlePan(0,-1)">
                  <use xlink:href="#rim" fill="#404040">
                        <set attributeName="fill" to="#808080" begin="arrowUp.mouseover" end="arrowUp.mouseout"/>
                  </use>
                  <path fill="none" stroke="white" stroke-width="1.5" d="M0,-3.0v7 M-2.5,-0.5L0,-3.0L2.5,-0.5"/>
                </g>
                <g id="arrowRight" xlink:href="#dirArrow" transform="rotate(90) translate(36 -43)" onmousedown="handlePan(1,0)">
                  <use xlink:href="#rim" fill="#404040">
                        <set attributeName="fill" to="#808080" begin="arrowRight.mouseover" end="arrowRight.mouseout"/>
                  </use>
                  <path fill="none" stroke="white" stroke-width="1.5" d="M0,-3.0v7 M-2.5,-0.5L0,-3.0L2.5,-0.5"/>
                </g>
                <g id="arrowDown" xlink:href="#dirArrow" transform="rotate(180) translate(-30 -48)" onmousedown="handlePan(0,1)">
                  <use xlink:href="#rim" fill="#404040">
                        <set attributeName="fill" to="#808080" begin="arrowDown.mouseover" end="arrowDown.mouseout"/>
                  </use>
                  <path fill="none" stroke="white" stroke-width="1.5" d="M0,-3.0v7 M-2.5,-0.5L0,-3.0L2.5,-0.5"/>
                </g>
                <g id="arrowLeft" xlink:href="#dirArrow" transform="rotate(270) translate(-36 17)" onmousedown="handlePan(-1,0)">
                  <use xlink:href="#rim" fill="#404040">
                        <set attributeName="fill" to="#808080" begin="arrowLeft.mouseover" end="arrowLeft.mouseout"/>
                  </use>
                  <path fill="none" stroke="white" stroke-width="1.5" d="M0,-3.0v7 M-2.5,-0.5L0,-3.0L2.5,-0.5"/>
                </g>
        </g>
        <svg viewBox="0 0 15 15" width="100%" height="30px" preserveAspectRatio="xMaxYMin meet">
         <g id="arrow_out" transform="scale(0.3 0.3)">
          <a xlink:href="screen__game_8cpp__incl_org.svg" target="_base">
           <rect id="button" ry="5" rx="5" y="6" x="6" height="38" width="38"
                fill="#f2f5e9" fill-opacity="0.5" stroke="#606060" stroke-width="1.0"/>
           <path id="arrow"
             d="M 11.500037,31.436501 C 11.940474,20.09759 22.043105,11.32322 32.158766,21.979434 L 37.068811,17.246167 C 37.068811,17.246167 37.088388,32 37.088388,32 L 22.160133,31.978069 C 22.160133,31.978069 26.997745,27.140456 26.997745,27.140456 C 18.528582,18.264221 13.291696,25.230495 11.500037,31.436501 z"
             style="fill:#404040;"/>
          </a>
         </g>
        </svg>
</svg>
