<?xml version="1.0" encoding="UTF-8" standalone="no"?>
<!DOCTYPE svg PUBLIC "-//W3C//DTD SVG 1.1//EN"
 "http://www.w3.org/Graphics/SVG/1.1/DTD/svg11.dtd">
<!-- Generated by graphviz version 2.43.0 (0)
 -->
<!-- Title: src/gui/screen_game/screen_game.h Pages: 1 -->
<svg width="584pt" height="218pt"
 viewBox="0.00 0.00 583.50 218.00" xmlns="http://www.w3.org/2000/svg" xmlns:xlink="http://www.w3.org/1999/xlink">
<g id="graph0" class="graph" transform="scale(1 1) rotate(0) translate(4 214)">
<title>src/gui/screen_game/screen_game.h</title>
<!-- Node1 -->
<g id="node1" class="node">
<title>Node1</title>
<g id="a_node1"><a xlink:title=" ">
<polygon fill="#bfbfbf" stroke="black" points="155,-179.5 155,-209.5 272,-209.5 272,-179.5 155,-179.5"/>
<text text-anchor="start" x="163" y="-197.5" font-family="Helvetica,sans-Serif" font-size="10.00">src/gui/screen_game</text>
<text text-anchor="middle" x="213.5" y="-186.5" font-family="Helvetica,sans-Serif" font-size="10.00">/screen_game.h</text>
</a>
</g>
</g>
<!-- Node2 -->
<g id="node2" class="node">
<title>Node2</title>
<g id="a_node2"><a xlink:title=" ">
<polygon fill="none" stroke="#bfbfbf" points="8.5,-118 8.5,-137 104.5,-137 104.5,-118 8.5,-118"/>
<text text-anchor="middle" x="56.5" y="-125" font-family="Helvetica,sans-Serif" font-size="10.00">QGraphicsScene</text>
</a>
</g>
</g>
<!-- Node1&#45;&gt;Node2 -->
<g id="edge1" class="edge">
<title>Node1&#45;&gt;Node2</title>
<path fill="none" stroke="midnightblue" d="M179.43,-179.4C151.76,-167.94 113.11,-151.94 86.58,-140.95"/>
<polygon fill="midnightblue" stroke="midnightblue" points="87.63,-137.6 77.05,-137.01 84.95,-144.07 87.63,-137.6"/>
</g>
<!-- Node3 -->
<g id="node3" class="node">
<title>Node3</title>
<g id="a_node3"><a xlink:title=" ">
<polygon fill="none" stroke="#bfbfbf" points="0,-56.5 0,-75.5 107,-75.5 107,-56.5 0,-56.5"/>
<text text-anchor="middle" x="53.5" y="-63.5" font-family="Helvetica,sans-Serif" font-size="10.00">QGraphicsSvgItem</text>
</a>
</g>
</g>
<!-- Node1&#45;&gt;Node3 -->
<g id="edge2" class="edge">
<title>Node1&#45;&gt;Node3</title>
<path fill="none" stroke="midnightblue" d="M196.68,-179.45C176.94,-163.03 143.14,-135.18 113.5,-112 100.42,-101.77 85.49,-90.57 73.79,-81.9"/>
<polygon fill="midnightblue" stroke="midnightblue" points="75.68,-78.95 65.56,-75.82 71.53,-84.58 75.68,-78.95"/>
</g>
<!-- Node4 -->
<g id="node4" class="node">
<title>Node4</title>
<g id="a_node4"><a xlink:title=" ">
<polygon fill="none" stroke="#bfbfbf" points="334,-118 334,-137 387,-137 387,-118 334,-118"/>
<text text-anchor="middle" x="360.5" y="-125" font-family="Helvetica,sans-Serif" font-size="10.00">QString</text>
</a>
</g>
</g>
<!-- Node1&#45;&gt;Node4 -->
<g id="edge3" class="edge">
<title>Node1&#45;&gt;Node4</title>
<path fill="none" stroke="midnightblue" d="M245.4,-179.4C271.19,-167.99 307.17,-152.08 332.01,-141.1"/>
<polygon fill="midnightblue" stroke="midnightblue" points="333.53,-144.25 341.26,-137.01 330.7,-137.85 333.53,-144.25"/>
</g>
<!-- Node5 -->
<g id="node5" class="node">
<title>Node5</title>
<g id="a_node5"><a xlink:title=" ">
<polygon fill="none" stroke="#bfbfbf" points="405,-118 405,-137 464,-137 464,-118 405,-118"/>
<text text-anchor="middle" x="434.5" y="-125" font-family="Helvetica,sans-Serif" font-size="10.00">QWidget</text>
</a>
</g>
</g>
<!-- Node1&#45;&gt;Node5 -->
<g id="edge4" class="edge">
<title>Node1&#45;&gt;Node5</title>
<path fill="none" stroke="midnightblue" d="M268.82,-179.46C305.08,-169.94 353.39,-156.64 395.5,-143 397.91,-142.22 400.38,-141.38 402.87,-140.52"/>
<polygon fill="midnightblue" stroke="midnightblue" points="404.12,-143.79 412.34,-137.11 401.75,-137.2 404.12,-143.79"/>
</g>
<!-- Node6 -->
<g id="node6" class="node">
<title>Node6</title>
<g id="a_node6"><a xlink:href="constants_8h.html" target="_top" xlink:title=" ">
<polygon fill="none" stroke="black" points="125.5,-56.5 125.5,-75.5 215.5,-75.5 215.5,-56.5 125.5,-56.5"/>
<text text-anchor="middle" x="170.5" y="-63.5" font-family="Helvetica,sans-Serif" font-size="10.00">src/constants.h</text>
</a>
</g>
</g>
<!-- Node1&#45;&gt;Node6 -->
<g id="edge5" class="edge">
<title>Node1&#45;&gt;Node6</title>
<path fill="none" stroke="midnightblue" d="M205.79,-179.24C200.64,-169.3 194.02,-155.61 189.5,-143 182.63,-123.84 177.3,-101.1 174.05,-85.52"/>
<polygon fill="midnightblue" stroke="midnightblue" points="177.46,-84.72 172.07,-75.6 170.6,-86.09 177.46,-84.72"/>
</g>
<!-- Node8 -->
<g id="node8" class="node">
<title>Node8</title>
<g id="a_node8"><a xlink:href="gui__figure_8h.html" target="_top" xlink:title=" ">
<polygon fill="none" stroke="black" points="199,-112.5 199,-142.5 316,-142.5 316,-112.5 199,-112.5"/>
<text text-anchor="start" x="207" y="-130.5" font-family="Helvetica,sans-Serif" font-size="10.00">src/gui/screen_game</text>
<text text-anchor="middle" x="257.5" y="-119.5" font-family="Helvetica,sans-Serif" font-size="10.00">/gui_figure.h</text>
</a>
</g>
</g>
<!-- Node1&#45;&gt;Node8 -->
<g id="edge7" class="edge">
<title>Node1&#45;&gt;Node8</title>
<path fill="none" stroke="midnightblue" d="M223.05,-179.4C228.64,-171.13 235.83,-160.51 242.2,-151.1"/>
<polygon fill="midnightblue" stroke="midnightblue" points="245.26,-152.82 247.97,-142.58 239.47,-148.9 245.26,-152.82"/>
</g>
<!-- Node7 -->
<g id="node7" class="node">
<title>Node7</title>
<g id="a_node7"><a xlink:title=" ">
<polygon fill="none" stroke="#bfbfbf" points="143,-0.5 143,-19.5 198,-19.5 198,-0.5 143,-0.5"/>
<text text-anchor="middle" x="170.5" y="-7.5" font-family="Helvetica,sans-Serif" font-size="10.00">QVector</text>
</a>
</g>
</g>
<!-- Node6&#45;&gt;Node7 -->
<g id="edge6" class="edge">
<title>Node6&#45;&gt;Node7</title>
<path fill="none" stroke="midnightblue" d="M170.5,-56.08C170.5,-49.01 170.5,-38.86 170.5,-29.99"/>
<polygon fill="midnightblue" stroke="midnightblue" points="174,-29.75 170.5,-19.75 167,-29.75 174,-29.75"/>
</g>
<!-- Node8&#45;&gt;Node3 -->
<g id="edge9" class="edge">
<title>Node8&#45;&gt;Node3</title>
<path fill="none" stroke="midnightblue" d="M209.41,-112.47C173.76,-102.08 125.77,-88.08 92.49,-78.37"/>
<polygon fill="midnightblue" stroke="midnightblue" points="93.24,-74.95 82.66,-75.51 91.28,-81.67 93.24,-74.95"/>
</g>
<!-- Node8&#45;&gt;Node6 -->
<g id="edge11" class="edge">
<title>Node8&#45;&gt;Node6</title>
<path fill="none" stroke="midnightblue" d="M236.88,-112.4C223.2,-103.04 205.29,-90.79 191.52,-81.38"/>
<polygon fill="midnightblue" stroke="midnightblue" points="193.39,-78.41 183.16,-75.66 189.44,-84.19 193.39,-78.41"/>
</g>
<!-- Node9 -->
<g id="node9" class="node">
<title>Node9</title>
<g id="a_node9"><a xlink:title=" ">
<polygon fill="none" stroke="#bfbfbf" points="233.5,-56.5 233.5,-75.5 389.5,-75.5 389.5,-56.5 233.5,-56.5"/>
<text text-anchor="middle" x="311.5" y="-63.5" font-family="Helvetica,sans-Serif" font-size="10.00">QGraphicsSceneMouseEvent</text>
</a>
</g>
</g>
<!-- Node8&#45;&gt;Node9 -->
<g id="edge8" class="edge">
<title>Node8&#45;&gt;Node9</title>
<path fill="none" stroke="midnightblue" d="M270.3,-112.4C278.22,-103.66 288.44,-92.41 296.71,-83.3"/>
<polygon fill="midnightblue" stroke="midnightblue" points="299.51,-85.42 303.64,-75.66 294.33,-80.71 299.51,-85.42"/>
</g>
<!-- Node10 -->
<g id="node10" class="node">
<title>Node10</title>
<g id="a_node10"><a xlink:title=" ">
<polygon fill="none" stroke="#bfbfbf" points="407.5,-56.5 407.5,-75.5 493.5,-75.5 493.5,-56.5 407.5,-56.5"/>
<text text-anchor="middle" x="450.5" y="-63.5" font-family="Helvetica,sans-Serif" font-size="10.00">QSvgRenderer</text>
</a>
</g>
</g>
<!-- Node8&#45;&gt;Node10 -->
<g id="edge10" class="edge">
<title>Node8&#45;&gt;Node10</title>
<path fill="none" stroke="midnightblue" d="M303.24,-112.4C336.73,-102.07 381.63,-88.23 413.02,-78.56"/>
<polygon fill="midnightblue" stroke="midnightblue" points="414.17,-81.86 422.7,-75.57 412.11,-75.17 414.17,-81.86"/>
</g>
<!-- Node11 -->
<g id="node11" class="node">
<title>Node11</title>
<g id="a_node11"><a xlink:href="utils_8h.html" target="_top" xlink:title=" ">
<polygon fill="none" stroke="black" points="511.5,-56.5 511.5,-75.5 575.5,-75.5 575.5,-56.5 511.5,-56.5"/>
<text text-anchor="middle" x="543.5" y="-63.5" font-family="Helvetica,sans-Serif" font-size="10.00">src/utils.h</text>
</a>
</g>
</g>
<!-- Node8&#45;&gt;Node11 -->
<g id="edge12" class="edge">
<title>Node8&#45;&gt;Node11</title>
<path fill="none" stroke="midnightblue" d="M316.32,-113.72C319.08,-113.14 321.82,-112.56 324.5,-112 400.41,-96.11 421.87,-92.89 501.3,-76.23"/>
<polygon fill="midnightblue" stroke="midnightblue" points="502.22,-79.61 511.28,-74.12 500.78,-72.76 502.22,-79.61"/>
</g>
<!-- Node12 -->
<g id="node12" class="node">
<title>Node12</title>
<g id="a_node12"><a xlink:title=" ">
<polygon fill="none" stroke="#bfbfbf" points="521,-0.5 521,-19.5 566,-19.5 566,-0.5 521,-0.5"/>
<text text-anchor="middle" x="543.5" y="-7.5" font-family="Helvetica,sans-Serif" font-size="10.00">utility</text>
</a>
</g>
</g>
<!-- Node11&#45;&gt;Node12 -->
<g id="edge13" class="edge">
<title>Node11&#45;&gt;Node12</title>
<path fill="none" stroke="midnightblue" d="M543.5,-56.08C543.5,-49.01 543.5,-38.86 543.5,-29.99"/>
<polygon fill="midnightblue" stroke="midnightblue" points="547,-29.75 543.5,-19.75 540,-29.75 547,-29.75"/>
</g>
</g>
</svg>
