<?xml version="1.0" encoding="UTF-8" standalone="no"?>
<!DOCTYPE svg PUBLIC "-//W3C//DTD SVG 1.1//EN"
 "http://www.w3.org/Graphics/SVG/1.1/DTD/svg11.dtd">
<!-- Generated by graphviz version 2.43.0 (0)
 -->
<!-- Title: src/gui/screen_settings/screen_settings.cpp Pages: 1 -->
<svg width="466pt" height="207pt"
 viewBox="0.00 0.00 465.50 207.00" xmlns="http://www.w3.org/2000/svg" xmlns:xlink="http://www.w3.org/1999/xlink">
<g id="graph0" class="graph" transform="scale(1 1) rotate(0) translate(4 203)">
<title>src/gui/screen_settings/screen_settings.cpp</title>
<!-- Node1 -->
<g id="node1" class="node">
<title>Node1</title>
<g id="a_node1"><a xlink:title=" ">
<polygon fill="#bfbfbf" stroke="black" points="257.5,-168.5 257.5,-198.5 385.5,-198.5 385.5,-168.5 257.5,-168.5"/>
<text text-anchor="start" x="265.5" y="-186.5" font-family="Helvetica,sans-Serif" font-size="10.00">src/gui/screen_settings</text>
<text text-anchor="middle" x="321.5" y="-175.5" font-family="Helvetica,sans-Serif" font-size="10.00">/screen_settings.cpp</text>
</a>
</g>
</g>
<!-- Node2 -->
<g id="node2" class="node">
<title>Node2</title>
<g id="a_node2"><a xlink:href="screen__settings_8h.html" target="_top" xlink:title=" ">
<polygon fill="none" stroke="black" points="143.5,-112.5 143.5,-131.5 245.5,-131.5 245.5,-112.5 143.5,-112.5"/>
<text text-anchor="middle" x="194.5" y="-119.5" font-family="Helvetica,sans-Serif" font-size="10.00">screen_settings.h</text>
</a>
</g>
</g>
<!-- Node1&#45;&gt;Node2 -->
<g id="edge1" class="edge">
<title>Node1&#45;&gt;Node2</title>
<path fill="none" stroke="midnightblue" d="M291.4,-168.4C270.38,-158.55 242.53,-145.5 222.08,-135.92"/>
<polygon fill="midnightblue" stroke="midnightblue" points="223.52,-132.73 212.98,-131.66 220.55,-139.07 223.52,-132.73"/>
</g>
<!-- Node8 -->
<g id="node8" class="node">
<title>Node8</title>
<g id="a_node8"><a xlink:title=" ">
<polygon fill="none" stroke="#bfbfbf" points="263.5,-112.5 263.5,-131.5 379.5,-131.5 379.5,-112.5 263.5,-112.5"/>
<text text-anchor="middle" x="321.5" y="-119.5" font-family="Helvetica,sans-Serif" font-size="10.00">ui_screen_settings.h</text>
</a>
</g>
</g>
<!-- Node1&#45;&gt;Node8 -->
<g id="edge7" class="edge">
<title>Node1&#45;&gt;Node8</title>
<path fill="none" stroke="midnightblue" d="M321.5,-168.4C321.5,-160.47 321.5,-150.46 321.5,-141.86"/>
<polygon fill="midnightblue" stroke="midnightblue" points="325,-141.66 321.5,-131.66 318,-141.66 325,-141.66"/>
</g>
<!-- Node9 -->
<g id="node9" class="node">
<title>Node9</title>
<g id="a_node9"><a xlink:title=" ">
<polygon fill="none" stroke="#bfbfbf" points="397.5,-112.5 397.5,-131.5 457.5,-131.5 457.5,-112.5 397.5,-112.5"/>
<text text-anchor="middle" x="427.5" y="-119.5" font-family="Helvetica,sans-Serif" font-size="10.00">iostream</text>
</a>
</g>
</g>
<!-- Node1&#45;&gt;Node9 -->
<g id="edge8" class="edge">
<title>Node1&#45;&gt;Node9</title>
<path fill="none" stroke="midnightblue" d="M346.62,-168.4C363.77,-158.77 386.36,-146.09 403.31,-136.58"/>
<polygon fill="midnightblue" stroke="midnightblue" points="405.07,-139.6 412.08,-131.66 401.64,-133.5 405.07,-139.6"/>
</g>
<!-- Node3 -->
<g id="node3" class="node">
<title>Node3</title>
<g id="a_node3"><a xlink:title=" ">
<polygon fill="none" stroke="#bfbfbf" points="0,-56.5 0,-75.5 85,-75.5 85,-56.5 0,-56.5"/>
<text text-anchor="middle" x="42.5" y="-63.5" font-family="Helvetica,sans-Serif" font-size="10.00">QMediaPlayer</text>
</a>
</g>
</g>
<!-- Node2&#45;&gt;Node3 -->
<g id="edge2" class="edge">
<title>Node2&#45;&gt;Node3</title>
<path fill="none" stroke="midnightblue" d="M170.42,-112.44C144.96,-103.4 104.61,-89.06 76.04,-78.92"/>
<polygon fill="midnightblue" stroke="midnightblue" points="77.07,-75.57 66.47,-75.52 74.72,-82.16 77.07,-75.57"/>
</g>
<!-- Node4 -->
<g id="node4" class="node">
<title>Node4</title>
<g id="a_node4"><a xlink:title=" ">
<polygon fill="none" stroke="#bfbfbf" points="103.5,-56.5 103.5,-75.5 193.5,-75.5 193.5,-56.5 103.5,-56.5"/>
<text text-anchor="middle" x="148.5" y="-63.5" font-family="Helvetica,sans-Serif" font-size="10.00">QMediaPlaylist</text>
</a>
</g>
</g>
<!-- Node2&#45;&gt;Node4 -->
<g id="edge3" class="edge">
<title>Node2&#45;&gt;Node4</title>
<path fill="none" stroke="midnightblue" d="M186.9,-112.08C180.27,-104.3 170.48,-92.8 162.44,-83.37"/>
<polygon fill="midnightblue" stroke="midnightblue" points="165.1,-81.09 155.95,-75.75 159.77,-85.63 165.1,-81.09"/>
</g>
<!-- Node5 -->
<g id="node5" class="node">
<title>Node5</title>
<g id="a_node5"><a xlink:title=" ">
<polygon fill="none" stroke="#bfbfbf" points="212,-56.5 212,-75.5 271,-75.5 271,-56.5 212,-56.5"/>
<text text-anchor="middle" x="241.5" y="-63.5" font-family="Helvetica,sans-Serif" font-size="10.00">QWidget</text>
</a>
</g>
</g>
<!-- Node2&#45;&gt;Node5 -->
<g id="edge4" class="edge">
<title>Node2&#45;&gt;Node5</title>
<path fill="none" stroke="midnightblue" d="M202.26,-112.08C209.04,-104.3 219.04,-92.8 227.26,-83.37"/>
<polygon fill="midnightblue" stroke="midnightblue" points="229.96,-85.59 233.88,-75.75 224.68,-81 229.96,-85.59"/>
</g>
<!-- Node6 -->
<g id="node6" class="node">
<title>Node6</title>
<g id="a_node6"><a xlink:href="constants_8h.html" target="_top" xlink:title=" ">
<polygon fill="none" stroke="black" points="289.5,-56.5 289.5,-75.5 379.5,-75.5 379.5,-56.5 289.5,-56.5"/>
<text text-anchor="middle" x="334.5" y="-63.5" font-family="Helvetica,sans-Serif" font-size="10.00">src/constants.h</text>
</a>
</g>
</g>
<!-- Node2&#45;&gt;Node6 -->
<g id="edge5" class="edge">
<title>Node2&#45;&gt;Node6</title>
<path fill="none" stroke="midnightblue" d="M216.68,-112.44C239.93,-103.48 276.65,-89.31 302.92,-79.18"/>
<polygon fill="midnightblue" stroke="midnightblue" points="304.35,-82.38 312.42,-75.52 301.83,-75.85 304.35,-82.38"/>
</g>
<!-- Node7 -->
<g id="node7" class="node">
<title>Node7</title>
<g id="a_node7"><a xlink:title=" ">
<polygon fill="none" stroke="#bfbfbf" points="307,-0.5 307,-19.5 362,-19.5 362,-0.5 307,-0.5"/>
<text text-anchor="middle" x="334.5" y="-7.5" font-family="Helvetica,sans-Serif" font-size="10.00">QVector</text>
</a>
</g>
</g>
<!-- Node6&#45;&gt;Node7 -->
<g id="edge6" class="edge">
<title>Node6&#45;&gt;Node7</title>
<path fill="none" stroke="midnightblue" d="M334.5,-56.08C334.5,-49.01 334.5,-38.86 334.5,-29.99"/>
<polygon fill="midnightblue" stroke="midnightblue" points="338,-29.75 334.5,-19.75 331,-29.75 338,-29.75"/>
</g>
</g>
</svg>
