<?xml version="1.0" encoding="UTF-8" standalone="no"?>
<!DOCTYPE svg PUBLIC "-//W3C//DTD SVG 1.1//EN"
 "http://www.w3.org/Graphics/SVG/1.1/DTD/svg11.dtd">
<!-- Generated by graphviz version 2.43.0 (0)
 -->
<!-- Title: src/storage/settings/settings.cpp Pages: 1 -->
<svg width="498pt" height="151pt"
 viewBox="0.00 0.00 497.50 151.00" xmlns="http://www.w3.org/2000/svg" xmlns:xlink="http://www.w3.org/1999/xlink">
<g id="graph0" class="graph" transform="scale(1 1) rotate(0) translate(4 147)">
<title>src/storage/settings/settings.cpp</title>
<!-- Node1 -->
<g id="node1" class="node">
<title>Node1</title>
<g id="a_node1"><a xlink:title=" ">
<polygon fill="#bfbfbf" stroke="black" points="191,-112.5 191,-142.5 304,-142.5 304,-112.5 191,-112.5"/>
<text text-anchor="start" x="199" y="-130.5" font-family="Helvetica,sans-Serif" font-size="10.00">src/storage/settings</text>
<text text-anchor="middle" x="247.5" y="-119.5" font-family="Helvetica,sans-Serif" font-size="10.00">/settings.cpp</text>
</a>
</g>
</g>
<!-- Node2 -->
<g id="node2" class="node">
<title>Node2</title>
<g id="a_node2"><a xlink:href="settings_8h.html" target="_top" xlink:title=" ">
<polygon fill="none" stroke="black" points="215,-56.5 215,-75.5 280,-75.5 280,-56.5 215,-56.5"/>
<text text-anchor="middle" x="247.5" y="-63.5" font-family="Helvetica,sans-Serif" font-size="10.00">settings.h</text>
</a>
</g>
</g>
<!-- Node1&#45;&gt;Node2 -->
<g id="edge1" class="edge">
<title>Node1&#45;&gt;Node2</title>
<path fill="none" stroke="midnightblue" d="M247.5,-112.4C247.5,-104.47 247.5,-94.46 247.5,-85.86"/>
<polygon fill="midnightblue" stroke="midnightblue" points="251,-85.66 247.5,-75.66 244,-85.66 251,-85.66"/>
</g>
<!-- Node3 -->
<g id="node3" class="node">
<title>Node3</title>
<g id="a_node3"><a xlink:title=" ">
<polygon fill="none" stroke="#bfbfbf" points="0,-0.5 0,-19.5 41,-19.5 41,-0.5 0,-0.5"/>
<text text-anchor="middle" x="20.5" y="-7.5" font-family="Helvetica,sans-Serif" font-size="10.00">QFile</text>
</a>
</g>
</g>
<!-- Node2&#45;&gt;Node3 -->
<g id="edge2" class="edge">
<title>Node2&#45;&gt;Node3</title>
<path fill="none" stroke="midnightblue" d="M214.73,-58.36C177.22,-50.59 113.79,-36.91 50.74,-20.19"/>
<polygon fill="midnightblue" stroke="midnightblue" points="51.6,-16.8 41.04,-17.59 49.79,-23.56 51.6,-16.8"/>
</g>
<!-- Node4 -->
<g id="node4" class="node">
<title>Node4</title>
<g id="a_node4"><a xlink:title=" ">
<polygon fill="none" stroke="#bfbfbf" points="59,-0.5 59,-19.5 130,-19.5 130,-0.5 59,-0.5"/>
<text text-anchor="middle" x="94.5" y="-7.5" font-family="Helvetica,sans-Serif" font-size="10.00">QJsonArray</text>
</a>
</g>
</g>
<!-- Node2&#45;&gt;Node4 -->
<g id="edge3" class="edge">
<title>Node2&#45;&gt;Node4</title>
<path fill="none" stroke="midnightblue" d="M223.26,-56.44C197.63,-47.4 157.01,-33.06 128.26,-22.92"/>
<polygon fill="midnightblue" stroke="midnightblue" points="129.22,-19.54 118.63,-19.52 126.89,-26.15 129.22,-19.54"/>
</g>
<!-- Node5 -->
<g id="node5" class="node">
<title>Node5</title>
<g id="a_node5"><a xlink:title=" ">
<polygon fill="none" stroke="#bfbfbf" points="148,-0.5 148,-19.5 243,-19.5 243,-0.5 148,-0.5"/>
<text text-anchor="middle" x="195.5" y="-7.5" font-family="Helvetica,sans-Serif" font-size="10.00">QJsonDocument</text>
</a>
</g>
</g>
<!-- Node2&#45;&gt;Node5 -->
<g id="edge4" class="edge">
<title>Node2&#45;&gt;Node5</title>
<path fill="none" stroke="midnightblue" d="M238.91,-56.08C231.34,-48.22 220.12,-36.57 210.99,-27.08"/>
<polygon fill="midnightblue" stroke="midnightblue" points="213.38,-24.53 203.93,-19.75 208.34,-29.38 213.38,-24.53"/>
</g>
<!-- Node6 -->
<g id="node6" class="node">
<title>Node6</title>
<g id="a_node6"><a xlink:title=" ">
<polygon fill="none" stroke="#bfbfbf" points="261.5,-0.5 261.5,-19.5 337.5,-19.5 337.5,-0.5 261.5,-0.5"/>
<text text-anchor="middle" x="299.5" y="-7.5" font-family="Helvetica,sans-Serif" font-size="10.00">QJsonObject</text>
</a>
</g>
</g>
<!-- Node2&#45;&gt;Node6 -->
<g id="edge5" class="edge">
<title>Node2&#45;&gt;Node6</title>
<path fill="none" stroke="midnightblue" d="M256.09,-56.08C263.66,-48.22 274.88,-36.57 284.01,-27.08"/>
<polygon fill="midnightblue" stroke="midnightblue" points="286.66,-29.38 291.07,-19.75 281.62,-24.53 286.66,-29.38"/>
</g>
<!-- Node7 -->
<g id="node7" class="node">
<title>Node7</title>
<g id="a_node7"><a xlink:title=" ">
<polygon fill="none" stroke="#bfbfbf" points="355.5,-0.5 355.5,-19.5 411.5,-19.5 411.5,-0.5 355.5,-0.5"/>
<text text-anchor="middle" x="383.5" y="-7.5" font-family="Helvetica,sans-Serif" font-size="10.00">QObject</text>
</a>
</g>
</g>
<!-- Node2&#45;&gt;Node7 -->
<g id="edge6" class="edge">
<title>Node2&#45;&gt;Node7</title>
<path fill="none" stroke="midnightblue" d="M269.05,-56.44C291.53,-47.52 326.99,-33.44 352.48,-23.32"/>
<polygon fill="midnightblue" stroke="midnightblue" points="354.05,-26.46 362.05,-19.52 351.47,-19.95 354.05,-26.46"/>
</g>
<!-- Node8 -->
<g id="node8" class="node">
<title>Node8</title>
<g id="a_node8"><a xlink:title=" ">
<polygon fill="none" stroke="#bfbfbf" points="429.5,-0.5 429.5,-19.5 489.5,-19.5 489.5,-0.5 429.5,-0.5"/>
<text text-anchor="middle" x="459.5" y="-7.5" font-family="Helvetica,sans-Serif" font-size="10.00">iostream</text>
</a>
</g>
</g>
<!-- Node2&#45;&gt;Node8 -->
<g id="edge7" class="edge">
<title>Node2&#45;&gt;Node8</title>
<path fill="none" stroke="midnightblue" d="M280.16,-56.68C317.64,-47.14 379.1,-31.48 419.44,-21.2"/>
<polygon fill="midnightblue" stroke="midnightblue" points="420.38,-24.58 429.21,-18.72 418.65,-17.79 420.38,-24.58"/>
</g>
</g>
</svg>
