<?xml version="1.0" encoding="UTF-8" standalone="no"?>
<!DOCTYPE svg PUBLIC "-//W3C//DTD SVG 1.1//EN"
 "http://www.w3.org/Graphics/SVG/1.1/DTD/svg11.dtd">
<!-- Generated by graphviz version 2.43.0 (0)
 -->
<!-- Title: src/storage/liderboard/liderboard.h Pages: 1 -->
<svg width="669pt" height="151pt"
 viewBox="0.00 0.00 669.00 151.00" xmlns="http://www.w3.org/2000/svg" xmlns:xlink="http://www.w3.org/1999/xlink">
<g id="graph0" class="graph" transform="scale(1 1) rotate(0) translate(4 147)">
<title>src/storage/liderboard/liderboard.h</title>
<!-- Node1 -->
<g id="node1" class="node">
<title>Node1</title>
<g id="a_node1"><a xlink:title=" ">
<polygon fill="#bfbfbf" stroke="black" points="280,-112.5 280,-142.5 403,-142.5 403,-112.5 280,-112.5"/>
<text text-anchor="start" x="288" y="-130.5" font-family="Helvetica,sans-Serif" font-size="10.00">src/storage/liderboard</text>
<text text-anchor="middle" x="341.5" y="-119.5" font-family="Helvetica,sans-Serif" font-size="10.00">/liderboard.h</text>
</a>
</g>
</g>
<!-- Node2 -->
<g id="node2" class="node">
<title>Node2</title>
<g id="a_node2"><a xlink:title=" ">
<polygon fill="none" stroke="#bfbfbf" points="0,-56.5 0,-75.5 41,-75.5 41,-56.5 0,-56.5"/>
<text text-anchor="middle" x="20.5" y="-63.5" font-family="Helvetica,sans-Serif" font-size="10.00">QFile</text>
</a>
</g>
</g>
<!-- Node1&#45;&gt;Node2 -->
<g id="edge1" class="edge">
<title>Node1&#45;&gt;Node2</title>
<path fill="none" stroke="midnightblue" d="M279.79,-118.2C222.62,-109.98 135.13,-96.04 50.98,-76.12"/>
<polygon fill="midnightblue" stroke="midnightblue" points="51.54,-72.65 41,-73.72 49.91,-79.46 51.54,-72.65"/>
</g>
<!-- Node3 -->
<g id="node3" class="node">
<title>Node3</title>
<g id="a_node3"><a xlink:title=" ">
<polygon fill="none" stroke="#bfbfbf" points="59,-56.5 59,-75.5 130,-75.5 130,-56.5 59,-56.5"/>
<text text-anchor="middle" x="94.5" y="-63.5" font-family="Helvetica,sans-Serif" font-size="10.00">QJsonArray</text>
</a>
</g>
</g>
<!-- Node1&#45;&gt;Node3 -->
<g id="edge2" class="edge">
<title>Node1&#45;&gt;Node3</title>
<path fill="none" stroke="midnightblue" d="M283.28,-112.47C239.36,-101.9 179.99,-87.59 139.64,-77.87"/>
<polygon fill="midnightblue" stroke="midnightblue" points="140.35,-74.45 129.81,-75.51 138.71,-81.25 140.35,-74.45"/>
</g>
<!-- Node4 -->
<g id="node4" class="node">
<title>Node4</title>
<g id="a_node4"><a xlink:title=" ">
<polygon fill="none" stroke="#bfbfbf" points="148,-56.5 148,-75.5 243,-75.5 243,-56.5 148,-56.5"/>
<text text-anchor="middle" x="195.5" y="-63.5" font-family="Helvetica,sans-Serif" font-size="10.00">QJsonDocument</text>
</a>
</g>
</g>
<!-- Node1&#45;&gt;Node4 -->
<g id="edge3" class="edge">
<title>Node1&#45;&gt;Node4</title>
<path fill="none" stroke="midnightblue" d="M306.9,-112.4C282.4,-102.42 249.84,-89.15 226.25,-79.53"/>
<polygon fill="midnightblue" stroke="midnightblue" points="227.33,-76.19 216.74,-75.66 224.68,-82.67 227.33,-76.19"/>
</g>
<!-- Node5 -->
<g id="node5" class="node">
<title>Node5</title>
<g id="a_node5"><a xlink:title=" ">
<polygon fill="none" stroke="#bfbfbf" points="261.5,-56.5 261.5,-75.5 337.5,-75.5 337.5,-56.5 261.5,-56.5"/>
<text text-anchor="middle" x="299.5" y="-63.5" font-family="Helvetica,sans-Serif" font-size="10.00">QJsonObject</text>
</a>
</g>
</g>
<!-- Node1&#45;&gt;Node5 -->
<g id="edge4" class="edge">
<title>Node1&#45;&gt;Node5</title>
<path fill="none" stroke="midnightblue" d="M331.55,-112.4C325.51,-103.84 317.76,-92.87 311.4,-83.86"/>
<polygon fill="midnightblue" stroke="midnightblue" points="314.24,-81.81 305.61,-75.66 308.52,-85.85 314.24,-81.81"/>
</g>
<!-- Node6 -->
<g id="node6" class="node">
<title>Node6</title>
<g id="a_node6"><a xlink:title=" ">
<polygon fill="none" stroke="#bfbfbf" points="355.5,-56.5 355.5,-75.5 411.5,-75.5 411.5,-56.5 355.5,-56.5"/>
<text text-anchor="middle" x="383.5" y="-63.5" font-family="Helvetica,sans-Serif" font-size="10.00">QObject</text>
</a>
</g>
</g>
<!-- Node1&#45;&gt;Node6 -->
<g id="edge5" class="edge">
<title>Node1&#45;&gt;Node6</title>
<path fill="none" stroke="midnightblue" d="M351.45,-112.4C357.49,-103.84 365.24,-92.87 371.6,-83.86"/>
<polygon fill="midnightblue" stroke="midnightblue" points="374.48,-85.85 377.39,-75.66 368.76,-81.81 374.48,-85.85"/>
</g>
<!-- Node7 -->
<g id="node7" class="node">
<title>Node7</title>
<g id="a_node7"><a xlink:title=" ">
<polygon fill="none" stroke="#bfbfbf" points="429.5,-56.5 429.5,-75.5 489.5,-75.5 489.5,-56.5 429.5,-56.5"/>
<text text-anchor="middle" x="459.5" y="-63.5" font-family="Helvetica,sans-Serif" font-size="10.00">iostream</text>
</a>
</g>
</g>
<!-- Node1&#45;&gt;Node7 -->
<g id="edge6" class="edge">
<title>Node1&#45;&gt;Node7</title>
<path fill="none" stroke="midnightblue" d="M369.46,-112.4C388.82,-102.64 414.41,-89.74 433.36,-80.18"/>
<polygon fill="midnightblue" stroke="midnightblue" points="434.98,-83.29 442.33,-75.66 431.83,-77.04 434.98,-83.29"/>
</g>
<!-- Node8 -->
<g id="node8" class="node">
<title>Node8</title>
<g id="a_node8"><a xlink:title=" ">
<polygon fill="none" stroke="#bfbfbf" points="508,-56.5 508,-75.5 555,-75.5 555,-56.5 508,-56.5"/>
<text text-anchor="middle" x="531.5" y="-63.5" font-family="Helvetica,sans-Serif" font-size="10.00">qlist.h</text>
</a>
</g>
</g>
<!-- Node1&#45;&gt;Node8 -->
<g id="edge7" class="edge">
<title>Node1&#45;&gt;Node8</title>
<path fill="none" stroke="midnightblue" d="M386.53,-112.4C420.74,-101.69 467.04,-87.19 498.02,-77.48"/>
<polygon fill="midnightblue" stroke="midnightblue" points="499.4,-80.72 507.9,-74.39 497.31,-74.04 499.4,-80.72"/>
</g>
<!-- Node9 -->
<g id="node9" class="node">
<title>Node9</title>
<g id="a_node9"><a xlink:href="utils_8h.html" target="_top" xlink:title=" ">
<polygon fill="none" stroke="black" points="573.5,-56.5 573.5,-75.5 637.5,-75.5 637.5,-56.5 573.5,-56.5"/>
<text text-anchor="middle" x="605.5" y="-63.5" font-family="Helvetica,sans-Serif" font-size="10.00">src/utils.h</text>
</a>
</g>
</g>
<!-- Node1&#45;&gt;Node9 -->
<g id="edge8" class="edge">
<title>Node1&#45;&gt;Node9</title>
<path fill="none" stroke="midnightblue" d="M403.06,-112.62C452.29,-101.53 520,-86.27 563.27,-76.52"/>
<polygon fill="midnightblue" stroke="midnightblue" points="564.19,-79.9 573.18,-74.28 562.65,-73.07 564.19,-79.9"/>
</g>
<!-- Node10 -->
<g id="node10" class="node">
<title>Node10</title>
<g id="a_node10"><a xlink:title=" ">
<polygon fill="none" stroke="#bfbfbf" points="545,-0.5 545,-19.5 598,-19.5 598,-0.5 545,-0.5"/>
<text text-anchor="middle" x="571.5" y="-7.5" font-family="Helvetica,sans-Serif" font-size="10.00">QString</text>
</a>
</g>
</g>
<!-- Node9&#45;&gt;Node10 -->
<g id="edge9" class="edge">
<title>Node9&#45;&gt;Node10</title>
<path fill="none" stroke="midnightblue" d="M599.89,-56.08C595.13,-48.53 588.18,-37.49 582.35,-28.23"/>
<polygon fill="midnightblue" stroke="midnightblue" points="585.3,-26.35 577.01,-19.75 579.38,-30.08 585.3,-26.35"/>
</g>
<!-- Node11 -->
<g id="node11" class="node">
<title>Node11</title>
<g id="a_node11"><a xlink:title=" ">
<polygon fill="none" stroke="#bfbfbf" points="616,-0.5 616,-19.5 661,-19.5 661,-0.5 616,-0.5"/>
<text text-anchor="middle" x="638.5" y="-7.5" font-family="Helvetica,sans-Serif" font-size="10.00">utility</text>
</a>
</g>
</g>
<!-- Node9&#45;&gt;Node11 -->
<g id="edge10" class="edge">
<title>Node9&#45;&gt;Node11</title>
<path fill="none" stroke="midnightblue" d="M610.95,-56.08C615.51,-48.61 622.17,-37.72 627.79,-28.52"/>
<polygon fill="midnightblue" stroke="midnightblue" points="630.92,-30.11 633.15,-19.75 624.95,-26.46 630.92,-30.11"/>
</g>
</g>
</svg>
