<?xml version="1.0" encoding="UTF-8" standalone="no"?>
<!DOCTYPE svg PUBLIC "-//W3C//DTD SVG 1.1//EN"
 "http://www.w3.org/Graphics/SVG/1.1/DTD/svg11.dtd">
<!-- Generated by graphviz version 2.43.0 (0)
 -->
<!-- Title: src/storage/liderboard/liderboard.cpp Pages: 1 -->
<svg width="753pt" height="207pt"
 viewBox="0.00 0.00 752.50 207.00" xmlns="http://www.w3.org/2000/svg" xmlns:xlink="http://www.w3.org/1999/xlink">
<g id="graph0" class="graph" transform="scale(1 1) rotate(0) translate(4 203)">
<title>src/storage/liderboard/liderboard.cpp</title>
<!-- Node1 -->
<g id="node1" class="node">
<title>Node1</title>
<g id="a_node1"><a xlink:title=" ">
<polygon fill="#bfbfbf" stroke="black" points="477.5,-168.5 477.5,-198.5 600.5,-198.5 600.5,-168.5 477.5,-168.5"/>
<text text-anchor="start" x="485.5" y="-186.5" font-family="Helvetica,sans-Serif" font-size="10.00">src/storage/liderboard</text>
<text text-anchor="middle" x="539" y="-175.5" font-family="Helvetica,sans-Serif" font-size="10.00">/liderboard.cpp</text>
</a>
</g>
</g>
<!-- Node2 -->
<g id="node2" class="node">
<title>Node2</title>
<g id="a_node2"><a xlink:href="storage_2liderboard_2liderboard_8h.html" target="_top" xlink:title=" ">
<polygon fill="none" stroke="black" points="360.5,-112.5 360.5,-131.5 435.5,-131.5 435.5,-112.5 360.5,-112.5"/>
<text text-anchor="middle" x="398" y="-119.5" font-family="Helvetica,sans-Serif" font-size="10.00">liderboard.h</text>
</a>
</g>
</g>
<!-- Node1&#45;&gt;Node2 -->
<g id="edge1" class="edge">
<title>Node1&#45;&gt;Node2</title>
<path fill="none" stroke="midnightblue" d="M505.58,-168.4C482.03,-158.46 450.76,-145.26 428.01,-135.66"/>
<polygon fill="midnightblue" stroke="midnightblue" points="429.09,-132.32 418.52,-131.66 426.37,-138.77 429.09,-132.32"/>
</g>
<!-- Node13 -->
<g id="node13" class="node">
<title>Node13</title>
<g id="a_node13"><a xlink:title=" ">
<polygon fill="none" stroke="#bfbfbf" points="699.5,-0.5 699.5,-19.5 744.5,-19.5 744.5,-0.5 699.5,-0.5"/>
<text text-anchor="middle" x="722" y="-7.5" font-family="Helvetica,sans-Serif" font-size="10.00">utility</text>
</a>
</g>
</g>
<!-- Node1&#45;&gt;Node13 -->
<g id="edge13" class="edge">
<title>Node1&#45;&gt;Node13</title>
<path fill="none" stroke="midnightblue" d="M574.44,-168.43C611.81,-151.81 669.77,-120.67 703,-76 712.98,-62.59 717.73,-44.02 719.99,-30.17"/>
<polygon fill="midnightblue" stroke="midnightblue" points="723.51,-30.22 721.36,-19.85 716.57,-29.3 723.51,-30.22"/>
</g>
<!-- Node3 -->
<g id="node3" class="node">
<title>Node3</title>
<g id="a_node3"><a xlink:title=" ">
<polygon fill="none" stroke="#bfbfbf" points="0,-56.5 0,-75.5 38,-75.5 38,-56.5 0,-56.5"/>
<text text-anchor="middle" x="19" y="-63.5" font-family="Helvetica,sans-Serif" font-size="10.00">QDir</text>
</a>
</g>
</g>
<!-- Node2&#45;&gt;Node3 -->
<g id="edge2" class="edge">
<title>Node2&#45;&gt;Node3</title>
<path fill="none" stroke="midnightblue" d="M360.47,-118.46C297.59,-113.71 166.98,-101.77 48.14,-75.88"/>
<polygon fill="midnightblue" stroke="midnightblue" points="48.67,-72.42 38.15,-73.67 47.16,-79.25 48.67,-72.42"/>
</g>
<!-- Node4 -->
<g id="node4" class="node">
<title>Node4</title>
<g id="a_node4"><a xlink:title=" ">
<polygon fill="none" stroke="#bfbfbf" points="56.5,-56.5 56.5,-75.5 97.5,-75.5 97.5,-56.5 56.5,-56.5"/>
<text text-anchor="middle" x="77" y="-63.5" font-family="Helvetica,sans-Serif" font-size="10.00">QFile</text>
</a>
</g>
</g>
<!-- Node2&#45;&gt;Node4 -->
<g id="edge3" class="edge">
<title>Node2&#45;&gt;Node4</title>
<path fill="none" stroke="midnightblue" d="M360.33,-117C306.23,-110.87 203.34,-97.74 107.64,-76.12"/>
<polygon fill="midnightblue" stroke="midnightblue" points="108.34,-72.69 97.81,-73.86 106.77,-79.51 108.34,-72.69"/>
</g>
<!-- Node5 -->
<g id="node5" class="node">
<title>Node5</title>
<g id="a_node5"><a xlink:title=" ">
<polygon fill="none" stroke="#bfbfbf" points="115.5,-56.5 115.5,-75.5 186.5,-75.5 186.5,-56.5 115.5,-56.5"/>
<text text-anchor="middle" x="151" y="-63.5" font-family="Helvetica,sans-Serif" font-size="10.00">QJsonArray</text>
</a>
</g>
</g>
<!-- Node2&#45;&gt;Node5 -->
<g id="edge4" class="edge">
<title>Node2&#45;&gt;Node5</title>
<path fill="none" stroke="midnightblue" d="M360.49,-112.8C316.61,-103.21 243.98,-87.33 196.81,-77.01"/>
<polygon fill="midnightblue" stroke="midnightblue" points="197.37,-73.56 186.86,-74.84 195.88,-80.39 197.37,-73.56"/>
</g>
<!-- Node6 -->
<g id="node6" class="node">
<title>Node6</title>
<g id="a_node6"><a xlink:title=" ">
<polygon fill="none" stroke="#bfbfbf" points="204.5,-56.5 204.5,-75.5 299.5,-75.5 299.5,-56.5 204.5,-56.5"/>
<text text-anchor="middle" x="252" y="-63.5" font-family="Helvetica,sans-Serif" font-size="10.00">QJsonDocument</text>
</a>
</g>
</g>
<!-- Node2&#45;&gt;Node6 -->
<g id="edge5" class="edge">
<title>Node2&#45;&gt;Node6</title>
<path fill="none" stroke="midnightblue" d="M374.87,-112.44C350.52,-103.44 311.99,-89.19 284.58,-79.05"/>
<polygon fill="midnightblue" stroke="midnightblue" points="285.62,-75.7 275.03,-75.52 283.19,-82.27 285.62,-75.7"/>
</g>
<!-- Node7 -->
<g id="node7" class="node">
<title>Node7</title>
<g id="a_node7"><a xlink:title=" ">
<polygon fill="none" stroke="#bfbfbf" points="318,-56.5 318,-75.5 394,-75.5 394,-56.5 318,-56.5"/>
<text text-anchor="middle" x="356" y="-63.5" font-family="Helvetica,sans-Serif" font-size="10.00">QJsonObject</text>
</a>
</g>
</g>
<!-- Node2&#45;&gt;Node7 -->
<g id="edge6" class="edge">
<title>Node2&#45;&gt;Node7</title>
<path fill="none" stroke="midnightblue" d="M391.06,-112.08C385.07,-104.38 376.25,-93.03 368.95,-83.65"/>
<polygon fill="midnightblue" stroke="midnightblue" points="371.71,-81.5 362.81,-75.75 366.18,-85.79 371.71,-81.5"/>
</g>
<!-- Node8 -->
<g id="node8" class="node">
<title>Node8</title>
<g id="a_node8"><a xlink:title=" ">
<polygon fill="none" stroke="#bfbfbf" points="412,-56.5 412,-75.5 468,-75.5 468,-56.5 412,-56.5"/>
<text text-anchor="middle" x="440" y="-63.5" font-family="Helvetica,sans-Serif" font-size="10.00">QObject</text>
</a>
</g>
</g>
<!-- Node2&#45;&gt;Node8 -->
<g id="edge7" class="edge">
<title>Node2&#45;&gt;Node8</title>
<path fill="none" stroke="midnightblue" d="M404.94,-112.08C410.93,-104.38 419.75,-93.03 427.05,-83.65"/>
<polygon fill="midnightblue" stroke="midnightblue" points="429.82,-85.79 433.19,-75.75 424.29,-81.5 429.82,-85.79"/>
</g>
<!-- Node9 -->
<g id="node9" class="node">
<title>Node9</title>
<g id="a_node9"><a xlink:title=" ">
<polygon fill="none" stroke="#bfbfbf" points="486,-56.5 486,-75.5 546,-75.5 546,-56.5 486,-56.5"/>
<text text-anchor="middle" x="516" y="-63.5" font-family="Helvetica,sans-Serif" font-size="10.00">iostream</text>
</a>
</g>
</g>
<!-- Node2&#45;&gt;Node9 -->
<g id="edge8" class="edge">
<title>Node2&#45;&gt;Node9</title>
<path fill="none" stroke="midnightblue" d="M416.7,-112.44C435.94,-103.64 466.15,-89.81 488.2,-79.72"/>
<polygon fill="midnightblue" stroke="midnightblue" points="489.75,-82.86 497.39,-75.52 486.84,-76.5 489.75,-82.86"/>
</g>
<!-- Node10 -->
<g id="node10" class="node">
<title>Node10</title>
<g id="a_node10"><a xlink:title=" ">
<polygon fill="none" stroke="#bfbfbf" points="564.5,-56.5 564.5,-75.5 611.5,-75.5 611.5,-56.5 564.5,-56.5"/>
<text text-anchor="middle" x="588" y="-63.5" font-family="Helvetica,sans-Serif" font-size="10.00">qlist.h</text>
</a>
</g>
</g>
<!-- Node2&#45;&gt;Node10 -->
<g id="edge9" class="edge">
<title>Node2&#45;&gt;Node10</title>
<path fill="none" stroke="midnightblue" d="M428.11,-112.44C462.49,-102.67 518.59,-86.73 554.37,-76.56"/>
<polygon fill="midnightblue" stroke="midnightblue" points="555.68,-79.83 564.34,-73.73 553.76,-73.09 555.68,-79.83"/>
</g>
<!-- Node11 -->
<g id="node11" class="node">
<title>Node11</title>
<g id="a_node11"><a xlink:href="utils_8h.html" target="_top" xlink:title=" ">
<polygon fill="none" stroke="black" points="630,-56.5 630,-75.5 694,-75.5 694,-56.5 630,-56.5"/>
<text text-anchor="middle" x="662" y="-63.5" font-family="Helvetica,sans-Serif" font-size="10.00">src/utils.h</text>
</a>
</g>
</g>
<!-- Node2&#45;&gt;Node11 -->
<g id="edge10" class="edge">
<title>Node2&#45;&gt;Node11</title>
<path fill="none" stroke="midnightblue" d="M435.74,-113.48C479.93,-104.65 555.32,-89.48 620,-76 620.1,-75.98 620.2,-75.96 620.3,-75.94"/>
<polygon fill="midnightblue" stroke="midnightblue" points="620.84,-79.4 629.9,-73.92 619.4,-72.55 620.84,-79.4"/>
</g>
<!-- Node12 -->
<g id="node12" class="node">
<title>Node12</title>
<g id="a_node12"><a xlink:title=" ">
<polygon fill="none" stroke="#bfbfbf" points="628.5,-0.5 628.5,-19.5 681.5,-19.5 681.5,-0.5 628.5,-0.5"/>
<text text-anchor="middle" x="655" y="-7.5" font-family="Helvetica,sans-Serif" font-size="10.00">QString</text>
</a>
</g>
</g>
<!-- Node11&#45;&gt;Node12 -->
<g id="edge11" class="edge">
<title>Node11&#45;&gt;Node12</title>
<path fill="none" stroke="midnightblue" d="M660.84,-56.08C659.92,-48.93 658.58,-38.64 657.42,-29.69"/>
<polygon fill="midnightblue" stroke="midnightblue" points="660.89,-29.22 656.13,-19.75 653.95,-30.12 660.89,-29.22"/>
</g>
<!-- Node11&#45;&gt;Node13 -->
<g id="edge12" class="edge">
<title>Node11&#45;&gt;Node13</title>
<path fill="none" stroke="midnightblue" d="M671.64,-56.32C680.51,-48.34 693.87,-36.31 704.61,-26.65"/>
<polygon fill="midnightblue" stroke="midnightblue" points="707.09,-29.13 712.18,-19.83 702.41,-23.92 707.09,-29.13"/>
</g>
</g>
</svg>
