<?xml version="1.0" encoding="UTF-8" standalone="no"?>
<!DOCTYPE svg PUBLIC "-//W3C//DTD SVG 1.1//EN"
 "http://www.w3.org/Graphics/SVG/1.1/DTD/svg11.dtd">
<!-- Generated by graphviz version 2.43.0 (0)
 -->
<!-- Title: src/storage/liderboard/liderboard.cpp Pages: 1 -->
<!--zoomable 207 -->
<svg id="main" version="1.1" xmlns="http://www.w3.org/2000/svg" xmlns:xlink="http://www.w3.org/1999/xlink" xml:space="preserve" onload="init(evt)">
<style type="text/css"><![CDATA[
.edge:hover path { stroke: red; }
.edge:hover polygon { stroke: red; fill: red; }
]]></style>
<script type="text/javascript"><![CDATA[
var edges = document.getElementsByTagName('g');
if (edges && edges.length) {
  for (var i=0;i<edges.length;i++) {
    if (edges[i].id.substr(0,4)=='edge') {
      edges[i].setAttribute('class','edge');
    }
  }
}
]]></script>
        <defs>
                <circle id="rim" cx="0" cy="0" r="7"/>
                <circle id="rim2" cx="0" cy="0" r="3.5"/>
                <g id="zoomPlus">
                        <use xlink:href="#rim" fill="#404040">
                                <set attributeName="fill" to="#808080" begin="zoomplus.mouseover" end="zoomplus.mouseout"/>
                        </use>
                        <path d="M-4,0h8M0,-4v8" fill="none" stroke="white" stroke-width="1.5" pointer-events="none"/>
                </g>
                <g id="zoomMin">
                        <use xlink:href="#rim" fill="#404040">
                                <set attributeName="fill" to="#808080" begin="zoomminus.mouseover" end="zoomminus.mouseout"/>
                        </use>
                        <path d="M-4,0h8" fill="none" stroke="white" stroke-width="1.5" pointer-events="none"/>
                </g>
                <g id="dirArrow">
                        <path fill="none" stroke="white" stroke-width="1.5" d="M0,-3.0v7 M-2.5,-0.5L0,-3.0L2.5,-0.5"/>
                </g>
               <g id="resetDef">
                       <use xlink:href="#rim2" fill="#404040">
                               <set attributeName="fill" to="#808080" begin="reset.mouseover" end="reset.mouseout"/>
                       </use>
               </g>
        </defs>

<script type="text/javascript">
var viewWidth = 696;
var viewHeight = 207;
var sectionId = 'dynsection-0';
</script>
<script xlink:href="svgpan.js"/>
<svg id="graph" class="graph">
<g id="viewport">
<title>src/storage/liderboard/liderboard.cpp</title>
<!-- Node1 -->
<g id="node1" class="node">
<title>Node1</title>
<g id="a_node1"><a xlink:title=" ">
<polygon fill="#bfbfbf" stroke="black" points="463,-168.5 463,-198.5 586,-198.5 586,-168.5 463,-168.5"/>
<text text-anchor="start" x="471" y="-186.5" font-family="Helvetica,sans-Serif" font-size="10.00">src/storage/liderboard</text>
<text text-anchor="middle" x="524.5" y="-175.5" font-family="Helvetica,sans-Serif" font-size="10.00">/liderboard.cpp</text>
</a>
</g>
</g>
<!-- Node2 -->
<g id="node2" class="node">
<title>Node2</title>
<g id="a_node2"><a xlink:href="storage_2liderboard_2liderboard_8h.html" target="_top" xlink:title=" ">
<polygon fill="none" stroke="black" points="346,-112.5 346,-131.5 421,-131.5 421,-112.5 346,-112.5"/>
<text text-anchor="middle" x="383.5" y="-119.5" font-family="Helvetica,sans-Serif" font-size="10.00">liderboard.h</text>
</a>
</g>
</g>
<!-- Node1&#45;&gt;Node2 -->
<g id="edge1" class="edge">
<title>Node1&#45;&gt;Node2</title>
<path fill="none" stroke="midnightblue" d="M491.08,-168.4C467.53,-158.46 436.26,-145.26 413.51,-135.66"/>
<polygon fill="midnightblue" stroke="midnightblue" points="414.59,-132.32 404.02,-131.66 411.87,-138.77 414.59,-132.32"/>
</g>
<!-- Node12 -->
<g id="node12" class="node">
<title>Node12</title>
<g id="a_node12"><a xlink:title=" ">
<polygon fill="none" stroke="#bfbfbf" points="643,-0.5 643,-19.5 688,-19.5 688,-0.5 643,-0.5"/>
<text text-anchor="middle" x="665.5" y="-7.5" font-family="Helvetica,sans-Serif" font-size="10.00">utility</text>
</a>
</g>
</g>
<!-- Node1&#45;&gt;Node12 -->
<g id="edge12" class="edge">
<title>Node1&#45;&gt;Node12</title>
<path fill="none" stroke="midnightblue" d="M547.35,-168.47C574.87,-150.42 620.61,-116.51 646.5,-76 655.5,-61.91 660.37,-43.42 662.91,-29.77"/>
<polygon fill="midnightblue" stroke="midnightblue" points="666.41,-30.06 664.54,-19.63 659.5,-28.95 666.41,-30.06"/>
</g>
<!-- Node3 -->
<g id="node3" class="node">
<title>Node3</title>
<g id="a_node3"><a xlink:title=" ">
<polygon fill="none" stroke="#bfbfbf" points="0,-56.5 0,-75.5 41,-75.5 41,-56.5 0,-56.5"/>
<text text-anchor="middle" x="20.5" y="-63.5" font-family="Helvetica,sans-Serif" font-size="10.00">QFile</text>
</a>
</g>
</g>
<!-- Node2&#45;&gt;Node3 -->
<g id="edge2" class="edge">
<title>Node2&#45;&gt;Node3</title>
<path fill="none" stroke="midnightblue" d="M345.82,-117.99C285.41,-112.72 163.07,-100.21 51.38,-76.12"/>
<polygon fill="midnightblue" stroke="midnightblue" points="51.82,-72.64 41.3,-73.91 50.31,-79.47 51.82,-72.64"/>
</g>
<!-- Node4 -->
<g id="node4" class="node">
<title>Node4</title>
<g id="a_node4"><a xlink:title=" ">
<polygon fill="none" stroke="#bfbfbf" points="59,-56.5 59,-75.5 130,-75.5 130,-56.5 59,-56.5"/>
<text text-anchor="middle" x="94.5" y="-63.5" font-family="Helvetica,sans-Serif" font-size="10.00">QJsonArray</text>
</a>
</g>
</g>
<!-- Node2&#45;&gt;Node4 -->
<g id="edge3" class="edge">
<title>Node2&#45;&gt;Node4</title>
<path fill="none" stroke="midnightblue" d="M345.68,-114.3C299.49,-106.06 218.71,-91.47 140.1,-76.28"/>
<polygon fill="midnightblue" stroke="midnightblue" points="140.51,-72.8 130.03,-74.33 139.18,-79.67 140.51,-72.8"/>
</g>
<!-- Node5 -->
<g id="node5" class="node">
<title>Node5</title>
<g id="a_node5"><a xlink:title=" ">
<polygon fill="none" stroke="#bfbfbf" points="148,-56.5 148,-75.5 243,-75.5 243,-56.5 148,-56.5"/>
<text text-anchor="middle" x="195.5" y="-63.5" font-family="Helvetica,sans-Serif" font-size="10.00">QJsonDocument</text>
</a>
</g>
</g>
<!-- Node2&#45;&gt;Node5 -->
<g id="edge4" class="edge">
<title>Node2&#45;&gt;Node5</title>
<path fill="none" stroke="midnightblue" d="M353.71,-112.44C321.67,-103.24 270.57,-88.56 235.15,-78.39"/>
<polygon fill="midnightblue" stroke="midnightblue" points="235.73,-74.91 225.15,-75.52 233.79,-81.64 235.73,-74.91"/>
</g>
<!-- Node6 -->
<g id="node6" class="node">
<title>Node6</title>
<g id="a_node6"><a xlink:title=" ">
<polygon fill="none" stroke="#bfbfbf" points="261.5,-56.5 261.5,-75.5 337.5,-75.5 337.5,-56.5 261.5,-56.5"/>
<text text-anchor="middle" x="299.5" y="-63.5" font-family="Helvetica,sans-Serif" font-size="10.00">QJsonObject</text>
</a>
</g>
</g>
<!-- Node2&#45;&gt;Node6 -->
<g id="edge5" class="edge">
<title>Node2&#45;&gt;Node6</title>
<path fill="none" stroke="midnightblue" d="M370,-112.32C356.9,-103.9 336.79,-90.97 321.39,-81.07"/>
<polygon fill="midnightblue" stroke="midnightblue" points="323.27,-78.12 312.96,-75.65 319.48,-84.01 323.27,-78.12"/>
</g>
<!-- Node7 -->
<g id="node7" class="node">
<title>Node7</title>
<g id="a_node7"><a xlink:title=" ">
<polygon fill="none" stroke="#bfbfbf" points="355.5,-56.5 355.5,-75.5 411.5,-75.5 411.5,-56.5 355.5,-56.5"/>
<text text-anchor="middle" x="383.5" y="-63.5" font-family="Helvetica,sans-Serif" font-size="10.00">QObject</text>
</a>
</g>
</g>
<!-- Node2&#45;&gt;Node7 -->
<g id="edge6" class="edge">
<title>Node2&#45;&gt;Node7</title>
<path fill="none" stroke="midnightblue" d="M383.5,-112.08C383.5,-105.01 383.5,-94.86 383.5,-85.99"/>
<polygon fill="midnightblue" stroke="midnightblue" points="387,-85.75 383.5,-75.75 380,-85.75 387,-85.75"/>
</g>
<!-- Node8 -->
<g id="node8" class="node">
<title>Node8</title>
<g id="a_node8"><a xlink:title=" ">
<polygon fill="none" stroke="#bfbfbf" points="429.5,-56.5 429.5,-75.5 489.5,-75.5 489.5,-56.5 429.5,-56.5"/>
<text text-anchor="middle" x="459.5" y="-63.5" font-family="Helvetica,sans-Serif" font-size="10.00">iostream</text>
</a>
</g>
</g>
<!-- Node2&#45;&gt;Node8 -->
<g id="edge7" class="edge">
<title>Node2&#45;&gt;Node8</title>
<path fill="none" stroke="midnightblue" d="M395.71,-112.32C407.28,-104.11 424.88,-91.6 438.66,-81.81"/>
<polygon fill="midnightblue" stroke="midnightblue" points="440.94,-84.48 447.07,-75.83 436.89,-78.77 440.94,-84.48"/>
</g>
<!-- Node9 -->
<g id="node9" class="node">
<title>Node9</title>
<g id="a_node9"><a xlink:title=" ">
<polygon fill="none" stroke="#bfbfbf" points="508,-56.5 508,-75.5 555,-75.5 555,-56.5 508,-56.5"/>
<text text-anchor="middle" x="531.5" y="-63.5" font-family="Helvetica,sans-Serif" font-size="10.00">qlist.h</text>
</a>
</g>
</g>
<!-- Node2&#45;&gt;Node9 -->
<g id="edge8" class="edge">
<title>Node2&#45;&gt;Node9</title>
<path fill="none" stroke="midnightblue" d="M406.95,-112.44C431.63,-103.44 470.69,-89.19 498.48,-79.05"/>
<polygon fill="midnightblue" stroke="midnightblue" points="499.96,-82.23 508.16,-75.52 497.56,-75.66 499.96,-82.23"/>
</g>
<!-- Node10 -->
<g id="node10" class="node">
<title>Node10</title>
<g id="a_node10"><a xlink:href="utils_8h.html" target="_top" xlink:title=" ">
<polygon fill="none" stroke="black" points="573.5,-56.5 573.5,-75.5 637.5,-75.5 637.5,-56.5 573.5,-56.5"/>
<text text-anchor="middle" x="605.5" y="-63.5" font-family="Helvetica,sans-Serif" font-size="10.00">src/utils.h</text>
</a>
</g>
</g>
<!-- Node2&#45;&gt;Node10 -->
<g id="edge9" class="edge">
<title>Node2&#45;&gt;Node10</title>
<path fill="none" stroke="midnightblue" d="M418.68,-112.44C457.98,-102.88 521.59,-87.41 563.48,-77.22"/>
<polygon fill="midnightblue" stroke="midnightblue" points="564.48,-80.58 573.37,-74.82 562.83,-73.78 564.48,-80.58"/>
</g>
<!-- Node11 -->
<g id="node11" class="node">
<title>Node11</title>
<g id="a_node11"><a xlink:title=" ">
<polygon fill="none" stroke="#bfbfbf" points="572,-0.5 572,-19.5 625,-19.5 625,-0.5 572,-0.5"/>
<text text-anchor="middle" x="598.5" y="-7.5" font-family="Helvetica,sans-Serif" font-size="10.00">QString</text>
</a>
</g>
</g>
<!-- Node10&#45;&gt;Node11 -->
<g id="edge10" class="edge">
<title>Node10&#45;&gt;Node11</title>
<path fill="none" stroke="midnightblue" d="M604.34,-56.08C603.42,-48.93 602.08,-38.64 600.92,-29.69"/>
<polygon fill="midnightblue" stroke="midnightblue" points="604.39,-29.22 599.63,-19.75 597.45,-30.12 604.39,-29.22"/>
</g>
<!-- Node10&#45;&gt;Node12 -->
<g id="edge11" class="edge">
<title>Node10&#45;&gt;Node12</title>
<path fill="none" stroke="midnightblue" d="M615.14,-56.32C624.01,-48.34 637.37,-36.31 648.11,-26.65"/>
<polygon fill="midnightblue" stroke="midnightblue" points="650.59,-29.13 655.68,-19.83 645.91,-23.92 650.59,-29.13"/>
</g>
</g>
</svg>
        <g id="navigator" transform="translate(0 0)" fill="#404254">
                <rect fill="#f2f5e9" fill-opacity="0.5" stroke="#606060" stroke-width=".5" x="0" y="0" width="60" height="60"/>
                <use id="zoomplus" xlink:href="#zoomPlus" x="17" y="9" onmousedown="handleZoom(evt,'in')"/>
                <use id="zoomminus" xlink:href="#zoomMin" x="42" y="9" onmousedown="handleZoom(evt,'out')"/>
                <use id="reset" xlink:href="#resetDef" x="30" y="36" onmousedown="handleReset()"/>
                <g id="arrowUp" xlink:href="#dirArrow" transform="translate(30 24)" onmousedown="handlePan(0,-1)">
                  <use xlink:href="#rim" fill="#404040">
                        <set attributeName="fill" to="#808080" begin="arrowUp.mouseover" end="arrowUp.mouseout"/>
                  </use>
                  <path fill="none" stroke="white" stroke-width="1.5" d="M0,-3.0v7 M-2.5,-0.5L0,-3.0L2.5,-0.5"/>
                </g>
                <g id="arrowRight" xlink:href="#dirArrow" transform="rotate(90) translate(36 -43)" onmousedown="handlePan(1,0)">
                  <use xlink:href="#rim" fill="#404040">
                        <set attributeName="fill" to="#808080" begin="arrowRight.mouseover" end="arrowRight.mouseout"/>
                  </use>
                  <path fill="none" stroke="white" stroke-width="1.5" d="M0,-3.0v7 M-2.5,-0.5L0,-3.0L2.5,-0.5"/>
                </g>
                <g id="arrowDown" xlink:href="#dirArrow" transform="rotate(180) translate(-30 -48)" onmousedown="handlePan(0,1)">
                  <use xlink:href="#rim" fill="#404040">
                        <set attributeName="fill" to="#808080" begin="arrowDown.mouseover" end="arrowDown.mouseout"/>
                  </use>
                  <path fill="none" stroke="white" stroke-width="1.5" d="M0,-3.0v7 M-2.5,-0.5L0,-3.0L2.5,-0.5"/>
                </g>
                <g id="arrowLeft" xlink:href="#dirArrow" transform="rotate(270) translate(-36 17)" onmousedown="handlePan(-1,0)">
                  <use xlink:href="#rim" fill="#404040">
                        <set attributeName="fill" to="#808080" begin="arrowLeft.mouseover" end="arrowLeft.mouseout"/>
                  </use>
                  <path fill="none" stroke="white" stroke-width="1.5" d="M0,-3.0v7 M-2.5,-0.5L0,-3.0L2.5,-0.5"/>
                </g>
        </g>
        <svg viewBox="0 0 15 15" width="100%" height="30px" preserveAspectRatio="xMaxYMin meet">
         <g id="arrow_out" transform="scale(0.3 0.3)">
          <a xlink:href="storage_2liderboard_2liderboard_8cpp__incl_org.svg" target="_base">
           <rect id="button" ry="5" rx="5" y="6" x="6" height="38" width="38"
                fill="#f2f5e9" fill-opacity="0.5" stroke="#606060" stroke-width="1.0"/>
           <path id="arrow"
             d="M 11.500037,31.436501 C 11.940474,20.09759 22.043105,11.32322 32.158766,21.979434 L 37.068811,17.246167 C 37.068811,17.246167 37.088388,32 37.088388,32 L 22.160133,31.978069 C 22.160133,31.978069 26.997745,27.140456 26.997745,27.140456 C 18.528582,18.264221 13.291696,25.230495 11.500037,31.436501 z"
             style="fill:#404040;"/>
          </a>
         </g>
        </svg>
</svg>
