<?xml version="1.0" encoding="UTF-8" standalone="no"?>
<!DOCTYPE svg PUBLIC "-//W3C//DTD SVG 1.1//EN"
 "http://www.w3.org/Graphics/SVG/1.1/DTD/svg11.dtd">
<!-- Generated by graphviz version 2.43.0 (0)
 -->
<!-- Title: src/utils.h Pages: 1 -->
<svg width="649pt" height="363pt"
 viewBox="0.00 0.00 649.00 363.00" xmlns="http://www.w3.org/2000/svg" xmlns:xlink="http://www.w3.org/1999/xlink">
<g id="graph0" class="graph" transform="scale(1 1) rotate(0) translate(4 359)">
<title>src/utils.h</title>
<!-- Node1 -->
<g id="node1" class="node">
<title>Node1</title>
<g id="a_node1"><a xlink:title=" ">
<polygon fill="#bfbfbf" stroke="black" points="266.5,-335.5 266.5,-354.5 330.5,-354.5 330.5,-335.5 266.5,-335.5"/>
<text text-anchor="middle" x="298.5" y="-342.5" font-family="Helvetica,sans-Serif" font-size="10.00">src/utils.h</text>
</a>
</g>
</g>
<!-- Node2 -->
<g id="node2" class="node">
<title>Node2</title>
<g id="a_node2"><a xlink:href="gui__figure_8h.html" target="_top" xlink:title=" ">
<polygon fill="none" stroke="black" points="135,-268.5 135,-298.5 252,-298.5 252,-268.5 135,-268.5"/>
<text text-anchor="start" x="143" y="-286.5" font-family="Helvetica,sans-Serif" font-size="10.00">src/gui/screen_game</text>
<text text-anchor="middle" x="193.5" y="-275.5" font-family="Helvetica,sans-Serif" font-size="10.00">/gui_figure.h</text>
</a>
</g>
</g>
<!-- Node1&#45;&gt;Node2 -->
<g id="edge1" class="edge">
<title>Node1&#45;&gt;Node2</title>
<path fill="none" stroke="midnightblue" d="M274.75,-330.54C257.9,-320.99 235.32,-308.2 218.25,-298.52"/>
<polygon fill="midnightblue" stroke="midnightblue" points="273.03,-333.59 283.46,-335.48 276.48,-327.5 273.03,-333.59"/>
</g>
<!-- Node9 -->
<g id="node9" class="node">
<title>Node9</title>
<g id="a_node9"><a xlink:href="figures_8h.html" target="_top" xlink:title=" ">
<polygon fill="none" stroke="black" points="349.5,-274 349.5,-293 487.5,-293 487.5,-274 349.5,-274"/>
<text text-anchor="middle" x="418.5" y="-281" font-family="Helvetica,sans-Serif" font-size="10.00">src/logic/figures/figures.h</text>
</a>
</g>
</g>
<!-- Node1&#45;&gt;Node9 -->
<g id="edge8" class="edge">
<title>Node1&#45;&gt;Node9</title>
<path fill="none" stroke="midnightblue" d="M324.68,-331.02C347.95,-319.48 381.3,-302.94 401.34,-293.01"/>
<polygon fill="midnightblue" stroke="midnightblue" points="323.1,-327.9 315.69,-335.48 326.21,-334.17 323.1,-327.9"/>
</g>
<!-- Node3 -->
<g id="node3" class="node">
<title>Node3</title>
<g id="a_node3"><a xlink:href="gui__figure_8cpp.html" target="_top" xlink:title=" ">
<polygon fill="none" stroke="black" points="0,-201.5 0,-231.5 117,-231.5 117,-201.5 0,-201.5"/>
<text text-anchor="start" x="8" y="-219.5" font-family="Helvetica,sans-Serif" font-size="10.00">src/gui/screen_game</text>
<text text-anchor="middle" x="58.5" y="-208.5" font-family="Helvetica,sans-Serif" font-size="10.00">/gui_figure.cpp</text>
</a>
</g>
</g>
<!-- Node2&#45;&gt;Node3 -->
<g id="edge2" class="edge">
<title>Node2&#45;&gt;Node3</title>
<path fill="none" stroke="midnightblue" d="M155.06,-263.99C133.66,-253.69 107.45,-241.07 87.74,-231.58"/>
<polygon fill="midnightblue" stroke="midnightblue" points="153.68,-267.21 164.21,-268.4 156.72,-260.9 153.68,-267.21"/>
</g>
<!-- Node4 -->
<g id="node4" class="node">
<title>Node4</title>
<g id="a_node4"><a xlink:href="screen__game_8h.html" target="_top" xlink:title=" ">
<polygon fill="none" stroke="black" points="135,-201.5 135,-231.5 252,-231.5 252,-201.5 135,-201.5"/>
<text text-anchor="start" x="143" y="-219.5" font-family="Helvetica,sans-Serif" font-size="10.00">src/gui/screen_game</text>
<text text-anchor="middle" x="193.5" y="-208.5" font-family="Helvetica,sans-Serif" font-size="10.00">/screen_game.h</text>
</a>
</g>
</g>
<!-- Node2&#45;&gt;Node4 -->
<g id="edge3" class="edge">
<title>Node2&#45;&gt;Node4</title>
<path fill="none" stroke="midnightblue" d="M193.5,-258.11C193.5,-249.15 193.5,-239.32 193.5,-231.58"/>
<polygon fill="midnightblue" stroke="midnightblue" points="190,-258.4 193.5,-268.4 197,-258.4 190,-258.4"/>
</g>
<!-- Node5 -->
<g id="node5" class="node">
<title>Node5</title>
<g id="a_node5"><a xlink:href="main__window_8h.html" target="_top" xlink:title=" ">
<polygon fill="none" stroke="black" points="166,-67.5 166,-97.5 285,-97.5 285,-67.5 166,-67.5"/>
<text text-anchor="start" x="174" y="-85.5" font-family="Helvetica,sans-Serif" font-size="10.00">src/gui/main_window</text>
<text text-anchor="middle" x="225.5" y="-74.5" font-family="Helvetica,sans-Serif" font-size="10.00">/main_window.h</text>
</a>
</g>
</g>
<!-- Node4&#45;&gt;Node5 -->
<g id="edge4" class="edge">
<title>Node4&#45;&gt;Node5</title>
<path fill="none" stroke="midnightblue" d="M154.6,-195.86C143.09,-187.96 131.87,-177.67 125.5,-165 119.31,-152.69 118.28,-145.73 125.5,-134 136.1,-116.77 154.59,-105.21 172.81,-97.55"/>
<polygon fill="midnightblue" stroke="midnightblue" points="153.07,-199.03 163.38,-201.44 156.82,-193.13 153.07,-199.03"/>
</g>
<!-- Node8 -->
<g id="node8" class="node">
<title>Node8</title>
<g id="a_node8"><a xlink:href="screen__game_8cpp.html" target="_top" xlink:title=" ">
<polygon fill="none" stroke="black" points="135,-134.5 135,-164.5 252,-164.5 252,-134.5 135,-134.5"/>
<text text-anchor="start" x="143" y="-152.5" font-family="Helvetica,sans-Serif" font-size="10.00">src/gui/screen_game</text>
<text text-anchor="middle" x="193.5" y="-141.5" font-family="Helvetica,sans-Serif" font-size="10.00">/screen_game.cpp</text>
</a>
</g>
</g>
<!-- Node4&#45;&gt;Node8 -->
<g id="edge7" class="edge">
<title>Node4&#45;&gt;Node8</title>
<path fill="none" stroke="midnightblue" d="M193.5,-191.11C193.5,-182.15 193.5,-172.32 193.5,-164.58"/>
<polygon fill="midnightblue" stroke="midnightblue" points="190,-191.4 193.5,-201.4 197,-191.4 190,-191.4"/>
</g>
<!-- Node6 -->
<g id="node6" class="node">
<title>Node6</title>
<g id="a_node6"><a xlink:href="main__window_8cpp.html" target="_top" xlink:title=" ">
<polygon fill="none" stroke="black" points="108,-0.5 108,-30.5 227,-30.5 227,-0.5 108,-0.5"/>
<text text-anchor="start" x="116" y="-18.5" font-family="Helvetica,sans-Serif" font-size="10.00">src/gui/main_window</text>
<text text-anchor="middle" x="167.5" y="-7.5" font-family="Helvetica,sans-Serif" font-size="10.00">/main_window.cpp</text>
</a>
</g>
</g>
<!-- Node5&#45;&gt;Node6 -->
<g id="edge5" class="edge">
<title>Node5&#45;&gt;Node6</title>
<path fill="none" stroke="midnightblue" d="M206.08,-59.74C197.5,-50.12 187.66,-39.09 180.06,-30.58"/>
<polygon fill="midnightblue" stroke="midnightblue" points="203.65,-62.26 212.91,-67.4 208.87,-57.6 203.65,-62.26"/>
</g>
<!-- Node7 -->
<g id="node7" class="node">
<title>Node7</title>
<g id="a_node7"><a xlink:href="main_8cpp.html" target="_top" xlink:title=" ">
<polygon fill="none" stroke="black" points="245,-6 245,-25 324,-25 324,-6 245,-6"/>
<text text-anchor="middle" x="284.5" y="-13" font-family="Helvetica,sans-Serif" font-size="10.00">src/main.cpp</text>
</a>
</g>
</g>
<!-- Node5&#45;&gt;Node7 -->
<g id="edge6" class="edge">
<title>Node5&#45;&gt;Node7</title>
<path fill="none" stroke="midnightblue" d="M245.33,-59.66C256.03,-47.86 268.65,-33.97 276.61,-25.19"/>
<polygon fill="midnightblue" stroke="midnightblue" points="242.43,-57.64 238.3,-67.4 247.61,-62.34 242.43,-57.64"/>
</g>
<!-- Node10 -->
<g id="node10" class="node">
<title>Node10</title>
<g id="a_node10"><a xlink:href="board_8h.html" target="_top" xlink:title=" ">
<polygon fill="none" stroke="black" points="308.5,-207 308.5,-226 436.5,-226 436.5,-207 308.5,-207"/>
<text text-anchor="middle" x="372.5" y="-214" font-family="Helvetica,sans-Serif" font-size="10.00">src/logic/board/board.h</text>
</a>
</g>
</g>
<!-- Node9&#45;&gt;Node10 -->
<g id="edge9" class="edge">
<title>Node9&#45;&gt;Node10</title>
<path fill="none" stroke="midnightblue" d="M406.4,-265.4C397.46,-252.77 385.67,-236.1 378.61,-226.13"/>
<polygon fill="midnightblue" stroke="midnightblue" points="403.66,-267.59 412.3,-273.73 409.38,-263.55 403.66,-267.59"/>
</g>
<!-- Node12 -->
<g id="node12" class="node">
<title>Node12</title>
<g id="a_node12"><a xlink:href="engine_8h.html" target="_top" xlink:title=" ">
<polygon fill="none" stroke="black" points="427.5,-140 427.5,-159 565.5,-159 565.5,-140 427.5,-140"/>
<text text-anchor="middle" x="496.5" y="-147" font-family="Helvetica,sans-Serif" font-size="10.00">src/logic/engine/engine.h</text>
</a>
</g>
</g>
<!-- Node9&#45;&gt;Node12 -->
<g id="edge14" class="edge">
<title>Node9&#45;&gt;Node12</title>
<path fill="none" stroke="midnightblue" d="M428.89,-264.92C445.86,-236.2 478.88,-180.32 491.46,-159.02"/>
<polygon fill="midnightblue" stroke="midnightblue" points="425.69,-263.45 423.62,-273.84 431.72,-267.01 425.69,-263.45"/>
</g>
<!-- Node14 -->
<g id="node14" class="node">
<title>Node14</title>
<g id="a_node14"><a xlink:href="figures_8cpp.html" target="_top" xlink:title=" ">
<polygon fill="none" stroke="black" points="492,-207 492,-226 641,-226 641,-207 492,-207"/>
<text text-anchor="middle" x="566.5" y="-214" font-family="Helvetica,sans-Serif" font-size="10.00">src/logic/figures/figures.cpp</text>
</a>
</g>
</g>
<!-- Node9&#45;&gt;Node14 -->
<g id="edge15" class="edge">
<title>Node9&#45;&gt;Node14</title>
<path fill="none" stroke="midnightblue" d="M447.46,-269.78C476.77,-256.91 521.29,-237.35 546.77,-226.17"/>
<polygon fill="midnightblue" stroke="midnightblue" points="445.9,-266.64 438.15,-273.87 448.72,-273.05 445.9,-266.64"/>
</g>
<!-- Node11 -->
<g id="node11" class="node">
<title>Node11</title>
<g id="a_node11"><a xlink:href="board_8cpp.html" target="_top" xlink:title=" ">
<polygon fill="none" stroke="black" points="270,-140 270,-159 409,-159 409,-140 270,-140"/>
<text text-anchor="middle" x="339.5" y="-147" font-family="Helvetica,sans-Serif" font-size="10.00">src/logic/board/board.cpp</text>
</a>
</g>
</g>
<!-- Node10&#45;&gt;Node11 -->
<g id="edge10" class="edge">
<title>Node10&#45;&gt;Node11</title>
<path fill="none" stroke="midnightblue" d="M363.44,-197.66C357.08,-185.13 348.85,-168.91 343.88,-159.13"/>
<polygon fill="midnightblue" stroke="midnightblue" points="360.4,-199.4 368.05,-206.73 366.64,-196.23 360.4,-199.4"/>
</g>
<!-- Node10&#45;&gt;Node12 -->
<g id="edge11" class="edge">
<title>Node10&#45;&gt;Node12</title>
<path fill="none" stroke="midnightblue" d="M398.06,-202.1C422.61,-189.23 458.99,-170.16 479.97,-159.17"/>
<polygon fill="midnightblue" stroke="midnightblue" points="396.2,-199.13 388.97,-206.87 399.45,-205.33 396.2,-199.13"/>
</g>
<!-- Node12&#45;&gt;Node5 -->
<g id="edge12" class="edge">
<title>Node12&#45;&gt;Node5</title>
<path fill="none" stroke="midnightblue" d="M450.83,-137.55C404.97,-126.55 334.11,-109.55 284.12,-97.56"/>
<polygon fill="midnightblue" stroke="midnightblue" points="450.25,-141.01 460.79,-139.94 451.88,-134.2 450.25,-141.01"/>
</g>
<!-- Node13 -->
<g id="node13" class="node">
<title>Node13</title>
<g id="a_node13"><a xlink:href="engine_8cpp.html" target="_top" xlink:title=" ">
<polygon fill="none" stroke="black" points="422,-73 422,-92 571,-92 571,-73 422,-73"/>
<text text-anchor="middle" x="496.5" y="-80" font-family="Helvetica,sans-Serif" font-size="10.00">src/logic/engine/engine.cpp</text>
</a>
</g>
</g>
<!-- Node12&#45;&gt;Node13 -->
<g id="edge13" class="edge">
<title>Node12&#45;&gt;Node13</title>
<path fill="none" stroke="midnightblue" d="M496.5,-129.54C496.5,-117.17 496.5,-101.62 496.5,-92.13"/>
<polygon fill="midnightblue" stroke="midnightblue" points="493,-129.73 496.5,-139.73 500,-129.73 493,-129.73"/>
</g>
</g>
</svg>
