<?xml version="1.0" encoding="UTF-8" standalone="no"?>
<!DOCTYPE svg PUBLIC "-//W3C//DTD SVG 1.1//EN"
 "http://www.w3.org/Graphics/SVG/1.1/DTD/svg11.dtd">
<!-- Generated by graphviz version 2.43.0 (0)
 -->
<!-- Title: src/utils.h Pages: 1 -->
<svg width="1361pt" height="363pt"
 viewBox="0.00 0.00 1360.73 363.00" xmlns="http://www.w3.org/2000/svg" xmlns:xlink="http://www.w3.org/1999/xlink">
<g id="graph0" class="graph" transform="scale(1 1) rotate(0) translate(4 359)">
<title>src/utils.h</title>
<!-- Node1 -->
<g id="node1" class="node">
<title>Node1</title>
<g id="a_node1"><a xlink:title=" ">
<polygon fill="#bfbfbf" stroke="black" points="556.5,-335.5 556.5,-354.5 620.5,-354.5 620.5,-335.5 556.5,-335.5"/>
<text text-anchor="middle" x="588.5" y="-342.5" font-family="Helvetica,sans-Serif" font-size="10.00">src/utils.h</text>
</a>
</g>
</g>
<!-- Node2 -->
<g id="node2" class="node">
<title>Node2</title>
<g id="a_node2"><a xlink:href="gui__point_8h.html" target="_top" xlink:title=" ">
<polygon fill="none" stroke="black" points="135,-268.5 135,-298.5 250,-298.5 250,-268.5 135,-268.5"/>
<text text-anchor="start" x="143" y="-286.5" font-family="Helvetica,sans-Serif" font-size="10.00">src/gui/gui_point/gui</text>
<text text-anchor="middle" x="192.5" y="-275.5" font-family="Helvetica,sans-Serif" font-size="10.00">_point.h</text>
</a>
</g>
</g>
<!-- Node1&#45;&gt;Node2 -->
<g id="edge1" class="edge">
<title>Node1&#45;&gt;Node2</title>
<path fill="none" stroke="midnightblue" d="M546.09,-339.33C483.1,-332.14 361.23,-317.26 258.5,-299 255.73,-298.51 252.9,-297.98 250.04,-297.43"/>
<polygon fill="midnightblue" stroke="midnightblue" points="545.71,-342.81 556.04,-340.46 546.5,-335.85 545.71,-342.81"/>
</g>
<!-- Node9 -->
<g id="node9" class="node">
<title>Node9</title>
<g id="a_node9"><a xlink:href="gui__scene_8h.html" target="_top" xlink:title=" ">
<polygon fill="none" stroke="black" points="268,-268.5 268,-298.5 387,-298.5 387,-268.5 268,-268.5"/>
<text text-anchor="start" x="276" y="-286.5" font-family="Helvetica,sans-Serif" font-size="10.00">src/gui/gui_scene/gui</text>
<text text-anchor="middle" x="327.5" y="-275.5" font-family="Helvetica,sans-Serif" font-size="10.00">_scene.h</text>
</a>
</g>
</g>
<!-- Node1&#45;&gt;Node9 -->
<g id="edge8" class="edge">
<title>Node1&#45;&gt;Node9</title>
<path fill="none" stroke="midnightblue" d="M546.61,-334.45C503.47,-324.62 435.83,-309.2 387.11,-298.09"/>
<polygon fill="midnightblue" stroke="midnightblue" points="545.97,-337.89 556.5,-336.7 547.52,-331.07 545.97,-337.89"/>
</g>
<!-- Node11 -->
<g id="node11" class="node">
<title>Node11</title>
<g id="a_node11"><a xlink:href="gui__win_8h.html" target="_top" xlink:title=" ">
<polygon fill="none" stroke="black" points="405,-268.5 405,-298.5 512,-298.5 512,-268.5 405,-268.5"/>
<text text-anchor="start" x="413" y="-286.5" font-family="Helvetica,sans-Serif" font-size="10.00">src/gui/gui_win/gui</text>
<text text-anchor="middle" x="458.5" y="-275.5" font-family="Helvetica,sans-Serif" font-size="10.00">_win.h</text>
</a>
</g>
</g>
<!-- Node1&#45;&gt;Node11 -->
<g id="edge11" class="edge">
<title>Node1&#45;&gt;Node11</title>
<path fill="none" stroke="midnightblue" d="M560.53,-331.2C539.53,-321.58 510.77,-308.42 489.14,-298.52"/>
<polygon fill="midnightblue" stroke="midnightblue" points="559.32,-334.5 569.87,-335.48 562.24,-328.13 559.32,-334.5"/>
</g>
<!-- Node13 -->
<g id="node13" class="node">
<title>Node13</title>
<g id="a_node13"><a xlink:href="gui__figure_8h.html" target="_top" xlink:title=" ">
<polygon fill="none" stroke="black" points="530,-268.5 530,-298.5 647,-298.5 647,-268.5 530,-268.5"/>
<text text-anchor="start" x="538" y="-286.5" font-family="Helvetica,sans-Serif" font-size="10.00">src/gui/screen_game</text>
<text text-anchor="middle" x="588.5" y="-275.5" font-family="Helvetica,sans-Serif" font-size="10.00">/gui_figure.h</text>
</a>
</g>
</g>
<!-- Node1&#45;&gt;Node13 -->
<g id="edge14" class="edge">
<title>Node1&#45;&gt;Node13</title>
<path fill="none" stroke="midnightblue" d="M588.5,-325.23C588.5,-316.59 588.5,-306.5 588.5,-298.52"/>
<polygon fill="midnightblue" stroke="midnightblue" points="585,-325.48 588.5,-335.48 592,-325.48 585,-325.48"/>
</g>
<!-- Node15 -->
<g id="node15" class="node">
<title>Node15</title>
<g id="a_node15"><a xlink:href="screen__liderboard_8h.html" target="_top" xlink:title=" ">
<polygon fill="none" stroke="black" points="665,-268.5 665,-298.5 804,-298.5 804,-268.5 665,-268.5"/>
<text text-anchor="start" x="673" y="-286.5" font-family="Helvetica,sans-Serif" font-size="10.00">src/gui/screen_liderboard</text>
<text text-anchor="middle" x="734.5" y="-275.5" font-family="Helvetica,sans-Serif" font-size="10.00">/screen_liderboard.h</text>
</a>
</g>
</g>
<!-- Node1&#45;&gt;Node15 -->
<g id="edge17" class="edge">
<title>Node1&#45;&gt;Node15</title>
<path fill="none" stroke="midnightblue" d="M618.95,-331.59C642.62,-321.94 675.47,-308.56 700.09,-298.52"/>
<polygon fill="midnightblue" stroke="midnightblue" points="617.36,-328.46 609.42,-335.48 620,-334.94 617.36,-328.46"/>
</g>
<!-- Node17 -->
<g id="node17" class="node">
<title>Node17</title>
<g id="a_node17"><a xlink:href="figures_8h.html" target="_top" xlink:title=" ">
<polygon fill="none" stroke="black" points="1113.5,-274 1113.5,-293 1251.5,-293 1251.5,-274 1113.5,-274"/>
<text text-anchor="middle" x="1182.5" y="-281" font-family="Helvetica,sans-Serif" font-size="10.00">src/logic/figures/figures.h</text>
</a>
</g>
</g>
<!-- Node1&#45;&gt;Node17 -->
<g id="edge20" class="edge">
<title>Node1&#45;&gt;Node17</title>
<path fill="none" stroke="midnightblue" d="M631.02,-339.74C732.4,-329.59 989.06,-303.88 1113.18,-291.44"/>
<polygon fill="midnightblue" stroke="midnightblue" points="630.46,-336.28 620.86,-340.76 631.16,-343.24 630.46,-336.28"/>
</g>
<!-- Node23 -->
<g id="node23" class="node">
<title>Node23</title>
<g id="a_node23"><a xlink:href="liderboard_8h.html" target="_top" xlink:title=" ">
<polygon fill="none" stroke="black" points="822,-268.5 822,-298.5 945,-298.5 945,-268.5 822,-268.5"/>
<text text-anchor="start" x="830" y="-286.5" font-family="Helvetica,sans-Serif" font-size="10.00">src/storage/liderboard</text>
<text text-anchor="middle" x="883.5" y="-275.5" font-family="Helvetica,sans-Serif" font-size="10.00">/liderboard.h</text>
</a>
</g>
</g>
<!-- Node1&#45;&gt;Node23 -->
<g id="edge28" class="edge">
<title>Node1&#45;&gt;Node23</title>
<path fill="none" stroke="midnightblue" d="M630.58,-335.67C675.8,-326.71 749.76,-311.97 813.5,-299 816.18,-298.46 818.91,-297.9 821.67,-297.33"/>
<polygon fill="midnightblue" stroke="midnightblue" points="629.69,-332.28 620.56,-337.66 631.05,-339.15 629.69,-332.28"/>
</g>
<!-- Node3 -->
<g id="node3" class="node">
<title>Node3</title>
<g id="a_node3"><a xlink:href="gui__point_8cpp.html" target="_top" xlink:title=" ">
<polygon fill="none" stroke="black" points="0,-201.5 0,-231.5 115,-231.5 115,-201.5 0,-201.5"/>
<text text-anchor="start" x="8" y="-219.5" font-family="Helvetica,sans-Serif" font-size="10.00">src/gui/gui_point/gui</text>
<text text-anchor="middle" x="57.5" y="-208.5" font-family="Helvetica,sans-Serif" font-size="10.00">_point.cpp</text>
</a>
</g>
</g>
<!-- Node2&#45;&gt;Node3 -->
<g id="edge2" class="edge">
<title>Node2&#45;&gt;Node3</title>
<path fill="none" stroke="midnightblue" d="M154.06,-263.99C132.66,-253.69 106.45,-241.07 86.74,-231.58"/>
<polygon fill="midnightblue" stroke="midnightblue" points="152.68,-267.21 163.21,-268.4 155.72,-260.9 152.68,-267.21"/>
</g>
<!-- Node4 -->
<g id="node4" class="node">
<title>Node4</title>
<g id="a_node4"><a xlink:href="screen__game_8h.html" target="_top" xlink:title=" ">
<polygon fill="none" stroke="black" points="270,-201.5 270,-231.5 387,-231.5 387,-201.5 270,-201.5"/>
<text text-anchor="start" x="278" y="-219.5" font-family="Helvetica,sans-Serif" font-size="10.00">src/gui/screen_game</text>
<text text-anchor="middle" x="328.5" y="-208.5" font-family="Helvetica,sans-Serif" font-size="10.00">/screen_game.h</text>
</a>
</g>
</g>
<!-- Node2&#45;&gt;Node4 -->
<g id="edge3" class="edge">
<title>Node2&#45;&gt;Node4</title>
<path fill="none" stroke="midnightblue" d="M231.22,-263.99C252.78,-253.69 279.19,-241.07 299.05,-231.58"/>
<polygon fill="midnightblue" stroke="midnightblue" points="229.52,-260.93 222.01,-268.4 232.54,-267.24 229.52,-260.93"/>
</g>
<!-- Node5 -->
<g id="node5" class="node">
<title>Node5</title>
<g id="a_node5"><a xlink:href="main__window_8h.html" target="_top" xlink:title=" ">
<polygon fill="none" stroke="black" points="792,-67.5 792,-97.5 911,-97.5 911,-67.5 792,-67.5"/>
<text text-anchor="start" x="800" y="-85.5" font-family="Helvetica,sans-Serif" font-size="10.00">src/gui/main_window</text>
<text text-anchor="middle" x="851.5" y="-74.5" font-family="Helvetica,sans-Serif" font-size="10.00">/main_window.h</text>
</a>
</g>
</g>
<!-- Node4&#45;&gt;Node5 -->
<g id="edge4" class="edge">
<title>Node4&#45;&gt;Node5</title>
<path fill="none" stroke="midnightblue" d="M393.71,-199.04C497.47,-172.85 698.37,-122.15 795.81,-97.56"/>
<polygon fill="midnightblue" stroke="midnightblue" points="392.81,-195.66 383.98,-201.5 394.53,-202.45 392.81,-195.66"/>
</g>
<!-- Node8 -->
<g id="node8" class="node">
<title>Node8</title>
<g id="a_node8"><a xlink:href="screen__game_8cpp.html" target="_top" xlink:title=" ">
<polygon fill="none" stroke="black" points="270,-134.5 270,-164.5 387,-164.5 387,-134.5 270,-134.5"/>
<text text-anchor="start" x="278" y="-152.5" font-family="Helvetica,sans-Serif" font-size="10.00">src/gui/screen_game</text>
<text text-anchor="middle" x="328.5" y="-141.5" font-family="Helvetica,sans-Serif" font-size="10.00">/screen_game.cpp</text>
</a>
</g>
</g>
<!-- Node4&#45;&gt;Node8 -->
<g id="edge7" class="edge">
<title>Node4&#45;&gt;Node8</title>
<path fill="none" stroke="midnightblue" d="M328.5,-191.11C328.5,-182.15 328.5,-172.32 328.5,-164.58"/>
<polygon fill="midnightblue" stroke="midnightblue" points="325,-191.4 328.5,-201.4 332,-191.4 325,-191.4"/>
</g>
<!-- Node6 -->
<g id="node6" class="node">
<title>Node6</title>
<g id="a_node6"><a xlink:href="main__window_8cpp.html" target="_top" xlink:title=" ">
<polygon fill="none" stroke="black" points="734,-0.5 734,-30.5 853,-30.5 853,-0.5 734,-0.5"/>
<text text-anchor="start" x="742" y="-18.5" font-family="Helvetica,sans-Serif" font-size="10.00">src/gui/main_window</text>
<text text-anchor="middle" x="793.5" y="-7.5" font-family="Helvetica,sans-Serif" font-size="10.00">/main_window.cpp</text>
</a>
</g>
</g>
<!-- Node5&#45;&gt;Node6 -->
<g id="edge5" class="edge">
<title>Node5&#45;&gt;Node6</title>
<path fill="none" stroke="midnightblue" d="M832.08,-59.74C823.5,-50.12 813.66,-39.09 806.06,-30.58"/>
<polygon fill="midnightblue" stroke="midnightblue" points="829.65,-62.26 838.91,-67.4 834.87,-57.6 829.65,-62.26"/>
</g>
<!-- Node7 -->
<g id="node7" class="node">
<title>Node7</title>
<g id="a_node7"><a xlink:href="main_8cpp.html" target="_top" xlink:title=" ">
<polygon fill="none" stroke="black" points="871,-6 871,-25 950,-25 950,-6 871,-6"/>
<text text-anchor="middle" x="910.5" y="-13" font-family="Helvetica,sans-Serif" font-size="10.00">src/main.cpp</text>
</a>
</g>
</g>
<!-- Node5&#45;&gt;Node7 -->
<g id="edge6" class="edge">
<title>Node5&#45;&gt;Node7</title>
<path fill="none" stroke="midnightblue" d="M871.33,-59.66C882.03,-47.86 894.65,-33.97 902.61,-25.19"/>
<polygon fill="midnightblue" stroke="midnightblue" points="868.43,-57.64 864.3,-67.4 873.61,-62.34 868.43,-57.64"/>
</g>
<!-- Node9&#45;&gt;Node4 -->
<g id="edge10" class="edge">
<title>Node9&#45;&gt;Node4</title>
<path fill="none" stroke="midnightblue" d="M327.88,-258.11C328.01,-249.15 328.16,-239.32 328.28,-231.58"/>
<polygon fill="midnightblue" stroke="midnightblue" points="324.37,-258.34 327.72,-268.4 331.37,-258.45 324.37,-258.34"/>
</g>
<!-- Node10 -->
<g id="node10" class="node">
<title>Node10</title>
<g id="a_node10"><a xlink:href="gui__scene_8cpp.html" target="_top" xlink:title=" ">
<polygon fill="none" stroke="black" points="133,-201.5 133,-231.5 252,-231.5 252,-201.5 133,-201.5"/>
<text text-anchor="start" x="141" y="-219.5" font-family="Helvetica,sans-Serif" font-size="10.00">src/gui/gui_scene/gui</text>
<text text-anchor="middle" x="192.5" y="-208.5" font-family="Helvetica,sans-Serif" font-size="10.00">_scene.cpp</text>
</a>
</g>
</g>
<!-- Node9&#45;&gt;Node10 -->
<g id="edge9" class="edge">
<title>Node9&#45;&gt;Node10</title>
<path fill="none" stroke="midnightblue" d="M289.06,-263.99C267.66,-253.69 241.45,-241.07 221.74,-231.58"/>
<polygon fill="midnightblue" stroke="midnightblue" points="287.68,-267.21 298.21,-268.4 290.72,-260.9 287.68,-267.21"/>
</g>
<!-- Node11&#45;&gt;Node4 -->
<g id="edge13" class="edge">
<title>Node11&#45;&gt;Node4</title>
<path fill="none" stroke="midnightblue" d="M421.21,-263.85C400.65,-253.58 375.55,-241.03 356.65,-231.58"/>
<polygon fill="midnightblue" stroke="midnightblue" points="419.78,-267.05 430.29,-268.4 422.91,-260.79 419.78,-267.05"/>
</g>
<!-- Node12 -->
<g id="node12" class="node">
<title>Node12</title>
<g id="a_node12"><a xlink:href="gui__win_8cpp.html" target="_top" xlink:title=" ">
<polygon fill="none" stroke="black" points="405,-201.5 405,-231.5 512,-231.5 512,-201.5 405,-201.5"/>
<text text-anchor="start" x="413" y="-219.5" font-family="Helvetica,sans-Serif" font-size="10.00">src/gui/gui_win/gui</text>
<text text-anchor="middle" x="458.5" y="-208.5" font-family="Helvetica,sans-Serif" font-size="10.00">_win.cpp</text>
</a>
</g>
</g>
<!-- Node11&#45;&gt;Node12 -->
<g id="edge12" class="edge">
<title>Node11&#45;&gt;Node12</title>
<path fill="none" stroke="midnightblue" d="M458.5,-258.11C458.5,-249.15 458.5,-239.32 458.5,-231.58"/>
<polygon fill="midnightblue" stroke="midnightblue" points="455,-258.4 458.5,-268.4 462,-258.4 455,-258.4"/>
</g>
<!-- Node13&#45;&gt;Node4 -->
<g id="edge16" class="edge">
<title>Node13&#45;&gt;Node4</title>
<path fill="none" stroke="midnightblue" d="M522.44,-265.98C479.97,-255.37 425.38,-241.72 384.94,-231.61"/>
<polygon fill="midnightblue" stroke="midnightblue" points="521.85,-269.45 532.4,-268.48 523.55,-262.66 521.85,-269.45"/>
</g>
<!-- Node14 -->
<g id="node14" class="node">
<title>Node14</title>
<g id="a_node14"><a xlink:href="gui__figure_8cpp.html" target="_top" xlink:title=" ">
<polygon fill="none" stroke="black" points="530,-201.5 530,-231.5 647,-231.5 647,-201.5 530,-201.5"/>
<text text-anchor="start" x="538" y="-219.5" font-family="Helvetica,sans-Serif" font-size="10.00">src/gui/screen_game</text>
<text text-anchor="middle" x="588.5" y="-208.5" font-family="Helvetica,sans-Serif" font-size="10.00">/gui_figure.cpp</text>
</a>
</g>
</g>
<!-- Node13&#45;&gt;Node14 -->
<g id="edge15" class="edge">
<title>Node13&#45;&gt;Node14</title>
<path fill="none" stroke="midnightblue" d="M588.5,-258.11C588.5,-249.15 588.5,-239.32 588.5,-231.58"/>
<polygon fill="midnightblue" stroke="midnightblue" points="585,-258.4 588.5,-268.4 592,-258.4 585,-258.4"/>
</g>
<!-- Node15&#45;&gt;Node5 -->
<g id="edge18" class="edge">
<title>Node15&#45;&gt;Node5</title>
<path fill="none" stroke="midnightblue" d="M776.43,-263.61C790.03,-255.62 804.03,-245.09 813.5,-232 843.92,-189.96 850.04,-125.8 851.24,-97.61"/>
<polygon fill="midnightblue" stroke="midnightblue" points="774.66,-260.59 767.61,-268.49 778.05,-266.71 774.66,-260.59"/>
</g>
<!-- Node16 -->
<g id="node16" class="node">
<title>Node16</title>
<g id="a_node16"><a xlink:href="screen__liderboard_8cpp.html" target="_top" xlink:title=" ">
<polygon fill="none" stroke="black" points="665,-201.5 665,-231.5 804,-231.5 804,-201.5 665,-201.5"/>
<text text-anchor="start" x="673" y="-219.5" font-family="Helvetica,sans-Serif" font-size="10.00">src/gui/screen_liderboard</text>
<text text-anchor="middle" x="734.5" y="-208.5" font-family="Helvetica,sans-Serif" font-size="10.00">/screen_liderboard.cpp</text>
</a>
</g>
</g>
<!-- Node15&#45;&gt;Node16 -->
<g id="edge19" class="edge">
<title>Node15&#45;&gt;Node16</title>
<path fill="none" stroke="midnightblue" d="M734.5,-258.11C734.5,-249.15 734.5,-239.32 734.5,-231.58"/>
<polygon fill="midnightblue" stroke="midnightblue" points="731,-258.4 734.5,-268.4 738,-258.4 731,-258.4"/>
</g>
<!-- Node18 -->
<g id="node18" class="node">
<title>Node18</title>
<g id="a_node18"><a xlink:href="board_8h.html" target="_top" xlink:title=" ">
<polygon fill="none" stroke="black" points="1040.5,-207 1040.5,-226 1168.5,-226 1168.5,-207 1040.5,-207"/>
<text text-anchor="middle" x="1104.5" y="-214" font-family="Helvetica,sans-Serif" font-size="10.00">src/logic/board/board.h</text>
</a>
</g>
</g>
<!-- Node17&#45;&gt;Node18 -->
<g id="edge21" class="edge">
<title>Node17&#45;&gt;Node18</title>
<path fill="none" stroke="midnightblue" d="M1164.16,-267.21C1148.79,-254.41 1127.41,-236.59 1114.85,-226.13"/>
<polygon fill="midnightblue" stroke="midnightblue" points="1162.06,-270.02 1171.98,-273.73 1166.54,-264.64 1162.06,-270.02"/>
</g>
<!-- Node20 -->
<g id="node20" class="node">
<title>Node20</title>
<g id="a_node20"><a xlink:href="engine_8h.html" target="_top" xlink:title=" ">
<polygon fill="none" stroke="black" points="1124.5,-140 1124.5,-159 1262.5,-159 1262.5,-140 1124.5,-140"/>
<text text-anchor="middle" x="1193.5" y="-147" font-family="Helvetica,sans-Serif" font-size="10.00">src/logic/engine/engine.h</text>
</a>
</g>
</g>
<!-- Node17&#45;&gt;Node20 -->
<g id="edge26" class="edge">
<title>Node17&#45;&gt;Node20</title>
<path fill="none" stroke="midnightblue" d="M1261.76,-277.65C1293.03,-271.37 1326.07,-258.36 1345.5,-232 1374.72,-192.35 1303.63,-170 1249.07,-159.1"/>
<polygon fill="midnightblue" stroke="midnightblue" points="1260.91,-274.24 1251.68,-279.46 1262.14,-281.13 1260.91,-274.24"/>
</g>
<!-- Node22 -->
<g id="node22" class="node">
<title>Node22</title>
<g id="a_node22"><a xlink:href="figures_8cpp.html" target="_top" xlink:title=" ">
<polygon fill="none" stroke="black" points="1187,-207 1187,-226 1336,-226 1336,-207 1187,-207"/>
<text text-anchor="middle" x="1261.5" y="-214" font-family="Helvetica,sans-Serif" font-size="10.00">src/logic/figures/figures.cpp</text>
</a>
</g>
</g>
<!-- Node17&#45;&gt;Node22 -->
<g id="edge27" class="edge">
<title>Node17&#45;&gt;Node22</title>
<path fill="none" stroke="midnightblue" d="M1201.08,-267.21C1216.64,-254.41 1238.3,-236.59 1251.01,-226.13"/>
<polygon fill="midnightblue" stroke="midnightblue" points="1198.65,-264.68 1193.15,-273.73 1203.1,-270.08 1198.65,-264.68"/>
</g>
<!-- Node19 -->
<g id="node19" class="node">
<title>Node19</title>
<g id="a_node19"><a xlink:href="board_8cpp.html" target="_top" xlink:title=" ">
<polygon fill="none" stroke="black" points="967,-140 967,-159 1106,-159 1106,-140 967,-140"/>
<text text-anchor="middle" x="1036.5" y="-147" font-family="Helvetica,sans-Serif" font-size="10.00">src/logic/board/board.cpp</text>
</a>
</g>
</g>
<!-- Node18&#45;&gt;Node19 -->
<g id="edge22" class="edge">
<title>Node18&#45;&gt;Node19</title>
<path fill="none" stroke="midnightblue" d="M1087.76,-199.5C1074.42,-186.75 1056.27,-169.39 1045.53,-159.13"/>
<polygon fill="midnightblue" stroke="midnightblue" points="1085.68,-202.35 1095.33,-206.73 1090.52,-197.29 1085.68,-202.35"/>
</g>
<!-- Node18&#45;&gt;Node20 -->
<g id="edge23" class="edge">
<title>Node18&#45;&gt;Node20</title>
<path fill="none" stroke="midnightblue" d="M1124.95,-200.57C1142.51,-187.74 1167.23,-169.69 1181.69,-159.13"/>
<polygon fill="midnightblue" stroke="midnightblue" points="1122.51,-198.01 1116.5,-206.73 1126.64,-203.66 1122.51,-198.01"/>
</g>
<!-- Node20&#45;&gt;Node5 -->
<g id="edge24" class="edge">
<title>Node20&#45;&gt;Node5</title>
<path fill="none" stroke="midnightblue" d="M1138.41,-138.03C1076.13,-126.19 975.09,-106.99 911.04,-94.82"/>
<polygon fill="midnightblue" stroke="midnightblue" points="1137.96,-141.51 1148.44,-139.94 1139.27,-134.63 1137.96,-141.51"/>
</g>
<!-- Node21 -->
<g id="node21" class="node">
<title>Node21</title>
<g id="a_node21"><a xlink:href="engine_8cpp.html" target="_top" xlink:title=" ">
<polygon fill="none" stroke="black" points="1119,-73 1119,-92 1268,-92 1268,-73 1119,-73"/>
<text text-anchor="middle" x="1193.5" y="-80" font-family="Helvetica,sans-Serif" font-size="10.00">src/logic/engine/engine.cpp</text>
</a>
</g>
</g>
<!-- Node20&#45;&gt;Node21 -->
<g id="edge25" class="edge">
<title>Node20&#45;&gt;Node21</title>
<path fill="none" stroke="midnightblue" d="M1193.5,-129.54C1193.5,-117.17 1193.5,-101.62 1193.5,-92.13"/>
<polygon fill="midnightblue" stroke="midnightblue" points="1190,-129.73 1193.5,-139.73 1197,-129.73 1190,-129.73"/>
</g>
<!-- Node23&#45;&gt;Node5 -->
<g id="edge29" class="edge">
<title>Node23&#45;&gt;Node5</title>
<path fill="none" stroke="midnightblue" d="M879.6,-258.27C872.85,-216.29 859.19,-131.33 853.78,-97.68"/>
<polygon fill="midnightblue" stroke="midnightblue" points="876.16,-258.87 881.2,-268.19 883.07,-257.76 876.16,-258.87"/>
</g>
<!-- Node24 -->
<g id="node24" class="node">
<title>Node24</title>
<g id="a_node24"><a xlink:href="liderboard_8cpp.html" target="_top" xlink:title=" ">
<polygon fill="none" stroke="black" points="899,-201.5 899,-231.5 1022,-231.5 1022,-201.5 899,-201.5"/>
<text text-anchor="start" x="907" y="-219.5" font-family="Helvetica,sans-Serif" font-size="10.00">src/storage/liderboard</text>
<text text-anchor="middle" x="960.5" y="-208.5" font-family="Helvetica,sans-Serif" font-size="10.00">/liderboard.cpp</text>
</a>
</g>
</g>
<!-- Node23&#45;&gt;Node24 -->
<g id="edge30" class="edge">
<title>Node23&#45;&gt;Node24</title>
<path fill="none" stroke="midnightblue" d="M907.92,-261.88C919.62,-252.01 933.34,-240.43 943.82,-231.58"/>
<polygon fill="midnightblue" stroke="midnightblue" points="905.59,-259.27 900.21,-268.4 910.11,-264.62 905.59,-259.27"/>
</g>
</g>
</svg>
