<?xml version="1.0" encoding="UTF-8" standalone="no"?>
<!DOCTYPE svg PUBLIC "-//W3C//DTD SVG 1.1//EN"
 "http://www.w3.org/Graphics/SVG/1.1/DTD/svg11.dtd">
<!-- Generated by graphviz version 2.43.0 (0)
 -->
<!-- Title: src/utils.h Pages: 1 -->
<svg width="882pt" height="363pt"
 viewBox="0.00 0.00 882.00 363.00" xmlns="http://www.w3.org/2000/svg" xmlns:xlink="http://www.w3.org/1999/xlink">
<g id="graph0" class="graph" transform="scale(1 1) rotate(0) translate(4 359)">
<title>src/utils.h</title>
<!-- Node1 -->
<g id="node1" class="node">
<title>Node1</title>
<g id="a_node1"><a xlink:title=" ">
<polygon fill="#bfbfbf" stroke="black" points="363.5,-335.5 363.5,-354.5 427.5,-354.5 427.5,-335.5 363.5,-335.5"/>
<text text-anchor="middle" x="395.5" y="-342.5" font-family="Helvetica,sans-Serif" font-size="10.00">src/utils.h</text>
</a>
</g>
</g>
<!-- Node2 -->
<g id="node2" class="node">
<title>Node2</title>
<g id="a_node2"><a xlink:href="gui__point_8h.html" target="_top" xlink:title=" ">
<polygon fill="none" stroke="black" points="135,-268.5 135,-298.5 250,-298.5 250,-268.5 135,-268.5"/>
<text text-anchor="start" x="143" y="-286.5" font-family="Helvetica,sans-Serif" font-size="10.00">src/gui/gui_point/gui</text>
<text text-anchor="middle" x="192.5" y="-275.5" font-family="Helvetica,sans-Serif" font-size="10.00">_point.h</text>
</a>
</g>
</g>
<!-- Node1&#45;&gt;Node2 -->
<g id="edge1" class="edge">
<title>Node1&#45;&gt;Node2</title>
<path fill="none" stroke="midnightblue" d="M356.64,-332.61C323.52,-322.9 275.8,-308.92 240.34,-298.52"/>
<polygon fill="midnightblue" stroke="midnightblue" points="355.83,-336.02 366.42,-335.48 357.8,-329.3 355.83,-336.02"/>
</g>
<!-- Node9 -->
<g id="node9" class="node">
<title>Node9</title>
<g id="a_node9"><a xlink:href="gui__scene_8h.html" target="_top" xlink:title=" ">
<polygon fill="none" stroke="black" points="268,-268.5 268,-298.5 387,-298.5 387,-268.5 268,-268.5"/>
<text text-anchor="start" x="276" y="-286.5" font-family="Helvetica,sans-Serif" font-size="10.00">src/gui/gui_scene/gui</text>
<text text-anchor="middle" x="327.5" y="-275.5" font-family="Helvetica,sans-Serif" font-size="10.00">_scene.h</text>
</a>
</g>
</g>
<!-- Node1&#45;&gt;Node9 -->
<g id="edge8" class="edge">
<title>Node1&#45;&gt;Node9</title>
<path fill="none" stroke="midnightblue" d="M377.95,-328.65C367.32,-319.35 353.87,-307.57 343.53,-298.52"/>
<polygon fill="midnightblue" stroke="midnightblue" points="375.93,-331.52 385.76,-335.48 380.54,-326.26 375.93,-331.52"/>
</g>
<!-- Node11 -->
<g id="node11" class="node">
<title>Node11</title>
<g id="a_node11"><a xlink:href="gui__figure_8h.html" target="_top" xlink:title=" ">
<polygon fill="none" stroke="black" points="405,-268.5 405,-298.5 522,-298.5 522,-268.5 405,-268.5"/>
<text text-anchor="start" x="413" y="-286.5" font-family="Helvetica,sans-Serif" font-size="10.00">src/gui/screen_game</text>
<text text-anchor="middle" x="463.5" y="-275.5" font-family="Helvetica,sans-Serif" font-size="10.00">/gui_figure.h</text>
</a>
</g>
</g>
<!-- Node1&#45;&gt;Node11 -->
<g id="edge11" class="edge">
<title>Node1&#45;&gt;Node11</title>
<path fill="none" stroke="midnightblue" d="M413.05,-328.65C423.68,-319.35 437.13,-307.57 447.47,-298.52"/>
<polygon fill="midnightblue" stroke="midnightblue" points="410.46,-326.26 405.24,-335.48 415.07,-331.52 410.46,-326.26"/>
</g>
<!-- Node13 -->
<g id="node13" class="node">
<title>Node13</title>
<g id="a_node13"><a xlink:href="figures_8h.html" target="_top" xlink:title=" ">
<polygon fill="none" stroke="black" points="556.5,-274 556.5,-293 694.5,-293 694.5,-274 556.5,-274"/>
<text text-anchor="middle" x="625.5" y="-281" font-family="Helvetica,sans-Serif" font-size="10.00">src/logic/figures/figures.h</text>
</a>
</g>
</g>
<!-- Node1&#45;&gt;Node13 -->
<g id="edge14" class="edge">
<title>Node1&#45;&gt;Node13</title>
<path fill="none" stroke="midnightblue" d="M437.91,-333.03C482.51,-321.49 551.74,-303.58 592.45,-293.05"/>
<polygon fill="midnightblue" stroke="midnightblue" points="436.77,-329.71 427.97,-335.6 438.52,-336.49 436.77,-329.71"/>
</g>
<!-- Node3 -->
<g id="node3" class="node">
<title>Node3</title>
<g id="a_node3"><a xlink:href="gui__point_8cpp.html" target="_top" xlink:title=" ">
<polygon fill="none" stroke="black" points="0,-201.5 0,-231.5 115,-231.5 115,-201.5 0,-201.5"/>
<text text-anchor="start" x="8" y="-219.5" font-family="Helvetica,sans-Serif" font-size="10.00">src/gui/gui_point/gui</text>
<text text-anchor="middle" x="57.5" y="-208.5" font-family="Helvetica,sans-Serif" font-size="10.00">_point.cpp</text>
</a>
</g>
</g>
<!-- Node2&#45;&gt;Node3 -->
<g id="edge2" class="edge">
<title>Node2&#45;&gt;Node3</title>
<path fill="none" stroke="midnightblue" d="M154.06,-263.99C132.66,-253.69 106.45,-241.07 86.74,-231.58"/>
<polygon fill="midnightblue" stroke="midnightblue" points="152.68,-267.21 163.21,-268.4 155.72,-260.9 152.68,-267.21"/>
</g>
<!-- Node4 -->
<g id="node4" class="node">
<title>Node4</title>
<g id="a_node4"><a xlink:href="screen__game_8h.html" target="_top" xlink:title=" ">
<polygon fill="none" stroke="black" points="270,-201.5 270,-231.5 387,-231.5 387,-201.5 270,-201.5"/>
<text text-anchor="start" x="278" y="-219.5" font-family="Helvetica,sans-Serif" font-size="10.00">src/gui/screen_game</text>
<text text-anchor="middle" x="328.5" y="-208.5" font-family="Helvetica,sans-Serif" font-size="10.00">/screen_game.h</text>
</a>
</g>
</g>
<!-- Node2&#45;&gt;Node4 -->
<g id="edge3" class="edge">
<title>Node2&#45;&gt;Node4</title>
<path fill="none" stroke="midnightblue" d="M231.22,-263.99C252.78,-253.69 279.19,-241.07 299.05,-231.58"/>
<polygon fill="midnightblue" stroke="midnightblue" points="229.52,-260.93 222.01,-268.4 232.54,-267.24 229.52,-260.93"/>
</g>
<!-- Node5 -->
<g id="node5" class="node">
<title>Node5</title>
<g id="a_node5"><a xlink:href="main__window_8h.html" target="_top" xlink:title=" ">
<polygon fill="none" stroke="black" points="299,-67.5 299,-97.5 418,-97.5 418,-67.5 299,-67.5"/>
<text text-anchor="start" x="307" y="-85.5" font-family="Helvetica,sans-Serif" font-size="10.00">src/gui/main_window</text>
<text text-anchor="middle" x="358.5" y="-74.5" font-family="Helvetica,sans-Serif" font-size="10.00">/main_window.h</text>
</a>
</g>
</g>
<!-- Node4&#45;&gt;Node5 -->
<g id="edge4" class="edge">
<title>Node4&#45;&gt;Node5</title>
<path fill="none" stroke="midnightblue" d="M328.91,-191.08C329.67,-174.71 331.62,-152.78 336.5,-134 339.82,-121.23 345.95,-107.55 350.9,-97.66"/>
<polygon fill="midnightblue" stroke="midnightblue" points="325.4,-191.31 328.56,-201.42 332.4,-191.55 325.4,-191.31"/>
</g>
<!-- Node8 -->
<g id="node8" class="node">
<title>Node8</title>
<g id="a_node8"><a xlink:href="screen__game_8cpp.html" target="_top" xlink:title=" ">
<polygon fill="none" stroke="black" points="346,-134.5 346,-164.5 463,-164.5 463,-134.5 346,-134.5"/>
<text text-anchor="start" x="354" y="-152.5" font-family="Helvetica,sans-Serif" font-size="10.00">src/gui/screen_game</text>
<text text-anchor="middle" x="404.5" y="-141.5" font-family="Helvetica,sans-Serif" font-size="10.00">/screen_game.cpp</text>
</a>
</g>
</g>
<!-- Node4&#45;&gt;Node8 -->
<g id="edge7" class="edge">
<title>Node4&#45;&gt;Node8</title>
<path fill="none" stroke="midnightblue" d="M352.61,-194.88C364.16,-185.01 377.69,-173.43 388.04,-164.58"/>
<polygon fill="midnightblue" stroke="midnightblue" points="350.32,-192.24 344.99,-201.4 354.87,-197.56 350.32,-192.24"/>
</g>
<!-- Node6 -->
<g id="node6" class="node">
<title>Node6</title>
<g id="a_node6"><a xlink:href="main__window_8cpp.html" target="_top" xlink:title=" ">
<polygon fill="none" stroke="black" points="241,-0.5 241,-30.5 360,-30.5 360,-0.5 241,-0.5"/>
<text text-anchor="start" x="249" y="-18.5" font-family="Helvetica,sans-Serif" font-size="10.00">src/gui/main_window</text>
<text text-anchor="middle" x="300.5" y="-7.5" font-family="Helvetica,sans-Serif" font-size="10.00">/main_window.cpp</text>
</a>
</g>
</g>
<!-- Node5&#45;&gt;Node6 -->
<g id="edge5" class="edge">
<title>Node5&#45;&gt;Node6</title>
<path fill="none" stroke="midnightblue" d="M339.08,-59.74C330.5,-50.12 320.66,-39.09 313.06,-30.58"/>
<polygon fill="midnightblue" stroke="midnightblue" points="336.65,-62.26 345.91,-67.4 341.87,-57.6 336.65,-62.26"/>
</g>
<!-- Node7 -->
<g id="node7" class="node">
<title>Node7</title>
<g id="a_node7"><a xlink:href="main_8cpp.html" target="_top" xlink:title=" ">
<polygon fill="none" stroke="black" points="378,-6 378,-25 457,-25 457,-6 378,-6"/>
<text text-anchor="middle" x="417.5" y="-13" font-family="Helvetica,sans-Serif" font-size="10.00">src/main.cpp</text>
</a>
</g>
</g>
<!-- Node5&#45;&gt;Node7 -->
<g id="edge6" class="edge">
<title>Node5&#45;&gt;Node7</title>
<path fill="none" stroke="midnightblue" d="M378.33,-59.66C389.03,-47.86 401.65,-33.97 409.61,-25.19"/>
<polygon fill="midnightblue" stroke="midnightblue" points="375.43,-57.64 371.3,-67.4 380.61,-62.34 375.43,-57.64"/>
</g>
<!-- Node9&#45;&gt;Node4 -->
<g id="edge10" class="edge">
<title>Node9&#45;&gt;Node4</title>
<path fill="none" stroke="midnightblue" d="M327.88,-258.11C328.01,-249.15 328.16,-239.32 328.28,-231.58"/>
<polygon fill="midnightblue" stroke="midnightblue" points="324.37,-258.34 327.72,-268.4 331.37,-258.45 324.37,-258.34"/>
</g>
<!-- Node10 -->
<g id="node10" class="node">
<title>Node10</title>
<g id="a_node10"><a xlink:href="gui__scene_8cpp.html" target="_top" xlink:title=" ">
<polygon fill="none" stroke="black" points="133,-201.5 133,-231.5 252,-231.5 252,-201.5 133,-201.5"/>
<text text-anchor="start" x="141" y="-219.5" font-family="Helvetica,sans-Serif" font-size="10.00">src/gui/gui_scene/gui</text>
<text text-anchor="middle" x="192.5" y="-208.5" font-family="Helvetica,sans-Serif" font-size="10.00">_scene.cpp</text>
</a>
</g>
</g>
<!-- Node9&#45;&gt;Node10 -->
<g id="edge9" class="edge">
<title>Node9&#45;&gt;Node10</title>
<path fill="none" stroke="midnightblue" d="M289.06,-263.99C267.66,-253.69 241.45,-241.07 221.74,-231.58"/>
<polygon fill="midnightblue" stroke="midnightblue" points="287.68,-267.21 298.21,-268.4 290.72,-260.9 287.68,-267.21"/>
</g>
<!-- Node11&#45;&gt;Node4 -->
<g id="edge13" class="edge">
<title>Node11&#45;&gt;Node4</title>
<path fill="none" stroke="midnightblue" d="M425.06,-263.99C403.66,-253.69 377.45,-241.07 357.74,-231.58"/>
<polygon fill="midnightblue" stroke="midnightblue" points="423.68,-267.21 434.21,-268.4 426.72,-260.9 423.68,-267.21"/>
</g>
<!-- Node12 -->
<g id="node12" class="node">
<title>Node12</title>
<g id="a_node12"><a xlink:href="gui__figure_8cpp.html" target="_top" xlink:title=" ">
<polygon fill="none" stroke="black" points="405,-201.5 405,-231.5 522,-231.5 522,-201.5 405,-201.5"/>
<text text-anchor="start" x="413" y="-219.5" font-family="Helvetica,sans-Serif" font-size="10.00">src/gui/screen_game</text>
<text text-anchor="middle" x="463.5" y="-208.5" font-family="Helvetica,sans-Serif" font-size="10.00">/gui_figure.cpp</text>
</a>
</g>
</g>
<!-- Node11&#45;&gt;Node12 -->
<g id="edge12" class="edge">
<title>Node11&#45;&gt;Node12</title>
<path fill="none" stroke="midnightblue" d="M463.5,-258.11C463.5,-249.15 463.5,-239.32 463.5,-231.58"/>
<polygon fill="midnightblue" stroke="midnightblue" points="460,-258.4 463.5,-268.4 467,-258.4 460,-258.4"/>
</g>
<!-- Node14 -->
<g id="node14" class="node">
<title>Node14</title>
<g id="a_node14"><a xlink:href="board_8h.html" target="_top" xlink:title=" ">
<polygon fill="none" stroke="black" points="578.5,-207 578.5,-226 706.5,-226 706.5,-207 578.5,-207"/>
<text text-anchor="middle" x="642.5" y="-214" font-family="Helvetica,sans-Serif" font-size="10.00">src/logic/board/board.h</text>
</a>
</g>
</g>
<!-- Node13&#45;&gt;Node14 -->
<g id="edge15" class="edge">
<title>Node13&#45;&gt;Node14</title>
<path fill="none" stroke="midnightblue" d="M630.36,-263.91C633.61,-251.49 637.74,-235.72 640.24,-226.13"/>
<polygon fill="midnightblue" stroke="midnightblue" points="626.94,-263.17 627.79,-273.73 633.71,-264.94 626.94,-263.17"/>
</g>
<!-- Node16 -->
<g id="node16" class="node">
<title>Node16</title>
<g id="a_node16"><a xlink:href="engine_8h.html" target="_top" xlink:title=" ">
<polygon fill="none" stroke="black" points="481.5,-140 481.5,-159 619.5,-159 619.5,-140 481.5,-140"/>
<text text-anchor="middle" x="550.5" y="-147" font-family="Helvetica,sans-Serif" font-size="10.00">src/logic/engine/engine.h</text>
</a>
</g>
</g>
<!-- Node13&#45;&gt;Node16 -->
<g id="edge20" class="edge">
<title>Node13&#45;&gt;Node16</title>
<path fill="none" stroke="midnightblue" d="M603.65,-267.89C591.83,-258.89 577.96,-246.34 569.5,-232 555.47,-208.22 551.8,-174.85 550.84,-159.22"/>
<polygon fill="midnightblue" stroke="midnightblue" points="601.63,-270.76 611.78,-273.8 605.75,-265.09 601.63,-270.76"/>
</g>
<!-- Node18 -->
<g id="node18" class="node">
<title>Node18</title>
<g id="a_node18"><a xlink:href="figures_8cpp.html" target="_top" xlink:title=" ">
<polygon fill="none" stroke="black" points="725,-207 725,-226 874,-226 874,-207 725,-207"/>
<text text-anchor="middle" x="799.5" y="-214" font-family="Helvetica,sans-Serif" font-size="10.00">src/logic/figures/figures.cpp</text>
</a>
</g>
</g>
<!-- Node13&#45;&gt;Node18 -->
<g id="edge21" class="edge">
<title>Node13&#45;&gt;Node18</title>
<path fill="none" stroke="midnightblue" d="M658.24,-270.27C692.77,-257.37 746.29,-237.38 776.58,-226.06"/>
<polygon fill="midnightblue" stroke="midnightblue" points="656.75,-267.09 648.61,-273.87 659.2,-273.65 656.75,-267.09"/>
</g>
<!-- Node15 -->
<g id="node15" class="node">
<title>Node15</title>
<g id="a_node15"><a xlink:href="board_8cpp.html" target="_top" xlink:title=" ">
<polygon fill="none" stroke="black" points="638,-140 638,-159 777,-159 777,-140 638,-140"/>
<text text-anchor="middle" x="707.5" y="-147" font-family="Helvetica,sans-Serif" font-size="10.00">src/logic/board/board.cpp</text>
</a>
</g>
</g>
<!-- Node14&#45;&gt;Node15 -->
<g id="edge16" class="edge">
<title>Node14&#45;&gt;Node15</title>
<path fill="none" stroke="midnightblue" d="M658.5,-199.5C671.25,-186.75 688.61,-169.39 698.87,-159.13"/>
<polygon fill="midnightblue" stroke="midnightblue" points="655.86,-197.19 651.27,-206.73 660.81,-202.14 655.86,-197.19"/>
</g>
<!-- Node14&#45;&gt;Node16 -->
<g id="edge17" class="edge">
<title>Node14&#45;&gt;Node16</title>
<path fill="none" stroke="midnightblue" d="M621.86,-200.92C603.68,-188.07 577.79,-169.78 562.71,-159.13"/>
<polygon fill="midnightblue" stroke="midnightblue" points="619.91,-203.82 630.09,-206.73 623.94,-198.1 619.91,-203.82"/>
</g>
<!-- Node16&#45;&gt;Node5 -->
<g id="edge18" class="edge">
<title>Node16&#45;&gt;Node5</title>
<path fill="none" stroke="midnightblue" d="M515.45,-136.63C482.89,-125.61 434.39,-109.19 399.94,-97.53"/>
<polygon fill="midnightblue" stroke="midnightblue" points="514.41,-139.98 525,-139.87 516.65,-133.35 514.41,-139.98"/>
</g>
<!-- Node17 -->
<g id="node17" class="node">
<title>Node17</title>
<g id="a_node17"><a xlink:href="engine_8cpp.html" target="_top" xlink:title=" ">
<polygon fill="none" stroke="black" points="476,-73 476,-92 625,-92 625,-73 476,-73"/>
<text text-anchor="middle" x="550.5" y="-80" font-family="Helvetica,sans-Serif" font-size="10.00">src/logic/engine/engine.cpp</text>
</a>
</g>
</g>
<!-- Node16&#45;&gt;Node17 -->
<g id="edge19" class="edge">
<title>Node16&#45;&gt;Node17</title>
<path fill="none" stroke="midnightblue" d="M550.5,-129.54C550.5,-117.17 550.5,-101.62 550.5,-92.13"/>
<polygon fill="midnightblue" stroke="midnightblue" points="547,-129.73 550.5,-139.73 554,-129.73 547,-129.73"/>
</g>
</g>
</svg>
