<?xml version="1.0" encoding="UTF-8" standalone="no"?>
<!DOCTYPE svg PUBLIC "-//W3C//DTD SVG 1.1//EN"
 "http://www.w3.org/Graphics/SVG/1.1/DTD/svg11.dtd">
<!-- Generated by graphviz version 2.43.0 (0)
 -->
<!-- Title: src/utils.h Pages: 1 -->
<svg width="1148pt" height="363pt"
 viewBox="0.00 0.00 1148.00 363.00" xmlns="http://www.w3.org/2000/svg" xmlns:xlink="http://www.w3.org/1999/xlink">
<g id="graph0" class="graph" transform="scale(1 1) rotate(0) translate(4 359)">
<title>src/utils.h</title>
<!-- Node1 -->
<g id="node1" class="node">
<title>Node1</title>
<g id="a_node1"><a xlink:title=" ">
<polygon fill="#bfbfbf" stroke="black" points="491.5,-335.5 491.5,-354.5 555.5,-354.5 555.5,-335.5 491.5,-335.5"/>
<text text-anchor="middle" x="523.5" y="-342.5" font-family="Helvetica,sans-Serif" font-size="10.00">src/utils.h</text>
</a>
</g>
</g>
<!-- Node2 -->
<g id="node2" class="node">
<title>Node2</title>
<g id="a_node2"><a xlink:href="gui__point_8h.html" target="_top" xlink:title=" ">
<polygon fill="none" stroke="black" points="135,-268.5 135,-298.5 250,-298.5 250,-268.5 135,-268.5"/>
<text text-anchor="start" x="143" y="-286.5" font-family="Helvetica,sans-Serif" font-size="10.00">src/gui/gui_point/gui</text>
<text text-anchor="middle" x="192.5" y="-275.5" font-family="Helvetica,sans-Serif" font-size="10.00">_point.h</text>
</a>
</g>
</g>
<!-- Node1&#45;&gt;Node2 -->
<g id="edge1" class="edge">
<title>Node1&#45;&gt;Node2</title>
<path fill="none" stroke="midnightblue" d="M481.25,-337.47C428.85,-329.22 336.87,-314.25 258.5,-299 255.74,-298.46 252.91,-297.9 250.06,-297.32"/>
<polygon fill="midnightblue" stroke="midnightblue" points="480.76,-340.93 491.18,-339.03 481.85,-334.02 480.76,-340.93"/>
</g>
<!-- Node9 -->
<g id="node9" class="node">
<title>Node9</title>
<g id="a_node9"><a xlink:href="gui__scene_8h.html" target="_top" xlink:title=" ">
<polygon fill="none" stroke="black" points="268,-268.5 268,-298.5 387,-298.5 387,-268.5 268,-268.5"/>
<text text-anchor="start" x="276" y="-286.5" font-family="Helvetica,sans-Serif" font-size="10.00">src/gui/gui_scene/gui</text>
<text text-anchor="middle" x="327.5" y="-275.5" font-family="Helvetica,sans-Serif" font-size="10.00">_scene.h</text>
</a>
</g>
</g>
<!-- Node1&#45;&gt;Node9 -->
<g id="edge8" class="edge">
<title>Node1&#45;&gt;Node9</title>
<path fill="none" stroke="midnightblue" d="M485.56,-332.48C453.61,-322.78 407.78,-308.87 373.69,-298.52"/>
<polygon fill="midnightblue" stroke="midnightblue" points="484.83,-335.92 495.42,-335.48 486.87,-329.22 484.83,-335.92"/>
</g>
<!-- Node11 -->
<g id="node11" class="node">
<title>Node11</title>
<g id="a_node11"><a xlink:href="gui__win_8h.html" target="_top" xlink:title=" ">
<polygon fill="none" stroke="black" points="405,-268.5 405,-298.5 512,-298.5 512,-268.5 405,-268.5"/>
<text text-anchor="start" x="413" y="-286.5" font-family="Helvetica,sans-Serif" font-size="10.00">src/gui/gui_win/gui</text>
<text text-anchor="middle" x="458.5" y="-275.5" font-family="Helvetica,sans-Serif" font-size="10.00">_win.h</text>
</a>
</g>
</g>
<!-- Node1&#45;&gt;Node11 -->
<g id="edge11" class="edge">
<title>Node1&#45;&gt;Node11</title>
<path fill="none" stroke="midnightblue" d="M506.73,-328.65C496.57,-319.35 483.7,-307.57 473.82,-298.52"/>
<polygon fill="midnightblue" stroke="midnightblue" points="504.45,-331.3 514.19,-335.48 509.17,-326.14 504.45,-331.3"/>
</g>
<!-- Node13 -->
<g id="node13" class="node">
<title>Node13</title>
<g id="a_node13"><a xlink:href="gui__figure_8h.html" target="_top" xlink:title=" ">
<polygon fill="none" stroke="black" points="530,-268.5 530,-298.5 647,-298.5 647,-268.5 530,-268.5"/>
<text text-anchor="start" x="538" y="-286.5" font-family="Helvetica,sans-Serif" font-size="10.00">src/gui/screen_game</text>
<text text-anchor="middle" x="588.5" y="-275.5" font-family="Helvetica,sans-Serif" font-size="10.00">/gui_figure.h</text>
</a>
</g>
</g>
<!-- Node1&#45;&gt;Node13 -->
<g id="edge14" class="edge">
<title>Node1&#45;&gt;Node13</title>
<path fill="none" stroke="midnightblue" d="M540.27,-328.65C550.43,-319.35 563.3,-307.57 573.18,-298.52"/>
<polygon fill="midnightblue" stroke="midnightblue" points="537.83,-326.14 532.81,-335.48 542.55,-331.3 537.83,-326.14"/>
</g>
<!-- Node15 -->
<g id="node15" class="node">
<title>Node15</title>
<g id="a_node15"><a xlink:href="figures_8h.html" target="_top" xlink:title=" ">
<polygon fill="none" stroke="black" points="681.5,-274 681.5,-293 819.5,-293 819.5,-274 681.5,-274"/>
<text text-anchor="middle" x="750.5" y="-281" font-family="Helvetica,sans-Serif" font-size="10.00">src/logic/figures/figures.h</text>
</a>
</g>
</g>
<!-- Node1&#45;&gt;Node15 -->
<g id="edge17" class="edge">
<title>Node1&#45;&gt;Node15</title>
<path fill="none" stroke="midnightblue" d="M565.36,-333.03C609.38,-321.49 677.71,-303.58 717.89,-293.05"/>
<polygon fill="midnightblue" stroke="midnightblue" points="564.33,-329.68 555.54,-335.6 566.1,-336.45 564.33,-329.68"/>
</g>
<!-- Node21 -->
<g id="node21" class="node">
<title>Node21</title>
<g id="a_node21"><a xlink:href="storage_2liderboard_2liderboard_8h.html" target="_top" xlink:title=" ">
<polygon fill="none" stroke="black" points="927,-268.5 927,-298.5 1050,-298.5 1050,-268.5 927,-268.5"/>
<text text-anchor="start" x="935" y="-286.5" font-family="Helvetica,sans-Serif" font-size="10.00">src/storage/liderboard</text>
<text text-anchor="middle" x="988.5" y="-275.5" font-family="Helvetica,sans-Serif" font-size="10.00">/liderboard.h</text>
</a>
</g>
</g>
<!-- Node1&#45;&gt;Node21 -->
<g id="edge25" class="edge">
<title>Node1&#45;&gt;Node21</title>
<path fill="none" stroke="midnightblue" d="M565.85,-338.58C648.31,-328.03 830.76,-304.68 926.73,-292.4"/>
<polygon fill="midnightblue" stroke="midnightblue" points="565.3,-335.12 555.83,-339.86 566.19,-342.07 565.3,-335.12"/>
</g>
<!-- Node3 -->
<g id="node3" class="node">
<title>Node3</title>
<g id="a_node3"><a xlink:href="gui__point_8cpp.html" target="_top" xlink:title=" ">
<polygon fill="none" stroke="black" points="0,-201.5 0,-231.5 115,-231.5 115,-201.5 0,-201.5"/>
<text text-anchor="start" x="8" y="-219.5" font-family="Helvetica,sans-Serif" font-size="10.00">src/gui/gui_point/gui</text>
<text text-anchor="middle" x="57.5" y="-208.5" font-family="Helvetica,sans-Serif" font-size="10.00">_point.cpp</text>
</a>
</g>
</g>
<!-- Node2&#45;&gt;Node3 -->
<g id="edge2" class="edge">
<title>Node2&#45;&gt;Node3</title>
<path fill="none" stroke="midnightblue" d="M154.06,-263.99C132.66,-253.69 106.45,-241.07 86.74,-231.58"/>
<polygon fill="midnightblue" stroke="midnightblue" points="152.68,-267.21 163.21,-268.4 155.72,-260.9 152.68,-267.21"/>
</g>
<!-- Node4 -->
<g id="node4" class="node">
<title>Node4</title>
<g id="a_node4"><a xlink:href="screen__game_8h.html" target="_top" xlink:title=" ">
<polygon fill="none" stroke="black" points="270,-201.5 270,-231.5 387,-231.5 387,-201.5 270,-201.5"/>
<text text-anchor="start" x="278" y="-219.5" font-family="Helvetica,sans-Serif" font-size="10.00">src/gui/screen_game</text>
<text text-anchor="middle" x="328.5" y="-208.5" font-family="Helvetica,sans-Serif" font-size="10.00">/screen_game.h</text>
</a>
</g>
</g>
<!-- Node2&#45;&gt;Node4 -->
<g id="edge3" class="edge">
<title>Node2&#45;&gt;Node4</title>
<path fill="none" stroke="midnightblue" d="M231.22,-263.99C252.78,-253.69 279.19,-241.07 299.05,-231.58"/>
<polygon fill="midnightblue" stroke="midnightblue" points="229.52,-260.93 222.01,-268.4 232.54,-267.24 229.52,-260.93"/>
</g>
<!-- Node5 -->
<g id="node5" class="node">
<title>Node5</title>
<g id="a_node5"><a xlink:href="main__window_8h.html" target="_top" xlink:title=" ">
<polygon fill="none" stroke="black" points="366,-67.5 366,-97.5 485,-97.5 485,-67.5 366,-67.5"/>
<text text-anchor="start" x="374" y="-85.5" font-family="Helvetica,sans-Serif" font-size="10.00">src/gui/main_window</text>
<text text-anchor="middle" x="425.5" y="-74.5" font-family="Helvetica,sans-Serif" font-size="10.00">/main_window.h</text>
</a>
</g>
</g>
<!-- Node4&#45;&gt;Node5 -->
<g id="edge4" class="edge">
<title>Node4&#45;&gt;Node5</title>
<path fill="none" stroke="midnightblue" d="M329.45,-190.82C331.2,-173.54 335.78,-150.67 347.5,-134 358.63,-118.16 376.47,-106.08 392.27,-97.7"/>
<polygon fill="midnightblue" stroke="midnightblue" points="325.93,-191 328.67,-201.23 332.91,-191.53 325.93,-191"/>
</g>
<!-- Node8 -->
<g id="node8" class="node">
<title>Node8</title>
<g id="a_node8"><a xlink:href="screen__game_8cpp.html" target="_top" xlink:title=" ">
<polygon fill="none" stroke="black" points="357,-134.5 357,-164.5 474,-164.5 474,-134.5 357,-134.5"/>
<text text-anchor="start" x="365" y="-152.5" font-family="Helvetica,sans-Serif" font-size="10.00">src/gui/screen_game</text>
<text text-anchor="middle" x="415.5" y="-141.5" font-family="Helvetica,sans-Serif" font-size="10.00">/screen_game.cpp</text>
</a>
</g>
</g>
<!-- Node4&#45;&gt;Node8 -->
<g id="edge7" class="edge">
<title>Node4&#45;&gt;Node8</title>
<path fill="none" stroke="midnightblue" d="M355.71,-195.17C369.02,-185.23 384.7,-173.51 396.66,-164.58"/>
<polygon fill="midnightblue" stroke="midnightblue" points="353.29,-192.61 347.38,-201.4 357.48,-198.21 353.29,-192.61"/>
</g>
<!-- Node6 -->
<g id="node6" class="node">
<title>Node6</title>
<g id="a_node6"><a xlink:href="main__window_8cpp.html" target="_top" xlink:title=" ">
<polygon fill="none" stroke="black" points="308,-0.5 308,-30.5 427,-30.5 427,-0.5 308,-0.5"/>
<text text-anchor="start" x="316" y="-18.5" font-family="Helvetica,sans-Serif" font-size="10.00">src/gui/main_window</text>
<text text-anchor="middle" x="367.5" y="-7.5" font-family="Helvetica,sans-Serif" font-size="10.00">/main_window.cpp</text>
</a>
</g>
</g>
<!-- Node5&#45;&gt;Node6 -->
<g id="edge5" class="edge">
<title>Node5&#45;&gt;Node6</title>
<path fill="none" stroke="midnightblue" d="M406.08,-59.74C397.5,-50.12 387.66,-39.09 380.06,-30.58"/>
<polygon fill="midnightblue" stroke="midnightblue" points="403.65,-62.26 412.91,-67.4 408.87,-57.6 403.65,-62.26"/>
</g>
<!-- Node7 -->
<g id="node7" class="node">
<title>Node7</title>
<g id="a_node7"><a xlink:href="main_8cpp.html" target="_top" xlink:title=" ">
<polygon fill="none" stroke="black" points="445,-6 445,-25 524,-25 524,-6 445,-6"/>
<text text-anchor="middle" x="484.5" y="-13" font-family="Helvetica,sans-Serif" font-size="10.00">src/main.cpp</text>
</a>
</g>
</g>
<!-- Node5&#45;&gt;Node7 -->
<g id="edge6" class="edge">
<title>Node5&#45;&gt;Node7</title>
<path fill="none" stroke="midnightblue" d="M445.33,-59.66C456.03,-47.86 468.65,-33.97 476.61,-25.19"/>
<polygon fill="midnightblue" stroke="midnightblue" points="442.43,-57.64 438.3,-67.4 447.61,-62.34 442.43,-57.64"/>
</g>
<!-- Node9&#45;&gt;Node4 -->
<g id="edge10" class="edge">
<title>Node9&#45;&gt;Node4</title>
<path fill="none" stroke="midnightblue" d="M327.88,-258.11C328.01,-249.15 328.16,-239.32 328.28,-231.58"/>
<polygon fill="midnightblue" stroke="midnightblue" points="324.37,-258.34 327.72,-268.4 331.37,-258.45 324.37,-258.34"/>
</g>
<!-- Node10 -->
<g id="node10" class="node">
<title>Node10</title>
<g id="a_node10"><a xlink:href="gui__scene_8cpp.html" target="_top" xlink:title=" ">
<polygon fill="none" stroke="black" points="133,-201.5 133,-231.5 252,-231.5 252,-201.5 133,-201.5"/>
<text text-anchor="start" x="141" y="-219.5" font-family="Helvetica,sans-Serif" font-size="10.00">src/gui/gui_scene/gui</text>
<text text-anchor="middle" x="192.5" y="-208.5" font-family="Helvetica,sans-Serif" font-size="10.00">_scene.cpp</text>
</a>
</g>
</g>
<!-- Node9&#45;&gt;Node10 -->
<g id="edge9" class="edge">
<title>Node9&#45;&gt;Node10</title>
<path fill="none" stroke="midnightblue" d="M289.06,-263.99C267.66,-253.69 241.45,-241.07 221.74,-231.58"/>
<polygon fill="midnightblue" stroke="midnightblue" points="287.68,-267.21 298.21,-268.4 290.72,-260.9 287.68,-267.21"/>
</g>
<!-- Node11&#45;&gt;Node4 -->
<g id="edge13" class="edge">
<title>Node11&#45;&gt;Node4</title>
<path fill="none" stroke="midnightblue" d="M421.21,-263.85C400.65,-253.58 375.55,-241.03 356.65,-231.58"/>
<polygon fill="midnightblue" stroke="midnightblue" points="419.78,-267.05 430.29,-268.4 422.91,-260.79 419.78,-267.05"/>
</g>
<!-- Node12 -->
<g id="node12" class="node">
<title>Node12</title>
<g id="a_node12"><a xlink:href="gui__win_8cpp.html" target="_top" xlink:title=" ">
<polygon fill="none" stroke="black" points="405,-201.5 405,-231.5 512,-231.5 512,-201.5 405,-201.5"/>
<text text-anchor="start" x="413" y="-219.5" font-family="Helvetica,sans-Serif" font-size="10.00">src/gui/gui_win/gui</text>
<text text-anchor="middle" x="458.5" y="-208.5" font-family="Helvetica,sans-Serif" font-size="10.00">_win.cpp</text>
</a>
</g>
</g>
<!-- Node11&#45;&gt;Node12 -->
<g id="edge12" class="edge">
<title>Node11&#45;&gt;Node12</title>
<path fill="none" stroke="midnightblue" d="M458.5,-258.11C458.5,-249.15 458.5,-239.32 458.5,-231.58"/>
<polygon fill="midnightblue" stroke="midnightblue" points="455,-258.4 458.5,-268.4 462,-258.4 455,-258.4"/>
</g>
<!-- Node13&#45;&gt;Node4 -->
<g id="edge16" class="edge">
<title>Node13&#45;&gt;Node4</title>
<path fill="none" stroke="midnightblue" d="M522.44,-265.98C479.97,-255.37 425.38,-241.72 384.94,-231.61"/>
<polygon fill="midnightblue" stroke="midnightblue" points="521.85,-269.45 532.4,-268.48 523.55,-262.66 521.85,-269.45"/>
</g>
<!-- Node14 -->
<g id="node14" class="node">
<title>Node14</title>
<g id="a_node14"><a xlink:href="gui__figure_8cpp.html" target="_top" xlink:title=" ">
<polygon fill="none" stroke="black" points="530,-201.5 530,-231.5 647,-231.5 647,-201.5 530,-201.5"/>
<text text-anchor="start" x="538" y="-219.5" font-family="Helvetica,sans-Serif" font-size="10.00">src/gui/screen_game</text>
<text text-anchor="middle" x="588.5" y="-208.5" font-family="Helvetica,sans-Serif" font-size="10.00">/gui_figure.cpp</text>
</a>
</g>
</g>
<!-- Node13&#45;&gt;Node14 -->
<g id="edge15" class="edge">
<title>Node13&#45;&gt;Node14</title>
<path fill="none" stroke="midnightblue" d="M588.5,-258.11C588.5,-249.15 588.5,-239.32 588.5,-231.58"/>
<polygon fill="midnightblue" stroke="midnightblue" points="585,-258.4 588.5,-268.4 592,-258.4 585,-258.4"/>
</g>
<!-- Node16 -->
<g id="node16" class="node">
<title>Node16</title>
<g id="a_node16"><a xlink:href="board_8h.html" target="_top" xlink:title=" ">
<polygon fill="none" stroke="black" points="703.5,-207 703.5,-226 831.5,-226 831.5,-207 703.5,-207"/>
<text text-anchor="middle" x="767.5" y="-214" font-family="Helvetica,sans-Serif" font-size="10.00">src/logic/board/board.h</text>
</a>
</g>
</g>
<!-- Node15&#45;&gt;Node16 -->
<g id="edge18" class="edge">
<title>Node15&#45;&gt;Node16</title>
<path fill="none" stroke="midnightblue" d="M755.36,-263.91C758.61,-251.49 762.74,-235.72 765.24,-226.13"/>
<polygon fill="midnightblue" stroke="midnightblue" points="751.94,-263.17 752.79,-273.73 758.71,-264.94 751.94,-263.17"/>
</g>
<!-- Node18 -->
<g id="node18" class="node">
<title>Node18</title>
<g id="a_node18"><a xlink:href="engine_8h.html" target="_top" xlink:title=" ">
<polygon fill="none" stroke="black" points="573.5,-140 573.5,-159 711.5,-159 711.5,-140 573.5,-140"/>
<text text-anchor="middle" x="642.5" y="-147" font-family="Helvetica,sans-Serif" font-size="10.00">src/logic/engine/engine.h</text>
</a>
</g>
</g>
<!-- Node15&#45;&gt;Node18 -->
<g id="edge23" class="edge">
<title>Node15&#45;&gt;Node18</title>
<path fill="none" stroke="midnightblue" d="M731.33,-267.43C719.92,-257.95 705.55,-245.06 694.5,-232 673.9,-207.66 655.23,-174.56 646.98,-159.1"/>
<polygon fill="midnightblue" stroke="midnightblue" points="729.41,-270.38 739.38,-273.97 733.82,-264.95 729.41,-270.38"/>
</g>
<!-- Node20 -->
<g id="node20" class="node">
<title>Node20</title>
<g id="a_node20"><a xlink:href="figures_8cpp.html" target="_top" xlink:title=" ">
<polygon fill="none" stroke="black" points="850,-207 850,-226 999,-226 999,-207 850,-207"/>
<text text-anchor="middle" x="924.5" y="-214" font-family="Helvetica,sans-Serif" font-size="10.00">src/logic/figures/figures.cpp</text>
</a>
</g>
</g>
<!-- Node15&#45;&gt;Node20 -->
<g id="edge24" class="edge">
<title>Node15&#45;&gt;Node20</title>
<path fill="none" stroke="midnightblue" d="M783.24,-270.27C817.77,-257.37 871.29,-237.38 901.58,-226.06"/>
<polygon fill="midnightblue" stroke="midnightblue" points="781.75,-267.09 773.61,-273.87 784.2,-273.65 781.75,-267.09"/>
</g>
<!-- Node17 -->
<g id="node17" class="node">
<title>Node17</title>
<g id="a_node17"><a xlink:href="board_8cpp.html" target="_top" xlink:title=" ">
<polygon fill="none" stroke="black" points="730,-140 730,-159 869,-159 869,-140 730,-140"/>
<text text-anchor="middle" x="799.5" y="-147" font-family="Helvetica,sans-Serif" font-size="10.00">src/logic/board/board.cpp</text>
</a>
</g>
</g>
<!-- Node16&#45;&gt;Node17 -->
<g id="edge19" class="edge">
<title>Node16&#45;&gt;Node17</title>
<path fill="none" stroke="midnightblue" d="M776.28,-197.66C782.45,-185.13 790.44,-168.91 795.25,-159.13"/>
<polygon fill="midnightblue" stroke="midnightblue" points="773.09,-196.22 771.82,-206.73 779.37,-199.31 773.09,-196.22"/>
</g>
<!-- Node16&#45;&gt;Node18 -->
<g id="edge20" class="edge">
<title>Node16&#45;&gt;Node18</title>
<path fill="none" stroke="midnightblue" d="M741.74,-202.1C716.98,-189.23 680.31,-170.16 659.17,-159.17"/>
<polygon fill="midnightblue" stroke="midnightblue" points="740.41,-205.36 750.9,-206.87 743.64,-199.15 740.41,-205.36"/>
</g>
<!-- Node18&#45;&gt;Node5 -->
<g id="edge21" class="edge">
<title>Node18&#45;&gt;Node5</title>
<path fill="none" stroke="midnightblue" d="M603.83,-136.92C567.03,-125.9 511.61,-109.29 472.33,-97.53"/>
<polygon fill="midnightblue" stroke="midnightblue" points="603.1,-140.35 613.68,-139.87 605.11,-133.65 603.1,-140.35"/>
</g>
<!-- Node19 -->
<g id="node19" class="node">
<title>Node19</title>
<g id="a_node19"><a xlink:href="engine_8cpp.html" target="_top" xlink:title=" ">
<polygon fill="none" stroke="black" points="568,-73 568,-92 717,-92 717,-73 568,-73"/>
<text text-anchor="middle" x="642.5" y="-80" font-family="Helvetica,sans-Serif" font-size="10.00">src/logic/engine/engine.cpp</text>
</a>
</g>
</g>
<!-- Node18&#45;&gt;Node19 -->
<g id="edge22" class="edge">
<title>Node18&#45;&gt;Node19</title>
<path fill="none" stroke="midnightblue" d="M642.5,-129.54C642.5,-117.17 642.5,-101.62 642.5,-92.13"/>
<polygon fill="midnightblue" stroke="midnightblue" points="639,-129.73 642.5,-139.73 646,-129.73 639,-129.73"/>
</g>
<!-- Node22 -->
<g id="node22" class="node">
<title>Node22</title>
<g id="a_node22"><a xlink:href="storage_2liderboard_2liderboard_8cpp.html" target="_top" xlink:title=" ">
<polygon fill="none" stroke="black" points="1017,-201.5 1017,-231.5 1140,-231.5 1140,-201.5 1017,-201.5"/>
<text text-anchor="start" x="1025" y="-219.5" font-family="Helvetica,sans-Serif" font-size="10.00">src/storage/liderboard</text>
<text text-anchor="middle" x="1078.5" y="-208.5" font-family="Helvetica,sans-Serif" font-size="10.00">/liderboard.cpp</text>
</a>
</g>
</g>
<!-- Node21&#45;&gt;Node22 -->
<g id="edge26" class="edge">
<title>Node21&#45;&gt;Node22</title>
<path fill="none" stroke="midnightblue" d="M1016.26,-262.45C1030.11,-252.45 1046.52,-240.6 1059.01,-231.58"/>
<polygon fill="midnightblue" stroke="midnightblue" points="1014.09,-259.7 1008.03,-268.4 1018.18,-265.38 1014.09,-259.7"/>
</g>
</g>
</svg>
