<?xml version="1.0" standalone="no"?>
<!DOCTYPE svg PUBLIC "-//W3C//DTD SVG 20010904//EN"
 "http://www.w3.org/TR/2001/REC-SVG-20010904/DTD/svg10.dtd">
<svg version="1.0" xmlns="http://www.w3.org/2000/svg"
 width="512.000000pt" height="512.000000pt" viewBox="0 0 512.000000 512.000000"
 preserveAspectRatio="xMidYMid meet">

<g transform="translate(0.000000,512.000000) scale(0.100000,-0.100000)"
fill="#000000" stroke="none">
<path d="M2433 4659 c-75 -29 -144 -95 -178 -171 -75 -165 -3 -359 163 -436
81 -38 193 -38 274 0 138 64 220 223 188 361 -40 166 -164 268 -328 266 -42 0
-86 -8 -119 -20z"/>
<path d="M786 4376 c-73 -31 -147 -101 -178 -170 -32 -71 -32 -200 -1 -268 30
-66 96 -133 162 -165 48 -24 68 -28 141 -28 103 1 156 22 229 90 160 150 123
422 -72 526 -52 28 -74 33 -142 36 -68 3 -89 0 -139 -21z"/>
<path d="M4108 4390 c-61 -18 -130 -65 -167 -114 -104 -137 -91 -328 30 -441
73 -68 126 -89 229 -90 73 0 93 4 141 28 66 32 132 99 162 165 32 68 31 197
-2 269 -31 70 -111 144 -184 171 -60 23 -156 28 -209 12z"/>
<path d="M2152 3858 c-11 -18 -70 -122 -132 -231 -75 -132 -117 -196 -126
-193 -7 3 -112 86 -233 185 -121 100 -222 181 -225 181 -2 0 -16 -21 -31 -46
-69 -118 -233 -231 -370 -255 -39 -7 -73 -15 -77 -18 -4 -3 9 -80 28 -171 71
-339 174 -835 174 -837 0 -2 628 -3 1395 -3 767 0 1395 1 1395 3 0 2 95 458
174 837 19 90 32 168 30 172 -3 4 -17 8 -32 8 -131 1 -341 134 -417 264 -15
25 -29 46 -31 46 -3 0 -104 -81 -225 -181 -121 -99 -226 -182 -233 -185 -9 -4
-56 69 -142 221 -71 125 -134 229 -140 232 -6 2 -32 -10 -56 -26 -125 -84
-306 -117 -458 -81 -59 13 -194 75 -212 97 -17 21 -35 15 -56 -19z"/>
<path d="M1190 2000 c0 -227 3 -241 55 -290 l27 -25 1283 0 1283 0 27 25 c52
49 55 63 55 290 l0 210 -1365 0 -1365 0 0 -210z"/>
<path d="M364 1359 c-28 -14 -54 -61 -54 -97 0 -43 137 -727 150 -752 18 -33
71 -60 118 -60 34 0 49 6 76 32 30 28 42 57 85 196 28 90 51 171 51 180 0 49
27 -26 101 -278 25 -86 69 -130 131 -130 46 0 100 27 117 57 13 26 151 717
151 760 0 26 -8 43 -34 69 -44 44 -99 47 -145 9 -36 -31 -44 -54 -70 -206 -32
-180 -30 -180 -86 4 -40 131 -56 168 -81 195 -36 36 -84 43 -134 17 -32 -16
-37 -28 -103 -240 -34 -107 -46 -134 -51 -115 -3 14 -18 88 -32 165 -25 127
-31 143 -60 173 -25 25 -40 32 -70 31 -22 0 -48 -5 -60 -10z"/>
<path d="M1474 1336 l-34 -34 0 -392 0 -392 34 -34 c26 -26 42 -34 71 -34 44
0 89 25 104 57 16 35 15 773 -1 808 -15 33 -56 55 -104 55 -28 0 -44 -8 -70
-34z"/>
<path d="M1848 1341 l-33 -29 0 -402 0 -402 33 -29 c23 -20 43 -29 68 -29 41
0 88 22 100 47 5 10 11 104 14 208 l5 190 38 -55 c262 -378 259 -374 312 -380
47 -5 69 2 101 34 l34 34 0 371 c0 399 -2 421 -51 455 -29 20 -98 21 -125 1
-12 -8 -29 -31 -39 -51 -15 -32 -16 -57 -10 -213 5 -118 4 -173 -3 -166 -8 8
-129 182 -246 353 -67 98 -135 119 -198 63z"/>
<path d="M2718 1350 c-48 -37 -49 -51 -46 -459 l3 -383 33 -29 c53 -48 140
-35 175 25 8 13 14 87 17 201 l5 180 124 -180 c68 -99 136 -192 149 -208 59
-63 158 -50 193 27 17 37 19 72 19 399 0 384 -1 396 -52 431 -29 20 -97 20
-126 0 -42 -29 -47 -51 -52 -248 l-5 -188 -50 73 c-169 250 -248 357 -271 368
-38 17 -88 13 -116 -9z"/>
<path d="M3577 1350 c-15 -12 -31 -38 -37 -58 -13 -49 -13 -715 0 -764 6 -22
23 -46 39 -58 27 -18 44 -20 211 -20 197 0 224 6 251 57 24 45 15 94 -25 130
l-36 33 -110 0 -110 0 0 65 0 65 101 0 101 0 34 34 c28 28 34 42 34 76 0 34
-6 48 -34 76 l-34 34 -101 0 -101 0 0 65 0 65 110 0 110 0 36 33 c40 37 49 85
24 132 -26 49 -53 55 -253 55 -171 0 -186 -2 -210 -20z"/>
<path d="M4235 1337 l-35 -35 0 -392 0 -392 34 -34 c39 -39 86 -45 136 -19 42
22 50 43 50 134 0 45 3 81 8 81 4 0 37 -34 72 -76 106 -124 143 -154 191 -154
57 0 109 50 109 107 0 46 -10 62 -107 170 l-73 81 44 26 c117 68 166 216 116
348 -22 61 -73 117 -139 156 -44 26 -53 27 -209 30 l-162 4 -35 -35z m322
-221 c29 -35 29 -51 -2 -82 -22 -21 -33 -25 -78 -22 l-52 3 -3 54 c-5 79 -1
84 60 79 40 -4 57 -11 75 -32z"/>
</g>
</svg>
