<?xml version="1.0" standalone="no"?>
<!DOCTYPE svg PUBLIC "-//W3C//DTD SVG 20010904//EN"
 "http://www.w3.org/TR/2001/REC-SVG-20010904/DTD/svg10.dtd">
<svg version="1.0" xmlns="http://www.w3.org/2000/svg"
 width="640.000000pt" height="640.000000pt" viewBox="0 0 640.000000 640.000000"
 preserveAspectRatio="xMidYMid meet">

<g transform="translate(0.000000,640.000000) scale(0.100000,-0.100000)"
fill="#000000" stroke="none">
<path d="M3106 5910 c-65 -12 -179 -69 -238 -120 -104 -90 -168 -230 -168
-366 0 -102 15 -166 63 -262 l41 -83 -23 -47 c-13 -26 -110 -201 -218 -390
l-194 -342 -22 17 c-12 10 -171 139 -352 287 -182 148 -331 270 -332 271 -1 0
5 38 14 82 23 110 10 205 -42 310 -151 306 -544 386 -791 160 -177 -161 -224
-400 -120 -605 62 -123 194 -231 319 -263 26 -6 52 -17 58 -25 11 -13 112
-476 303 -1379 l44 -210 7 -361 c3 -198 10 -377 15 -398 10 -47 51 -91 99
-108 29 -10 364 -13 1626 -13 875 0 1607 4 1628 8 50 11 104 60 117 105 5 21
12 201 16 402 l6 365 78 370 c44 204 109 510 145 680 36 171 77 360 90 422 14
62 25 114 25 117 0 3 32 15 71 27 305 96 455 432 317 711 -44 87 -153 195
-240 237 -247 117 -546 11 -671 -237 -59 -118 -68 -228 -32 -377 4 -19 -105
-112 -644 -548 l-60 -48 -169 298 c-214 376 -262 466 -262 486 0 9 13 38 29
64 16 27 37 71 46 98 23 66 31 205 16 277 -35 169 -179 322 -349 373 -60 18
-185 26 -246 15z m174 -358 c53 -26 80 -74 80 -142 0 -68 -27 -116 -80 -142
-72 -37 -164 -14 -207 51 -30 45 -32 132 -3 179 42 68 135 92 210 54z m-2037
-356 c47 -19 85 -68 93 -121 5 -36 2 -54 -17 -92 -13 -26 -36 -56 -51 -67 -39
-28 -123 -32 -168 -8 -42 22 -80 90 -80 142 0 52 38 120 80 142 41 21 98 23
143 4z m4071 -9 c74 -42 96 -133 54 -217 -31 -58 -76 -83 -146 -77 -56 4 -91
24 -126 71 -29 38 -29 134 0 173 55 74 142 94 218 50z m-1825 -618 c250 -437
350 -603 389 -650 37 -43 94 -64 143 -54 34 8 152 98 519 395 362 292 401 323
407 317 3 -3 -64 -339 -148 -745 l-154 -740 -59 -6 c-80 -8 -2720 -6 -2776 2
-39 6 -45 11 -51 37 -3 17 -27 129 -52 250 -26 121 -76 362 -112 535 -103 494
-136 662 -131 667 5 6 47 -27 431 -337 353 -286 462 -368 496 -375 42 -9 107
15 139 51 35 41 195 309 400 669 84 149 159 280 167 293 13 21 19 23 110 20
l96 -3 186 -326z m1119 -2001 l-3 -163 -1400 0 -1400 0 -3 163 -2 162 1405 0
1405 0 -2 -162z"/>
<path d="M402 1653 c-43 -21 -82 -78 -82 -121 0 -34 121 -649 166 -846 30
-129 44 -160 84 -181 37 -19 133 -19 170 0 39 20 78 98 124 250 45 146 77 237
87 249 4 5 17 -25 29 -65 68 -232 124 -384 150 -410 85 -85 236 -41 270 78 16
60 167 822 175 884 13 112 -42 173 -147 166 -99 -6 -109 -23 -167 -293 -22
-103 -42 -189 -44 -190 -2 -2 -25 65 -51 149 -26 83 -58 182 -72 219 -39 103
-98 141 -181 119 -72 -20 -87 -48 -168 -311 -41 -134 -65 -195 -65 -166 0 26
-84 386 -96 412 -17 36 -79 74 -120 74 -16 0 -44 -8 -62 -17z"/>
<path d="M1849 1647 c-79 -42 -79 -40 -85 -418 -3 -184 -2 -409 3 -501 9 -166
9 -168 38 -198 58 -60 152 -60 210 0 l30 31 3 502 c2 490 2 503 -18 535 -20
32 -86 71 -121 72 -9 0 -36 -10 -60 -23z"/>
<path d="M2354 1659 c-40 -11 -91 -69 -99 -111 -4 -18 -5 -245 -3 -503 3 -429
5 -473 21 -498 37 -57 129 -77 194 -43 57 29 63 54 64 263 0 103 4 208 7 233
l7 45 36 -50 c20 -28 78 -111 129 -185 153 -221 209 -290 248 -307 52 -21 111
-10 158 31 l39 34 3 462 c3 470 -2 556 -34 591 -9 10 -36 26 -61 35 -53 20
-99 10 -150 -34 l-32 -27 -8 -250 -8 -249 -124 179 c-183 264 -258 361 -289
373 -47 18 -66 20 -98 11z"/>
<path d="M3431 1648 c-25 -13 -54 -36 -65 -51 -21 -28 -21 -40 -21 -520 0
-472 1 -493 20 -525 45 -74 158 -91 216 -32 35 35 38 53 47 310 l7 215 105
-149 c175 -248 251 -350 278 -373 56 -47 144 -39 199 20 l31 32 5 501 6 502
-35 35 c-19 20 -52 42 -74 48 -34 10 -46 9 -79 -6 -90 -40 -101 -81 -101 -361
0 -107 -4 -194 -9 -194 -4 0 -62 78 -127 172 -159 231 -259 365 -281 376 -43
23 -78 23 -122 0z"/>
<path d="M4575 1661 c-45 -11 -73 -29 -93 -58 -15 -25 -17 -67 -20 -448 -2
-231 1 -462 6 -514 13 -123 27 -138 138 -153 103 -13 410 -5 447 13 42 19 67
68 67 129 0 46 -4 56 -33 85 -44 44 -90 55 -224 55 l-113 0 0 79 0 79 143 8
142 9 33 49 c37 56 39 84 12 144 -27 59 -65 73 -210 81 l-115 6 -3 76 -3 76
139 6 c156 6 191 17 218 69 11 22 15 48 12 85 -6 68 -44 111 -109 124 -53 10
-392 10 -434 0z"/>
<path d="M5416 1660 c-41 -13 -74 -48 -86 -89 -6 -22 -10 -231 -10 -522 l0
-485 28 -26 c64 -60 128 -73 182 -35 59 40 69 63 78 173 l7 101 119 -129 c162
-177 188 -191 276 -145 50 25 80 73 80 128 0 29 -13 51 -72 125 -39 49 -91
111 -115 138 l-44 50 34 17 c55 29 153 143 174 202 23 69 23 186 -1 255 -25
75 -117 172 -203 214 -65 32 -66 32 -242 35 -97 1 -189 -2 -205 -7z m329 -294
c112 -47 47 -166 -91 -166 l-44 0 0 90 0 90 50 0 c28 0 66 -6 85 -14z"/>
</g>
</svg>
